<svg width="120" height="80" viewBox="0 0 120 80" fill="none" xmlns="http://www.w3.org/2000/svg">
<path d="M30.744 20.4575C29.491 18.819 27.7653 18.9351 27.7653 18.9351C24.0419 18.7533 23.8668 22.2252 23.9868 22.8748C24.0181 23.0448 24.0512 23.2011 24.0859 23.3483C23.7796 23.2242 23.3963 23.2589 22.9326 23.5496C21.907 24.1925 21.9875 27.9577 24.6704 26.338C24.8128 26.2521 24.9124 26.0624 24.9683 25.8179C24.9773 25.8413 24.9862 25.8645 24.9953 25.8885C25.2391 26.5312 28.6857 28.0077 30.5428 24.9492C31.2029 23.8621 31.9969 22.0959 30.744 20.4575Z" fill="#111111"/>
<path d="M25.9489 24.415C25.9489 24.415 24.3468 27.6814 24.1535 27.7851C21.339 29.295 21.276 30.8308 20.9875 30.7343C20.6991 30.6378 24.8425 32.5269 24.8425 32.5269L27.5241 32.8111L28.1797 30.8363C28.1797 30.8363 26.8166 29.603 26.7081 29.0521C26.5996 28.5013 28.0859 26.1356 28.0859 26.1356L25.9489 24.415Z" fill="white"/>
<path d="M27.5887 32.9291L24.8196 32.6357L24.8065 32.6298C24.8065 32.6298 23.837 32.1877 22.8684 31.7421C22.306 31.4834 21.8581 31.2761 21.5373 31.1259C21.3557 31.0408 21.2045 30.9693 21.099 30.9182C20.8981 30.8208 20.8504 30.7976 20.8815 30.6951C20.8846 30.6848 20.9148 30.595 21.0149 30.6284C21.0412 30.6164 21.1151 30.4875 21.1804 30.3738C21.4805 29.851 22.1046 28.7633 24.1078 27.6875C24.2717 27.5389 25.2705 25.5718 25.8643 24.3611L25.917 24.2539L28.2218 26.1096L28.1649 26.2001C27.6001 27.0992 26.7308 28.662 26.8029 29.0279C26.8857 29.4485 27.8684 30.4134 28.2401 30.7497L28.2957 30.7999L27.5887 32.9291ZM24.8655 32.4184L27.4596 32.6932L28.064 30.8723C27.7816 30.612 26.7171 29.6023 26.6135 29.0763C26.508 28.5407 27.6072 26.7148 27.9504 26.162L25.9809 24.5762C25.4689 25.6176 24.3877 27.7817 24.1948 27.8852C22.2378 28.935 21.6333 29.9885 21.3426 30.4948C21.2901 30.5863 21.2444 30.666 21.1994 30.7266C21.7704 31.0016 23.5937 31.8385 24.8655 32.4184ZM24.1121 27.6851C24.112 27.6852 24.1118 27.6853 24.1116 27.6854C24.1119 27.6852 24.112 27.6852 24.1122 27.6851L24.1121 27.6851Z" fill="#111111"/>
<path d="M25.6696 25.0193C25.4736 24.5406 25.1656 23.6338 25.4136 23.1308C25.6617 22.6279 26.123 23.0283 26.2316 23.2107C26.304 23.3321 27.5201 20.7998 27.5201 20.7998L30.9691 22.9218C30.9691 22.9218 30.3306 25.3823 29.4833 26.6579C28.6326 27.9388 27.8949 27.9098 27.0005 27.3478C26.5575 27.0695 26.2757 26.7269 26.0911 26.3842L25.6696 25.0193Z" fill="white"/>
<path d="M28.0234 27.8278C27.6501 27.8278 27.2948 27.659 26.9538 27.4448C26.5474 27.1894 26.2293 26.8521 26.0085 26.4422C25.9805 26.3901 25.9948 26.322 26.0404 26.2901C26.0862 26.2581 26.1458 26.2744 26.1738 26.3264C26.3768 26.7033 26.6708 27.0144 27.0474 27.251C27.8839 27.7767 28.5703 27.8497 29.4061 26.5912C30.1446 25.4794 30.7317 23.4203 30.8531 22.9762L27.5589 20.9494C26.4196 23.3156 26.3054 23.3221 26.2438 23.3255C26.2059 23.3269 26.1722 23.3078 26.1515 23.2729C26.09 23.1697 25.8963 22.9892 25.7249 22.9975C25.6325 23.002 25.5583 23.0633 25.4982 23.1851C25.3342 23.5177 25.4287 24.1691 25.7575 24.9726C25.7801 25.0279 25.7592 25.0937 25.7106 25.1196C25.6621 25.1455 25.6044 25.1215 25.5818 25.0661C25.3265 24.4425 25.0754 23.591 25.3291 23.0768C25.4467 22.8384 25.6048 22.782 25.7168 22.7766C25.9184 22.7657 26.125 22.916 26.2449 23.0566C26.43 22.7809 26.9703 21.7146 27.4351 20.7468L27.4814 20.6504L31.0844 22.8672L31.0621 22.9533C31.0358 23.0546 30.4088 25.4478 29.5607 26.7248C29.0141 27.5477 28.504 27.8277 28.0234 27.8278Z" fill="#111111"/>
<path d="M31.055 23.056C31.055 23.056 27.7894 21.9527 26.2969 23.2161C26.2969 23.2161 26.1592 22.9875 26.0165 22.9052C25.8326 22.7992 25.7346 22.8235 25.7346 22.8235L27.4364 20.1372L31.055 23.056Z" fill="#111111"/>
<path d="M23.106 28.0884C22.3471 27.642 17.331 33.8319 16.2085 36.3846C13.9118 41.6075 20.2543 40.398 20.2543 40.398L19.3951 34.1717L19.8285 43.2527L26.5614 43.7614L28.1452 35.4315C28.1452 35.4315 28.33 40.4183 30.7646 40.4183C32.2245 40.4183 34.2903 40.4183 34.2903 40.4183L34.5032 38.1462L31.055 37.692C31.055 37.692 30.4729 32.4814 29.0003 30.7422C28.3053 29.9213 27.7334 29.4381 27.4334 29.3547C26.5304 29.1037 26.9593 30.3548 23.106 28.0884Z" fill="#F8E643"/>
<path d="M29.5317 25.2216C29.5099 25.2216 29.4875 25.2165 29.4663 25.2058C29.3846 25.1645 29.3478 25.0556 29.3841 24.9625L29.4361 24.8289C29.4723 24.7358 29.5677 24.6938 29.6494 24.7352C29.7311 24.7764 29.7678 24.8853 29.7316 24.9784L29.6796 25.1121C29.6528 25.1807 29.5937 25.2216 29.5317 25.2216Z" fill="#111111"/>
<path d="M27.7954 24.3677C27.7735 24.3677 27.7512 24.3626 27.7299 24.3519C27.6483 24.3106 27.6115 24.2017 27.6478 24.1086L27.6997 23.9749C27.7359 23.8818 27.8314 23.8398 27.913 23.8812C27.9946 23.9225 28.0314 24.0314 27.9952 24.1244L27.9432 24.2582C27.9165 24.3269 27.8573 24.3677 27.7954 24.3677Z" fill="#111111"/>
<path d="M28.6858 23.7142C28.6558 23.7142 28.6263 23.6985 28.6073 23.6688C28.5937 23.648 28.2899 23.1923 27.6496 23.2864C27.5968 23.2945 27.5478 23.2515 27.541 23.1909C27.5341 23.1303 27.5716 23.0749 27.6248 23.067C28.3838 22.9552 28.7489 23.5148 28.7641 23.5387C28.7955 23.5881 28.7859 23.6572 28.7425 23.6931C28.7253 23.7074 28.7055 23.7142 28.6858 23.7142Z" fill="#111111"/>
<path d="M28.9193 25.8671C28.8282 25.8671 28.6781 25.8325 28.4263 25.7141C28.3769 25.6908 28.3533 25.6261 28.3737 25.5697C28.3941 25.5133 28.4507 25.4863 28.5004 25.5096C28.6625 25.5858 28.8397 25.6443 28.9127 25.6477C28.9121 25.6228 28.9084 25.5853 28.905 25.5509C28.8891 25.3913 28.8627 25.1241 28.9363 24.6867C29.0015 24.2989 29.0966 24.0757 29.2354 23.9844C29.3461 23.9117 29.4549 23.9413 29.5273 23.9701C29.9424 24.1351 30.2416 24.5891 30.2541 24.6083C30.286 24.6574 30.277 24.7265 30.2341 24.763C30.1911 24.7993 30.1304 24.7893 30.0983 24.7402C30.0956 24.736 29.8213 24.3212 29.4634 24.1789C29.4034 24.1551 29.3654 24.1542 29.3323 24.1761C29.285 24.2071 29.1954 24.3202 29.1268 24.7284C29.0588 25.1326 29.0832 25.3789 29.0977 25.5261C29.1094 25.6442 29.1186 25.7375 29.0606 25.8102C29.0457 25.8289 29.0152 25.8671 28.9193 25.8671Z" fill="#111111"/>
<path d="M28.1254 40.0433C27.3408 39.9665 23.9791 40.4848 23.9791 40.4848L24.2626 38.4141C24.2626 38.4141 27.9299 39.1257 28.2072 39.0348C28.728 38.864 29.4746 38.7862 30.0901 38.7588C30.9043 38.7226 32.2221 39.1958 32.2098 39.4482C32.2032 39.5843 30.5526 39.3355 30.2717 39.4641C29.4784 39.8269 28.6846 40.0981 28.1254 40.0433Z" fill="white"/>
<path d="M23.8633 40.6141L24.182 38.2861L24.279 38.3049C25.6792 38.5766 27.9767 38.9861 28.1809 38.9282C28.6751 38.7662 29.4228 38.6776 30.0865 38.6481C30.7892 38.6169 32.0301 39.0223 32.2339 39.2586C32.2984 39.3332 32.3091 39.4062 32.3067 39.4541C32.2983 39.6265 32.0937 39.6305 31.5993 39.64C31.3244 39.6452 30.4283 39.5114 30.3079 39.5665C30.1807 39.6247 30.055 39.6841 29.9314 39.7424C29.2827 40.0489 28.61 40.2019 28.1171 40.1533C27.352 40.0785 24.0257 40.589 23.9921 40.5942L23.8633 40.6141ZM24.3434 38.5418L24.0951 40.3554C24.728 40.26 27.4263 39.8636 28.1338 39.933C28.58 39.9762 29.231 39.8338 29.8572 39.5381C29.9815 39.4794 30.1079 39.4197 30.2358 39.3612C30.3893 39.291 31.2752 39.4249 31.5961 39.4188C31.761 39.4156 31.9742 39.4115 32.0827 39.3944C31.9509 39.273 30.8457 38.8363 30.0941 38.8692C29.4451 38.898 28.7146 38.9833 28.2342 39.141C27.9623 39.2302 25.1327 38.694 24.3434 38.5418Z" fill="#111111"/>
<path d="M45.0327 31.9692L43.3606 39.689H33.595L35.5721 31.9692H45.0327Z" fill="#EBF4FE"/>
<path d="M43.4398 39.8042H33.4598L35.4961 31.8535H45.1619L43.4398 39.8042ZM33.7299 39.5733H43.2812L44.9033 32.0844H35.6479L33.7299 39.5733Z" fill="#111111"/>
<path d="M43.3517 39.689H30.668V40.4186H43.3517V39.689Z" fill="#423E49"/>
<path d="M43.4489 40.5289H30.571V39.5781H43.4489V40.5289ZM30.765 40.3078H43.2549V39.7993H30.765V40.3078Z" fill="#1B2746"/>
<path d="M38.509 36.0519C38.464 36.6499 38.7738 37.1686 39.201 37.2104C39.6282 37.2522 40.011 36.8013 40.056 36.2032C40.101 35.6052 39.7912 35.0865 39.364 35.0447C38.9367 35.0029 38.5539 35.4538 38.509 36.0519Z" fill="#423E49"/>
<path d="M39.2567 37.3241C39.2354 37.3241 39.2141 37.323 39.1928 37.3209C38.713 37.274 38.3629 36.7006 38.4124 36.0427C38.436 35.7282 38.5465 35.4402 38.7235 35.2317C38.9056 35.0171 39.1357 34.9116 39.3723 34.9348C39.6086 34.9579 39.8198 35.1066 39.9673 35.3534C40.1105 35.5931 40.1763 35.8984 40.1527 36.213C40.1291 36.5275 40.0186 36.8155 39.8416 37.0239C39.6759 37.2192 39.4703 37.3241 39.2567 37.3241ZM39.3091 35.1528C39.1481 35.1528 38.9913 35.2342 38.8629 35.3855C38.7169 35.5575 38.6255 35.7977 38.6056 36.0616C38.5653 36.5978 38.8361 37.064 39.2094 37.1005C39.3862 37.1176 39.5614 37.036 39.7021 36.8701C39.8482 36.6981 39.9395 36.458 39.9593 36.194C39.9793 35.93 39.9251 35.6757 39.8069 35.4778C39.6929 35.287 39.5327 35.1724 39.3557 35.1551C39.3402 35.1536 39.3245 35.1528 39.3091 35.1528Z" fill="#1B2746"/>
<path d="M22.3241 28.2842L23.5772 27.5742L25.6284 29.1303L24.7369 29.9395L22.3241 28.2842Z" fill="#F8E643"/>
<path d="M28.0923 29.7379L27.5008 28.6514L25.6285 29.1301L26.1146 30.1802L28.0923 29.7379Z" fill="#F8E643"/>
<path d="M28.2487 29.8159L27.5467 28.5265L25.6476 29.0121L23.5842 27.4468L22.1226 28.2749L24.7447 30.0739L25.5287 29.3623C25.44 31.0272 24.8871 40.9499 24.1791 43.5586C24.1648 43.6112 24.1907 43.667 24.2368 43.6833C24.2454 43.6863 24.2542 43.6878 24.2627 43.6878C24.3 43.6878 24.3345 43.6603 24.3462 43.6176C25.0424 41.0523 25.587 31.5279 25.6959 29.5128L26.0624 30.3047L28.2487 29.8159ZM24.7293 29.8052L22.5258 28.2935L23.5701 27.7018L25.4638 29.1384L24.7293 29.8052ZM27.4547 28.7767L27.9357 29.6604L26.1665 30.056L25.7733 29.2066L27.4547 28.7767Z" fill="#111111"/>
<path d="M19.2962 36.749L25.555 38.0271L24.826 40.4847C24.826 40.4847 20.4914 40.6277 19.5634 40.4847C17.8359 40.2186 15.9891 38.4834 15.9891 38.4834L19.2962 36.749Z" fill="#F8E643"/>
<path d="M24.8643 40.4585C24.8548 40.4585 24.8449 40.4568 24.8354 40.4531C24.7881 40.4348 24.7627 40.3763 24.7787 40.3223L25.435 38.11L19.6827 37.07L21.3222 33.9216C21.3477 33.8726 21.4032 33.8565 21.4461 33.8855C21.4891 33.9146 21.5032 33.9778 21.4777 34.0268L19.9744 36.914L25.6751 37.9446L24.9501 40.3885C24.9373 40.4314 24.902 40.4585 24.8643 40.4585Z" fill="#111111"/>
<path d="M27.5508 25.7578C27.5508 25.7578 27.9929 27.0205 28.7724 26.3782C28.7724 26.3782 28.6422 26.1183 28.3146 26.1136C28.3146 26.1136 28.0756 25.8422 27.5508 25.7578Z" fill="#F8E643"/>
<path d="M51.567 79.8898H11.2778L7.10754 40.4185H55.8903L51.567 79.8898Z" fill="#D9D9D9"/>
<path d="M51.7619 80.0002H11.3011L7.10754 40.3076H56.1095L56.0959 40.4319L51.7619 80.0002ZM11.4732 79.779H51.5907L55.8898 40.5288H7.32622L11.4732 79.779Z" fill="#1B2746"/>
<path d="M89.2103 58.5279H70.2216C69.0087 58.5279 68.0255 57.4067 68.0255 56.0236V47.2918C68.0255 45.9087 69.0087 44.7876 70.2216 44.7876H89.2103C90.4232 44.7876 91.4064 45.9087 91.4064 47.2918V56.0236C91.4064 57.4067 90.4232 58.5279 89.2103 58.5279Z" fill="#423E49"/>
<path d="M112.591 58.5279H93.6024C92.3895 58.5279 91.4063 57.4067 91.4063 56.0236V47.2918C91.4063 45.9087 92.3895 44.7876 93.6024 44.7876H112.591C113.804 44.7876 114.787 45.9087 114.787 47.2918V56.0236C114.787 57.4067 113.804 58.5279 112.591 58.5279Z" fill="#423E49"/>
<path d="M67.2306 67.0517H64.8382C64.3993 67.0517 64.0435 66.6459 64.0435 66.1454V53.94C64.0435 53.4394 64.3993 53.0337 64.8382 53.0337H67.2306C67.6696 53.0337 68.0254 53.4394 68.0254 53.94V66.1454C68.0254 66.6459 67.6696 67.0517 67.2306 67.0517Z" fill="#423E49"/>
<path d="M117.974 67.0517H115.582C115.143 67.0517 114.787 66.6459 114.787 66.1454V53.94C114.787 53.4394 115.143 53.0337 115.582 53.0337H117.974C118.413 53.0337 118.769 53.4394 118.769 53.94V66.1454C118.769 66.6459 118.413 67.0517 117.974 67.0517Z" fill="#423E49"/>
<path d="M113.659 65.3473H69.1539C68.5306 65.3473 68.0255 64.7713 68.0255 64.0607V59.8145C68.0255 59.1039 68.5306 58.5278 69.1539 58.5278H113.659C114.282 58.5278 114.787 59.1039 114.787 59.8145V64.0607C114.787 64.7713 114.282 65.3473 113.659 65.3473Z" fill="#423E49"/>
<path d="M117.974 52.9233H115.582C115.3 52.9233 115.048 53.0743 114.884 53.3088V47.2917C114.884 45.8497 113.856 44.6768 112.591 44.6768H93.6024C92.567 44.6768 91.6902 45.4635 91.4063 46.54C91.1224 45.4635 90.2456 44.6768 89.2102 44.6768H70.2215C68.9571 44.6768 67.9284 45.8497 67.9284 47.2917V53.3088C67.7649 53.0743 67.5131 52.9233 67.2306 52.9233H64.8382C64.3465 52.9233 63.9464 53.3795 63.9464 53.9401V66.1455C63.9464 66.7063 64.3465 67.1625 64.8382 67.1625H67.2306C67.7223 67.1625 68.1224 66.7063 68.1224 66.1455V64.8119C68.3404 65.1996 68.7208 65.4578 69.1538 65.4578H113.659C114.092 65.4578 114.472 65.1996 114.69 64.8119V66.1455C114.69 66.7063 115.09 67.1625 115.582 67.1625H117.974C118.466 67.1625 118.866 66.7063 118.866 66.1455V53.9401C118.866 53.3795 118.466 52.9233 117.974 52.9233ZM91.5034 47.2917C91.5034 45.9718 92.445 44.8979 93.6025 44.8979H112.591C113.749 44.8979 114.69 45.9717 114.69 47.2917V53.9402V56.0235C114.69 57.3432 113.749 58.417 112.591 58.417H93.6025C92.4451 58.417 91.5034 57.3433 91.5034 56.0235V47.2917ZM114.69 59.0629C114.472 58.6752 114.092 58.417 113.659 58.417H113.51C114.035 58.1535 114.459 57.673 114.69 57.0742V59.0629ZM92.6802 58.417H90.1325C90.7415 58.1106 91.2124 57.5105 91.4064 56.7749C91.6004 57.5105 92.0712 58.1106 92.6802 58.417ZM68.1225 53.9401V47.2916C68.1225 45.9717 69.0641 44.8979 70.2216 44.8979H89.2103C90.3677 44.8979 91.3094 45.9716 91.3094 47.2916V56.0234C91.3094 57.3432 90.3678 58.417 89.2103 58.417H70.2216C69.0642 58.417 68.1225 57.3432 68.1225 56.0234V53.9401ZM69.3026 58.417H69.1539C68.7208 58.417 68.3404 58.6751 68.1225 59.0628V57.0742C68.3539 57.673 68.7773 58.1535 69.3026 58.417ZM67.9285 66.1455C67.9285 66.5843 67.6154 66.9413 67.2306 66.9413H64.8383C64.4535 66.9413 64.1405 66.5843 64.1405 66.1455V53.9401C64.1405 53.5013 64.4535 53.1445 64.8383 53.1445H67.2306C67.6154 53.1445 67.9285 53.5013 67.9285 53.9401V56.0234V59.8143V64.0604V66.1455ZM113.659 65.2366H69.1539C68.5851 65.2366 68.1225 64.7089 68.1225 64.0604V59.8143C68.1225 59.1658 68.5851 58.6382 69.1539 58.6382H70.2216H89.2103H93.6025H112.591H113.659C114.228 58.6382 114.69 59.1658 114.69 59.8143V64.0604C114.69 64.7089 114.228 65.2366 113.659 65.2366ZM118.672 66.1455C118.672 66.5843 118.359 66.9413 117.974 66.9413H115.582C115.197 66.9413 114.884 66.5843 114.884 66.1455V64.0604V59.8143V56.0234V53.9401C114.884 53.5013 115.197 53.1445 115.582 53.1445H117.974C118.359 53.1445 118.672 53.5013 118.672 53.9401V66.1455Z" fill="#1B2746"/>
<path d="M71.0198 65.3472L68.0092 79.8896H69.6283L72.7401 65.3472H71.0198Z" fill="#111111"/>
<path d="M111.999 65.3472L115.01 79.8896H113.391L110.279 65.3472H111.999Z" fill="#111111"/>
<path d="M75.3106 49.5399C75.5845 49.4105 75.7146 49.0524 75.6011 48.7401C75.4877 48.4278 75.1737 48.2794 74.8998 48.4088C74.6259 48.5382 74.4958 48.8963 74.6092 49.2086C74.7227 49.5209 75.0367 49.6692 75.3106 49.5399Z" fill="#111111"/>
<path d="M75.6346 54.755C75.6821 54.4213 75.4833 54.1069 75.1907 54.0527C74.8981 53.9986 74.6223 54.2252 74.5748 54.5589C74.5273 54.8926 74.7261 55.207 75.0187 55.2611C75.3113 55.3153 75.5871 55.0887 75.6346 54.755Z" fill="#111111"/>
<path d="M84.2864 49.4069C84.496 49.1679 84.496 48.7803 84.2864 48.5413C84.0768 48.3023 83.7369 48.3023 83.5273 48.5413C83.3176 48.7803 83.3176 49.1679 83.5273 49.4069C83.7369 49.646 84.0768 49.646 84.2864 49.4069Z" fill="#111111"/>
<path d="M84.4306 54.8062C84.4988 54.4772 84.3201 54.1476 84.0316 54.0699C83.7431 53.9922 83.4539 54.1959 83.3858 54.5249C83.3177 54.8539 83.4963 55.1836 83.7849 55.2613C84.0734 55.339 84.3625 55.1352 84.4306 54.8062Z" fill="#111111"/>
<path d="M98.7486 54.649C98.8168 54.32 98.6381 53.9903 98.3496 53.9126C98.061 53.835 97.7719 54.0387 97.7038 54.3677C97.6357 54.6967 97.8143 55.0264 98.1029 55.104C98.3914 55.1817 98.6805 54.978 98.7486 54.649Z" fill="#111111"/>
<path d="M105.083 29.1144C105.429 28.6627 106.671 28.2747 107.493 28.3384C107.99 28.377 110.311 31.9025 110.846 34.924C111.231 37.0951 109.931 39.0522 109.931 39.0522C109.931 39.0522 103.222 40.9513 103.861 40.3374C105.498 38.7634 104.15 34.8726 104.15 34.8726C104.15 34.8726 104.283 30.1604 105.083 29.1144Z" fill="#111111"/>
<path d="M109.076 33.8853C109.076 33.8853 109.051 37.5121 109.178 37.6981C109.612 38.3348 110.224 38.8905 110.507 38.9663C110.79 39.0419 110.006 43.6516 110.006 43.6516L105.163 41.7739L104.482 39.2913C104.482 39.2913 105.859 38.6719 106.181 38.2672C106.502 37.8625 106.558 34.1715 106.558 34.1715L109.076 33.8853Z" fill="white"/>
<path d="M110.08 43.7974L105.085 41.8608L104.362 39.2263L104.446 39.1886C104.824 39.0189 105.857 38.5092 106.109 38.1931C106.325 37.9208 106.44 35.5808 106.461 34.1699L106.462 34.0714L109.174 33.7632L109.173 33.8863C109.162 35.5609 109.188 37.4362 109.258 37.6361C109.682 38.2551 110.277 38.7916 110.529 38.8587C110.647 38.8903 110.794 38.9295 110.458 41.3547C110.299 42.5053 110.103 43.6613 110.101 43.6728L110.08 43.7974ZM105.24 41.6876L109.932 43.5063C110.268 41.5086 110.548 39.3627 110.457 39.0658C110.124 38.9538 109.514 38.3709 109.101 37.7663C108.977 37.5836 108.97 35.3883 108.978 34.0078L106.653 34.2721C106.641 34.9448 106.569 37.9437 106.252 38.3418C105.963 38.7057 104.91 39.2126 104.601 39.356L105.24 41.6876Z" fill="#111111"/>
<path d="M108.846 34.3911C109.138 34.0038 109.633 33.2513 109.518 32.7088C109.402 32.1665 108.881 32.4015 108.738 32.539C108.642 32.6306 108.091 29.9092 108.091 29.9092L104.392 30.8559C104.392 30.8559 104.422 33.338 104.918 34.7789C105.416 36.2258 106.11 36.4189 107.072 36.1626C107.548 36.0355 107.889 35.8006 108.14 35.5366L108.846 34.3911Z" fill="white"/>
<path d="M106.435 36.371C105.824 36.371 105.248 36.0396 104.828 34.8194C104.331 33.3764 104.296 30.9597 104.295 30.8575L104.294 30.7678L108.164 29.7773L108.186 29.8845C108.395 30.9199 108.653 32.0696 108.762 32.3865C108.907 32.292 109.132 32.2158 109.318 32.2851C109.422 32.3238 109.557 32.4242 109.612 32.683C109.731 33.2393 109.301 33.9583 108.919 34.4635C108.885 34.5098 108.823 34.515 108.783 34.4751C108.742 34.4353 108.737 34.3654 108.772 34.3192C109.263 33.6701 109.5 33.0927 109.424 32.7352C109.396 32.6051 109.342 32.5267 109.258 32.4954C109.102 32.4375 108.881 32.5465 108.8 32.6238C108.772 32.651 108.734 32.6592 108.699 32.6459C108.631 32.62 108.577 32.5996 108.274 31.2361C108.164 30.7452 108.062 30.2526 108.019 30.0413L104.491 30.944C104.502 31.3999 104.577 33.486 105.008 34.7385C105.497 36.1576 106.152 36.2942 107.05 36.0549C107.454 35.9471 107.799 35.7454 108.074 35.4554C108.114 35.414 108.175 35.4167 108.211 35.4615C108.248 35.5064 108.245 35.5764 108.206 35.6178C107.906 35.9341 107.532 36.1536 107.094 36.2703C106.873 36.329 106.652 36.371 106.435 36.371Z" fill="#111111"/>
<path d="M105.323 33.6425C105.248 33.6425 105.181 33.5826 105.165 33.4956L105.14 33.3571C105.122 33.2574 105.178 33.1598 105.265 33.1391C105.353 33.1185 105.438 33.1824 105.456 33.2821L105.482 33.4206C105.5 33.5203 105.444 33.6178 105.356 33.6386C105.345 33.6412 105.334 33.6425 105.323 33.6425Z" fill="#111111"/>
<path d="M107.048 33.0692C106.969 33.0692 106.9 33.003 106.889 32.9111L106.871 32.7711C106.858 32.6703 106.92 32.5769 107.008 32.5624C107.097 32.5482 107.178 32.6179 107.191 32.7185L107.209 32.8586C107.221 32.9594 107.16 33.0528 107.072 33.0673C107.064 33.0685 107.056 33.0692 107.048 33.0692Z" fill="#111111"/>
<path d="M106.568 32.2757C106.529 32.2757 106.493 32.2493 106.477 32.206C106.458 32.1492 106.482 32.0849 106.532 32.0623C106.553 32.0527 107.056 31.8292 107.496 32.0606C107.544 32.0863 107.566 32.152 107.543 32.2074C107.521 32.263 107.463 32.287 107.414 32.2615C107.05 32.0695 106.608 32.2659 106.603 32.2679C106.592 32.2732 106.579 32.2757 106.568 32.2757Z" fill="#111111"/>
<path d="M106.134 34.2306C106.029 34.2306 105.886 34.186 105.831 34.1446C105.741 34.0775 105.753 33.9875 105.758 33.9614C105.832 33.6319 105.83 33.5239 105.829 33.3872C105.828 33.321 105.827 33.246 105.835 33.1406C105.839 33.0797 105.887 33.0348 105.939 33.0394C105.993 33.0443 106.032 33.0977 106.028 33.1586C106.021 33.2535 106.022 33.3199 106.023 33.3842C106.024 33.5249 106.026 33.6472 105.956 33.971C106.002 33.9926 106.096 34.0111 106.141 34.0111C106.143 34.0103 106.145 34.0095 106.147 34.0088C106.197 33.9889 106.252 34.0198 106.27 34.0776C106.283 34.1223 106.269 34.1749 106.236 34.2039C106.215 34.2229 106.178 34.2306 106.134 34.2306Z" fill="#111111"/>
<path d="M104.939 32.9192C104.916 32.9192 104.893 32.9099 104.875 32.8912C104.835 32.8507 104.831 32.7814 104.867 32.7357C104.878 32.7211 105.15 32.377 105.673 32.377C105.727 32.377 105.77 32.4264 105.77 32.4875C105.77 32.5487 105.727 32.5981 105.673 32.5981C105.242 32.5981 105.021 32.8709 105.012 32.8825C104.992 32.9068 104.966 32.9192 104.939 32.9192Z" fill="#111111"/>
<path d="M90.7906 65.0024L88.4196 76.3635L85.577 79.3311L90.1365 78.059L89.9606 76.2283L93.8942 65.0024H90.7906Z" fill="white"/>
<path d="M85.2432 79.5344L88.335 76.3067L90.7165 64.8955H94.0329L93.9815 65.0422L90.0565 76.2434L90.2388 78.1406L85.2432 79.5344ZM90.8649 65.1096L88.5044 76.4202L85.911 79.1278L90.0343 77.9773L89.8647 76.2135L89.8735 76.1886L93.7558 65.1095L90.8649 65.1096Z" fill="#111111"/>
<path d="M96.8686 65.0024L97.301 76.3635L94.4583 79.3311L98.9162 78.0526L98.8419 76.2283L99.9519 65.0024H96.8686Z" fill="white"/>
<path d="M94.1208 79.5384L97.2052 76.3183L96.7706 64.8955H100.057L98.936 76.2321L99.0135 78.1352L94.1208 79.5384ZM96.9668 65.1097L97.3967 76.4088L94.7958 79.124L98.8188 77.9702L98.7477 76.225L98.7486 76.2165L99.8468 65.1097H96.9668Z" fill="#111111"/>
<path d="M99.1402 76.8926C99.3513 78.6743 98.8875 79.8004 98.8875 79.8004H98.4879L98.3698 78.4794L96.8692 79.8109L93.6475 79.8017V79.3868C93.6475 79.3868 94.7708 78.5054 94.8918 78.7872C95.2645 79.6556 99.0214 75.8894 99.1402 76.8926Z" fill="#F8E643"/>
<path d="M90.259 76.8926C90.4701 78.6743 90.0068 79.8004 90.0068 79.8004H89.6072L89.4885 78.4794L88.0126 79.8109L84.7664 79.8017V79.3868C84.7664 79.3868 85.8897 78.5054 86.0106 78.7872C86.3832 79.6556 90.1402 75.8894 90.259 76.8926Z" fill="#F8E643"/>
<path d="M90.3141 65.6171C90.3141 65.6171 91.4582 62.6936 91.8683 61.9374C93.1981 59.4851 101.127 52.3593 101.127 52.3593L101.45 50.0034L107.932 50.3339L107.357 51.7981C107.357 51.7981 109.635 55.0386 108.894 58.3181C108.382 60.5834 100.452 64.5035 100.452 64.5035C100.405 65.5109 100.282 65.8603 100.282 65.8603L90.3141 65.6171Z" fill="#111111"/>
<path d="M110.279 38.5447C111.094 38.394 112.721 44.5793 112.301 47.2999C111.497 52.5014 109.131 48.0297 109.131 48.0297L108.237 50.6004L101.26 50.1602L102.458 43.1184C102.458 43.1184 97.2892 50.0096 95.9527 47.7249C95.169 46.3852 102.613 38.5419 105.298 38.5456C105.9 38.5464 105.176 39.6927 106.813 40.2282C107.62 40.4923 108.735 38.83 110.279 38.5447Z" fill="#F8E643"/>
<path d="M115.458 48.9992C115.441 48.9992 115.425 48.9915 115.412 48.9761C115.389 48.9472 115.391 48.9024 115.416 48.8759C115.771 48.5057 115.873 48.3804 115.867 47.9595C115.861 47.5804 115.694 47.419 115.518 47.2484C115.38 47.1148 115.237 46.9768 115.164 46.7363C114.991 46.165 115.66 45.6352 115.689 45.6129C115.717 45.5909 115.756 45.5991 115.775 45.6315C115.795 45.6638 115.788 45.708 115.759 45.7302C115.753 45.735 115.14 46.2208 115.282 46.6901C115.344 46.8939 115.467 47.0134 115.598 47.1401C115.788 47.3239 115.985 47.5138 115.991 47.9574C115.998 48.4364 115.871 48.5944 115.5 48.9807C115.488 48.993 115.473 48.9992 115.458 48.9992Z" fill="#111111"/>
<path d="M117.239 48.9992C117.222 48.9992 117.205 48.9915 117.193 48.9762C117.17 48.9472 117.172 48.9024 117.197 48.876C117.552 48.5058 117.654 48.3804 117.648 47.9596C117.642 47.5805 117.475 47.4192 117.299 47.2484C117.161 47.1149 117.018 46.9768 116.945 46.7363C116.772 46.1651 117.441 45.6352 117.47 45.6131C117.498 45.5908 117.537 45.5991 117.556 45.6316C117.575 45.6639 117.568 45.708 117.54 45.7302C117.534 45.7351 116.921 46.2209 117.063 46.6902C117.124 46.894 117.248 47.0135 117.379 47.1401C117.569 47.3239 117.766 47.5139 117.772 47.9574C117.779 48.4364 117.651 48.5944 117.281 48.9807C117.269 48.993 117.254 48.9992 117.239 48.9992Z" fill="#111111"/>
<path d="M116.287 48.6196C116.27 48.6196 116.253 48.6119 116.241 48.5965C116.218 48.5676 116.22 48.5228 116.245 48.4964C116.6 48.1263 116.702 48.001 116.696 47.58C116.69 47.2008 116.523 47.0396 116.347 46.8688C116.209 46.7353 116.066 46.5974 115.993 46.3569C115.82 45.7854 116.489 45.2558 116.518 45.2336C116.546 45.2115 116.585 45.2196 116.604 45.252C116.624 45.2843 116.616 45.3285 116.588 45.3507C116.582 45.3555 115.969 45.8414 116.111 46.3107C116.172 46.5143 116.296 46.634 116.427 46.7606C116.617 46.9443 116.814 47.1343 116.82 47.5778C116.827 48.0569 116.699 48.2148 116.329 48.6011C116.317 48.6134 116.302 48.6196 116.287 48.6196Z" fill="#111111"/>
<path d="M119.527 50.1126C119.458 49.9854 119.36 49.9087 119.235 49.8845C119.003 49.8396 118.725 49.9888 118.528 50.1248V49.5479H114.521V51.0394C114.521 52.0858 115.264 52.934 116.182 52.934H116.867C117.454 52.934 117.97 52.5858 118.266 52.0609C118.738 52.0544 119.164 51.7695 119.421 51.2818C119.639 50.8686 119.681 50.3988 119.527 50.1126ZM119.315 51.2088C119.094 51.627 118.738 51.8823 118.34 51.9157C118.46 51.6536 118.528 51.3556 118.528 51.0394V50.2924C118.708 50.1588 118.995 49.9817 119.214 50.0244C119.303 50.0417 119.371 50.0949 119.421 50.1869C119.549 50.4254 119.506 50.8456 119.315 51.2088Z" fill="#F8E643"/>
<path d="M115.856 52.3721C115.842 52.3721 115.827 52.3683 115.812 52.3601C114.884 51.8217 114.995 50.1838 115.001 50.1144C115.005 50.0535 115.053 50.0082 115.105 50.0136C115.159 50.0188 115.198 50.0722 115.194 50.1331C115.193 50.1487 115.089 51.6922 115.9 52.1629C115.948 52.1906 115.967 52.2572 115.943 52.3118C115.926 52.35 115.892 52.3721 115.856 52.3721Z" fill="white"/>
<path d="M104.306 30.9606C104.306 30.9606 107.953 31.0584 109.044 32.688C109.044 32.688 109.226 32.5174 109.378 32.4845C109.573 32.4419 109.659 32.4943 109.659 32.4943L108.62 29.6807L104.306 30.9606Z" fill="#111111"/>
<path d="M106.055 28.5933C106.055 28.5933 102.094 29.0735 103.807 36.8692C104.235 38.8154 102.451 40.2395 102.451 40.2395C102.451 40.2395 105.86 40.7852 104.796 35.757C104.433 34.0385 104.517 34.7313 104.53 33.6797C104.558 31.4048 106.055 28.5933 106.055 28.5933Z" fill="#111111"/>
<path d="M106.391 28.485C106.391 28.485 110.284 26.7782 111.583 34.21C111.878 35.8994 110.461 40.2989 107.368 40.942C107.368 40.942 109.371 36.6212 109.191 35.1065C109.089 34.2518 108.361 31.6758 108.361 31.6758L106.391 28.485Z" fill="#111111"/>
<path d="M93.2355 43.3102L97.1559 53.0947C97.1559 53.0947 101.285 52.2665 102.772 52.8883L99.7141 43.3102C99.7141 43.3102 96.7075 42.7364 93.2355 43.3102Z" fill="#EBF4FE"/>
<path d="M99.7141 43.3104L102.674 52.8766C104.649 52.4194 108.389 53.0958 108.389 53.0958L106.193 43.3112C106.193 43.3112 102.925 41.9007 99.7141 43.3104Z" fill="#EBF4FE"/>
<path d="M106.291 43.2823L106.278 43.2243L106.229 43.2029C106.196 43.1889 102.905 41.8008 99.7038 43.1914C99.3956 43.1368 96.4961 42.6547 93.221 43.1959L93.0873 43.2181L97.0964 53.2239L97.1735 53.2085C97.2131 53.2006 101.029 52.445 102.587 52.9419L102.899 52.9475C104.879 52.5865 108.337 53.2032 108.373 53.2096L108.525 53.2372L106.291 43.2823ZM97.2156 52.9658L93.3839 43.4028C96.4813 42.9158 99.2091 43.34 99.6387 43.4136L102.506 52.6808C100.949 52.2778 97.7685 52.8593 97.2156 52.9658ZM104.431 52.6008C103.859 52.6008 103.304 52.6364 102.829 52.7273L99.8436 43.3778C102.739 42.1564 105.695 43.2358 106.108 43.399L108.253 52.955C107.734 52.8678 106.016 52.6008 104.431 52.6008Z" fill="#111111"/>
<path d="M110.568 52.0202C110.568 52.0202 108.528 51.3337 108.527 51.3396C108.527 51.3456 106.904 51.5657 106.71 51.5412C106.516 51.5165 105.392 50.5939 105.618 50.1804C105.934 49.6017 107.579 50.0986 107.665 50.0986C107.751 50.0986 107.442 48.8587 107.509 48.8697C107.899 48.9337 108.33 50.164 108.429 50.1804C108.527 50.1968 109.864 50.0739 109.864 50.0739L110.568 52.0202Z" fill="white"/>
<path d="M110.735 52.1916L110.541 52.1261C109.791 51.8738 108.672 51.4987 108.522 51.452C108.508 51.4549 108.493 51.4571 108.476 51.4595C108.436 51.4655 108.377 51.4737 108.306 51.4834C108.164 51.5028 107.972 51.5281 107.769 51.5532C107.401 51.5989 106.925 51.6534 106.752 51.6535C106.73 51.6535 106.712 51.6525 106.699 51.6509C106.495 51.625 105.742 51.0059 105.546 50.5433C105.459 50.3388 105.492 50.2012 105.535 50.1218C105.657 49.8981 105.928 49.7893 106.363 49.7893C106.809 49.7893 107.31 49.906 107.552 49.9621C107.56 49.9641 107.569 49.9662 107.578 49.9683C107.563 49.8372 107.519 49.6057 107.487 49.4389C107.391 48.9295 107.385 48.8642 107.428 48.8024L107.457 48.7613L107.515 48.7588L107.523 48.76C107.83 48.8104 108.111 49.3769 108.316 49.7906C108.368 49.8958 108.432 50.0235 108.464 50.0712C108.693 50.0702 109.844 49.9646 109.856 49.9635L109.926 49.9571L110.735 52.1916ZM108.528 51.229C108.545 51.229 108.573 51.2337 110.401 51.8486L109.801 50.1905C109.542 50.2139 108.66 50.2924 108.461 50.2924C108.439 50.2924 108.423 50.2912 108.415 50.2898C108.338 50.277 108.296 50.1984 108.147 49.8997C108.021 49.6448 107.805 49.2093 107.614 49.0438C107.63 49.1463 107.656 49.2816 107.677 49.3925C107.789 49.984 107.799 50.0921 107.748 50.1636C107.728 50.1925 107.698 50.2091 107.665 50.2091C107.644 50.2091 107.613 50.2024 107.513 50.179C107.278 50.1243 106.789 50.0107 106.363 50.0107C106.011 50.0107 105.781 50.0896 105.7 50.2389C105.675 50.2841 105.681 50.3514 105.717 50.4387C105.887 50.8537 106.593 51.4107 106.721 51.4313C106.728 51.4323 106.739 51.4326 106.752 51.4326C107.023 51.4325 108.137 51.2855 108.435 51.2427L108.436 51.2293L108.527 51.2291C108.527 51.229 108.527 51.229 108.528 51.229Z" fill="#111111"/>
<path d="M94.5279 49.1075C94.5135 49.3859 95.0358 50.4241 95.1874 50.5643C95.339 50.7045 96.7042 50.9689 96.8039 50.4952C96.9434 49.8325 95.4777 48.8455 95.4171 48.7755C95.3566 48.7056 94.9743 47.5199 94.8946 47.4511C94.815 47.3824 94.5826 48.05 94.5279 49.1075Z" fill="white"/>
<path d="M96.1754 50.8762C95.7767 50.8762 95.2472 50.7622 95.1263 50.6504C94.958 50.4947 94.4142 49.4298 94.4312 49.1012C94.468 48.3893 94.6369 47.3359 94.8824 47.3359C94.908 47.3359 94.9325 47.3453 94.9532 47.3631C95.007 47.4095 95.0668 47.5536 95.2901 48.1745C95.3658 48.3849 95.4593 48.645 95.4889 48.7003C95.5007 48.71 95.542 48.7417 95.5821 48.7723C96.2048 49.249 97.0188 49.9488 96.8982 50.5214C96.8486 50.7568 96.6054 50.8762 96.1754 50.8762ZM94.8756 47.6297C94.794 47.831 94.6643 48.3494 94.6248 49.1141C94.6127 49.3462 95.1094 50.3499 95.2485 50.4785C95.3089 50.5311 95.757 50.655 96.1753 50.655C96.4854 50.655 96.6851 50.5857 96.7096 50.4696C96.778 50.145 96.3622 49.6357 95.474 48.9559C95.3886 48.8906 95.3634 48.871 95.3482 48.8534C95.3125 48.8122 95.2682 48.6964 95.1105 48.2583C95.0384 48.0576 94.9384 47.7796 94.8756 47.6297Z" fill="#111111"/>
<path d="M112.237 44.4302C112.237 44.4302 112.861 51.3965 112.376 52.9341C111.891 54.4717 108.852 52.739 108.852 52.739L109.043 49.1262L109.466 49.0894L109.131 48.0302L112.237 44.4302Z" fill="#F8E643"/>
<path d="M106.797 34.4082C106.87 34.4831 106.663 34.866 106.344 34.9378C105.823 35.055 105.577 34.6963 105.708 34.6902C105.759 34.6879 105.972 34.7572 106.283 34.6802C106.618 34.5971 106.749 34.358 106.797 34.4082Z" fill="#111111"/>
<path d="M47.7244 75.1489L47.7277 77.257H50.2889L50.5025 75.2569L47.7244 75.1489Z" fill="white"/>
<path d="M50.382 77.377H47.6226L47.6189 75.0249L50.6206 75.1416L50.382 77.377ZM47.8326 77.137H50.1957L50.3842 75.3723L47.8296 75.273L47.8326 77.137Z" fill="#111111"/>
<path d="M47.5871 77.1299C47.5871 77.1299 43.8854 78.4697 43.7578 79.5737H50.3953V77.1299H47.5871Z" fill="#F8E643"/>
<path d="M58.0487 75.1949L58.1187 77.3275H60.6799L60.8013 75.1489L58.0487 75.1949Z" fill="white"/>
<path d="M60.7786 77.4477H58.0174L57.9396 75.0771L60.9134 75.0273L60.7786 77.4477ZM58.22 77.2078H60.5813L60.6892 75.2709L58.1579 75.3132L58.22 77.2078Z" fill="#111111"/>
<path d="M57.9782 77.2002C57.9782 77.2002 54.2765 78.5399 54.1489 79.644H60.7862V77.2002H57.9782Z" fill="#F8E643"/>
<path d="M53.9072 79.2248V79.8596H60.9595V79.1338L53.9072 79.2248Z" fill="#111111"/>
<path d="M50.6027 79.1121V79.7888H43.5504V79.063L50.6027 79.1121Z" fill="#111111"/>
<path d="M57.1994 75.5829H61.2758L61.6233 38.3262L49.873 40.6401L47.0765 75.5829H51.0005L55.1086 52.367L54.6383 47.2764L57.1994 75.5829Z" fill="#111111"/>
<path d="M54.1703 18.6802C54.1703 18.6802 54.4466 21.9889 54.2145 22.3547C53.9824 22.7206 52.5591 23.1153 52.5591 23.1153L54.8889 30.9261L59.6859 30.3974L59.9969 24.7979C59.9969 24.7979 57.8074 22.7641 57.6753 22.3463C57.4925 21.7683 57.492 18.6802 57.492 18.6802L54.1703 18.6802Z" fill="white"/>
<path d="M54.8245 31.04L52.4383 23.0398L52.5371 23.0123C53.0745 22.8633 53.9847 22.5361 54.139 22.2927C54.2765 22.0761 54.21 20.275 54.0777 18.6904C54.0728 18.6321 54.1103 18.5803 54.1615 18.5747C54.2133 18.5692 54.258 18.6119 54.2629 18.6703C54.3096 19.2293 54.5303 22.0379 54.2899 22.417C54.0738 22.7575 53.0273 23.0882 52.6798 23.1903L54.9533 30.8125L59.5981 30.3006L59.901 24.8458C59.5497 24.5184 57.7189 22.7974 57.5877 22.3825C57.4016 21.7938 57.3989 18.8072 57.3989 18.6804C57.3989 18.6218 57.4405 18.5743 57.4918 18.5743C57.5433 18.5743 57.5849 18.6217 57.5849 18.6804C57.5851 19.7421 57.6225 21.8672 57.7626 22.3105C57.8525 22.5946 59.2168 23.9366 60.0556 24.7159L60.0927 24.7504L59.7736 30.4945L54.8245 31.04Z" fill="#111111"/>
<path d="M55.0364 12.1377C54.4366 12.2189 52.9773 12.3949 52.9903 13.62C53.0052 15.0174 53.2312 16.8112 53.3644 17.7555C53.417 18.1282 53.7005 18.4004 54.0309 18.3958L57.7311 18.3447C58.0701 18.34 58.352 18.0457 58.3864 17.6603C58.5025 16.3632 58.7269 13.6169 58.5879 13.2052C58.1146 11.8044 55.986 12.009 55.0364 12.1377Z" fill="#111111"/>
<path d="M57.4542 19.2615C57.6514 19.022 57.7217 18.0844 57.733 17.0158C57.7334 16.9849 57.7476 16.9568 57.7701 16.9411C58.0113 16.7728 58.359 16.4148 58.3432 15.885C58.3296 15.426 58.0396 15.5263 57.8125 15.6772C57.772 15.7041 57.722 15.6702 57.7207 15.6152C57.6889 14.3272 57.6148 13.1987 57.6148 13.1987L53.218 13.2595C53.218 13.2595 53.2388 14.4081 53.2946 15.6957C53.2972 15.7535 53.5144 18.8236 53.623 19.1002C53.6821 19.2509 53.7937 19.3751 53.9428 19.4754C53.9428 19.4754 54.2278 19.7346 55.8259 19.7125L57.4542 19.2615Z" fill="white"/>
<path d="M55.6367 19.8203C54.2902 19.8203 53.95 19.6104 53.8918 19.5647C53.7212 19.4491 53.6021 19.3074 53.5378 19.1436C53.4191 18.8411 53.2027 15.7298 53.2014 15.7008C53.1461 14.4264 53.1247 13.273 53.1246 13.2615L53.1227 13.1541L57.7015 13.0908L57.7081 13.1907C57.7088 13.2018 57.7805 14.3028 57.8127 15.555C58.0064 15.4371 58.1613 15.413 58.2733 15.4836C58.3758 15.5482 58.4308 15.6819 58.4367 15.8813C58.4554 16.5092 58.0223 16.888 57.8264 17.0266C57.8049 18.9912 57.5923 19.2493 57.5224 19.3343C57.4871 19.3772 57.4279 19.3793 57.3904 19.339C57.3527 19.2987 57.3509 19.2313 57.3862 19.1883C57.4734 19.0825 57.6222 18.6593 57.6397 17.0144C57.6404 16.9468 57.6709 16.8854 57.7214 16.8502C57.8855 16.7356 58.2656 16.4126 58.2499 15.8885C58.2479 15.8215 58.2366 15.704 58.183 15.6702C58.1269 15.6348 58.0061 15.6719 57.8597 15.7691C57.8125 15.8005 57.7558 15.8011 57.7081 15.7709C57.6592 15.7399 57.629 15.6827 57.6274 15.6181C57.6015 14.5656 57.5466 13.61 57.528 13.3063L53.3136 13.3646C53.3202 13.6796 53.3426 14.644 53.3881 15.6903C53.3985 15.9021 53.6146 18.8177 53.7084 19.0566C53.757 19.1804 53.8518 19.2904 53.9903 19.3836L54.0011 19.3921C54.0014 19.3921 54.3185 19.6268 55.8248 19.6059C55.8763 19.6039 55.9187 19.6523 55.9193 19.7112C55.92 19.77 55.8786 19.8183 55.827 19.819C55.7614 19.8198 55.698 19.8203 55.6367 19.8203Z" fill="#111111"/>
<path d="M56.1256 16.2667C56.0424 16.2667 55.9725 16.1928 55.9673 16.0968L55.9617 15.9933C55.9562 15.8935 56.0228 15.8076 56.1103 15.8015C56.1978 15.7966 56.2733 15.8712 56.2786 15.971L56.2843 16.0745C56.2897 16.1743 56.2232 16.2602 56.1356 16.2664C56.1322 16.2665 56.1289 16.2667 56.1256 16.2667Z" fill="#111111"/>
<path d="M54.1002 16.3012C54.0142 16.3012 53.9434 16.2227 53.9416 16.124L53.9393 16.0019C53.9374 15.9019 54.0069 15.8191 54.0945 15.817C54.0957 15.817 54.0969 15.8169 54.098 15.8169C54.1841 15.8169 54.2548 15.8954 54.2567 15.994L54.2591 16.1162C54.261 16.2161 54.1915 16.2989 54.1039 16.3011C54.1026 16.3011 54.1014 16.3012 54.1002 16.3012Z" fill="#111111"/>
<path d="M55.7847 15.46C55.7367 15.46 55.6908 15.429 55.6693 15.3764C55.6398 15.3041 55.6668 15.2183 55.7301 15.1843C55.7471 15.1753 56.1512 14.9633 56.5915 15.157C56.657 15.1858 56.6896 15.2696 56.6643 15.3442C56.6391 15.4189 56.5657 15.4562 56.5002 15.4273C56.1632 15.2793 55.841 15.445 55.8379 15.4467C55.8206 15.4556 55.8025 15.46 55.7847 15.46Z" fill="#111111"/>
<path d="M55.6821 17.8299C55.7529 17.9458 55.4024 18.3515 54.9902 18.3365C54.3176 18.312 54.1035 17.7894 54.2665 17.8244C54.3304 17.8381 54.576 17.9928 54.9788 17.9985C55.4131 18.0047 55.6345 17.752 55.6821 17.8299Z" fill="#111111"/>
<path d="M54.9522 17.4616C54.9451 17.4616 54.938 17.4608 54.9308 17.4592C54.8348 17.4371 54.5182 17.3473 54.4791 17.1208C54.45 16.9525 54.4643 16.9092 54.6392 16.3788C54.6762 16.2666 54.7208 16.1311 54.7744 15.9661C54.7975 15.8716 54.8476 15.6092 54.8192 15.4591C54.8148 15.4512 54.7732 15.4091 54.659 15.3736C54.4316 15.3028 54.0772 15.3067 53.868 15.4528C53.8176 15.4881 53.7517 15.4701 53.7208 15.4126C53.6899 15.3552 53.7058 15.28 53.7561 15.2448C54.0782 15.0197 54.5851 15.0636 54.8272 15.1819C54.9432 15.2385 55.0109 15.3145 55.0284 15.4078C55.0736 15.6473 54.9889 15.9981 54.9791 16.0374L54.9766 16.0464C54.9221 16.2139 54.8769 16.3512 54.8394 16.4648C54.6718 16.9734 54.6727 16.9791 54.6891 17.0736C54.7012 17.1163 54.8446 17.1904 54.9732 17.22C55.0311 17.2333 55.0686 17.2977 55.0569 17.3638C55.0467 17.4216 55.002 17.4615 54.9522 17.4616Z" fill="#111111"/>
<path d="M59.9117 44.4804C59.93 44.4949 59.9508 44.5018 59.9715 44.5018C60.0048 44.5018 60.0376 44.4837 60.058 44.4501C60.0911 44.3957 60.0792 44.321 60.0315 44.2832L57.5636 42.334C57.5158 42.2961 57.4503 42.3097 57.4173 42.3642C57.3842 42.4186 57.3961 42.4934 57.4439 42.5311L59.2656 43.9702L59.8664 74.7659C59.8677 74.8313 59.9145 74.8833 59.9715 74.8833C59.9723 74.8833 59.9731 74.8832 59.9739 74.8832C60.0319 74.8818 60.078 74.8268 60.0767 74.7606L59.4793 44.139L59.9117 44.4804Z" fill="#A1C5E2"/>
<path d="M55.2122 52.3471L54.2733 46.0292V42.995C54.2733 42.9287 54.2262 42.875 54.1682 42.875C54.11 42.875 54.063 42.9287 54.063 42.995V46.0494L54.2754 47.4786L50.0673 74.7427C50.0572 74.8079 50.0955 74.8702 50.1526 74.8817C50.1588 74.8829 50.1649 74.8835 50.1709 74.8835C50.221 74.8835 50.2654 74.8425 50.2745 74.7843L54.3797 48.1804L55.0048 52.3871C55.0135 52.4456 55.0581 52.4871 55.1084 52.4871C55.1142 52.4871 55.1201 52.4865 55.1261 52.4854C55.1834 52.4742 55.222 52.4123 55.2122 52.3471Z" fill="#A1C5E2"/>
<path d="M49.2403 49.9364C49.2403 49.9364 48.2093 48.0457 48.052 47.3901C47.9559 46.9893 48.2025 45.0828 48.2025 45.0828L48.8331 31.9688L51.2853 32.9034C51.2853 32.9034 49.5156 44.5859 49.5178 45.086C49.52 45.5862 50.6059 46.9841 50.5512 47.3306C50.4965 47.6772 49.3947 46.475 49.3947 46.475C49.3947 46.475 49.2384 47.4888 49.2841 47.8263C49.3678 48.4435 49.5434 49.9367 49.4537 50.258C49.3857 50.5017 48.9021 49.067 48.6544 47.8914C48.5539 47.4143 48.6414 47.0895 48.6312 46.7871L49.2403 49.9364Z" fill="white"/>
<path d="M49.4309 50.4469C49.429 50.4469 49.4273 50.4467 49.4256 50.4467C49.3577 50.4439 49.2825 50.4408 49.1131 50.0089C49.015 49.8288 48.0709 48.0821 47.9152 47.4324C47.8153 47.016 48.0315 45.2973 48.0612 45.0664L48.7016 31.748L51.4456 32.7939L51.4249 32.9307C50.7144 37.6211 49.6579 44.7285 49.6594 45.085C49.6604 45.2942 49.9582 45.8059 50.1975 46.217C50.5358 46.7982 50.7255 47.1378 50.6906 47.3592C50.6764 47.449 50.627 47.5159 50.555 47.5426C50.3837 47.6064 50.0266 47.3567 49.4923 46.8004C49.4477 47.1434 49.3985 47.6129 49.424 47.8015C49.4711 48.1493 49.7007 49.905 49.5886 50.3068C49.5599 50.4106 49.4869 50.4469 49.4309 50.4469ZM49.3275 49.8381C49.3093 49.3581 49.2361 48.5297 49.1441 47.851C49.0961 47.4972 49.2387 46.5534 49.2551 46.4468L49.301 46.149L49.4927 46.358C49.8012 46.6946 50.1833 47.0554 50.382 47.1835C50.3067 46.9889 50.1051 46.6426 49.9614 46.3958C49.6087 45.7897 49.3774 45.3712 49.3761 45.0866C49.374 44.6021 50.917 34.3872 51.125 33.0125L48.9645 32.1891L48.3437 45.0991L48.3427 45.1065C48.2491 45.8305 48.1244 47.0793 48.1887 47.3474C48.2458 47.5854 49.1648 49.3948 49.3275 49.8381Z" fill="#111111"/>
<path d="M49.3488 27.2067L49.9962 31.8152C49.8614 32.8295 49.1134 43.4075 49.1134 43.4075H61.5191L60.5313 34.031L60.7381 32.5437L63.5966 31.8038C63.8133 31.2179 62.6867 25.6452 62.079 25.0412C61.2888 24.2558 59.06 22.4565 58.3322 22.3382C58.1558 22.3095 58.249 20.8459 57.8148 20.8258C56.9703 20.7867 54.6835 20.886 54.0322 20.8262C53.7152 20.7971 53.7736 22.2026 53.7736 22.2026C53.7736 22.2026 53.315 22.5127 52.9638 22.713C51.0019 23.8315 49.9229 26.0398 49.3488 27.2067Z" fill="#F8E643"/>
<path d="M63.0427 49.5377V48.6846C63.0427 48.1114 62.6337 47.645 62.131 47.645H60.9074C60.4047 47.645 59.9957 48.1114 59.9957 48.6846V49.5377H56.2048V58.6482H66.8336V49.5377H63.0427ZM60.3837 49.5377V48.6846C60.3837 48.3553 60.6187 48.0874 60.9075 48.0874H62.131C62.4198 48.0874 62.6548 48.3553 62.6548 48.6846V49.5377H60.3837Z" fill="#F8E643"/>
<path d="M60.4497 38.4435C60.6645 40.9475 61.2073 46.1597 61.0154 46.3898C60.7454 46.7135 59.4684 47.4916 59.294 47.7808C59.1882 47.9563 60.1892 47.8214 60.232 47.8258L60.1723 48.212C60.1723 48.212 60.2847 48.4665 60.4568 48.4534C60.6043 48.4423 60.7391 48.2368 60.8735 48.2512C60.8857 48.2525 61.1093 48.3908 61.1991 48.4004C61.3131 48.4127 61.4672 48.2037 61.5661 48.161C61.6388 48.1296 61.8122 48.3047 61.9232 48.2731C62.1011 48.2225 62.1164 47.9701 62.2421 47.9311C62.3604 47.8943 62.4576 48.1094 62.662 48.0341C62.862 47.9605 62.5312 46.6233 62.6184 46.3849C62.924 45.5492 63.5098 30.7215 62.8635 32.0022C62.6602 32.405 60.1812 31.7292 59.9715 32.2511C59.9716 32.2513 60.3879 37.7223 60.4497 38.4435Z" fill="white"/>
<path d="M60.4433 48.5881C60.2135 48.5881 60.0819 48.3055 60.0673 48.2724L60.0497 48.2326L60.0898 47.9726C59.3863 48.0392 59.2464 48.001 59.1877 47.886C59.1591 47.8298 59.1626 47.762 59.197 47.7049C59.296 47.5408 59.6128 47.3049 60.1231 46.9362C60.4537 46.6972 60.7954 46.4502 60.9208 46.3081C61.023 45.9541 60.7152 42.6301 60.511 40.4243C60.4436 39.6962 60.38 39.0085 60.3326 38.4564C60.2714 37.7429 59.8585 32.3175 59.8543 32.2628L59.8516 32.2275L59.8646 32.1954C60.0002 31.8578 60.5932 31.8807 61.5544 31.9584C61.9747 31.9924 62.6781 32.0494 62.7624 31.9339C62.8581 31.7439 62.9728 31.7894 63.0057 31.8081C63.1007 31.8615 63.2442 31.9423 63.2692 34.192C63.2864 35.7415 63.2403 37.645 63.1986 38.9691C63.0939 42.2923 62.8889 45.9942 62.727 46.4366C62.7031 46.511 62.7484 46.8606 62.7784 47.0919C62.8607 47.7262 62.8975 48.0885 62.6982 48.1619C62.5316 48.2235 62.4124 48.1468 62.3336 48.0961C62.3126 48.0825 62.2807 48.0621 62.2697 48.0611C62.26 48.0646 62.2295 48.1197 62.213 48.1493C62.1631 48.2393 62.0945 48.3628 61.9518 48.4033C61.8516 48.4316 61.7491 48.376 61.6668 48.3311C61.6444 48.319 61.6127 48.3017 61.5937 48.2944C61.5699 48.3103 61.5343 48.342 61.5045 48.3684C61.4109 48.4519 61.3042 48.547 61.1881 48.534C61.108 48.5254 60.9876 48.4618 60.8713 48.3975C60.8632 48.393 60.8559 48.3889 60.8498 48.3857C60.8187 48.3925 60.768 48.4301 60.7264 48.4609C60.6513 48.5165 60.5662 48.5795 60.4646 48.5872C60.4574 48.5879 60.4502 48.5881 60.4433 48.5881ZM60.2957 48.1868C60.33 48.2462 60.3912 48.3217 60.449 48.3196C60.4894 48.3165 60.5447 48.2755 60.5982 48.2359C60.6807 48.1749 60.7739 48.1054 60.8846 48.1177C60.9093 48.1204 60.9217 48.1272 60.974 48.1561C61.1012 48.2264 61.1807 48.2638 61.2102 48.267C61.2384 48.2651 61.3173 48.1948 61.3597 48.1571C61.4163 48.1067 61.4696 48.0592 61.5245 48.0356C61.6056 48.0003 61.6883 48.0456 61.7682 48.0891C61.8047 48.109 61.8727 48.1471 61.8958 48.1428C61.9437 48.1291 61.9721 48.0819 62.0142 48.0059C62.057 47.9289 62.11 47.8332 62.2112 47.8017C62.3084 47.7717 62.3865 47.8219 62.4492 47.8623C62.5096 47.9011 62.5495 47.9245 62.6023 47.9134C62.6318 47.795 62.5784 47.3829 62.5457 47.1313C62.4909 46.7091 62.4623 46.4637 62.5099 46.3336C62.6377 45.9842 62.8428 42.6851 62.9581 39.1291C63.0943 34.9237 63.0398 32.6585 62.9189 32.1348C62.7439 32.3135 62.2846 32.2866 61.5379 32.2262C61.0427 32.1861 60.2274 32.1202 60.0924 32.2845C60.1324 32.8098 60.5089 37.7529 60.567 38.4305C60.6143 38.9815 60.6779 39.6687 60.7453 40.3962C61.1764 45.0528 61.2495 46.3041 61.1008 46.4823C60.9639 46.6465 60.6167 46.8974 60.2492 47.163C59.9841 47.3546 59.6696 47.582 59.5006 47.7369C59.6111 47.7393 59.7985 47.7317 60.1127 47.7012C60.2104 47.6917 60.2256 47.6904 60.2427 47.6923L60.3703 47.7053L60.2957 48.1868Z" fill="#111111"/>
<path d="M58.7377 28.5488L60.8322 45.4886H64.0436L63.6239 31.4493L58.7377 28.5488Z" fill="#F8E643"/>
<path d="M64.0436 45.6228H60.7283L58.9432 29.2586C58.9352 29.1851 58.981 29.118 59.0455 29.1089C59.1095 29.1 59.1687 29.152 59.1768 29.2255L60.9361 45.3544H64.0436C64.1086 45.3544 64.1613 45.4144 64.1613 45.4885C64.1614 45.5627 64.1086 45.6228 64.0436 45.6228Z" fill="#111111"/>
<path d="M58.2007 13.6164C57.4569 14.5961 54.1765 15.5595 52.6194 12.2946C51.0623 9.02971 55.4794 11.602 56.9275 12.0638C57.5475 12.2614 58.8376 12.7776 58.2007 13.6164Z" fill="#111111"/>
<path d="M57.0883 57.6966C57.0357 57.6966 56.9925 57.6487 56.9914 57.5883L56.8772 51.3155C56.8761 51.2545 56.9186 51.2039 56.9721 51.2026C57.0274 51.2018 57.07 51.2499 57.0711 51.311L57.1853 57.5837C57.1865 57.6448 57.1439 57.6954 57.0903 57.6966C57.0896 57.6966 57.089 57.6966 57.0883 57.6966Z" fill="white"/>
<path d="M51.3992 23.9858C50.7758 24.6893 48.8043 26.3453 48.4313 31.9842L48.0298 44.3819H50.1313L51.2853 28.7257L51.3992 23.9858Z" fill="#F8E643"/>
<path d="M50.3433 43.5417C50.3364 43.5417 50.3293 43.5411 50.3222 43.5396C50.2582 43.5263 50.2158 43.4566 50.2274 43.3836C50.2921 42.9775 50.3898 33.8421 50.4324 29.0683C50.4331 28.9943 50.486 28.9348 50.5512 28.9356C50.6162 28.9363 50.6684 28.997 50.6677 29.0711C50.6627 29.6355 50.5434 42.9018 50.4589 43.4315C50.4486 43.4963 50.3992 43.5417 50.3433 43.5417Z" fill="#111111"/>
<path d="M61.5191 54.2313L56.4275 49.867C56.3847 49.8303 56.3761 49.761 56.4082 49.7122C56.4404 49.6634 56.5013 49.6534 56.5441 49.6901L61.5191 53.9545L66.4426 49.7345C66.4855 49.6978 66.5463 49.7078 66.5785 49.7564C66.6107 49.8052 66.602 49.8747 66.5592 49.9113L61.5191 54.2313Z" fill="#111111"/>
<path d="M61.6101 55.1718H61.4283C61.2268 55.1718 61.0635 54.9856 61.0635 54.7557V53.769C61.0635 53.5393 61.2268 53.353 61.4283 53.353H61.6101C61.8115 53.353 61.9748 53.5392 61.9748 53.769V54.7557C61.9748 54.9856 61.8116 55.1718 61.6101 55.1718Z" fill="#111111"/>
<path d="M3.58789 66.7002H14.386L13.0928 79.861L4.81641 79.8893L3.58789 66.7002Z" fill="#F8E643"/>
<path d="M0.583252 45.5151C0.583252 45.5151 2.91098 52.8623 2.91098 55.849C2.91098 58.8357 3.37859 61.6434 5.31836 62.5405C7.25813 63.4375 8.65826 62.0773 8.98679 61.5391C9.39188 60.8756 10.1943 56.6662 6.23005 51.7462C4.67326 49.8139 0.583252 45.5151 0.583252 45.5151Z" fill="#423E49"/>
<path d="M9.34278 58.2212C9.12902 56.6898 8.42792 54.3101 6.30154 51.6711C4.75988 49.7576 0.689913 45.4766 0.648984 45.4336L0.357178 45.127L0.491992 45.5524C0.515204 45.6257 2.81396 52.9152 2.81396 55.8487C2.81396 59.6524 3.62117 61.8747 5.28193 62.6426C5.75737 62.8624 6.2008 62.9513 6.60518 62.9513C7.01163 62.9513 7.37863 62.8616 7.69921 62.7252C8.11691 64.2075 8.42915 65.5965 8.53771 66.7106C8.54256 66.7604 8.57948 66.7972 8.62241 66.7972C8.62552 66.7972 8.62875 66.797 8.63192 66.7965C8.67873 66.7906 8.71248 66.7426 8.70725 66.6891C8.59726 65.5601 8.28037 64.1526 7.85698 62.6522C8.47635 62.3454 8.89948 61.8755 9.06643 61.6021C9.30185 61.2163 9.58512 59.9575 9.34278 58.2212ZM8.9073 61.4756C8.75354 61.7275 8.36585 62.1574 7.79743 62.4427C6.35708 57.4252 3.78656 51.4731 3.75255 51.3946C3.7316 51.3466 3.68052 51.3267 3.6383 51.3506C3.59608 51.3744 3.57881 51.4327 3.59963 51.4809C3.63358 51.5592 6.20617 57.5159 7.63979 62.5158C7.03788 62.773 6.25906 62.8558 5.3548 62.4377C3.77557 61.7075 3.00794 59.5521 3.00794 55.8487C3.00794 53.2556 1.30392 47.5204 0.806235 45.901C1.76655 46.9171 4.86236 50.2119 6.15871 51.8207C10.169 56.798 9.2443 60.9236 8.9073 61.4756Z" fill="#111111"/>
<path d="M7.00316 36.9619C7.00316 36.9619 5.01968 46.7068 6.10641 52.6247C7.19307 58.5427 8.29686 60.7676 9.68419 59.1714C11.0715 57.5753 10.6247 47.2718 9.64442 44.0217C8.66413 40.7716 7.00316 36.9619 7.00316 36.9619Z" fill="#423E49"/>
<path d="M10.6491 52.2145C10.5856 48.8928 10.2188 45.5859 9.73615 43.9859C8.7651 40.7663 7.10673 36.9511 7.09011 36.913L6.96984 36.6372L6.9088 36.9372C6.88889 37.0348 4.93295 46.7737 6.01153 52.6476C6.84233 57.172 7.66713 59.4269 8.6072 59.7435C8.68589 59.77 8.76536 59.7833 8.84554 59.7833C8.9208 59.7833 8.99671 59.7715 9.07314 59.7482C9.36766 62.9962 9.56157 65.722 9.49219 66.6923C9.48838 66.7458 9.52329 66.7928 9.57024 66.797C9.57256 66.7973 9.57489 66.7974 9.57722 66.7974C9.62119 66.7974 9.65843 66.759 9.66212 66.7081C9.73337 65.7112 9.53791 62.9531 9.24099 59.6789C9.40969 59.591 9.58071 59.4478 9.75303 59.2495C10.6632 58.2023 10.683 53.9809 10.6491 52.2145ZM9.21978 59.4453C8.61671 52.851 7.62361 44.3108 7.56102 43.7737C7.55481 43.7206 7.51253 43.6834 7.4652 43.6902C7.41851 43.6973 7.38567 43.7462 7.39187 43.7993C7.40739 43.9322 8.43625 52.7798 9.0529 59.5257C8.91925 59.5722 8.78941 59.5742 8.6621 59.5313C7.8097 59.2441 7.00482 56.9776 6.20137 52.6021C5.23937 47.3633 6.71625 38.9985 7.03806 37.2951C7.43907 38.2385 8.73891 41.3594 9.55271 44.0577C10.0219 45.6135 10.3931 48.9697 10.4552 52.2193C10.5243 55.8392 10.2104 58.409 9.6153 59.0936C9.47887 59.2509 9.34742 59.3674 9.21978 59.4453Z" fill="#111111"/>
<path d="M87.9407 0H74.6105V22.6789H87.9407V0Z" fill="#F8E643"/>
<path d="M86.748 1.43945H75.8032V21.2398H86.748V1.43945Z" fill="white"/>
<path d="M86.845 21.3502H75.7062V1.32861H86.845V21.3502ZM75.9002 21.129H86.651V1.5498H75.9002V21.129Z" fill="#111111"/>
<path d="M75.8032 15.5819H82.536L77.1046 7.7666L75.8032 10.1964V15.5819Z" fill="#423E49"/>
<path d="M80.9033 13.2328L83.118 10.665L86.7046 15.5233C86.7218 15.5465 86.7072 15.5821 86.6805 15.5821H82.536L80.9033 13.2328Z" fill="#423E49"/>
<path d="M86.7787 15.4518L83.1235 10.5007L80.911 13.0657L77.0943 7.57373L75.7062 10.1654V15.6926H82.489H82.7366H86.6805C86.7309 15.6926 86.7755 15.6602 86.7969 15.608C86.8182 15.5557 86.8112 15.4959 86.7787 15.4518ZM75.9002 15.4713V10.2276L77.1149 7.95956L80.774 13.2246L82.3353 15.4713H75.9002ZM82.5829 15.4713L81.0325 13.2404L83.1124 10.829L86.5395 15.4713H82.5829Z" fill="#1B2746"/>
<path d="M81.0165 8.85423C81.5433 8.85423 81.9702 8.36733 81.9702 7.76671C81.9702 7.1661 81.5433 6.6792 81.0165 6.6792C80.4898 6.6792 80.0628 7.1661 80.0628 7.76671C80.0628 8.36733 80.4898 8.85423 81.0165 8.85423Z" fill="#F8E643"/>
<path d="M86.748 15.582H75.8032V21.2395H86.748V15.582Z" fill="#D9D9D9"/>
<path d="M86.845 21.3504H75.7062V15.4717H86.845V21.3504ZM75.9002 21.1292H86.651V15.6929H75.9002V21.1292Z" fill="#1B2746"/>
<path d="M100.987 13.2998H90.5894V27.5797H100.987V13.2998Z" fill="#F8E643"/>
<path d="M100.057 14.2061H91.5198V26.6735H100.057V14.2061Z" fill="#D9D9D9"/>
<path d="M100.154 26.7843H91.4228V14.0957H100.154V26.7843ZM91.6168 26.5631H99.9602V14.3169H91.6168V26.5631Z" fill="#1B2746"/>
<path d="M95.6786 16.7812L95.4097 17.6171C95.3212 17.8924 95.4999 18.1842 95.757 18.1842C96.0142 18.1842 96.1929 17.8924 96.1043 17.6171L95.8354 16.7812C95.8086 16.6979 95.7054 16.6979 95.6786 16.7812Z" fill="#F8E643"/>
<path d="M94.0417 18.2928L94.3137 19.1273C94.4032 19.4023 94.7053 19.4916 94.9008 19.3011C95.0962 19.1105 95.0658 18.7563 94.8416 18.6127L94.161 18.1767C94.0931 18.1332 94.0147 18.2097 94.0417 18.2928Z" fill="#F8E643"/>
<path d="M97.535 18.268L96.8147 18.6117C96.5774 18.7249 96.5114 19.0727 96.6863 19.2876C96.8612 19.5026 97.1704 19.4535 97.2871 19.1923L97.6416 18.399C97.6769 18.32 97.6067 18.2337 97.535 18.268Z" fill="#F8E643"/>
<path d="M97.6995 18.2159C97.6474 18.1519 97.5682 18.1323 97.4975 18.166L96.7773 18.5097C96.6366 18.5768 96.5334 18.7183 96.5011 18.8882C96.4758 19.0209 96.497 19.158 96.5566 19.2725L95.8746 20.0294L95.855 18.2823C95.9691 18.2543 96.0716 18.1786 96.1397 18.0673C96.227 17.9248 96.2478 17.7423 96.1952 17.5791L95.9263 16.7433C95.9 16.6613 95.8334 16.6084 95.7569 16.6084C95.6803 16.6084 95.6138 16.6613 95.5875 16.7433L95.3185 17.5791C95.266 17.7424 95.2869 17.9248 95.3741 18.0674C95.4427 18.1794 95.5459 18.2551 95.661 18.2827L95.6803 20.003L95.0421 19.2866C95.1056 19.1835 95.1361 19.0566 95.1251 18.9285C95.1102 18.7555 95.022 18.6014 94.8891 18.5163L94.2084 18.0801C94.1416 18.0374 94.0608 18.0465 94.0027 18.1032C93.9445 18.16 93.9242 18.2495 93.9508 18.3313L94.2227 19.1659C94.2758 19.3288 94.3956 19.4522 94.5431 19.4958C94.5818 19.5072 94.6211 19.5128 94.6603 19.5128C94.7443 19.5128 94.8271 19.4865 94.8996 19.4371L95.6839 20.3174L95.6914 20.9875C95.6921 21.0481 95.7353 21.0967 95.7884 21.0967C95.7887 21.0967 95.7892 21.0967 95.7896 21.0967C95.8432 21.0959 95.8861 21.0457 95.8853 20.9847L95.878 20.3343L96.6878 19.4356C96.7664 19.499 96.8607 19.5334 96.9575 19.5334C96.9789 19.5334 97.0003 19.5317 97.0218 19.5283C97.1728 19.5044 97.3042 19.3976 97.3734 19.2428L97.7279 18.4495C97.7627 18.3715 97.7515 18.2799 97.6995 18.2159ZM94.5919 19.2816C94.5044 19.2557 94.4361 19.1854 94.4047 19.0887L94.1456 18.2935L94.7942 18.709C94.873 18.7595 94.9233 18.8473 94.9321 18.95C94.9409 19.0526 94.9065 19.1499 94.8378 19.217C94.7691 19.284 94.6795 19.3076 94.5919 19.2816ZM95.5333 17.9407C95.4815 17.8561 95.4696 17.7521 95.5008 17.6553L95.757 16.8588L96.0132 17.6553C96.0443 17.7521 96.0326 17.8561 95.9808 17.9407C95.929 18.0253 95.8474 18.0738 95.757 18.0738C95.6666 18.0738 95.5851 18.0253 95.5333 17.9407ZM97.2006 19.1422C97.1596 19.2341 97.0847 19.2949 96.9951 19.3091C96.9053 19.3232 96.8188 19.2881 96.7573 19.2125C96.6958 19.137 96.6715 19.0357 96.6907 18.935C96.7099 18.8342 96.7687 18.7536 96.8521 18.7138L97.5384 18.3862L97.2006 19.1422Z" fill="#111111"/>
<path d="M96.2375 24.372H95.553C94.6354 24.372 93.8915 23.5238 93.8915 22.4774V20.9858H97.899V22.4774C97.899 23.5237 97.1551 24.372 96.2375 24.372Z" fill="#F8E643"/>
<path d="M95.2272 23.8106C95.2124 23.8106 95.1974 23.8067 95.1832 23.7986C94.2553 23.2601 94.3663 21.6224 94.3716 21.5529C94.376 21.4921 94.4234 21.4464 94.4763 21.4521C94.5297 21.4573 94.5693 21.5108 94.5648 21.5717C94.5636 21.5871 94.4598 23.1307 95.2712 23.6014C95.319 23.6292 95.338 23.6957 95.3137 23.7502C95.2967 23.7886 95.2625 23.8106 95.2272 23.8106Z" fill="white"/>
<path d="M119.903 80H0.0969886C0.0434509 80 0 79.9505 0 79.8894C0 79.8284 0.0434509 79.7788 0.0969886 79.7788H119.903C119.957 79.7788 120 79.8284 120 79.8894C120 79.9505 119.956 80 119.903 80Z" fill="#111111"/>
</svg>
