<svg width="512" height="282" viewBox="0 0 512 282" fill="none" xmlns="http://www.w3.org/2000/svg">
<path d="M42.8875 280.495C42.8875 280.495 -16.6896 213.759 32.812 141.508C76.7332 77.402 127.941 81.7843 165.511 107.799C181.513 118.879 227.648 109.165 266.914 43.9342C320.463 -45.0222 506.082 8.93022 472.237 145.792C455.859 212.023 522.083 214.43 488.339 280.635L42.8875 280.495Z" fill="#D9E9FE"/>
<path d="M352.195 279.864H237.72C236.623 279.864 235.725 278.928 235.725 277.784V47.4338C235.725 46.2896 236.623 45.3533 237.72 45.3533H352.195C353.292 45.3533 354.189 46.2896 354.189 47.4338V277.784C354.189 278.928 353.292 279.864 352.195 279.864Z" fill="#78ACEA"/>
<path d="M360.45 51.678V273.54C360.45 277.018 357.722 279.864 354.387 279.864H248.047C244.712 279.864 241.986 277.018 241.986 273.54V51.678C241.986 48.1986 244.712 45.3525 248.047 45.3525H354.387C357.722 45.3525 360.45 48.1986 360.45 51.678Z" fill="#AFCDFB"/>
<path opacity="0.4" d="M318.579 54.2299H287.784C287.125 54.2299 286.586 53.6673 286.586 52.9798C286.586 52.2923 287.125 51.7297 287.784 51.7297H318.579C319.238 51.7297 319.777 52.2923 319.777 52.9798C319.777 53.6671 319.238 54.2299 318.579 54.2299Z" fill="#5E92DD"/>
<path opacity="0.4" d="M282.314 54.2301C281.655 54.2301 281.116 53.6676 281.116 52.9801C281.116 52.2925 281.655 51.73 282.314 51.73C282.973 51.73 283.512 52.2925 283.512 52.9801C283.512 53.6674 282.973 54.2301 282.314 54.2301Z" fill="#5E92DD"/>
<path d="M310.413 266.906C310.413 269.118 309.557 271.124 308.172 272.581C306.772 274.057 304.83 274.969 302.685 274.969C298.417 274.969 294.957 271.358 294.957 266.906C294.957 264.043 296.386 261.531 298.543 260.101C299.739 259.306 301.161 258.845 302.685 258.845C306.953 258.845 310.413 262.453 310.413 266.906Z" fill="#95C0F4"/>
<path d="M354.129 59.7993H249.079V254.88H354.129V59.7993Z" fill="#95C0F4"/>
<path d="M308.172 272.581C306.772 274.057 304.83 274.969 302.685 274.969C298.417 274.969 294.957 271.358 294.957 266.906C294.957 264.043 296.386 261.531 298.543 260.101C299.301 263.533 301.546 269.274 308.172 272.581Z" fill="#8CBAF1"/>
<path opacity="0.9" d="M352.618 83.1228H352.372H303.737H254.854C254.024 83.1228 253.344 84.0412 253.344 85.1649V150.375C253.344 151.497 254.024 152.415 254.854 152.415H303.737H352.372H352.618C353.45 152.415 354.129 151.497 354.129 150.375V85.1649C354.129 84.0412 353.45 83.1228 352.618 83.1228Z" fill="#78ACEA"/>
<path opacity="0.9" d="M316.145 162.345H315.953H278.035H239.925C239.277 162.345 238.747 163.263 238.747 164.387V229.597C238.747 230.719 239.277 231.638 239.925 231.638H278.035H315.953H316.145C316.793 231.638 317.323 230.719 317.323 229.597V164.387C317.323 163.263 316.793 162.345 316.145 162.345Z" fill="#78ACEA"/>
<path d="M389.783 79.2909V144.502C389.783 145.623 388.904 146.54 387.825 146.54H261.246C260.171 146.54 259.292 145.623 259.292 144.502V79.2909C259.292 78.166 260.171 77.248 261.246 77.248H387.825C388.904 77.248 389.783 78.166 389.783 79.2909Z" fill="white"/>
<path d="M389.783 79.2904V144.501C389.783 145.623 388.76 146.541 387.508 146.541H324.537V77.2483H387.508C388.76 77.2483 389.783 78.1667 389.783 79.2904Z" fill="#F8E543"/>
<path d="M355.448 102.561H333.171C332.39 102.561 331.752 101.894 331.752 101.08C331.752 100.266 332.39 99.6001 333.171 99.6001H355.448C356.229 99.6001 356.867 100.266 356.867 101.08C356.867 101.894 356.229 102.561 355.448 102.561Z" fill="#FDFDFD"/>
<path d="M351.144 107.001H331.799C331.773 107.001 331.751 106.978 331.751 106.951V104.091C331.751 104.063 331.773 104.041 331.799 104.041H351.144C351.17 104.041 351.192 104.063 351.192 104.091V106.951C351.192 106.978 351.17 107.001 351.144 107.001Z" fill="#FDFDFD"/>
<path d="M296.858 146.54H261.246C260.172 146.54 259.292 145.623 259.292 144.502V100.187C269 112.154 288.008 135.613 296.858 146.54Z" fill="#D9E9FE"/>
<path d="M290.589 134.429H268.311C267.531 134.429 266.892 133.763 266.892 132.949C266.892 132.135 267.531 131.469 268.311 131.469H290.589C291.369 131.469 292.008 132.135 292.008 132.949C292.008 133.763 291.369 134.429 290.589 134.429Z" fill="#EDDD53"/>
<path d="M286.285 138.87H266.94C266.913 138.87 266.892 138.847 266.892 138.82V135.959C266.892 135.932 266.913 135.909 266.94 135.909H286.285C286.311 135.909 286.333 135.932 286.333 135.959V138.82C286.333 138.847 286.311 138.87 286.285 138.87Z" fill="#EDDD53"/>
<path d="M327.28 159.38V224.591C327.28 225.714 326.401 226.632 325.324 226.632H198.747C197.668 226.632 196.788 225.714 196.788 224.591V159.38C196.788 158.259 197.668 157.341 198.747 157.341H325.324C326.4 157.341 327.28 158.259 327.28 159.38Z" fill="white"/>
<path d="M327.28 159.38V224.59C327.28 225.714 326.4 226.632 325.325 226.632H269.027V157.34H325.325C326.4 157.34 327.28 158.258 327.28 159.38Z" fill="#F8E543"/>
<path d="M297.726 206.109C296.608 206.109 295.569 205.49 295.002 204.478L286.682 189.64C285.801 188.07 286.307 186.052 287.813 185.134C289.317 184.216 291.252 184.744 292.132 186.314L297.469 195.832L307.52 174.26C308.282 172.624 310.172 171.942 311.739 172.737C313.308 173.533 313.961 175.504 313.199 177.139L300.566 204.255C300.057 205.348 299.012 206.06 297.848 206.106C297.807 206.108 297.767 206.109 297.726 206.109Z" fill="#111111"/>
<path d="M297.727 213.743C286.922 213.743 278.131 204.572 278.131 193.299C278.131 182.026 286.922 172.854 297.727 172.854C308.533 172.854 317.324 182.026 317.324 193.299C317.324 204.572 308.533 213.743 297.727 213.743ZM297.727 175.25C288.188 175.25 280.427 183.347 280.427 193.299C280.427 203.251 288.188 211.347 297.727 211.347C307.267 211.347 315.027 203.251 315.027 193.299C315.027 183.347 307.267 175.25 297.727 175.25Z" fill="#111111"/>
<path d="M233.863 226.631H198.746C197.668 226.631 196.788 225.713 196.788 224.59V174.129L233.863 226.631Z" fill="#95C0F4"/>
<path d="M213.772 168.652C209.896 168.652 206.753 171.93 206.753 175.974C206.753 180.019 209.896 183.297 213.772 183.297C217.649 183.297 220.791 180.019 220.791 175.974C220.791 171.93 217.649 168.652 213.772 168.652ZM218.634 176.208H213.772C213.648 176.208 213.548 176.104 213.548 175.974V170.521C213.548 170.392 213.648 170.287 213.772 170.287C213.896 170.287 213.996 170.392 213.996 170.521V175.74H218.634C218.757 175.74 218.858 175.845 218.858 175.974C218.858 176.104 218.757 176.208 218.634 176.208Z" fill="#F8E543"/>
<path d="M249.886 173.248H227.608C226.828 173.248 226.19 172.582 226.19 171.767C226.19 170.954 226.828 170.287 227.608 170.287H249.886C250.667 170.287 251.305 170.954 251.305 171.767C251.305 172.582 250.667 173.248 249.886 173.248Z" fill="#EDDD53"/>
<path d="M245.583 177.688H226.238C226.211 177.688 226.19 177.666 226.19 177.638V174.778C226.19 174.75 226.211 174.728 226.238 174.728H245.582C245.609 174.728 245.63 174.75 245.63 174.778V177.638C245.63 177.666 245.609 177.688 245.583 177.688Z" fill="#EDDD53"/>
<path d="M213.071 196.994C209.582 196.994 206.753 199.946 206.753 203.586C206.753 207.226 213.071 215.32 213.071 215.32C213.071 215.32 219.39 207.226 219.39 203.586C219.39 199.946 216.561 196.994 213.071 196.994ZM213.071 206.6C211.44 206.6 210.118 205.221 210.118 203.519C210.118 201.817 211.44 200.438 213.071 200.438C214.703 200.438 216.025 201.817 216.025 203.519C216.025 205.221 214.703 206.6 213.071 206.6Z" fill="#F8E543"/>
<path d="M248.192 201.8H225.914C225.134 201.8 224.496 201.134 224.496 200.32C224.496 199.506 225.134 198.839 225.914 198.839H248.192C248.972 198.839 249.611 199.506 249.611 200.32C249.611 201.134 248.972 201.8 248.192 201.8Z" fill="#EDDD53"/>
<path d="M243.888 206.24H224.544C224.517 206.24 224.496 206.218 224.496 206.19V203.33C224.496 203.303 224.517 203.28 224.544 203.28H243.888C243.915 203.28 243.936 203.303 243.936 203.33V206.19C243.936 206.218 243.914 206.24 243.888 206.24Z" fill="#EDDD53"/>
<path d="M76.3607 196.592C75.8968 184.689 74.8968 174.335 73.6997 167.114C71.7915 155.603 70.0738 148.981 70.0541 148.91C69.8028 147.898 66.1718 143.802 58.0991 143.929C50.0263 144.055 50.7919 149.427 50.7919 149.427C50.7912 149.608 50.8142 149.777 50.8498 149.904C50.9276 150.181 58.3379 178.213 58.0171 214.407C58.0128 214.915 57.9581 215.793 57.9925 216.378C57.9927 216.381 76.7002 216.882 76.7047 216.378C77.3571 213.215 77.0388 204.45 76.3607 196.592Z" fill="#2E49D3"/>
<path d="M78.7131 214.229C78.7074 214.733 78.4523 215.137 78.1411 215.137H78.1336C77.8224 215.129 77.5747 214.725 77.5709 214.229H61.5384C61.5329 214.733 61.2776 215.137 60.9664 215.137H60.9591C60.6424 215.129 60.3907 214.712 60.3945 214.202C60.4876 203.841 59.9214 194.167 59.0644 185.628C56.9331 164.334 52.9931 150.102 52.9371 149.905C52.9017 149.777 52.8793 149.609 52.8793 149.427C52.8793 149.427 52.1138 144.056 60.1857 143.929C68.2598 143.802 71.8906 147.899 72.1421 148.911C72.1571 148.964 73.1293 152.714 74.4223 159.455C74.8508 161.689 75.313 164.25 75.7878 167.113C76.9838 174.334 77.9842 184.689 78.4481 196.591C79.1266 204.45 79.3651 211.066 78.7131 214.229Z" fill="#78ACEA"/>
<path d="M59.2105 215.137H122.066C122.066 215.137 120.603 208.957 84.2003 209.877C58.4396 210.529 59.2105 215.137 59.2105 215.137Z" fill="#78ACEA"/>
<path d="M54.0938 279.686C61.3816 241.195 59.5077 217.575 59.4985 217.278C59.4801 216.685 60.5271 216.147 61.0902 216.128C61.6604 216.117 64.1759 215.953 64.4668 216.46C64.8481 217.124 66.3156 246.226 55.4542 279.686L54.0938 279.686Z" fill="#2E49D3"/>
<path d="M112.783 279.686C105.495 241.195 107.369 217.575 107.378 217.278C107.396 216.685 106.349 216.147 105.786 216.128C105.216 216.117 102.7 215.953 102.409 216.46C102.028 217.124 100.56 246.226 111.422 279.686L112.783 279.686Z" fill="#2E49D3"/>
<path d="M124.412 279.686C117.125 241.195 118.999 217.575 119.008 217.278C119.026 216.685 117.979 216.147 117.416 216.128C116.846 216.117 114.33 215.953 114.039 216.46C113.658 217.124 112.19 246.226 123.052 279.686L124.412 279.686Z" fill="#2E49D3"/>
<path d="M65.8027 279.686C73.0906 241.195 71.2167 217.575 71.2075 217.278C71.1891 216.685 72.2361 216.147 72.7993 216.128C73.3696 216.117 75.8851 215.953 76.1761 216.46C76.5575 217.124 78.025 246.226 67.1633 279.686L65.8027 279.686Z" fill="#2E49D3"/>
<path d="M123.333 217.11H58.0175C57.9859 217.11 57.96 217.083 57.96 217.05V213.6C57.96 213.567 57.9859 213.54 58.0175 213.54H123.333C123.365 213.54 123.391 213.567 123.391 213.6V217.05C123.391 217.083 123.365 217.11 123.333 217.11Z" fill="#2E49D3"/>
<path d="M119.895 157.888L140.789 153.166L142.02 156.295C142.02 156.295 118.966 170.607 116.805 169.907C114.646 169.206 119.895 157.888 119.895 157.888Z" fill="#FC9490"/>
<path d="M100.9 256.473C100.377 257.099 100.31 257.798 100.569 258.544C100.569 258.547 100.571 258.552 100.574 258.555C101.053 259.935 102.635 261.477 104.473 263.017C104.708 263.215 104.917 263.395 105.099 263.562C105.147 263.605 105.195 263.649 105.24 263.693C105.277 263.727 105.312 263.762 105.348 263.795C107.062 265.443 106.417 265.821 109.496 269.166C113.007 272.977 115.424 273.045 116.112 272.698C116.694 272.402 115.512 270.381 114.202 268.109C114.138 268 114.076 267.889 114.011 267.778C113.837 267.476 113.663 267.169 113.49 266.866C111.955 264.131 112.349 262.848 112.713 258.779C113.009 255.472 117.644 240.305 117.644 240.305L110.916 239.096C110.916 239.096 108.89 251.173 106.657 253.033C105.463 254.025 104.127 254.037 102.98 254.772C102.898 254.823 102.819 254.875 102.741 254.93C102.089 255.38 101.425 255.846 100.9 256.473Z" fill="#FC9490"/>
<path d="M100.9 256.473C100.377 257.099 100.31 257.798 100.569 258.544C100.569 258.547 100.571 258.552 100.574 258.555C101.161 259.934 102.703 261.468 104.48 263.003C104.712 263.204 104.917 263.389 105.099 263.561C105.147 263.605 105.194 263.649 105.24 263.693C105.277 263.727 105.312 263.762 105.348 263.795C107.062 265.443 106.417 265.821 109.496 269.166C113.007 272.977 115.424 273.045 116.112 272.698C116.693 272.402 115.511 270.381 114.202 268.109C113.518 267.848 110.343 266.502 107.943 263.298C105.829 260.483 104.419 256.867 102.979 254.772C102.898 254.823 102.819 254.875 102.741 254.929C102.089 255.38 101.425 255.846 100.9 256.473Z" fill="#1C468A"/>
<path d="M155.153 252.089C155.568 254.256 158.529 253.894 161.836 253.051C165.144 252.208 164.357 253.21 169.065 252.667C173.772 252.123 175.198 250.292 175.342 249.561C175.47 248.914 173.144 248.685 170.65 248.385C170.336 248.348 170.021 248.308 169.706 248.267C166.889 247.899 164.826 246.002 162.267 244.445C159.844 242.97 156.227 236.96 156.227 236.96L149.771 237.493C149.771 237.493 153.159 242.861 154.47 245.195C155.24 246.568 155.199 248.383 155.103 249.785C155.053 250.547 155.006 251.326 155.153 252.089Z" fill="#FC9490"/>
<path d="M161.837 253.051C165.145 252.207 164.358 253.21 169.066 252.666C173.773 252.123 175.199 250.292 175.342 249.561C175.471 248.913 173.145 248.685 170.65 248.385L170.627 248.435C170.627 248.435 167.804 250.523 163.886 250.621C160.692 250.702 157.309 249.747 155.104 249.785C155.054 250.547 155.006 251.326 155.154 252.089C155.569 254.255 158.529 253.894 161.837 253.051Z" fill="#1C468A"/>
<path d="M140.789 153.166C140.789 153.166 142.327 149.235 144.019 149.074C145.711 148.914 151.094 148.031 151.479 148.833C151.863 149.636 151.479 152.524 150.325 153.567C149.172 154.61 142.019 156.295 142.019 156.295L140.789 153.166Z" fill="#FC9490"/>
<path d="M130.414 209.022L116.501 248.086C116.501 248.086 114.363 248.302 112.314 247.686C110.428 247.119 108.268 245.63 108.268 245.63C108.268 245.63 111.719 208.122 118.046 200.32C124.374 192.519 130.414 209.022 130.414 209.022Z" fill="#163560"/>
<path d="M75.3835 193.219C75.3835 193.219 115.362 179.116 124.278 182.116C133.194 185.117 159.965 240.684 159.965 240.684C159.965 240.684 159.361 241.523 157.712 242.168C156.178 242.768 152.464 242.73 152.464 242.73C152.464 242.73 128.305 221.125 125.429 214.824C122.552 208.522 121.402 202.521 118.526 203.121C115.65 203.721 81.4233 217.824 73.6579 209.422C65.8923 201.02 67.9231 190.104 67.9231 190.104L75.3835 193.219Z" fill="#1C468A"/>
<path d="M98.1753 93.7716C96.4473 92.7467 94.3763 92.6351 92.9279 92.7243C93.3009 92.3227 94.0345 92.1764 94.0345 92.1764C93.1362 92.037 91.1314 92.9666 91.1314 92.9666C78.6369 87.9438 76.673 107.137 76.9359 111.596C77.1963 116.055 77.2281 121.188 70.9908 125.187C58.7186 133.056 69.0732 146.793 69.0732 146.793C69.1697 146.852 74.783 156.785 74.783 156.785C74.4679 153.181 90.4041 134.166 98.7183 128.471C100.742 125.362 101.462 119.87 101.516 119.438C101.166 123.792 100.452 126.235 99.8139 127.61C106.855 120.85 102.756 96.4868 98.1753 93.7716Z" fill="#2C3A64"/>
<path d="M98.2267 128.754C98.2685 128.774 94.2123 130.971 91.1614 130.1C88.2916 129.284 86.4164 125.402 86.4562 125.393C87.6714 125.141 88.0219 123.399 87.9962 115.911L88.5456 116.024L97.7836 117.933C97.7836 117.933 97.5734 120.966 97.5671 123.823C97.5609 126.222 97.7004 128.498 98.2267 128.754Z" fill="#FC9490"/>
<path d="M97.7834 117.933C97.7834 117.933 97.5732 120.966 97.5669 123.823C92.3974 123.671 89.6651 118.751 88.5454 116.024L97.7834 117.933Z" fill="#FF8585"/>
<path d="M87.5915 114.975C87.5915 114.975 84.8824 110.509 84.2321 106.691C83.7679 103.965 85.0987 93.8592 94.8322 95.3147C94.8322 95.3147 97.6592 95.6053 100.317 97.4778C102.43 98.967 105.48 102.182 102.07 111L101.184 113.978L87.5915 114.975Z" fill="#2C3A64"/>
<path d="M99.5103 120.638C99.5103 120.638 87.2795 120.849 87.2711 112.9C87.2628 104.952 85.6785 99.6259 93.487 99.1554C101.296 98.6848 102.816 101.716 103.437 104.369C104.059 107.021 102.692 120.379 99.5103 120.638Z" fill="#FC9490"/>
<path d="M99.0568 98.9608C99.0568 98.9608 95.7081 108.286 90.5687 109.665C85.4295 111.043 83.2002 109.607 83.2002 109.607C83.2002 109.607 87.1423 106.34 87.9603 100.636C87.9603 100.636 96.5308 94.5224 99.0568 98.9608Z" fill="#2C3A64"/>
<path d="M98.2271 99.7178C98.2271 99.7178 100.728 101.8 101.338 103.824C101.947 105.848 102.222 110.014 103.386 109.873C103.386 109.873 105.909 103.534 103.073 99.949C100.067 96.1473 98.2271 99.7178 98.2271 99.7178Z" fill="#2C3A64"/>
<path d="M70.9907 163.083C69.7845 157.805 73.8881 147.564 78.1718 139.086C82.0587 131.402 86.0931 125.168 86.4556 125.393C96.7067 131.74 97.6329 126.463 97.6329 126.463L97.6335 126.464C97.6375 126.464 106.946 127.753 109.582 132.488C112.852 138.363 116.386 154.78 119.895 157.887C119.356 159.608 119.587 160.525 120.159 162.656C120.281 163.114 120.416 163.548 120.565 163.96C121.094 165.46 121.755 166.677 122.327 167.734C120.543 168.865 117.097 171.016 114.559 169.469C110.69 167.107 107.671 159.914 105.972 157.05C105.965 157.039 105.959 157.029 105.953 157.018C102.259 178.828 107.281 183.795 104.739 186.095C102.055 188.523 98.2195 184.939 89.7824 188.754C84.2484 191.258 76.5688 194.879 71.3989 195.51C68.6876 195.841 66.6646 195.349 66.005 193.439C64.0876 187.887 73.2919 173.143 70.9907 163.083Z" fill="#1C468A"/>
<path d="M96.7905 115.82C96.7905 115.82 97.0184 116.83 99.4262 116.674C99.4262 116.674 101.448 116.544 101.386 115.434C101.386 115.434 99.4258 114.645 96.7905 115.82Z" fill="white"/>
<path d="M66.0055 193.439C66.6651 195.35 68.6883 195.842 71.3995 195.51C74.9776 193.883 90.4349 187.636 90.2623 183.403C90.0055 177.135 87.2902 176.935 89.2078 169.198C90.7476 162.987 76.4652 151.437 74.1871 148.927C69.9033 157.405 69.7851 157.806 70.9912 163.083C73.2923 173.144 64.0879 187.887 66.0055 193.439Z" fill="#163560"/>
<path d="M64.2576 170.834C66.9988 166.818 69.8548 164.694 71.7332 163.626C71.3007 162.464 83.2631 147.163 83.2631 144.792C83.2631 142.392 86.455 125.392 86.455 125.392C86.455 125.392 76.4874 126.034 73.0364 131.055C68.7203 137.335 59.7566 161.503 64.2576 170.834Z" fill="#1C468A"/>
<path d="M71.7341 163.626L91.6527 169.048L89.7832 172.549C89.7832 172.549 65.5428 172.373 64.2585 170.834C62.974 169.294 71.7341 163.626 71.7341 163.626Z" fill="#FC9490"/>
<path d="M105.973 157.05C107.672 159.914 110.691 167.107 114.56 169.47C117.099 171.016 120.544 168.866 122.328 167.735C121.756 166.677 121.095 165.46 120.566 163.96C119.142 164.3 117.404 164.734 116.284 165.087C114.104 165.775 105.973 157.05 105.973 157.05Z" fill="#163560"/>
<path d="M91.6519 169.049C91.6519 169.049 97.907 167.202 99.3969 167.634C100.887 168.065 105.992 171.592 105.274 172.55C104.556 173.507 100.059 171.976 97.9897 172.266C95.9203 172.556 94.3199 173.621 92.8301 173.391C91.34 173.161 89.7822 172.549 89.7822 172.549L91.6519 169.049Z" fill="#FC9490"/>
<path d="M91.6523 169.048C91.6523 169.048 94.7125 167.408 95.5831 166.474C95.6931 166.357 95.8789 166.381 95.9631 166.52C96.1965 166.904 96.4149 167.645 95.3414 168.382C93.7963 169.443 91.6523 169.048 91.6523 169.048Z" fill="#FC9490"/>
<path d="M120.56 178.23H91.377C91.377 176.89 92.4185 175.803 93.7032 175.803H120.56V178.23Z" fill="#EDDD53"/>
<path d="M120.475 145.072H165.594L154.772 178.23H109.361L120.475 145.072Z" fill="#EDDD53"/>
<path d="M166.26 145.072L155.436 178.229H110.026L121.14 145.072H166.26Z" fill="#F8E543"/>
<path d="M141.934 161.344C141.654 162.611 140.442 163.638 139.228 163.638C138.013 163.638 137.256 162.611 137.536 161.344C137.817 160.077 139.028 159.05 140.243 159.05C141.457 159.05 142.214 160.077 141.934 161.344Z" fill="#F8E543"/>
<path d="M166.259 145.072L155.436 178.229H125.363C145.284 171.135 150.586 149.506 151.476 145.072H166.259Z" fill="#EDDD53"/>
<path d="M35.273 279.686C35.8437 279.686 36.3315 279.268 36.4292 278.697L42.0961 245.186L50.2471 196.991L52.5264 183.514L46.7208 183.341L45.7136 191.165L38.6409 246.143L34.448 278.732C34.3831 279.238 34.7702 279.686 35.273 279.686Z" fill="#95C0F4"/>
<path d="M45.7133 191.165C49.4746 192.897 50.247 196.991 50.247 196.991L52.5263 183.515L46.7207 183.342L45.7133 191.165Z" fill="#78ACEA"/>
<path d="M179.677 279.686C179.106 279.686 178.618 279.268 178.521 278.697L172.854 245.186L164.703 196.991L162.424 183.514L168.23 183.341L169.237 191.165L176.31 246.143L180.503 278.732C180.567 279.238 180.18 279.686 179.677 279.686Z" fill="#95C0F4"/>
<path d="M169.236 191.165C165.475 192.897 164.703 196.992 164.703 196.992L162.423 183.515L168.229 183.342L169.236 191.165Z" fill="#78ACEA"/>
<path d="M28.0281 188.805H183.442C183.536 188.805 183.612 188.725 183.612 188.627V178.401C183.612 178.303 183.536 178.223 183.442 178.223H28.0281C27.9343 178.223 27.8574 178.303 27.8574 178.401V188.627C27.8574 188.725 27.9343 188.805 28.0281 188.805Z" fill="#78ACEA"/>
<path d="M511.977 281.076H0.0229183C0.0104271 281.076 0 281.065 0 281.052V279.683C0 279.67 0.0102378 279.659 0.0229183 279.659H511.977C511.99 279.659 512 279.67 512 279.683V281.052C512 281.065 511.99 281.076 511.977 281.076Z" fill="#2E3552"/>
<path d="M377.321 107.001C377.321 107.001 375.245 100.015 374.067 99.2635C372.888 98.5122 367.974 95.985 367.681 96.6682C367.389 97.3512 370.335 100.669 370.99 101.777C371.644 102.884 371.972 103.977 371.514 103.498C371.055 103.02 368.568 101.421 368.306 101.777C368.044 102.132 369.55 103.498 370.27 104.591C370.99 105.684 371.775 107.528 374.329 107.938C376.882 108.348 377.321 107.001 377.321 107.001Z" fill="#FC9490"/>
<path d="M452.977 165.821C452.977 165.821 452.355 172.131 451.672 173.325C450.99 174.519 448.083 178.333 446.845 179.081C445.607 179.83 447.601 174.056 447.349 172.932C447.096 171.808 446.33 174.982 445.784 175.057C445.238 175.132 445.379 172.275 445.359 171.235C445.34 170.195 448.014 167.629 448.957 165.415C449.9 163.201 452.977 165.821 452.977 165.821Z" fill="#FC9490"/>
<path d="M434.011 101.075C434.011 101.075 428.981 126.828 401.304 135.243C392.665 137.869 373.037 108.195 373.037 108.195C373.037 108.195 373.727 105.459 378.05 106.087C378.05 106.087 397.161 119.287 399.567 120.721C401.702 121.993 415.742 104.365 422.142 101.521C428.542 98.6779 434.011 101.075 434.011 101.075Z" fill="#1C468A"/>
<path d="M467.052 262.97C467.052 262.97 470.486 266.239 469.816 268.561C469.146 270.884 466.048 272.433 465.629 275.272C465.21 278.11 463.535 279.659 462.028 279.659C460.521 279.659 454.841 279.659 454.841 279.659C454.841 279.659 453.732 277.661 456.412 277.059C459.091 276.457 460.102 273.121 459.934 270.024C459.767 266.927 460.185 262.798 460.185 262.798L465.88 261.421L467.052 262.97Z" fill="#293EB7"/>
<path d="M424.93 271.425C424.93 271.425 425.546 278.865 424.039 279.639L404.748 279.598C404.748 279.598 404.748 277.275 407.846 276.759C410.945 276.243 416.388 274.35 417.309 270.134C418.23 265.919 424.93 271.425 424.93 271.425Z" fill="#293EB7"/>
<path d="M408.644 166.333C408.644 166.333 409.662 179.374 410.857 195.05C412.483 216.344 414.437 242.501 414.631 247.456C414.965 256.06 416.307 269.824 416.307 269.824C416.307 269.824 419.487 273.094 425.853 271.716C425.853 271.716 431.526 252.068 433.146 231.279C433.172 230.938 433.197 230.595 433.222 230.252C434.729 209.089 437.073 164.526 437.073 164.526L408.644 166.333Z" fill="#F8E543"/>
<path d="M408.644 166.333C408.644 166.333 409.662 179.374 410.857 195.05L433.147 231.279C433.172 230.938 433.197 230.595 433.222 230.252C434.729 209.089 437.073 164.526 437.073 164.526L408.644 166.333Z" fill="#EDDD53"/>
<path d="M413.29 167.882C413.29 167.882 431.629 215.11 443.689 237.306C455.747 259.501 459.516 265.695 459.516 265.695C459.516 265.695 466.425 262.856 467.053 260.92C467.053 260.92 462.441 218.071 454.366 207.626C449.803 201.724 444.442 184.012 444.191 177.818C443.94 171.624 442.558 159.365 442.558 159.365L413.29 167.882Z" fill="#F8E543"/>
<path d="M437.419 95.0977C437.419 95.0977 425.01 101.344 417.856 99.0267C417.856 99.0267 419.617 96.7091 422.699 94.9846C422.451 93.4865 422.259 92.1865 422.148 91.0841C421.846 88.5403 421.846 87.0987 421.846 87.0987L426.633 83.1701L431.173 79.4106C430.815 89.9817 437.419 95.0977 437.419 95.0977Z" fill="#FC9490"/>
<path d="M443.958 161.784C443.986 162.577 442.363 163.48 441.646 163.818C436.337 166.25 431.384 167.945 425.771 168.511C419.14 169.217 411.298 167.662 408.602 167.72C408.326 167.72 408.079 167.607 407.859 167.408C407.666 167.267 407.529 158.929 407.666 148.442C407.666 148.02 407.666 147.596 407.694 147.172V147.03C407.749 142.932 407.887 138.635 408.079 134.338C408.464 124.899 409.181 115.797 410.391 110.766C411.848 104.83 415.152 100.902 418.151 98.0459L420.625 95.7859C423.102 96.2939 425.716 96.1525 428.33 94.8249C431.192 93.3844 434.273 91.8291 434.768 92.2246C438.51 95.0788 441.041 101.494 442.391 109.693C442.396 109.734 442.404 109.773 442.41 109.814C443.166 114.502 443.545 119.745 443.518 125.237C443.518 127.274 443.463 129.363 443.353 131.427C442.801 140.775 443.17 149.096 443.532 154.862C443.603 156.001 443.675 157.04 443.738 157.968C443.848 159.607 443.931 160.88 443.958 161.784Z" fill="#2A4E96"/>
<path d="M443.533 154.862C422.964 130.085 435.724 112.078 435.724 112.078L442.411 109.813C443.167 114.502 443.547 119.745 443.519 125.237C443.519 127.274 443.464 129.363 443.354 131.427C442.802 140.775 443.171 149.096 443.533 154.862Z" fill="#1C468A"/>
<path d="M431.257 83.4527C431.257 83.4527 428.12 89.4164 422.149 91.0839C421.847 88.5401 421.847 87.0985 421.847 87.0985L426.634 83.1699L431.257 83.4527Z" fill="#F48484"/>
<path d="M419.663 86.9265C419.663 86.9265 431.501 88.9466 432.612 81.3544C433.723 73.7621 435.999 68.9095 428.488 67.2986C420.977 65.6878 419.082 68.3576 418.111 70.7991C417.14 73.2406 416.613 86.2054 419.663 86.9265Z" fill="#FC9490"/>
<path d="M436.914 66.3895C437.022 66.2609 437.27 66.1573 437.822 66.1259C437.822 66.1259 437.381 65.8382 436.791 65.823C436.676 65.0227 436.268 63.6062 434.948 63.262C434.948 63.262 435.657 63.6565 435.749 64.5074C434.221 62.8691 430.944 61.6767 421.872 62.4236C409.916 63.4083 413.856 71.3949 415.404 72.3469C416.952 73.299 420.849 70.6889 423.733 70.9276C426.616 71.1663 427.165 75.514 428.143 76.1107C429.122 76.7072 428.737 75.6524 430.061 75.0281C431.384 74.4037 431.51 76.6922 431.128 78.18C430.746 79.668 432.564 81.6305 432.564 81.6305C432.564 81.6305 432.564 81.6305 434.402 79.5654C436.24 77.5002 437.973 68.753 437.137 66.8885C437.063 66.724 436.99 66.5571 436.914 66.3895Z" fill="#2C3A64"/>
<path d="M434.764 92.1616C434.764 92.1616 442.254 95.8619 445.845 101.55C451.415 110.374 457.872 142.532 457.992 145.51C458.111 148.488 453.279 169.512 453.279 169.512C453.279 169.512 448.378 169.175 447.114 166.595C447.114 166.595 448.093 144.993 447.473 143.605C446.853 142.216 427.042 114.628 429.269 108.742C431.497 102.855 434.764 92.1616 434.764 92.1616Z" fill="#2A4E96"/>
<path d="M377.142 140.513H338.614C338.515 140.513 338.435 140.429 338.435 140.326V129.572C338.435 129.469 338.515 129.385 338.614 129.385H377.142C377.24 129.385 377.321 129.469 377.321 129.572V140.326C377.321 140.429 377.24 140.513 377.142 140.513Z" fill="#111111"/>
<path d="M357.814 137.381C357.605 137.381 357.411 137.265 357.305 137.077L355.753 134.308C355.589 134.015 355.683 133.638 355.964 133.467C356.244 133.296 356.606 133.394 356.77 133.687L357.766 135.463L359.641 131.438C359.783 131.133 360.136 131.005 360.428 131.154C360.721 131.302 360.843 131.67 360.7 131.975L358.343 137.035C358.248 137.239 358.054 137.371 357.836 137.38C357.829 137.38 357.821 137.381 357.814 137.381Z" fill="#F8E543"/>
<path d="M357.814 138.805C355.798 138.805 354.157 137.094 354.157 134.991C354.157 132.887 355.798 131.176 357.814 131.176C359.83 131.176 361.47 132.887 361.47 134.991C361.47 137.094 359.83 138.805 357.814 138.805ZM357.814 131.623C356.034 131.623 354.586 133.134 354.586 134.991C354.586 136.848 356.034 138.359 357.814 138.359C359.594 138.359 361.042 136.848 361.042 134.991C361.041 133.134 359.594 131.623 357.814 131.623Z" fill="#F8E543"/>
<path d="M191.131 100.547H159.564C155.417 100.547 152.023 104.087 152.023 108.414V120.873C152.023 122.85 152.733 124.662 153.898 126.048L152.023 134.992L162.838 128.74H191.131C195.278 128.74 198.671 125.2 198.671 120.873V108.414C198.671 104.087 195.278 100.547 191.131 100.547Z" fill="#78ACEA"/>
<path d="M191.724 110.04H158.999C158.325 110.04 157.774 109.464 157.774 108.762C157.774 108.059 158.325 107.484 158.999 107.484H191.724C192.398 107.484 192.949 108.059 192.949 108.762C192.949 109.464 192.398 110.04 191.724 110.04Z" fill="#2E49D3"/>
<path d="M191.724 115.632H158.999C158.325 115.632 157.774 115.057 157.774 114.354C157.774 113.651 158.325 113.076 158.999 113.076H191.724C192.398 113.076 192.949 113.651 192.949 114.354C192.949 115.057 192.398 115.632 191.724 115.632Z" fill="#2E49D3"/>
<path d="M191.724 121.014H158.999C158.325 121.014 157.774 120.439 157.774 119.736C157.774 119.033 158.325 118.458 158.999 118.458H191.724C192.398 118.458 192.949 119.033 192.949 119.736C192.949 120.439 192.398 121.014 191.724 121.014Z" fill="#2E49D3"/>
<path d="M336.034 89.2841C335.89 89.0068 335.69 88.7988 335.434 88.6601C335.178 88.5161 334.882 88.4441 334.546 88.4441C334.178 88.4441 333.85 88.5268 333.562 88.6921C333.274 88.8575 333.047 89.0921 332.882 89.3961C332.722 89.7001 332.642 90.0521 332.642 90.4521C332.642 90.8521 332.722 91.2068 332.882 91.5161C333.047 91.8201 333.274 92.0548 333.562 92.2201C333.85 92.3855 334.178 92.4681 334.546 92.4681C335.042 92.4681 335.445 92.3295 335.754 92.0521C336.063 91.7748 336.253 91.3988 336.322 90.9241H334.234V90.1961H337.298V90.9081C337.239 91.3401 337.085 91.7375 336.834 92.1001C336.589 92.4628 336.266 92.7535 335.866 92.9721C335.471 93.1855 335.031 93.2921 334.546 93.2921C334.023 93.2921 333.546 93.1721 333.114 92.9321C332.682 92.6868 332.338 92.3481 332.082 91.9161C331.831 91.4841 331.706 90.9961 331.706 90.4521C331.706 89.9081 331.831 89.4201 332.082 88.9881C332.338 88.5561 332.682 88.2201 333.114 87.9801C333.551 87.7348 334.029 87.6121 334.546 87.6121C335.138 87.6121 335.663 87.7588 336.122 88.0521C336.586 88.3401 336.922 88.7508 337.13 89.2841H336.034ZM342.238 90.9321C342.238 91.0975 342.227 91.2468 342.206 91.3801H338.838C338.864 91.7321 338.995 92.0148 339.23 92.2281C339.464 92.4415 339.752 92.5481 340.094 92.5481C340.584 92.5481 340.931 92.3428 341.134 91.9321H342.118C341.984 92.3375 341.742 92.6708 341.39 92.9321C341.043 93.1881 340.611 93.3161 340.094 93.3161C339.672 93.3161 339.294 93.2228 338.958 93.0361C338.627 92.8441 338.366 92.5775 338.174 92.2361C337.987 91.8895 337.894 91.4895 337.894 91.0361C337.894 90.5828 337.984 90.1855 338.166 89.8441C338.352 89.4975 338.611 89.2308 338.942 89.0441C339.278 88.8575 339.662 88.7641 340.094 88.7641C340.51 88.7641 340.88 88.8548 341.206 89.0361C341.531 89.2175 341.784 89.4735 341.966 89.8041C342.147 90.1295 342.238 90.5055 342.238 90.9321ZM341.286 90.6441C341.28 90.3081 341.16 90.0388 340.926 89.8361C340.691 89.6335 340.4 89.5321 340.054 89.5321C339.739 89.5321 339.47 89.6335 339.246 89.8361C339.022 90.0335 338.888 90.3028 338.846 90.6441H341.286ZM344.199 89.5801V92.0201C344.199 92.1855 344.236 92.3055 344.311 92.3801C344.391 92.4495 344.524 92.4841 344.711 92.4841H345.271V93.2441H344.551C344.14 93.2441 343.826 93.1481 343.607 92.9561C343.388 92.7641 343.279 92.4521 343.279 92.0201V89.5801H342.759V88.8361H343.279V87.7401H344.199V88.8361H345.271V89.5801H344.199ZM347.886 91.0201C347.886 90.5775 347.977 90.1855 348.158 89.8441C348.345 89.5028 348.595 89.2388 348.91 89.0521C349.23 88.8601 349.582 88.7641 349.966 88.7641C350.313 88.7641 350.614 88.8335 350.87 88.9721C351.131 89.1055 351.339 89.2735 351.494 89.4761V88.8361H352.414V93.2441H351.494V92.5881C351.339 92.7961 351.129 92.9695 350.862 93.1081C350.595 93.2468 350.291 93.3161 349.95 93.3161C349.571 93.3161 349.225 93.2201 348.91 93.0281C348.595 92.8308 348.345 92.5588 348.158 92.2121C347.977 91.8601 347.886 91.4628 347.886 91.0201ZM351.494 91.0361C351.494 90.7321 351.43 90.4681 351.302 90.2441C351.179 90.0201 351.017 89.8495 350.814 89.7321C350.611 89.6148 350.393 89.5561 350.158 89.5561C349.923 89.5561 349.705 89.6148 349.502 89.7321C349.299 89.8441 349.134 90.0121 349.006 90.2361C348.883 90.4548 348.822 90.7161 348.822 91.0201C348.822 91.3241 348.883 91.5908 349.006 91.8201C349.134 92.0495 349.299 92.2255 349.502 92.3481C349.71 92.4655 349.929 92.5241 350.158 92.5241C350.393 92.5241 350.611 92.4655 350.814 92.3481C351.017 92.2308 351.179 92.0601 351.302 91.8361C351.43 91.6068 351.494 91.3401 351.494 91.0361ZM359.994 94.2521L359.018 93.1961C358.778 93.2655 358.514 93.3001 358.226 93.3001C357.709 93.3001 357.231 93.1801 356.794 92.9401C356.362 92.6948 356.018 92.3561 355.762 91.9241C355.511 91.4868 355.386 90.9961 355.386 90.4521C355.386 89.9081 355.511 89.4201 355.762 88.9881C356.018 88.5561 356.362 88.2201 356.794 87.9801C357.231 87.7348 357.709 87.6121 358.226 87.6121C358.749 87.6121 359.226 87.7348 359.658 87.9801C360.095 88.2201 360.439 88.5561 360.69 88.9881C360.941 89.4201 361.066 89.9081 361.066 90.4521C361.066 90.9641 360.954 91.4281 360.73 91.8441C360.511 92.2548 360.207 92.5855 359.818 92.8361L361.154 94.2521H359.994ZM356.322 90.4521C356.322 90.8628 356.402 91.2255 356.562 91.5401C356.727 91.8495 356.954 92.0895 357.242 92.2601C357.53 92.4255 357.858 92.5081 358.226 92.5081C358.594 92.5081 358.922 92.4255 359.21 92.2601C359.498 92.0895 359.722 91.8495 359.882 91.5401C360.047 91.2255 360.13 90.8628 360.13 90.4521C360.13 90.0415 360.047 89.6815 359.882 89.3721C359.722 89.0628 359.498 88.8255 359.21 88.6601C358.922 88.4948 358.594 88.4121 358.226 88.4121C357.858 88.4121 357.53 88.4948 357.242 88.6601C356.954 88.8255 356.727 89.0628 356.562 89.3721C356.402 89.6815 356.322 90.0415 356.322 90.4521ZM365.979 88.8361V93.2441H365.067V92.7241C364.923 92.9055 364.733 93.0495 364.499 93.1561C364.269 93.2575 364.024 93.3081 363.763 93.3081C363.416 93.3081 363.104 93.2361 362.827 93.0921C362.555 92.9481 362.339 92.7348 362.179 92.4521C362.024 92.1695 361.947 91.8281 361.947 91.4281V88.8361H362.851V91.2921C362.851 91.6868 362.949 91.9908 363.147 92.2041C363.344 92.4121 363.613 92.5161 363.955 92.5161C364.296 92.5161 364.565 92.4121 364.763 92.2041C364.965 91.9908 365.067 91.6868 365.067 91.2921V88.8361H365.979ZM369.094 93.3161C368.678 93.3161 368.302 93.2228 367.966 93.0361C367.63 92.8441 367.366 92.5775 367.174 92.2361C366.982 91.8895 366.886 91.4895 366.886 91.0361C366.886 90.5881 366.985 90.1908 367.182 89.8441C367.379 89.4975 367.649 89.2308 367.99 89.0441C368.331 88.8575 368.713 88.7641 369.134 88.7641C369.555 88.7641 369.937 88.8575 370.278 89.0441C370.619 89.2308 370.889 89.4975 371.086 89.8441C371.283 90.1908 371.382 90.5881 371.382 91.0361C371.382 91.4841 371.281 91.8815 371.078 92.2281C370.875 92.5748 370.598 92.8441 370.246 93.0361C369.899 93.2228 369.515 93.3161 369.094 93.3161ZM369.094 92.5241C369.329 92.5241 369.547 92.4681 369.75 92.3561C369.958 92.2441 370.126 92.0761 370.254 91.8521C370.382 91.6281 370.446 91.3561 370.446 91.0361C370.446 90.7161 370.385 90.4468 370.262 90.2281C370.139 90.0041 369.977 89.8361 369.774 89.7241C369.571 89.6121 369.353 89.5561 369.118 89.5561C368.883 89.5561 368.665 89.6121 368.462 89.7241C368.265 89.8361 368.107 90.0041 367.99 90.2281C367.873 90.4468 367.814 90.7161 367.814 91.0361C367.814 91.5108 367.934 91.8788 368.174 92.1401C368.419 92.3961 368.726 92.5241 369.094 92.5241ZM373.348 89.5801V92.0201C373.348 92.1855 373.385 92.3055 373.46 92.3801C373.54 92.4495 373.673 92.4841 373.86 92.4841H374.42V93.2441H373.7C373.289 93.2441 372.974 93.1481 372.756 92.9561C372.537 92.7641 372.428 92.4521 372.428 92.0201V89.5801H371.908V88.8361H372.428V87.7401H373.348V88.8361H374.42V89.5801H373.348ZM379.3 90.9321C379.3 91.0975 379.289 91.2468 379.268 91.3801H375.9C375.927 91.7321 376.057 92.0148 376.292 92.2281C376.527 92.4415 376.815 92.5481 377.156 92.5481C377.647 92.5481 377.993 92.3428 378.196 91.9321H379.18C379.047 92.3375 378.804 92.6708 378.452 92.9321C378.105 93.1881 377.673 93.3161 377.156 93.3161C376.735 93.3161 376.356 93.2228 376.02 93.0361C375.689 92.8441 375.428 92.5775 375.236 92.2361C375.049 91.8895 374.956 91.4895 374.956 91.0361C374.956 90.5828 375.047 90.1855 375.228 89.8441C375.415 89.4975 375.673 89.2308 376.004 89.0441C376.34 88.8575 376.724 88.7641 377.156 88.7641C377.572 88.7641 377.943 88.8548 378.268 89.0361C378.593 89.2175 378.847 89.4735 379.028 89.8041C379.209 90.1295 379.3 90.5055 379.3 90.9321ZM378.348 90.6441C378.343 90.3081 378.223 90.0388 377.988 89.8361C377.753 89.6335 377.463 89.5321 377.116 89.5321C376.801 89.5321 376.532 89.6335 376.308 89.8361C376.084 90.0335 375.951 90.3028 375.908 90.6441H378.348Z" fill="#111111"/>
</svg>
