<svg width="28" height="28" viewBox="0 0 28 28" fill="none" xmlns="http://www.w3.org/2000/svg">
<ellipse cx="14" cy="14" rx="14" ry="14" fill="#FDFDFD"/>
<path d="M17.7022 6.66455H10.3422C8.30976 6.66455 6.66217 8.31214 6.66217 10.3446V17.7046C6.66217 19.737 8.30976 21.3846 10.3422 21.3846H17.7022C19.7346 21.3846 21.3822 19.737 21.3822 17.7046V10.3446C21.3822 8.31214 19.7346 6.66455 17.7022 6.66455Z" fill="#111111"/>
<path d="M16.8697 13.6014C16.9585 14.2006 16.8562 14.8125 16.5772 15.3502C16.2982 15.8879 15.8567 16.324 15.3156 16.5963C14.7745 16.8687 14.1613 16.9635 13.5633 16.8672C12.9652 16.771 12.4127 16.4886 11.9843 16.0603C11.556 15.6319 11.2736 15.0794 11.1774 14.4813C11.0811 13.8833 11.1759 13.2701 11.4483 12.729C11.7206 12.1879 12.1567 11.7464 12.6944 11.4674C13.2321 11.1884 13.844 11.0861 14.4433 11.175C15.0545 11.2656 15.6204 11.5504 16.0573 11.9873C16.4942 12.4243 16.779 12.9901 16.8697 13.6014Z" fill="#FDFDFD"/>
<ellipse cx="18.1845" cy="9.54472" rx="0.96" ry="0.960001" fill="#FDFDFD"/>
</svg>
