<svg width="28" height="28" viewBox="0 0 28 28" fill="none" xmlns="http://www.w3.org/2000/svg">
<ellipse cx="14" cy="14" rx="14" ry="14" fill="#FDFDFD"/>
<path d="M19.9697 11.2802C19.9778 11.3977 19.9778 11.5152 19.9778 11.6339C19.9778 15.2485 17.2261 19.4172 12.1945 19.4172V19.415C10.7081 19.4172 9.25261 18.9914 8.00134 18.1887C8.21747 18.2147 8.43468 18.2277 8.65244 18.2282C9.88421 18.2293 11.0808 17.816 12.0498 17.055C10.8793 17.0327 9.85279 16.2695 9.4942 15.1553C9.90425 15.2344 10.3268 15.2181 10.7292 15.1082C9.45303 14.8503 8.53489 13.7291 8.53489 12.4269C8.53489 12.415 8.53489 12.4036 8.53489 12.3922C8.91515 12.604 9.34091 12.7215 9.77641 12.7345C8.57444 11.9312 8.20393 10.3322 8.92977 9.08203C10.3186 10.791 12.3678 11.83 14.5675 11.9399C14.3471 10.9898 14.6482 9.99421 15.3589 9.32633C16.4607 8.29065 18.1935 8.34373 19.2292 9.44496C19.8418 9.32416 20.429 9.09937 20.9663 8.78086C20.7621 9.41408 20.3347 9.95196 19.7638 10.2938C20.306 10.2298 20.8358 10.0847 21.3347 9.86313C20.9674 10.4135 20.5048 10.8929 19.9697 11.2802Z" fill="#111111"/>
</svg>
