<svg width="52" height="52" viewBox="0 0 52 52" fill="none" xmlns="http://www.w3.org/2000/svg">
<g clip-path="url(#clip0_383_49934)">
<path d="M42.2638 17.2456C39.1445 29.4984 29.4986 39.1443 17.2458 42.2636C12.6073 43.4445 8.66683 39.4531 8.66683 34.6666V32.5C8.66683 31.3033 9.63928 30.3447 10.8301 30.2267C12.8419 30.0272 14.7728 29.5526 16.5846 28.841L19.8764 32.1327C25.2303 29.5706 29.5708 25.2302 32.1329 19.8762L28.8412 16.5845C29.5528 14.7726 30.0274 12.8417 30.2269 10.8299C30.3449 9.63908 31.3035 8.66663 32.5002 8.66663H34.6668C39.4533 8.66663 43.4447 12.6071 42.2638 17.2456Z" stroke="#292929" stroke-width="2" stroke-linecap="round" stroke-linejoin="round"/>
</g>
<defs>
<clipPath id="clip0_383_49934">
<rect width="52" height="52" fill="white"/>
</clipPath>
</defs>
</svg>
