<svg width="1440" height="480" viewBox="0 0 1440 480" fill="none" xmlns="http://www.w3.org/2000/svg">
<rect width="1440" height="480" fill="#F8E543"/>
<g opacity="0.25">
<path d="M932.928 480H930.168C818.784 380.06 682.344 362.568 561.456 347.069C470.688 335.42 392.28 325.375 339.648 283.406C289.992 243.818 259.368 220.533 207.096 202.538C161.52 186.826 99.648 175.854 0 166.249V164.995C220.752 186.312 256.368 214.702 341.64 282.716C393.768 324.272 471.744 334.266 562.032 345.852C683.64 361.439 820.944 379.045 932.928 480Z" fill="#222222"/>
<path d="M917.328 480H914.568C804.624 385.992 671.64 368.938 553.536 353.803C462.744 342.153 384.336 332.097 331.728 290.139C282.072 250.54 251.424 227.266 199.2 209.26C154.824 193.974 95.04 183.177 0 173.76V172.506C213.696 193.736 249.456 222.238 333.696 289.45C385.824 331.006 463.824 341 554.112 352.574C672.936 367.822 806.784 384.988 917.328 480Z" fill="#222222"/>
<path d="M901.392 480H898.536C790.224 391.898 660.84 375.308 545.616 360.524C454.824 348.887 376.416 338.83 323.784 296.873C274.128 257.273 243.504 234 191.256 215.993C148.128 201.134 90.456 190.526 0 181.296V180.042C206.688 201.197 242.592 229.812 325.8 296.183C377.904 337.727 455.88 347.733 546.192 359.307C662.16 374.192 792.408 390.882 901.392 480Z" fill="#222222"/>
<path d="M885.024 480H882.12C775.56 397.766 649.896 381.653 537.672 367.257C446.88 355.621 368.472 345.564 315.84 303.607C266.184 264.007 235.584 240.734 183.336 222.727C141.48 208.307 85.92 197.886 0 188.845V187.591C199.704 208.67 235.728 237.411 317.88 302.917C369.984 344.461 447.96 354.467 538.248 366.041C651.24 380.537 777.816 396.763 885.024 480Z" fill="#222222"/>
<path d="M868.152 480H865.2C760.584 403.597 638.832 387.985 529.728 373.991C438.96 362.354 360.528 352.298 307.944 310.34C258.288 270.741 227.64 247.455 175.416 229.461C134.856 215.492 81.432 205.272 0 196.432V195.165C192.72 216.169 228.864 245.022 309.936 309.651C362.04 351.194 440.016 361.188 530.328 372.775C640.2 386.857 762.912 402.594 868.152 480Z" fill="#222222"/>
<path d="M850.824 480H847.8C745.392 409.39 627.648 394.293 521.832 380.725C431.04 369.076 352.632 359.032 300 317.062C250.344 277.475 219.696 254.189 167.472 236.195C128.256 222.677 76.992 212.671 0 204.031V202.777C185.832 223.718 222.096 252.647 302.016 316.372C354.096 357.928 432.096 367.922 522.384 379.509C629.016 393.177 747.696 408.4 850.824 480Z" fill="#222222"/>
<path d="M832.92 480H829.824C729.792 415.133 616.248 400.575 513.888 387.458C423.096 375.809 344.688 365.753 292.08 323.795C242.424 284.196 211.8 260.922 159.528 242.915C121.68 229.874 72.6 220.106 0 211.667V210.413C178.944 231.291 215.304 260.295 294.072 323.106C346.152 364.662 424.152 374.656 514.44 386.23C617.64 399.471 732.168 414.155 832.92 480Z" fill="#222222"/>
<path d="M814.32 480H811.152C713.784 420.839 604.68 406.845 505.968 394.18C415.152 382.543 336.768 372.487 284.136 330.529C234.504 290.93 203.856 267.656 151.584 249.65C115.128 237.085 68.256 227.555 0 219.342V218.1C172.104 238.891 208.56 267.957 286.128 329.84C338.256 371.383 416.232 381.39 506.496 392.964C606.096 405.741 716.208 419.848 814.32 480Z" fill="#222222"/>
<path d="M795.072 480H791.784C697.368 426.481 592.896 413.077 498.024 400.913C407.232 389.277 328.824 379.22 276.216 337.263C226.56 297.663 195.936 274.39 143.688 256.383C108.648 244.307 64.008 235.041 0 227.053V225.812C165.288 246.539 201.84 275.656 278.232 336.573C330.336 378.116 408.312 388.123 498.6 399.697C594.36 411.986 699.84 425.503 795.072 480Z" fill="#222222"/>
<path d="M774.936 480H771.456C680.352 432.049 580.848 419.284 490.104 407.647C399.312 396.011 320.904 385.954 268.296 343.997C218.64 304.397 187.992 281.111 135.744 263.117C102.168 251.556 59.784 242.565 0 234.803V233.549C158.592 254.214 195.144 283.368 270.288 343.307C322.392 384.851 400.368 394.857 490.68 406.431C582.36 418.181 682.968 431.084 774.936 480Z" fill="#222222"/>
<path d="M753.84 480H750.24C662.808 437.541 568.512 425.453 482.16 414.381C391.392 402.732 312.984 392.687 260.328 350.718C210.696 311.13 180.072 287.845 127.824 269.85C95.76 258.803 55.632 250.101 0 242.564V241.335C151.92 261.938 188.496 291.117 262.368 350.04C314.472 391.584 392.448 401.578 482.736 413.164C570.072 424.362 665.496 436.601 753.84 480Z" fill="#222222"/>
<path d="M731.592 480H727.848C644.544 442.946 555.84 431.572 474.24 421.114C383.448 409.465 305.04 399.409 252.432 357.451C202.752 317.864 172.128 294.578 119.904 276.572C89.376 266.051 51.552 257.662 0 250.389V249.16C145.272 269.712 181.848 298.892 254.424 356.762C306.528 398.318 384.528 408.312 474.816 419.898C557.448 430.494 647.328 442.018 731.592 480Z" fill="#222222"/>
<path d="M708.024 480H704.016C625.416 448.238 542.76 437.642 466.296 427.836C375.528 416.199 297.096 406.143 244.488 364.185C194.856 324.586 164.184 301.312 111.96 283.306C83.016 273.337 47.544 265.274 0 258.277V257.048C138.696 277.525 175.248 306.679 246.504 363.496C298.584 405.052 376.584 415.046 466.872 426.62C544.416 436.563 628.344 447.322 708.024 480Z" fill="#222222"/>
<path d="M682.824 480H678.504C605.232 453.404 529.128 443.648 458.352 434.57C367.584 422.933 289.152 412.876 236.568 370.919C186.912 331.319 156.288 308.046 104.04 290.039C76.728 280.635 43.584 272.923 0 266.202V264.985C132.192 285.4 168.696 314.516 238.584 370.229C290.64 411.773 368.64 421.779 458.928 433.353C530.904 442.582 608.328 452.514 682.824 480Z" fill="#222222"/>
<path d="M655.536 480H650.904C583.752 458.407 514.896 449.567 450.456 441.303C359.64 429.666 281.256 419.61 228.648 377.653C178.992 338.053 148.344 314.779 96.096 296.773C70.488 287.945 39.72 280.622 0 274.202V272.973C125.76 293.324 162.192 322.378 230.64 376.963C282.744 418.506 360.696 428.513 451.032 440.087C516.768 448.513 587.088 457.529 655.536 480Z" fill="#222222"/>
<path d="M625.728 480H620.592C560.64 463.185 499.824 455.385 442.512 448.037C351.696 436.388 273.336 426.344 220.704 384.386C171.048 344.787 140.424 321.501 88.152 303.506C64.272 295.281 35.928 288.346 0 282.227V280.998C119.4 301.312 155.736 330.278 222.696 383.697C274.824 425.24 352.8 435.234 443.088 446.821C501.84 454.357 564.24 462.357 625.728 480Z" fill="#222222"/>
<path d="M592.44 480H586.728C535.248 467.674 483.624 461.053 434.592 454.771C343.8 443.122 265.392 433.077 212.784 391.108C163.128 351.52 132.48 328.235 80.256 310.24C58.152 302.616 32.208 296.121 0 290.34V289.111C113.112 309.35 149.304 338.216 214.752 390.418C266.88 431.974 344.856 441.968 435.168 453.554C485.856 460.05 539.28 466.897 592.44 480Z" fill="#222222"/>
<path d="M554.712 480H548.016C506.856 471.787 465.936 466.533 426.672 461.504C335.88 449.855 257.472 439.799 204.84 397.841C155.184 358.242 124.56 334.968 72.312 316.961C52.056 309.977 28.584 303.933 0 298.528V297.312C106.92 317.463 142.944 346.166 206.856 397.152C258.96 438.708 336.936 448.702 427.224 460.275C468.456 465.567 511.44 471.085 554.712 480Z" fill="#222222"/>
<path d="M510.768 480H502.752C474.24 475.348 446.112 471.737 418.728 468.226C327.936 456.589 249.528 446.532 196.896 404.575C147.24 364.975 116.64 341.702 64.392 323.695C46.032 317.375 25.056 311.82 0 306.805V305.576C100.824 325.651 136.608 354.191 198.936 403.885C251.016 445.429 329.016 455.435 419.304 467.009C449.04 470.821 479.736 474.759 510.768 480Z" fill="#222222"/>
<path d="M458.784 480H449.328C436.344 478.232 423.48 476.589 410.784 474.959C320.016 463.323 241.584 453.266 189 411.309C139.344 371.709 108.696 348.436 56.448 330.429C40.056 324.774 21.576 319.745 0 315.181V313.939C94.824 333.927 130.32 362.254 190.992 410.619C243.096 452.163 321.072 462.169 411.384 473.743C426.96 475.737 442.752 477.768 458.784 480Z" fill="#222222"/>
<path d="M399.696 480H389.712C304.536 469.003 231.096 457.956 181.056 418.03C131.4 378.443 100.752 355.157 48.528 337.163C34.176 332.222 18.24 327.745 0 323.645V322.378C88.92 342.279 124.104 370.355 183.072 417.353C234.456 458.319 311.016 468.614 399.696 480Z" fill="#222222"/>
<path d="M341.736 480H332.856C268.536 470.244 213.312 456.814 173.136 424.764C123.48 385.176 92.832 361.89 40.584 343.896C28.368 339.683 14.976 335.808 0 332.222V330.943C83.16 350.73 117.984 378.505 175.128 424.074C216.552 457.128 274.392 470.207 341.736 480Z" fill="#222222"/>
<path d="M292.8 480H285.888C238.2 470.558 196.992 456.853 165.192 431.498C115.536 391.91 84.912 368.625 32.64 350.618C22.632 347.169 11.832 343.947 0 340.925V339.621C77.496 359.283 111.912 386.719 167.184 430.808C199.968 456.94 242.928 470.583 292.8 480Z" fill="#222222"/>
<path d="M253.752 480H248.184C213.024 470.871 182.232 458.144 157.272 438.231C107.616 398.631 76.992 375.358 24.744 357.351C17.016 354.68 8.784 352.16 0 349.752V348.448C71.976 367.935 105.912 394.982 159.288 437.541C185.016 458.056 217.056 470.884 253.752 480Z" fill="#222222"/>
<path d="M221.904 480H217.272C191.592 471.536 168.696 460.413 149.328 444.965C99.696 405.365 69.048 382.092 16.8 364.085C11.448 362.242 5.856 360.448 0 358.743V357.401C66.624 376.712 99.96 403.296 151.344 444.275C171.336 460.2 195.096 471.486 221.904 480Z" fill="#222222"/>
<path d="M194.952 480H190.944C172.632 472.552 156.024 463.36 141.384 451.698C91.728 412.099 61.128 388.813 8.88 370.818C5.976 369.815 3.024 368.85 0 367.884V366.505C61.416 385.615 94.104 411.697 143.424 451.009C158.544 463.059 175.824 472.451 194.952 480Z" fill="#222222"/>
<path d="M171.504 480H167.952C155.496 473.906 144 466.796 133.488 458.42C83.832 418.833 53.184 395.547 0.96 377.552C0.648 377.44 0.336 377.339 0 377.226V375.797C56.4 394.669 88.344 420.162 135.48 457.743C146.4 466.445 158.448 473.768 171.504 480Z" fill="#222222"/>
<path d="M150.648 480H147.384C139.704 475.549 132.384 470.621 125.544 465.154C78.144 427.347 48.072 404.425 0 386.769V385.29C51.552 403.861 82.68 428.676 127.56 464.464C134.784 470.22 142.488 475.373 150.648 480Z" fill="#222222"/>
<path d="M131.736 480H128.688C124.896 477.43 121.2 474.734 117.624 471.887C72.888 436.2 43.584 413.779 0 396.525V394.982C46.92 413.227 77.088 437.278 119.616 471.198C123.504 474.307 127.56 477.229 131.736 480Z" fill="#222222"/>
<path d="M114.36 480H111.48C110.88 479.549 110.28 479.085 109.704 478.621C67.728 445.153 39.336 423.347 0 406.531V404.914C42.504 422.757 71.616 445.968 111.696 477.931C112.56 478.633 113.448 479.311 114.36 480Z" fill="#222222"/>
<path d="M97.896 480H95.016C59.448 451.723 33.288 432.149 0 416.788V415.108C36.288 431.547 63.24 452.388 97.896 480Z" fill="#222222"/>
<path d="M81.504 480H78.624C49.992 457.467 27.024 440.789 0 427.322V425.579C29.496 439.999 53.28 457.667 81.504 480Z" fill="#222222"/>
<path d="M65.04 480H62.016C40.032 462.946 21.024 449.454 0 438.156V436.337C23.016 448.438 42.912 462.746 65.04 480Z" fill="#222222"/>
<path d="M48.36 480H45.336C29.64 468.113 15.192 458.056 0 449.303V447.385C16.752 456.865 32.136 467.636 48.36 480Z" fill="#222222"/>
<path d="M31.44 480H28.392C18.744 472.94 9.456 466.583 0 460.765V458.758C10.728 465.229 20.976 472.288 31.44 480Z" fill="#222222"/>
<path d="M14.184 480H11.04C7.344 477.417 3.672 474.922 0 472.527V470.445C4.776 473.505 9.48 476.69 14.184 480Z" fill="#222222"/>
</g>
<g opacity="0.25">
<path d="M1440 5.81833V7.67418C1435.73 5.26659 1431.6 2.70853 1427.59 0H1430.64C1433.69 2.0314 1436.81 3.96249 1440 5.81833Z" fill="#222222"/>
<path d="M1440 16.9158V18.6713C1429.42 13.2668 1419.53 7.1099 1410.41 0H1413.29C1421.57 6.35753 1430.5 11.9502 1440 16.9158Z" fill="#222222"/>
<path d="M1440 27.5744V29.2672C1425.77 22.6965 1412.66 14.8844 1400.86 5.47977C1398.53 3.61138 1396.22 1.79315 1393.97 0H1396.85C1398.84 1.57998 1400.83 3.1725 1402.87 4.79009C1414.08 13.7433 1426.51 21.2294 1440 27.5744Z" fill="#222222"/>
<path d="M1440 37.8568V39.4995C1422.67 32.2265 1406.88 23.3486 1392.94 12.2135C1387.61 7.96259 1382.47 3.88725 1377.53 0H1380.46C1385.14 3.7117 1389.94 7.54879 1394.93 11.5238C1408.32 22.2075 1423.42 30.797 1440 37.8568Z" fill="#222222"/>
<path d="M1440 47.8132V49.3931C1419.5 41.581 1401.05 31.75 1384.99 18.9472C1376.5 12.1759 1368.58 5.88103 1360.97 0H1363.97C1371.31 5.7431 1378.94 11.8248 1387.01 18.2575C1402.51 30.6089 1420.3 40.1766 1440 47.8132Z" fill="#222222"/>
<path d="M1440 57.4811V59.0235C1416.34 50.7725 1395.17 40.1014 1377.07 25.6684C1365.24 16.2261 1354.49 7.72434 1344.29 0H1347.29C1357.39 7.68672 1367.81 15.9879 1379.09 24.9912C1396.63 38.9853 1417.1 49.3931 1440 57.4811Z" fill="#222222"/>
<path d="M1440 66.9108V68.3905C1413.12 59.8009 1389.26 48.4276 1369.15 32.4021C1353.79 20.151 1340.23 9.45479 1327.3 0H1330.39C1343.3 9.50495 1356.48 20.0256 1371.14 31.7124C1390.68 47.299 1413.89 58.4467 1440 66.9108Z" fill="#222222"/>
<path d="M1440 76.0898V77.5443C1409.86 68.704 1383.29 56.7288 1361.21 39.1358C1342.06 23.8752 1325.76 11.0473 1309.94 0H1313.14C1329.07 11.2229 1345.01 23.9254 1363.22 38.4461C1384.7 55.6002 1410.65 67.3748 1440 76.0898Z" fill="#222222"/>
<path d="M1440 85.0806V86.5226C1406.59 77.4817 1377.26 64.9923 1353.29 45.8695C1330.13 27.3988 1311.12 12.4894 1292.11 0H1295.3C1314.7 12.8028 1333.34 27.6747 1355.28 45.1799C1378.7 63.8637 1407.36 76.1525 1440 85.0806Z" fill="#222222"/>
<path d="M1440 93.9084V95.3128C1403.3 86.1339 1371.19 73.2182 1345.34 52.6033C1317.89 30.6967 1296.24 13.7935 1273.51 0H1276.82C1300.13 14.2574 1321.46 31.261 1347.36 51.9136C1372.68 72.0771 1404.05 84.8173 1440 93.9084Z" fill="#222222"/>
<path d="M1440 102.561V103.953C1399.97 94.6733 1365.12 81.4191 1337.42 59.3244C1305.31 33.7313 1281.17 14.9471 1253.98 0H1257.34C1285.42 15.5615 1309.32 34.6341 1339.44 58.6473C1366.56 80.2905 1400.74 93.3692 1440 102.561Z" fill="#222222"/>
<path d="M1440 111.088V112.454C1396.63 103.087 1359 89.5948 1329.5 66.0582C1292.38 36.4649 1265.88 15.9753 1233.05 0H1236.58C1270.49 16.7152 1296.91 37.7941 1331.5 65.381C1360.44 88.4663 1397.38 101.808 1440 111.088Z" fill="#222222"/>
<path d="M1440 119.489V120.856C1393.3 111.414 1352.86 97.7455 1321.56 72.7919C1279.01 38.8599 1250.42 16.9158 1210.25 0H1214.02C1255.37 17.7058 1284.17 40.6782 1323.58 72.1022C1354.32 96.6169 1394.04 110.147 1440 119.489Z" fill="#222222"/>
<path d="M1440 127.79V129.132C1389.91 119.652 1346.69 105.884 1313.64 79.5256C1265.21 40.9039 1234.87 17.8186 1184.95 0H1189.03C1240.03 18.5459 1271.04 43.2613 1315.63 78.8359C1348.13 104.743 1390.68 118.386 1440 127.79Z" fill="#222222"/>
<path d="M1440 135.991V137.308C1386.55 127.79 1340.5 113.997 1305.7 86.2593C1256.06 46.6595 1225.42 23.3862 1173.17 5.37945C1167.77 3.5236 1162.15 1.73045 1156.27 0H1160.83C1224.5 19.2105 1257.5 45.5184 1307.71 85.5696C1341.94 112.856 1387.32 126.536 1440 135.991Z" fill="#222222"/>
<path d="M1440 144.104V145.433C1383.17 135.853 1334.26 122.097 1297.78 92.993C1248.12 53.3932 1217.5 30.1074 1165.25 12.1132C1152.53 7.72434 1138.54 3.7117 1122.82 0H1128.12C1208.78 19.7247 1243.44 47.3617 1299.79 92.3033C1335.7 120.944 1383.94 134.599 1440 144.104Z" fill="#222222"/>
<path d="M1440 152.142V153.446C1379.78 143.816 1328.04 130.173 1289.86 99.7142C1240.2 60.1269 1209.55 36.8411 1157.3 18.8469C1136.52 11.6868 1112.35 5.50485 1082.78 0H1089.29C1192.9 20.1259 1228.8 48.7411 1291.85 99.0371C1329.46 129.019 1380.53 142.574 1440 152.142Z" fill="#222222"/>
<path d="M1440 160.13V161.434C1376.4 151.703 1321.78 138.223 1281.91 106.448C1232.26 66.8481 1201.63 43.5748 1149.38 25.5681C1119.72 15.3484 1083.14 7.13498 1033.75 0H1042.06C1176.96 20.4519 1213.46 49.5938 1283.93 105.758C1323.19 137.069 1377.14 150.462 1440 160.13Z" fill="#222222"/>
<path d="M1440 168.042V169.346C1372.99 159.515 1315.49 146.273 1273.99 113.182C1224.34 73.5819 1193.69 50.3085 1141.46 32.3018C1102.01 18.709 1050.36 8.6648 972.624 0H983.592C1161.07 20.8532 1197.46 49.8696 1275.98 112.492C1316.88 145.107 1373.74 158.286 1440 168.042Z" fill="#222222"/>
<path d="M1440 175.917V177.221C1369.61 167.252 1309.18 154.299 1266.05 119.915C1216.39 80.3156 1185.77 57.0422 1133.52 39.0355C1083.48 21.7937 1013.86 10.2699 896.208 0H910.392C1145.52 21.5053 1180.75 49.5812 1268.06 119.226C1310.59 153.133 1370.35 166.036 1440 175.917Z" fill="#222222"/>
<path d="M1440 183.767V185.058C1366.22 174.939 1302.86 162.324 1258.13 126.649C1208.47 87.0493 1177.85 63.7634 1125.6 45.7692C1072.51 27.4741 997.344 15.6242 866.208 4.85279C850.944 3.59884 836.424 1.98124 822.624 0H832.152C843.168 1.44204 854.64 2.64584 866.568 3.62392C1134.26 25.5931 1168.54 52.9167 1260.14 125.959C1304.26 161.145 1366.97 173.71 1440 183.767Z" fill="#222222"/>
</g>
</svg>
