<svg width="622" height="504" viewBox="0 0 622 504" fill="none" xmlns="http://www.w3.org/2000/svg">
<path d="M516.228 81.4138H566.014C566.89 81.4138 567.6 82.1959 567.6 83.1601V123.359C567.6 125.065 566.344 126.447 564.795 126.447H545.586C545.363 126.447 545.152 126.548 544.999 126.725L529.033 145.329C528.519 145.928 527.64 145.503 527.64 144.657V127.397C527.64 126.872 527.275 126.446 526.825 126.446H516.228C514.789 126.446 513.622 125.086 513.622 123.409V84.4492C513.622 82.7737 514.789 81.4138 516.228 81.4138Z" fill="#555555"/>
<path d="M541.679 119.117C541.54 119.117 541.399 119.091 541.261 119.039L540.182 118.626C539.454 118.348 538.855 117.744 538.539 116.97L533.499 104.603L522.268 98.1145C521.944 97.9271 521.716 97.5944 521.642 97.1987C521.567 96.8044 521.657 96.3983 521.887 96.0852C522.687 94.9965 523.751 94.2026 524.967 93.7939C526.463 93.2895 528.066 93.4061 529.485 94.1214L537.792 98.3123L547.038 94.9926C548.384 94.5105 549.85 94.8838 550.866 95.9725L551.685 96.8516C551.851 97.0297 551.933 97.276 551.912 97.5302C551.892 97.783 551.771 98.0096 551.58 98.1511L545.874 102.421L550.949 105.232L555.574 103.458C556.026 103.287 556.525 103.365 556.908 103.673L557.68 104.285C557.974 104.518 558.154 104.88 558.176 105.278C558.199 105.676 558.057 106.059 557.791 106.329L554.981 109.064L556.977 111.214C557.158 111.41 557.214 111.705 557.118 111.964C557.021 112.224 556.794 112.393 556.539 112.393H552.289C551.818 112.393 551.354 112.308 550.908 112.139L541.737 108.675L542.924 117.527C542.99 118.012 542.823 118.486 542.48 118.799C542.248 119.007 541.966 119.117 541.679 119.117ZM526.836 94.4659C526.295 94.4659 525.755 94.5537 525.229 94.7319C524.184 95.0843 523.268 95.7655 522.581 96.7022C522.497 96.8162 522.504 96.938 522.515 96.9996C522.527 97.0612 522.563 97.1751 522.682 97.2433L534.049 103.811C534.138 103.862 534.208 103.944 534.249 104.045L539.352 116.568C539.569 117.096 539.977 117.507 540.473 117.699L541.553 118.111C541.727 118.178 541.86 118.085 541.908 118.041C541.955 117.997 542.065 117.874 542.036 117.67L540.742 108.019C540.72 107.85 540.779 107.679 540.899 107.569C541.02 107.46 541.182 107.429 541.329 107.483L551.194 111.209C551.545 111.341 551.913 111.409 552.285 111.409H555.878L554.009 109.397C553.921 109.301 553.873 109.17 553.876 109.034C553.88 108.896 553.934 108.768 554.027 108.679L557.191 105.6C557.277 105.512 557.287 105.397 557.283 105.338C557.28 105.278 557.258 105.165 557.155 105.084L556.383 104.472C556.233 104.354 556.042 104.322 555.863 104.39L551.061 106.232C550.948 106.276 550.823 106.266 550.713 106.207L544.791 102.926C544.65 102.848 544.558 102.693 544.547 102.519C544.536 102.346 544.611 102.178 544.741 102.081L550.945 97.4385L550.238 96.6799C549.462 95.8467 548.341 95.5598 547.311 95.9306L537.9 99.3092C537.791 99.3472 537.678 99.3407 537.576 99.2883L529.111 95.0175C528.392 94.6493 527.616 94.4659 526.836 94.4659Z" fill="white"/>
<path d="M525.861 97.1725C525.772 97.1725 525.681 97.1515 525.595 97.1096L522.934 95.7891C522.859 95.7524 522.825 95.6554 522.859 95.5729C522.893 95.4891 522.982 95.4524 523.056 95.4904L525.718 96.8109C525.822 96.8646 525.943 96.8568 526.041 96.79L526.906 96.169L524.143 94.6061C524.072 94.5642 524.042 94.4659 524.079 94.386C524.117 94.3061 524.207 94.276 524.28 94.3153L527.27 96.0079C527.317 96.0354 527.346 96.0865 527.35 96.1454C527.352 96.2031 527.326 96.2594 527.282 96.2908L526.199 97.069C526.094 97.1371 525.979 97.1725 525.861 97.1725Z" fill="white"/>
<path d="M561.624 97.9692H580.483C583.39 97.9692 585.746 95.3766 585.746 92.1774V71.4234C585.746 68.2242 583.39 65.6316 580.483 65.6316H561.624C558.717 65.6316 556.361 68.2242 556.361 71.4234V92.1774C556.361 95.3753 558.717 97.9692 561.624 97.9692Z" fill="#F8E643"/>
<path d="M564.156 81.8005C564.156 77.6148 567.25 74.21 571.054 74.21C574.857 74.21 577.951 77.6148 577.951 81.8005C577.951 85.9861 574.857 89.391 571.054 89.391C567.25 89.391 564.156 85.9848 564.156 81.8005ZM565.324 81.8005C565.324 85.2774 567.894 88.1045 571.054 88.1045C574.213 88.1045 576.783 85.2761 576.783 81.8005C576.783 78.3236 574.213 75.4951 571.054 75.4951C567.894 75.4951 565.324 78.3236 565.324 81.8005Z" fill="#333333"/>
<path d="M564.677 89.4722C564.524 89.4722 564.372 89.408 564.255 89.2809C564.023 89.0255 564.023 88.6102 564.255 88.3547L577.008 74.32C577.24 74.0646 577.618 74.0646 577.85 74.32C578.082 74.5755 578.082 74.9908 577.85 75.2462L565.097 89.2809C564.981 89.408 564.829 89.4722 564.677 89.4722Z" fill="#333333"/>
<path d="M577.43 89.4722C577.277 89.4722 577.125 89.408 577.008 89.2809L564.255 75.2462C564.023 74.9908 564.023 74.5755 564.255 74.32C564.487 74.0646 564.865 74.0646 565.097 74.32L577.85 88.3547C578.082 88.6102 578.082 89.0255 577.85 89.2809C577.734 89.408 577.582 89.4722 577.43 89.4722Z" fill="#333333"/>
<g opacity="0.51">
<path d="M612.896 193.838C612.896 196.536 614.882 198.722 617.333 198.722C619.784 198.722 621.771 196.536 621.771 193.838C621.771 191.141 619.784 188.954 617.333 188.954C614.882 188.954 612.896 191.141 612.896 193.838Z" fill="#F8E643"/>
<path d="M493.623 47.3143C493.623 48.6636 494.617 49.7562 495.842 49.7562C497.068 49.7562 498.061 48.6636 498.061 47.3143C498.061 45.9649 497.068 44.8723 495.842 44.8723C494.616 44.8723 493.623 45.9662 493.623 47.3143Z" fill="#F8E643"/>
<path d="M574.179 160.476C574.179 161.824 575.173 162.918 576.398 162.918C577.623 162.918 578.617 161.824 578.617 160.476C578.617 159.128 577.623 158.034 576.398 158.034C575.173 158.034 574.179 159.128 574.179 160.476Z" fill="#111111"/>
<path d="M551.873 27.168C551.873 27.8427 552.369 28.389 552.983 28.389C553.596 28.389 554.092 27.8427 554.092 27.168C554.092 26.4933 553.596 25.947 552.983 25.947C552.369 25.947 551.873 26.4933 551.873 27.168Z" fill="#111111"/>
<path d="M592.762 246.865C592.762 247.539 593.258 248.086 593.871 248.086C594.484 248.086 594.981 247.539 594.981 246.865C594.981 246.19 594.484 245.644 593.871 245.644C593.258 245.644 592.762 246.19 592.762 246.865Z" fill="#111111"/>
<path d="M614.935 127.794C614.935 129.142 615.929 130.236 617.154 130.236C618.378 130.236 619.372 129.142 619.372 127.794C619.372 126.445 618.378 125.352 617.154 125.352C615.929 125.352 614.935 126.446 614.935 127.794Z" fill="#555555"/>
<path d="M607.07 72.0403C607.07 73.3884 608.063 74.4823 609.289 74.4823C610.515 74.4823 611.508 73.3884 611.508 72.0403C611.508 70.691 610.514 69.5984 609.289 69.5984C608.063 69.5984 607.07 70.6923 607.07 72.0403Z" fill="#555555"/>
<path d="M557.535 195.275C557.535 195.95 558.032 196.496 558.645 196.496C559.258 196.496 559.754 195.95 559.754 195.275C559.754 194.601 559.258 194.054 558.645 194.054C558.032 194.054 557.535 194.601 557.535 195.275Z" fill="#555555"/>
<path d="M464.221 6.71539C465.906 6.71539 467.272 5.2121 467.272 3.35769C467.272 1.50329 465.906 0 464.221 0C462.536 0 461.17 1.50329 461.17 3.35769C461.17 5.2121 462.536 6.71539 464.221 6.71539Z" fill="#F8E643"/>
</g>
<path d="M106.852 79.4658H46.5602C45.4984 79.4658 44.6377 80.413 44.6377 81.5816V130.265C44.6377 132.331 46.1591 134.005 48.0352 134.005H71.2983C71.5673 134.005 71.8244 134.127 72.009 134.342L91.3437 156.872C91.9663 157.598 93.0305 157.083 93.0305 156.059V135.157C93.0305 134.521 93.4734 134.005 94.0186 134.005H106.851C108.594 134.005 110.008 132.358 110.008 130.326V83.1445C110.008 81.1126 108.595 79.4658 106.852 79.4658Z" fill="#60A2F4"/>
<path d="M76.031 125.021C75.7037 125.021 75.3834 124.896 75.1204 124.658C74.7323 124.303 74.5442 123.763 74.6168 123.214L76.0775 112.324L64.8245 116.575C64.2959 116.775 63.7435 116.876 63.1829 116.876H58.0355C57.7653 116.876 57.5236 116.698 57.4212 116.421C57.3189 116.145 57.3784 115.833 57.5724 115.626L60.0604 112.946L56.5892 109.567C56.2796 109.255 56.1201 108.822 56.1451 108.371C56.1701 107.92 56.3737 107.51 56.7082 107.247L57.6438 106.506C58.0855 106.156 58.6581 106.061 59.1735 106.262L64.8114 108.424L71.1349 104.919L64.0911 99.6474C63.884 99.4928 63.7531 99.2465 63.7305 98.9714C63.7078 98.6963 63.7983 98.4277 63.9781 98.2351L64.9709 97.1701C66.1756 95.8783 67.9172 95.4342 69.5099 96.008L80.7439 100.04L90.8363 94.9482C92.5338 94.0901 94.4527 93.9512 96.2408 94.5552C97.6954 95.0465 98.9692 95.9949 99.9251 97.2971C100.186 97.6535 100.287 98.1146 100.201 98.5614C100.118 99.0081 99.8584 99.3854 99.4906 99.5976L85.8627 107.471L79.7439 122.48C79.3737 123.392 78.669 124.104 77.8107 124.431L76.5025 124.932C76.3489 124.993 76.1894 125.021 76.031 125.021ZM76.6262 111.107C76.7286 111.107 76.8298 111.146 76.9108 111.219C77.031 111.329 77.0893 111.5 77.0679 111.669L75.5013 123.357C75.4739 123.568 75.5418 123.766 75.6906 123.901C75.8394 124.037 76.0299 124.074 76.212 124.004L77.5203 123.504C78.1464 123.263 78.6619 122.744 78.9321 122.078L85.1139 106.913C85.1544 106.812 85.2246 106.73 85.3139 106.679L99.0787 98.7264C99.2073 98.6517 99.3001 98.5181 99.3299 98.3596C99.3585 98.2011 99.3228 98.0386 99.2311 97.9129C98.3883 96.7639 97.2645 95.9268 95.9801 95.4932C94.4039 94.96 92.71 95.0818 91.2101 95.8403L80.9594 101.012C80.857 101.064 80.7427 101.071 80.6344 101.033L69.2349 96.9408C67.9541 96.4823 66.5613 96.8373 65.5946 97.8723L64.6018 98.9373L72.2657 104.575C72.3955 104.673 72.4705 104.839 72.4598 105.013C72.4491 105.188 72.3562 105.342 72.2158 105.421L65.0447 109.394C64.9364 109.455 64.8114 109.464 64.6971 109.419L58.8807 107.189C58.6414 107.098 58.3712 107.14 58.1641 107.303L57.2284 108.045C57.1141 108.135 57.0451 108.275 57.0367 108.43C57.0272 108.585 57.082 108.733 57.1867 108.839L61.0104 112.561C61.1032 112.651 61.158 112.779 61.1615 112.916C61.1651 113.052 61.1163 113.184 61.0282 113.28L58.6009 115.896H63.1841C63.6459 115.896 64.1007 115.812 64.5352 115.649L76.4822 111.135C76.5286 111.116 76.5774 111.107 76.6262 111.107Z" fill="white"/>
<path d="M95.1832 98.5142C95.0498 98.5142 94.9153 98.4749 94.7975 98.3977L93.4821 97.4505C93.438 97.419 93.4118 97.364 93.4142 97.3051C93.4178 97.2461 93.4475 97.1937 93.494 97.1675L97.114 95.1173C97.1866 95.078 97.2771 95.1068 97.3152 95.188C97.3521 95.2692 97.3235 95.3675 97.2509 95.4081L93.857 97.3286L94.9546 98.1186C95.076 98.1985 95.2344 98.209 95.3713 98.1409L98.5937 96.5413C98.6687 96.502 98.7568 96.54 98.7913 96.6238C98.8247 96.7064 98.7913 96.8033 98.7163 96.84L95.4927 98.4396C95.3951 98.4907 95.2891 98.5142 95.1832 98.5142Z" fill="white"/>
<path d="M51.874 99.5137H29.0358C25.5157 99.5137 22.6611 96.3735 22.6611 92.4996V67.3648C22.6611 63.4909 25.5146 60.3494 29.0358 60.3494H51.874C55.394 60.3494 58.2487 63.4896 58.2487 67.3634V92.4983C58.2487 96.3735 55.3952 99.5137 51.874 99.5137Z" fill="#F8E643"/>
<path d="M40.4557 89.1236C35.85 89.1236 32.1025 84.9995 32.1025 79.9322C32.1025 74.8636 35.85 70.7395 40.4557 70.7395C45.0614 70.7395 48.8089 74.8623 48.8089 79.9322C48.8089 85.0009 45.0602 89.1236 40.4557 89.1236ZM40.4557 72.2972C36.6297 72.2972 33.5168 75.723 33.5168 79.9335C33.5168 84.1441 36.6285 87.5686 40.4557 87.5686C44.2817 87.5686 47.3946 84.1441 47.3946 79.9335C47.3934 75.7217 44.2817 72.2972 40.4557 72.2972Z" fill="#333333"/>
<path d="M48.1777 89.0856C48.0253 89.0856 47.8729 89.0214 47.7563 88.8944L32.3118 71.8976C32.0797 71.6421 32.0797 71.2268 32.3118 70.9714C32.5439 70.7159 32.9213 70.7159 33.1534 70.9714L48.5979 87.9681C48.83 88.2236 48.83 88.6389 48.5979 88.8944C48.4812 89.0214 48.3289 89.0856 48.1777 89.0856Z" fill="#333333"/>
<path d="M32.7332 89.0856C32.5808 89.0856 32.4285 89.0214 32.3118 88.8944C32.0797 88.6389 32.0797 88.2236 32.3118 87.9681L47.7563 70.9714C47.9884 70.7159 48.3658 70.7159 48.5979 70.9714C48.83 71.2268 48.83 71.6421 48.5979 71.8976L33.1534 88.8944C33.0379 89.0214 32.8856 89.0856 32.7332 89.0856Z" fill="#333333"/>
<g opacity="0.51">
<path d="M40.3865 197.807C40.3865 200.504 38.3997 202.69 35.9486 202.69C33.4975 202.69 31.5107 200.504 31.5107 197.807C31.5107 195.109 33.4975 192.923 35.9486 192.923C38.3997 192.923 40.3865 195.109 40.3865 197.807Z" fill="#F8E643"/>
<path d="M161.045 55.8626C161.045 57.2107 160.052 58.3046 158.826 58.3046C157.601 58.3046 156.607 57.2107 156.607 55.8626C156.607 54.5132 157.601 53.4207 158.826 53.4207C160.052 53.4207 161.045 54.5132 161.045 55.8626Z" fill="#F8E643"/>
<path d="M66.183 163.313C66.183 164.661 65.189 165.755 63.9641 165.755C62.7379 165.755 61.7451 164.661 61.7451 163.313C61.7451 161.965 62.7391 160.871 63.9641 160.871C65.189 160.871 66.183 161.965 66.183 163.313Z" fill="#111111"/>
<path d="M94.6135 66.0889C94.6135 66.7636 94.1171 67.3099 93.504 67.3099C92.8909 67.3099 92.3945 66.7636 92.3945 66.0889C92.3945 65.4142 92.8909 64.8679 93.504 64.8679C94.1171 64.8666 94.6135 65.4142 94.6135 66.0889Z" fill="#111111"/>
<path d="M47.5978 249.701C47.5978 250.376 47.1014 250.922 46.4884 250.922C45.8753 250.922 45.3789 250.376 45.3789 249.701C45.3789 249.026 45.8753 248.48 46.4884 248.48C47.1014 248.48 47.5978 249.026 47.5978 249.701Z" fill="#111111"/>
<path d="M10.7064 146.829C10.7064 148.177 9.71243 149.271 8.48749 149.271C7.26255 149.271 6.26855 148.177 6.26855 146.829C6.26855 145.48 7.26255 144.387 8.48749 144.387C9.71243 144.387 10.7064 145.48 10.7064 146.829Z" fill="#555555"/>
<path d="M66.7367 24.7261C66.7367 26.0742 65.7427 27.1681 64.5178 27.1681C63.2916 27.1681 62.2988 26.0742 62.2988 24.7261C62.2988 23.3768 63.2928 22.2842 64.5178 22.2842C65.7427 22.2842 66.7367 23.3768 66.7367 24.7261Z" fill="#555555"/>
<path d="M82.8244 198.112C82.8244 198.787 82.328 199.333 81.7149 199.333C81.1019 199.333 80.6055 198.787 80.6055 198.112C80.6055 197.437 81.1019 196.891 81.7149 196.891C82.328 196.891 82.8244 197.437 82.8244 198.112Z" fill="#555555"/>
<path d="M142.739 16.178C144.424 16.178 145.79 14.6747 145.79 12.8203C145.79 10.9659 144.424 9.46265 142.739 9.46265C141.053 9.46265 139.688 10.9659 139.688 12.8203C139.688 14.6747 141.053 16.178 142.739 16.178Z" fill="#F8E643"/>
</g>
<path d="M406.541 503.154H212.76C198.585 503.154 187.094 490.508 187.094 474.907V39.8457C187.094 24.2454 198.585 11.5994 212.76 11.5994H406.541C420.717 11.5994 432.208 24.2454 432.208 39.8457V474.907C432.208 490.506 420.716 503.154 406.541 503.154Z" fill="#353148"/>
<path d="M402.253 496.056H217.048C204.148 496.056 193.69 484.547 193.69 470.351V42.2785C193.69 28.0826 204.148 16.5737 217.048 16.5737H402.253C415.152 16.5737 425.61 28.0826 425.61 42.2785V470.35C425.61 484.547 415.152 496.056 402.253 496.056Z" fill="#423E49"/>
<path opacity="0.89" d="M309.944 39.8443C309.944 39.8443 309.94 39.8443 309.938 39.8443C308.875 39.8443 307.875 39.3883 307.123 38.5617C306.369 37.7311 305.956 36.6294 305.956 35.4608C305.955 34.2935 306.369 33.1931 307.123 32.3625C307.875 31.5345 308.874 31.0786 309.934 31.0786C309.937 31.0786 309.938 31.0786 309.94 31.0786C311.002 31.0786 312.001 31.5345 312.756 32.3612C313.509 33.1918 313.922 34.2935 313.921 35.4634C313.921 36.6333 313.506 37.7337 312.755 38.5617C312.324 39.0372 311.815 39.3884 311.244 39.6045C310.827 39.763 310.39 39.8443 309.944 39.8443ZM309.936 32.3874C309.19 32.3874 308.49 32.707 307.964 33.2874C307.437 33.8691 307.145 34.6407 307.146 35.4595C307.145 36.2796 307.436 37.0525 307.964 37.6355C308.492 38.2145 309.193 38.5342 309.939 38.5342C309.939 38.5342 309.942 38.5342 309.944 38.5342C310.257 38.5342 310.564 38.4765 310.856 38.3652H310.857C311.255 38.2132 311.611 37.9682 311.914 37.6342C312.441 37.0538 312.733 36.2822 312.733 35.4621C312.734 34.642 312.444 33.8704 311.915 33.2874C311.388 32.7083 310.686 32.3887 309.94 32.3887C309.938 32.3874 309.936 32.3874 309.936 32.3874Z" fill="white"/>
<path opacity="0.89" d="M328.64 52.4222H328.637L289.751 52.4196L289.587 52.2729C288.618 51.4082 288.056 50.2868 288.002 49.1169C287.956 48.1134 288.284 47.1728 288.928 46.4667C289.523 45.8116 290.314 45.4487 291.156 45.4487C291.159 45.4487 291.164 45.4487 291.168 45.4487L328.711 45.45C328.712 45.45 328.713 45.45 328.713 45.45C329.56 45.45 330.354 45.8129 330.95 46.4706C331.548 47.1243 331.878 47.9981 331.879 48.9322C331.876 50.4191 331.018 51.7436 329.744 52.2296H329.743C329.412 52.3554 329.066 52.4196 328.713 52.4209L328.64 52.4222ZM290.183 51.1095L328.756 51.1121C328.962 51.1069 329.163 51.0663 329.356 50.9942C330.153 50.6903 330.688 49.8623 330.69 48.9348C330.688 48.3545 330.482 47.8082 330.111 47.4007C329.737 46.9894 329.243 46.7627 328.715 46.7627C328.713 46.7627 328.713 46.7627 328.712 46.7627L291.166 46.7614C291.164 46.7614 291.162 46.7614 291.159 46.7614C290.634 46.7614 290.142 46.9867 289.771 47.3955C289.368 47.837 289.163 48.4239 289.193 49.0527C289.226 49.7837 289.576 50.5082 290.183 51.1095Z" fill="white"/>
<path d="M309.803 471.951C297.38 471.951 287.271 460.827 287.271 447.152C287.271 433.478 297.378 422.354 309.803 422.354C322.228 422.354 332.336 433.478 332.336 447.152C332.336 460.827 322.227 471.951 309.803 471.951ZM309.803 423.666C298.034 423.666 288.461 434.202 288.461 447.154C288.461 460.105 298.034 470.642 309.803 470.642C321.571 470.642 331.146 460.105 331.146 447.154C331.146 434.202 321.571 423.666 309.803 423.666Z" fill="white"/>
<path d="M309.802 465.388C319.12 465.388 326.674 457.075 326.674 446.821C326.674 436.566 319.12 428.253 309.802 428.253C300.484 428.253 292.931 436.566 292.931 446.821C292.931 457.075 300.484 465.388 309.802 465.388Z" fill="#CEDBEA"/>
<path d="M410.753 69.449H208.549V412.711H410.753V69.449Z" fill="white"/>
<path d="M410.753 68.1455H208.549V83.523H410.753V68.1455Z" fill="#555555"/>
<path d="M333.23 281.047H283.409C281.692 281.047 280.293 279.509 280.293 277.618V236.512C280.293 234.622 281.692 233.083 283.409 233.083H333.23C334.947 233.083 336.345 234.621 336.345 236.512V277.618C336.345 279.509 334.947 281.047 333.23 281.047ZM283.409 234.393C282.346 234.393 281.483 235.344 281.483 236.512V277.618C281.483 278.787 282.348 279.737 283.409 279.737H333.23C334.291 279.737 335.155 278.785 335.155 277.618V236.512C335.155 235.344 334.29 234.393 333.23 234.393H283.409Z" fill="#F8E643"/>
<path d="M313.175 251.159H303.464C303.136 251.159 302.869 250.865 302.869 250.504C302.869 250.142 303.136 249.849 303.464 249.849H313.175C313.503 249.849 313.77 250.142 313.77 250.504C313.77 250.867 313.503 251.159 313.175 251.159Z" fill="#F8E643"/>
<path d="M320.49 261.732H296.147C295.818 261.732 295.552 261.439 295.552 261.077C295.552 260.716 295.818 260.422 296.147 260.422H320.49C320.818 260.422 321.085 260.716 321.085 261.077C321.085 261.439 320.82 261.732 320.49 261.732Z" fill="#F8E643"/>
<path d="M272.172 281.047H222.353C220.635 281.047 219.237 279.509 219.237 277.618V236.512C219.237 234.622 220.635 233.083 222.353 233.083H272.172C273.889 233.083 275.288 234.621 275.288 236.512V277.618C275.288 279.509 273.889 281.047 272.172 281.047ZM222.351 234.393C221.29 234.393 220.427 235.344 220.427 236.512V277.618C220.427 278.787 221.291 279.737 222.351 279.737H272.17C273.233 279.737 274.096 278.785 274.096 277.618V236.512C274.096 235.344 273.232 234.393 272.17 234.393H222.351Z" fill="#F8E643"/>
<path d="M252.116 251.159H242.406C242.077 251.159 241.811 250.865 241.811 250.504C241.811 250.142 242.077 249.849 242.406 249.849H252.116C252.445 249.849 252.711 250.142 252.711 250.504C252.711 250.867 252.445 251.159 252.116 251.159Z" fill="#F8E643"/>
<path d="M259.434 261.732H235.091C234.763 261.732 234.496 261.439 234.496 261.077C234.496 260.716 234.763 260.422 235.091 260.422H259.434C259.763 260.422 260.029 260.716 260.029 261.077C260.029 261.439 259.763 261.732 259.434 261.732Z" fill="#F8E643"/>
<path d="M394.334 281.047H344.514C342.796 281.047 341.398 279.509 341.398 277.618V236.512C341.398 234.622 342.796 233.083 344.514 233.083H394.334C396.052 233.083 397.45 234.621 397.45 236.512V277.618C397.45 279.509 396.052 281.047 394.334 281.047ZM344.514 234.393C343.452 234.393 342.589 235.344 342.589 236.512V277.618C342.589 278.787 343.453 279.737 344.514 279.737H394.334C395.397 279.737 396.26 278.785 396.26 277.618V236.512C396.26 235.344 395.396 234.393 394.334 234.393H344.514Z" fill="#F8E643"/>
<path d="M374.279 251.159H364.569C364.24 251.159 363.974 250.865 363.974 250.504C363.974 250.142 364.24 249.849 364.569 249.849H374.279C374.608 249.849 374.874 250.142 374.874 250.504C374.874 250.867 374.608 251.159 374.279 251.159Z" fill="#F8E643"/>
<path d="M381.595 261.732H357.252C356.924 261.732 356.657 261.439 356.657 261.077C356.657 260.716 356.924 260.422 357.252 260.422H381.595C381.924 260.422 382.19 260.716 382.19 261.077C382.19 261.439 381.925 261.732 381.595 261.732Z" fill="#F8E643"/>
<path d="M394.334 281.047H344.514C342.796 281.047 341.398 279.509 341.398 277.618V236.512C341.398 234.622 342.796 233.083 344.514 233.083H394.334C396.052 233.083 397.45 234.621 397.45 236.512V277.618C397.45 279.509 396.052 281.047 394.334 281.047ZM344.514 234.393C343.452 234.393 342.589 235.344 342.589 236.512V277.618C342.589 278.787 343.453 279.737 344.514 279.737H394.334C395.397 279.737 396.26 278.785 396.26 277.618V236.512C396.26 235.344 395.396 234.393 394.334 234.393H344.514Z" fill="#F8E643"/>
<path d="M374.279 251.159H364.569C364.24 251.159 363.974 250.865 363.974 250.504C363.974 250.142 364.24 249.849 364.569 249.849H374.279C374.608 249.849 374.874 250.142 374.874 250.504C374.874 250.867 374.608 251.159 374.279 251.159Z" fill="#F8E643"/>
<path d="M381.595 261.732H357.252C356.924 261.732 356.657 261.439 356.657 261.077C356.657 260.716 356.924 260.422 357.252 260.422H381.595C381.924 260.422 382.19 260.716 382.19 261.077C382.19 261.439 381.925 261.732 381.595 261.732Z" fill="#F8E643"/>
<path d="M393.824 343.653H222.86C220.861 343.653 219.235 341.864 219.235 339.664V293.089C219.235 290.888 220.861 289.098 222.86 289.098H393.824C395.824 289.098 397.45 290.888 397.45 293.089V339.664C397.45 341.864 395.824 343.653 393.824 343.653ZM222.86 290.408C221.517 290.408 220.426 291.611 220.426 293.089V339.664C220.426 341.142 221.517 342.343 222.86 342.343H393.824C395.167 342.343 396.26 341.142 396.26 339.664V293.089C396.26 291.611 395.167 290.408 393.824 290.408H222.86Z" fill="#111111"/>
<path d="M393.824 402.173H222.86C220.861 402.173 219.235 400.383 219.235 398.183V351.608C219.235 349.408 220.861 347.619 222.86 347.619H393.824C395.824 347.619 397.45 349.408 397.45 351.608V398.183C397.45 400.382 395.824 402.173 393.824 402.173ZM222.86 348.929C221.517 348.929 220.426 350.13 220.426 351.608V398.183C220.426 399.661 221.517 400.863 222.86 400.863H393.824C395.167 400.863 396.26 399.661 396.26 398.183V351.608C396.26 350.13 395.167 348.929 393.824 348.929H222.86Z" fill="#111111"/>
<path opacity="0.6" d="M249.486 328.204H228.985V305.643H249.486V328.204ZM230.176 326.894H248.295V306.953H230.176V326.894Z" fill="#111111"/>
<path opacity="0.6" d="M249.486 386.175H228.985V363.615H249.486V386.175ZM230.176 384.865H248.295V364.925H230.176V384.865Z" fill="#111111"/>
<path d="M311.164 225.394H229.259C225.141 225.394 221.771 221.685 221.771 217.152V138.036C221.771 133.503 225.141 129.795 229.259 129.795H311.164C315.283 129.795 318.653 133.503 318.653 138.036V217.152C318.653 221.685 315.283 225.394 311.164 225.394Z" fill="#F8E643"/>
<path d="M266.248 208.298C265.698 208.298 265.16 208.088 264.72 207.687C264.066 207.091 263.751 206.184 263.873 205.261L266.613 184.847L245.583 192.79C244.633 193.149 243.642 193.331 242.637 193.331H233.178C232.774 193.331 232.412 193.064 232.261 192.652C232.108 192.238 232.196 191.771 232.487 191.459L237.231 186.346L230.67 179.962C230.156 179.443 229.889 178.719 229.93 177.964C229.97 177.21 230.313 176.525 230.87 176.083L232.589 174.721C233.344 174.123 234.316 173.967 235.196 174.304L245.647 178.312L257.694 171.637L244.433 161.713C244.109 161.469 243.903 161.083 243.867 160.652C243.834 160.221 243.976 159.802 244.256 159.499L246.08 157.543C248.231 155.237 251.339 154.442 254.195 155.465L274.922 162.907L293.548 153.508C296.617 151.96 300.091 151.708 303.318 152.798C305.946 153.686 308.251 155.4 309.981 157.757C310.417 158.353 310.588 159.123 310.447 159.871C310.306 160.62 309.872 161.253 309.257 161.61L284.144 176.117L272.868 203.778C272.211 205.391 270.963 206.65 269.446 207.231L267.043 208.151C266.783 208.249 266.515 208.298 266.248 208.298ZM267.343 183.223C267.48 183.223 267.616 183.274 267.723 183.374C267.884 183.52 267.962 183.747 267.933 183.974L265.052 205.452C264.989 205.919 265.148 206.377 265.478 206.678C265.808 206.978 266.245 207.067 266.653 206.912L269.056 205.992C270.266 205.528 271.261 204.526 271.784 203.239L283.143 175.372C283.197 175.238 283.29 175.128 283.409 175.06L308.704 160.446C309.003 160.275 309.214 159.967 309.282 159.603C309.351 159.24 309.268 158.865 309.057 158.577C307.476 156.424 305.371 154.859 302.971 154.048C300.02 153.052 296.85 153.283 294.046 154.696L275.208 164.202C275.074 164.27 274.92 164.279 274.776 164.23L253.829 156.71C251.398 155.836 248.746 156.515 246.912 158.48L245.089 160.436L244.77 161.169L245.104 160.627L259.202 171.177C259.377 171.308 259.476 171.531 259.462 171.761C259.447 171.993 259.324 172.199 259.135 172.304L245.959 179.605C245.814 179.685 245.644 179.695 245.496 179.637L234.807 175.539C234.294 175.342 233.727 175.435 233.288 175.783L231.569 177.146C231.304 177.355 231.142 177.681 231.121 178.04C231.102 178.399 231.23 178.744 231.47 178.988L238.501 185.83C238.626 185.951 238.697 186.122 238.702 186.304C238.706 186.486 238.641 186.662 238.523 186.789L233.67 192.02H242.641C243.512 192.02 244.374 191.862 245.199 191.55L267.153 183.257C267.214 183.235 267.278 183.223 267.343 183.223Z" fill="white"/>
<path d="M314.502 111.286H225.463C224.166 111.286 223.11 110.125 223.11 108.697V100.659C223.11 99.2321 224.166 98.0701 225.463 98.0701H314.502C315.799 98.0701 316.855 99.2308 316.855 100.659V108.697C316.855 110.124 315.799 111.286 314.502 111.286ZM225.463 99.3801C224.822 99.3801 224.301 99.9539 224.301 100.659V108.697C224.301 109.402 224.822 109.976 225.463 109.976H314.502C315.143 109.976 315.664 109.402 315.664 108.697V100.659C315.664 99.9539 315.143 99.3801 314.502 99.3801H225.463Z" fill="#4D67C2"/>
<path d="M399.471 119.133H223.891V120.443H399.471V119.133Z" fill="#4D67C2"/>
<path d="M395.703 174.017H328.345C326.953 174.017 325.823 172.775 325.823 171.242V134.009C325.823 132.478 326.952 131.234 328.345 131.234H395.703C397.095 131.234 398.224 132.476 398.224 134.009V171.242C398.224 172.775 397.096 174.017 395.703 174.017Z" fill="#555555"/>
<path d="M371.474 147.264H354.821C354.492 147.264 354.226 146.971 354.226 146.609C354.226 146.248 354.492 145.954 354.821 145.954H371.474C371.802 145.954 372.069 146.248 372.069 146.609C372.069 146.972 371.802 147.264 371.474 147.264Z" fill="white"/>
<path d="M384.02 156.96H342.275C341.946 156.96 341.68 156.667 341.68 156.305C341.68 155.944 341.946 155.65 342.275 155.65H384.02C384.349 155.65 384.616 155.944 384.616 156.305C384.616 156.667 384.349 156.96 384.02 156.96Z" fill="white"/>
<path d="M395.703 223.335H328.345C326.953 223.335 325.823 222.093 325.823 220.56V183.326C325.823 181.795 326.952 180.552 328.345 180.552H395.703C397.095 180.552 398.224 181.794 398.224 183.326V220.56C398.224 222.093 397.096 223.335 395.703 223.335Z" fill="#111111"/>
<path d="M371.474 196.582H354.821C354.492 196.582 354.226 196.288 354.226 195.927C354.226 195.565 354.492 195.272 354.821 195.272H371.474C371.802 195.272 372.069 195.565 372.069 195.927C372.069 196.288 371.802 196.582 371.474 196.582Z" fill="white"/>
<path d="M384.02 206.278H342.275C341.946 206.278 341.68 205.984 341.68 205.623C341.68 205.261 341.946 204.968 342.275 204.968H384.02C384.349 204.968 384.616 205.261 384.616 205.623C384.616 205.985 384.349 206.278 384.02 206.278Z" fill="white"/>
<path d="M269.467 322.124V309.694H276.109C277.826 309.694 279.092 310.001 279.909 310.617C280.726 311.221 281.135 311.996 281.135 312.943C281.135 313.571 280.957 314.133 280.602 314.63C280.258 315.116 279.755 315.501 279.092 315.785C278.429 316.069 277.612 316.211 276.642 316.211L276.997 315.252C277.968 315.252 278.802 315.388 279.501 315.66C280.211 315.933 280.756 316.329 281.135 316.85C281.525 317.359 281.721 317.975 281.721 318.697C281.721 319.774 281.271 320.615 280.371 321.219C279.483 321.822 278.181 322.124 276.464 322.124H269.467ZM273.587 319.194H276.109C276.571 319.194 276.914 319.111 277.139 318.946C277.376 318.78 277.494 318.537 277.494 318.218C277.494 317.898 277.376 317.655 277.139 317.489C276.914 317.324 276.571 317.241 276.109 317.241H273.303V314.471H275.541C276.014 314.471 276.358 314.394 276.571 314.24C276.796 314.074 276.908 313.843 276.908 313.547C276.908 313.239 276.796 313.008 276.571 312.855C276.358 312.701 276.014 312.624 275.541 312.624H273.587V319.194ZM289.737 322.409C288.719 322.409 287.778 322.249 286.914 321.929C286.061 321.609 285.321 321.16 284.694 320.579C284.067 319.987 283.575 319.295 283.22 318.502C282.877 317.708 282.705 316.844 282.705 315.909C282.705 314.962 282.877 314.098 283.22 313.316C283.575 312.523 284.067 311.836 284.694 311.256C285.321 310.664 286.061 310.209 286.914 309.889C287.778 309.569 288.713 309.409 289.72 309.409C290.738 309.409 291.673 309.569 292.525 309.889C293.378 310.209 294.118 310.664 294.745 311.256C295.373 311.836 295.858 312.523 296.201 313.316C296.557 314.098 296.734 314.962 296.734 315.909C296.734 316.844 296.557 317.708 296.201 318.502C295.858 319.295 295.373 319.987 294.745 320.579C294.118 321.16 293.378 321.609 292.525 321.929C291.673 322.249 290.744 322.409 289.737 322.409ZM289.72 319.017C290.11 319.017 290.471 318.946 290.803 318.804C291.146 318.662 291.442 318.46 291.691 318.2C291.951 317.927 292.153 317.602 292.295 317.223C292.437 316.832 292.508 316.394 292.508 315.909C292.508 315.424 292.437 314.991 292.295 314.613C292.153 314.222 291.951 313.896 291.691 313.636C291.442 313.364 291.146 313.156 290.803 313.014C290.471 312.872 290.11 312.801 289.72 312.801C289.329 312.801 288.962 312.872 288.619 313.014C288.287 313.156 287.991 313.364 287.731 313.636C287.482 313.896 287.287 314.222 287.145 314.613C287.003 314.991 286.932 315.424 286.932 315.909C286.932 316.394 287.003 316.832 287.145 317.223C287.287 317.602 287.482 317.927 287.731 318.2C287.991 318.46 288.287 318.662 288.619 318.804C288.962 318.946 289.329 319.017 289.72 319.017ZM304.79 322.409C303.772 322.409 302.831 322.249 301.967 321.929C301.114 321.609 300.374 321.16 299.747 320.579C299.12 319.987 298.628 319.295 298.273 318.502C297.93 317.708 297.758 316.844 297.758 315.909C297.758 314.962 297.93 314.098 298.273 313.316C298.628 312.523 299.12 311.836 299.747 311.256C300.374 310.664 301.114 310.209 301.967 309.889C302.831 309.569 303.766 309.409 304.773 309.409C305.791 309.409 306.726 309.569 307.578 309.889C308.431 310.209 309.171 310.664 309.798 311.256C310.426 311.836 310.911 312.523 311.254 313.316C311.61 314.098 311.787 314.962 311.787 315.909C311.787 316.844 311.61 317.708 311.254 318.502C310.911 319.295 310.426 319.987 309.798 320.579C309.171 321.16 308.431 321.609 307.578 321.929C306.726 322.249 305.797 322.409 304.79 322.409ZM304.773 319.017C305.163 319.017 305.524 318.946 305.856 318.804C306.199 318.662 306.495 318.46 306.744 318.2C307.004 317.927 307.205 317.602 307.348 317.223C307.49 316.832 307.561 316.394 307.561 315.909C307.561 315.424 307.49 314.991 307.348 314.613C307.205 314.222 307.004 313.896 306.744 313.636C306.495 313.364 306.199 313.156 305.856 313.014C305.524 312.872 305.163 312.801 304.773 312.801C304.382 312.801 304.015 312.872 303.672 313.014C303.34 313.156 303.044 313.364 302.784 313.636C302.535 313.896 302.34 314.222 302.198 314.613C302.056 314.991 301.985 315.424 301.985 315.909C301.985 316.394 302.056 316.832 302.198 317.223C302.34 317.602 302.535 317.927 302.784 318.2C303.044 318.46 303.34 318.662 303.672 318.804C304.015 318.946 304.382 319.017 304.773 319.017ZM317.055 319.461L316.824 314.861L321.513 309.694H326.077L320.82 315.483L318.494 317.862L317.055 319.461ZM313.308 322.124V309.694H317.428V322.124H313.308ZM321.477 322.124L317.819 317.294L320.536 314.417L326.325 322.124H321.477ZM330.723 314.311H336.264V317.33H330.723V314.311ZM331.007 318.963H337.223V322.124H326.887V309.694H336.992V312.855H331.007V318.963ZM338.836 322.124V309.694H344.963C346.348 309.694 347.567 309.948 348.621 310.457C349.674 310.954 350.497 311.665 351.089 312.588C351.681 313.512 351.977 314.613 351.977 315.891C351.977 317.182 351.681 318.295 351.089 319.23C350.497 320.153 349.674 320.869 348.621 321.379C347.567 321.876 346.348 322.124 344.963 322.124H338.836ZM343.027 318.857H344.785C345.377 318.857 345.892 318.744 346.33 318.519C346.78 318.295 347.129 317.963 347.378 317.525C347.626 317.075 347.751 316.531 347.751 315.891C347.751 315.264 347.626 314.731 347.378 314.293C347.129 313.855 346.78 313.523 346.33 313.298C345.892 313.074 345.377 312.961 344.785 312.961H343.027V318.857Z" fill="#344B7E"/>
<path d="M386.964 335.138H259.422C257.66 335.138 256.226 333.561 256.226 331.62V300.822C256.226 298.883 257.659 297.305 259.422 297.305H386.966C388.727 297.305 390.162 298.882 390.162 300.822V331.62C390.161 333.561 388.727 335.138 386.964 335.138ZM259.422 298.616C258.316 298.616 257.416 299.606 257.416 300.823V331.622C257.416 332.839 258.316 333.829 259.422 333.829H386.966C388.071 333.829 388.971 332.839 388.971 331.622V300.823C388.971 299.606 388.071 298.616 386.966 298.616H259.422Z" fill="#344B7E"/>
<path d="M275.526 381.33C274.531 381.33 273.608 381.176 272.755 380.869C271.915 380.549 271.181 380.099 270.553 379.519C269.938 378.939 269.458 378.252 269.115 377.459C268.772 376.666 268.6 375.79 268.6 374.831C268.6 373.872 268.772 372.996 269.115 372.203C269.458 371.409 269.938 370.723 270.553 370.143C271.181 369.563 271.915 369.119 272.755 368.811C273.608 368.491 274.531 368.331 275.526 368.331C276.745 368.331 277.822 368.544 278.758 368.971C279.705 369.397 280.486 370.012 281.102 370.817L278.456 373.179C278.089 372.718 277.68 372.362 277.231 372.114C276.792 371.853 276.295 371.723 275.739 371.723C275.301 371.723 274.904 371.794 274.549 371.936C274.194 372.078 273.886 372.285 273.626 372.558C273.377 372.83 273.182 373.162 273.04 373.552C272.897 373.931 272.826 374.357 272.826 374.831C272.826 375.304 272.897 375.737 273.04 376.127C273.182 376.506 273.377 376.832 273.626 377.104C273.886 377.376 274.194 377.583 274.549 377.725C274.904 377.868 275.301 377.939 275.739 377.939C276.295 377.939 276.792 377.814 277.231 377.566C277.68 377.305 278.089 376.944 278.456 376.482L281.102 378.844C280.486 379.637 279.705 380.253 278.758 380.691C277.822 381.117 276.745 381.33 275.526 381.33ZM280.789 381.046L286.223 368.615H290.343L295.777 381.046H291.444L287.43 370.604H289.064L285.051 381.046H280.789ZM284.021 378.88L285.086 375.861H290.805L291.87 378.88H284.021ZM296.446 381.046V368.615H299.891L306.213 376.18H304.615V368.615H308.699V381.046H305.254L298.932 373.481H300.53V381.046H296.446ZM317.147 381.33C316.152 381.33 315.229 381.176 314.377 380.869C313.536 380.549 312.802 380.099 312.175 379.519C311.559 378.939 311.079 378.252 310.736 377.459C310.393 376.666 310.221 375.79 310.221 374.831C310.221 373.872 310.393 372.996 310.736 372.203C311.079 371.409 311.559 370.723 312.175 370.143C312.802 369.563 313.536 369.119 314.377 368.811C315.229 368.491 316.152 368.331 317.147 368.331C318.366 368.331 319.444 368.544 320.379 368.971C321.326 369.397 322.107 370.012 322.723 370.817L320.077 373.179C319.71 372.718 319.302 372.362 318.852 372.114C318.414 371.853 317.916 371.723 317.36 371.723C316.922 371.723 316.525 371.794 316.17 371.936C315.815 372.078 315.507 372.285 315.247 372.558C314.998 372.83 314.803 373.162 314.661 373.552C314.519 373.931 314.448 374.357 314.448 374.831C314.448 375.304 314.519 375.737 314.661 376.127C314.803 376.506 314.998 376.832 315.247 377.104C315.507 377.376 315.815 377.583 316.17 377.725C316.525 377.868 316.922 377.939 317.36 377.939C317.916 377.939 318.414 377.814 318.852 377.566C319.302 377.305 319.71 376.944 320.077 376.482L322.723 378.844C322.107 379.637 321.326 380.253 320.379 380.691C319.444 381.117 318.366 381.33 317.147 381.33ZM327.769 373.233H333.309V376.252H327.769V373.233ZM328.053 377.885H334.268V381.046H323.933V368.615H334.038V371.776H328.053V377.885ZM335.882 381.046V368.615H340.073V377.796H345.684V381.046H335.882ZM350.678 373.233H356.218V376.252H350.678V373.233ZM350.962 377.885H357.177V381.046H346.842V368.615H356.947V371.776H350.962V377.885ZM358.791 381.046V368.615H364.917C366.303 368.615 367.522 368.87 368.576 369.379C369.629 369.876 370.452 370.587 371.044 371.51C371.636 372.433 371.932 373.534 371.932 374.813C371.932 376.104 371.636 377.216 371.044 378.152C370.452 379.075 369.629 379.791 368.576 380.3C367.522 380.798 366.303 381.046 364.917 381.046H358.791ZM362.982 377.779H364.74C365.332 377.779 365.847 377.666 366.285 377.441C366.735 377.216 367.084 376.885 367.333 376.447C367.581 375.997 367.705 375.452 367.705 374.813C367.705 374.186 367.581 373.653 367.333 373.215C367.084 372.777 366.735 372.445 366.285 372.22C365.847 371.995 365.332 371.883 364.74 371.883H362.982V377.779Z" fill="#344B7E"/>
<path d="M386.964 394.357H259.422C257.66 394.357 256.226 392.779 256.226 390.84V360.042C256.226 358.103 257.659 356.525 259.422 356.525H386.966C388.727 356.525 390.162 358.102 390.162 360.042V390.84C390.161 392.779 388.727 394.357 386.964 394.357ZM259.422 357.836C258.316 357.836 257.416 358.826 257.416 360.043V390.842C257.416 392.059 258.316 393.048 259.422 393.048H386.966C388.071 393.048 388.971 392.059 388.971 390.842V360.043C388.971 358.826 388.071 357.836 386.966 357.836H259.422Z" fill="#344B7E"/>
<path d="M58.4766 334.087L72.1128 275.203L69.0415 274.039L55.4053 332.923L58.4766 334.087Z" fill="#323233"/>
<path d="M87.7744 343.928L101.412 285.045L98.3406 283.88L84.7031 342.765L87.7744 343.928Z" fill="#323233"/>
<path d="M102.873 288.042L64.9368 277.946C62.9678 277.422 61.7584 275.241 62.2345 273.075L62.3428 272.582C62.819 270.416 64.7999 269.085 66.7688 269.609L104.706 279.705C106.675 280.229 107.885 282.409 107.408 284.576L107.3 285.069C106.824 287.234 104.842 288.567 102.873 288.042Z" fill="#141C34"/>
<path d="M57.9397 489.245L5.18155 472.971C1.57578 471.859 -0.528876 467.74 0.481788 463.772L34.3968 330.612C35.4074 326.644 39.1501 324.327 42.7559 325.44L95.514 341.713C99.1198 342.825 101.224 346.944 100.214 350.912L66.2988 484.073C65.2893 488.042 61.5466 490.357 57.9397 489.245Z" fill="#344B7E"/>
<path opacity="0.49" d="M70.547 465.421L18.9698 449.955C14.9259 448.706 12.5594 444.075 13.6927 439.629L40.8818 332.878C41.4306 330.723 42.7079 328.933 44.4792 327.837C46.2506 326.74 48.3029 326.468 50.2611 327.074L49.9409 328.336C48.2898 327.826 46.5577 328.054 45.0625 328.979C43.5674 329.904 42.4901 331.413 42.027 333.23L14.8379 439.981C14.3748 441.799 14.5819 443.706 15.4223 445.35C16.2628 446.995 17.6341 448.182 19.2852 448.692L70.8589 464.157L70.547 465.421Z" fill="white"/>
<path opacity="0.49" d="M51.8908 488.624L6.36328 474.069L7.30133 470.51C8.10963 467.457 11.025 465.696 13.7963 466.579L49.26 477.917C50.604 478.346 51.7158 479.326 52.3896 480.676C53.0634 482.026 53.2205 483.585 52.83 485.064L51.8908 488.624ZM7.83702 473.176L51.0789 486.999L51.686 484.699C51.9884 483.556 51.867 482.351 51.3468 481.308C50.8254 480.264 49.9671 479.507 48.9278 479.176L13.4641 467.838C11.3154 467.152 9.0691 468.517 8.44532 470.875L7.83702 473.176Z" fill="white"/>
<path d="M60.5256 488.684C61.547 495.224 57.5567 501.436 51.6141 502.56C45.6716 503.684 40.0266 499.293 39.0052 492.753C37.9838 486.213 41.9741 480.001 47.9167 478.877C53.8593 477.753 59.5054 482.144 60.5256 488.684Z" fill="#434343"/>
<path opacity="0.27" d="M55.7569 489.585C56.3259 493.227 54.1034 496.686 50.7952 497.311C47.4871 497.936 44.3432 495.491 43.7741 491.85C43.2063 488.208 45.4276 484.75 48.7358 484.125C52.044 483.5 55.1891 485.945 55.7569 489.585Z" fill="#A2D5F2"/>
<path opacity="0.49" d="M58.5488 446.524C58.3345 446.524 58.1203 446.491 57.9096 446.424L55.9835 445.808C55.4002 445.621 54.9169 445.195 54.624 444.61C54.3312 444.023 54.2621 443.345 54.4324 442.703L76.9491 357.4C77.1193 356.758 77.5062 356.226 78.0383 355.904C78.5693 355.583 79.1859 355.508 79.7704 355.693L81.6953 356.309C82.2786 356.496 82.7619 356.922 83.0547 357.507C83.3476 358.094 83.4166 358.772 83.2464 359.413L60.7297 444.717C60.5594 445.359 60.1737 445.891 59.6416 446.213C59.3012 446.419 58.9274 446.524 58.5488 446.524ZM79.1335 356.903C78.9538 356.903 78.774 356.953 78.6121 357.051C78.3574 357.205 78.1728 357.459 78.0931 357.765L55.5764 443.069C55.4954 443.375 55.5275 443.698 55.6668 443.977C55.8061 444.257 56.037 444.46 56.3156 444.549L58.2417 445.165C58.5167 445.251 58.8131 445.219 59.0666 445.065C59.3214 444.912 59.5047 444.659 59.5845 444.353L82.1012 359.048C82.1822 358.741 82.15 358.419 82.0107 358.14C81.8715 357.86 81.6405 357.657 81.362 357.568L79.4371 356.952C79.3383 356.92 79.2359 356.903 79.1335 356.903Z" fill="white"/>
<path opacity="0.49" d="M39.4042 440.404C39.1935 440.404 38.9816 440.373 38.7697 440.305L36.8448 439.689C36.2615 439.502 35.7782 439.076 35.4853 438.49C35.1925 437.905 35.1235 437.227 35.2937 436.585L57.8104 351.281C58.1616 349.956 59.4223 349.192 60.6305 349.574L62.5566 350.191C63.1399 350.378 63.6221 350.802 63.9161 351.388C64.2089 351.974 64.278 352.651 64.1077 353.294L41.591 438.598C41.3017 439.692 40.3911 440.404 39.4042 440.404ZM59.9972 350.785C59.527 350.785 59.0913 351.125 58.9544 351.646L36.4377 436.951C36.3567 437.256 36.3889 437.58 36.5282 437.858C36.6674 438.138 36.8984 438.341 37.1769 438.43L39.1018 439.046C39.378 439.134 39.6732 439.1 39.9268 438.946C40.1815 438.793 40.3661 438.54 40.4458 438.232L62.9626 352.929C63.0435 352.622 63.0114 352.3 62.8721 352.021C62.7328 351.74 62.5019 351.539 62.2245 351.45L60.2972 350.833C60.1984 350.801 60.0972 350.785 59.9972 350.785Z" fill="white"/>
<path d="M192.324 159.145C191.34 157.387 190.107 155.756 189.704 153.623C189.083 150.344 190.592 147.122 191.381 143.913C192.66 138.716 191.969 132.708 189.583 128.263C187.417 124.233 184.123 121.667 181.148 118.691C180.532 118.067 180.957 114.35 180.896 113.432C180.676 110.087 180.337 106.701 179.51 103.458C178.184 98.2535 175.512 94.2565 171.006 91.8277C166.619 89.463 161.621 88.6534 156.76 88.5394C152.818 88.4464 148.839 88.7713 145.045 89.9294C141.252 91.0875 137.639 93.1089 134.844 96.1024C130.358 100.906 129.013 107.311 128.915 113.897C128.903 114.728 129.384 118.393 128.951 118.829C125.989 121.82 120.084 124.41 117.937 128.452C115.57 132.91 114.905 138.921 116.206 144.111C117.01 147.315 118.532 150.529 117.927 153.812C117.533 155.946 116.308 157.585 115.33 159.347C114.353 161.11 113.573 163.44 114.221 165.458C115.824 170.467 124.868 169.068 128.02 169.193C134.846 169.467 141.675 169.61 148.505 169.623C150.287 169.627 152.069 169.597 153.85 169.583C155.632 169.588 157.414 169.607 159.195 169.594C166.024 169.545 172.852 169.365 179.678 169.056C182.829 168.913 191.879 170.264 193.461 165.248C194.098 163.227 193.309 160.903 192.324 159.145Z" fill="#1F2326"/>
<path d="M174.814 112.263L172.674 112.245C171.736 112.237 170.863 111.731 170.35 110.9L168.643 108.131C167.885 108.125 168.026 112.169 167.287 112.093C163.065 111.659 159.217 110.108 156.064 107.787C156.184 115.449 153.183 121.7 148.842 122.23L143.948 122.829C143.436 122.892 142.975 122.486 142.919 121.924L142.513 117.903C142.479 117.563 142.461 117.227 142.44 116.89L140.987 116.892L138.202 116.835C134.903 116.77 132.154 119.685 132.095 123.315C132.034 126.945 134.684 129.969 137.983 130.036L139.15 130.059V157.42C139.15 163.175 143.429 167.885 148.658 167.885H152.537C157.766 167.885 162.046 163.176 162.046 157.42V149.696C165.724 148.715 168.876 146.245 170.932 142.876C173.133 140.088 174.494 136.471 174.561 132.489L174.872 113.673C174.878 113.196 174.843 112.731 174.814 112.263Z" fill="#E9B98A"/>
<path opacity="0.41" d="M142.11 131.837C141.96 140.844 148.474 148.278 156.658 148.443L159.468 148.5C164.025 148.591 168.135 146.405 170.912 142.898C168.769 146.393 165.445 148.932 161.575 149.819C161.565 149.852 161.561 149.884 161.551 149.916C160.162 154.635 155.56 157.22 151.272 155.691C147.452 154.328 145.179 150.16 145.709 145.931C142.577 142.851 140.628 138.353 140.712 133.369L140.766 130.092L142.139 130.12L142.11 131.837Z" fill="#FF755F"/>
<path d="M136.24 125.238C136.322 125.238 136.405 125.218 136.481 125.177L138.999 123.815C139.144 123.737 139.25 123.594 139.289 123.422C139.33 123.251 139.299 123.069 139.207 122.925L137.053 119.537C136.878 119.262 136.536 119.195 136.286 119.387C136.036 119.579 135.977 119.957 136.15 120.231L137.937 123.04L135.998 124.089C135.724 124.237 135.612 124.599 135.746 124.9C135.841 125.114 136.036 125.238 136.24 125.238Z" fill="#FF755F"/>
<path d="M138.535 127.649C138.472 128.251 137.976 128.685 137.429 128.615C136.881 128.546 136.488 128.001 136.55 127.398C136.613 126.796 137.109 126.362 137.656 126.432C138.204 126.501 138.598 127.046 138.535 127.649Z" fill="white"/>
<mask id="mask0_1296_63730" style="mask-type:luminance" maskUnits="userSpaceOnUse" x="167" y="122" width="8" height="6">
<path d="M174.166 125.853C174.033 124.756 173.498 123.128 171.514 122.79C171.187 122.733 170.883 122.737 170.597 122.779C169.273 122.972 168.374 124.084 167.838 125.038C167.442 125.743 167.807 126.681 168.548 126.839C170.57 127.271 172.589 127.106 173.575 126.977C173.947 126.928 174.223 126.567 174.196 126.155C174.189 126.06 174.179 125.959 174.166 125.853Z" fill="white"/>
</mask>
<g mask="url(#mask0_1296_63730)">
<path d="M174.166 125.853C174.033 124.756 173.498 123.128 171.514 122.79C171.187 122.733 170.883 122.737 170.597 122.779C169.273 122.972 168.374 124.084 167.838 125.038C167.442 125.743 167.807 126.681 168.548 126.839C170.57 127.271 172.589 127.106 173.575 126.977C173.947 126.928 174.223 126.567 174.196 126.155C174.189 126.06 174.179 125.959 174.166 125.853Z" fill="white"/>
</g>
<mask id="mask1_1296_63730" style="mask-type:luminance" maskUnits="userSpaceOnUse" x="167" y="122" width="8" height="6">
<path d="M174.166 125.853C174.033 124.756 173.498 123.128 171.514 122.79C171.187 122.733 170.883 122.737 170.597 122.779C169.273 122.972 168.374 124.084 167.838 125.038C167.442 125.743 167.807 126.681 168.548 126.839C170.57 127.271 172.589 127.106 173.575 126.977C173.947 126.928 174.223 126.567 174.196 126.155C174.189 126.06 174.179 125.959 174.166 125.853Z" fill="white"/>
</mask>
<g mask="url(#mask1_1296_63730)">
<path d="M173.909 126.206C173.909 127.383 172.955 128.336 171.779 128.336C170.603 128.336 169.649 127.383 169.649 126.206C169.649 125.03 170.603 124.076 171.779 124.076C172.955 124.076 173.909 125.029 173.909 126.206Z" fill="#1F2326"/>
</g>
<path d="M167.019 120.096L166.967 124.657C166.959 125.443 167.616 126.111 168.46 126.174C169.064 126.218 169.526 126.708 169.491 127.269C169.384 129.031 167.759 130.345 165.863 130.206L164.371 130.096" fill="#E9B98A"/>
<path d="M166.142 130.82C167.074 130.82 167.965 130.513 168.674 129.937C169.493 129.275 169.979 128.342 170.041 127.308C170.095 126.416 169.404 125.635 168.498 125.568C167.951 125.528 167.512 125.122 167.517 124.663L167.568 120.103C167.572 119.767 167.329 119.494 167.025 119.49C167.022 119.49 167.021 119.49 167.018 119.49C166.717 119.49 166.472 119.757 166.468 120.087L166.417 124.647C166.405 125.757 167.287 126.692 168.424 126.776C168.713 126.799 168.956 127.008 168.943 127.227C168.903 127.898 168.576 128.515 168.023 128.96C167.442 129.43 166.68 129.653 165.902 129.6L164.411 129.489C164.084 129.471 163.845 129.72 163.825 130.053C163.805 130.387 164.035 130.675 164.337 130.697L165.828 130.807C165.931 130.817 166.036 130.82 166.142 130.82Z" fill="#FF755F"/>
<path d="M161.586 135.943C161.586 135.943 160.987 131.126 155.792 132.151L161.586 135.943Z" fill="#E9B98A"/>
<path d="M161.586 136.433C161.365 136.433 161.175 136.254 161.144 136.009C161.142 135.992 160.908 134.3 159.63 133.283C158.701 132.544 157.436 132.326 155.872 132.633C155.622 132.684 155.397 132.502 155.353 132.236C155.31 131.969 155.47 131.714 155.713 131.665C157.532 131.308 159.029 131.585 160.163 132.493C161.75 133.763 162.018 135.787 162.027 135.873C162.061 136.142 161.892 136.388 161.648 136.425C161.626 136.431 161.606 136.433 161.586 136.433Z" fill="#FF755F"/>
<mask id="mask2_1296_63730" style="mask-type:luminance" maskUnits="userSpaceOnUse" x="156" y="121" width="9" height="6">
<path d="M163.997 124.857C163.834 123.517 163.18 121.527 160.755 121.114C160.355 121.046 159.985 121.05 159.635 121.101C158.015 121.335 156.917 122.697 156.263 123.86C155.778 124.722 156.226 125.868 157.129 126.061C159.601 126.589 162.07 126.387 163.273 126.229C163.728 126.168 164.066 125.727 164.033 125.224C164.025 125.11 164.012 124.985 163.997 124.857Z" fill="white"/>
</mask>
<g mask="url(#mask2_1296_63730)">
<path d="M163.997 124.857C163.834 123.517 163.18 121.527 160.755 121.114C160.355 121.046 159.985 121.05 159.635 121.101C158.015 121.335 156.917 122.697 156.263 123.86C155.778 124.722 156.226 125.868 157.129 126.061C159.601 126.589 162.07 126.387 163.273 126.229C163.728 126.168 164.066 125.727 164.033 125.224C164.025 125.11 164.012 124.985 163.997 124.857Z" fill="white"/>
</g>
<mask id="mask3_1296_63730" style="mask-type:luminance" maskUnits="userSpaceOnUse" x="156" y="121" width="9" height="6">
<path d="M163.997 124.857C163.834 123.517 163.18 121.527 160.755 121.114C160.355 121.046 159.985 121.05 159.635 121.101C158.015 121.335 156.917 122.697 156.263 123.86C155.778 124.722 156.226 125.868 157.129 126.061C159.601 126.589 162.07 126.387 163.273 126.229C163.728 126.168 164.066 125.727 164.033 125.224C164.025 125.11 164.012 124.985 163.997 124.857Z" fill="white"/>
</mask>
<g mask="url(#mask3_1296_63730)">
<path d="M163.682 125.288C163.682 126.726 162.517 127.892 161.079 127.892C159.641 127.892 158.476 126.726 158.476 125.288C158.476 123.85 159.641 122.684 161.079 122.684C162.517 122.684 163.682 123.85 163.682 125.288Z" fill="#1F2326"/>
</g>
<path d="M163.65 118.573C163.217 118.333 162.641 118.356 162.083 118.343C161.52 118.343 160.956 118.329 160.465 118.296C159.974 118.265 159.411 118.206 158.851 118.132C158.295 118.072 157.721 117.974 157.274 118.156C156.842 118.325 156.639 118.875 157.101 119.6C157.534 120.303 158.721 121.115 160.347 121.225C161.972 121.326 163.219 120.674 163.706 120.031C164.222 119.372 164.066 118.797 163.65 118.573Z" fill="#1F2326"/>
<path d="M168.343 119.729C168.719 119.503 169.231 119.503 169.725 119.471C170.223 119.452 170.723 119.419 171.158 119.373C171.592 119.327 172.09 119.256 172.584 119.171C173.076 119.099 173.58 118.992 173.983 119.137C174.371 119.272 174.566 119.753 174.177 120.412C173.814 121.051 172.784 121.812 171.346 121.967C169.908 122.114 168.785 121.578 168.335 121.025C167.858 120.456 167.981 119.943 168.343 119.729Z" fill="#1F2326"/>
<g opacity="0.61">
<path d="M159.758 142.165C159.758 142.165 161.164 140.734 162.83 142.165H159.758Z" fill="#E9B98A"/>
<path d="M162.831 142.657C162.734 142.657 162.638 142.623 162.557 142.553C161.241 141.424 160.176 142.411 160.059 142.528C159.88 142.709 159.595 142.695 159.431 142.497C159.264 142.298 159.275 141.99 159.455 141.807C160.038 141.213 161.553 140.444 163.104 141.78C163.3 141.947 163.333 142.256 163.182 142.47C163.095 142.593 162.963 142.657 162.831 142.657Z" fill="#FF755F"/>
</g>
<path d="M81.8535 260.46C86.7378 244.763 91.6221 229.065 96.5063 213.366C100.82 199.5 103.825 184.449 111.769 172.372C115.748 166.32 121.235 161.358 127.876 159.426C135.606 157.179 143.829 158.795 151.706 158.536C156.661 158.374 161.71 158.647 166.687 158.647C174.236 158.647 181.564 162.132 186.739 168.178C189.923 171.899 204.54 216.269 192.527 224.515C189.887 226.327 178.717 210.197 178.717 210.197L172.305 245.459H124.345L119.94 223.359L100.438 270.381L81.8535 260.46Z" fill="#111111"/>
<path d="M87.6856 258.033L77.9849 259.948C76.2623 260.289 74.8076 261.556 74.1124 263.323L69.915 273.987C69.0805 276.106 70.0162 278.563 71.9744 279.396L74.0005 280.257L74.766 272.664L73.6732 283.501C73.5506 284.712 74.5267 285.703 75.5933 285.449C76.5457 285.222 77.3266 284.459 77.6551 283.434L81.1061 272.669L78.6432 285.408C78.467 286.32 79.3527 287.023 80.0645 286.537C82.7751 284.682 84.8333 281.841 85.8928 278.489L86.813 275.577C86.813 275.577 92.152 278.931 98.6303 276.503C100.697 275.729 102.096 273.657 102.235 271.261C102.521 266.384 100.941 258.415 87.6856 258.033Z" fill="#E9B98A"/>
<path d="M73.3931 280.018C73.2646 279.919 73.1908 279.743 73.2158 279.557L74.2943 271.706C74.33 271.449 74.5455 271.272 74.7764 271.312C75.0074 271.352 75.1645 271.592 75.1288 271.85L74.0503 279.701C74.0145 279.958 73.7991 280.135 73.5681 280.096C73.5039 280.085 73.4443 280.058 73.3931 280.018Z" fill="#FF8E77"/>
<path d="M79.5586 273.498C79.411 273.384 79.3396 273.175 79.3943 272.973C79.4622 272.724 79.6967 272.582 79.9205 272.657C79.9205 272.657 80.7431 272.935 81.6561 273.266C81.8811 273.347 82.0002 273.613 81.9276 273.86C81.8561 274.109 81.6181 274.244 81.3966 274.164C80.4907 273.837 79.6753 273.561 79.6753 273.561C79.6336 273.547 79.5943 273.526 79.5586 273.498Z" fill="#FF8E77"/>
<path d="M73.8135 271.579C73.6659 271.465 73.5945 271.255 73.6492 271.054C73.7171 270.805 73.9516 270.663 74.1754 270.739C74.1754 270.739 74.998 271.017 75.911 271.347C76.1313 271.426 76.2551 271.693 76.1824 271.94C76.111 272.189 75.8729 272.324 75.6515 272.244C74.7468 271.918 73.9326 271.643 73.9302 271.643C73.8873 271.626 73.848 271.605 73.8135 271.579Z" fill="#FF8E77"/>
<path d="M86.1886 276.346C86.0326 276.226 85.9636 275.999 86.0326 275.792C86.2659 275.099 86.3159 274.118 86.3159 274.109C86.3278 273.848 86.5266 273.647 86.76 273.662C86.9933 273.676 87.1719 273.899 87.1588 274.158C87.1564 274.204 87.1016 275.293 86.823 276.125C86.7409 276.368 86.4969 276.493 86.279 276.401C86.2469 276.385 86.2159 276.368 86.1886 276.346Z" fill="#FF8E77"/>
<path d="M137.737 155.985C137.737 165.422 143.874 173.073 151.443 173.073C159.011 173.073 165.148 165.423 165.148 155.985C165.148 155.974 165.148 155.963 165.148 155.951C165.14 154.115 163.818 152.639 162.224 152.607C157.118 152.502 145.968 152.518 140.776 152.533C139.129 152.537 137.746 154.052 137.737 155.95C137.737 155.96 137.737 155.974 137.737 155.985Z" fill="#F8E643"/>
<path d="M189.803 163.35L178.713 161.818C177.226 161.612 176.171 160.12 176.357 158.482L179.63 129.652C179.815 128.013 181.174 126.852 182.663 127.058L193.753 128.591C195.24 128.796 196.294 130.288 196.109 131.926L192.835 160.757C192.65 162.394 191.292 163.556 189.803 163.35Z" fill="#60A2F4"/>
<path d="M177.72 148.28C177.532 149.381 177.935 150.475 178.616 150.711L179.723 151.095C179.176 150.985 178.618 151.509 178.436 152.391C178.349 152.812 178.377 153.232 178.469 153.604C178.439 153.795 178.484 153.956 178.626 154.075C178.638 154.084 178.657 154.102 178.67 154.112C178.799 154.341 178.954 154.534 179.155 154.623L179.435 154.746C181.234 156.217 185.207 159.857 188.714 161.405L200.695 156.881C200.605 153.824 200.069 146.976 198.597 144.317C197.797 142.87 197.038 141.434 196.128 141.085L195.156 139.946C195.006 141.262 194.458 142.404 193.677 143.286C193.556 143.199 193.44 143.1 193.3 143.059L180.37 139.277C179.536 139.033 178.715 139.785 178.543 140.95C178.417 141.81 178.684 142.661 179.167 143.145L178.865 143.055C178.179 142.848 177.48 143.586 177.31 144.693C177.14 145.8 177.561 146.875 178.247 147.082L178.251 147.083C178.001 147.368 177.805 147.78 177.72 148.28ZM180.277 151.286L180.333 151.306L180.329 151.31L180.277 151.286Z" fill="#E9B98A"/>
<path d="M184.211 144.748C184.373 144.755 184.519 144.635 184.556 144.455C184.597 144.254 184.482 144.055 184.299 144.01L178.938 142.689C178.748 142.642 178.574 142.771 178.533 142.972C178.492 143.174 178.606 143.373 178.79 143.418L184.15 144.738C184.172 144.744 184.191 144.746 184.211 144.748Z" fill="#FBA777"/>
<path d="M183.794 148.78C183.95 148.787 184.095 148.674 184.136 148.502C184.183 148.303 184.075 148.099 183.894 148.046L179.268 146.71C179.078 146.66 178.9 146.777 178.854 146.976C178.806 147.175 178.915 147.38 179.096 147.432L183.722 148.77C183.747 148.775 183.769 148.779 183.794 148.78Z" fill="#FBA777"/>
<path d="M183.708 152.759C183.859 152.765 184.001 152.66 184.047 152.493C184.101 152.296 183.999 152.087 183.82 152.028L179.87 150.72C179.685 150.66 179.501 150.773 179.446 150.97C179.392 151.167 179.494 151.376 179.673 151.435L183.623 152.743C183.653 152.753 183.68 152.757 183.708 152.759Z" fill="#FBA777"/>
<path d="M201.913 155.552C203.136 154.843 204.451 155.806 204.578 157.504L207.985 202.99C208.916 217.469 199.043 230.014 189.167 223.08C183.746 219.273 180.992 211.135 181.843 202.764L185.926 162.605L186.351 162.419L201.45 155.819L201.913 155.552Z" fill="#111111"/>
<path d="M151.225 177.269V171.206C151.225 162.432 144.762 155.32 136.79 155.32C136.79 155.32 130.73 177.026 151.225 177.269Z" fill="white"/>
<path d="M151.149 177.269V171.206C151.149 162.432 157.612 155.32 165.584 155.32C165.584 155.32 171.645 177.026 151.149 177.269Z" fill="white"/>
<path d="M182.443 216.003C182.254 216.003 182.067 215.902 181.951 215.716L176.916 207.572C176.731 207.273 176.8 206.866 177.073 206.661C177.344 206.459 177.715 206.534 177.899 206.834L182.935 214.979C183.119 215.277 183.05 215.685 182.777 215.889C182.675 215.967 182.558 216.003 182.443 216.003Z" fill="#FDFDFD"/>
<path d="M183.912 188.305C183.892 188.305 183.873 188.303 183.853 188.302C183.525 188.267 183.286 187.946 183.318 187.585L185.529 162.938C185.562 162.579 185.868 162.32 186.18 162.351C186.507 162.386 186.747 162.707 186.715 163.068L184.504 187.715C184.473 188.052 184.215 188.305 183.912 188.305Z" fill="#FDFDFD"/>
<path d="M189.459 166.906C188.587 166.906 187.876 166.124 187.876 165.164C187.876 164.203 188.587 163.421 189.459 163.421C190.332 163.421 191.042 164.203 191.042 165.164C191.042 166.124 190.333 166.906 189.459 166.906ZM189.459 164.73C189.243 164.73 189.066 164.924 189.066 165.162C189.066 165.401 189.243 165.595 189.459 165.595C189.676 165.595 189.852 165.401 189.852 165.162C189.852 164.924 189.676 164.73 189.459 164.73Z" fill="#FDFDFD"/>
<path d="M120.86 223.569C120.852 223.569 120.845 223.569 120.837 223.568C120.508 223.553 120.252 223.248 120.265 222.886L121.201 197.017C121.214 196.655 121.498 196.372 121.82 196.388C122.148 196.402 122.404 196.707 122.391 197.069L121.456 222.94C121.442 223.293 121.179 223.569 120.86 223.569Z" fill="#FDFDFD"/>
<path d="M170.089 485.046L170.092 485.155C170.196 488.258 170.591 491.341 171.269 494.355L172.594 500.24L181.154 498.276L211.071 491.415L211.045 491.279C210.4 487.872 208.068 485.153 205.013 484.249L181.1 478.834L170.089 485.046Z" fill="#111111"/>
<path d="M141.181 486.934L141.198 487.041C141.671 490.103 141.857 493.209 141.751 496.313L141.545 502.372H102.241V502.233C102.241 498.752 104.021 495.567 106.843 493.996L129.249 483.326L141.181 486.934Z" fill="#111111"/>
<path d="M187.23 479.127L186.692 474.835L182.888 352.921C174.658 353.217 162.615 353.65 150.812 354.074L170.091 485.155L187.815 488.708C191.489 489.444 196.116 486.167 198.097 482.684L187.23 479.127Z" fill="#E9B98A"/>
<path d="M122.366 469.869L123.235 485.198L113.322 490.91C115.907 493.876 121.044 496.044 124.505 494.498L141.198 487.041L142.321 469.869L149.888 354.108C135.651 354.617 121.931 355.109 115.871 355.318L122.366 469.869Z" fill="#E9B98A"/>
<path d="M185.661 352.821C189.807 352.672 192.986 349.005 192.654 344.758C191.178 325.861 187.518 279.053 187.4 278.006C186.475 269.759 183.755 261.816 179.412 254.844L176.203 249.693L173.139 244.774H125.179L122.114 249.693L121.263 251.061L118.906 254.845C112.951 264.404 110.049 275.787 110.637 287.275L106.775 348.299C106.541 352.013 109.166 355.219 112.621 355.427C112.656 355.43 113.834 355.389 115.87 355.318C121.931 355.107 135.651 354.617 149.887 354.108C150.196 354.097 150.504 354.085 150.812 354.075C162.615 353.652 174.658 353.218 182.888 352.922C183.868 352.885 184.796 352.853 185.661 352.821Z" fill="#F8E643"/>
<path d="M175.676 250.013H124.812C124.483 250.013 124.217 249.719 124.217 249.358C124.217 248.996 124.483 248.703 124.812 248.703H175.676C176.005 248.703 176.271 248.996 176.271 249.358C176.271 249.719 176.005 250.013 175.676 250.013Z" fill="#F9A04E"/>
<path d="M180.462 258.712H157.682C157.354 258.712 157.087 258.418 157.087 258.057C157.087 257.695 157.354 257.401 157.682 257.401H180.462C180.791 257.401 181.057 257.695 181.057 258.057C181.057 258.419 180.791 258.712 180.462 258.712Z" fill="#F9A04E"/>
<path d="M146.552 343.765C146.23 343.765 145.967 343.484 145.956 343.131C145.946 342.771 146.204 342.467 146.533 342.455L192.091 340.851C192.39 340.847 192.695 341.125 192.705 341.485C192.716 341.846 192.458 342.15 192.129 342.161L146.571 343.765C146.565 343.765 146.558 343.765 146.552 343.765Z" fill="#F9A04E"/>
<path d="M499.244 477.417L499.182 500.769L544.701 500.915C544.713 496.464 541.98 492.571 538.063 491.461L526.552 488.198C525.652 487.942 524.832 487.424 524.179 486.695L519.77 477.305L499.244 477.417Z" fill="#353148"/>
<path d="M519.97 489C519.798 489 519.637 488.892 519.563 488.709C519.462 488.46 519.563 488.17 519.788 488.06L523.803 486.082C524.027 485.969 524.292 486.08 524.392 486.33C524.493 486.577 524.392 486.868 524.167 486.978L520.152 488.956C520.092 488.985 520.031 489 519.97 489Z" fill="#EAEAEA"/>
<path d="M518.556 485.317C518.384 485.317 518.222 485.21 518.149 485.026C518.047 484.779 518.149 484.488 518.374 484.378L522.388 482.399C522.611 482.288 522.877 482.397 522.977 482.646C523.078 482.895 522.977 483.184 522.753 483.294L518.739 485.272C518.68 485.304 518.618 485.317 518.556 485.317Z" fill="#EAEAEA"/>
<path d="M544.709 499.829L499.188 499.683L499.181 502.554L544.701 502.699L544.709 499.829Z" fill="#141C34"/>
<path d="M474.018 477.417L474.08 500.769L428.561 500.915C428.549 496.464 431.282 492.571 435.198 491.461L446.71 488.198C447.61 487.942 448.43 487.424 449.082 486.695L453.491 477.305L474.018 477.417Z" fill="#353148"/>
<path d="M453.292 489C453.23 489 453.168 488.985 453.11 488.956L449.096 486.978C448.871 486.868 448.771 486.577 448.871 486.33C448.971 486.081 449.237 485.972 449.46 486.082L453.474 488.06C453.698 488.17 453.799 488.461 453.698 488.709C453.625 488.892 453.463 489 453.292 489Z" fill="#EAEAEA"/>
<path d="M454.706 485.317C454.644 485.317 454.582 485.303 454.524 485.274L450.51 483.296C450.285 483.185 450.185 482.895 450.285 482.647C450.385 482.398 450.65 482.291 450.874 482.401L454.888 484.379C455.112 484.489 455.213 484.78 455.112 485.027C455.039 485.21 454.876 485.317 454.706 485.317Z" fill="#EAEAEA"/>
<path d="M428.561 502.694L474.081 502.549L474.073 499.678L428.553 499.824L428.561 502.694Z" fill="#141C34"/>
<path d="M523.38 274.361C523.38 274.361 450.715 274.555 450.731 275.957L448.917 476.947C448.934 478.372 450.075 479.521 451.48 479.524L477.966 479.571C479.345 479.574 480.48 478.468 480.534 477.068L487.411 298.156L495.189 477.155C495.248 478.523 496.377 479.604 497.75 479.606L521.486 479.65C522.891 479.652 524.036 478.527 524.056 477.126L524.517 275.835C524.531 274.841 524.276 274.796 523.38 274.361Z" fill="#111111"/>
<path d="M453.403 479.299C453.399 479.299 453.396 479.299 453.392 479.299C453.064 479.292 452.802 478.993 452.808 478.632L455.721 302.804C455.727 302.443 456.041 302.192 456.327 302.161C456.655 302.167 456.917 302.466 456.911 302.828L453.998 478.655C453.992 479.013 453.727 479.299 453.403 479.299Z" fill="#FDFDFD"/>
<path d="M462.834 479.91H462.83C462.501 479.908 462.237 479.612 462.239 479.25L462.794 400.493C462.796 400.134 463.063 399.843 463.389 399.843H463.394C463.723 399.846 463.987 400.142 463.984 400.503L463.43 479.261C463.427 479.619 463.161 479.91 462.834 479.91Z" fill="#FDFDFD"/>
<path d="M440.43 146.541L454.419 143.862C455.664 143.624 456.498 142.319 456.282 140.947L451.045 107.833C450.828 106.462 449.643 105.544 448.396 105.783L434.409 108.462C433.163 108.7 432.329 110.005 432.546 111.377L437.783 144.491C437.999 145.863 439.185 146.781 440.43 146.541Z" fill="#60A2F4"/>
<path d="M456.233 135.023L456.227 134.517C456.209 132.864 454.977 131.54 453.475 131.559L450.26 131.601L452.664 131.57C454.039 131.551 455.141 130.311 455.125 128.798C455.105 126.924 453.744 125.398 452.042 125.357C450.104 125.312 447.514 125.443 445.098 126.185C440.427 127.621 439.351 126.479 439.351 126.479C439.351 126.479 438.382 126.381 436.966 120.667C435.551 114.954 428.55 116.043 430.463 119.686C432.376 123.329 430.941 126.943 430.941 126.943L430.067 129.264L429.781 130.023C429.061 131.935 428.876 134.025 429.226 136.031C428.482 141.317 427.69 150.124 427.69 150.124L445.466 151.703L445.398 148.991L447.867 148.96C449.693 148.936 451.156 147.288 451.135 145.278C451.129 144.693 450.692 144.224 450.16 144.23L449.249 144.242L451.629 144.212C453.305 144.19 454.649 142.676 454.628 140.832L454.624 140.448C454.609 139.088 453.595 137.998 452.359 138.014L449.079 138.056L453.595 137.997C455.069 137.976 456.25 136.645 456.233 135.023Z" fill="#E9B98A"/>
<path d="M453.61 132.057H449.607C449.36 132.057 449.16 131.837 449.16 131.566C449.16 131.295 449.36 131.075 449.607 131.075H453.61C453.856 131.075 454.056 131.295 454.056 131.566C454.056 131.837 453.856 132.057 453.61 132.057Z" fill="#FF755F"/>
<path d="M453.245 138.554C453.239 138.554 453.233 138.554 453.227 138.552L449.226 138.379C448.979 138.369 448.788 138.141 448.797 137.87C448.806 137.599 449.016 137.368 449.261 137.398L453.262 137.571C453.509 137.582 453.701 137.81 453.691 138.081C453.681 138.347 453.483 138.554 453.245 138.554Z" fill="#FF755F"/>
<path d="M450.699 144.702C450.693 144.702 450.687 144.702 450.681 144.702L446.68 144.529C446.433 144.519 446.242 144.291 446.251 144.019C446.261 143.748 446.478 143.523 446.716 143.548L450.717 143.721C450.963 143.731 451.155 143.959 451.145 144.23C451.136 144.495 450.937 144.702 450.699 144.702Z" fill="#FF755F"/>
<path d="M513.585 283.041C513.585 283.041 509.381 286.317 508.764 290.594C508.147 294.872 511.038 301.683 511.038 301.683L513.585 283.041Z" fill="#E9B98A"/>
<path opacity="0.57" d="M513.022 288.848L510.791 301.068C510.791 301.068 511.021 289.705 513.022 288.848Z" fill="#FF755F"/>
<path d="M503.634 308.202H500.814C500.615 308.202 500.433 307.699 500.253 307.176L500.255 350.159H503.636L503.634 308.202Z" fill="#323233"/>
<path d="M537.442 308.198L537.445 350.155H540.826L540.823 307.799C540.748 307.883 540.682 308.195 540.604 308.195L537.442 308.198Z" fill="#323233"/>
<path d="M555.877 496.483L488.524 497.18C484.779 497.219 481.715 493.908 481.679 489.788L480.546 357.776C480.511 353.654 483.519 350.282 487.264 350.243L554.618 349.546C558.363 349.507 561.427 352.817 561.462 356.937L562.596 488.95C562.629 493.071 559.622 496.445 555.877 496.483Z" fill="#F8E643"/>
<path opacity="0.49" d="M495.342 471.952C491.308 471.952 488.007 468.369 487.968 463.928L487.057 357.692L488.247 357.679L489.159 463.914C489.191 467.638 491.96 470.642 495.342 470.642C495.362 470.642 495.382 470.642 495.403 470.642L548.544 470.091C550.198 470.074 551.745 469.353 552.901 468.057C554.058 466.763 554.687 465.05 554.671 463.237L553.758 357L554.948 356.987L555.862 463.224C555.881 465.388 555.131 467.431 553.75 468.975C552.37 470.52 550.525 471.381 548.556 471.401L495.415 471.952C495.39 471.952 495.366 471.952 495.342 471.952Z" fill="white"/>
<path opacity="0.49" d="M553.545 497.873H489.595V494.502C489.595 491.321 491.946 488.735 494.835 488.735H548.304C551.194 488.735 553.544 491.322 553.544 494.502L553.545 497.873ZM490.785 496.563H552.355V494.502C552.355 492.044 550.538 490.045 548.305 490.045H494.836C492.603 490.045 490.786 492.044 490.786 494.502V496.563H490.785Z" fill="white"/>
<path d="M550.919 492.119C552.459 495.997 550.845 500.512 547.314 502.204C543.783 503.895 539.671 502.124 538.13 498.246C536.59 494.368 538.204 489.852 541.735 488.161C545.267 486.469 549.379 488.24 550.919 492.119Z" fill="#141C34"/>
<path opacity="0.27" d="M548.085 493.476C548.943 495.635 548.045 498.149 546.078 499.091C544.111 500.033 541.822 499.047 540.964 496.888C540.106 494.729 541.004 492.215 542.971 491.273C544.938 490.329 547.228 491.317 548.085 493.476Z" fill="#A2D5F2"/>
<path d="M506.437 492.119C507.977 495.997 506.364 500.512 502.832 502.204C499.3 503.895 495.188 502.124 493.648 498.246C492.108 494.368 493.722 489.852 497.253 488.161C500.785 486.469 504.896 488.24 506.437 492.119Z" fill="#141C34"/>
<path opacity="0.27" d="M503.604 493.476C504.462 495.635 503.563 498.149 501.597 499.091C499.63 500.033 497.341 499.047 496.483 496.888C495.624 494.729 496.523 492.215 498.49 491.273C500.456 490.329 502.745 491.317 503.604 493.476Z" fill="#A2D5F2"/>
<path opacity="0.49" d="M500.653 458.096H498.856C497.601 458.096 496.581 456.974 496.581 455.593V370.55C496.581 369.169 497.601 368.047 498.856 368.047H500.653C501.909 368.047 502.93 369.169 502.93 370.55V455.593C502.93 456.974 501.909 458.096 500.653 458.096ZM498.856 369.357C498.258 369.357 497.771 369.893 497.771 370.55V455.593C497.771 456.251 498.258 456.786 498.856 456.786H500.653C501.252 456.786 501.739 456.251 501.739 455.593V370.55C501.739 369.893 501.252 369.357 500.653 369.357H498.856Z" fill="white"/>
<path opacity="0.49" d="M541.537 458.096H539.74C538.485 458.096 537.465 456.974 537.465 455.593V370.55C537.465 369.169 538.486 368.047 539.74 368.047H541.537C542.793 368.047 543.813 369.169 543.813 370.55V455.593C543.813 456.974 542.793 458.096 541.537 458.096ZM539.74 369.357C539.142 369.357 538.655 369.893 538.655 370.55V455.593C538.655 456.251 539.142 456.786 539.74 456.786H541.537C542.136 456.786 542.623 456.251 542.623 455.593V370.55C542.623 369.893 542.136 369.357 541.537 369.357H539.74Z" fill="white"/>
<path opacity="0.49" d="M522.379 458.096H520.582C519.326 458.096 518.306 456.974 518.306 455.593V370.55C518.306 369.169 519.326 368.047 520.582 368.047H522.379C523.635 368.047 524.655 369.169 524.655 370.55V455.593C524.655 456.974 523.635 458.096 522.379 458.096ZM520.582 369.357C519.983 369.357 519.496 369.893 519.496 370.55V455.593C519.496 456.251 519.983 456.786 520.582 456.786H522.379C522.978 456.786 523.465 456.251 523.465 455.593V370.55C523.465 369.893 522.978 369.357 522.379 369.357H520.582Z" fill="white"/>
<path d="M503.636 309.011H504.087C505.109 309.011 505.939 308.101 505.939 306.977C505.939 305.846 506.782 304.921 507.812 304.921L533.61 304.92C534.633 304.92 535.463 305.83 535.463 306.954C535.463 308.085 536.305 309.01 537.335 309.01H537.443H540.605C540.683 309.01 540.749 308.972 540.824 308.961C541.74 308.837 542.457 308.014 542.457 306.975V301.945C542.46 301.932 542.462 301.919 542.465 301.905C542.836 299.487 541.094 297.32 539.017 297.32L502.383 297.323C500.306 297.323 498.566 299.491 498.937 301.908C498.939 301.921 498.941 301.934 498.944 301.947V306.956C498.944 307.869 499.502 308.62 500.255 308.887C500.435 308.951 500.618 309.013 500.815 309.013L503.636 309.011Z" fill="#141C34"/>
<path d="M519.381 308.436L518.94 308.456C517.502 308.519 516.289 307.287 516.232 305.705L516.11 302.317L516.201 304.851C516.254 306.299 515.229 307.52 513.913 307.579C512.282 307.651 510.888 306.294 510.769 304.503C510.634 302.465 510.619 299.732 511.146 297.151C512.162 292.161 513.656 280.868 513.656 280.868L515.98 272.696L536.937 277.116L531.083 298.941C531.153 300.865 529.792 302.487 528.043 302.564C527.534 302.587 527.104 302.15 527.084 301.59L527.05 300.629L527.141 303.136C527.205 304.903 525.956 306.391 524.351 306.462L524.016 306.476C522.833 306.529 521.835 305.515 521.788 304.213L521.662 300.755L521.834 305.513C521.891 307.064 520.793 308.373 519.381 308.436Z" fill="#E9B98A"/>
<path opacity="0.57" d="M516.67 301.14C516.647 300.806 516.387 300.552 516.081 300.565C515.769 300.581 515.526 300.872 515.541 301.215L515.72 305.732C515.701 306.061 515.998 306.344 516.311 306.328C516.623 306.312 516.866 306.022 516.851 305.678L516.672 301.161C516.672 301.155 516.67 301.147 516.67 301.14Z" fill="#FF755F"/>
<path opacity="0.57" d="M522.499 305.405C522.499 305.401 522.499 305.398 522.498 305.395L522.011 299.71C521.981 299.367 521.705 299.116 521.394 299.148C521.083 299.179 520.89 299.492 520.884 299.826L521.371 305.512C521.4 305.855 521.677 306.106 521.987 306.074C522.296 306.043 522.523 305.744 522.499 305.405Z" fill="#FF755F"/>
<path opacity="0.57" d="M527.364 297.992C527.34 297.658 527.08 297.404 526.774 297.419C526.463 297.434 526.22 297.725 526.234 298.07L526.404 302.316C526.397 302.654 526.683 302.923 526.995 302.91C527.307 302.895 527.549 302.604 527.535 302.259L527.365 298.013C527.365 298.005 527.364 297.999 527.364 297.992Z" fill="#FF755F"/>
<path d="M493.034 80.5008C491.094 78.6772 488.451 77.3566 484.893 76.8339C484.759 76.5522 484.617 76.2758 484.463 76.0112C482.748 73.0557 479.862 71.1626 476.716 70.6085C466.899 68.8766 463.98 76.019 457.216 80.6449C444.343 89.4498 456.98 105.649 457.698 101.886C457.914 100.757 458.91 98.7054 459.732 97.8211C460.041 97.4884 460.374 97.1923 460.718 96.9132C462.067 97.7478 463.635 98.1919 465.295 98.0792C467.499 97.9299 469.439 96.8451 470.841 95.2062C478.818 95.6844 483.353 94.0822 485.889 92.3739C486.667 93.3001 487.27 94.4071 487.589 95.6333C488.217 98.0425 487.92 100.678 487.963 103.153C487.983 104.294 481.885 111.992 482.459 116.455C483.083 121.304 487.159 124.677 491.564 123.991C495.97 123.304 499.035 118.819 498.412 113.97C498.158 111.995 497.323 110.272 496.134 108.961L499.721 94.3678C501.536 88.335 498.287 82.1161 493.034 80.5008Z" fill="#1F2326"/>
<path d="M492.885 107.585L492.034 107.571C492.034 107.571 489.495 107.681 488.955 110.492C488.874 110.91 488.004 106.977 487.994 106.576C487.968 105.435 487.983 104.293 487.963 103.152C487.92 100.677 488.216 98.0412 487.589 95.632C486.899 92.9792 484.918 90.8398 482.581 90.0263C482.435 89.9752 482.255 89.9319 482.053 89.8953C481.122 92.4315 478.939 94.2918 476.293 94.4713C474.764 94.5748 473.327 94.0953 472.15 93.215C470.831 95.9399 468.302 97.8762 465.295 98.0792C462.204 98.2888 459.409 96.6146 457.815 93.9617C457.472 95.2796 457.263 96.6604 457.243 98.0963L457.228 99.1338C457.228 99.1351 457.228 99.1365 457.228 99.1365L456.984 116.027L456.867 124.079V124.08L456.852 125.149C456.748 132.348 460.739 138.556 466.453 141.123L466.265 149.861C466.117 156.771 471.085 162.506 477.364 162.669L480.375 162.748C486.655 162.912 491.865 157.443 492.014 150.533L492.646 121.245L492.689 121.246C495.716 121.299 498.209 118.642 498.257 115.311L498.28 113.712C498.327 110.382 495.913 107.637 492.885 107.585Z" fill="#E9B98A"/>
<path opacity="0.46" d="M489.137 124.643C489.01 133.439 482.428 140.457 474.434 140.317L471.108 140.259C463.116 140.119 456.74 132.876 456.866 124.08L456.851 125.149C456.742 132.675 461.106 139.126 467.241 141.456C467.186 144.69 469.879 147.707 473.603 148.396C477.621 149.14 481.314 146.895 481.851 143.383C481.955 142.699 481.929 142.018 481.795 141.357C487.537 138.97 491.668 132.926 491.772 125.76L491.837 121.229L489.187 121.184L489.137 124.643Z" fill="#FF755F"/>
<path d="M494.029 117.131C493.944 117.131 493.856 117.111 493.773 117.069L491.17 115.706L493.042 111.509C493.188 111.184 493.546 111.051 493.84 111.209C494.135 111.369 494.257 111.76 494.113 112.085L492.77 115.092L494.284 115.884C494.58 116.04 494.708 116.431 494.565 116.758C494.465 116.994 494.251 117.131 494.029 117.131Z" fill="#FF755F"/>
<path d="M469.214 133.723C469.067 133.723 468.921 133.664 468.807 133.547C468.752 133.49 467.506 132.252 466.053 133.095C465.766 133.262 465.403 133.142 465.249 132.821C465.095 132.501 465.207 132.106 465.497 131.935C467.716 130.649 469.546 132.512 469.623 132.593C469.861 132.84 469.872 133.256 469.647 133.519C469.529 133.655 469.372 133.723 469.214 133.723Z" fill="#FF755F"/>
<mask id="mask4_1296_63730" style="mask-type:luminance" maskUnits="userSpaceOnUse" x="458" y="108" width="9" height="6">
<path d="M458.429 111.847C458.592 110.497 459.251 108.494 461.693 108.076C462.095 108.008 462.469 108.012 462.821 108.063C464.452 108.299 465.558 109.669 466.218 110.842C466.706 111.709 466.256 112.863 465.345 113.058C462.856 113.59 460.37 113.387 459.157 113.227C458.699 113.167 458.359 112.723 458.392 112.216C458.4 112.101 458.413 111.976 458.429 111.847Z" fill="white"/>
</mask>
<g mask="url(#mask4_1296_63730)">
<path d="M458.429 111.847C458.592 110.497 459.251 108.494 461.693 108.076C462.095 108.008 462.469 108.012 462.821 108.063C464.452 108.299 465.558 109.669 466.218 110.842C466.706 111.709 466.256 112.863 465.345 113.058C462.856 113.59 460.37 113.387 459.157 113.227C458.699 113.167 458.359 112.723 458.392 112.216C458.4 112.101 458.413 111.976 458.429 111.847Z" fill="white"/>
</g>
<mask id="mask5_1296_63730" style="mask-type:luminance" maskUnits="userSpaceOnUse" x="458" y="108" width="9" height="6">
<path d="M458.429 111.847C458.592 110.497 459.251 108.494 461.693 108.076C462.095 108.008 462.469 108.012 462.821 108.063C464.452 108.299 465.558 109.669 466.218 110.842C466.706 111.709 466.256 112.863 465.345 113.058C462.856 113.59 460.37 113.387 459.157 113.227C458.699 113.167 458.359 112.723 458.392 112.216C458.4 112.101 458.413 111.976 458.429 111.847Z" fill="white"/>
</mask>
<g mask="url(#mask5_1296_63730)">
<path d="M461.366 114.903C462.814 114.903 463.988 113.729 463.988 112.28C463.988 110.832 462.814 109.657 461.366 109.657C459.919 109.657 458.745 110.832 458.745 112.28C458.745 113.729 459.919 114.903 461.366 114.903Z" fill="#54132A"/>
</g>
<path d="M471.298 123.899C471.277 123.899 471.257 123.898 471.236 123.895C470.992 123.857 470.821 123.611 470.856 123.342C470.869 123.239 471.192 120.793 473.109 119.259C474.484 118.16 476.3 117.823 478.507 118.259C478.75 118.308 478.91 118.563 478.867 118.831C478.825 119.097 478.6 119.275 478.35 119.228C476.396 118.842 474.812 119.119 473.644 120.048C472.034 121.328 471.744 123.456 471.74 123.477C471.708 123.721 471.518 123.899 471.298 123.899Z" fill="#FF755F"/>
<mask id="mask6_1296_63730" style="mask-type:luminance" maskUnits="userSpaceOnUse" x="470" y="105" width="11" height="8">
<path d="M470.945 110.62C471.145 108.971 471.95 106.523 474.934 106.013C475.426 105.929 475.883 105.934 476.314 105.997C478.307 106.285 479.659 107.961 480.465 109.393C481.061 110.453 480.511 111.864 479.398 112.102C476.356 112.752 473.319 112.503 471.837 112.309C471.276 112.236 470.861 111.692 470.901 111.074C470.911 110.932 470.926 110.779 470.945 110.62Z" fill="white"/>
</mask>
<g mask="url(#mask6_1296_63730)">
<path d="M470.945 110.62C471.145 108.971 471.95 106.523 474.934 106.013C475.426 105.929 475.883 105.934 476.314 105.997C478.307 106.285 479.659 107.961 480.465 109.393C481.061 110.453 480.511 111.864 479.398 112.102C476.356 112.752 473.319 112.503 471.837 112.309C471.276 112.236 470.861 111.692 470.901 111.074C470.911 110.932 470.926 110.779 470.945 110.62Z" fill="white"/>
</g>
<mask id="mask7_1296_63730" style="mask-type:luminance" maskUnits="userSpaceOnUse" x="470" y="105" width="11" height="8">
<path d="M470.945 110.62C471.145 108.971 471.95 106.523 474.934 106.013C475.426 105.929 475.883 105.934 476.314 105.997C478.307 106.285 479.659 107.961 480.465 109.393C481.061 110.453 480.511 111.864 479.398 112.102C476.356 112.752 473.319 112.503 471.837 112.309C471.276 112.236 470.861 111.692 470.901 111.074C470.911 110.932 470.926 110.779 470.945 110.62Z" fill="white"/>
</mask>
<g mask="url(#mask7_1296_63730)">
<path d="M471.332 111.151C471.332 112.921 472.766 114.355 474.535 114.355C476.304 114.355 477.739 112.921 477.739 111.151C477.739 109.381 476.304 107.947 474.535 107.947C472.766 107.947 471.332 109.381 471.332 111.151Z" fill="#54132A"/>
</g>
<path d="M470.864 103.49C471.471 103.153 472.283 103.186 473.068 103.168C473.86 103.168 474.655 103.147 475.345 103.101C476.037 103.056 476.83 102.974 477.616 102.87C478.399 102.786 479.205 102.647 479.836 102.904C480.444 103.141 480.729 103.917 480.077 104.936C479.468 105.927 477.798 107.069 475.509 107.225C473.222 107.368 471.468 106.449 470.783 105.543C470.058 104.614 470.278 103.806 470.864 103.49Z" fill="#54132A"/>
<path d="M466.621 104.227C466.096 103.909 465.38 103.91 464.687 103.867C463.989 103.84 463.289 103.794 462.682 103.73C462.074 103.665 461.377 103.566 460.687 103.448C460 103.347 459.293 103.198 458.73 103.401C458.187 103.589 457.914 104.263 458.459 105.182C458.967 106.076 460.406 107.141 462.419 107.357C464.43 107.563 466.001 106.814 466.631 106.039C467.299 105.245 467.128 104.526 466.621 104.227Z" fill="#54132A"/>
<path d="M469.525 118.727L467.096 118.526C465.343 118.38 464.041 116.503 464.191 114.333L464.21 114.056C464.28 113.06 464.988 112.307 465.793 112.374C467.176 112.489 468.392 111.194 468.51 109.484L468.773 105.391" fill="#E9B98A"/>
<path d="M469.525 119.218C469.514 119.218 469.502 119.218 469.491 119.217L467.063 119.015C465.066 118.849 463.578 116.732 463.746 114.297L463.767 114.018C463.811 113.377 464.078 112.777 464.501 112.377C464.878 112.02 465.357 111.847 465.826 111.883C466.353 111.924 466.895 111.707 467.316 111.26C467.75 110.797 468.016 110.154 468.065 109.447L468.328 105.355C468.346 105.086 468.563 104.89 468.804 104.899C469.051 104.919 469.235 105.154 469.219 105.424L468.956 109.517C468.89 110.467 468.529 111.337 467.935 111.966C467.329 112.611 466.563 112.931 465.758 112.863C465.519 112.842 465.28 112.935 465.083 113.121C464.838 113.353 464.682 113.707 464.657 114.092L464.637 114.371C464.507 116.266 465.625 117.91 467.131 118.034L469.559 118.236C469.804 118.257 469.989 118.493 469.971 118.763C469.952 119.022 469.756 119.218 469.525 119.218Z" fill="#FF755F"/>
<path d="M547.821 220.845L522.522 163.446L522.487 163.501C519.146 156.758 513.008 151.874 505.632 150.9L493.978 150.076L474.926 155.485L466.586 148.141L451.824 153.913L451.896 150.985C451.926 149.77 451.163 148.707 450.083 148.458L428.035 143.367C427.458 143.233 426.904 143.665 426.835 144.309C426.349 148.775 425.72 155.499 425.264 159.499C424.481 166.362 423.698 173.224 422.915 180.088C421.962 188.434 419.506 202.609 422.598 210.797C427.101 222.728 435.906 229 442.864 225.469C445.583 224.089 447.729 217.963 449.129 211.541L449.086 279.067L512.889 279.017L512.549 280.604C512.067 282.864 513.159 285.172 515.117 286.034L530.076 292.616C532.368 293.625 534.945 292.21 535.591 289.588L549.062 235.001C550.23 230.274 549.788 225.241 547.821 220.845Z" fill="#60A2F4"/>
<path d="M489.807 154.918H464.428V279.234H489.807V154.918Z" fill="white"/>
<path d="M512.761 279.507C512.715 279.507 512.669 279.502 512.622 279.489C512.302 279.405 512.105 279.052 512.182 278.699L521.335 236.599L501.54 188.614C501.404 188.285 501.536 187.896 501.835 187.747C502.136 187.599 502.487 187.743 502.623 188.072L522.587 236.467L513.338 279.003C513.275 279.306 513.031 279.507 512.761 279.507Z" fill="#2D7FC9"/>
<path d="M447.35 158.272C447.04 158.272 446.734 158.194 446.45 158.041C445.958 157.776 445.588 157.317 445.411 156.745C445.233 156.176 445.268 155.562 445.508 155.021C445.748 154.48 446.167 154.074 446.684 153.878C447.203 153.682 447.759 153.719 448.251 153.984C448.744 154.248 449.113 154.708 449.29 155.279C449.468 155.849 449.433 156.461 449.193 157.002C448.953 157.545 448.535 157.951 448.018 158.147C447.8 158.231 447.574 158.272 447.35 158.272ZM447.352 155.065C447.258 155.065 447.164 155.082 447.072 155.117C446.853 155.2 446.68 155.37 446.578 155.596C446.477 155.824 446.462 156.083 446.538 156.321C446.613 156.561 446.766 156.753 446.974 156.865C447.18 156.976 447.413 156.993 447.632 156.909C447.85 156.827 448.024 156.658 448.125 156.43C448.226 156.202 448.241 155.944 448.165 155.705C448.09 155.465 447.937 155.273 447.73 155.162C447.611 155.097 447.481 155.065 447.352 155.065Z" fill="#2D7FC9"/>
<path d="M449.171 165.738C449.143 165.738 449.113 165.736 449.084 165.731L433.526 163.224C433.201 163.171 432.974 162.838 433.022 162.481C433.071 162.122 433.378 161.87 433.697 161.928L449.256 164.435C449.581 164.488 449.807 164.821 449.759 165.178C449.715 165.503 449.462 165.738 449.171 165.738Z" fill="#2D7FC9"/>
<path d="M452.878 190.39C452.555 190.39 452.29 190.106 452.283 189.75L451.532 150.988C451.518 150.242 451.289 149.735 450.193 149.503L447.125 149.007C446.8 148.954 446.574 148.622 446.622 148.264C446.67 147.906 446.987 147.659 447.297 147.711L450.392 148.212C451.918 148.534 452.694 149.457 452.722 150.96L453.474 189.722C453.481 190.084 453.22 190.384 452.891 190.392C452.887 190.39 452.882 190.39 452.878 190.39Z" fill="#2D7FC9"/>
<path d="M532.612 287.444C531.481 287.444 530.561 286.431 530.561 285.185C530.561 283.941 531.481 282.928 532.612 282.928C533.743 282.928 534.664 283.939 534.664 285.185C534.663 286.431 533.743 287.444 532.612 287.444ZM532.612 284.239C532.138 284.239 531.751 284.664 531.751 285.187C531.751 285.709 532.137 286.135 532.612 286.135C533.087 286.135 533.474 285.711 533.474 285.187C533.472 284.664 533.087 284.239 532.612 284.239Z" fill="#2D7FC9"/>
<path d="M537.864 278.573C537.803 278.573 537.743 278.563 537.683 278.543L522.704 273.277C522.391 273.167 522.218 272.799 522.318 272.453C522.42 272.108 522.753 271.922 523.067 272.028L538.046 277.295C538.359 277.405 538.532 277.773 538.432 278.119C538.35 278.395 538.116 278.573 537.864 278.573Z" fill="#2D7FC9"/>
<path d="M469.662 163.881L475.032 155.593L474.927 155.484L475.305 155.169L475.319 155.15L466.021 142.827C465.23 141.778 463.879 142.424 463.717 143.93L462.793 152.485L467.559 163.636C467.932 164.508 468.743 164.725 469.345 164.231C469.457 164.138 469.566 164.028 469.662 163.881Z" fill="#F8F8EE"/>
<path d="M474.927 155.485L475.032 155.594L482.993 163.772L483.861 164.665C484.707 165.534 486.171 165.495 486.937 164.582L496.539 153.126L492.424 142.662C492.183 142.05 491.365 141.85 490.851 142.277L475.307 155.172L474.927 155.485Z" fill="#F8F8EE"/>
<path d="M482.993 163.772L475.032 155.594L469.662 163.883C469.568 164.028 469.458 164.139 469.344 164.232L470.907 169.191C471.208 170.198 471.632 171.029 472.127 171.723L467.012 216.666C466.914 217.523 467.051 218.393 467.406 219.163L472.819 230.917C473.481 232.356 474.813 233.27 476.278 233.291L477.891 233.315C479.541 233.34 481.03 232.229 481.621 230.533L485.496 219.415C485.734 218.732 485.811 217.993 485.72 217.269L480.041 172.122C480.746 171.283 481.328 170.185 481.688 168.803L482.993 163.772Z" fill="#111111"/>
<path d="M479.459 172.773C479.454 172.773 479.448 172.773 479.443 172.773L472.474 172.572C472.145 172.563 471.885 172.262 471.894 171.9C471.902 171.54 472.22 171.253 472.504 171.262L479.473 171.463C479.802 171.472 480.061 171.773 480.053 172.135C480.046 172.491 479.78 172.773 479.459 172.773Z" fill="#FDFDFD"/>
</svg>
