<svg width="620" height="455" viewBox="0 0 620 455" fill="none" xmlns="http://www.w3.org/2000/svg">
<path d="M158.843 93.7664C152.369 83.8535 143.453 84.5561 143.453 84.5561C124.215 83.4561 123.311 104.461 123.931 108.391C124.093 109.42 124.263 110.365 124.443 111.256C122.86 110.505 120.88 110.715 118.484 112.474C113.185 116.363 113.601 139.143 127.463 129.344C128.199 128.824 128.713 127.676 129.002 126.197C129.048 126.339 129.094 126.479 129.141 126.624C130.401 130.512 148.208 139.445 157.804 120.942C161.214 114.364 165.317 103.679 158.843 93.7664Z" fill="#111111"/>
<path d="M134.068 117.709C134.068 117.709 125.791 137.47 124.792 138.097C110.251 147.232 109.925 156.524 108.435 155.941C106.944 155.357 128.352 166.786 128.352 166.786L142.207 168.505L145.594 156.557C145.594 156.557 138.552 149.096 137.991 145.763C137.43 142.431 145.109 128.118 145.109 128.118L134.068 117.709Z" fill="#F0BF9C"/>
<path d="M142.54 169.219L128.234 167.444L128.166 167.408C128.166 167.408 123.157 164.733 118.152 162.037C115.246 160.472 112.932 159.218 111.275 158.309C110.337 157.794 109.556 157.362 109.011 157.053C107.973 156.463 107.726 156.323 107.887 155.703C107.903 155.64 108.059 155.097 108.576 155.299C108.712 155.227 109.094 154.447 109.431 153.759C110.982 150.596 114.206 144.015 124.556 137.507C125.403 136.608 130.563 124.707 133.631 117.382L133.903 116.734L145.811 127.961L145.517 128.508C142.599 133.948 138.108 143.403 138.48 145.616C138.908 148.161 143.986 153.999 145.906 156.033L146.193 156.337L142.54 169.219ZM128.471 166.129L141.873 167.792L144.997 156.775C143.537 155.2 138.037 149.092 137.502 145.909C136.957 142.669 142.636 131.622 144.41 128.277L134.234 118.683C131.588 124.984 126.002 138.077 125.005 138.703C114.894 145.054 111.771 151.428 110.269 154.491C109.998 155.045 109.762 155.527 109.529 155.893C112.479 157.557 121.9 162.62 128.471 166.129ZM124.578 137.493C124.577 137.493 124.577 137.493 124.576 137.494C124.577 137.493 124.577 137.493 124.579 137.492L124.578 137.493Z" fill="#111111"/>
<path d="M132.626 121.365C131.613 118.468 130.021 112.982 131.303 109.939C132.584 106.897 134.968 109.319 135.529 110.423C135.903 111.157 142.186 95.8367 142.186 95.8367L160.006 108.675C160.006 108.675 156.707 123.561 152.33 131.278C147.934 139.028 144.123 138.852 139.502 135.452C137.213 133.768 135.757 131.696 134.803 129.622L132.626 121.365Z" fill="#F0BF9C"/>
<path d="M144.786 138.355C142.858 138.355 141.022 137.334 139.26 136.039C137.16 134.493 135.517 132.453 134.376 129.973C134.232 129.658 134.305 129.245 134.541 129.052C134.777 128.859 135.085 128.958 135.23 129.272C136.279 131.553 137.798 133.434 139.744 134.866C144.066 138.046 147.612 138.488 151.93 130.875C155.746 124.148 158.779 111.69 159.406 109.003L142.387 96.7412C136.5 111.057 135.91 111.096 135.592 111.116C135.396 111.125 135.222 111.009 135.115 110.798C134.797 110.174 133.796 109.082 132.911 109.132C132.433 109.16 132.05 109.531 131.739 110.268C130.892 112.279 131.381 116.221 133.079 121.082C133.196 121.417 133.088 121.814 132.837 121.971C132.587 122.128 132.288 121.983 132.171 121.648C130.852 117.874 129.555 112.723 130.866 109.612C131.473 108.17 132.29 107.829 132.869 107.796C133.91 107.73 134.978 108.64 135.598 109.49C136.554 107.822 139.345 101.371 141.747 95.5158L141.986 94.9324L160.602 108.344L160.486 108.865C160.351 109.478 157.111 123.957 152.729 131.683C149.905 136.661 147.269 138.355 144.786 138.355Z" fill="#111111"/>
<path d="M160.45 109.486C160.45 109.486 143.577 102.812 135.866 110.455C135.866 110.455 135.154 109.072 134.417 108.574C133.467 107.933 132.961 108.08 132.961 108.08L141.753 91.8276L160.45 109.486Z" fill="#111111"/>
<path d="M119.379 139.935C115.459 137.234 89.542 174.683 83.7425 190.127C71.8763 221.726 104.646 214.408 104.646 214.408L100.206 176.739L102.446 231.679L137.232 234.756L145.415 184.36C145.415 184.36 146.37 214.531 158.949 214.531C166.492 214.531 177.165 214.531 177.165 214.531L178.265 200.785L160.449 198.036C160.449 198.036 157.442 166.512 149.833 155.99C146.242 151.024 143.287 148.1 141.738 147.596C137.072 146.077 139.288 153.647 119.379 139.935Z" fill="#F8E643"/>
<path d="M152.58 122.59C152.467 122.59 152.352 122.56 152.242 122.495C151.82 122.245 151.63 121.586 151.817 121.023L152.086 120.214C152.273 119.651 152.766 119.397 153.188 119.647C153.61 119.897 153.8 120.556 153.613 121.119L153.344 121.928C153.206 122.343 152.9 122.59 152.58 122.59Z" fill="#111111"/>
<path d="M143.608 117.424C143.495 117.424 143.38 117.393 143.27 117.328C142.849 117.078 142.658 116.419 142.846 115.856L143.114 115.047C143.301 114.484 143.795 114.23 144.216 114.48C144.638 114.73 144.828 115.389 144.641 115.952L144.372 116.761C144.234 117.177 143.928 117.424 143.608 117.424Z" fill="#111111"/>
<path d="M148.21 113.469C148.055 113.469 147.903 113.374 147.805 113.194C147.735 113.069 146.165 110.312 142.856 110.881C142.584 110.93 142.331 110.67 142.295 110.303C142.26 109.937 142.454 109.601 142.728 109.554C146.65 108.877 148.536 112.263 148.615 112.407C148.777 112.706 148.727 113.124 148.503 113.342C148.414 113.428 148.312 113.469 148.21 113.469Z" fill="#111111"/>
<path d="M149.415 126.494C148.945 126.494 148.169 126.286 146.869 125.569C146.613 125.428 146.491 125.037 146.597 124.695C146.702 124.354 146.994 124.191 147.251 124.332C148.089 124.793 149.004 125.147 149.382 125.167C149.378 125.016 149.359 124.789 149.342 124.582C149.26 123.616 149.123 121.999 149.503 119.353C149.84 117.007 150.332 115.657 151.049 115.104C151.621 114.664 152.183 114.843 152.557 115.017C154.702 116.016 156.247 118.763 156.312 118.879C156.477 119.176 156.43 119.594 156.209 119.814C155.987 120.034 155.673 119.974 155.507 119.677C155.493 119.652 154.076 117.142 152.227 116.281C151.917 116.137 151.72 116.132 151.549 116.264C151.305 116.452 150.842 117.136 150.488 119.605C150.136 122.051 150.262 123.541 150.338 124.431C150.398 125.146 150.445 125.711 150.145 126.15C150.069 126.264 149.911 126.494 149.415 126.494Z" fill="#111111"/>
<path d="M145.314 212.26C141.26 211.796 123.892 214.931 123.892 214.931L125.356 202.403C125.356 202.403 144.304 206.709 145.737 206.159C148.427 205.125 152.285 204.655 155.465 204.489C159.672 204.27 166.48 207.133 166.417 208.66C166.383 209.483 157.855 207.978 156.403 208.756C152.305 210.951 148.203 212.592 145.314 212.26Z" fill="#F0BF9C"/>
<path d="M123.293 215.714L124.94 201.63L125.441 201.744C132.675 203.388 144.546 205.865 145.601 205.515C148.154 204.535 152.017 203.999 155.446 203.821C159.077 203.631 165.488 206.084 166.541 207.514C166.874 207.965 166.93 208.407 166.917 208.696C166.874 209.74 165.817 209.764 163.262 209.821C161.842 209.853 157.212 209.044 156.59 209.377C155.933 209.729 155.284 210.088 154.645 210.441C151.294 212.295 147.818 213.221 145.271 212.927C141.318 212.474 124.132 215.563 123.959 215.594L123.293 215.714ZM125.773 203.177L124.491 214.15C127.761 213.572 141.702 211.174 145.357 211.594C147.663 211.855 151.026 210.994 154.262 209.205C154.904 208.849 155.557 208.489 156.217 208.134C157.011 207.71 161.588 208.52 163.246 208.483C164.098 208.464 165.199 208.439 165.76 208.336C165.079 207.601 159.369 204.959 155.485 205.158C152.132 205.332 148.358 205.848 145.876 206.802C144.471 207.342 129.852 204.098 125.773 203.177Z" fill="#111111"/>
<path d="M232.668 163.412L224.029 210.117H173.573L183.788 163.412H232.668Z" fill="#344B7E"/>
<path d="M224.438 210.815H172.875L183.396 162.713H233.336L224.438 210.815ZM174.27 209.418H223.619L232 164.11H184.18L174.27 209.418Z" fill="#111111"/>
<path d="M223.983 210.116H158.45V214.531H223.983V210.116Z" fill="#423E49"/>
<path d="M224.485 215.2H157.949V209.447H224.485V215.2ZM158.951 213.862H223.482V210.785H158.951V213.862Z" fill="#1B2746"/>
<path d="M198.962 188.114C198.729 191.732 200.33 194.87 202.537 195.123C204.745 195.376 206.722 192.647 206.955 189.029C207.187 185.411 205.587 182.273 203.379 182.02C201.172 181.767 199.194 184.495 198.962 188.114Z" fill="#423E49"/>
<path d="M202.825 195.809C202.715 195.809 202.605 195.802 202.495 195.789C200.016 195.505 198.207 192.036 198.463 188.056C198.585 186.153 199.156 184.411 200.07 183.15C201.011 181.851 202.2 181.213 203.422 181.353C204.643 181.493 205.734 182.393 206.496 183.886C207.236 185.336 207.576 187.183 207.454 189.086C207.332 190.989 206.761 192.732 205.847 193.993C204.991 195.174 203.928 195.809 202.825 195.809ZM203.095 182.672C202.264 182.672 201.454 183.165 200.79 184.08C200.036 185.121 199.564 186.574 199.461 188.171C199.253 191.415 200.652 194.235 202.58 194.456C203.494 194.559 204.399 194.065 205.126 193.062C205.881 192.021 206.353 190.569 206.455 188.972C206.558 187.374 206.278 185.836 205.667 184.639C205.079 183.484 204.251 182.791 203.336 182.686C203.256 182.677 203.175 182.672 203.095 182.672Z" fill="white"/>
<path d="M115.341 141.116L121.815 136.821L132.413 146.236L127.807 151.132L115.341 141.116Z" fill="#F8E643"/>
<path d="M145.143 149.913L142.086 143.34L132.413 146.236L134.924 152.589L145.143 149.913Z" fill="#F8E643"/>
<path d="M145.951 150.383L142.325 142.582L132.513 145.52L121.852 136.05L114.3 141.06L127.847 151.944L131.898 147.639C131.44 157.711 128.583 217.744 124.925 233.526C124.851 233.845 124.985 234.183 125.224 234.281C125.268 234.299 125.313 234.308 125.357 234.308C125.55 234.308 125.728 234.142 125.789 233.883C129.386 218.363 132.199 160.741 132.762 148.55L134.656 153.34L145.951 150.383ZM127.768 150.319L116.383 141.173L121.779 137.593L131.563 146.285L127.768 150.319ZM141.849 144.096L144.335 149.443L135.194 151.836L133.162 146.697L141.849 144.096Z" fill="#111111"/>
<path d="M99.6958 192.33L132.033 200.063L128.266 214.931C128.266 214.931 105.871 215.796 101.077 214.931C92.1511 213.321 82.6094 202.823 82.6094 202.823L99.6958 192.33Z" fill="#F8E643"/>
<path d="M128.464 214.773C128.414 214.773 128.364 214.762 128.314 214.74C128.07 214.629 127.939 214.275 128.022 213.949L131.412 200.564L101.692 194.272L110.163 175.224C110.295 174.928 110.581 174.831 110.803 175.006C111.025 175.182 111.098 175.564 110.967 175.861L103.199 193.328L132.653 199.564L128.907 214.349C128.841 214.608 128.659 214.773 128.464 214.773Z" fill="#111111"/>
<path d="M142.345 125.833C142.345 125.833 144.629 133.473 148.656 129.586C148.656 129.586 147.984 128.014 146.291 127.986C146.291 127.986 145.056 126.344 142.345 125.833Z" fill="#F8E643"/>
<path d="M266.429 453.331H58.268L36.7217 214.529H288.766L266.429 453.331Z" fill="#CEDBEA"/>
<path d="M267.436 454H58.3886L36.7217 213.86H289.899L289.828 214.612L267.436 454ZM59.2775 452.662H266.551L288.763 215.198H37.8515L59.2775 452.662Z" fill="#1B2746"/>
<path d="M460.918 324.091H362.81C356.543 324.091 351.463 317.308 351.463 308.941V256.113C351.463 247.746 356.543 240.963 362.81 240.963H460.918C467.184 240.963 472.265 247.746 472.265 256.113V308.941C472.265 317.308 467.184 324.091 460.918 324.091Z" fill="#423E49"/>
<path d="M581.721 324.091H483.613C477.346 324.091 472.267 317.308 472.267 308.941V256.113C472.267 247.746 477.346 240.963 483.613 240.963H581.721C587.988 240.963 593.068 247.746 593.068 256.113V308.941C593.068 317.308 587.988 324.091 581.721 324.091Z" fill="#423E49"/>
<path d="M347.358 375.663H334.997C332.729 375.663 330.891 373.208 330.891 370.18V296.337C330.891 293.309 332.729 290.854 334.997 290.854H347.358C349.626 290.854 351.464 293.309 351.464 296.337V370.18C351.464 373.208 349.626 375.663 347.358 375.663Z" fill="#423E49"/>
<path d="M609.534 375.663H597.173C594.905 375.663 593.066 373.208 593.066 370.18V296.337C593.066 293.309 594.905 290.854 597.173 290.854H609.534C611.802 290.854 613.64 293.309 613.64 296.337V370.18C613.64 373.208 611.802 375.663 609.534 375.663Z" fill="#423E49"/>
<path d="M587.235 365.349H357.293C354.073 365.349 351.463 361.864 351.463 357.565V331.876C351.463 327.577 354.073 324.092 357.293 324.092H587.235C590.455 324.092 593.065 327.577 593.065 331.876V357.565C593.065 361.864 590.455 365.349 587.235 365.349Z" fill="#423E49"/>
<path d="M609.534 290.185H597.174C595.714 290.185 594.413 291.099 593.568 292.518V256.114C593.568 247.39 588.254 240.294 581.72 240.294H483.612C478.263 240.294 473.732 245.054 472.266 251.566C470.799 245.053 466.269 240.294 460.919 240.294H362.811C356.278 240.294 350.963 247.39 350.963 256.114V292.518C350.119 291.099 348.818 290.185 347.358 290.185H334.997C332.457 290.185 330.39 292.945 330.39 296.337V370.18C330.39 373.572 332.457 376.332 334.997 376.332H347.358C349.898 376.332 351.966 373.572 351.966 370.18V362.111C353.092 364.457 355.057 366.019 357.294 366.019H587.237C589.474 366.019 591.439 364.457 592.566 362.111V370.18C592.566 373.572 594.633 376.332 597.173 376.332H609.534C612.075 376.332 614.142 373.572 614.142 370.18V296.337C614.142 292.945 612.075 290.185 609.534 290.185ZM472.767 256.114C472.767 248.128 477.632 241.632 483.613 241.632H581.721C587.701 241.632 592.566 248.128 592.566 256.114V296.337V308.941C592.566 316.926 587.701 323.422 581.721 323.422H483.613C477.633 323.422 472.767 316.926 472.767 308.941V256.114ZM592.566 327.33C591.44 324.984 589.474 323.422 587.237 323.422H586.469C589.183 321.828 591.37 318.921 592.566 315.298V327.33ZM478.848 323.422H465.684C468.831 321.569 471.264 317.938 472.266 313.488C473.268 317.938 475.701 321.569 478.848 323.422ZM351.966 296.337V256.113C351.966 248.128 356.831 241.631 362.811 241.631H460.919C466.9 241.631 471.765 248.128 471.765 256.113V308.941C471.765 316.925 466.9 323.422 460.919 323.422H362.811C356.831 323.422 351.966 316.926 351.966 308.941V296.337ZM358.063 323.422H357.295C355.057 323.422 353.092 324.984 351.966 327.329V315.298C353.162 318.921 355.349 321.828 358.063 323.422ZM350.964 370.18C350.964 372.834 349.346 374.994 347.358 374.994H334.997C333.009 374.994 331.392 372.834 331.392 370.18V296.337C331.392 293.682 333.009 291.523 334.997 291.523H347.358C349.346 291.523 350.964 293.682 350.964 296.337V308.941V331.876V357.565V370.18ZM587.237 364.681H357.295C354.356 364.681 351.966 361.488 351.966 357.565V331.876C351.966 327.953 354.356 324.76 357.295 324.76H362.811H460.919H483.613H581.721H587.237C590.176 324.76 592.566 327.953 592.566 331.876V357.565C592.566 361.488 590.175 364.681 587.237 364.681ZM613.14 370.18C613.14 372.834 611.522 374.994 609.534 374.994H597.174C595.186 374.994 593.568 372.834 593.568 370.18V357.565V331.876V308.941V296.337C593.568 293.682 595.186 291.523 597.174 291.523H609.534C611.522 291.523 613.14 293.682 613.14 296.337V370.18Z" fill="#1B2746"/>
<path d="M366.935 365.349L351.38 453.331H359.745L375.823 365.349H366.935Z" fill="#111111"/>
<path d="M578.663 365.349L594.217 453.331H585.852L569.774 365.349H578.663Z" fill="#111111"/>
<path d="M389.105 269.715C390.52 268.932 391.192 266.766 390.606 264.877C390.02 262.987 388.398 262.09 386.982 262.872C385.567 263.655 384.895 265.821 385.481 267.711C386.068 269.601 387.69 270.498 389.105 269.715Z" fill="#111111"/>
<path d="M390.777 301.267C391.022 299.248 389.996 297.346 388.484 297.018C386.972 296.69 385.547 298.061 385.302 300.08C385.056 302.099 386.083 304.001 387.595 304.329C389.107 304.657 390.532 303.286 390.777 301.267Z" fill="#111111"/>
<path d="M435.48 268.912C436.563 267.466 436.563 265.121 435.48 263.675C434.397 262.229 432.641 262.229 431.558 263.675C430.475 265.121 430.475 267.466 431.558 268.912C432.641 270.359 434.397 270.359 435.48 268.912Z" fill="#111111"/>
<path d="M436.224 301.576C436.576 299.586 435.653 297.591 434.162 297.121C432.672 296.651 431.178 297.884 430.826 299.874C430.474 301.865 431.397 303.859 432.888 304.329C434.378 304.799 435.872 303.567 436.224 301.576Z" fill="#111111"/>
<path d="M510.202 300.626C510.554 298.636 509.631 296.641 508.14 296.171C506.649 295.701 505.155 296.934 504.803 298.924C504.451 300.915 505.374 302.909 506.865 303.379C508.356 303.849 509.85 302.617 510.202 300.626Z" fill="#111111"/>
<path d="M542.929 146.141C544.717 143.408 551.134 141.061 555.378 141.447C557.947 141.68 569.938 163.009 572.705 181.29C574.692 194.424 567.976 206.265 567.976 206.265C567.976 206.265 533.312 217.755 536.612 214.04C545.073 204.518 538.108 180.978 538.108 180.978C538.108 180.978 538.793 152.469 542.929 146.141Z" fill="#111111"/>
<path d="M563.559 175.006C563.559 175.006 563.43 196.948 564.086 198.074C566.327 201.926 569.488 205.288 570.951 205.746C572.414 206.204 568.364 234.092 568.364 234.092L543.339 222.732L539.822 207.712C539.822 207.712 546.937 203.965 548.599 201.517C550.261 199.069 550.549 176.738 550.549 176.738L563.559 175.006Z" fill="#F0BF9C"/>
<path d="M568.746 234.973L542.937 223.257L539.205 207.318L539.638 207.09C541.587 206.063 546.929 202.98 548.227 201.067C549.346 199.42 549.937 185.263 550.047 176.727L550.055 176.131L564.065 174.266L564.06 175.011C564.001 185.143 564.136 196.488 564.501 197.697C566.687 201.442 569.765 204.688 571.065 205.094C571.674 205.285 572.433 205.522 570.7 220.195C569.879 227.156 568.865 234.15 568.855 234.219L568.746 234.973ZM543.742 222.209L567.981 233.212C569.718 221.126 571.163 208.143 570.693 206.347C568.972 205.669 565.819 202.143 563.69 198.485C563.047 197.379 563.012 184.098 563.054 175.746L551.042 177.345C550.978 181.415 550.605 199.558 548.97 201.967C547.475 204.169 542.034 207.235 540.439 208.103L543.742 222.209Z" fill="#111111"/>
<path d="M562.37 178.067C563.88 175.723 566.439 171.17 565.842 167.889C565.245 164.607 562.55 166.029 561.811 166.861C561.319 167.415 558.471 150.951 558.471 150.951L539.358 156.678C539.358 156.678 539.512 171.695 542.075 180.412C544.65 189.166 548.234 190.335 553.204 188.784C555.666 188.015 557.428 186.594 558.723 184.997L562.37 178.067Z" fill="#F0BF9C"/>
<path d="M549.911 190.044C546.755 190.044 543.779 188.039 541.608 180.657C539.04 171.927 538.862 157.305 538.856 156.687L538.851 156.144L558.846 150.152L558.958 150.8C560.042 157.065 561.371 164.021 561.938 165.938C562.685 165.366 563.848 164.905 564.808 165.324C565.344 165.559 566.043 166.166 566.328 167.731C566.941 171.097 564.72 175.447 562.749 178.503C562.569 178.784 562.252 178.815 562.043 178.574C561.833 178.333 561.809 177.91 561.99 177.63C564.522 173.704 565.748 170.211 565.354 168.048C565.211 167.26 564.93 166.786 564.497 166.597C563.694 166.246 562.549 166.906 562.133 167.374C561.987 167.538 561.792 167.588 561.611 167.507C561.259 167.35 560.982 167.227 559.413 158.978C558.848 156.008 558.32 153.028 558.095 151.749L539.869 157.211C539.927 159.969 540.313 172.589 542.541 180.168C545.066 188.753 548.45 189.579 553.089 188.132C555.18 187.479 556.96 186.259 558.382 184.505C558.585 184.254 558.902 184.271 559.09 184.542C559.278 184.813 559.265 185.237 559.062 185.487C557.511 187.401 555.579 188.729 553.318 189.435C552.178 189.79 551.033 190.044 549.911 190.044Z" fill="#111111"/>
<path d="M544.17 173.538C543.783 173.538 543.435 173.175 543.353 172.649L543.223 171.811C543.129 171.208 543.419 170.618 543.87 170.492C544.323 170.368 544.764 170.754 544.858 171.357L544.988 172.195C545.082 172.798 544.792 173.389 544.341 173.514C544.283 173.53 544.226 173.538 544.17 173.538Z" fill="#111111"/>
<path d="M553.082 170.067C552.673 170.067 552.316 169.666 552.256 169.111L552.165 168.263C552.099 167.654 552.416 167.089 552.872 167.001C553.332 166.915 553.752 167.337 553.818 167.945L553.909 168.793C553.975 169.402 553.658 169.967 553.202 170.055C553.161 170.063 553.121 170.067 553.082 170.067Z" fill="#111111"/>
<path d="M550.598 165.268C550.399 165.268 550.211 165.109 550.132 164.846C550.03 164.503 550.155 164.114 550.413 163.977C550.523 163.919 553.124 162.567 555.394 163.967C555.645 164.122 555.755 164.52 555.638 164.855C555.522 165.191 555.224 165.337 554.973 165.182C553.09 164.021 550.806 165.209 550.783 165.221C550.723 165.253 550.66 165.268 550.598 165.268Z" fill="#111111"/>
<path d="M548.361 177.095C547.818 177.095 547.079 176.825 546.792 176.574C546.327 176.169 546.388 175.624 546.418 175.466C546.796 173.472 546.79 172.819 546.781 171.992C546.777 171.591 546.773 171.138 546.812 170.5C546.834 170.132 547.082 169.86 547.351 169.888C547.627 169.918 547.833 170.241 547.81 170.609C547.776 171.183 547.779 171.585 547.783 171.974C547.792 172.825 547.799 173.565 547.44 175.524C547.678 175.655 548.164 175.767 548.395 175.767C548.404 175.762 548.414 175.757 548.423 175.753C548.684 175.633 548.97 175.819 549.06 176.169C549.129 176.439 549.057 176.758 548.887 176.933C548.777 177.048 548.586 177.095 548.361 177.095Z" fill="#111111"/>
<path d="M542.185 169.161C542.067 169.161 541.948 169.105 541.853 168.992C541.647 168.747 541.627 168.328 541.81 168.051C541.868 167.963 543.276 165.881 545.977 165.881C546.253 165.881 546.478 166.18 546.478 166.55C546.478 166.92 546.253 167.219 545.977 167.219C543.747 167.219 542.607 168.869 542.559 168.94C542.46 169.086 542.323 169.161 542.185 169.161Z" fill="#111111"/>
<path d="M469.084 363.265L456.834 431.999L442.147 449.953L465.705 442.257L464.796 431.181L485.12 363.265H469.084Z" fill="#F0BF9C"/>
<path d="M440.423 451.183L456.397 431.655L468.701 362.618H485.836L485.571 363.505L465.291 431.272L466.234 442.75L440.423 451.183ZM469.468 363.913L457.272 432.342L443.873 448.723L465.177 441.762L464.301 431.092L464.346 430.941L484.404 363.912L469.468 363.913Z" fill="#111111"/>
<path d="M500.487 363.265L502.721 431.999L488.034 449.953L511.066 442.218L510.683 431.181L516.418 363.265H500.487Z" fill="#F0BF9C"/>
<path d="M486.29 451.206L502.226 431.725L499.98 362.617H516.96L511.168 431.203L511.569 442.717L486.29 451.206ZM500.994 363.912L503.215 432.272L489.777 448.699L510.563 441.719L510.196 431.16L510.2 431.109L515.874 363.912H500.994Z" fill="#111111"/>
<path d="M512.225 435.199C513.315 445.979 510.919 452.792 510.919 452.792H508.854L508.244 444.8L500.491 452.855L483.846 452.8V450.289C483.846 450.289 489.649 444.957 490.275 446.662C492.2 451.916 511.611 429.13 512.225 435.199Z" fill="#111111"/>
<path d="M466.338 435.199C467.428 445.979 465.035 452.792 465.035 452.792H462.97L462.357 444.8L454.731 452.855L437.959 452.8V450.289C437.959 450.289 443.763 444.957 444.387 446.662C446.313 451.916 465.724 429.13 466.338 435.199Z" fill="#111111"/>
<path d="M466.623 366.982C466.623 366.982 472.534 349.295 474.653 344.719C481.524 329.883 522.492 286.772 522.492 286.772L524.159 272.519L557.647 274.518L554.68 283.377C554.68 283.377 566.45 302.982 562.621 322.823C559.975 336.528 519 360.244 519 360.244C518.76 366.339 518.124 368.453 518.124 368.453L466.623 366.982Z" fill="#111111"/>
<path d="M569.774 203.196C573.987 202.284 582.391 239.705 580.22 256.164C576.071 287.633 563.844 260.58 563.844 260.58L559.223 276.133L523.177 273.47L529.367 230.866C529.367 230.866 502.661 272.558 495.756 258.736C491.707 250.631 530.165 203.179 544.041 203.201C547.153 203.206 543.41 210.141 551.869 213.381C556.038 214.979 561.797 204.921 569.774 203.196Z" fill="#F8E643"/>
<path d="M596.534 266.446C596.447 266.446 596.36 266.399 596.297 266.306C596.177 266.131 596.186 265.86 596.317 265.7C598.149 263.46 598.676 262.702 598.644 260.156C598.615 257.862 597.753 256.886 596.841 255.853C596.128 255.045 595.391 254.21 595.014 252.755C594.121 249.299 597.578 246.094 597.725 245.959C597.871 245.825 598.071 245.875 598.172 246.071C598.272 246.267 598.235 246.534 598.088 246.668C598.056 246.697 594.889 249.637 595.622 252.476C595.941 253.709 596.58 254.432 597.257 255.198C598.238 256.31 599.254 257.459 599.287 260.143C599.323 263.04 598.664 263.996 596.751 266.334C596.689 266.408 596.612 266.446 596.534 266.446Z" fill="#111111"/>
<path d="M605.734 266.446C605.647 266.446 605.56 266.399 605.497 266.306C605.377 266.131 605.386 265.86 605.517 265.7C607.349 263.46 607.876 262.702 607.844 260.156C607.816 257.862 606.954 256.887 606.041 255.853C605.328 255.045 604.591 254.21 604.215 252.755C603.322 249.299 606.778 246.094 606.925 245.96C607.072 245.825 607.271 245.875 607.372 246.071C607.472 246.267 607.435 246.534 607.288 246.668C607.256 246.698 604.089 249.637 604.823 252.476C605.141 253.709 605.78 254.432 606.457 255.198C607.438 256.31 608.454 257.459 608.487 260.143C608.523 263.041 607.864 263.997 605.951 266.334C605.889 266.408 605.811 266.446 605.734 266.446Z" fill="#111111"/>
<path d="M600.816 264.148C600.729 264.148 600.642 264.101 600.579 264.009C600.459 263.834 600.468 263.562 600.599 263.402C602.431 261.164 602.958 260.405 602.926 257.859C602.898 255.565 602.036 254.589 601.123 253.556C600.41 252.748 599.673 251.913 599.297 250.458C598.404 247.001 601.86 243.797 602.007 243.663C602.154 243.529 602.353 243.578 602.454 243.774C602.554 243.97 602.517 244.237 602.37 244.371C602.338 244.4 599.171 247.34 599.904 250.179C600.223 251.411 600.862 252.135 601.539 252.901C602.52 254.013 603.536 255.162 603.569 257.845C603.605 260.744 602.946 261.699 601.033 264.036C600.971 264.111 600.893 264.148 600.816 264.148Z" fill="#111111"/>
<path d="M617.555 273.18C617.2 272.411 616.693 271.946 616.046 271.8C614.851 271.528 613.411 272.431 612.395 273.254V269.763H591.689V278.787C591.689 285.118 595.533 290.25 600.274 290.25H603.811C606.847 290.25 609.513 288.143 611.039 284.967C613.479 284.928 615.683 283.204 617.01 280.253C618.133 277.754 618.352 274.911 617.555 273.18ZM616.459 279.812C615.321 282.342 613.478 283.886 611.422 284.089C612.042 282.503 612.396 280.7 612.396 278.787V274.268C613.323 273.459 614.809 272.388 615.938 272.647C616.401 272.751 616.751 273.073 617.007 273.629C617.672 275.072 617.446 277.614 616.459 279.812Z" fill="#F8E643"/>
<path d="M598.591 286.851C598.515 286.851 598.437 286.829 598.364 286.779C593.569 283.521 594.143 273.612 594.17 273.192C594.194 272.824 594.44 272.55 594.712 272.583C594.987 272.614 595.192 272.937 595.169 273.306C595.163 273.4 594.626 282.738 598.819 285.586C599.065 285.754 599.163 286.156 599.038 286.487C598.95 286.718 598.774 286.851 598.591 286.851Z" fill="white"/>
<path d="M538.916 157.311C538.916 157.311 557.755 157.903 563.394 167.762C563.394 167.762 564.333 166.73 565.117 166.531C566.129 166.273 566.57 166.59 566.57 166.59L561.203 149.568L538.916 157.311Z" fill="#111111"/>
<path d="M547.952 142.99C547.952 142.99 527.482 145.895 536.337 193.059C538.547 204.833 529.328 213.449 529.328 213.449C529.328 213.449 546.943 216.751 541.446 186.33C539.566 175.933 540.004 180.125 540.07 173.762C540.215 159.999 547.952 142.99 547.952 142.99Z" fill="#111111"/>
<path d="M549.688 142.334C549.688 142.334 569.803 132.008 576.512 176.97C578.037 187.191 570.713 213.808 554.733 217.699C554.733 217.699 565.085 191.558 564.153 182.394C563.627 177.223 559.867 161.638 559.867 161.638L549.688 142.334Z" fill="#111111"/>
<path d="M481.717 232.026L501.973 291.223C501.973 291.223 523.307 286.212 530.99 289.974L515.19 232.026C515.19 232.026 499.655 228.555 481.717 232.026Z" fill="#344B7E"/>
<path d="M515.188 232.027L530.48 289.902C540.687 287.136 560.007 291.228 560.007 291.228L548.661 232.031C548.661 232.031 531.778 223.498 515.188 232.027Z" fill="#344B7E"/>
<path d="M549.17 231.858L549.103 231.507L548.849 231.378C548.678 231.293 531.678 222.895 515.136 231.308C513.544 230.978 498.563 228.061 481.642 231.336L480.951 231.47L501.665 292.005L502.063 291.912C502.268 291.864 521.984 287.292 530.032 290.299L531.645 290.333C541.873 288.149 559.74 291.88 559.926 291.918L560.712 292.085L549.17 231.858ZM502.281 290.443L482.484 232.587C498.487 229.641 512.581 232.207 514.8 232.652L529.615 288.719C521.572 286.281 505.137 289.799 502.281 290.443ZM539.561 288.235C536.603 288.235 533.737 288.45 531.281 289L515.859 232.436C530.82 225.047 546.089 231.577 548.226 232.564L559.305 290.378C556.625 289.851 547.751 288.235 539.561 288.235Z" fill="#F9F7FC"/>
<path d="M571.27 284.722C571.27 284.722 560.726 280.568 560.724 280.605C560.723 280.641 552.336 281.972 551.333 281.824C550.331 281.675 544.525 276.093 545.691 273.591C547.323 270.09 555.825 273.096 556.27 273.096C556.716 273.096 555.115 265.595 555.463 265.661C557.479 266.049 559.703 273.492 560.214 273.591C560.724 273.69 567.629 272.947 567.629 272.947L571.27 284.722Z" fill="#F0BF9C"/>
<path d="M572.132 285.759L571.128 285.363C567.253 283.837 561.47 281.567 560.698 281.285C560.623 281.302 560.544 281.316 560.461 281.33C560.251 281.366 559.949 281.416 559.581 281.475C558.848 281.592 557.854 281.745 556.808 281.897C554.905 282.174 552.447 282.503 551.55 282.504C551.435 282.504 551.344 282.498 551.277 282.488C550.225 282.331 546.335 278.586 545.318 275.787C544.869 274.55 545.041 273.717 545.265 273.237C545.896 271.884 547.294 271.226 549.54 271.226C551.843 271.226 554.436 271.931 555.682 272.271C555.728 272.283 555.774 272.296 555.82 272.308C555.74 271.515 555.513 270.115 555.35 269.106C554.852 266.024 554.82 265.628 555.046 265.255L555.196 265.006L555.494 264.991L555.533 264.999C557.119 265.303 558.572 268.73 559.633 271.234C559.903 271.87 560.23 272.642 560.397 272.931C561.58 272.925 567.528 272.286 567.588 272.28L567.952 272.24L572.132 285.759ZM560.725 279.936C560.817 279.936 560.958 279.964 570.407 283.684L567.304 273.653C565.964 273.794 561.411 274.27 560.381 274.27C560.268 274.27 560.187 274.262 560.141 274.254C559.743 274.176 559.527 273.7 558.761 271.893C558.107 270.351 556.99 267.716 556.003 266.715C556.088 267.335 556.221 268.154 556.33 268.825C556.908 272.404 556.96 273.058 556.699 273.49C556.593 273.665 556.436 273.766 556.269 273.766C556.158 273.766 556.002 273.725 555.482 273.583C554.268 273.253 551.742 272.565 549.54 272.565C547.721 272.565 546.537 273.042 546.116 273.946C545.988 274.219 546.017 274.626 546.202 275.155C547.08 277.665 550.727 281.035 551.389 281.16C551.427 281.166 551.482 281.168 551.55 281.168C552.95 281.167 558.707 280.278 560.248 280.018L560.252 279.938L560.723 279.936C560.724 279.935 560.725 279.936 560.725 279.936Z" fill="#111111"/>
<path d="M488.393 267.101C488.319 268.786 491.017 275.066 491.8 275.915C492.584 276.763 499.637 278.363 500.152 275.497C500.873 271.487 493.3 265.516 492.987 265.093C492.675 264.669 490.699 257.496 490.288 257.08C489.876 256.664 488.676 260.703 488.393 267.101Z" fill="#F0BF9C"/>
<path d="M496.904 277.801C494.844 277.801 492.109 277.111 491.484 276.435C490.614 275.493 487.805 269.05 487.893 267.062C488.083 262.755 488.955 256.382 490.224 256.382C490.356 256.382 490.483 256.439 490.59 256.547C490.868 256.827 491.177 257.699 492.33 261.455C492.721 262.728 493.205 264.302 493.357 264.637C493.418 264.695 493.632 264.887 493.839 265.072C497.057 267.956 501.262 272.19 500.639 275.654C500.383 277.078 499.126 277.801 496.904 277.801ZM490.189 258.16C489.767 259.377 489.097 262.514 488.893 267.14C488.831 268.544 491.397 274.616 492.116 275.395C492.428 275.713 494.743 276.463 496.904 276.463C498.506 276.463 499.538 276.043 499.664 275.341C500.018 273.377 497.87 270.296 493.281 266.183C492.84 265.788 492.709 265.669 492.63 265.563C492.446 265.313 492.217 264.613 491.403 261.962C491.03 260.748 490.513 259.067 490.189 258.16Z" fill="#111111"/>
<path d="M579.89 238.802C579.89 238.802 583.115 280.948 580.609 290.25C578.104 299.552 562.402 289.07 562.402 289.07L563.387 267.213L565.576 266.99L563.843 260.582L579.89 238.802Z" fill="#F8E643"/>
<path d="M551.785 178.168C552.16 178.621 551.093 180.937 549.443 181.372C546.75 182.081 545.48 179.91 546.155 179.874C546.42 179.86 547.521 180.279 549.126 179.813C550.857 179.311 551.534 177.864 551.785 178.168Z" fill="#111111"/>
<path d="M246.575 424.653L246.592 437.407H259.825L260.929 425.306L246.575 424.653Z" fill="#F0BF9C"/>
<path d="M260.306 438.132H246.05L246.03 423.902L261.539 424.608L260.306 438.132ZM247.134 436.681H259.344L260.318 426.004L247.119 425.403L247.134 436.681Z" fill="#111111"/>
<path d="M245.866 436.636C245.866 436.636 226.741 444.742 226.081 451.421H260.375V436.636H245.866Z" fill="#F8E643"/>
<path d="M299.919 424.931L300.28 437.833H313.514L314.141 424.653L299.919 424.931Z" fill="#F0BF9C"/>
<path d="M314.023 438.559H299.756L299.354 424.216L314.719 423.915L314.023 438.559ZM300.803 437.107H313.003L313.561 425.389L300.482 425.645L300.803 437.107Z" fill="#111111"/>
<path d="M299.553 437.063C299.553 437.063 280.428 445.168 279.769 451.847H314.062V437.063H299.553Z" fill="#F8E643"/>
<path d="M278.521 449.309V453.15H314.958V448.759L278.521 449.309Z" fill="#111111"/>
<path d="M261.448 448.629V452.724H225.011V448.332L261.448 448.629Z" fill="#111111"/>
<path d="M295.529 427.278H316.59L318.386 201.874L257.676 215.874L243.228 427.278H263.501L284.726 286.821L282.297 256.023L295.529 427.278Z" fill="#111111"/>
<path d="M279.879 83.0173C279.879 83.0173 281.307 103.034 280.107 105.248C278.908 107.462 271.555 109.849 271.555 109.849L283.592 157.105L308.376 153.906L309.983 120.029C309.983 120.029 298.671 107.724 297.988 105.197C297.044 101.7 297.041 83.0168 297.041 83.0168L279.879 83.0173Z" fill="#F0BF9C"/>
<path d="M283.26 157.793L270.932 109.392L271.442 109.226C274.219 108.324 278.921 106.344 279.719 104.872C280.429 103.561 280.086 92.6646 279.402 83.0778C279.377 82.725 279.57 82.4118 279.835 82.3779C280.103 82.3445 280.333 82.6032 280.359 82.956C280.6 86.3385 281.741 103.33 280.498 105.624C279.382 107.684 273.975 109.685 272.179 110.302L283.926 156.417L307.924 153.32L309.489 120.318C307.674 118.337 298.215 107.925 297.537 105.415C296.575 101.854 296.562 83.7848 296.561 83.0176C296.561 82.663 296.776 82.3752 297.042 82.3752C297.307 82.3752 297.522 82.6625 297.522 83.0171C297.523 89.4405 297.717 102.297 298.441 104.98C298.905 106.698 305.954 114.818 310.288 119.532L310.479 119.741L308.831 154.493L283.26 157.793Z" fill="#111111"/>
<path d="M284.353 43.433C281.254 43.9246 273.715 44.9889 273.782 52.4007C273.859 60.855 275.026 71.7077 275.715 77.4209C275.986 79.6758 277.451 81.3222 279.158 81.2945L298.276 80.9854C300.027 80.9569 301.484 79.1766 301.662 76.8451C302.261 68.9974 303.421 52.3824 302.702 49.8916C300.257 41.4168 289.26 42.6546 284.353 43.433Z" fill="#111111"/>
<path d="M296.847 86.5318C297.866 85.083 298.229 79.4108 298.288 72.9455C298.29 72.7586 298.363 72.5887 298.479 72.4937C299.725 71.4753 301.522 69.3097 301.44 66.1042C301.37 63.327 299.872 63.9341 298.698 64.8472C298.489 65.01 298.231 64.8049 298.224 64.4721C298.06 56.6798 297.677 49.8523 297.677 49.8523L274.96 50.2198C274.96 50.2198 275.068 57.1691 275.356 64.9587C275.369 65.3084 276.492 83.8826 277.053 85.5562C277.358 86.468 277.935 87.2196 278.705 87.8262C278.705 87.8262 280.177 89.3942 288.434 89.2608L296.847 86.5318Z" fill="#F0BF9C"/>
<path d="M287.456 89.9142C280.499 89.9142 278.741 88.6447 278.441 88.3677C277.559 87.6682 276.944 86.8113 276.612 85.8202C275.998 83.99 274.88 65.167 274.873 64.9912C274.588 57.281 274.477 50.3032 274.476 50.2336L274.467 49.5837L298.124 49.2009L298.158 49.8049C298.162 49.8723 298.532 56.5333 298.699 64.1093C299.7 63.3961 300.5 63.2502 301.078 63.6775C301.608 64.0678 301.892 64.877 301.922 66.0832C302.019 69.8823 299.781 72.1737 298.77 73.0123C298.658 84.8982 297.56 86.4598 297.199 86.9737C297.016 87.2333 296.711 87.2463 296.517 87.0023C296.322 86.7587 296.312 86.3506 296.495 86.0909C296.945 85.4508 297.714 82.8904 297.805 72.9387C297.808 72.5297 297.966 72.1581 298.227 71.9449C299.075 71.2517 301.039 69.2975 300.958 66.1269C300.947 65.7214 300.889 65.0104 300.612 64.8061C300.322 64.592 299.698 64.8163 298.941 65.4047C298.697 65.5943 298.405 65.5983 298.158 65.4154C297.905 65.2276 297.749 64.8819 297.741 64.4907C297.607 58.1231 297.324 52.3417 297.228 50.5048L275.453 50.8572C275.487 52.7628 275.603 58.5977 275.838 64.9279C275.892 66.209 277.008 83.8486 277.493 85.2938C277.744 86.0428 278.234 86.7083 278.95 87.2721L279.005 87.3234C279.007 87.3234 280.645 88.7437 288.428 88.6175C288.694 88.605 288.913 88.898 288.916 89.254C288.919 89.61 288.706 89.9021 288.439 89.9062C288.1 89.9115 287.773 89.9142 287.456 89.9142Z" fill="#111111"/>
<path d="M289.981 68.4155C289.551 68.4155 289.191 67.9685 289.163 67.3877L289.134 66.7619C289.106 66.158 289.45 65.6383 289.902 65.6013C290.354 65.5714 290.744 66.0228 290.772 66.6268L290.801 67.2526C290.829 67.8566 290.485 68.3762 290.033 68.4137C290.016 68.4146 289.998 68.4155 289.981 68.4155Z" fill="#111111"/>
<path d="M279.518 68.6229C279.074 68.6229 278.708 68.1482 278.699 67.5514L278.687 66.8123C278.677 66.2074 279.036 65.7065 279.489 65.6936C279.495 65.6936 279.501 65.6931 279.507 65.6931C279.952 65.6931 280.317 66.1682 280.327 66.7646L280.339 67.5037C280.349 68.1085 279.99 68.6095 279.537 68.6224C279.53 68.6224 279.524 68.6229 279.518 68.6229Z" fill="#111111"/>
<path d="M288.22 63.5326C287.973 63.5326 287.735 63.3453 287.624 63.0268C287.472 62.5892 287.612 62.0704 287.939 61.8648C288.026 61.8099 290.114 60.5275 292.389 61.6997C292.728 61.8737 292.896 62.3809 292.765 62.8323C292.635 63.2842 292.256 63.5094 291.917 63.3346C290.176 62.4393 288.512 63.4416 288.495 63.4519C288.406 63.5063 288.312 63.5326 288.22 63.5326Z" fill="#111111"/>
<path d="M287.691 77.871C288.057 78.5726 286.246 81.0269 284.116 80.9363C280.641 80.7882 279.535 77.6265 280.377 77.838C280.707 77.9209 281.976 78.8568 284.057 78.8916C286.301 78.929 287.445 77.3999 287.691 77.871Z" fill="#111111"/>
<path d="M283.919 75.6419C283.883 75.6419 283.846 75.637 283.809 75.6272C283.313 75.4934 281.677 74.9501 281.475 73.5798C281.325 72.5618 281.399 72.2996 282.302 69.091C282.493 68.4121 282.724 67.5922 283.001 66.5944C283.12 66.0225 283.379 64.435 283.232 63.5268C283.21 63.4791 282.995 63.2244 282.404 63.0094C281.23 62.5811 279.398 62.6048 278.318 63.4889C278.057 63.7021 277.717 63.5933 277.557 63.2453C277.398 62.8979 277.479 62.4433 277.74 62.2301C279.404 60.8683 282.023 61.1341 283.274 61.8496C283.873 62.1922 284.223 62.6521 284.313 63.2163C284.547 64.6652 284.109 66.788 284.059 67.0257L284.045 67.0802C283.764 68.0932 283.53 68.9238 283.337 69.6111C282.47 72.6885 282.475 72.7229 282.56 73.2947C282.622 73.553 283.363 74.0009 284.028 74.1802C284.327 74.2609 284.521 74.6503 284.46 75.05C284.408 75.3997 284.177 75.6415 283.919 75.6419Z" fill="#111111"/>
<path d="M309.543 239.108C309.637 239.196 309.745 239.237 309.852 239.237C310.024 239.237 310.194 239.128 310.299 238.925C310.47 238.596 310.409 238.143 310.162 237.915L297.411 226.122C297.164 225.893 296.826 225.975 296.655 226.305C296.484 226.634 296.546 227.086 296.793 227.315L306.205 236.021L309.309 422.335C309.316 422.731 309.558 423.046 309.852 423.046C309.856 423.046 309.86 423.045 309.864 423.045C310.164 423.036 310.402 422.704 310.395 422.303L307.309 237.043L309.543 239.108Z" fill="#A1C5E2"/>
<path d="M285.263 286.7L280.412 248.477V230.12C280.412 229.719 280.169 229.394 279.869 229.394C279.569 229.394 279.325 229.719 279.325 230.12V248.599L280.423 257.246L258.681 422.194C258.629 422.588 258.827 422.965 259.122 423.034C259.154 423.042 259.186 423.046 259.217 423.046C259.475 423.046 259.705 422.797 259.752 422.445L280.962 261.492L284.192 286.942C284.237 287.296 284.467 287.547 284.727 287.547C284.757 287.547 284.788 287.544 284.818 287.537C285.114 287.469 285.314 287.095 285.263 286.7Z" fill="#A1C5E2"/>
<path d="M254.408 272.117C254.408 272.117 249.081 260.678 248.268 256.711C247.772 254.287 249.046 242.753 249.046 242.753L252.304 163.412L264.974 169.067C264.974 169.067 255.83 239.746 255.842 242.772C255.853 245.798 261.463 254.255 261.181 256.352C260.898 258.449 255.205 251.175 255.205 251.175C255.205 251.175 254.398 257.309 254.634 259.351C255.066 263.085 255.973 272.118 255.51 274.062C255.159 275.537 252.66 266.857 251.381 259.745C250.861 256.858 251.314 254.893 251.261 253.063L254.408 272.117Z" fill="#F0BF9C"/>
<path d="M255.393 275.206C255.383 275.206 255.374 275.205 255.365 275.205C255.015 275.188 254.626 275.169 253.751 272.556C253.244 271.467 248.367 260.899 247.562 256.969C247.046 254.449 248.163 244.051 248.316 242.654L251.625 162.078L265.802 168.406L265.696 169.233C262.024 197.61 256.566 240.61 256.574 242.767C256.579 244.032 258.118 247.128 259.354 249.615C261.102 253.132 262.082 255.186 261.902 256.525C261.828 257.069 261.573 257.474 261.201 257.635C260.316 258.021 258.471 256.511 255.71 253.145C255.48 255.22 255.225 258.061 255.357 259.202C255.601 261.306 256.787 271.927 256.208 274.359C256.06 274.987 255.682 275.206 255.393 275.206ZM254.859 271.523C254.765 268.619 254.387 263.607 253.911 259.501C253.663 257.36 254.4 251.65 254.485 251.006L254.722 249.204L255.712 250.469C257.306 252.505 259.28 254.687 260.307 255.463C259.918 254.286 258.876 252.19 258.134 250.697C256.312 247.03 255.117 244.498 255.11 242.777C255.099 239.845 263.071 178.045 264.146 169.728L252.983 164.747L249.776 242.852L249.771 242.897C249.287 247.277 248.643 254.832 248.975 256.454C249.27 257.894 254.018 268.841 254.859 271.523Z" fill="#111111"/>
<path d="M254.969 134.6L258.314 162.481C257.617 168.618 253.753 232.615 253.753 232.615H317.849L312.745 175.886L313.814 166.888L328.583 162.412C329.702 158.868 323.882 125.152 320.742 121.498C316.659 116.747 305.144 105.861 301.384 105.145C300.472 104.972 300.953 96.1167 298.71 95.9954C294.347 95.7589 282.532 96.3593 279.167 95.998C277.529 95.8218 277.83 104.325 277.83 104.325C277.83 104.325 275.461 106.201 273.647 107.413C263.51 114.18 257.935 127.54 254.969 134.6Z" fill="#F8E643"/>
<path d="M325.72 269.702V264.541C325.72 261.073 323.607 258.251 321.009 258.251H314.688C312.09 258.251 309.977 261.073 309.977 264.541V269.702H290.391V324.82H345.306V269.702H325.72ZM311.982 269.702V264.541C311.982 262.549 313.196 260.928 314.688 260.928H321.01C322.502 260.928 323.716 262.549 323.716 264.541V269.702H311.982Z" fill="#F8E543"/>
<path d="M312.973 166.872L313.187 170.165C313.394 173.336 313.673 177.609 313.962 182.019C314.54 190.848 315.157 200.197 315.315 202.364L312.973 166.872ZM312.973 166.872C314.027 166.826 315.42 166.931 317.058 167.083C317.265 167.103 317.477 167.123 317.693 167.143C319.18 167.285 320.829 167.441 322.188 167.433C322.443 167.431 322.713 167.424 322.99 167.407C323.096 168.927 323.176 170.911 323.228 173.295C323.387 180.624 323.274 191.214 323.006 202.247C322.738 213.27 322.317 224.689 321.865 233.659C321.639 238.147 321.406 242.005 321.182 244.888C321.069 246.332 320.961 247.509 320.859 248.388C320.808 248.829 320.761 249.173 320.719 249.429C320.681 249.659 320.659 249.75 320.659 249.75C320.659 249.75 320.66 249.748 320.661 249.745C320.458 250.401 320.449 251.087 320.451 251.467C320.453 251.942 320.486 252.468 320.529 252.983C320.59 253.719 320.685 254.576 320.776 255.399C320.811 255.711 320.845 256.017 320.876 256.311C320.903 256.565 320.929 256.811 320.952 257.047C320.821 257.077 320.689 257.116 320.557 257.164C319.723 257.468 319.189 258.015 318.879 258.422C318.839 258.413 318.797 258.406 318.754 258.398C318.289 258.32 317.533 258.295 316.737 258.697L318.091 261.374L316.737 258.697C316.398 258.868 316.138 259.067 315.979 259.198C315.954 259.219 315.929 259.24 315.905 259.261C315.864 259.24 315.811 259.214 315.751 259.187C315.698 259.163 315.61 259.125 315.498 259.086C315.408 259.055 315.185 258.981 314.891 258.944L314.885 258.943C314.674 258.917 314.472 258.91 314.28 258.919L314.569 256.726L313.326 256.578C314.04 255.974 314.761 255.358 315.398 254.786C316.207 254.06 317.122 253.196 317.689 252.399M312.973 166.872L315.315 202.365C315.554 205.627 315.88 209.755 316.231 214.194C316.679 219.862 317.167 226.038 317.565 231.565C317.923 236.545 318.218 241.129 318.361 244.565C318.432 246.277 318.467 247.75 318.45 248.862C318.441 249.41 318.419 249.933 318.371 250.379C318.347 250.598 318.311 250.861 318.248 251.128C318.206 251.308 318.074 251.859 317.689 252.399M317.689 252.399C317.689 252.399 317.689 252.399 317.689 252.399L315.246 250.659L317.689 252.399ZM322.636 164.49C322.636 164.49 322.64 164.502 322.648 164.53C322.639 164.505 322.635 164.491 322.636 164.49ZM320.664 249.735L320.664 249.735L320.664 249.735Z" fill="white" stroke="#F0BF9C" stroke-width="6"/>
<path d="M312.29 263.958C311.102 263.958 310.422 262.248 310.347 262.048L310.256 261.807L310.464 260.234C306.829 260.637 306.106 260.406 305.803 259.71C305.655 259.37 305.673 258.96 305.851 258.614C306.362 257.622 307.999 256.195 310.635 253.964C312.344 252.518 314.109 251.024 314.757 250.164C315.285 248.022 313.695 227.912 312.64 214.567C312.292 210.162 311.963 206.001 311.718 202.661C311.402 198.344 309.268 165.521 309.247 165.19L309.233 164.976L309.3 164.782C310 162.74 313.064 162.878 318.03 163.348C320.202 163.554 323.836 163.899 324.272 163.2C324.766 162.051 325.359 162.326 325.529 162.439C326.02 162.762 326.761 163.251 326.891 176.862C326.979 186.236 326.741 197.752 326.525 205.763C325.985 225.868 324.925 248.265 324.089 250.941C323.965 251.392 324.2 253.506 324.355 254.906C324.78 258.743 324.97 260.935 323.94 261.379C323.079 261.752 322.463 261.288 322.056 260.981C321.948 260.899 321.783 260.775 321.726 260.769C321.676 260.791 321.518 261.124 321.433 261.303C321.175 261.848 320.821 262.595 320.084 262.84C319.566 263.011 319.037 262.674 318.611 262.403C318.495 262.33 318.332 262.225 318.234 262.181C318.111 262.277 317.926 262.469 317.773 262.629C317.289 263.134 316.738 263.709 316.138 263.631C315.724 263.579 315.102 263.194 314.501 262.805C314.459 262.777 314.422 262.753 314.39 262.733C314.229 262.775 313.968 263.002 313.752 263.188C313.365 263.525 312.925 263.906 312.4 263.952C312.363 263.957 312.326 263.958 312.29 263.958ZM311.527 261.53C311.704 261.889 312.021 262.346 312.319 262.334C312.528 262.315 312.814 262.067 313.09 261.827C313.516 261.458 313.998 261.037 314.57 261.112C314.697 261.128 314.761 261.169 315.032 261.344C315.689 261.77 316.1 261.996 316.252 262.015C316.398 262.004 316.806 261.578 317.025 261.35C317.317 261.045 317.592 260.758 317.876 260.615C318.295 260.402 318.722 260.676 319.135 260.939C319.324 261.059 319.675 261.29 319.795 261.264C320.042 261.181 320.188 260.895 320.406 260.436C320.627 259.97 320.901 259.391 321.424 259.2C321.926 259.018 322.329 259.323 322.654 259.567C322.966 259.802 323.172 259.943 323.445 259.876C323.597 259.16 323.321 256.666 323.152 255.144C322.869 252.59 322.721 251.105 322.967 250.318C323.627 248.204 324.687 228.245 325.283 206.731C325.987 181.288 325.705 167.584 325.08 164.415C324.176 165.496 321.803 165.334 317.945 164.968C315.386 164.726 311.174 164.327 310.477 165.321C310.683 168.499 312.629 198.405 312.929 202.504C313.173 205.838 313.502 209.995 313.85 214.397C316.077 242.569 316.455 250.14 315.687 251.218C314.98 252.211 313.186 253.729 311.287 255.336C309.917 256.495 308.292 257.871 307.419 258.808C307.99 258.823 308.959 258.777 310.581 258.592C311.087 258.534 311.165 258.527 311.253 258.538L311.912 258.617L311.527 261.53Z" fill="#111111"/>
<path d="M303.479 142.721L314.3 245.207H330.892L328.724 160.269L303.479 142.721Z" fill="#F8E643"/>
<path d="M330.892 246.019H313.763L304.54 147.016C304.498 146.571 304.735 146.165 305.068 146.11C305.399 146.056 305.705 146.37 305.747 146.815L314.836 244.395H330.892C331.228 244.395 331.5 244.759 331.5 245.207C331.5 245.656 331.228 246.019 330.892 246.019Z" fill="#111111"/>
<path d="M300.704 52.3801C296.86 58.307 279.912 64.1357 271.867 44.3831C263.821 24.6304 286.643 40.1927 294.125 42.9864C297.328 44.1819 303.994 47.3053 300.704 52.3801Z" fill="#111111"/>
<path d="M294.956 319.066C294.684 319.066 294.461 318.776 294.455 318.41L293.865 280.46C293.859 280.091 294.079 279.785 294.356 279.777C294.641 279.772 294.862 280.063 294.867 280.432L295.457 318.383C295.463 318.752 295.243 319.058 294.966 319.066C294.963 319.066 294.959 319.066 294.956 319.066Z" fill="#111111"/>
<path d="M265.562 115.115C262.341 119.371 252.155 129.389 250.228 163.505L248.153 238.511H259.011L264.973 143.791L265.562 115.115Z" fill="#F8E643"/>
<path d="M260.107 233.427C260.071 233.427 260.034 233.423 259.997 233.414C259.667 233.334 259.448 232.912 259.508 232.47C259.842 230.013 260.347 174.744 260.567 145.863C260.57 145.415 260.844 145.055 261.181 145.06C261.516 145.064 261.786 145.431 261.783 145.879C261.757 149.295 261.14 229.555 260.704 232.76C260.651 233.152 260.395 233.427 260.107 233.427Z" fill="#111111"/>
<path d="M317.849 298.099L291.542 271.695C291.321 271.473 291.276 271.054 291.442 270.758C291.609 270.463 291.923 270.403 292.144 270.625L317.849 296.424L343.286 270.893C343.508 270.671 343.822 270.732 343.988 271.026C344.155 271.321 344.11 271.741 343.889 271.963L317.849 298.099Z" fill="#111111"/>
<path d="M318.319 303.79H317.38C316.339 303.79 315.495 302.664 315.495 301.273V295.304C315.495 293.914 316.339 292.787 317.38 292.787H318.319C319.36 292.787 320.204 293.913 320.204 295.304V301.273C320.204 302.664 319.36 303.79 318.319 303.79Z" fill="#111111"/>
<path d="M454.36 0H385.487V137.207H454.36V0Z" fill="#F8E643"/>
<path d="M448.198 8.70776H391.649V128.5H448.198V8.70776Z" fill="white"/>
<path d="M448.699 129.169H391.148V8.03857H448.699V129.169ZM392.151 127.831H447.697V9.37677H392.151V127.831Z" fill="#111111"/>
<path d="M391.649 94.272H426.436L398.374 46.9895L391.649 61.69V94.272Z" fill="#423E49"/>
<path d="M418 80.0583L429.443 64.5237L447.974 93.9162C448.062 94.0567 447.987 94.2722 447.849 94.2722H426.436L418 80.0583Z" fill="#423E49"/>
<path d="M448.357 93.4853L429.471 63.5306L418.04 79.0492L398.321 45.8228L391.148 61.5024V94.9416H426.193H427.472H447.849C448.11 94.9416 448.34 94.7458 448.45 94.43C448.561 94.1138 448.525 93.752 448.357 93.4853ZM392.151 93.603V61.8784L398.427 48.157L417.332 80.0105L425.399 93.603H392.151ZM426.678 93.603L418.668 80.106L429.414 65.517L447.121 93.603H426.678Z" fill="#1B2746"/>
<path d="M418.586 53.5688C421.307 53.5688 423.513 50.6231 423.513 46.9894C423.513 43.3556 421.307 40.4099 418.586 40.4099C415.864 40.4099 413.658 43.3556 413.658 46.9894C413.658 50.6231 415.864 53.5688 418.586 53.5688Z" fill="#F8E643"/>
<path d="M448.198 94.272H391.649V128.5H448.198V94.272Z" fill="#E5E5E5"/>
<path d="M448.699 129.169H391.148V93.603H448.699V129.169ZM392.151 127.831H447.697V94.9412H392.151V127.831Z" fill="#1B2746"/>
<path d="M521.768 50.4624H468.045V136.856H521.768V50.4624Z" fill="#F8E643"/>
<path d="M516.962 55.9458H472.853V131.374H516.962V55.9458Z" fill="white"/>
<path d="M517.464 132.043H472.352V55.2769H517.464V132.043ZM473.354 130.705H516.461V56.6151H473.354V130.705Z" fill="#1B2746"/>
<path d="M494.34 71.5257L492.951 76.5827C492.493 78.2483 493.416 80.0138 494.745 80.0138C496.074 80.0138 496.997 78.2483 496.539 76.5827L495.15 71.5257C495.012 71.022 494.478 71.022 494.34 71.5257Z" fill="#F8E643"/>
<path d="M485.883 80.6694L487.288 85.7184C487.751 87.3818 489.311 87.922 490.321 86.7698C491.331 85.6167 491.174 83.4738 490.016 82.6049L486.499 79.9669C486.148 79.7037 485.743 80.1667 485.883 80.6694Z" fill="#F8E643"/>
<path d="M503.931 80.5205L500.209 82.6C498.983 83.2848 498.642 85.3893 499.546 86.6896C500.45 87.9903 502.047 87.6932 502.65 86.1128L504.481 81.3136C504.664 80.8354 504.301 80.3135 503.931 80.5205Z" fill="#F8E643"/>
<path d="M504.781 80.2046C504.512 79.8169 504.103 79.6987 503.738 79.9026L500.016 81.9821C499.29 82.388 498.757 83.244 498.59 84.2718C498.459 85.0747 498.568 85.9039 498.876 86.5967L495.353 91.176L495.251 80.606C495.841 80.4365 496.37 79.9788 496.722 79.3053C497.173 78.443 497.281 77.339 497.009 76.3519L495.62 71.2953C495.484 70.7993 495.14 70.479 494.744 70.479C494.349 70.479 494.005 70.7993 493.869 71.2953L492.48 76.3519C492.208 77.3395 492.316 78.4435 492.767 79.3057C493.121 79.9833 493.655 80.4414 494.249 80.6087L494.349 91.0163L491.051 86.6819C491.379 86.0583 491.537 85.2906 491.48 84.5153C491.403 83.4689 490.947 82.5366 490.261 82.0218L486.744 79.3829C486.399 79.1242 485.981 79.1795 485.681 79.5225C485.381 79.866 485.276 80.4075 485.413 80.9026L486.818 85.9516C487.092 86.9374 487.711 87.6837 488.473 87.9478C488.673 88.0169 488.876 88.0508 489.079 88.0508C489.513 88.0508 489.94 87.8916 490.315 87.5927L494.367 92.9183L494.406 96.9726C494.41 97.3392 494.633 97.6332 494.907 97.6332C494.909 97.6332 494.911 97.6332 494.914 97.6332C495.19 97.6283 495.412 97.325 495.408 96.9556L495.371 93.0209L499.554 87.5834C499.96 87.967 500.447 88.1753 500.947 88.1753C501.058 88.1753 501.169 88.165 501.28 88.1445C502.06 87.9995 502.739 87.3536 503.097 86.4169L504.928 81.6177C505.108 81.1457 505.05 80.5917 504.781 80.2046ZM488.725 86.652C488.273 86.495 487.921 86.0699 487.758 85.4851L486.419 80.6738L489.77 83.1878C490.178 83.4934 490.438 84.0246 490.483 84.6456C490.529 85.2665 490.351 85.8553 489.996 86.2608C489.641 86.6663 489.178 86.809 488.725 86.652ZM493.589 78.5394C493.322 78.0278 493.26 77.3984 493.421 76.8127L494.745 71.9938L496.069 76.8127C496.23 77.3984 496.169 78.0278 495.901 78.5394C495.634 79.051 495.212 79.3445 494.745 79.3445C494.278 79.3445 493.857 79.051 493.589 78.5394ZM502.204 85.8085C501.992 86.3643 501.605 86.7323 501.142 86.8184C500.678 86.9036 500.231 86.6912 499.914 86.234C499.596 85.7768 499.47 85.1643 499.569 84.555C499.668 83.9452 499.972 83.4573 500.403 83.2164L503.949 81.235L502.204 85.8085Z" fill="#111111"/>
<path d="M497.228 117.451H493.691C488.95 117.451 485.106 112.319 485.106 105.988V96.9646H505.812V105.988C505.812 112.319 501.968 117.451 497.228 117.451Z" fill="#F8E643"/>
<path d="M492.006 114.052C491.93 114.052 491.852 114.029 491.779 113.979C486.984 110.722 487.558 100.813 487.585 100.393C487.608 100.025 487.853 99.7487 488.127 99.7835C488.402 99.8147 488.607 100.138 488.584 100.507C488.578 100.6 488.041 109.939 492.234 112.787C492.48 112.954 492.578 113.357 492.453 113.686C492.365 113.919 492.189 114.052 492.006 114.052Z" fill="white"/>
<path d="M619.499 454H0.501108C0.224496 454 0 453.701 0 453.331C0 452.961 0.224496 452.662 0.501108 452.662H619.499C619.776 452.662 620 452.961 620 453.331C620 453.701 619.775 454 619.499 454Z" fill="#111111"/>
<path d="M101.331 344.634C101.331 344.634 95.5599 338.09 82.8689 329.748V325.926L80.0655 327.794C69.6411 319.895 70.1331 311.995 80.3194 310.883C83.228 310.569 86.0315 310.968 88.581 312.223L88.3416 315.945L92.5026 315.032C97.4688 319.924 100.898 329.32 101.331 344.634Z" fill="#60A2F4"/>
<path d="M140.718 303.996C139.539 305.593 137.72 307.39 135.528 309.3L129.458 307.561L130.413 313.393C119.452 321.635 104.852 330.048 104.852 330.048C104.196 315.846 107.133 298.864 119.915 291.42L124.389 293.473L123.003 289.879C123.928 289.494 124.912 289.152 125.926 288.853C143.82 283.677 147.743 294.556 140.718 303.996Z" fill="#60A2F4"/>
<path d="M101.018 297.807C101.018 297.807 91.0269 293.059 82.8692 286.713V282.064L79.454 283.86C74.2642 279.112 70.8491 273.808 73.3539 269.059C76.1876 263.699 82.5561 263.285 88.5352 266.707L88.7891 271.199L92.3083 269.446C98.5426 275.006 103.24 284.974 101.018 297.807Z" fill="#60A2F4"/>
<path d="M138.317 277.93L132.263 276.19V280.154C122.524 283.505 110.564 286.784 110.564 286.784C112.727 275.961 117.976 266.251 128.744 263.127L131.145 265.324L132.771 262.301C133.517 262.202 134.277 262.144 135.068 262.101C150.114 261.389 148.115 273.966 138.317 277.93Z" fill="#60A2F4"/>
<path d="M106.06 274.437C106.06 274.437 95.8 263.529 83.7193 252.021L85.4046 246.131L78.9466 247.543C78.8269 247.428 78.6927 247.315 78.5743 247.201C64.4059 234.125 71.3861 216.3 92.5032 224.143C94.5015 224.884 96.2762 225.797 97.8575 226.881L97.0971 231.873L102.317 230.803C112.382 242.339 109.729 262.544 106.06 274.437Z" fill="#60A2F4"/>
<path d="M146.012 242.852C144.953 245.033 143.134 247.144 140.867 249.113L135.245 249.697L135.826 252.906C126.491 259.081 114.693 263.258 114.693 263.258C114.693 263.258 114.931 246.789 126.475 236.265C126.64 236.108 126.804 235.966 126.967 235.837L131.635 237.334L131.232 232.856C141.345 227.437 150.725 233.155 146.012 242.852Z" fill="#60A2F4"/>
<path d="M131.144 371.951H73.3545L82.6751 428.766V449.843C82.6751 449.918 82.6909 451.672 84.1077 452.929C85.0168 453.736 86.2652 454.144 87.8228 454.144C88.0451 454.144 88.2741 454.135 88.5096 454.119C93.2508 453.782 93.0837 444.876 92.9508 437.72C92.9376 436.982 92.9245 436.266 92.9179 435.583H114.82C114.814 436.266 114.801 436.982 114.787 437.72C114.655 444.876 114.489 453.782 119.229 454.119C119.464 454.135 119.693 454.144 119.915 454.144C121.474 454.144 122.721 453.736 123.631 452.929C125.047 451.671 125.063 449.916 125.063 449.843V429.618L131.144 371.951ZM91.4603 437.747C91.5708 443.607 91.7353 452.461 88.4004 452.696C86.9664 452.799 85.86 452.529 85.1365 451.894C84.1945 451.068 84.1682 449.851 84.1682 449.842V435.583H91.4274C91.434 436.276 91.4458 437 91.4603 437.747ZM122.615 451.885C121.893 452.526 120.788 452.795 119.339 452.696C116.004 452.461 116.169 443.606 116.279 437.747C116.292 437 116.306 436.276 116.313 435.584H123.573V449.843C123.571 449.856 123.545 451.058 122.615 451.885Z" fill="#070707"/>
<path d="M134.127 367.496H70V376.408H134.127V367.496Z" fill="#252728"/>
<path d="M144.194 236.264C144.194 236.264 104.301 251.949 102.25 307.559C100.199 363.171 102.25 371.726 102.25 371.726" stroke="#252728" stroke-width="1.1336" stroke-miterlimit="10"/>
<path d="M75.3438 314.452C75.3438 314.452 98.2526 319.919 101.339 344.634" stroke="#252728" stroke-width="1.1336" stroke-miterlimit="10"/>
<path d="M140.714 290.924C140.714 290.924 101.732 309.937 101.339 349.388" stroke="#252728" stroke-width="1.1336" stroke-miterlimit="10"/>
<path d="M75.3438 270.13C75.3438 270.13 101.714 278.097 102.249 307.561" stroke="#252728" stroke-width="1.1336" stroke-miterlimit="10"/>
<path d="M78.5752 226.996C78.5752 226.996 110.224 248.006 106.059 283.014" stroke="#252728" stroke-width="1.1336" stroke-miterlimit="10"/>
</svg>
