<svg width="135" height="100" viewBox="0 0 135 100" fill="none" xmlns="http://www.w3.org/2000/svg">
<path opacity="0.2" d="M45.0252 99.68C31.1186 99.68 20.2452 95.8067 12.4052 88.06C4.56524 80.3133 0.645235 69.2533 0.645235 54.88V-6.67572e-06H23.3252V54.04C23.3252 63.3733 25.2386 70.0933 29.0652 74.2C32.8919 78.3067 38.2586 80.36 45.1652 80.36C52.0719 80.36 57.4386 78.3067 61.2652 74.2C65.0919 70.0933 67.0052 63.3733 67.0052 54.04V-6.67572e-06H89.4052V54.88C89.4052 69.2533 85.4852 80.3133 77.6452 88.06C69.8052 95.8067 58.9319 99.68 45.0252 99.68ZM111.817 98V-6.67572e-06H134.497V98H111.817Z" fill="#FDFDFD"/>
</svg>
