<svg width="553" height="442" viewBox="0 0 553 442" fill="none" xmlns="http://www.w3.org/2000/svg">
<path d="M115.09 37.6961C88.9713 42.3287 63.9283 53.5398 42.5338 69.2227C21.1393 84.9056 4.13826 108.06 0.680512 134.36C-2.8799 161.441 8.01637 188.416 22.0353 211.859C36.0532 235.302 53.4291 256.812 64.9947 281.557C75.1694 303.327 80.7695 327.434 94.4785 347.171C113.146 374.046 145.139 389.533 177.541 394.105C209.943 398.677 242.95 393.434 274.756 385.745C341.028 369.726 404.607 343.01 463.068 307.926C489.534 292.043 515.634 273.79 532.649 248.037C551.878 218.932 557.649 181.309 548.031 147.778C540.152 120.315 521.73 94.9205 497.501 79.5795C487.159 73.032 383.755 -9.95498 115.09 37.6961Z" fill="#F8E643"/>
<path opacity="0.7" d="M115.09 37.6961C88.9713 42.3287 63.9283 53.5398 42.5338 69.2227C21.1393 84.9056 4.13826 108.06 0.680512 134.36C-2.8799 161.441 8.01637 188.416 22.0353 211.859C36.0532 235.302 53.4291 256.812 64.9947 281.557C75.1694 303.327 80.7695 327.434 94.4785 347.171C113.146 374.046 145.139 389.533 177.541 394.105C209.943 398.677 242.95 393.434 274.756 385.745C341.028 369.726 404.607 343.01 463.068 307.926C489.534 292.043 515.634 273.79 532.649 248.037C551.878 218.932 557.649 181.309 548.031 147.778C540.152 120.315 521.73 94.9205 497.501 79.5795C487.159 73.032 383.755 -9.95498 115.09 37.6961Z" fill="white"/>
<path d="M466.383 0.999878H93.7207V279.299H466.383V0.999878Z" fill="white" stroke="#111111" stroke-width="0.968558" stroke-miterlimit="10" stroke-linecap="round" stroke-linejoin="round"/>
<path d="M156.972 26.9543L150.985 31.0572L157.226 34.8423" stroke="#111111" stroke-width="0.968558" stroke-miterlimit="10" stroke-linecap="round" stroke-linejoin="round"/>
<path d="M150.985 31.0571H160.205" stroke="#111111" stroke-width="0.968558" stroke-miterlimit="10" stroke-linecap="round" stroke-linejoin="round"/>
<path d="M175.065 34.8423L181.053 30.7385L174.812 26.9543" stroke="#111111" stroke-width="0.968558" stroke-miterlimit="10" stroke-linecap="round" stroke-linejoin="round"/>
<path d="M181.057 30.7385H171.836" stroke="#111111" stroke-width="0.968558" stroke-miterlimit="10" stroke-linecap="round" stroke-linejoin="round"/>
<path d="M198.207 36.8161C195.369 36.8161 193.067 34.5148 193.067 31.6769C193.067 28.839 195.369 26.5377 198.207 26.5377C201.044 26.5377 203.346 28.839 203.346 31.6769" stroke="#111111" stroke-width="0.968558" stroke-miterlimit="10" stroke-linecap="round" stroke-linejoin="round"/>
<path d="M200.161 30.8713L203.343 31.7847L204.686 29.3177" stroke="#111111" stroke-width="0.968558" stroke-miterlimit="10" stroke-linecap="round" stroke-linejoin="round"/>
<path d="M361.642 33.2017C360.144 34.7058 357.709 34.7058 356.211 33.2017C354.707 31.7043 354.707 29.2683 356.211 27.7709C357.709 26.2668 360.144 26.2668 361.642 27.7709C363.146 29.2683 363.146 31.7043 361.642 33.2017Z" stroke="#111111" stroke-width="0.968558" stroke-miterlimit="10" stroke-linecap="round" stroke-linejoin="round"/>
<path d="M361.642 33.2015L365.257 36.8162" stroke="#111111" stroke-width="0.968558" stroke-miterlimit="10" stroke-linecap="round" stroke-linejoin="round"/>
<path d="M337.83 36.8162H224.257C220.999 36.8162 218.357 34.1749 218.357 30.9167C218.357 27.6585 220.999 25.0172 224.257 25.0172H337.829C341.087 25.0172 343.728 27.6585 343.728 30.9167C343.729 34.1749 341.088 36.8162 337.83 36.8162Z" stroke="#111111" stroke-width="0.968558" stroke-miterlimit="10" stroke-linecap="round" stroke-linejoin="round"/>
<path d="M466.384 0.999878H93.7217V16.6527H466.384V0.999878Z" fill="#111111"/>
<path d="M112.128 8.68836C112.128 11.2744 110.032 13.3704 107.446 13.3704C104.86 13.3704 102.764 11.2744 102.764 8.68836C102.764 6.10231 104.86 4.00635 107.446 4.00635C110.031 4.00635 112.128 6.10231 112.128 8.68836Z" fill="white"/>
<path d="M126.491 8.68836C126.491 11.2744 124.395 13.3704 121.809 13.3704C119.223 13.3704 117.127 11.2744 117.127 8.68836C117.127 6.10231 119.223 4.00635 121.809 4.00635C124.395 4.00635 126.491 6.10231 126.491 8.68836Z" fill="white"/>
<path d="M140.839 8.68836C140.839 11.2744 138.743 13.3704 136.157 13.3704C133.571 13.3704 131.475 11.2744 131.475 8.68836C131.475 6.10231 133.571 4.00635 136.157 4.00635C138.742 4.00635 140.839 6.10231 140.839 8.68836Z" fill="white"/>
<path d="M323.624 231.561H240.925V263.846H323.624V231.561Z" fill="#F8E643" stroke="#263238" stroke-width="0.968558" stroke-miterlimit="10"/>
<path d="M258.549 253.216V243.368H259.646V252.218H262.46V253.216H258.549Z" fill="#263238"/>
<path d="M263.205 245.744C263.205 244.239 263.951 243.268 265.456 243.268C266.975 243.268 267.721 244.239 267.721 245.744V250.838C267.721 252.33 266.975 253.315 265.456 253.315C263.95 253.315 263.205 252.33 263.205 250.838V245.744ZM264.288 250.895C264.288 251.796 264.669 252.316 265.456 252.316C266.258 252.316 266.624 251.796 266.624 250.895V245.689C266.624 244.803 266.258 244.268 265.456 244.268C264.668 244.268 264.288 244.803 264.288 245.689V250.895Z" fill="#263238"/>
<path d="M269.867 251.232L269.488 253.216H268.475L270.359 243.368H271.95L273.836 253.216H272.738L272.359 251.232H269.867ZM270.008 250.29H272.203L271.092 244.606L270.008 250.29Z" fill="#263238"/>
<path d="M276.997 243.368C278.53 243.368 279.234 244.296 279.234 245.815V250.782C279.234 252.287 278.53 253.216 276.997 253.216H274.689V243.368H276.997ZM276.982 252.218C277.769 252.218 278.15 251.725 278.15 250.824V245.759C278.15 244.858 277.769 244.366 276.968 244.366H275.786V252.217H276.982V252.218Z" fill="#263238"/>
<path d="M286.076 253.203H285.021L283.389 245.366V253.216H282.432V243.368H283.966L285.583 251.232L287.145 243.368H288.679V253.216H287.638V245.294L286.076 253.203Z" fill="#263238"/>
<path d="M289.713 245.744C289.713 244.239 290.459 243.268 291.964 243.268C293.483 243.268 294.229 244.239 294.229 245.744V250.838C294.229 252.33 293.483 253.315 291.964 253.315C290.458 253.315 289.713 252.33 289.713 250.838V245.744ZM290.797 250.895C290.797 251.796 291.176 252.316 291.965 252.316C292.767 252.316 293.132 251.796 293.132 250.895V245.689C293.132 244.803 292.767 244.268 291.965 244.268C291.176 244.268 290.797 244.803 290.797 245.689V250.895Z" fill="#263238"/>
<path d="M297.478 243.368C299.027 243.368 299.674 244.155 299.674 245.619V246.42C299.674 247.504 299.293 248.179 298.449 248.446C299.35 248.713 299.687 249.445 299.687 250.5V252.033C299.687 252.47 299.702 252.878 299.884 253.216H298.773C298.646 252.934 298.59 252.681 298.59 252.021V250.472C298.59 249.361 298.069 249.009 297.154 249.009H296.381V253.216H295.283V243.368H297.478ZM297.197 248.01C298.069 248.01 298.591 247.729 298.591 246.659V245.717C298.591 244.829 298.267 244.365 297.451 244.365H296.382V248.009H297.197V248.01Z" fill="#263238"/>
<path d="M304.326 247.729V248.714H301.92V252.218H304.875V253.216H300.822V243.368H304.875V244.366H301.92V247.729H304.326Z" fill="#263238"/>
<path d="M244.18 266.625H325.953V236.577" stroke="#263238" stroke-width="0.968558" stroke-miterlimit="10" stroke-linecap="round" stroke-linejoin="round"/>
<path d="M217.828 47.1188H128.042V126.815H217.828V47.1188Z" fill="white" stroke="#263238" stroke-width="0.968558" stroke-miterlimit="10" stroke-linecap="round" stroke-linejoin="round"/>
<path d="M214.412 50.9271H131.581V98.5492H214.412V50.9271Z" fill="#F8E643" stroke="#263238" stroke-width="0.968558" stroke-miterlimit="10"/>
<path d="M158.289 101.87H136.654V107.039H158.289V101.87Z" fill="#999999"/>
<path d="M183.75 101.87H162.115V107.039H183.75V101.87Z" fill="#999999"/>
<path d="M209.207 101.87H187.572V107.039H209.207V101.87Z" fill="#999999"/>
<path d="M146.57 111.509H143.236V114.467H146.57V111.509Z" fill="#BFBFBF"/>
<path d="M160.895 111.509H148.514V114.467H160.895V111.509Z" fill="#BFBFBF"/>
<path d="M175.453 111.509H163.072V114.467H175.453V111.509Z" fill="#BFBFBF"/>
<path d="M202.61 111.509H196.42V114.467H202.61V111.509Z" fill="#BFBFBF"/>
<path d="M194.624 111.509H177.732V114.467H194.624V111.509Z" fill="#BFBFBF"/>
<path d="M187.301 119.513H199.682V116.555H187.301V119.513Z" fill="#BFBFBF"/>
<path d="M172.742 119.513H185.123V116.555H172.742V119.513Z" fill="#BFBFBF"/>
<path d="M145.589 119.513H151.779V116.555H145.589V119.513Z" fill="#BFBFBF"/>
<path d="M153.579 119.513H170.471V116.555H153.579V119.513Z" fill="#BFBFBF"/>
<path d="M134.591 98.5481L151.913 80.9678C157.194 75.8887 165.163 74.8329 171.585 78.3604L208.385 98.5762L134.591 98.5481Z" fill="white" stroke="#263238" stroke-width="0.968558" stroke-miterlimit="10" stroke-linecap="round" stroke-linejoin="round"/>
<path d="M179.376 95.3848C180.306 96.6051 180.886 97.3732 180.886 97.3732L179.376 95.3848Z" fill="white"/>
<path d="M179.376 95.3848C180.306 96.6051 180.886 97.3732 180.886 97.3732" stroke="#263238" stroke-width="0.968558" stroke-miterlimit="10" stroke-linecap="round" stroke-linejoin="round"/>
<path d="M162.013 77.5942C163.297 77.4305 164.645 77.8005 166.529 79.3347C167.801 80.3711 173.901 88.2309 177.729 93.2277" fill="white"/>
<path d="M162.013 77.5942C163.297 77.4305 164.645 77.8005 166.529 79.3347C167.801 80.3711 173.901 88.2309 177.729 93.2277" stroke="#263238" stroke-width="0.968558" stroke-miterlimit="10" stroke-linecap="round" stroke-linejoin="round"/>
<path d="M194.031 64.5634C194.031 68.027 191.223 70.8339 187.761 70.8339C184.297 70.8339 181.49 68.026 181.49 64.5634C181.49 61.0998 184.298 58.293 187.761 58.293C191.224 58.293 194.031 61.1008 194.031 64.5634Z" fill="white"/>
<path d="M326.468 145.409H236.682V225.105H326.468V145.409Z" fill="white" stroke="#263238" stroke-width="0.968558" stroke-miterlimit="10" stroke-linecap="round" stroke-linejoin="round"/>
<path d="M323.052 149.216H240.221V196.837H323.052V149.216Z" fill="#F8E643" stroke="#263238" stroke-width="0.968558" stroke-miterlimit="10"/>
<path d="M266.929 200.16H245.294V205.329H266.929V200.16Z" fill="#999999"/>
<path d="M292.386 200.16H270.751V205.329H292.386V200.16Z" fill="#999999"/>
<path d="M317.847 200.16H296.212V205.329H317.847V200.16Z" fill="#999999"/>
<path d="M255.202 209.799H251.868V212.757H255.202V209.799Z" fill="#BFBFBF"/>
<path d="M269.526 209.799H257.146V212.757H269.526V209.799Z" fill="#BFBFBF"/>
<path d="M284.085 209.799H271.704V212.757H284.085V209.799Z" fill="#BFBFBF"/>
<path d="M311.242 209.799H305.052V212.757H311.242V209.799Z" fill="#BFBFBF"/>
<path d="M303.256 209.799H286.364V212.757H303.256V209.799Z" fill="#BFBFBF"/>
<path d="M295.932 217.802H308.313V214.844H295.932V217.802Z" fill="#BFBFBF"/>
<path d="M281.374 217.802H293.755V214.844H281.374V217.802Z" fill="#BFBFBF"/>
<path d="M254.221 217.802H260.411V214.844H254.221V217.802Z" fill="#BFBFBF"/>
<path d="M262.21 217.802H279.103V214.844H262.21V217.802Z" fill="#BFBFBF"/>
<path d="M270.599 171.274L284.41 196.745H303.437L270.599 171.274Z" fill="white" stroke="#263238" stroke-width="0.968558" stroke-miterlimit="10" stroke-linecap="round" stroke-linejoin="round"/>
<path d="M244.114 196.745L270.598 171.274L284.409 196.745H244.114Z" fill="white" stroke="#263238" stroke-width="0.968558" stroke-miterlimit="10" stroke-linecap="round" stroke-linejoin="round"/>
<path d="M269.35 189.114H272.377" stroke="#263238" stroke-width="0.968558" stroke-miterlimit="10" stroke-linecap="round" stroke-linejoin="round"/>
<path d="M258.287 189.114H267.386" stroke="#263238" stroke-width="0.968558" stroke-miterlimit="10" stroke-linecap="round" stroke-linejoin="round"/>
<path d="M288.17 192.49H290.998" stroke="#263238" stroke-width="0.968558" stroke-miterlimit="10" stroke-linecap="round" stroke-linejoin="round"/>
<path d="M282.377 192.49H286.681" stroke="#263238" stroke-width="0.968558" stroke-miterlimit="10" stroke-linecap="round" stroke-linejoin="round"/>
<path d="M266.279 181.915H276.316" stroke="#263238" stroke-width="0.968558" stroke-miterlimit="10" stroke-linecap="round" stroke-linejoin="round"/>
<path d="M301.066 162.854C301.066 166.317 298.259 169.124 294.796 169.124C291.332 169.124 288.525 166.317 288.525 162.854C288.525 159.39 291.333 156.583 294.796 156.583C298.258 156.583 301.066 159.39 301.066 162.854Z" fill="white"/>
<path d="M434.827 47.1188H345.041V126.815H434.827V47.1188Z" fill="white" stroke="#263238" stroke-width="0.968558" stroke-miterlimit="10" stroke-linecap="round" stroke-linejoin="round"/>
<path d="M431.411 50.9271H348.58V98.5492H431.411V50.9271Z" fill="#F8E643" stroke="#263238" stroke-width="0.968558" stroke-miterlimit="10"/>
<path d="M375.288 101.87H353.653V107.039H375.288V101.87Z" fill="#999999"/>
<path d="M400.745 101.87H379.11V107.039H400.745V101.87Z" fill="#999999"/>
<path d="M426.206 101.87H404.571V107.039H426.206V101.87Z" fill="#999999"/>
<path d="M363.561 111.509H360.228V114.467H363.561V111.509Z" fill="#BFBFBF"/>
<path d="M377.886 111.509H365.505V114.467H377.886V111.509Z" fill="#BFBFBF"/>
<path d="M392.445 111.509H380.063V114.467H392.445V111.509Z" fill="#BFBFBF"/>
<path d="M419.601 111.509H413.411V114.467H419.601V111.509Z" fill="#BFBFBF"/>
<path d="M411.615 111.509H394.724V114.467H411.615V111.509Z" fill="#BFBFBF"/>
<path d="M404.288 119.513H416.669V116.555H404.288V119.513Z" fill="#BFBFBF"/>
<path d="M389.729 119.513H402.11V116.555H389.729V119.513Z" fill="#BFBFBF"/>
<path d="M362.577 119.513H368.767V116.555H362.577V119.513Z" fill="#BFBFBF"/>
<path d="M370.566 119.513H387.458V116.555H370.566V119.513Z" fill="#BFBFBF"/>
<path d="M419.698 64.5635C419.698 68.0271 416.89 70.834 413.428 70.834C409.964 70.834 407.157 68.0261 407.157 64.5635C407.157 61.1 409.965 58.2931 413.428 58.2931C416.89 58.2931 419.698 61.1009 419.698 64.5635Z" fill="white"/>
<path d="M360.443 98.6887L386.927 73.2175L419.765 98.6887H360.443Z" fill="white" stroke="#263238" stroke-width="0.968558" stroke-miterlimit="10" stroke-linecap="round" stroke-linejoin="round"/>
<path d="M377.811 81.9869L388.747 78.0254L398.235 81.9869L386.929 73.2175L377.811 81.9869Z" fill="white" stroke="#263238" stroke-width="0.968558" stroke-miterlimit="10" stroke-linecap="round" stroke-linejoin="round"/>
<path d="M392.967 85.9531L398.23 95.23" stroke="#263238" stroke-width="0.968558" stroke-miterlimit="10" stroke-linecap="round" stroke-linejoin="round"/>
<path d="M390.342 81.3167L391.783 83.8591" stroke="#263238" stroke-width="0.968558" stroke-miterlimit="10" stroke-linecap="round" stroke-linejoin="round"/>
<path d="M384.277 82.5872L379.182 92.356" stroke="#263238" stroke-width="0.968558" stroke-miterlimit="10" stroke-linecap="round" stroke-linejoin="round"/>
<path d="M434.834 146.295H345.048V225.991H434.834V146.295Z" fill="white" stroke="#263238" stroke-width="0.968558" stroke-miterlimit="10" stroke-linecap="round" stroke-linejoin="round"/>
<path d="M431.418 150.103H348.587V197.725H431.418V150.103Z" fill="#F8E643" stroke="#263238" stroke-width="0.968558" stroke-miterlimit="10"/>
<path d="M375.295 201.047H353.66V206.215H375.295V201.047Z" fill="#999999"/>
<path d="M400.752 201.047H379.117V206.215H400.752V201.047Z" fill="#999999"/>
<path d="M426.213 201.047H404.578V206.215H426.213V201.047Z" fill="#999999"/>
<path d="M363.572 210.685H360.238V213.643H363.572V210.685Z" fill="#BFBFBF"/>
<path d="M377.897 210.685H365.516V213.643H377.897V210.685Z" fill="#BFBFBF"/>
<path d="M392.455 210.685H380.074V213.643H392.455V210.685Z" fill="#BFBFBF"/>
<path d="M419.612 210.685H413.422V213.643H419.612V210.685Z" fill="#BFBFBF"/>
<path d="M411.626 210.685H394.734V213.643H411.626V210.685Z" fill="#BFBFBF"/>
<path d="M404.299 218.689H416.68V215.731H404.299V218.689Z" fill="#BFBFBF"/>
<path d="M389.74 218.689H402.121V215.731H389.74V218.689Z" fill="#BFBFBF"/>
<path d="M362.587 218.689H368.777V215.731H362.587V218.689Z" fill="#BFBFBF"/>
<path d="M370.577 218.689H387.469V215.731H370.577V218.689Z" fill="#BFBFBF"/>
<path d="M396.377 163.739C396.377 167.202 393.569 170.009 390.106 170.009C386.643 170.009 383.836 167.201 383.836 163.739C383.836 160.275 386.644 157.468 390.106 157.468C393.569 157.468 396.377 160.276 396.377 163.739Z" fill="white"/>
<path d="M420.475 197.724H361.154L371.438 186.336C374.048 183.447 377.758 181.799 381.652 181.799H397.394C400.775 181.799 404.039 183.043 406.561 185.296L420.475 197.724Z" fill="white" stroke="#263238" stroke-width="0.968558" stroke-miterlimit="10" stroke-linecap="round" stroke-linejoin="round"/>
<path d="M382.459 188.728L378.856 195.078" stroke="#263238" stroke-width="0.968558" stroke-miterlimit="10" stroke-linecap="round" stroke-linejoin="round"/>
<path d="M385.092 184.091L383.649 186.634" stroke="#263238" stroke-width="0.968558" stroke-miterlimit="10" stroke-linecap="round" stroke-linejoin="round"/>
<path d="M394.368 184.025L398.032 191.048" stroke="#263238" stroke-width="0.968558" stroke-miterlimit="10" stroke-linecap="round" stroke-linejoin="round"/>
<path d="M326.465 47.1188H236.679V126.815H326.465V47.1188Z" fill="white" stroke="#263238" stroke-width="0.968558" stroke-miterlimit="10" stroke-linecap="round" stroke-linejoin="round"/>
<path d="M323.049 50.9271H240.218V98.5492H323.049V50.9271Z" fill="#F8E643" stroke="#263238" stroke-width="0.968558" stroke-miterlimit="10"/>
<path d="M266.926 101.87H245.291V107.039H266.926V101.87Z" fill="#999999"/>
<path d="M292.383 101.87H270.748V107.039H292.383V101.87Z" fill="#999999"/>
<path d="M317.844 101.87H296.209V107.039H317.844V101.87Z" fill="#999999"/>
<path d="M255.199 111.51H251.865V114.467H255.199V111.51Z" fill="#BFBFBF"/>
<path d="M269.523 111.51H257.143V114.467H269.523V111.51Z" fill="#BFBFBF"/>
<path d="M284.082 111.51H271.701V114.467H284.082V111.51Z" fill="#BFBFBF"/>
<path d="M311.239 111.51H305.049V114.467H311.239V111.51Z" fill="#BFBFBF"/>
<path d="M303.253 111.51H286.361V114.467H303.253V111.51Z" fill="#BFBFBF"/>
<path d="M295.926 119.513H308.307V116.555H295.926V119.513Z" fill="#BFBFBF"/>
<path d="M281.367 119.513H293.748V116.555H281.367V119.513Z" fill="#BFBFBF"/>
<path d="M254.214 119.513H260.404V116.555H254.214V119.513Z" fill="#BFBFBF"/>
<path d="M262.203 119.513H279.096V116.555H262.203V119.513Z" fill="#BFBFBF"/>
<path d="M240.207 98.6456L267.392 72.4994L281.569 98.6456H240.207Z" fill="white" stroke="#263238" stroke-width="0.968558" stroke-miterlimit="10" stroke-linecap="round" stroke-linejoin="round"/>
<path d="M269.273 98.6458L304.608 64.661L323.037 98.6458H269.273Z" fill="white" stroke="#263238" stroke-width="0.968558" stroke-miterlimit="10" stroke-linecap="round" stroke-linejoin="round"/>
<path d="M288.011 65.0059C288.011 68.4695 285.204 71.2764 281.74 71.2764C278.277 71.2764 275.47 68.4685 275.47 65.0059C275.47 61.5424 278.278 58.7355 281.74 58.7355C285.203 58.7355 288.011 61.5424 288.011 65.0059Z" fill="white"/>
<path d="M299.752 74.832L302.112 72.4998" stroke="#263238" stroke-width="0.968558" stroke-miterlimit="10" stroke-linecap="round" stroke-linejoin="round"/>
<path d="M281.561 92.7988L297.387 77.1633" stroke="#263238" stroke-width="0.968558" stroke-miterlimit="10" stroke-linecap="round" stroke-linejoin="round"/>
<path d="M264.416 79.5877L266.036 78.0448" stroke="#263238" stroke-width="0.968558" stroke-miterlimit="10" stroke-linecap="round" stroke-linejoin="round"/>
<path d="M253.529 89.9395L262.789 81.1295" stroke="#263238" stroke-width="0.968558" stroke-miterlimit="10" stroke-linecap="round" stroke-linejoin="round"/>
<path d="M218.025 146.295H128.238V225.991H218.025V146.295Z" fill="white" stroke="#263238" stroke-width="0.968558" stroke-miterlimit="10" stroke-linecap="round" stroke-linejoin="round"/>
<path d="M214.608 150.103H131.777V197.725H214.608V150.103Z" fill="#F8E643" stroke="#263238" stroke-width="0.968558" stroke-miterlimit="10"/>
<path d="M158.489 201.047H136.854V206.215H158.489V201.047Z" fill="#999999"/>
<path d="M183.946 201.047H162.312V206.215H183.946V201.047Z" fill="#999999"/>
<path d="M209.407 201.047H187.772V206.215H209.407V201.047Z" fill="#999999"/>
<path d="M146.766 210.685H143.433V213.643H146.766V210.685Z" fill="#BFBFBF"/>
<path d="M161.091 210.685H148.71V213.643H161.091V210.685Z" fill="#BFBFBF"/>
<path d="M175.65 210.685H163.269V213.643H175.65V210.685Z" fill="#BFBFBF"/>
<path d="M202.806 210.685H196.616V213.643H202.806V210.685Z" fill="#BFBFBF"/>
<path d="M194.816 210.685H177.925V213.643H194.816V210.685Z" fill="#BFBFBF"/>
<path d="M187.493 218.689H199.874V215.731H187.493V218.689Z" fill="#BFBFBF"/>
<path d="M172.934 218.689H185.315V215.731H172.934V218.689Z" fill="#BFBFBF"/>
<path d="M145.782 218.689H151.972V215.731H145.782V218.689Z" fill="#BFBFBF"/>
<path d="M153.771 218.689H170.663V215.731H153.771V218.689Z" fill="#BFBFBF"/>
<path d="M179.567 163.739C179.567 167.202 176.759 170.009 173.297 170.009C169.833 170.009 167.026 167.201 167.026 163.739C167.026 160.275 169.834 157.468 173.297 157.468C176.759 157.468 179.567 160.276 179.567 163.739Z" fill="white"/>
<path d="M166.994 197.675L178.566 177.313L190.508 197.675H166.994Z" fill="white" stroke="#263238" stroke-width="0.968558" stroke-miterlimit="10" stroke-linecap="round" stroke-linejoin="round"/>
<path d="M170.275 197.72L178.603 183.066L187.13 197.605L170.275 197.72Z" fill="white" stroke="#263238" stroke-width="0.968558" stroke-miterlimit="10" stroke-linecap="round" stroke-linejoin="round"/>
<path d="M178.537 183.066L178.639 197.596" stroke="#263238" stroke-width="0.968558" stroke-miterlimit="10" stroke-linecap="round" stroke-linejoin="round"/>
<path d="M178.561 177.313L190.502 197.675L215.09 197.596L203.096 177.147L178.561 177.313Z" fill="white" stroke="#263238" stroke-width="0.968558" stroke-miterlimit="10" stroke-linecap="round" stroke-linejoin="round"/>
<path d="M189.635 182.485L194.324 190.479L204.032 190.413L199.344 182.419L189.635 182.485Z" fill="white" stroke="#263238" stroke-width="0.968558" stroke-miterlimit="10" stroke-linecap="round" stroke-linejoin="round"/>
<path d="M82.6635 143.079C82.6635 145.451 80.7419 147.372 78.3709 147.372H60.6918V165.045C60.6918 167.417 58.7702 169.338 56.404 169.338C54.032 169.338 52.1114 167.416 52.1114 165.045V147.372H34.4323C32.0603 147.372 30.1396 145.45 30.1396 143.079C30.1396 141.896 30.6181 140.819 31.3959 140.043C32.1736 139.265 33.2439 138.786 34.4323 138.786H52.1114V121.107C52.1114 118.741 54.032 116.82 56.404 116.82C57.5876 116.82 58.6578 117.298 59.4346 118.076C60.2124 118.853 60.6908 119.924 60.6908 121.106V138.785H78.3699C80.7429 138.786 82.6635 140.707 82.6635 143.079Z" stroke="#263238" stroke-width="0.968558" stroke-miterlimit="10" stroke-linecap="round" stroke-linejoin="round"/>
<path d="M325.129 302.108C327.043 302.108 328.594 303.658 328.594 305.573V319.843H342.859C344.774 319.843 346.324 321.394 346.324 323.304C346.324 325.218 344.774 326.769 342.859 326.769H328.594V341.039C328.594 342.954 327.043 344.504 325.129 344.504C324.174 344.504 323.305 344.118 322.677 343.49C322.049 342.863 321.663 341.999 321.663 341.039V326.769H307.393C305.483 326.769 303.933 325.218 303.933 323.304C303.933 322.349 304.319 321.485 304.947 320.857C305.574 320.229 306.438 319.843 307.393 319.843H321.663V305.573C321.663 303.658 323.214 302.108 325.129 302.108Z" stroke="#263238" stroke-width="0.968558" stroke-miterlimit="10" stroke-linecap="round" stroke-linejoin="round"/>
<path d="M246.619 305.966C247.611 305.966 248.415 306.77 248.415 307.762V315.157H255.807C256.799 315.157 257.603 315.961 257.603 316.95C257.603 317.942 256.799 318.745 255.807 318.745H248.415V326.139C248.415 327.131 247.611 327.935 246.619 327.935C246.124 327.935 245.674 327.735 245.349 327.409C245.024 327.084 244.823 326.636 244.823 326.139V318.745H237.43C236.44 318.745 235.636 317.942 235.636 316.95C235.636 316.455 235.836 316.007 236.162 315.682C236.487 315.356 236.935 315.157 237.43 315.157H244.823V307.762C244.823 306.769 245.627 305.966 246.619 305.966Z" stroke="#263238" stroke-width="0.968558" stroke-miterlimit="10" stroke-linecap="round" stroke-linejoin="round"/>
<path d="M80.668 224.048C80.668 225.04 79.8641 225.843 78.8723 225.843H71.4774V233.235C71.4774 234.227 70.6735 235.031 69.6846 235.031C68.6928 235.031 67.8889 234.227 67.8889 233.235V225.843H60.494C59.5021 225.843 58.6982 225.04 58.6982 224.048C58.6982 223.553 58.8987 223.102 59.2232 222.778C59.5486 222.453 59.9961 222.252 60.493 222.252H67.8879V214.858C67.8879 213.868 68.6918 213.065 69.6836 213.065C70.1785 213.065 70.626 213.266 70.9515 213.591C71.2769 213.917 71.4764 214.364 71.4764 214.859V222.253H78.8714C79.8641 222.252 80.668 223.055 80.668 224.048Z" stroke="#263238" stroke-width="0.968558" stroke-miterlimit="10" stroke-linecap="round" stroke-linejoin="round"/>
<path d="M285.696 329.701C286.688 329.701 287.492 330.505 287.492 331.496V338.89H294.884C295.876 338.89 296.68 339.694 296.68 340.683C296.68 341.675 295.876 342.479 294.884 342.479H287.492V349.873C287.492 350.865 286.688 351.669 285.696 351.669C285.201 351.669 284.751 351.468 284.427 351.143C284.101 350.817 283.901 350.37 283.901 349.873V342.479H276.507C275.517 342.479 274.714 341.675 274.714 340.683C274.714 340.188 274.914 339.741 275.24 339.415C275.565 339.09 276.013 338.889 276.508 338.889H283.902V331.495C283.901 330.504 284.705 329.701 285.696 329.701Z" stroke="#263238" stroke-width="0.968558" stroke-miterlimit="10" stroke-linecap="round" stroke-linejoin="round"/>
<path d="M80.668 103.262C80.668 104.254 79.8641 105.057 78.8723 105.057H71.4774V112.449C71.4774 113.441 70.6735 114.245 69.6846 114.245C68.6928 114.245 67.8889 113.441 67.8889 112.449V105.057H60.494C59.5021 105.057 58.6982 104.254 58.6982 103.262C58.6982 102.767 58.8987 102.316 59.2232 101.992C59.5486 101.666 59.9961 101.467 60.493 101.467H67.8879V94.073C67.8879 93.0831 68.6918 92.2792 69.6836 92.2792C70.1785 92.2792 70.626 92.4797 70.9515 92.8052C71.2769 93.1306 71.4764 93.5781 71.4764 94.073V101.467H78.8714C79.8641 101.466 80.668 102.27 80.668 103.262Z" stroke="#263238" stroke-width="0.968558" stroke-miterlimit="10" stroke-linecap="round" stroke-linejoin="round"/>
<path d="M502.811 181.363C502.652 181.342 502.492 181.31 502.334 181.278C502.642 181.353 502.811 181.363 502.811 181.363ZM502.323 181.278C502.026 181.204 501.739 181.109 501.463 181.002C501.814 181.141 502.099 181.226 502.323 181.278Z" stroke="#263238" stroke-width="0.968558" stroke-miterlimit="10" stroke-linecap="round" stroke-linejoin="round"/>
<path d="M515.261 150.878C508.932 148.096 500.65 153.034 496.784 161.868C493.333 169.747 494.533 178.083 499.301 181.767C499.491 181.915 499.694 182.054 499.895 182.192C498.271 185.802 490.424 203.599 490.424 203.599C492.176 206.742 494.215 204.746 494.215 204.746L495.107 202.314L501.669 184.475L502.125 183.233C508.316 185.218 516.014 180.344 519.709 171.902C523.575 163.068 521.6 153.649 515.261 150.878ZM518.531 162.059C518.531 162.356 518.51 162.654 518.467 162.962C518.277 165.255 517.693 167.73 516.598 170.204C516.258 170.989 515.877 171.754 515.462 172.476C515.441 172.518 515.409 172.572 515.387 172.614C515.218 172.901 515.047 173.198 514.867 173.474C514.666 173.804 514.463 174.112 514.241 174.42C514.039 174.717 513.827 175.014 513.614 175.29L513.582 175.322C513.37 175.609 513.157 175.874 512.923 176.14C512.074 177.149 511.161 178.04 510.226 178.784C510.119 178.869 510.014 178.953 509.907 179.028C509.854 179.071 509.811 179.103 509.77 179.135C509.579 179.283 509.377 179.421 509.186 179.548C508.91 179.728 508.623 179.909 508.347 180.068C508.124 180.196 507.911 180.312 507.699 180.419C506.955 180.78 506.212 181.056 505.48 181.226C505.374 181.258 505.257 181.279 505.151 181.3C504.971 181.332 504.789 181.364 504.609 181.386C504.567 181.386 504.524 181.396 504.482 181.396C504.237 181.428 504.004 181.439 503.77 181.439H503.716C503.526 181.439 503.344 181.428 503.154 181.407C503.068 181.407 502.983 181.396 502.909 181.375C502.878 181.375 502.846 181.364 502.814 181.364C502.814 181.364 502.644 181.354 502.336 181.279C502.336 181.279 502.336 181.279 502.325 181.279C502.103 181.226 501.816 181.14 501.465 181.003C501.444 180.992 501.412 180.982 501.391 180.971L501.327 180.95C501.263 180.918 501.188 180.886 501.115 180.854C501.093 180.843 501.072 180.843 501.051 180.822C501.019 180.811 500.998 180.801 500.976 180.79C500.87 180.737 500.775 180.683 500.679 180.62C500.626 180.599 500.583 180.578 500.53 180.546C500.445 180.482 500.36 180.418 500.264 180.344L500.254 180.334C500.211 180.312 500.168 180.28 500.137 180.248C498.575 178.984 497.768 176.564 497.736 173.548C497.715 170.692 498.395 167.314 499.818 163.885C499.892 163.694 499.977 163.491 500.062 163.301C500.879 161.442 501.835 159.754 502.865 158.267L502.876 158.256C502.908 158.203 502.94 158.15 502.982 158.108C503.226 157.768 503.47 157.439 503.725 157.12C503.842 156.96 503.969 156.812 504.097 156.664C505.69 154.732 507.432 153.298 509.12 152.501C509.279 152.427 509.449 152.353 509.608 152.289C509.661 152.268 509.725 152.246 509.789 152.225C509.948 152.161 510.097 152.109 510.256 152.066C510.639 151.949 511.01 151.876 511.371 151.844C511.551 151.822 511.732 151.812 511.902 151.812C512.156 151.812 512.411 151.833 512.655 151.876C512.942 151.918 513.229 151.982 513.505 152.098L513.537 152.109C513.802 152.194 514.078 152.3 514.375 152.406C514.641 152.513 514.917 152.629 515.193 152.757C515.978 153.129 516.669 153.861 517.221 154.881C517.232 154.892 517.232 154.913 517.242 154.924C517.253 154.934 517.253 154.945 517.253 154.956C517.327 155.083 517.402 155.221 517.465 155.37C517.476 155.402 517.497 155.434 517.508 155.466C517.508 155.487 517.518 155.498 517.529 155.519C517.54 155.541 517.54 155.551 517.55 155.573C517.635 155.763 517.709 155.955 517.784 156.167C517.869 156.401 517.943 156.634 518.006 156.889C518.006 156.889 518.006 156.899 518.017 156.91C518.102 157.218 518.187 157.537 518.24 157.877C518.377 158.546 518.473 159.268 518.516 160.021C518.562 160.668 518.573 161.348 518.531 162.059Z" stroke="#263238" stroke-width="0.968558" stroke-miterlimit="10" stroke-linecap="round" stroke-linejoin="round"/>
<path d="M517.23 154.881L499.826 163.886" stroke="#263238" stroke-width="0.968558" stroke-miterlimit="10" stroke-linecap="round" stroke-linejoin="round"/>
<path d="M517.487 155.369C517.424 155.22 517.35 155.083 517.275 154.955" stroke="#263238" stroke-width="0.968558" stroke-miterlimit="10" stroke-linecap="round" stroke-linejoin="round"/>
<path d="M517.557 155.572C517.642 155.763 517.715 155.965 517.79 156.167C517.875 156.4 517.939 156.633 518.013 156.888" stroke="#263238" stroke-width="0.968558" stroke-miterlimit="10" stroke-linecap="round" stroke-linejoin="round"/>
<path d="M518.03 156.909C518.115 157.217 518.188 157.547 518.252 157.876C518.38 158.545 518.475 159.267 518.528 160.02C518.56 160.668 518.571 161.358 518.539 162.059C518.518 162.357 518.496 162.665 518.475 162.962C512.571 166.147 502.962 170.968 497.759 173.548H497.748" stroke="#263238" stroke-width="0.968558" stroke-miterlimit="10" stroke-linecap="round" stroke-linejoin="round"/>
<path d="M515.48 172.476C515.458 172.519 515.426 172.572 515.405 172.614C515.236 172.912 515.065 173.198 514.885 173.474C514.684 173.793 514.471 174.112 514.258 174.42C514.057 174.717 513.845 175.014 513.632 175.291L513.6 175.322C513.388 175.599 513.175 175.875 512.941 176.14C512.092 177.149 511.178 178.04 510.244 178.784C510.137 178.869 510.032 178.954 509.925 179.028C509.872 179.071 509.829 179.103 509.788 179.135C509.597 179.283 509.394 179.421 509.204 179.548C508.927 179.728 508.641 179.91 508.365 180.068C508.142 180.196 507.929 180.312 507.717 180.419C506.973 180.78 506.23 181.056 505.498 181.226C505.391 181.258 505.275 181.279 505.168 181.3C504.988 181.332 504.807 181.364 504.627 181.386C504.584 181.386 504.542 181.396 504.499 181.396C504.255 181.428 504.022 181.439 503.787 181.439H503.734C503.543 181.439 503.351 181.428 503.171 181.407C503.086 181.396 503.012 181.386 502.927 181.375C502.895 181.375 502.863 181.364 502.831 181.364C502.831 181.364 502.662 181.354 502.354 181.279C502.354 181.279 502.354 181.279 502.343 181.279C502.12 181.226 501.834 181.141 501.483 181.003C501.462 180.992 501.43 180.982 501.409 180.971C501.302 180.918 501.186 180.875 501.069 180.822C500.951 180.758 500.824 180.694 500.697 180.62C500.643 180.599 500.601 180.578 500.547 180.546C500.452 180.471 500.367 180.418 500.282 180.344L500.271 180.334L515.48 172.476Z" stroke="#263238" stroke-width="0.968558" stroke-miterlimit="10"/>
<path d="M514.392 152.407C510.74 154.318 506.534 156.453 502.893 158.258C502.925 158.205 502.956 158.152 502.999 158.11C503.243 157.77 503.487 157.441 503.742 157.122C503.859 156.963 503.986 156.814 504.114 156.666C505.707 154.734 507.449 153.3 509.137 152.503C509.296 152.429 509.456 152.366 509.625 152.291C509.678 152.27 509.742 152.249 509.806 152.227C509.965 152.163 510.125 152.111 510.273 152.068C510.656 151.951 511.027 151.878 511.388 151.846C511.568 151.824 511.749 151.814 511.919 151.814C512.173 151.814 512.428 151.835 512.672 151.878C512.959 151.92 513.245 151.984 513.522 152.1L513.553 152.111C513.819 152.194 514.095 152.301 514.392 152.407Z" stroke="#263238" stroke-width="0.968558" stroke-miterlimit="10"/>
<path d="M118.004 305.201L123.886 299.319" stroke="#263238" stroke-width="0.968558" stroke-miterlimit="10" stroke-linecap="round" stroke-linejoin="round"/>
<path d="M87.5234 335.671L112.111 311.084" stroke="#263238" stroke-width="0.968558" stroke-miterlimit="10" stroke-linecap="round" stroke-linejoin="round"/>
<path d="M511.43 107.039L520.09 98.3784" stroke="#263238" stroke-width="0.968558" stroke-miterlimit="10" stroke-linecap="round" stroke-linejoin="round"/>
<path d="M483.738 134.73L507.079 111.39" stroke="#263238" stroke-width="0.968558" stroke-miterlimit="10" stroke-linecap="round" stroke-linejoin="round"/>
<path d="M217.765 242.191C217.756 242.179 217.756 242.179 217.745 242.177C217.745 242.177 217.755 242.179 217.743 242.188C217.616 242.2 214.235 242.789 214.086 242.799C209.118 243.383 194.09 245.62 183.633 246.899C179.486 247.405 177.253 248.152 173.041 244.849C169.458 242.04 162.026 221.775 159.649 215.782C162.269 213.733 165.615 212.391 168.926 212.686C169.337 212.4 169.852 212.824 170.246 213.146C170.628 213.476 170.852 213.951 171.056 214.413C173.518 219.903 175.745 225.495 177.748 231.169C178.761 234.034 179.771 234.862 182.799 235.077C192.705 235.784 199.009 237.401 213.944 237.814L225.757 234.649L230.223 235.314L241.966 237.067C241.966 237.067 242.319 238.79 240.058 239.003C236.996 239.291 231.639 238.835 231.639 238.835L233.206 242.017L229.84 243.582L226.331 244.263L217.743 242.186" fill="white"/>
<path d="M217.765 242.191C217.756 242.179 217.756 242.179 217.745 242.177C217.745 242.177 217.755 242.179 217.743 242.188C217.616 242.2 214.235 242.789 214.086 242.799C209.118 243.383 194.09 245.62 183.633 246.899C179.486 247.405 177.253 248.152 173.041 244.849C169.458 242.04 162.026 221.775 159.649 215.782C162.269 213.733 165.615 212.391 168.926 212.686C169.337 212.4 169.852 212.824 170.246 213.146C170.628 213.476 170.852 213.951 171.056 214.413C173.518 219.903 175.745 225.495 177.748 231.169C178.761 234.034 179.771 234.862 182.799 235.077C192.705 235.784 199.009 237.401 213.944 237.814L225.757 234.649L230.223 235.314L241.966 237.067C241.966 237.067 242.319 238.79 240.058 239.003C236.996 239.291 231.639 238.835 231.639 238.835L233.206 242.017L229.84 243.582L226.331 244.263L217.743 242.186" stroke="#263238" stroke-width="0.968558" stroke-miterlimit="10" stroke-linecap="round" stroke-linejoin="round"/>
<path d="M234.171 239.005L227.912 238.07C227.299 238.646 225.507 239.823 224.895 240.398C225.656 240.8 227.725 240.724 228.486 241.126C228.486 241.126 230.59 243.31 226.325 244.264" stroke="#263238" stroke-width="0.968558" stroke-miterlimit="10" stroke-linecap="round" stroke-linejoin="round"/>
<path d="M226.934 238.848C227.545 239.402 229.435 241.041 230.621 241.06L226.934 238.848Z" fill="white"/>
<path d="M226.934 238.848C227.545 239.402 229.435 241.041 230.621 241.06" stroke="#263238" stroke-width="0.968558" stroke-miterlimit="10" stroke-linecap="round" stroke-linejoin="round"/>
<path d="M158.402 429.116L156.73 417.87L146.55 417.183L147.89 429.473C147.89 429.473 152.859 433.697 158.402 429.116Z" fill="#263238"/>
<path d="M157.822 440.996C157.706 440.948 157.589 440.89 157.483 440.841C156.524 440.386 155.517 439.853 154.5 440.047C153.957 440.144 153.463 440.444 152.94 440.599C150.645 441.277 148.291 439.059 147.458 436.415C146.625 433.771 146.916 430.855 147.216 428.066C147.4 428.385 147.604 428.695 147.826 428.967C148.408 429.683 149.124 430.235 149.909 430.623C149.918 430.633 149.928 430.642 149.938 430.642C151.052 431.185 152.311 431.398 153.521 431.214C153.541 431.223 153.56 431.214 153.58 431.214C154.8 431.03 155.972 430.458 156.911 429.47C157.328 429.034 157.783 428.676 158.306 428.492C159.071 428.211 160.001 428.289 161.222 428.957C172.767 435.311 172.311 434.497 179.295 437.693C180.699 438.333 181.154 439.824 180.263 440.996H157.822Z" fill="white" stroke="#263238" stroke-width="0.968558" stroke-miterlimit="10" stroke-linecap="round" stroke-linejoin="round"/>
<path d="M157.41 403.7C152.3 410.216 145.906 418.554 145.906 418.554L141.09 408.523C141.09 408.523 151.823 395.455 157.242 381.742C157.284 384.413 157.525 387.353 157.617 388.986C157.871 393.991 157.426 398.652 157.41 403.7Z" fill="#263238"/>
<path d="M146.74 431.133C146.673 431.557 146.591 432.004 146.276 432.288C145.392 433.097 144.386 431.666 143.625 430.734C141.332 427.9 139.216 424.449 137.292 421.155L136.645 415.972L134.947 416.703L134.732 416.721C134.561 416.429 134.39 416.143 134.227 415.858C130.364 409.303 134.862 407.963 139.673 408.118C140.223 408.135 141.374 408.24 143.267 411.765C144.264 413.627 144.153 413.15 144.631 414.292C146.834 419.583 147.57 425.468 146.74 431.133Z" fill="white" stroke="#263238" stroke-width="0.968558" stroke-miterlimit="10" stroke-linecap="round" stroke-linejoin="round"/>
<path d="M174.746 294.884C174.538 293.587 174.523 289.815 174.559 286.282C174.614 281.751 172.534 277.454 168.958 274.668C168.958 274.668 164.851 280.341 152.913 280.491C152.714 280.494 152.514 280.488 152.315 280.49C146.97 280.429 141.689 279.61 136.621 278.086C134.459 277.427 132.344 276.647 130.275 275.741C130.275 275.741 128.194 289.257 128.882 304.114C129.46 315.87 135.67 371.067 137.794 387.834C139.565 401.816 144.471 415.586 145.115 421.548C145.419 424.364 151.764 423.402 154.788 422.28C158.75 420.809 159.023 419.952 159.023 419.952C159.232 415.611 157.985 408.022 158.002 403.691C168.71 390.032 185.362 368.338 185.799 365.022C189.194 339.269 175.178 297.543 174.746 294.884ZM165.167 361.167C164.909 362.908 161.411 372.06 157.453 382.055C157.385 377.655 159.289 373.046 159.77 365.934C160.693 352.247 157.729 337.265 157.984 326.261C160.31 335.707 165.637 357.931 165.167 361.167Z" fill="#263238"/>
<path d="M182.318 369.112C180.599 370.607 178.569 371.747 176.389 372.413" stroke="#BFBFBF" stroke-width="0.968558" stroke-miterlimit="10" stroke-linecap="round" stroke-linejoin="round"/>
<path d="M184.734 366.503C184.397 366.961 184.035 367.402 183.65 367.822" stroke="#BFBFBF" stroke-width="0.968558" stroke-miterlimit="10" stroke-linecap="round" stroke-linejoin="round"/>
<path d="M141.069 284.835C140.458 287.636 139.354 292.251 137.868 294.701C136.381 297.152 134.081 299.227 131.291 299.888" stroke="#BFBFBF" stroke-width="0.968558" stroke-miterlimit="10" stroke-linecap="round" stroke-linejoin="round"/>
<path d="M165.158 358.619C165.744 362.49 166.892 366.277 168.554 369.821" stroke="#BFBFBF" stroke-width="0.968558" stroke-miterlimit="10" stroke-linecap="round" stroke-linejoin="round"/>
<path d="M165.899 362.269C165.258 367.801 165.639 373.443 166.993 378.85" stroke="#BFBFBF" stroke-width="0.968558" stroke-miterlimit="10" stroke-linecap="round" stroke-linejoin="round"/>
<path d="M133.743 298.896C135.47 320.617 137.702 337.133 139.529 353.613" stroke="#BFBFBF" stroke-width="0.968558" stroke-miterlimit="10" stroke-linecap="round" stroke-linejoin="round"/>
<path d="M139.651 359.352C139.658 358.667 139.655 357.978 139.646 357.285" stroke="#BFBFBF" stroke-width="0.968558" stroke-miterlimit="10" stroke-linecap="round" stroke-linejoin="round"/>
<path d="M149.779 423.003C148.608 419.532 140.502 392.781 139.996 381.689C139.66 374.321 139.299 369.068 139.586 361.932" stroke="#BFBFBF" stroke-width="0.968558" stroke-miterlimit="10" stroke-linecap="round" stroke-linejoin="round"/>
<path d="M158.053 379.567L158.071 403.581" stroke="#BFBFBF" stroke-width="0.968558" stroke-miterlimit="10" stroke-linecap="round" stroke-linejoin="round"/>
<path d="M137.87 294.701L143.704 355.415V371.355L143.502 376.245C143.343 380.102 143.693 383.962 144.543 387.726L152.491 422.935" stroke="#BFBFBF" stroke-width="0.968558" stroke-miterlimit="10" stroke-linecap="round" stroke-linejoin="round"/>
<path d="M139.319 177.158C137.72 183.302 141.095 191.788 141.095 191.788L140.665 204.519L153.026 206.809L154.104 197.942C154.104 197.942 158.5 198.647 160.823 197.657C163.145 196.667 164.633 186.794 164.633 186.794C164.633 186.794 166.939 185.373 167.356 184.671C167.772 183.97 164.124 180.546 163.798 180.032C163.598 179.697 163.499 179.311 163.513 178.92C163.565 178.192 163.578 177.462 163.554 176.733C163.523 176.117 162.878 174.013 162.404 172.537C162.025 171.354 161.279 170.302 160.225 169.645C153.195 165.253 140.791 171.498 139.319 177.158Z" fill="white" stroke="#263238" stroke-width="0.968558" stroke-linecap="round" stroke-linejoin="round"/>
<path d="M161.719 179.385C161.995 179.313 162.36 179.833 162.541 180.539C162.722 181.245 162.643 181.875 162.373 181.947C162.103 182.018 161.733 181.498 161.552 180.792C161.377 180.086 161.443 179.456 161.719 179.385Z" fill="#263238"/>
<path d="M159.717 179.213C159.718 179.209 159.719 179.206 159.72 179.202C160.045 177.965 161.312 177.225 162.549 177.551" fill="white"/>
<path d="M159.717 179.213C159.718 179.209 159.719 179.206 159.72 179.202C160.045 177.965 161.312 177.225 162.549 177.551" stroke="#263238" stroke-width="0.968558" stroke-linecap="round" stroke-linejoin="round"/>
<path d="M159.654 190.003C162.519 190.984 164.125 189.331 164.125 189.331L159.654 190.003Z" fill="white"/>
<path d="M159.654 190.003C162.519 190.984 164.125 189.331 164.125 189.331" stroke="#263238" stroke-width="0.968558" stroke-linecap="round" stroke-linejoin="round"/>
<path d="M161.949 203.025C160.458 202.607 157.629 202.35 156.683 202.445C154.246 202.688 154.731 204.297 151.757 204.32C148.107 204.349 141.001 201.455 137.338 203.117C128.179 207.283 126.634 207.69 125.294 209.516C121.773 214.319 125.477 243.085 127.449 251.491C129.023 258.178 128.867 275.558 131.763 278.305C137.154 283.398 144.697 282.562 151.985 281.179C158.294 279.975 168.833 278.348 171.159 272.361C171.495 271.498 171.417 267.895 171.227 262.695C170.652 246.972 171.592 237.931 171.304 227.862L177.213 225.476C177.212 225.477 170.237 205.349 161.949 203.025Z" fill="#F8E643"/>
<mask id="mask0_1155_96017" style="mask-type:luminance" maskUnits="userSpaceOnUse" x="123" y="202" width="55" height="81">
<path d="M161.947 203.025C160.456 202.608 157.627 202.35 156.681 202.445C154.244 202.688 154.729 204.297 151.755 204.32C148.105 204.349 140.999 201.455 137.337 203.117C128.177 207.283 126.632 207.69 125.293 209.516C121.771 214.319 125.475 243.086 127.447 251.491C129.021 258.178 128.865 275.558 131.762 278.305C137.153 283.398 144.695 282.562 151.983 281.179C158.292 279.975 168.831 278.348 171.157 272.361C171.493 271.498 171.415 267.895 171.225 262.695C170.65 246.972 171.59 237.931 171.302 227.862L177.211 225.476C177.21 225.477 170.236 205.349 161.947 203.025Z" fill="white"/>
</mask>
<g mask="url(#mask0_1155_96017)">
<path opacity="0.2" d="M153.169 260.835C157.31 259.16 165.955 251.39 167.24 240.638C167.561 237.958 169.458 230.866 167.63 228.632C166.331 232.388 165.483 239.396 164.067 243.133C163.346 245.038 162.565 246.921 161.729 248.779C161.33 249.664 154.036 260.484 153.169 260.835Z" fill="black"/>
</g>
<mask id="mask1_1155_96017" style="mask-type:luminance" maskUnits="userSpaceOnUse" x="123" y="202" width="55" height="81">
<path d="M161.947 203.025C160.456 202.608 157.627 202.35 156.681 202.445C154.244 202.688 154.729 204.297 151.755 204.32C148.105 204.349 140.999 201.455 137.337 203.117C128.177 207.283 126.632 207.69 125.293 209.516C121.771 214.319 125.475 243.086 127.447 251.491C129.021 258.178 128.865 275.558 131.762 278.305C137.153 283.398 144.695 282.562 151.983 281.179C158.292 279.975 168.831 278.348 171.157 272.361C171.493 271.498 171.415 267.895 171.225 262.695C170.65 246.972 171.59 237.931 171.302 227.862L177.211 225.476C177.21 225.477 170.236 205.349 161.947 203.025Z" fill="white"/>
</mask>
<g mask="url(#mask1_1155_96017)">
<path opacity="0.2" d="M129.288 263.281C132.041 269.682 138.252 274.171 144.961 276.055C151.67 277.939 159.453 277.777 166.286 276.402C157.519 281.509 146.861 285.079 137.367 281.503C135.658 280.859 132.939 278.71 131.669 277.397C128.764 274.39 128.811 268.088 129.065 263.914C128.533 263.943 128.001 263.972 127.47 264.001" fill="black"/>
</g>
<mask id="mask2_1155_96017" style="mask-type:luminance" maskUnits="userSpaceOnUse" x="123" y="202" width="55" height="81">
<path d="M161.947 203.025C160.456 202.608 157.627 202.35 156.681 202.445C154.244 202.688 154.729 204.297 151.755 204.32C148.105 204.349 140.999 201.455 137.337 203.117C128.177 207.283 126.632 207.69 125.293 209.516C121.771 214.319 125.475 243.086 127.447 251.491C129.021 258.178 128.865 275.558 131.762 278.305C137.153 283.398 144.695 282.562 151.983 281.179C158.292 279.975 168.831 278.348 171.157 272.361C171.493 271.498 171.415 267.895 171.225 262.695C170.65 246.972 171.59 237.931 171.302 227.862L177.211 225.476C177.21 225.477 170.236 205.349 161.947 203.025Z" fill="white"/>
</mask>
<g mask="url(#mask2_1155_96017)">
<path opacity="0.2" d="M146.225 212.72C146.583 213.129 146.981 213.561 147.515 213.663C148.127 213.779 148.742 213.411 149.134 212.928C149.527 212.444 149.757 211.852 150.054 211.305C150.789 209.955 151.972 208.854 153.372 208.218C154.147 210.042 155.318 211.696 156.78 213.033C156.945 213.023 157.111 213.014 157.277 213.004C158.025 211.149 158.22 209.076 157.83 207.114C157.709 207.625 157.35 208.074 156.881 208.307C156.456 207.526 156.022 206.733 155.385 206.114C154.748 205.495 153.864 205.066 152.985 205.185C152.607 205.236 152.249 205.383 151.909 205.556C149.71 206.665 148.167 208.756 147.029 210.939C147.088 210.825 142.401 207.894 141.841 207.666C143.206 209.417 144.763 211.05 146.225 212.72Z" fill="black"/>
</g>
<path d="M161.949 203.025C160.458 202.607 157.629 202.35 156.683 202.445C154.246 202.688 154.731 204.297 151.757 204.32C148.107 204.349 141.001 201.455 137.338 203.117C128.179 207.283 126.634 207.69 125.294 209.516C121.773 214.319 125.477 243.085 127.449 251.491C129.023 258.178 128.867 275.558 131.763 278.305C137.154 283.398 144.697 282.562 151.985 281.179C158.294 279.975 168.833 278.348 171.159 272.361C171.495 271.498 171.417 267.895 171.227 262.695C170.652 246.972 171.592 237.931 171.304 227.862L177.213 225.476C177.212 225.477 170.237 205.349 161.949 203.025Z" stroke="#263238" stroke-width="0.968558" stroke-miterlimit="10"/>
<path opacity="0.2" d="M170.853 225.594C172.097 224.874 173.449 224.337 174.851 224.01C172.92 220.762 170.987 217.515 169.056 214.267C168.473 213.286 167.622 212.167 166.491 212.318C166.485 214.268 168.773 217.427 169.444 219.401C169.698 220.145 171.456 225.245 170.853 225.594Z" fill="black"/>
<path d="M140.995 200.409C139.242 200.846 137.831 200.96 137.443 202.169C137.195 202.942 137.79 203.665 138.419 204.315C140.831 206.809 143.879 209.081 147.335 210.942C149.129 208.246 150.571 206.822 152.484 205.18C148.727 204.498 144.93 202.98 141.866 200.882L140.995 200.409Z" fill="white" stroke="#263238" stroke-width="0.968558" stroke-miterlimit="10" stroke-linecap="round" stroke-linejoin="round"/>
<path d="M154.081 201.083C155.695 201.3 155.981 201.652 156.701 202.445C157.468 203.288 158.112 206.779 157.373 209.017C155.645 207.06 154.558 204.084 152.101 204.887C154.027 204.258 154.081 201.083 154.081 201.083Z" fill="white" stroke="#263238" stroke-width="0.968558" stroke-miterlimit="10" stroke-linecap="round" stroke-linejoin="round"/>
<path d="M168.048 226.157C168.611 239.857 167.144 254.219 150.944 262.002" stroke="#263238" stroke-width="0.968558" stroke-miterlimit="10" stroke-linecap="round" stroke-linejoin="round"/>
<path d="M144.351 268.34C151.45 270.183 158.913 270.628 166.177 269.613" stroke="#263238" stroke-width="0.968558" stroke-miterlimit="10" stroke-linecap="round" stroke-linejoin="round"/>
<path d="M138.718 266.549C139.654 266.902 140.602 267.231 141.557 267.533" stroke="#263238" stroke-width="0.968558" stroke-miterlimit="10" stroke-linecap="round" stroke-linejoin="round"/>
<path opacity="0.2" d="M166.32 269.847C166.7 269.81 167.216 269.485 166.972 269.19C156.797 270.011 147.757 265.088 137.858 264.404C137.953 265.364 137.555 265.836 138.154 266.434C138.844 267.123 141.106 267.395 142.047 267.66C144.738 268.417 147.476 269.003 150.241 269.416C155.601 270.215 160.926 270.231 166.32 269.847Z" fill="black"/>
<path d="M153.597 205.258C153.561 205.12 156.63 220.428 156.63 220.428L154.746 220.889" stroke="#263238" stroke-width="0.968558" stroke-miterlimit="10" stroke-linecap="round" stroke-linejoin="round"/>
<path d="M153.503 197.315C151.488 196.302 153.882 198.195 153.882 198.195C154.221 198.228 154.562 198.212 154.901 198.174C155.274 198.132 158.914 198.154 158.914 198.154C158.914 198.154 155.159 197.939 153.503 197.315Z" fill="#263238" stroke="#263238" stroke-width="0.968558" stroke-linecap="round" stroke-linejoin="round"/>
<path d="M170.508 225.786L178.2 221.77L179.581 225.917L171.339 230.187L170.508 225.786Z" fill="white" stroke="#263238" stroke-width="0.968558" stroke-miterlimit="10" stroke-linecap="round" stroke-linejoin="round"/>
<path d="M145.873 197.41C147.087 200.524 147.385 201.992 149.189 204.369L145.873 197.41Z" fill="#263238"/>
<path d="M145.873 197.41C147.087 200.524 147.385 201.992 149.189 204.369" stroke="#263238" stroke-width="0.968558" stroke-linecap="round" stroke-linejoin="round"/>
<path d="M112.646 236.952C117.271 239.353 124.426 242.08 129.505 243.249C131.844 236.636 131.844 236.636 134.031 233.704C137.08 229.618 139.029 224.473 138.309 219.426C137.743 215.452 135.244 211.708 131.689 209.771C120.48 203.661 113.671 228.308 112.646 236.952Z" fill="#F8E643"/>
<mask id="mask3_1155_96017" style="mask-type:luminance" maskUnits="userSpaceOnUse" x="112" y="208" width="27" height="36">
<path d="M112.651 236.952C117.277 239.353 124.432 242.08 129.511 243.249C131.85 236.636 131.85 236.636 134.037 233.704C137.086 229.618 139.035 224.473 138.315 219.426C137.749 215.452 135.25 211.708 131.695 209.771C120.486 203.661 113.677 228.308 112.651 236.952Z" fill="white"/>
</mask>
<g mask="url(#mask3_1155_96017)">
<path opacity="0.2" d="M122.729 213.925C123.72 214.086 124.711 214.248 125.702 214.408C123.58 215.634 122.128 217.95 121.951 220.394C122.592 219.889 123.233 219.384 123.875 218.878C124.045 221.166 123.611 223.451 123.515 225.742C123.419 228.034 123.717 230.476 125.134 232.279C125.657 229.227 126.6 226.248 127.926 223.451C127.455 226.623 126.993 229.926 127.957 232.984C128.516 234.759 129.555 236.493 129.316 238.338C127.612 237.193 127.26 237.316 125.267 236.825C124.068 236.529 121.423 235.201 120.218 234.932C118.074 234.452 118.028 234.432 116.164 233.271C115.88 233.094 114.826 232.593 114.663 232.302C114.498 232.005 114.056 230.778 114.067 230.438C114.176 226.648 115.661 222.844 117.531 219.589C118.41 218.063 121.476 211.327 123.222 211.662C123.19 211.795 122.676 213.917 122.729 213.925Z" fill="black"/>
</g>
<path d="M112.646 236.952C117.271 239.353 124.426 242.08 129.505 243.249C131.844 236.636 131.844 236.636 134.031 233.704C137.08 229.618 139.029 224.473 138.309 219.426C137.743 215.452 135.244 211.708 131.689 209.771C120.48 203.661 113.671 228.308 112.646 236.952Z" stroke="#263238" stroke-width="0.968558" stroke-miterlimit="10"/>
<path d="M114.371 238.321L109.447 256.24L134.969 296.327C134.969 296.327 139.711 290.424 137.972 288.115C134.514 283.523 128.792 265.156 124.968 256.757C124.075 254.796 123.856 252.6 124.34 250.5L126.22 242.348C126.22 242.348 123.91 233.538 114.371 238.321Z" fill="white" stroke="#263238" stroke-width="0.968558" stroke-miterlimit="10" stroke-linecap="round" stroke-linejoin="round"/>
<path d="M125.369 214.563C119.782 218.178 115.65 223.977 114.056 230.439" stroke="#263238" stroke-width="0.968558" stroke-miterlimit="10" stroke-linecap="round" stroke-linejoin="round"/>
<path d="M166.513 212.919C170.432 220.298 170.396 226.901 170.951 227.017" stroke="#263238" stroke-width="0.968558" stroke-miterlimit="10" stroke-linecap="round" stroke-linejoin="round"/>
<path d="M127.142 227.55C127.013 231.187 127.674 234.854 129.103 238.201" stroke="#263238" stroke-width="0.968558" stroke-miterlimit="10" stroke-linecap="round" stroke-linejoin="round"/>
<path d="M127.94 222.133C127.731 222.922 127.562 223.722 127.435 224.529" stroke="#263238" stroke-width="0.968558" stroke-miterlimit="10" stroke-linecap="round" stroke-linejoin="round"/>
<path d="M111.187 230.938L110.279 237.425L129.539 245.338L132.991 239.499L111.187 230.938Z" fill="white" stroke="#263238" stroke-width="0.968558" stroke-miterlimit="10" stroke-linecap="round" stroke-linejoin="round"/>
<path d="M143.687 184.269C143.716 185.947 144.192 187.528 145.079 188.952C145.836 190.169 147.715 191.317 149.058 190.819C149.058 190.819 149.516 193.136 151.096 194.866" fill="white"/>
<path d="M143.687 184.269C143.716 185.947 144.192 187.528 145.079 188.952C145.836 190.169 147.715 191.317 149.058 190.819C149.058 190.819 149.516 193.136 151.096 194.866" stroke="#263238" stroke-width="0.968558" stroke-linecap="round" stroke-linejoin="round"/>
<path d="M163.677 162.548C163.09 161.79 162.047 161.582 161.095 161.476C153.636 160.648 146.209 162.844 139.026 165.014C137.549 165.461 136.017 165.936 134.877 166.976C133.894 167.872 133.293 169.108 132.806 170.346C132.088 172.171 131.564 174.105 131.611 176.065C131.696 179.578 133.575 182.766 134.52 186.151C135.465 189.535 135.078 193.881 131.997 195.572C133.883 194.953 135.636 193.934 137.106 192.601C136.782 193.857 135.861 194.945 134.677 195.475C136.372 195.571 138.092 195.14 139.542 194.258C138.97 195.209 138.168 196.02 137.222 196.601C139.552 196.826 141.961 195.614 143.168 193.608C145.029 190.515 143.922 186.595 143.258 183.047C142.595 179.499 142.891 175.011 146.122 173.401C146.97 172.979 147.922 172.822 148.858 172.672C152.361 172.106 157.082 172.206 160.361 170.804C162.885 169.724 165.672 165.122 163.677 162.548Z" fill="#263238" stroke="#263238" stroke-width="0.968558" stroke-linecap="round" stroke-linejoin="round"/>
<path d="M155.283 165.734C156.362 166.106 157.062 167.341 156.828 168.458" stroke="#BFBFBF" stroke-width="0.726418" stroke-miterlimit="10" stroke-linecap="round" stroke-linejoin="round"/>
<path d="M156.92 164.27C157.767 164.298 158.442 165.068 158.648 165.892C158.853 166.714 158.695 167.579 158.538 168.412" stroke="#BFBFBF" stroke-width="0.726418" stroke-miterlimit="10" stroke-linecap="round" stroke-linejoin="round"/>
<path d="M160.363 164.668C161.371 165.438 161.35 167.203 160.322 167.948" stroke="#BFBFBF" stroke-width="0.726418" stroke-miterlimit="10" stroke-linecap="round" stroke-linejoin="round"/>
<path d="M151.967 168.493C152.736 168.612 153.42 169.179 153.679 169.912" stroke="#BFBFBF" stroke-width="0.726418" stroke-miterlimit="10" stroke-linecap="round" stroke-linejoin="round"/>
<path d="M153.666 167.456C154.417 167.484 155.053 168.248 154.945 168.992" stroke="#BFBFBF" stroke-width="0.726418" stroke-miterlimit="10" stroke-linecap="round" stroke-linejoin="round"/>
<path d="M153.613 186.392C152.998 186.623 152.289 186.236 151.936 185.681C151.584 185.127 151.501 184.448 151.428 183.796C150.796 184.684 150.307 185.674 149.987 186.716C149.922 185.798 149.857 184.879 149.792 183.962C149.324 184.611 148.855 185.259 148.388 185.908C148.359 184.967 148.485 184.021 148.76 183.122C146.277 183.481 143.794 183.84 141.31 184.201C140.683 182.47 140.049 180.71 139.934 178.872C139.818 177.034 140.289 175.076 141.598 173.781C144.111 171.295 148.562 170.262 150.268 173.604C150.875 174.791 154.925 185.9 153.613 186.392Z" fill="#263238" stroke="#263238" stroke-width="0.968558" stroke-linecap="round" stroke-linejoin="round"/>
<path d="M163.698 171.942C164.27 172.664 164.547 173.591 164.585 174.511C164.837 173.674 165.05 172.826 165.224 171.97C165.263 171.776 165.3 171.569 165.231 171.382C165.172 171.22 165.041 171.095 164.912 170.98C164.457 170.58 163.943 170.226 163.357 170.071C162.746 169.909 161.979 169.979 161.551 170.479C162.048 171.109 163.118 171.21 163.698 171.942Z" fill="#263238" stroke="#263238" stroke-width="0.968558" stroke-linecap="round" stroke-linejoin="round"/>
<path d="M31.876 441H520.718" stroke="#263238" stroke-width="0.968558" stroke-miterlimit="10" stroke-linecap="round" stroke-linejoin="round"/>
</svg>
