<svg width="199" height="100" viewBox="0 0 199 100" fill="none" xmlns="http://www.w3.org/2000/svg">
<path opacity="0.2" d="M44.7069 99.68C30.8002 99.68 19.9269 95.8067 12.0869 88.06C4.24688 80.3133 0.326876 69.2533 0.326876 54.88V-6.67572e-06H23.0069V54.04C23.0069 63.3733 24.9202 70.0933 28.7469 74.2C32.5735 78.3067 37.9402 80.36 44.8469 80.36C51.7535 80.36 57.1202 78.3067 60.9469 74.2C64.7735 70.0933 66.6869 63.3733 66.6869 54.04V-6.67572e-06H89.0869V54.88C89.0869 69.2533 85.1669 80.3133 77.3269 88.06C69.4869 95.8067 58.6135 99.68 44.7069 99.68ZM98.9317 98L141.072 39.9V56.42L100.752 -6.67572e-06H126.512L154.372 39.34L143.592 39.48L171.032 -6.67572e-06H195.672L155.632 55.44V39.2L198.052 98H171.872L143.032 56.42H153.392L124.972 98H98.9317Z" fill="#FDFDFD"/>
</svg>
