<svg width="594" height="369" viewBox="0 0 594 369" fill="none" xmlns="http://www.w3.org/2000/svg">
<path d="M26.8267 367.412C26.8267 367.412 -34.5718 291.095 39.7531 220.804C114.077 150.512 52.6795 31.0166 154.471 3.90424C256.263 -23.2081 245.76 100.305 355.631 85.2422C465.502 70.1797 545.481 96.3284 549.521 174.131C553.56 251.933 529.323 305.155 581.027 367.412H26.8267Z" fill="#EBEBEB"/>
<path d="M71.5487 356.392H13.2783V356.743H71.5487V356.392Z" fill="#FDFDFD"/>
<path d="M190.324 353.582H131.884V353.933H190.324V353.582Z" fill="#FDFDFD"/>
<path d="M266.369 353.582H252.229V353.933H266.369V353.582Z" fill="#FDFDFD"/>
<path d="M125.039 365.58H59.6416V365.931H125.039V365.58Z" fill="#FDFDFD"/>
<path d="M351.233 356.209H320.691V356.561H351.233V356.209Z" fill="#FDFDFD"/>
<path d="M403.314 356.209H363.821V356.561H403.314V356.209Z" fill="#FDFDFD"/>
<path d="M593.777 362.152H505.487V362.503H593.777V362.152Z" fill="#FDFDFD"/>
<path d="M579.424 189.085H3.05566V196.291H579.424V189.085Z" fill="#F7F7F7"/>
<path d="M37.7783 197.034V366.034H42.2073L47.7783 197.034H37.7783Z" fill="#8F8F8F"/>
<path opacity="0.5" d="M90.4717 199.875V359.103H94.9682L100.624 199.875H90.4717Z" fill="#344B7E"/>
<path d="M546.778 197.034V366.034H542.363L536.778 197.034H546.778Z" fill="#8F8F8F"/>
<path d="M494.075 199.875V359.103H489.579L483.923 199.875H494.075Z" fill="#F7F7F7"/>
<path opacity="0.5" d="M494.075 199.875V359.103H489.579L483.923 199.875H494.075Z" fill="#344B7E"/>
<path d="M557.391 204.003H26.783L15.0469 196.292H569.128L557.391 204.003Z" fill="#F7F7F7"/>
<path opacity="0.5" d="M557.391 204.003H26.783L15.0469 196.292H569.128L557.391 204.003Z" fill="#344B7E"/>
<path d="M40.9404 166.992V172.551C40.9404 173.488 41.3081 174.368 41.9726 175.032L46.4606 179.49C46.8707 179.899 47.3712 180.178 47.9128 180.344C49.7439 184.254 53.7215 186.971 58.348 186.971H60.0278C66.388 186.971 71.5433 181.849 71.5433 175.531V162.421H46.8325V163.484H44.4712C42.5241 163.483 40.9404 165.058 40.9404 166.992ZM43.7684 166.992C43.7684 166.607 44.0837 166.292 44.4712 166.292H46.8325V175.53C46.8325 175.656 46.8467 175.778 46.8509 175.903L43.9734 173.044C43.8434 172.914 43.7684 172.734 43.7684 172.55V166.992Z" fill="#344B7E"/>
<path d="M77.4084 188.848H41.8622C39.5503 188.848 37.6768 186.769 37.6768 186.769H81.5938C81.5938 186.769 79.7202 188.848 77.4084 188.848Z" fill="#344B7E"/>
<path d="M555.64 171.721C555.454 166.145 551.183 164.778 545.603 164.148V162.111C545.593 161.622 545.187 161.233 544.695 161.243C544.69 161.243 544.683 161.243 544.677 161.243H525.424C524.922 161.223 524.499 161.611 524.479 162.11V188.679H545.603V185.774C551.193 185.151 555.47 177.307 555.64 171.721ZM545.603 182.339V167.585C549.704 168.185 552.537 168.742 551.933 172.817C551.45 176.072 548.878 181.858 545.603 182.339Z" fill="#344B7E"/>
<path d="M299.057 154.821H282.386V188.471H299.057V154.821Z" fill="#111111"/>
<path opacity="0.5" d="M299.057 154.821H282.386V188.471H299.057V154.821Z" fill="#FDFDFD"/>
<path d="M306.585 189.073H275.001L282.704 182.335H298.882L306.585 189.073Z" fill="#111111"/>
<path opacity="0.5" d="M306.585 189.073H275.001L282.704 182.335H298.882L306.585 189.073Z" fill="#FDFDFD"/>
<path d="M376.022 178.179H297.065L311.333 189.114H390.275L376.022 178.179Z" fill="#111111"/>
<path opacity="0.4" d="M376.022 178.179H297.065L311.333 189.114H390.275L376.022 178.179Z" fill="#FDFDFD"/>
<path d="M298.89 189.114L297.066 178.179L311.334 189.114H298.89Z" fill="#111111"/>
<path opacity="0.5" d="M298.89 189.114L297.066 178.179L311.334 189.114H298.89Z" fill="#111111"/>
<path d="M218.463 75.1831H362.174C363.68 75.1831 364.9 76.3955 364.9 77.8917V165.451C364.9 166.947 363.68 168.159 362.174 168.159H218.463C216.958 168.159 215.737 166.947 215.737 165.451V77.8917C215.737 76.3955 216.958 75.1831 218.463 75.1831Z" fill="#111111"/>
<path opacity="0.5" d="M359.332 80.9922H221.156V162.017H359.332V80.9922Z" fill="#111111"/>
<path opacity="0.4" d="M354.938 97.6582H285.213V145.351H354.938V97.6582Z" fill="#111111"/>
<path d="M354.938 97.6582H285.213V102.027H354.938V97.6582Z" fill="#111111"/>
<path d="M297.989 124.035L309.388 130.312C309.96 130.631 310.341 130.916 310.53 131.164C310.718 131.415 310.812 131.733 310.812 132.12C310.812 132.609 310.634 133.033 310.281 133.391C309.926 133.749 309.513 133.928 309.045 133.928C308.735 133.928 308.273 133.758 307.655 133.416L292.949 125.291C291.958 124.743 291.958 123.327 292.949 122.779L307.655 114.653C308.273 114.323 308.73 114.158 309.028 114.158C309.509 114.158 309.926 114.335 310.282 114.688C310.637 115.041 310.814 115.461 310.814 115.95C310.814 116.336 310.719 116.655 310.531 116.905C310.342 117.155 309.961 117.439 309.39 117.758L297.989 124.035Z" fill="#FDFDFD"/>
<path d="M327.318 112.334L316.039 136.486C315.752 137.089 315.494 137.481 315.265 137.663C314.967 137.902 314.608 138.022 314.183 138.022C313.703 138.022 313.288 137.852 312.939 137.509C312.59 137.168 312.416 136.781 312.416 136.35C312.416 136.044 312.553 135.594 312.828 135.003L324.141 110.868C324.426 110.266 324.678 109.874 324.896 109.691C325.206 109.452 325.566 109.333 325.978 109.333C326.458 109.333 326.87 109.501 327.213 109.836C327.557 110.171 327.73 110.555 327.73 110.988C327.731 111.294 327.594 111.744 327.318 112.334Z" fill="#FDFDFD"/>
<path d="M341.505 124.035L330.106 117.758C329.533 117.44 329.153 117.155 328.964 116.905C328.775 116.655 328.682 116.336 328.682 115.95C328.682 115.461 328.858 115.039 329.213 114.688C329.568 114.335 329.985 114.158 330.466 114.158C330.764 114.158 331.223 114.323 331.839 114.653L346.545 122.779C347.536 123.327 347.536 124.743 346.545 125.291L331.839 133.416C331.221 133.758 330.763 133.928 330.466 133.928C329.98 133.928 329.557 133.747 329.201 133.387C328.864 133.047 328.682 132.597 328.682 132.12C328.682 131.733 328.776 131.416 328.964 131.166C329.154 130.916 329.533 130.631 330.106 130.313L341.505 124.035Z" fill="#FDFDFD"/>
<path d="M231.54 88.4717H226.82V93.1611H231.54V88.4717Z" fill="#FDFDFD"/>
<path d="M231.54 100.613H226.82V105.302H231.54V100.613Z" fill="#FDFDFD"/>
<path d="M231.54 112.754H226.82V117.443H231.54V112.754Z" fill="#FDFDFD"/>
<path d="M231.54 124.895H226.82V129.584H231.54V124.895Z" fill="#FDFDFD"/>
<path d="M231.54 137.035H226.82V141.725H231.54V137.035Z" fill="#FDFDFD"/>
<path d="M231.54 149.176H226.82V153.866H231.54V149.176Z" fill="#FDFDFD"/>
<path d="M254.842 89.5281H236.024V90.933H254.842V89.5281Z" fill="#FDFDFD"/>
<path d="M247.111 101.701H240.408V103.106H247.111V101.701Z" fill="#FDFDFD"/>
<path d="M276.285 115.357H269.583V116.762H276.285V115.357Z" fill="#FDFDFD"/>
<path d="M247.111 126.194H240.408V127.599H247.111V126.194Z" fill="#FDFDFD"/>
<path d="M256.777 126.194H250.074V127.599H256.777V126.194Z" fill="#FDFDFD"/>
<path d="M267.2 115.357H250.074V116.762H267.2V115.357Z" fill="#FDFDFD"/>
<path d="M271.33 126.194H260.054V127.599H271.33V126.194Z" fill="#FDFDFD"/>
<path d="M266.713 152.223H260.011V153.628H266.713V152.223Z" fill="#FDFDFD"/>
<path d="M276.379 152.223H269.677V153.628H276.379V152.223Z" fill="#FDFDFD"/>
<path d="M283.401 152.223H279.656V153.628H283.401V152.223Z" fill="#FDFDFD"/>
<path d="M271.33 101.701H250.474V103.106H271.33V101.701Z" fill="#FDFDFD"/>
<path d="M256.777 138.874H250.074V140.279H256.777V138.874Z" fill="#FDFDFD"/>
<path d="M262.891 138.874H259.017V140.279H262.891V138.874Z" fill="#FDFDFD"/>
<path d="M276.802 138.874H265.857V140.279H276.802V138.874Z" fill="#FDFDFD"/>
<path d="M278.597 36.492C278.252 53.491 260.47 67.742 238.881 68.3096C232.258 68.5302 225.708 67.3248 219.536 64.7497C217.367 70.0896 212.782 74.6695 199.642 76.7206C213.353 66.1995 205.853 57.301 202.727 49.4688C201.136 46.1955 200.323 42.4206 200.37 38.5403C200.715 21.5315 218.497 7.29027 240.086 6.7227C261.689 6.10877 278.942 19.493 278.597 36.492Z" fill="#344B7E"/>
<path d="M239.94 18.6936H221.123V20.0985H239.94V18.6936Z" fill="#FDFDFD"/>
<path d="M232.212 30.8667H225.51V32.2716H232.212V30.8667Z" fill="#FDFDFD"/>
<path d="M261.388 44.5208H254.686V45.9256H261.388V44.5208Z" fill="#FDFDFD"/>
<path d="M232.212 55.3594H225.51V56.7643H232.212V55.3594Z" fill="#FDFDFD"/>
<path d="M241.882 55.3594H235.18V56.7643H241.882V55.3594Z" fill="#FDFDFD"/>
<path d="M252.306 44.5208H235.18V45.9256H252.306V44.5208Z" fill="#FDFDFD"/>
<path d="M256.433 55.3594H245.156V56.7643H256.433V55.3594Z" fill="#FDFDFD"/>
<path d="M256.432 30.8667H235.575V32.2716H256.432V30.8667Z" fill="#FDFDFD"/>
<path d="M360.223 358.553L349.915 355.491L352.319 330.385L362.627 333.448L360.223 358.553Z" fill="#E9B98A"/>
<path opacity="0.2" d="M363.474 327.777L353.167 324.728L351.823 338.791L362.244 340.716L363.474 327.777Z" fill="#111111"/>
<path d="M421.236 203.497C421.236 203.497 350.352 209.44 352.092 240.024C353.518 265.063 357.253 258.256 349.914 332.698L367.746 333.676C367.746 333.676 385.886 272.786 383.44 248.594C403.419 248.594 449.162 250.336 455.808 232.423C459.108 223.328 460.713 213.712 460.544 204.045L421.236 203.497Z" fill="#111111"/>
<path d="M370.584 337.104L347.281 333.142L347.663 322.9L371.786 328.225L370.584 337.104Z" fill="#F8E643"/>
<path d="M348.858 351.277L360.763 353.616C361.182 353.677 361.483 354.119 361.442 354.612L360.452 365.797C360.271 367.002 359.306 367.818 358.275 367.638C354.146 366.742 352.195 366.079 346.963 365.051C343.739 364.42 336.372 362.877 331.89 362.38C327.408 361.883 327.945 356.672 329.882 356.406C338.592 355.261 343.541 353.868 346.92 351.694C347.509 351.305 348.19 351.161 348.858 351.277Z" fill="#F8E643"/>
<path d="M343.52 353.304C344.458 353.431 345.405 353.459 346.348 353.389C346.444 353.387 346.53 353.325 346.56 353.234C346.608 353.151 346.608 353.05 346.56 352.967C346.263 352.672 343.591 350.157 342.219 350.438C341.897 350.493 341.631 350.721 341.526 351.028C341.3 351.478 341.333 352.013 341.611 352.433C342.119 352.946 342.799 353.257 343.52 353.304ZM345.797 352.925C343.831 352.925 342.446 352.7 342.035 352.124C341.871 351.847 341.871 351.502 342.035 351.225C342.081 351.072 342.205 350.954 342.361 350.916C343.082 350.761 344.694 351.942 345.797 352.925Z" fill="#111111"/>
<path d="M346.363 353.389C346.363 353.389 346.434 353.389 346.477 353.389C346.559 353.358 346.621 353.29 346.646 353.206C346.646 353.08 347.424 350.087 346.519 348.893C346.296 348.569 345.925 348.373 345.529 348.373C345.094 348.311 344.671 348.556 344.511 348.963C344.073 350.073 345.289 352.532 346.236 353.332C346.27 353.368 346.315 353.387 346.363 353.389ZM345.628 348.879C345.829 348.911 346.007 349.022 346.123 349.188C346.537 350.297 346.583 351.509 346.25 352.644C345.393 351.682 344.938 350.43 344.978 349.146C344.978 349.005 345.133 348.851 345.501 348.865L345.628 348.879Z" fill="#111111"/>
<path d="M314.279 362.459L304.466 358.075L311.253 334.024L321.066 338.407L314.279 362.459Z" fill="#E9B98A"/>
<path opacity="0.2" d="M322.722 332.217L312.909 327.834L309.416 340.239L319.229 344.622L322.722 332.217Z" fill="#111111"/>
<path d="M400.145 203.497C399.678 203.497 320.679 211.575 320.58 238.198C320.41 282.226 307.755 332.698 307.755 332.698L323.368 340.382C323.368 340.382 350.556 285.668 350.146 251.347C371.879 245.152 428.099 255.562 434.745 237.664C440.189 223.025 437.248 203.497 437.248 203.497H400.145Z" fill="#111111"/>
<path d="M325.863 342.611L304.936 333.254L306.618 324.741L328.691 332.313L325.863 342.611Z" fill="#F8E643"/>
<path d="M305.431 349.992L317.366 352.454C317.778 352.53 318.072 353.014 318.03 353.549L317.097 365.844C316.937 367.179 315.97 368.094 314.935 367.888H314.933C310.805 366.94 308.853 366.21 303.622 365.133C300.398 364.477 291.617 362.36 287.191 361.211C282.765 360.062 283.755 354.461 285.777 354.424C294.53 354.296 300.2 352.873 303.565 350.447C304.131 350.035 304.787 349.875 305.431 349.992Z" fill="#F8E643"/>
<path d="M300.529 352.647C301.361 352.199 302.14 351.664 302.858 351.051C302.937 350.986 302.971 350.881 302.942 350.783C302.912 350.693 302.83 350.628 302.735 350.62C302.321 350.555 298.67 350.083 297.724 351.131C297.512 351.374 297.44 351.708 297.533 352.016C297.615 352.512 297.959 352.926 298.434 353.102C299.164 353.217 299.913 353.054 300.529 352.647ZM302.126 351.007C300.589 352.204 299.302 352.787 298.626 352.581C298.324 352.45 298.117 352.168 298.086 351.842C298.032 351.694 298.066 351.529 298.174 351.413C298.68 350.909 300.66 350.867 302.126 351.007Z" fill="#111111"/>
<path d="M302.859 351.051L302.962 350.976C303.015 350.912 303.026 350.823 302.988 350.749C302.913 350.646 301.75 347.769 300.311 347.332C299.938 347.211 299.529 347.275 299.211 347.502C298.824 347.714 298.631 348.161 298.746 348.585C299.048 349.739 301.49 350.998 302.742 351.082C302.783 351.08 302.822 351.071 302.859 351.051ZM299.572 347.851C299.75 347.751 299.962 347.73 300.158 347.792C301.155 348.445 301.919 349.396 302.339 350.507C301.069 350.242 299.95 349.501 299.215 348.439C299.132 348.325 299.166 348.109 299.473 347.907L299.572 347.851Z" fill="#111111"/>
<path d="M426.979 118.554C429.058 122.993 430.769 127.264 432.48 131.704C434.191 136.143 435.704 140.582 437.103 145.134C438.503 149.686 439.719 154.35 440.695 159.183C441.76 164.204 442.29 169.322 442.279 174.454C442.262 177.467 441.809 180.461 440.935 183.347C440.385 185.114 439.591 186.797 438.574 188.348C437.983 189.228 437.306 190.047 436.552 190.793L435.944 191.383C435.605 191.664 435.237 191.973 434.884 192.212C434.287 192.618 433.653 192.966 432.989 193.251C432.009 193.682 430.985 194.007 429.935 194.221C429.109 194.395 428.273 194.517 427.432 194.586C425.995 194.676 424.556 194.676 423.119 194.586C420.568 194.465 418.027 194.184 415.512 193.743C406.126 192.049 396.932 189.431 388.066 185.932L390.117 178.191C399.096 179.259 408.258 180.397 416.898 180.79C419.047 180.79 421.14 180.888 423.091 180.79C423.96 180.744 424.824 180.635 425.678 180.467C426.385 180.34 426.993 180.087 426.781 180.102C426.641 180.149 426.507 180.215 426.385 180.298C426.244 180.382 426.111 180.481 425.99 180.593C425.99 180.593 426.06 180.481 426.117 180.354C426.301 179.953 426.442 179.534 426.541 179.104C426.856 177.56 426.985 175.985 426.923 174.412C426.715 170.388 426.114 166.393 425.127 162.484C424.165 158.27 422.921 154.168 421.564 149.995C420.206 145.823 418.736 141.65 417.124 137.492C415.512 133.333 413.815 129.161 412.147 125.241L426.979 118.554Z" fill="#E9B98A"/>
<path d="M394.017 180.298L384.642 175.058L379.934 185.145C379.934 185.145 390.892 189.683 393.197 186.845L394.017 180.298Z" fill="#E9B98A"/>
<path d="M377.051 176.969L372.767 183.712L379.936 185.075L384.644 174.988L377.051 176.969Z" fill="#E9B98A"/>
<path d="M405.119 126.566C403.323 131.048 401.443 135.332 399.463 139.673C397.483 144.015 395.504 148.285 393.411 152.556C389.199 161.252 384.478 169.696 379.271 177.844C377.857 179.923 376.443 181.988 374.86 184.053C374.068 185.093 373.191 186.119 372.258 187.172C371.749 187.706 371.339 188.198 370.745 188.746L369.897 189.561L369.416 190.01C368.07 191.155 366.486 191.99 364.778 192.455C363.877 192.709 362.961 192.901 362.035 193.031C360.525 193.212 359.002 193.274 357.482 193.213C354.856 193.13 352.239 192.872 349.648 192.441C340.061 190.759 330.671 188.114 321.623 184.545L323.687 176.79C332.836 177.886 342.182 179.052 350.977 179.417C353.052 179.497 355.127 179.468 357.199 179.333C358.033 179.268 358.86 179.136 359.673 178.94C359.939 178.878 360.195 178.784 360.437 178.659C360.522 178.659 360.437 178.56 360.055 178.799C359.917 178.877 359.788 178.971 359.673 179.08C359.673 179.08 359.772 178.954 359.815 178.912L360.211 178.476C360.465 178.223 360.776 177.802 361.073 177.465C361.653 176.734 362.247 175.947 362.841 175.09C364.014 173.419 365.16 171.564 366.291 169.682C368.553 165.917 370.66 161.913 372.725 157.867C374.789 153.821 376.769 149.69 378.72 145.532C382.608 137.243 386.412 128.744 390.032 120.385L405.119 126.566Z" fill="#E9B98A"/>
<path d="M327.701 178.813L318.312 173.503L313.604 183.59C313.604 183.59 324.562 188.142 326.881 185.304L327.701 178.813Z" fill="#E9B98A"/>
<path d="M310.735 175.498L306.437 182.227L313.605 183.59L318.314 173.503L310.735 175.498Z" fill="#E9B98A"/>
<path d="M429.401 76.7212L423.406 83.6191L414.256 93.0233C414.444 93.4856 414.697 94.0883 414.956 94.7261C415.66 96.4597 416.077 98.3001 416.176 100.166C416.376 103.935 416.012 107.123 410.03 109.678C410.03 109.678 403.752 117.826 418.683 115.565C433.615 113.303 435.863 105.604 435.863 105.604C429.246 100.927 428.878 85.3752 429.401 76.7212Z" fill="#E9B98A"/>
<path d="M398.956 68.9381C398.956 69.8653 398.489 70.652 397.867 70.6801C397.245 70.7082 396.75 69.9777 396.736 69.0505C396.722 68.1232 397.216 67.3365 397.824 67.3084C398.432 67.2803 398.941 68.0108 398.956 68.9381Z" fill="#F8E643"/>
<path d="M402.085 65.4821C401.9 65.4807 401.731 65.3851 401.633 65.2292C400.892 64.0196 399.628 63.2202 398.211 63.0657C397.91 63.0502 397.674 62.803 397.674 62.5037C397.681 62.2017 397.934 61.9629 398.239 61.9699C400.027 62.1272 401.632 63.1177 402.566 64.6391C402.723 64.8962 402.648 65.2306 402.397 65.3978C402.302 65.4525 402.194 65.4821 402.085 65.4821Z" fill="#F8E643"/>
<path d="M398.619 69.458C397.861 71.9882 396.767 74.4074 395.367 76.651C396.542 77.3099 397.953 77.4124 399.213 76.932L398.619 69.458Z" fill="#E9B98A"/>
<path d="M430.251 64.2599C429.7 75.7237 429.954 82.5233 424.228 88.5923C418.65 94.7007 409.143 95.1587 402.997 89.6165C400.743 87.5836 399.162 84.92 398.465 81.9753C395.863 71.8181 397.221 54.777 408.363 49.6632C415.878 45.9642 424.989 49.0184 428.712 56.4867C429.913 58.8946 430.444 61.578 430.251 64.2599Z" fill="#E9B98A"/>
<path d="M435.482 68.0824C433.813 72.9433 431.282 77.467 427.988 81.4287L412.971 84.2385C412.971 84.2385 401.108 79.3074 404.275 71.1872C402.267 69.5013 403.017 64.2892 404.431 61.4233C406.693 63.2215 410.412 63.3761 412.448 61.2126C414.088 64.205 419.009 64.6264 421.144 61.9291C423.59 64.6264 428.808 63.7975 430.278 60.468C432.088 61.6481 434.69 61.4795 436.33 60.0746C436.401 60.0044 436.472 59.9482 436.542 59.8779C436.783 61.929 436.542 64.6124 435.482 68.0824Z" fill="#111111"/>
<path opacity="0.1" d="M435.482 68.0824C433.813 72.9433 431.282 77.467 427.988 81.4287L412.971 84.2385C412.971 84.2385 401.108 79.3074 404.275 71.1872C402.267 69.5013 403.017 64.2892 404.431 61.4233C406.693 63.2215 410.412 63.3761 412.448 61.2126C414.088 64.205 419.009 64.6264 421.144 61.9291C423.59 64.6264 428.808 63.7975 430.278 60.468C432.088 61.6481 434.69 61.4795 436.33 60.0746C436.401 60.0044 436.472 59.9482 436.542 59.8779C436.783 61.929 436.542 64.6124 435.482 68.0824Z" fill="#FDFDFD"/>
<path d="M437.645 54.1883C438.494 56.0709 438.027 58.4451 436.543 59.8781C436.472 59.9483 436.401 60.0045 436.33 60.0747C434.69 61.4796 432.088 61.6482 430.279 60.4681C428.808 63.7977 423.59 64.6265 421.144 61.9292C419.009 64.6265 414.088 64.2051 412.448 61.2127C410.412 63.3762 406.693 63.2217 404.431 61.4234C403.837 60.9598 403.342 60.3698 403.017 59.6814C402.932 59.5268 402.875 59.3723 402.819 59.2178C402.692 59.3583 402.564 59.4847 402.423 59.5971C401.051 60.721 398.888 60.8896 397.389 59.8921C396.159 59.0773 395.48 57.56 395.579 56.113C395.593 55.8039 395.65 55.5089 395.735 55.2139C395.622 55.4246 395.48 55.6213 395.311 55.7899C394.081 57.0964 391.479 57.1526 390.277 55.6634C388.778 53.823 389.626 50.7604 391.677 49.5382C392.497 49.0605 393.402 48.8357 394.335 48.8357C395.777 48.8357 397.248 49.3556 398.393 50.2266C397.163 48.4705 397.601 45.7872 399.326 44.5087C401.051 43.2444 403.766 43.5956 405.095 45.2674C404.912 43.2724 405.576 42.0783 406.608 41.4601C408.56 40.3362 411.812 41.3056 413.396 43.1882C413.396 43.1882 415.573 37.962 419.334 38.5521C420.154 38.6645 424.015 40.3644 423.916 41.7411C423.916 41.8395 423.887 41.9238 423.845 42.008C423.901 41.8957 423.958 41.7973 424.029 41.699C424.764 40.547 426.249 39.971 427.649 39.9991C429.162 40.0131 430.604 40.5891 432.004 41.1511C434.931 42.3452 438.041 43.6799 439.738 46.3351C441.421 49.0043 440.686 53.3454 437.645 54.1883Z" fill="#111111"/>
<path d="M410.905 72.2536C410.495 75.0845 409.187 77.713 407.172 79.7557C404.613 82.1861 402.436 79.7557 402.407 76.0609C402.407 72.7173 403.666 67.4209 406.649 66.4375C409.633 65.4526 411.457 68.615 410.905 72.2536Z" fill="#E9B98A"/>
<path d="M456.123 109.595C455.062 106.785 450.113 103.976 447.073 103.976H445.065C441.559 103.976 437.189 104.257 432.947 104.748C424.865 105.636 416.839 106.978 408.91 108.766C405.262 109.722 401.741 110.93 398.941 111.969C395.378 113.374 393.285 114.315 393.285 114.315C393.285 114.315 397.191 140.144 399.21 165.799C400.334 180.075 399.869 194.253 400.228 204.003H460.549C462.627 192.286 462.299 182.068 462.469 160.911C462.568 148.209 460.492 121.157 456.123 109.595Z" fill="#F8E643"/>
<path opacity="0.2" d="M397.906 151.459C398.359 156.84 398.825 162.487 399.32 168.135C406.39 157.879 410.307 129.823 410.307 129.823L397.906 151.459Z" fill="#111111"/>
<path d="M389.875 116.204C381.236 121.036 372.768 145.768 372.768 145.768L392.548 160.598C400.099 153.503 411.142 135.9 412.344 128.862C414.281 118.058 403.718 108.505 389.875 116.204Z" fill="#F8E643"/>
<path d="M416.941 364.451V352.635H399.323C395.864 352.638 392.414 352.957 389.015 353.591L356.209 359.925C354.591 360.239 353.536 361.795 353.85 363.402C354.13 364.83 355.41 365.844 356.873 365.798L416.941 364.451Z" fill="#F8E643"/>
<path d="M416.939 364.451V352.635H434.572C438.03 352.637 441.481 352.956 444.88 353.591L481.75 359.448C483.367 359.761 484.422 361.318 484.107 362.925C483.827 364.352 482.547 365.367 481.085 365.32L416.939 364.451Z" fill="#F8E643"/>
<path d="M427.835 294.574H406.018V353.034H427.835V294.574Z" fill="#F8E643"/>
<path d="M424.712 267.371H409.158V294.559H424.712V267.371Z" fill="#F8E643"/>
<path opacity="0.5" d="M409.158 275.356L424.712 279.561V267.371H409.158V275.356Z" fill="#111111"/>
<path d="M366.647 210.447H358.743V243.953H366.647V210.447Z" fill="#F8E643"/>
<path d="M406.279 267.371V121.711C406.279 116.195 408.675 110.949 412.851 107.316L423.301 98.2282C426.812 95.1754 431.318 93.491 435.984 93.491H473.732L492.178 112.991V267.372H406.279V267.371Z" fill="#111111"/>
<path d="M350.077 239.189H436.189V267.371H336.051C330.427 267.375 325.866 262.85 325.861 257.264C325.86 255.448 326.351 253.664 327.284 252.1C332.049 244.095 340.717 239.186 350.077 239.189Z" fill="#111111"/>
<path opacity="0.7" d="M492.178 112.996V267.378H336.046C330.432 267.378 325.865 262.855 325.865 257.263C325.865 255.451 326.346 253.667 327.279 252.107C332.044 244.113 340.684 239.196 350.03 239.196H393.402C400.512 239.196 406.279 233.469 406.279 226.402V121.707C406.279 116.2 408.668 110.945 412.854 107.321L423.303 98.2312C426.81 95.1686 431.32 93.4968 435.987 93.4968H473.726L492.178 112.996Z" fill="#FDFDFD"/>
<path d="M418.84 267.371V121.711C418.84 116.195 421.235 110.949 425.412 107.316L435.861 98.2282C439.372 95.1754 443.879 93.491 448.545 93.491H477.966C483.279 93.491 488.357 95.6727 491.997 99.5207L499.515 107.468C502.87 111.015 504.74 115.701 504.74 120.57V252.788C504.74 260.842 498.167 267.372 490.061 267.372H418.84V267.371Z" fill="#111111"/>
<path opacity="0.5" d="M418.84 267.371V121.711C418.84 116.195 421.235 110.949 425.412 107.316L435.861 98.2282C439.372 95.1754 443.879 93.491 448.545 93.491H477.966C483.279 93.491 488.357 95.6727 491.997 99.5207L499.515 107.468C502.87 111.015 504.74 115.701 504.74 120.57V252.788C504.74 260.842 498.167 267.372 490.061 267.372H418.84V267.371Z" fill="#FDFDFD"/>
<path d="M389.615 220.485L389.615 220.485L389.611 220.484C372.173 214.435 353.187 214.435 335.749 220.484L335.749 220.484L335.744 220.486C332.228 221.803 328.276 220.307 326.534 217.001C324.99 213.752 327.053 209.482 331.355 207.979C351.628 200.941 373.704 200.941 393.977 207.979L393.977 207.979C398.278 209.468 400.342 213.751 398.798 217.001C397.053 220.289 393.123 221.781 389.615 220.485Z" fill="#111111" stroke="black" stroke-width="0.4"/>
<path opacity="0.7" d="M389.615 220.485L389.615 220.485L389.611 220.484C372.173 214.435 353.187 214.435 335.749 220.484L335.749 220.484L335.744 220.486C332.228 221.803 328.276 220.307 326.534 217.001C324.99 213.752 327.053 209.482 331.355 207.979C351.628 200.941 373.704 200.941 393.977 207.979L393.977 207.979C398.278 209.468 400.342 213.751 398.798 217.001C397.053 220.289 393.123 221.781 389.615 220.485Z" fill="#FDFDFD" stroke="black" stroke-width="0.4"/>
<path d="M580.761 365.334H0.223633V367.336H580.761V365.334Z" fill="#111111"/>
<path d="M169.813 81.2953C169.516 82.1242 169.728 82.953 170.28 83.1357C170.831 83.3183 171.51 82.8125 171.793 81.9837C172.076 81.1548 171.878 80.3119 171.34 80.1292C170.803 79.9466 170.11 80.4524 169.813 81.2953Z" fill="#111111"/>
<path d="M169.655 82.1523C169.765 85.0464 170.274 87.9109 171.168 90.6659C169.727 91.0761 168.177 90.8401 166.926 90.0196L169.655 82.1523Z" fill="#E9B98A"/>
<path d="M168.451 75.6477C168.557 75.6828 168.67 75.6828 168.776 75.6477C170.035 75.2305 171.418 75.4398 172.495 76.2096C172.728 76.3782 173.056 76.3262 173.226 76.0944C173.376 75.8879 173.355 75.6041 173.174 75.4229C171.828 74.4255 170.079 74.1374 168.479 74.6502C168.207 74.743 168.061 75.0394 168.154 75.3105C168.207 75.4622 168.327 75.5817 168.479 75.6337L168.451 75.6477Z" fill="#111111"/>
<path d="M138.802 84.3579C140.385 92.3516 141.955 107.004 136.327 112.343C136.327 112.343 138.533 120.449 153.493 120.449C169.938 120.449 161.355 112.343 161.355 112.343C152.376 110.208 153.821 103.591 155.391 97.3811L138.802 84.3579Z" fill="#F0BF9C"/>
<path d="M142.463 69.8596C139.522 80.3119 137.26 86.2826 140.625 93.3211C145.673 103.928 163.312 105.303 168.127 93.1623C171.789 81.9837 175.409 70.1687 166.756 62.6245C160.602 57.1933 151.182 57.7468 145.715 63.8608C144.177 65.5818 143.063 67.6357 142.463 69.8596Z" fill="#F0BF9C"/>
<path d="M131.062 73.334C130.297 69.4833 130.101 65.2715 132.035 61.8478C133.969 58.4255 138.658 56.328 142.06 58.3244C144.997 52.171 152.098 48.257 158.908 49.0381C165.717 49.8192 171.733 55.2393 173.179 61.897C174.626 68.5547 171.397 75.9569 165.519 79.4607C166.304 76.5877 167.089 73.7162 167.874 70.8432C167.199 74.812 165.012 78.5096 161.849 81.0257C162.303 78.1542 162.758 75.2826 163.212 72.411C162.798 76.4669 160.336 80.2657 156.791 82.3182C157.341 80.3064 157.891 78.2947 158.44 76.2843C158.198 77.1679 155.998 83.4927 155.25 84.3581C153.861 85.9653 152.932 96.5285 148.058 96.8615C131.4 100.176 132.851 82.328 131.062 73.334Z" fill="#111111"/>
<path d="M153.561 78.3424C153.278 81.0229 153.883 83.7202 155.286 86.027C157.167 89.0335 159.924 87.8815 160.942 84.8048C161.847 81.9951 161.946 77.1482 159.33 75.1954C156.714 73.2427 153.957 75.1112 153.561 78.3424Z" fill="#F0BF9C"/>
<path d="M113.708 179.603C111.906 179.01 103.496 174.713 102.157 175.48C106.04 165.634 108.462 164.124 110.228 157.857C111.215 154.356 110.536 151.629 108.347 148.715C105.863 145.407 104.992 143.731 100.858 144.14C95.1733 153.583 88.0157 165.235 85.2146 175.88C84.2715 179.465 83.5886 182.184 85.735 185.214C87.6269 187.885 91.1251 188.961 94.3985 189.252C102.28 189.954 113.971 188.514 113.822 183.865C113.728 180.935 113.708 179.603 113.708 179.603Z" fill="#F0BF9C"/>
<path d="M112.37 179.251L119.051 177.095L118.457 189.081C118.457 189.081 113.108 189.271 110.259 185.717L112.37 179.251Z" fill="#F0BF9C"/>
<path d="M127.394 176.91L126.439 186.794L118.458 189.083L119.052 177.097L127.394 176.91Z" fill="#F0BF9C"/>
<path d="M203.921 187.76C203.921 187.76 194.611 180.51 182.389 156.55C180.576 153.2 178.843 149.822 177.185 146.418C175.521 142.981 173.923 139.619 172.4 136.008L186.846 129.823C189.824 136.262 194.456 142.905 197.735 149.297C201.014 155.689 208.758 170.828 209.727 172.24C210.209 172.968 210.731 173.57 211.231 174.242L211.978 175.228L202.658 185.932L203.921 187.76Z" fill="#F0BF9C"/>
<path d="M216.153 141.184L213.259 137.756L211.921 132.624L220.647 124.57C220.647 124.57 222.759 127.152 224.234 129.933C224.459 130.359 224.556 130.84 224.536 131.32L224.182 140.345L216.153 141.184Z" fill="#F0BF9C"/>
<path d="M212.048 127.066L218.578 121.168L220.642 124.612L211.921 132.624L212.048 127.066Z" fill="#F0BF9C"/>
<path d="M216.28 138.675C216.508 137.709 216.71 139.602 217.35 138.84C219.28 136.546 222.082 136.296 223.749 138.786C225.416 141.276 223.99 166.346 221.325 174.2C219.555 179.416 218.612 183.58 214.085 186.754C212.213 188.066 210.016 189.056 207.725 189.021C205.435 188.986 203.073 187.741 202.207 185.633C200.862 182.356 205.853 170.558 207.639 166.751C213.23 154.821 213.6 149.998 216.28 138.675Z" fill="#F0BF9C"/>
<path d="M197.565 137.596C201.418 137.559 205.271 137.521 209.124 137.485C210.77 137.469 212.479 137.438 213.96 136.723C215.9 135.786 217.126 133.818 217.909 131.822C219.544 127.658 219.681 123.089 220.33 118.666C220.979 114.242 222.318 109.627 225.686 106.663C219.548 107.472 208.695 105.56 203.983 110.557C201.483 113.207 197.092 137.6 197.565 137.596Z" fill="#F8E643"/>
<path opacity="0.5" d="M197.565 137.596C201.418 137.559 205.271 137.521 209.124 137.485C210.77 137.469 212.479 137.438 213.96 136.723C215.9 135.786 217.126 133.818 217.909 131.822C219.544 127.658 219.681 123.089 220.33 118.666C220.979 114.242 222.318 109.627 225.686 106.663C219.548 107.472 208.695 105.56 203.983 110.557C201.483 113.207 197.092 137.6 197.565 137.596Z" fill="#FDFDFD"/>
<path d="M217.332 120.545C216.668 120.719 216.231 123.076 216.375 123.742L217.023 124.893L218.343 130.587L222.754 128.162L218.778 121.151C218.491 120.646 217.897 120.397 217.332 120.545Z" fill="#F0BF9C"/>
<path d="M117.685 114.349C107.363 116.695 92.0986 148.648 92.0986 148.648L112.814 162.697C117.966 155.356 124.981 144.259 128.93 136.216C135.054 123.488 128.233 111.948 117.685 114.349Z" fill="#F8E643"/>
<path d="M132.77 115.125C131.582 112.554 130.295 109.618 132.968 108.705C135.923 107.693 152.099 106.654 157.67 108.55C160.73 109.378 162.534 112.512 161.703 115.552C161.693 115.589 161.683 115.624 161.672 115.66L132.77 115.125Z" fill="#111111"/>
<path opacity="0.2" d="M124.067 132.802L109.342 160.342L112.813 162.697C112.813 162.697 119.484 153.468 124.066 145.489L124.067 132.802Z" fill="#F8E643"/>
<path d="M180.445 128.41C182.676 139.625 177.464 166.293 177.518 209.856H118.654C118.265 201.051 124.711 180.204 116.704 138.676C116.443 137.33 116.326 114.588 117.684 114.351C123.383 113.356 129.135 112.681 134.913 112.329C143.248 111.845 151.605 111.845 159.941 112.329C163.341 112.669 168.71 114.77 172.092 115.979C177.375 117.867 179.356 122.938 180.445 128.41Z" fill="#F8E643"/>
<path opacity="0.2" d="M164.866 139.577C166.402 148.809 172.495 161.005 178.566 168.159C178.807 162.919 179.334 157.447 179.32 153.246L164.866 139.577Z" fill="#F8E643"/>
<path d="M160.677 125.704C159.263 136.057 179.766 162.497 179.766 162.497L200.396 148.448C200.396 148.448 194.67 133.88 185.04 124.327C174.068 113.369 162.289 114.436 160.677 125.704Z" fill="#F8E643"/>
<path d="M228.109 354.867H239.11L241.613 329.537H230.612L228.109 354.867Z" fill="#F0BF9C"/>
<path opacity="0.2" d="M241.445 331.081L240.172 344.132H229.157L230.444 331.081H241.445Z" fill="#F8E643"/>
<path d="M184.716 354.867H195.717L201.245 329.537H190.245L184.716 354.867Z" fill="#F0BF9C"/>
<g opacity="0.2">
<path d="M190.003 330.887H201.004L198.149 343.939H187.146L190.003 330.887Z" fill="#F8E643"/>
</g>
<path d="M239.735 349.955H227.73C227.275 349.958 226.881 350.366 226.782 350.937L224.605 363.448C224.401 364.552 224.933 365.659 225.793 365.92C225.923 365.96 226.056 365.978 226.189 365.975C230.515 365.884 236.779 365.556 242.223 365.556C248.6 365.556 254.101 365.993 261.567 365.993C266.091 365.993 267.35 360.12 265.455 359.593C256.844 357.175 249.816 356.919 242.379 351.01C241.59 350.352 240.675 349.988 239.735 349.955Z" fill="#111111"/>
<path d="M248.472 354.024C249.886 354.024 251.3 353.827 251.71 353.195C251.949 352.854 251.949 352.4 251.71 352.057C251.522 351.761 251.229 351.546 250.89 351.453C249.052 350.961 245.234 353.139 245.05 353.237C244.951 353.286 244.899 353.396 244.923 353.504C244.941 353.607 245.019 353.69 245.121 353.715C246.226 353.914 247.348 354.018 248.472 354.024ZM250.225 351.903C250.389 351.88 250.556 351.88 250.72 351.903C250.936 351.943 251.123 352.077 251.229 352.268C251.413 352.591 251.356 352.746 251.229 352.83C250.72 353.546 247.935 353.56 245.884 353.265C247.228 352.535 248.702 352.073 250.225 351.903Z" fill="#F8E643"/>
<path d="M245.149 353.715H245.262C246.591 353.125 249.221 350.765 249.009 349.5C249.009 349.205 248.754 348.854 248.047 348.77C247.534 348.726 247.025 348.888 246.633 349.219C245.219 350.357 244.937 353.307 244.922 353.434C244.913 353.525 244.949 353.615 245.021 353.673C245.06 353.695 245.103 353.709 245.149 353.715ZM247.835 349.289H247.991C248.457 349.289 248.486 349.528 248.5 349.584C248.627 350.329 246.831 352.184 245.474 352.984C245.587 351.748 246.081 350.575 246.888 349.627C247.151 349.402 247.489 349.282 247.835 349.289Z" fill="#F8E643"/>
<path d="M196.495 349.955H184.136C183.684 349.96 183.296 350.368 183.203 350.937L181.026 363.448C180.838 364.577 181.398 365.689 182.277 365.929C182.396 365.961 182.517 365.977 182.638 365.975C186.95 365.884 189.057 365.557 194.487 365.557C197.838 365.557 202.122 365.993 206.746 365.993C211.37 365.993 211.964 360.12 210.069 359.593C201.585 357.212 201.005 353.92 198.29 350.774C197.79 350.228 197.151 349.937 196.495 349.955Z" fill="#111111"/>
<path d="M202.951 355.415C203.894 355.537 204.846 355.28 205.595 354.698C205.862 354.334 205.862 353.84 205.595 353.476C205.426 353.164 205.126 352.942 204.775 352.872C203.163 352.493 200.123 354.558 199.996 354.642C199.914 354.705 199.871 354.806 199.883 354.909C199.902 355.007 199.982 355.086 200.081 355.106C201.024 355.309 201.985 355.413 202.951 355.415ZM204.365 353.336C204.468 353.321 204.573 353.321 204.676 353.336C204.881 353.365 205.059 353.49 205.157 353.673C205.397 354.108 205.256 354.277 205.157 354.347C204.69 354.951 202.442 354.965 200.788 354.698C201.852 353.983 203.066 353.517 204.337 353.336H204.365Z" fill="#F8E643"/>
<path d="M200.15 355.12H200.263C201.408 354.502 203.614 352.113 203.373 350.905C203.298 350.506 202.948 350.217 202.539 350.217C202.14 350.169 201.739 350.291 201.436 350.554C200.164 351.593 199.895 354.768 199.881 354.881C199.879 354.976 199.928 355.066 200.008 355.12C200.053 355.134 200.103 355.134 200.15 355.12ZM202.37 350.694H202.483C202.822 350.694 202.85 350.891 202.864 350.961C203.006 351.678 201.592 353.49 200.461 354.347C200.537 353.1 200.989 351.905 201.761 350.919C201.93 350.774 202.146 350.694 202.37 350.694Z" fill="#F8E643"/>
<path d="M159.875 209.87C159.875 209.87 211.979 231.242 222.753 247.675C216.346 289.454 204.852 337.053 204.852 337.053H185.257C185.257 337.053 184.72 310.585 190.33 275.574C193.158 224.507 100.658 277.346 118.63 209.87H159.875Z" fill="#111111"/>
<path opacity="0.3" d="M195.896 245.09C192.245 245.23 188.625 245.782 185.015 246.334C181.209 246.916 177.403 247.498 173.595 248.079C179.483 252.991 185.703 257.509 192.2 261.593C196.142 264.071 200.432 266.461 205.096 266.482C210.32 266.506 224.518 259.814 222.164 252.898C219.777 245.886 201.836 244.861 195.896 245.09Z" fill="#F8E643"/>
<path d="M177.522 209.87C177.522 209.87 225.684 216.04 252.235 231.062C260.409 235.687 259.265 250.539 259.053 260.319C258.469 286.559 253.39 312.507 244.036 337.053H227.691C227.691 337.053 228.525 310.543 227.973 267.765C227.804 254.938 201.744 250.709 176.278 249.22C154.281 247.846 134.97 234.196 126.449 214L124.71 209.87H177.522Z" fill="#111111"/>
<path d="M248.034 332.698C248.119 332.698 246.973 340.382 246.973 340.382H224.35L223.728 333.527L248.034 332.698Z" fill="#F8E643"/>
<path d="M206.747 332.698C206.832 332.698 204.669 340.382 204.669 340.382H182.045L182.455 333.527L206.747 332.698Z" fill="#F8E643"/>
<path d="M145.948 248.636L129.738 367.357L126.81 366.96L139.322 247.737L145.948 248.636Z" fill="#F8E643"/>
<path opacity="0.4" d="M145.368 252.887L129.738 367.357L126.81 366.96L138.783 252.873L145.368 252.887Z" fill="#F8E643"/>
<path d="M202.972 252.887H111.062C111.062 247.13 115.76 242.463 121.554 242.463H192.48C198.274 242.463 202.972 247.13 202.972 252.887Z" fill="#8F8F8F"/>
<path d="M115.318 252.873L101.461 368.297H104.43L122.006 252.873H115.318Z" fill="#F8E643"/>
<path d="M198.714 252.873L212.571 368.297H209.602L192.04 252.873H198.714Z" fill="#F8E643"/>
<path opacity="0.4" d="M198.714 252.873L212.571 368.297H209.602L192.04 252.873H198.714Z" fill="#F8E643"/>
<path d="M180.18 252.873L180.449 368.297H177.494L173.492 252.873H180.18Z" fill="#F8E643"/>
<path d="M89.0998 112.341H61.1108C59.2714 112.341 57.7803 110.85 57.7803 109.011C57.7803 107.172 59.2714 105.681 61.1108 105.681H89.0998C90.9392 105.681 92.4294 107.172 92.4294 109.011C92.4303 110.85 90.9392 112.341 89.0998 112.341Z" fill="#60A2F4"/>
<path d="M542.744 304.624C542.744 304.624 538.691 299.817 529.779 293.69V290.883L527.81 292.255C520.489 286.453 520.835 280.651 527.988 279.834C530.031 279.604 532 279.897 533.79 280.819L533.622 283.553L536.544 282.882C540.032 286.475 542.44 293.376 542.744 304.624Z" fill="#60A2F4"/>
<path d="M570.399 274.776C569.571 275.949 568.293 277.269 566.754 278.672L562.491 277.394L563.162 281.678C555.464 287.731 545.212 293.911 545.212 293.911C544.751 283.48 546.813 271.007 555.79 265.539L558.932 267.047L557.958 264.408C558.607 264.125 559.298 263.874 560.011 263.654C572.577 259.852 575.332 267.843 570.399 274.776Z" fill="#60A2F4"/>
<path d="M542.523 270.231C542.523 270.231 535.506 266.743 529.777 262.082V258.668L527.379 259.987C523.735 256.5 521.336 252.604 523.095 249.116C525.085 245.179 529.558 244.875 533.756 247.389L533.935 250.688L536.406 249.4C540.784 253.484 544.083 260.805 542.523 270.231Z" fill="#60A2F4"/>
<path d="M568.719 255.631L564.468 254.353V257.264C557.628 259.726 549.229 262.134 549.229 262.134C550.748 254.185 554.435 247.053 561.996 244.759L563.682 246.372L564.824 244.152C565.348 244.079 565.882 244.037 566.437 244.005C577.003 243.482 575.6 252.72 568.719 255.631Z" fill="#60A2F4"/>
<path d="M546.064 253.066C546.064 253.066 538.859 245.054 530.376 236.601L531.559 232.276L527.024 233.313C526.94 233.229 526.846 233.145 526.762 233.061C516.813 223.458 521.714 210.366 536.544 216.126C537.947 216.67 539.194 217.341 540.304 218.137L539.77 221.803L543.436 221.018C550.504 229.491 548.641 244.33 546.064 253.066Z" fill="#60A2F4"/>
<path d="M574.123 229.868C573.379 231.47 572.102 233.02 570.51 234.466L566.561 234.895L566.97 237.252C560.414 241.787 552.129 244.855 552.129 244.855C552.129 244.855 552.296 232.759 560.403 225.029C560.518 224.914 560.634 224.809 560.748 224.715L564.026 225.815L563.744 222.526C570.845 218.546 577.432 222.746 574.123 229.868Z" fill="#60A2F4"/>
<path d="M563.685 306.326H523.102L529.647 348.054V363.535C529.647 363.59 529.658 364.879 530.653 365.802C531.292 366.395 532.168 366.694 533.262 366.694C533.418 366.694 533.579 366.688 533.744 366.676C537.074 366.428 536.957 359.887 536.863 354.631C536.854 354.089 536.845 353.563 536.84 353.062H552.221C552.217 353.563 552.208 354.089 552.198 354.631C552.105 359.887 551.989 366.428 555.317 366.676C555.483 366.688 555.643 366.694 555.799 366.694C556.894 366.694 557.77 366.395 558.408 365.802C559.403 364.878 559.414 363.589 559.414 363.535V348.681L563.685 306.326ZM535.817 354.651C535.894 358.955 536.01 365.458 533.668 365.631C532.661 365.706 531.884 365.508 531.376 365.041C530.714 364.435 530.696 363.541 530.696 363.534V353.062H535.793C535.798 353.571 535.806 354.102 535.817 354.651ZM557.695 365.035C557.188 365.506 556.412 365.704 555.395 365.631C553.053 365.458 553.168 358.954 553.246 354.651C553.255 354.102 553.264 353.571 553.27 353.063H558.368V363.535C558.367 363.545 558.348 364.428 557.695 365.035Z" fill="#070707"/>
<path d="M565.777 303.053H520.743V309.599H565.777V303.053Z" fill="#252728"/>
<path d="M572.844 225.028C572.844 225.028 544.829 236.549 543.389 277.393C541.949 318.239 543.389 324.522 543.389 324.522" stroke="#252728" stroke-width="1.04728" stroke-miterlimit="10"/>
<path d="M524.493 282.456C524.493 282.456 540.581 286.471 542.749 304.624" stroke="#252728" stroke-width="1.04728" stroke-miterlimit="10"/>
<path d="M570.401 265.175C570.401 265.175 543.025 279.139 542.749 308.115" stroke="#252728" stroke-width="1.04728" stroke-miterlimit="10"/>
<path d="M524.493 249.902C524.493 249.902 543.012 255.754 543.388 277.394" stroke="#252728" stroke-width="1.04728" stroke-miterlimit="10"/>
<path d="M526.762 218.221C526.762 218.221 548.988 233.653 546.063 259.365" stroke="#252728" stroke-width="1.04728" stroke-miterlimit="10"/>
<path d="M572.848 248.069C572.848 248.069 544.833 250.862 543.393 280.885" stroke="#252728" stroke-width="1.04728" stroke-miterlimit="10"/>
</svg>
