<svg width="594" height="363" viewBox="0 0 594 363" fill="none" xmlns="http://www.w3.org/2000/svg">
<path d="M71.5487 350.392H13.2783V350.743H71.5487V350.392Z" fill="#FDFDFD"/>
<path d="M190.324 347.582H131.884V347.933H190.324V347.582Z" fill="#FDFDFD"/>
<path d="M266.369 347.582H252.229V347.933H266.369V347.582Z" fill="#FDFDFD"/>
<path d="M125.039 359.58H59.6416V359.931H125.039V359.58Z" fill="#FDFDFD"/>
<path d="M351.233 350.209H320.691V350.561H351.233V350.209Z" fill="#FDFDFD"/>
<path d="M403.314 350.209H363.821V350.561H403.314V350.209Z" fill="#FDFDFD"/>
<path d="M593.777 356.152H505.487V356.503H593.777V356.152Z" fill="#FDFDFD"/>
<path d="M579.424 183.085H3.05566V190.291H579.424V183.085Z" fill="#F7F7F7"/>
<path d="M37.7783 191.034V360.034H42.2073L47.7783 191.034H37.7783Z" fill="#8F8F8F"/>
<path opacity="0.5" d="M90.4717 193.875V353.103H94.9682L100.624 193.875H90.4717Z" fill="#344B7E"/>
<path d="M546.778 191.034V360.034H542.363L536.778 191.034H546.778Z" fill="#8F8F8F"/>
<path d="M494.075 193.875V353.103H489.579L483.923 193.875H494.075Z" fill="#F7F7F7"/>
<path opacity="0.5" d="M494.075 193.875V353.103H489.579L483.923 193.875H494.075Z" fill="#344B7E"/>
<path d="M557.391 198.003H26.783L15.0469 190.292H569.128L557.391 198.003Z" fill="#F7F7F7"/>
<path opacity="0.5" d="M557.391 198.003H26.783L15.0469 190.292H569.128L557.391 198.003Z" fill="#344B7E"/>
<path d="M40.9404 160.992V166.551C40.9404 167.488 41.3081 168.368 41.9726 169.032L46.4606 173.49C46.8707 173.899 47.3712 174.178 47.9128 174.344C49.7439 178.254 53.7215 180.971 58.348 180.971H60.0278C66.388 180.971 71.5433 175.849 71.5433 169.531V156.421H46.8325V157.484H44.4712C42.5241 157.483 40.9404 159.058 40.9404 160.992ZM43.7684 160.992C43.7684 160.607 44.0837 160.292 44.4712 160.292H46.8325V169.53C46.8325 169.656 46.8467 169.778 46.8509 169.903L43.9734 167.044C43.8434 166.914 43.7684 166.734 43.7684 166.55V160.992Z" fill="#344B7E"/>
<path d="M77.4084 182.848H41.8622C39.5503 182.848 37.6768 180.768 37.6768 180.768H81.5938C81.5938 180.768 79.7202 182.848 77.4084 182.848Z" fill="#344B7E"/>
<path d="M555.64 165.721C555.454 160.145 551.183 158.778 545.603 158.149V156.111C545.593 155.623 545.187 155.233 544.695 155.243C544.69 155.243 544.683 155.243 544.677 155.243H525.424C524.922 155.224 524.499 155.611 524.479 156.11V182.679H545.603V179.774C551.193 179.151 555.47 171.307 555.64 165.721ZM545.603 176.339V161.585C549.704 162.185 552.537 162.743 551.933 166.817C551.45 170.072 548.878 175.858 545.603 176.339Z" fill="#344B7E"/>
<path d="M299.057 148.821H282.386V182.471H299.057V148.821Z" fill="#111111"/>
<path opacity="0.5" d="M299.057 148.821H282.386V182.471H299.057V148.821Z" fill="#FDFDFD"/>
<path d="M306.585 183.073H275.001L282.704 176.336H298.882L306.585 183.073Z" fill="#111111"/>
<path opacity="0.5" d="M306.585 183.073H275.001L282.704 176.336H298.882L306.585 183.073Z" fill="#FDFDFD"/>
<path d="M376.022 172.179H297.065L311.333 183.114H390.275L376.022 172.179Z" fill="#111111"/>
<path opacity="0.4" d="M376.022 172.179H297.065L311.333 183.114H390.275L376.022 172.179Z" fill="#FDFDFD"/>
<path d="M298.89 183.114L297.066 172.179L311.334 183.114H298.89Z" fill="#111111"/>
<path opacity="0.5" d="M298.89 183.114L297.066 172.179L311.334 183.114H298.89Z" fill="#111111"/>
<path d="M218.463 69.1831H362.174C363.68 69.1831 364.9 70.3955 364.9 71.8917V159.451C364.9 160.947 363.68 162.159 362.174 162.159H218.463C216.958 162.159 215.737 160.947 215.737 159.451V71.8917C215.737 70.3955 216.958 69.1831 218.463 69.1831Z" fill="#111111"/>
<path opacity="0.5" d="M359.332 74.9922H221.156V156.017H359.332V74.9922Z" fill="#111111"/>
<path opacity="0.4" d="M354.938 91.6582H285.213V139.351H354.938V91.6582Z" fill="#111111"/>
<path d="M354.938 91.6582H285.213V96.0273H354.938V91.6582Z" fill="#111111"/>
<path d="M297.989 118.035L309.388 124.312C309.96 124.631 310.341 124.916 310.53 125.164C310.718 125.415 310.812 125.733 310.812 126.12C310.812 126.609 310.634 127.033 310.281 127.391C309.926 127.749 309.513 127.928 309.045 127.928C308.735 127.928 308.273 127.758 307.655 127.416L292.949 119.291C291.958 118.743 291.958 117.327 292.949 116.779L307.655 108.653C308.273 108.323 308.73 108.158 309.028 108.158C309.509 108.158 309.926 108.335 310.282 108.688C310.637 109.041 310.814 109.461 310.814 109.95C310.814 110.336 310.719 110.655 310.531 110.905C310.342 111.155 309.961 111.439 309.39 111.758L297.989 118.035Z" fill="#FDFDFD"/>
<path d="M327.318 106.334L316.039 130.486C315.752 131.089 315.494 131.481 315.265 131.663C314.967 131.902 314.608 132.022 314.183 132.022C313.703 132.022 313.288 131.852 312.939 131.509C312.59 131.168 312.416 130.781 312.416 130.35C312.416 130.044 312.553 129.594 312.828 129.003L324.141 104.868C324.426 104.266 324.678 103.874 324.896 103.691C325.206 103.452 325.566 103.333 325.978 103.333C326.458 103.333 326.87 103.501 327.213 103.836C327.557 104.171 327.73 104.555 327.73 104.988C327.731 105.294 327.594 105.744 327.318 106.334Z" fill="#FDFDFD"/>
<path d="M341.505 118.035L330.106 111.758C329.533 111.44 329.153 111.155 328.964 110.905C328.775 110.655 328.682 110.336 328.682 109.95C328.682 109.461 328.858 109.039 329.213 108.688C329.568 108.335 329.985 108.158 330.466 108.158C330.764 108.158 331.223 108.323 331.839 108.653L346.545 116.779C347.536 117.327 347.536 118.743 346.545 119.291L331.839 127.416C331.221 127.758 330.763 127.928 330.466 127.928C329.98 127.928 329.557 127.747 329.201 127.387C328.864 127.047 328.682 126.597 328.682 126.12C328.682 125.733 328.776 125.416 328.964 125.166C329.154 124.916 329.533 124.631 330.106 124.313L341.505 118.035Z" fill="#FDFDFD"/>
<path d="M231.54 82.4717H226.82V87.1611H231.54V82.4717Z" fill="#FDFDFD"/>
<path d="M231.54 94.6125H226.82V99.302H231.54V94.6125Z" fill="#FDFDFD"/>
<path d="M231.54 106.754H226.82V111.443H231.54V106.754Z" fill="#FDFDFD"/>
<path d="M231.54 118.894H226.82V123.584H231.54V118.894Z" fill="#FDFDFD"/>
<path d="M231.54 131.035H226.82V135.725H231.54V131.035Z" fill="#FDFDFD"/>
<path d="M231.54 143.176H226.82V147.866H231.54V143.176Z" fill="#FDFDFD"/>
<path d="M254.842 83.5281H236.024V84.933H254.842V83.5281Z" fill="#FDFDFD"/>
<path d="M247.111 95.7014H240.408V97.1063H247.111V95.7014Z" fill="#FDFDFD"/>
<path d="M276.285 109.357H269.583V110.762H276.285V109.357Z" fill="#FDFDFD"/>
<path d="M247.111 120.194H240.408V121.599H247.111V120.194Z" fill="#FDFDFD"/>
<path d="M256.777 120.194H250.074V121.599H256.777V120.194Z" fill="#FDFDFD"/>
<path d="M267.2 109.357H250.074V110.762H267.2V109.357Z" fill="#FDFDFD"/>
<path d="M271.33 120.194H260.054V121.599H271.33V120.194Z" fill="#FDFDFD"/>
<path d="M266.713 146.224H260.011V147.628H266.713V146.224Z" fill="#FDFDFD"/>
<path d="M276.379 146.224H269.677V147.628H276.379V146.224Z" fill="#FDFDFD"/>
<path d="M283.401 146.224H279.656V147.628H283.401V146.224Z" fill="#FDFDFD"/>
<path d="M271.33 95.7014H250.474V97.1063H271.33V95.7014Z" fill="#FDFDFD"/>
<path d="M256.777 132.874H250.074V134.279H256.777V132.874Z" fill="#FDFDFD"/>
<path d="M262.891 132.874H259.017V134.279H262.891V132.874Z" fill="#FDFDFD"/>
<path d="M276.802 132.874H265.857V134.279H276.802V132.874Z" fill="#FDFDFD"/>
<path d="M278.597 30.492C278.252 47.491 260.47 61.742 238.881 62.3096C232.258 62.5302 225.708 61.3248 219.536 58.7497C217.367 64.0896 212.782 68.6695 199.642 70.7206C213.353 60.1995 205.853 51.301 202.727 43.4688C201.136 40.1955 200.323 36.4206 200.37 32.5403C200.715 15.5315 218.497 1.29027 240.086 0.722698C261.689 0.108767 278.942 13.493 278.597 30.492Z" fill="#344B7E"/>
<path d="M239.94 12.6936H221.123V14.0985H239.94V12.6936Z" fill="#FDFDFD"/>
<path d="M232.212 24.8667H225.51V26.2716H232.212V24.8667Z" fill="#FDFDFD"/>
<path d="M261.388 38.5208H254.686V39.9256H261.388V38.5208Z" fill="#FDFDFD"/>
<path d="M232.212 49.3594H225.51V50.7643H232.212V49.3594Z" fill="#FDFDFD"/>
<path d="M241.882 49.3594H235.18V50.7643H241.882V49.3594Z" fill="#FDFDFD"/>
<path d="M252.306 38.5208H235.18V39.9256H252.306V38.5208Z" fill="#FDFDFD"/>
<path d="M256.433 49.3594H245.156V50.7643H256.433V49.3594Z" fill="#FDFDFD"/>
<path d="M256.432 24.8667H235.575V26.2716H256.432V24.8667Z" fill="#FDFDFD"/>
<path d="M360.223 352.553L349.915 349.49L352.319 324.385L362.627 327.448L360.223 352.553Z" fill="#E9B98A"/>
<path opacity="0.2" d="M363.474 321.777L353.167 318.728L351.823 332.791L362.244 334.715L363.474 321.777Z" fill="#111111"/>
<path d="M421.236 197.497C421.236 197.497 350.352 203.44 352.092 234.024C353.518 259.063 357.253 252.256 349.914 326.698L367.746 327.676C367.746 327.676 385.886 266.786 383.44 242.594C403.419 242.594 449.162 244.336 455.808 226.423C459.108 217.328 460.713 207.712 460.544 198.045L421.236 197.497Z" fill="#111111"/>
<path d="M370.584 331.104L347.281 327.142L347.663 316.9L371.786 322.225L370.584 331.104Z" fill="#F8E643"/>
<path d="M348.858 345.277L360.763 347.616C361.182 347.677 361.483 348.119 361.442 348.612L360.452 359.797C360.271 361.002 359.306 361.818 358.275 361.638C354.146 360.742 352.195 360.079 346.963 359.051C343.739 358.42 336.372 356.877 331.89 356.38C327.408 355.883 327.945 350.672 329.882 350.406C338.592 349.261 343.541 347.868 346.92 345.694C347.509 345.305 348.19 345.161 348.858 345.277Z" fill="#F8E643"/>
<path d="M343.52 347.304C344.458 347.431 345.405 347.459 346.348 347.389C346.444 347.387 346.53 347.326 346.56 347.234C346.608 347.151 346.608 347.05 346.56 346.967C346.263 346.672 343.591 344.158 342.219 344.438C341.897 344.493 341.631 344.721 341.526 345.029C341.3 345.478 341.333 346.013 341.611 346.433C342.119 346.946 342.799 347.257 343.52 347.304ZM345.797 346.925C343.831 346.925 342.446 346.7 342.035 346.124C341.871 345.848 341.871 345.502 342.035 345.225C342.081 345.072 342.205 344.954 342.361 344.916C343.082 344.762 344.694 345.942 345.797 346.925Z" fill="#111111"/>
<path d="M346.363 347.389C346.363 347.389 346.434 347.389 346.477 347.389C346.559 347.358 346.621 347.29 346.646 347.206C346.646 347.08 347.424 344.087 346.519 342.893C346.296 342.569 345.925 342.373 345.529 342.373C345.094 342.311 344.671 342.556 344.511 342.963C344.073 344.073 345.289 346.532 346.236 347.332C346.27 347.368 346.315 347.387 346.363 347.389ZM345.628 342.879C345.829 342.911 346.007 343.022 346.123 343.188C346.537 344.297 346.583 345.509 346.25 346.644C345.393 345.682 344.938 344.43 344.978 343.146C344.978 343.005 345.133 342.851 345.501 342.865L345.628 342.879Z" fill="#111111"/>
<path d="M314.279 356.459L304.466 352.075L311.253 328.024L321.066 332.407L314.279 356.459Z" fill="#E9B98A"/>
<path opacity="0.2" d="M322.722 326.217L312.909 321.834L309.416 334.239L319.229 338.622L322.722 326.217Z" fill="#111111"/>
<path d="M400.145 197.497C399.678 197.497 320.679 205.575 320.58 232.198C320.41 276.226 307.755 326.698 307.755 326.698L323.368 334.382C323.368 334.382 350.556 279.668 350.146 245.347C371.879 239.152 428.099 249.562 434.745 231.664C440.189 217.025 437.248 197.497 437.248 197.497H400.145Z" fill="#111111"/>
<path d="M325.863 336.611L304.936 327.254L306.618 318.741L328.691 326.313L325.863 336.611Z" fill="#F8E643"/>
<path d="M305.431 343.992L317.366 346.454C317.778 346.53 318.072 347.014 318.03 347.549L317.097 359.844C316.937 361.179 315.97 362.094 314.935 361.888H314.933C310.805 360.94 308.853 360.21 303.622 359.133C300.398 358.477 291.617 356.36 287.191 355.211C282.765 354.062 283.755 348.461 285.777 348.424C294.53 348.296 300.2 346.873 303.565 344.447C304.131 344.035 304.787 343.875 305.431 343.992Z" fill="#F8E643"/>
<path d="M300.529 346.647C301.361 346.199 302.14 345.664 302.858 345.051C302.937 344.986 302.971 344.881 302.942 344.783C302.912 344.693 302.83 344.628 302.735 344.62C302.321 344.555 298.67 344.083 297.724 345.131C297.512 345.374 297.44 345.708 297.533 346.016C297.615 346.512 297.959 346.926 298.434 347.102C299.164 347.217 299.913 347.054 300.529 346.647ZM302.126 345.007C300.589 346.204 299.302 346.787 298.626 346.581C298.324 346.45 298.117 346.168 298.086 345.842C298.032 345.694 298.066 345.529 298.174 345.413C298.68 344.909 300.66 344.867 302.126 345.007Z" fill="#111111"/>
<path d="M302.859 345.051L302.962 344.977C303.015 344.912 303.026 344.823 302.988 344.749C302.913 344.646 301.75 341.769 300.311 341.332C299.938 341.211 299.529 341.275 299.211 341.502C298.824 341.714 298.631 342.161 298.746 342.585C299.048 343.739 301.49 344.998 302.742 345.082C302.783 345.081 302.822 345.071 302.859 345.051ZM299.572 341.851C299.75 341.751 299.962 341.73 300.158 341.792C301.155 342.445 301.919 343.396 302.339 344.507C301.069 344.242 299.95 343.501 299.215 342.439C299.132 342.326 299.166 342.109 299.473 341.907L299.572 341.851Z" fill="#111111"/>
<path d="M426.979 112.554C429.058 116.993 430.769 121.264 432.48 125.704C434.191 130.143 435.704 134.582 437.103 139.134C438.503 143.686 439.719 148.35 440.695 153.183C441.76 158.204 442.29 163.322 442.279 168.454C442.262 171.467 441.809 174.461 440.935 177.347C440.385 179.114 439.591 180.797 438.574 182.348C437.983 183.228 437.306 184.047 436.552 184.793L435.944 185.383C435.605 185.664 435.237 185.973 434.884 186.212C434.287 186.618 433.653 186.966 432.989 187.251C432.009 187.682 430.985 188.007 429.935 188.221C429.109 188.395 428.273 188.517 427.432 188.586C425.995 188.676 424.556 188.676 423.119 188.586C420.568 188.465 418.027 188.184 415.512 187.743C406.126 186.049 396.932 183.431 388.066 179.932L390.117 172.191C399.096 173.259 408.258 174.397 416.898 174.79C419.047 174.79 421.14 174.888 423.091 174.79C423.96 174.744 424.824 174.635 425.678 174.467C426.385 174.34 426.993 174.087 426.781 174.102C426.641 174.149 426.507 174.215 426.385 174.298C426.244 174.382 426.111 174.481 425.99 174.593C425.99 174.593 426.06 174.481 426.117 174.354C426.301 173.953 426.442 173.534 426.541 173.104C426.856 171.56 426.985 169.985 426.923 168.412C426.715 164.388 426.114 160.393 425.127 156.484C424.165 152.27 422.921 148.168 421.564 143.995C420.206 139.823 418.736 135.65 417.124 131.492C415.512 127.333 413.815 123.161 412.147 119.241L426.979 112.554Z" fill="#E9B98A"/>
<path d="M394.017 174.298L384.642 169.058L379.934 179.145C379.934 179.145 390.892 183.683 393.197 180.845L394.017 174.298Z" fill="#E9B98A"/>
<path d="M377.051 170.969L372.767 177.712L379.936 179.075L384.644 168.988L377.051 170.969Z" fill="#E9B98A"/>
<path d="M405.119 120.566C403.323 125.048 401.443 129.332 399.463 133.673C397.483 138.015 395.504 142.285 393.411 146.556C389.199 155.252 384.478 163.696 379.271 171.844C377.857 173.923 376.443 175.988 374.86 178.053C374.068 179.093 373.191 180.119 372.258 181.172C371.749 181.706 371.339 182.198 370.745 182.746L369.897 183.561L369.416 184.01C368.07 185.155 366.486 185.99 364.778 186.455C363.877 186.709 362.961 186.901 362.035 187.031C360.525 187.212 359.002 187.274 357.482 187.213C354.856 187.13 352.239 186.872 349.648 186.441C340.061 184.759 330.671 182.114 321.623 178.545L323.687 170.79C332.836 171.886 342.182 173.052 350.977 173.417C353.052 173.497 355.127 173.468 357.199 173.333C358.033 173.268 358.86 173.136 359.673 172.94C359.939 172.878 360.195 172.784 360.437 172.659C360.522 172.659 360.437 172.56 360.055 172.799C359.917 172.877 359.788 172.971 359.673 173.08C359.673 173.08 359.772 172.954 359.815 172.912L360.211 172.476C360.465 172.223 360.776 171.802 361.073 171.465C361.653 170.734 362.247 169.947 362.841 169.09C364.014 167.419 365.16 165.564 366.291 163.682C368.553 159.917 370.66 155.913 372.725 151.867C374.789 147.821 376.769 143.69 378.72 139.532C382.608 131.243 386.412 122.744 390.032 114.385L405.119 120.566Z" fill="#E9B98A"/>
<path d="M327.701 172.813L318.312 167.503L313.604 177.59C313.604 177.59 324.562 182.142 326.881 179.304L327.701 172.813Z" fill="#E9B98A"/>
<path d="M310.735 169.498L306.437 176.227L313.605 177.59L318.314 167.503L310.735 169.498Z" fill="#E9B98A"/>
<path d="M429.401 70.7212L423.406 77.6191L414.256 87.0233C414.444 87.4856 414.697 88.0883 414.956 88.7261C415.66 90.4597 416.077 92.3001 416.176 94.1657C416.376 97.935 416.012 101.123 410.03 103.678C410.03 103.678 403.752 111.826 418.683 109.565C433.615 107.303 435.863 99.604 435.863 99.604C429.246 94.9272 428.878 79.3752 429.401 70.7212Z" fill="#E9B98A"/>
<path d="M398.956 62.9381C398.956 63.8653 398.489 64.652 397.867 64.6801C397.245 64.7082 396.75 63.9777 396.736 63.0505C396.722 62.1232 397.216 61.3365 397.824 61.3084C398.432 61.2803 398.941 62.0108 398.956 62.9381Z" fill="#F8E643"/>
<path d="M402.085 59.4821C401.9 59.4807 401.731 59.3851 401.633 59.2292C400.892 58.0196 399.628 57.2202 398.211 57.0657C397.91 57.0502 397.674 56.803 397.674 56.5037C397.681 56.2017 397.934 55.9629 398.239 55.9699C400.027 56.1272 401.632 57.1177 402.566 58.6391C402.723 58.8962 402.648 59.2306 402.397 59.3978C402.302 59.4525 402.194 59.4821 402.085 59.4821Z" fill="#F8E643"/>
<path d="M398.619 63.458C397.861 65.9882 396.767 68.4074 395.367 70.651C396.542 71.3099 397.953 71.4124 399.213 70.932L398.619 63.458Z" fill="#E9B98A"/>
<path d="M430.251 58.2599C429.7 69.7237 429.954 76.5233 424.228 82.5923C418.65 88.7007 409.143 89.1587 402.997 83.6165C400.743 81.5836 399.162 78.92 398.465 75.9753C395.863 65.8181 397.221 48.777 408.363 43.6632C415.878 39.9642 424.989 43.0184 428.712 50.4867C429.913 52.8946 430.444 55.578 430.251 58.2599Z" fill="#E9B98A"/>
<path d="M435.482 62.0824C433.813 66.9433 431.282 71.467 427.988 75.4287L412.971 78.2385C412.971 78.2385 401.108 73.3074 404.275 65.1872C402.267 63.5013 403.017 58.2892 404.431 55.4233C406.693 57.2215 410.412 57.3761 412.448 55.2126C414.088 58.205 419.009 58.6264 421.144 55.9291C423.59 58.6264 428.808 57.7975 430.278 54.468C432.088 55.6481 434.69 55.4795 436.33 54.0746C436.401 54.0044 436.472 53.9482 436.542 53.8779C436.783 55.929 436.542 58.6124 435.482 62.0824Z" fill="#111111"/>
<path opacity="0.1" d="M435.482 62.0824C433.813 66.9433 431.282 71.467 427.988 75.4287L412.971 78.2385C412.971 78.2385 401.108 73.3074 404.275 65.1872C402.267 63.5013 403.017 58.2892 404.431 55.4233C406.693 57.2215 410.412 57.3761 412.448 55.2126C414.088 58.205 419.009 58.6264 421.144 55.9291C423.59 58.6264 428.808 57.7975 430.278 54.468C432.088 55.6481 434.69 55.4795 436.33 54.0746C436.401 54.0044 436.472 53.9482 436.542 53.8779C436.783 55.929 436.542 58.6124 435.482 62.0824Z" fill="#FDFDFD"/>
<path d="M437.645 48.1883C438.494 50.0709 438.027 52.4451 436.543 53.8781C436.472 53.9483 436.401 54.0045 436.33 54.0747C434.69 55.4796 432.088 55.6482 430.279 54.4681C428.808 57.7977 423.59 58.6265 421.144 55.9292C419.009 58.6265 414.088 58.2051 412.448 55.2127C410.412 57.3762 406.693 57.2217 404.431 55.4234C403.837 54.9598 403.342 54.3698 403.017 53.6814C402.932 53.5268 402.875 53.3723 402.819 53.2178C402.692 53.3583 402.564 53.4847 402.423 53.5971C401.051 54.721 398.888 54.8896 397.389 53.8921C396.159 53.0773 395.48 51.56 395.579 50.113C395.593 49.8039 395.65 49.5089 395.735 49.2139C395.622 49.4246 395.48 49.6213 395.311 49.7899C394.081 51.0964 391.479 51.1526 390.277 49.6634C388.778 47.823 389.626 44.7604 391.677 43.5382C392.497 43.0605 393.402 42.8357 394.335 42.8357C395.777 42.8357 397.248 43.3556 398.393 44.2266C397.163 42.4705 397.601 39.7872 399.326 38.5087C401.051 37.2444 403.766 37.5956 405.095 39.2674C404.912 37.2724 405.576 36.0783 406.608 35.4601C408.56 34.3362 411.812 35.3056 413.396 37.1882C413.396 37.1882 415.573 31.962 419.334 32.5521C420.154 32.6645 424.015 34.3644 423.916 35.7411C423.916 35.8395 423.887 35.9238 423.845 36.008C423.901 35.8957 423.958 35.7973 424.029 35.699C424.764 34.547 426.249 33.971 427.649 33.9991C429.162 34.0131 430.604 34.5891 432.004 35.1511C434.931 36.3452 438.041 37.6799 439.738 40.3351C441.421 43.0043 440.686 47.3454 437.645 48.1883Z" fill="#111111"/>
<path d="M410.905 66.2536C410.495 69.0845 409.187 71.713 407.172 73.7557C404.613 76.1861 402.436 73.7557 402.407 70.0609C402.407 66.7173 403.666 61.4209 406.649 60.4375C409.633 59.4526 411.457 62.615 410.905 66.2536Z" fill="#E9B98A"/>
<path d="M456.123 103.595C455.062 100.785 450.113 97.9756 447.073 97.9756H445.065C441.559 97.9756 437.189 98.2566 432.947 98.7483C424.865 99.6362 416.839 100.978 408.91 102.766C405.262 103.722 401.741 104.93 398.941 105.969C395.378 107.374 393.285 108.315 393.285 108.315C393.285 108.315 397.191 134.144 399.21 159.799C400.334 174.075 399.869 188.253 400.228 198.003H460.549C462.627 186.286 462.299 176.068 462.469 154.911C462.568 142.209 460.492 115.157 456.123 103.595Z" fill="#F8E643"/>
<path opacity="0.2" d="M397.906 145.459C398.359 150.84 398.825 156.487 399.32 162.135C406.39 151.879 410.307 123.823 410.307 123.823L397.906 145.459Z" fill="#111111"/>
<path d="M389.875 110.204C381.236 115.036 372.768 139.768 372.768 139.768L392.548 154.598C400.099 147.503 411.142 129.9 412.344 122.862C414.281 112.058 403.718 102.505 389.875 110.204Z" fill="#F8E643"/>
<path d="M416.941 358.451V346.635H399.323C395.864 346.638 392.414 346.957 389.015 347.591L356.209 353.925C354.591 354.239 353.536 355.795 353.85 357.402C354.13 358.83 355.41 359.844 356.873 359.798L416.941 358.451Z" fill="#F8E643"/>
<path d="M416.939 358.451V346.635H434.572C438.03 346.637 441.481 346.956 444.88 347.591L481.75 353.448C483.367 353.761 484.422 355.318 484.107 356.925C483.827 358.352 482.547 359.367 481.085 359.32L416.939 358.451Z" fill="#F8E643"/>
<path d="M427.835 288.575H406.018V347.034H427.835V288.575Z" fill="#F8E643"/>
<path d="M424.712 261.371H409.158V288.559H424.712V261.371Z" fill="#F8E643"/>
<path opacity="0.5" d="M409.158 269.356L424.712 273.561V261.371H409.158V269.356Z" fill="#111111"/>
<path d="M366.647 204.447H358.743V237.953H366.647V204.447Z" fill="#F8E643"/>
<path d="M406.279 261.371V115.711C406.279 110.195 408.675 104.949 412.851 101.316L423.301 92.2282C426.812 89.1754 431.318 87.491 435.984 87.491H473.732L492.178 106.991V261.372H406.279V261.371Z" fill="#111111"/>
<path d="M350.077 233.189H436.189V261.371H336.051C330.427 261.375 325.866 256.85 325.861 251.264C325.86 249.448 326.351 247.664 327.284 246.1C332.049 238.095 340.717 233.186 350.077 233.189Z" fill="#111111"/>
<path opacity="0.7" d="M492.178 106.996V261.378H336.046C330.432 261.378 325.865 256.855 325.865 251.263C325.865 249.451 326.346 247.667 327.279 246.107C332.044 238.113 340.684 233.196 350.03 233.196H393.402C400.512 233.196 406.279 227.469 406.279 220.402V115.707C406.279 110.2 408.668 104.945 412.854 101.321L423.303 92.2312C426.81 89.1686 431.32 87.4968 435.987 87.4968H473.726L492.178 106.996Z" fill="#FDFDFD"/>
<path d="M418.84 261.371V115.711C418.84 110.195 421.235 104.949 425.412 101.316L435.861 92.2282C439.372 89.1754 443.879 87.491 448.545 87.491H477.966C483.279 87.491 488.357 89.6727 491.997 93.5207L499.515 101.468C502.87 105.015 504.74 109.701 504.74 114.57V246.788C504.74 254.842 498.167 261.372 490.061 261.372H418.84V261.371Z" fill="#111111"/>
<path opacity="0.5" d="M418.84 261.371V115.711C418.84 110.195 421.235 104.949 425.412 101.316L435.861 92.2282C439.372 89.1754 443.879 87.491 448.545 87.491H477.966C483.279 87.491 488.357 89.6727 491.997 93.5207L499.515 101.468C502.87 105.015 504.74 109.701 504.74 114.57V246.788C504.74 254.842 498.167 261.372 490.061 261.372H418.84V261.371Z" fill="#FDFDFD"/>
<path d="M389.615 214.485L389.615 214.485L389.611 214.484C372.173 208.435 353.187 208.435 335.749 214.484L335.749 214.484L335.744 214.486C332.228 215.803 328.276 214.307 326.534 211.001C324.99 207.752 327.053 203.482 331.355 201.979C351.628 194.941 373.704 194.941 393.977 201.979L393.977 201.979C398.278 203.468 400.342 207.751 398.798 211.001C397.053 214.289 393.123 215.781 389.615 214.485Z" fill="#111111" stroke="black" stroke-width="0.4"/>
<path opacity="0.7" d="M389.615 214.485L389.615 214.485L389.611 214.484C372.173 208.435 353.187 208.435 335.749 214.484L335.749 214.484L335.744 214.486C332.228 215.803 328.276 214.307 326.534 211.001C324.99 207.752 327.053 203.482 331.355 201.979C351.628 194.941 373.704 194.941 393.977 201.979L393.977 201.979C398.278 203.468 400.342 207.751 398.798 211.001C397.053 214.289 393.123 215.781 389.615 214.485Z" fill="#FDFDFD" stroke="black" stroke-width="0.4"/>
<path d="M580.761 359.334H0.223633V361.336H580.761V359.334Z" fill="#111111"/>
<path d="M169.813 75.2953C169.516 76.1242 169.728 76.953 170.28 77.1357C170.831 77.3183 171.51 76.8125 171.793 75.9837C172.076 75.1548 171.878 74.3119 171.34 74.1292C170.803 73.9466 170.11 74.4524 169.813 75.2953Z" fill="#111111"/>
<path d="M169.655 76.1523C169.765 79.0464 170.274 81.9109 171.168 84.6659C169.727 85.0761 168.177 84.8401 166.926 84.0196L169.655 76.1523Z" fill="#E9B98A"/>
<path d="M168.451 69.6477C168.557 69.6828 168.67 69.6828 168.776 69.6477C170.035 69.2305 171.418 69.4398 172.495 70.2096C172.728 70.3782 173.056 70.3262 173.226 70.0944C173.376 69.8879 173.355 69.6041 173.174 69.4229C171.828 68.4255 170.079 68.1374 168.479 68.6502C168.207 68.743 168.061 69.0394 168.154 69.3105C168.207 69.4622 168.327 69.5817 168.479 69.6337L168.451 69.6477Z" fill="#111111"/>
<path d="M138.802 78.3579C140.385 86.3516 141.955 101.004 136.327 106.343C136.327 106.343 138.533 114.449 153.493 114.449C169.938 114.449 161.355 106.343 161.355 106.343C152.376 104.208 153.821 97.5907 155.391 91.3811L138.802 78.3579Z" fill="#F0BF9C"/>
<path d="M142.463 63.8596C139.522 74.3119 137.26 80.2826 140.625 87.3211C145.673 97.9279 163.312 99.3032 168.127 87.1623C171.789 75.9837 175.409 64.1687 166.756 56.6245C160.602 51.1933 151.182 51.7468 145.715 57.8608C144.177 59.5818 143.063 61.6357 142.463 63.8596Z" fill="#F0BF9C"/>
<path d="M131.062 67.334C130.297 63.4833 130.101 59.2715 132.035 55.8478C133.969 52.4255 138.658 50.328 142.06 52.3244C144.997 46.171 152.098 42.257 158.908 43.0381C165.717 43.8192 171.733 49.2393 173.179 55.897C174.626 62.5547 171.397 69.9569 165.519 73.4607C166.304 70.5877 167.089 67.7162 167.874 64.8432C167.199 68.812 165.012 72.5096 161.849 75.0257C162.303 72.1542 162.758 69.2826 163.212 66.411C162.798 70.4669 160.336 74.2657 156.791 76.3182C157.341 74.3064 157.891 72.2947 158.44 70.2843C158.198 71.1679 155.998 77.4927 155.25 78.3581C153.861 79.9653 152.932 90.5285 148.058 90.8615C131.4 94.1756 132.851 76.328 131.062 67.334Z" fill="#111111"/>
<path d="M153.561 72.3424C153.278 75.0229 153.883 77.7202 155.286 80.027C157.167 83.0335 159.924 81.8815 160.942 78.8048C161.847 75.9951 161.946 71.1482 159.33 69.1954C156.714 67.2427 153.957 69.1112 153.561 72.3424Z" fill="#F0BF9C"/>
<path d="M113.708 173.603C111.906 173.01 103.496 168.713 102.157 169.48C106.04 159.634 108.462 158.124 110.228 151.857C111.215 148.356 110.536 145.629 108.347 142.715C105.863 139.407 104.992 137.731 100.858 138.14C95.1733 147.583 88.0157 159.235 85.2146 169.88C84.2715 173.465 83.5886 176.184 85.735 179.214C87.6269 181.885 91.1251 182.961 94.3985 183.252C102.28 183.954 113.971 182.514 113.822 177.865C113.728 174.935 113.708 173.603 113.708 173.603Z" fill="#F0BF9C"/>
<path d="M112.37 173.252L119.051 171.095L118.457 183.082C118.457 183.082 113.108 183.271 110.259 179.717L112.37 173.252Z" fill="#F0BF9C"/>
<path d="M127.394 170.91L126.439 180.795L118.458 183.083L119.052 171.097L127.394 170.91Z" fill="#F0BF9C"/>
<path d="M203.921 181.76C203.921 181.76 194.611 174.51 182.389 150.55C180.576 147.2 178.843 143.822 177.185 140.418C175.521 136.981 173.923 133.619 172.4 130.008L186.846 123.823C189.824 130.262 194.456 136.905 197.735 143.297C201.014 149.689 208.758 164.828 209.727 166.24C210.209 166.968 210.731 167.57 211.231 168.242L211.978 169.228L202.658 179.932L203.921 181.76Z" fill="#F0BF9C"/>
<path d="M216.153 135.184L213.259 131.756L211.921 126.624L220.647 118.57C220.647 118.57 222.759 121.152 224.234 123.934C224.459 124.359 224.556 124.84 224.536 125.32L224.182 134.345L216.153 135.184Z" fill="#F0BF9C"/>
<path d="M212.048 121.066L218.578 115.168L220.642 118.612L211.921 126.624L212.048 121.066Z" fill="#F0BF9C"/>
<path d="M216.28 132.675C216.508 131.709 216.71 133.602 217.35 132.84C219.28 130.546 222.082 130.296 223.749 132.786C225.416 135.276 223.99 160.346 221.325 168.2C219.555 173.416 218.612 177.58 214.085 180.754C212.213 182.066 210.016 183.056 207.725 183.021C205.435 182.986 203.073 181.741 202.207 179.633C200.862 176.356 205.853 164.558 207.639 160.751C213.23 148.821 213.6 143.998 216.28 132.675Z" fill="#F0BF9C"/>
<path d="M197.565 131.596C201.418 131.559 205.271 131.521 209.124 131.485C210.77 131.469 212.479 131.438 213.96 130.723C215.9 129.786 217.126 127.818 217.909 125.822C219.544 121.658 219.681 117.089 220.33 112.666C220.979 108.242 222.318 103.627 225.686 100.663C219.548 101.472 208.695 99.5603 203.983 104.557C201.483 107.207 197.092 131.6 197.565 131.596Z" fill="#F8E643"/>
<path opacity="0.5" d="M197.565 131.596C201.418 131.559 205.271 131.521 209.124 131.485C210.77 131.469 212.479 131.438 213.96 130.723C215.9 129.786 217.126 127.818 217.909 125.822C219.544 121.658 219.681 117.089 220.33 112.666C220.979 108.242 222.318 103.627 225.686 100.663C219.548 101.472 208.695 99.5603 203.983 104.557C201.483 107.207 197.092 131.6 197.565 131.596Z" fill="#FDFDFD"/>
<path d="M217.332 114.545C216.668 114.719 216.231 117.076 216.375 117.742L217.023 118.893L218.343 124.587L222.754 122.162L218.778 115.151C218.491 114.646 217.897 114.397 217.332 114.545Z" fill="#F0BF9C"/>
<path d="M117.685 108.349C107.363 110.695 92.0986 142.648 92.0986 142.648L112.814 156.697C117.966 149.356 124.981 138.259 128.93 130.216C135.054 117.488 128.233 105.948 117.685 108.349Z" fill="#F8E643"/>
<path d="M132.77 109.125C131.582 106.554 130.295 103.618 132.968 102.705C135.923 101.693 152.099 100.654 157.67 102.55C160.73 103.378 162.534 106.512 161.703 109.552C161.693 109.589 161.683 109.624 161.672 109.66L132.77 109.125Z" fill="#111111"/>
<path opacity="0.2" d="M124.067 126.802L109.342 154.342L112.813 156.697C112.813 156.697 119.484 147.468 124.066 139.489L124.067 126.802Z" fill="#F8E643"/>
<path d="M180.445 122.41C182.676 133.625 177.464 160.293 177.518 203.856H118.654C118.265 195.051 124.711 174.204 116.704 132.676C116.443 131.33 116.326 108.588 117.684 108.351C123.383 107.356 129.135 106.681 134.913 106.329C143.248 105.845 151.605 105.845 159.941 106.329C163.341 106.669 168.71 108.77 172.092 109.979C177.375 111.867 179.356 116.938 180.445 122.41Z" fill="#F8E643"/>
<path opacity="0.2" d="M164.866 133.577C166.402 142.81 172.495 155.005 178.566 162.159C178.807 156.919 179.334 151.447 179.32 147.246L164.866 133.577Z" fill="#F8E643"/>
<path d="M160.677 119.704C159.263 130.057 179.766 156.497 179.766 156.497L200.396 142.448C200.396 142.448 194.67 127.88 185.04 118.327C174.068 107.369 162.289 108.436 160.677 119.704Z" fill="#F8E643"/>
<path d="M228.109 348.867H239.11L241.613 323.537H230.612L228.109 348.867Z" fill="#F0BF9C"/>
<path opacity="0.2" d="M241.445 325.081L240.172 338.132H229.157L230.444 325.081H241.445Z" fill="#F8E643"/>
<path d="M184.716 348.867H195.717L201.245 323.537H190.245L184.716 348.867Z" fill="#F0BF9C"/>
<g opacity="0.2">
<path d="M190.003 324.887H201.004L198.149 337.939H187.146L190.003 324.887Z" fill="#F8E643"/>
</g>
<path d="M239.735 343.955H227.73C227.275 343.958 226.881 344.366 226.782 344.937L224.605 357.448C224.401 358.552 224.933 359.659 225.793 359.92C225.923 359.96 226.056 359.978 226.189 359.975C230.515 359.884 236.779 359.556 242.223 359.556C248.6 359.556 254.101 359.993 261.567 359.993C266.091 359.993 267.35 354.12 265.455 353.593C256.844 351.175 249.816 350.919 242.379 345.01C241.59 344.352 240.675 343.988 239.735 343.955Z" fill="#111111"/>
<path d="M248.472 348.024C249.886 348.024 251.3 347.827 251.71 347.195C251.949 346.854 251.949 346.4 251.71 346.057C251.522 345.761 251.229 345.546 250.89 345.453C249.052 344.961 245.234 347.139 245.05 347.237C244.951 347.286 244.899 347.396 244.923 347.504C244.941 347.607 245.019 347.69 245.121 347.715C246.226 347.914 247.348 348.018 248.472 348.024ZM250.225 345.903C250.389 345.88 250.556 345.88 250.72 345.903C250.936 345.943 251.123 346.077 251.229 346.268C251.413 346.591 251.356 346.746 251.229 346.83C250.72 347.546 247.935 347.56 245.884 347.265C247.228 346.535 248.702 346.073 250.225 345.903Z" fill="#F8E643"/>
<path d="M245.149 347.715H245.262C246.591 347.125 249.221 344.765 249.009 343.5C249.009 343.205 248.754 342.854 248.047 342.77C247.534 342.726 247.025 342.888 246.633 343.219C245.219 344.357 244.937 347.308 244.922 347.434C244.913 347.525 244.949 347.615 245.021 347.673C245.06 347.695 245.103 347.709 245.149 347.715ZM247.835 343.29H247.991C248.457 343.29 248.486 343.528 248.5 343.585C248.627 344.329 246.831 346.184 245.474 346.984C245.587 345.748 246.081 344.575 246.888 343.627C247.151 343.402 247.489 343.283 247.835 343.29Z" fill="#F8E643"/>
<path d="M196.495 343.955H184.136C183.684 343.96 183.296 344.368 183.203 344.937L181.026 357.448C180.838 358.577 181.398 359.689 182.277 359.929C182.396 359.961 182.517 359.977 182.638 359.975C186.95 359.884 189.057 359.557 194.487 359.557C197.838 359.557 202.122 359.993 206.746 359.993C211.37 359.993 211.964 354.12 210.069 353.593C201.585 351.212 201.005 347.92 198.29 344.774C197.79 344.228 197.151 343.937 196.495 343.955Z" fill="#111111"/>
<path d="M202.951 349.415C203.894 349.537 204.846 349.28 205.595 348.698C205.862 348.334 205.862 347.84 205.595 347.476C205.426 347.164 205.126 346.942 204.775 346.872C203.163 346.493 200.123 348.558 199.996 348.642C199.914 348.705 199.871 348.806 199.883 348.909C199.902 349.007 199.982 349.086 200.081 349.106C201.024 349.309 201.985 349.413 202.951 349.415ZM204.365 347.336C204.468 347.321 204.573 347.321 204.676 347.336C204.881 347.365 205.059 347.49 205.157 347.673C205.397 348.108 205.256 348.277 205.157 348.347C204.69 348.951 202.442 348.965 200.788 348.698C201.852 347.983 203.066 347.517 204.337 347.336H204.365Z" fill="#F8E643"/>
<path d="M200.15 349.12H200.263C201.408 348.502 203.614 346.113 203.373 344.905C203.298 344.506 202.948 344.217 202.539 344.217C202.14 344.169 201.739 344.291 201.436 344.554C200.164 345.593 199.895 348.768 199.881 348.881C199.879 348.976 199.928 349.066 200.008 349.12C200.053 349.134 200.103 349.134 200.15 349.12ZM202.37 344.694H202.483C202.822 344.694 202.85 344.891 202.864 344.961C203.006 345.678 201.592 347.49 200.461 348.347C200.537 347.1 200.989 345.905 201.761 344.919C201.93 344.774 202.146 344.694 202.37 344.694Z" fill="#F8E643"/>
<path d="M159.875 203.87C159.875 203.87 211.979 225.242 222.753 241.675C216.346 283.454 204.852 331.053 204.852 331.053H185.257C185.257 331.053 184.72 304.585 190.33 269.574C193.158 218.507 100.658 271.346 118.63 203.87H159.875Z" fill="#111111"/>
<path opacity="0.3" d="M195.896 239.09C192.245 239.23 188.625 239.782 185.015 240.335C181.209 240.916 177.403 241.498 173.595 242.079C179.483 246.991 185.703 251.509 192.2 255.593C196.142 258.071 200.432 260.461 205.096 260.482C210.32 260.506 224.518 253.814 222.164 246.898C219.777 239.886 201.836 238.861 195.896 239.09Z" fill="#F8E643"/>
<path d="M177.522 203.87C177.522 203.87 225.684 210.04 252.235 225.062C260.409 229.687 259.265 244.539 259.053 254.319C258.469 280.559 253.39 306.507 244.036 331.053H227.691C227.691 331.053 228.525 304.543 227.973 261.765C227.804 248.938 201.744 244.709 176.278 243.22C154.281 241.846 134.97 228.196 126.449 208L124.71 203.87H177.522Z" fill="#111111"/>
<path d="M248.034 326.698C248.119 326.698 246.973 334.382 246.973 334.382H224.35L223.728 327.527L248.034 326.698Z" fill="#F8E643"/>
<path d="M206.747 326.698C206.832 326.698 204.669 334.382 204.669 334.382H182.045L182.455 327.527L206.747 326.698Z" fill="#F8E643"/>
<path d="M145.948 242.636L129.738 361.358L126.81 360.96L139.322 241.737L145.948 242.636Z" fill="#F8E643"/>
<path opacity="0.4" d="M145.368 246.887L129.738 361.358L126.81 360.96L138.783 246.873L145.368 246.887Z" fill="#F8E643"/>
<path d="M202.972 246.887H111.062C111.062 241.13 115.76 236.463 121.554 236.463H192.48C198.274 236.463 202.972 241.13 202.972 246.887Z" fill="#8F8F8F"/>
<path d="M115.318 246.873L101.461 362.297H104.43L122.006 246.873H115.318Z" fill="#F8E643"/>
<path d="M198.714 246.873L212.571 362.297H209.602L192.04 246.873H198.714Z" fill="#F8E643"/>
<path opacity="0.4" d="M198.714 246.873L212.571 362.297H209.602L192.04 246.873H198.714Z" fill="#F8E643"/>
<path d="M180.18 246.873L180.449 362.297H177.494L173.492 246.873H180.18Z" fill="#F8E643"/>
<path d="M89.0998 106.341H61.1108C59.2714 106.341 57.7803 104.85 57.7803 103.011C57.7803 101.172 59.2714 99.6809 61.1108 99.6809H89.0998C90.9392 99.6809 92.4294 101.172 92.4294 103.011C92.4303 104.85 90.9392 106.341 89.0998 106.341Z" fill="#60A2F4"/>
<path d="M542.744 298.624C542.744 298.624 538.691 293.817 529.779 287.69V284.883L527.81 286.255C520.489 280.453 520.835 274.651 527.988 273.834C530.031 273.604 532 273.897 533.79 274.819L533.622 277.553L536.544 276.882C540.032 280.475 542.44 287.376 542.744 298.624Z" fill="#60A2F4"/>
<path d="M570.399 268.776C569.571 269.949 568.293 271.269 566.754 272.672L562.491 271.394L563.162 275.678C555.464 281.731 545.212 287.911 545.212 287.911C544.751 277.48 546.813 265.007 555.79 259.539L558.932 261.047L557.958 258.408C558.607 258.125 559.298 257.874 560.011 257.654C572.577 253.852 575.332 261.842 570.399 268.776Z" fill="#60A2F4"/>
<path d="M542.523 264.231C542.523 264.231 535.506 260.743 529.777 256.082V252.668L527.379 253.987C523.735 250.499 521.336 246.603 523.095 243.116C525.085 239.178 529.558 238.874 533.756 241.388L533.935 244.687L536.406 243.399C540.784 247.484 544.083 254.804 542.523 264.231Z" fill="#60A2F4"/>
<path d="M568.719 249.631L564.468 248.353V251.264C557.628 253.725 549.229 256.134 549.229 256.134C550.748 248.185 554.435 241.053 561.996 238.759L563.682 240.372L564.824 238.152C565.348 238.079 565.882 238.037 566.437 238.005C577.003 237.482 575.6 246.72 568.719 249.631Z" fill="#60A2F4"/>
<path d="M546.064 247.065C546.064 247.065 538.859 239.054 530.376 230.601L531.559 226.276L527.024 227.312C526.94 227.228 526.846 227.145 526.762 227.061C516.813 217.458 521.714 204.366 536.544 210.126C537.947 210.67 539.194 211.341 540.304 212.137L539.77 215.803L543.436 215.018C550.504 223.49 548.641 238.33 546.064 247.065Z" fill="#60A2F4"/>
<path d="M574.123 223.867C573.379 225.469 572.102 227.02 570.51 228.465L566.561 228.895L566.97 231.252C560.414 235.787 552.129 238.855 552.129 238.855C552.129 238.855 552.296 226.759 560.403 219.029C560.518 218.914 560.634 218.809 560.748 218.715L564.026 219.815L563.744 216.526C570.845 212.546 577.432 216.745 574.123 223.867Z" fill="#60A2F4"/>
<path d="M563.685 300.325H523.102L529.647 342.054V357.535C529.647 357.59 529.658 358.878 530.653 359.801C531.292 360.394 532.168 360.694 533.262 360.694C533.418 360.694 533.579 360.687 533.744 360.675C537.074 360.428 536.957 353.887 536.863 348.631C536.854 348.089 536.845 347.563 536.84 347.061H552.221C552.217 347.563 552.208 348.089 552.198 348.631C552.105 353.887 551.989 360.428 555.317 360.675C555.483 360.687 555.643 360.694 555.799 360.694C556.894 360.694 557.77 360.394 558.408 359.801C559.403 358.877 559.414 357.589 559.414 357.535V342.68L563.685 300.325ZM535.817 348.65C535.894 352.955 536.01 359.458 533.668 359.63C532.661 359.706 531.884 359.508 531.376 359.041C530.714 358.435 530.696 357.541 530.696 357.534V347.061H535.793C535.798 347.57 535.806 348.102 535.817 348.65ZM557.695 359.035C557.188 359.506 556.412 359.703 555.395 359.63C553.053 359.458 553.168 352.954 553.246 348.65C553.255 348.102 553.264 347.57 553.27 347.062H558.368V357.535C558.367 357.544 558.348 358.428 557.695 359.035Z" fill="#070707"/>
<path d="M565.777 297.053H520.743V303.599H565.777V297.053Z" fill="#252728"/>
<path d="M572.844 219.028C572.844 219.028 544.829 230.549 543.389 271.393C541.949 312.239 543.389 318.522 543.389 318.522" stroke="#252728" stroke-width="1.04728" stroke-miterlimit="10"/>
<path d="M524.493 276.456C524.493 276.456 540.581 280.471 542.749 298.624" stroke="#252728" stroke-width="1.04728" stroke-miterlimit="10"/>
<path d="M570.401 259.175C570.401 259.175 543.025 273.139 542.749 302.115" stroke="#252728" stroke-width="1.04728" stroke-miterlimit="10"/>
<path d="M524.493 243.902C524.493 243.902 543.012 249.754 543.388 271.394" stroke="#252728" stroke-width="1.04728" stroke-miterlimit="10"/>
<path d="M526.762 212.221C526.762 212.221 548.988 227.652 546.063 253.365" stroke="#252728" stroke-width="1.04728" stroke-miterlimit="10"/>
<path d="M572.848 242.069C572.848 242.069 544.833 244.862 543.393 274.884" stroke="#252728" stroke-width="1.04728" stroke-miterlimit="10"/>
</svg>
