<svg width="180" height="180" viewBox="0 0 180 180" fill="none" xmlns="http://www.w3.org/2000/svg">
<ellipse cx="90.0008" cy="90.0004" rx="82.2582" ry="82.2582" fill="#111111"/>
<path d="M180 90C180 113.869 170.518 136.761 153.64 153.64C136.761 170.518 113.869 180 90 180C66.1305 180 43.2387 170.518 26.3604 153.64C9.48212 136.761 3.60419e-06 113.869 0 90H9C9 111.483 17.5339 132.085 32.7244 147.276C47.9148 162.466 68.5175 171 90 171C111.483 171 132.085 162.466 147.276 147.276C162.466 132.085 171 111.483 171 90H180Z" fill="#F8E643"/>
<path d="M76.3866 70.3759C76.3866 67.6239 76.9146 65.4559 77.9706 63.8719C79.0426 62.2879 80.7626 61.4959 83.1306 61.4959C85.4986 61.4959 87.2106 62.2879 88.2666 63.8719C89.3386 65.4559 89.8746 67.6239 89.8746 70.3759C89.8746 73.1599 89.3386 75.3439 88.2666 76.9279C87.2106 78.5119 85.4986 79.3039 83.1306 79.3039C80.7626 79.3039 79.0426 78.5119 77.9706 76.9279C76.9146 75.3439 76.3866 73.1599 76.3866 70.3759ZM85.8426 70.3759C85.8426 68.7599 85.6666 67.5199 85.3146 66.6559C84.9626 65.7759 84.2346 65.3359 83.1306 65.3359C82.0266 65.3359 81.2986 65.7759 80.9466 66.6559C80.5946 67.5199 80.4186 68.7599 80.4186 70.3759C80.4186 71.4639 80.4826 72.3679 80.6106 73.0879C80.7386 73.7919 80.9946 74.3679 81.3786 74.8159C81.7786 75.2479 82.3626 75.4639 83.1306 75.4639C83.8986 75.4639 84.4746 75.2479 84.8586 74.8159C85.2586 74.3679 85.5226 73.7919 85.6506 73.0879C85.7786 72.3679 85.8426 71.4639 85.8426 70.3759ZM91.8989 76.0879C92.4429 75.6559 92.6909 75.4559 92.6429 75.4879C94.2109 74.1919 95.4429 73.1279 96.3389 72.2959C97.2509 71.4639 98.0189 70.5919 98.6429 69.6799C99.2669 68.7679 99.5789 67.8799 99.5789 67.0159C99.5789 66.3599 99.4269 65.8479 99.1229 65.4799C98.8189 65.1119 98.3629 64.9279 97.7549 64.9279C97.1469 64.9279 96.6669 65.1599 96.3149 65.6239C95.9789 66.0719 95.8109 66.7119 95.8109 67.5439H91.8509C91.8829 66.1839 92.1709 65.0479 92.7149 64.1359C93.2749 63.2239 94.0029 62.5519 94.8989 62.1199C95.8109 61.6879 96.8189 61.4719 97.9229 61.4719C99.8269 61.4719 101.259 61.9599 102.219 62.9359C103.195 63.9119 103.683 65.1839 103.683 66.7519C103.683 68.4639 103.099 70.0559 101.931 71.5279C100.763 72.9839 99.2749 74.4079 97.4669 75.7999H103.947V79.1359H91.8989V76.0879Z" fill="#F8E643"/>
<path d="M46.4586 117.544C45.3546 117.544 44.3626 117.352 43.4826 116.968C42.6186 116.568 41.9386 116.024 41.4426 115.336C40.9466 114.632 40.6906 113.824 40.6746 112.912H43.0026C43.0826 113.696 43.4026 114.36 43.9626 114.904C44.5386 115.432 45.3706 115.696 46.4586 115.696C47.4986 115.696 48.3146 115.44 48.9066 114.928C49.5146 114.4 49.8186 113.728 49.8186 112.912C49.8186 112.272 49.6426 111.752 49.2906 111.352C48.9386 110.952 48.4986 110.648 47.9706 110.44C47.4426 110.232 46.7306 110.008 45.8346 109.768C44.7306 109.48 43.8426 109.192 43.1706 108.904C42.5146 108.616 41.9466 108.168 41.4666 107.56C41.0026 106.936 40.7706 106.104 40.7706 105.064C40.7706 104.152 41.0026 103.344 41.4666 102.64C41.9306 101.936 42.5786 101.392 43.4106 101.008C44.2586 100.624 45.2266 100.432 46.3146 100.432C47.8826 100.432 49.1626 100.824 50.1546 101.608C51.1626 102.392 51.7306 103.432 51.8586 104.728H49.4586C49.3786 104.088 49.0426 103.528 48.4506 103.048C47.8586 102.552 47.0746 102.304 46.0986 102.304C45.1866 102.304 44.4426 102.544 43.8666 103.024C43.2906 103.488 43.0026 104.144 43.0026 104.992C43.0026 105.6 43.1706 106.096 43.5066 106.48C43.8586 106.864 44.2826 107.16 44.7786 107.368C45.2906 107.56 46.0026 107.784 46.9146 108.04C48.0186 108.344 48.9066 108.648 49.5786 108.952C50.2506 109.24 50.8266 109.696 51.3066 110.32C51.7866 110.928 52.0266 111.76 52.0266 112.816C52.0266 113.632 51.8106 114.4 51.3786 115.12C50.9466 115.84 50.3066 116.424 49.4586 116.872C48.6106 117.32 47.6106 117.544 46.4586 117.544ZM57.9046 106.024V113.776C57.9046 114.416 58.0406 114.872 58.3126 115.144C58.5846 115.4 59.0566 115.528 59.7286 115.528H61.3366V117.376H59.3686C58.1526 117.376 57.2406 117.096 56.6326 116.536C56.0246 115.976 55.7206 115.056 55.7206 113.776V106.024H54.0166V104.224H55.7206V100.912H57.9046V104.224H61.3366V106.024H57.9046ZM66.1668 106.36C66.5508 105.608 67.0948 105.024 67.7988 104.608C68.5188 104.192 69.3908 103.984 70.4148 103.984V106.24H69.8388C67.3908 106.24 66.1668 107.568 66.1668 110.224V117.376H63.9828V104.224H66.1668V106.36ZM72.1199 110.752C72.1199 109.408 72.3919 108.232 72.9359 107.224C73.4799 106.2 74.2239 105.408 75.1679 104.848C76.1279 104.288 77.1919 104.008 78.3599 104.008C79.5119 104.008 80.5119 104.256 81.3599 104.752C82.2079 105.248 82.8399 105.872 83.2559 106.624V104.224H85.4639V117.376H83.2559V114.928C82.8239 115.696 82.1759 116.336 81.3119 116.848C80.4639 117.344 79.4719 117.592 78.3359 117.592C77.1679 117.592 76.1119 117.304 75.1679 116.728C74.2239 116.152 73.4799 115.344 72.9359 114.304C72.3919 113.264 72.1199 112.08 72.1199 110.752ZM83.2559 110.776C83.2559 109.784 83.0559 108.92 82.6559 108.184C82.2559 107.448 81.7119 106.888 81.0239 106.504C80.3519 106.104 79.6079 105.904 78.7919 105.904C77.9759 105.904 77.2319 106.096 76.5599 106.48C75.8879 106.864 75.3519 107.424 74.9519 108.16C74.5519 108.896 74.3519 109.76 74.3519 110.752C74.3519 111.76 74.5519 112.64 74.9519 113.392C75.3519 114.128 75.8879 114.696 76.5599 115.096C77.2319 115.48 77.9759 115.672 78.7919 115.672C79.6079 115.672 80.3519 115.48 81.0239 115.096C81.7119 114.696 82.2559 114.128 82.6559 113.392C83.0559 112.64 83.2559 111.768 83.2559 110.776ZM91.8186 106.024V113.776C91.8186 114.416 91.9546 114.872 92.2266 115.144C92.4986 115.4 92.9706 115.528 93.6426 115.528H95.2506V117.376H93.2826C92.0666 117.376 91.1546 117.096 90.5466 116.536C89.9386 115.976 89.6346 115.056 89.6346 113.776V106.024H87.9306V104.224H89.6346V100.912H91.8186V104.224H95.2506V106.024H91.8186ZM109.897 110.296C109.897 110.712 109.873 111.152 109.825 111.616H99.3128C99.3928 112.912 99.8328 113.928 100.633 114.664C101.449 115.384 102.433 115.744 103.585 115.744C104.529 115.744 105.313 115.528 105.937 115.096C106.577 114.648 107.025 114.056 107.281 113.32H109.633C109.281 114.584 108.577 115.616 107.521 116.416C106.465 117.2 105.153 117.592 103.585 117.592C102.337 117.592 101.217 117.312 100.225 116.752C99.2488 116.192 98.4808 115.4 97.9208 114.376C97.3608 113.336 97.0808 112.136 97.0808 110.776C97.0808 109.416 97.3528 108.224 97.8968 107.2C98.4408 106.176 99.2008 105.392 100.177 104.848C101.169 104.288 102.305 104.008 103.585 104.008C104.833 104.008 105.937 104.28 106.897 104.824C107.857 105.368 108.593 106.12 109.105 107.08C109.633 108.024 109.897 109.096 109.897 110.296ZM107.641 109.84C107.641 109.008 107.457 108.296 107.089 107.704C106.721 107.096 106.217 106.64 105.577 106.336C104.953 106.016 104.257 105.856 103.489 105.856C102.385 105.856 101.441 106.208 100.657 106.912C99.8888 107.616 99.4488 108.592 99.3368 109.84H107.641ZM118.204 104.008C119.34 104.008 120.332 104.256 121.18 104.752C122.044 105.248 122.684 105.872 123.1 106.624V104.224H125.308V117.664C125.308 118.864 125.052 119.928 124.54 120.856C124.028 121.8 123.292 122.536 122.332 123.064C121.388 123.592 120.284 123.856 119.02 123.856C117.292 123.856 115.852 123.448 114.7 122.632C113.548 121.816 112.868 120.704 112.66 119.296H114.82C115.06 120.096 115.556 120.736 116.308 121.216C117.06 121.712 117.964 121.96 119.02 121.96C120.22 121.96 121.196 121.584 121.948 120.832C122.716 120.08 123.1 119.024 123.1 117.664V114.904C122.668 115.672 122.028 116.312 121.18 116.824C120.332 117.336 119.34 117.592 118.204 117.592C117.036 117.592 115.972 117.304 115.012 116.728C114.068 116.152 113.324 115.344 112.78 114.304C112.236 113.264 111.964 112.08 111.964 110.752C111.964 109.408 112.236 108.232 112.78 107.224C113.324 106.2 114.068 105.408 115.012 104.848C115.972 104.288 117.036 104.008 118.204 104.008ZM123.1 110.776C123.1 109.784 122.9 108.92 122.5 108.184C122.1 107.448 121.556 106.888 120.868 106.504C120.196 106.104 119.452 105.904 118.636 105.904C117.82 105.904 117.076 106.096 116.404 106.48C115.732 106.864 115.196 107.424 114.796 108.16C114.396 108.896 114.196 109.76 114.196 110.752C114.196 111.76 114.396 112.64 114.796 113.392C115.196 114.128 115.732 114.696 116.404 115.096C117.076 115.48 117.82 115.672 118.636 115.672C119.452 115.672 120.196 115.48 120.868 115.096C121.556 114.696 122.1 114.128 122.5 113.392C122.9 112.64 123.1 111.768 123.1 110.776ZM140.326 104.224L132.406 123.568H130.15L132.742 117.232L127.438 104.224H129.862L133.99 114.88L138.07 104.224H140.326Z" fill="#FDFDFD"/>
</svg>
