<svg width="180" height="180" viewBox="0 0 180 180" fill="none" xmlns="http://www.w3.org/2000/svg">
<ellipse cx="90.0008" cy="90.0004" rx="82.2582" ry="82.2582" fill="#111111"/>
<path d="M180 90C180 113.869 170.518 136.761 153.64 153.64C136.761 170.518 113.869 180 90 180C66.1305 180 43.2387 170.518 26.3604 153.64C9.48212 136.761 3.60419e-06 113.869 0 90H9C9 111.483 17.5339 132.085 32.7244 147.276C47.9148 162.466 68.5175 171 90 171C111.483 171 132.085 162.466 147.276 147.276C162.466 132.085 171 111.483 171 90H180Z" fill="#F8E643"/>
<path d="M75.9765 70.3759C75.9765 67.6239 76.5045 65.4559 77.5605 63.8719C78.6325 62.2879 80.3525 61.4959 82.7205 61.4959C85.0885 61.4959 86.8005 62.2879 87.8565 63.8719C88.9285 65.4559 89.4645 67.6239 89.4645 70.3759C89.4645 73.1599 88.9285 75.3439 87.8565 76.9279C86.8005 78.5119 85.0885 79.3039 82.7205 79.3039C80.3525 79.3039 78.6325 78.5119 77.5605 76.9279C76.5045 75.3439 75.9765 73.1599 75.9765 70.3759ZM85.4325 70.3759C85.4325 68.7599 85.2565 67.5199 84.9045 66.6559C84.5525 65.7759 83.8245 65.3359 82.7205 65.3359C81.6165 65.3359 80.8885 65.7759 80.5365 66.6559C80.1845 67.5199 80.0085 68.7599 80.0085 70.3759C80.0085 71.4639 80.0725 72.3679 80.2005 73.0879C80.3285 73.7919 80.5845 74.3679 80.9685 74.8159C81.3685 75.2479 81.9525 75.4639 82.7205 75.4639C83.4885 75.4639 84.0645 75.2479 84.4485 74.8159C84.8485 74.3679 85.1125 73.7919 85.2405 73.0879C85.3685 72.3679 85.4325 71.4639 85.4325 70.3759ZM91.7767 66.7999C91.8407 65.0879 92.4007 63.7679 93.4567 62.8399C94.5127 61.9119 95.9447 61.4479 97.7527 61.4479C98.9527 61.4479 99.9767 61.6559 100.825 62.0719C101.689 62.4879 102.337 63.0559 102.769 63.7759C103.217 64.4959 103.441 65.3039 103.441 66.1999C103.441 67.2559 103.177 68.1199 102.649 68.7919C102.121 69.4479 101.505 69.8959 100.801 70.1359V70.2319C101.713 70.5359 102.433 71.0399 102.961 71.7439C103.489 72.4479 103.753 73.3519 103.753 74.4559C103.753 75.4479 103.521 76.3279 103.057 77.0959C102.609 77.8479 101.945 78.4399 101.065 78.8719C100.201 79.3039 99.1687 79.5199 97.9687 79.5199C96.0487 79.5199 94.5127 79.0479 93.3607 78.1039C92.2247 77.1599 91.6247 75.7359 91.5607 73.8319H95.5447C95.5607 74.5359 95.7607 75.0959 96.1447 75.5119C96.5287 75.9119 97.0887 76.1119 97.8247 76.1119C98.4487 76.1119 98.9287 75.9359 99.2647 75.5839C99.6167 75.2159 99.7927 74.7359 99.7927 74.1439C99.7927 73.3759 99.5447 72.8239 99.0487 72.4879C98.5687 72.1359 97.7927 71.9599 96.7207 71.9599H95.9527V68.6239H96.7207C97.5367 68.6239 98.1927 68.4879 98.6887 68.2159C99.2007 67.9279 99.4567 67.4239 99.4567 66.7039C99.4567 66.1279 99.2967 65.6799 98.9767 65.3599C98.6567 65.0399 98.2167 64.8799 97.6567 64.8799C97.0487 64.8799 96.5927 65.0639 96.2887 65.4319C96.0007 65.7999 95.8327 66.2559 95.7847 66.7999H91.7767Z" fill="#F8E643"/>
<path d="M49.9129 109C49.9129 107.368 50.2809 105.904 51.0169 104.608C51.7529 103.296 52.7529 102.272 54.0169 101.536C55.2969 100.8 56.7129 100.432 58.2649 100.432C60.0889 100.432 61.6809 100.872 63.0409 101.752C64.4009 102.632 65.3929 103.88 66.0169 105.496H63.4009C62.9369 104.488 62.2649 103.712 61.3849 103.168C60.5209 102.624 59.4809 102.352 58.2649 102.352C57.0969 102.352 56.0489 102.624 55.1209 103.168C54.1929 103.712 53.4649 104.488 52.9369 105.496C52.4089 106.488 52.1449 107.656 52.1449 109C52.1449 110.328 52.4089 111.496 52.9369 112.504C53.4649 113.496 54.1929 114.264 55.1209 114.808C56.0489 115.352 57.0969 115.624 58.2649 115.624C59.4809 115.624 60.5209 115.36 61.3849 114.832C62.2649 114.288 62.9369 113.512 63.4009 112.504H66.0169C65.3929 114.104 64.4009 115.344 63.0409 116.224C61.6809 117.088 60.0889 117.52 58.2649 117.52C56.7129 117.52 55.2969 117.16 54.0169 116.44C52.7529 115.704 51.7529 114.688 51.0169 113.392C50.2809 112.096 49.9129 110.632 49.9129 109ZM71.4519 106.36C71.8359 105.608 72.3799 105.024 73.0839 104.608C73.8039 104.192 74.6759 103.984 75.6999 103.984V106.24H75.1239C72.6759 106.24 71.4519 107.568 71.4519 110.224V117.376H69.2679V104.224H71.4519V106.36ZM90.221 110.296C90.221 110.712 90.197 111.152 90.149 111.616H79.637C79.717 112.912 80.157 113.928 80.957 114.664C81.773 115.384 82.757 115.744 83.909 115.744C84.853 115.744 85.637 115.528 86.261 115.096C86.901 114.648 87.349 114.056 87.605 113.32H89.957C89.605 114.584 88.901 115.616 87.845 116.416C86.789 117.2 85.477 117.592 83.909 117.592C82.661 117.592 81.541 117.312 80.549 116.752C79.573 116.192 78.805 115.4 78.245 114.376C77.685 113.336 77.405 112.136 77.405 110.776C77.405 109.416 77.677 108.224 78.221 107.2C78.765 106.176 79.525 105.392 80.501 104.848C81.493 104.288 82.629 104.008 83.909 104.008C85.157 104.008 86.261 104.28 87.221 104.824C88.181 105.368 88.917 106.12 89.429 107.08C89.957 108.024 90.221 109.096 90.221 110.296ZM87.965 109.84C87.965 109.008 87.781 108.296 87.413 107.704C87.045 107.096 86.541 106.64 85.901 106.336C85.277 106.016 84.581 105.856 83.813 105.856C82.709 105.856 81.765 106.208 80.981 106.912C80.213 107.616 79.773 108.592 79.661 109.84H87.965ZM92.2879 110.752C92.2879 109.408 92.5599 108.232 93.1039 107.224C93.6479 106.2 94.3919 105.408 95.3359 104.848C96.2959 104.288 97.3599 104.008 98.5279 104.008C99.6799 104.008 100.68 104.256 101.528 104.752C102.376 105.248 103.008 105.872 103.424 106.624V104.224H105.632V117.376H103.424V114.928C102.992 115.696 102.344 116.336 101.48 116.848C100.632 117.344 99.6399 117.592 98.5039 117.592C97.3359 117.592 96.2799 117.304 95.3359 116.728C94.3919 116.152 93.6479 115.344 93.1039 114.304C92.5599 113.264 92.2879 112.08 92.2879 110.752ZM103.424 110.776C103.424 109.784 103.224 108.92 102.824 108.184C102.424 107.448 101.88 106.888 101.192 106.504C100.52 106.104 99.7759 105.904 98.9599 105.904C98.1439 105.904 97.3999 106.096 96.7279 106.48C96.0559 106.864 95.5199 107.424 95.1199 108.16C94.7199 108.896 94.5199 109.76 94.5199 110.752C94.5199 111.76 94.7199 112.64 95.1199 113.392C95.5199 114.128 96.0559 114.696 96.7279 115.096C97.3999 115.48 98.1439 115.672 98.9599 115.672C99.7759 115.672 100.52 115.48 101.192 115.096C101.88 114.696 102.424 114.128 102.824 113.392C103.224 112.64 103.424 111.768 103.424 110.776ZM111.987 106.024V113.776C111.987 114.416 112.123 114.872 112.395 115.144C112.667 115.4 113.139 115.528 113.811 115.528H115.419V117.376H113.451C112.235 117.376 111.323 117.096 110.715 116.536C110.107 115.976 109.803 115.056 109.803 113.776V106.024H108.099V104.224H109.803V100.912H111.987V104.224H115.419V106.024H111.987ZM130.065 110.296C130.065 110.712 130.041 111.152 129.993 111.616H119.481C119.561 112.912 120.001 113.928 120.801 114.664C121.617 115.384 122.601 115.744 123.753 115.744C124.697 115.744 125.481 115.528 126.105 115.096C126.745 114.648 127.193 114.056 127.449 113.32H129.801C129.449 114.584 128.745 115.616 127.689 116.416C126.633 117.2 125.321 117.592 123.753 117.592C122.505 117.592 121.385 117.312 120.393 116.752C119.417 116.192 118.649 115.4 118.089 114.376C117.529 113.336 117.249 112.136 117.249 110.776C117.249 109.416 117.521 108.224 118.065 107.2C118.609 106.176 119.369 105.392 120.345 104.848C121.337 104.288 122.473 104.008 123.753 104.008C125.001 104.008 126.105 104.28 127.065 104.824C128.025 105.368 128.761 106.12 129.273 107.08C129.801 108.024 130.065 109.096 130.065 110.296ZM127.809 109.84C127.809 109.008 127.625 108.296 127.257 107.704C126.889 107.096 126.385 106.64 125.745 106.336C125.121 106.016 124.425 105.856 123.657 105.856C122.553 105.856 121.609 106.208 120.825 106.912C120.057 107.616 119.617 108.592 119.505 109.84H127.809Z" fill="#FDFDFD"/>
</svg>
