<svg width="180" height="180" viewBox="0 0 180 180" fill="none" xmlns="http://www.w3.org/2000/svg">
<ellipse cx="90.0008" cy="90.0004" rx="82.2582" ry="82.2582" fill="#111111"/>
<path d="M180 90C180 113.869 170.518 136.761 153.64 153.64C136.761 170.518 113.869 180 90 180C66.1305 180 43.2387 170.518 26.3604 153.64C9.48212 136.761 3.60419e-06 113.869 0 90H9C9 111.483 17.5339 132.085 32.7244 147.276C47.9148 162.466 68.5175 171 90 171C111.483 171 132.085 162.466 147.276 147.276C162.466 132.085 171 111.483 171 90H180Z" fill="#F8E643"/>
<path d="M75.121 70.3759C75.121 67.6239 75.649 65.4559 76.705 63.8719C77.777 62.2879 79.497 61.4959 81.865 61.4959C84.233 61.4959 85.945 62.2879 87.001 63.8719C88.073 65.4559 88.609 67.6239 88.609 70.3759C88.609 73.1599 88.073 75.3439 87.001 76.9279C85.945 78.5119 84.233 79.3039 81.865 79.3039C79.497 79.3039 77.777 78.5119 76.705 76.9279C75.649 75.3439 75.121 73.1599 75.121 70.3759ZM84.577 70.3759C84.577 68.7599 84.401 67.5199 84.049 66.6559C83.697 65.7759 82.969 65.3359 81.865 65.3359C80.761 65.3359 80.033 65.7759 79.681 66.6559C79.329 67.5199 79.153 68.7599 79.153 70.3759C79.153 71.4639 79.217 72.3679 79.345 73.0879C79.473 73.7919 79.729 74.3679 80.113 74.8159C80.513 75.2479 81.097 75.4639 81.865 75.4639C82.633 75.4639 83.209 75.2479 83.593 74.8159C83.993 74.3679 84.257 73.7919 84.385 73.0879C84.513 72.3679 84.577 71.4639 84.577 70.3759ZM90.8733 76.2559V72.9439L98.4573 62.0959H103.041V72.7039H105.009V76.2559H103.041V79.3759H98.9373V76.2559H90.8733ZM99.2253 66.6079L95.1933 72.7039H99.2253V66.6079Z" fill="#F8E643"/>
<path d="M67.8961 100.768V117.376H65.7121V104.992L60.1921 117.376H58.6561L53.1121 104.968V117.376H50.9281V100.768H53.2801L59.4241 114.496L65.5681 100.768H67.8961ZM70.784 110.752C70.784 109.408 71.056 108.232 71.6 107.224C72.144 106.2 72.888 105.408 73.832 104.848C74.792 104.288 75.856 104.008 77.024 104.008C78.176 104.008 79.176 104.256 80.024 104.752C80.872 105.248 81.504 105.872 81.92 106.624V104.224H84.128V117.376H81.92V114.928C81.488 115.696 80.84 116.336 79.976 116.848C79.128 117.344 78.136 117.592 77 117.592C75.832 117.592 74.776 117.304 73.832 116.728C72.888 116.152 72.144 115.344 71.6 114.304C71.056 113.264 70.784 112.08 70.784 110.752ZM81.92 110.776C81.92 109.784 81.72 108.92 81.32 108.184C80.92 107.448 80.376 106.888 79.688 106.504C79.016 106.104 78.272 105.904 77.456 105.904C76.64 105.904 75.896 106.096 75.224 106.48C74.552 106.864 74.016 107.424 73.616 108.16C73.216 108.896 73.016 109.76 73.016 110.752C73.016 111.76 73.216 112.64 73.616 113.392C74.016 114.128 74.552 114.696 75.224 115.096C75.896 115.48 76.64 115.672 77.456 115.672C78.272 115.672 79.016 115.48 79.688 115.096C80.376 114.696 80.92 114.128 81.32 113.392C81.72 112.64 81.92 111.768 81.92 110.776ZM90.0027 106.36C90.3867 105.608 90.9307 105.024 91.6347 104.608C92.3547 104.192 93.2267 103.984 94.2507 103.984V106.24H93.6747C91.2267 106.24 90.0027 107.568 90.0027 110.224V117.376H87.8187V104.224H90.0027V106.36ZM104.116 117.376L98.9558 111.568V117.376H96.7718V99.6159H98.9558V110.056L104.02 104.224H107.068L100.876 110.776L107.092 117.376H104.116ZM121.123 110.296C121.123 110.712 121.099 111.152 121.051 111.616H110.539C110.619 112.912 111.059 113.928 111.859 114.664C112.675 115.384 113.659 115.744 114.811 115.744C115.755 115.744 116.539 115.528 117.163 115.096C117.803 114.648 118.251 114.056 118.507 113.32H120.859C120.507 114.584 119.803 115.616 118.747 116.416C117.691 117.2 116.379 117.592 114.811 117.592C113.563 117.592 112.443 117.312 111.451 116.752C110.475 116.192 109.707 115.4 109.147 114.376C108.587 113.336 108.307 112.136 108.307 110.776C108.307 109.416 108.579 108.224 109.123 107.2C109.667 106.176 110.427 105.392 111.403 104.848C112.395 104.288 113.531 104.008 114.811 104.008C116.059 104.008 117.163 104.28 118.123 104.824C119.083 105.368 119.819 106.12 120.331 107.08C120.859 108.024 121.123 109.096 121.123 110.296ZM118.867 109.84C118.867 109.008 118.683 108.296 118.315 107.704C117.947 107.096 117.443 106.64 116.803 106.336C116.179 106.016 115.483 105.856 114.715 105.856C113.611 105.856 112.667 106.208 111.883 106.912C111.115 107.616 110.675 108.592 110.563 109.84H118.867ZM126.67 106.024V113.776C126.67 114.416 126.806 114.872 127.078 115.144C127.35 115.4 127.822 115.528 128.494 115.528H130.102V117.376H128.134C126.918 117.376 126.006 117.096 125.398 116.536C124.79 115.976 124.486 115.056 124.486 113.776V106.024H122.782V104.224H124.486V100.912H126.67V104.224H130.102V106.024H126.67Z" fill="#FDFDFD"/>
</svg>
