<svg width="180" height="180" viewBox="0 0 180 180" fill="none" xmlns="http://www.w3.org/2000/svg">
<ellipse cx="90.0008" cy="90.0004" rx="82.2582" ry="82.2582" fill="#111111"/>
<path d="M180 90C180 113.869 170.518 136.761 153.64 153.64C136.761 170.518 113.869 180 90 180C66.1305 180 43.2387 170.518 26.3604 153.64C9.48212 136.761 3.60419e-06 113.869 0 90H9C9 111.483 17.5339 132.085 32.7244 147.276C47.9148 162.466 68.5175 171 90 171C111.483 171 132.085 162.466 147.276 147.276C162.466 132.085 171 111.483 171 90H180Z" fill="#F8E643"/>
<path d="M78.7304 70.3759C78.7304 67.6239 79.2584 65.4559 80.3144 63.8719C81.3864 62.2879 83.1064 61.4959 85.4744 61.4959C87.8424 61.4959 89.5544 62.2879 90.6104 63.8719C91.6824 65.4559 92.2184 67.6239 92.2184 70.3759C92.2184 73.1599 91.6824 75.3439 90.6104 76.9279C89.5544 78.5119 87.8424 79.3039 85.4744 79.3039C83.1064 79.3039 81.3864 78.5119 80.3144 76.9279C79.2584 75.3439 78.7304 73.1599 78.7304 70.3759ZM88.1864 70.3759C88.1864 68.7599 88.0104 67.5199 87.6584 66.6559C87.3064 65.7759 86.5784 65.3359 85.4744 65.3359C84.3704 65.3359 83.6424 65.7759 83.2904 66.6559C82.9384 67.5199 82.7624 68.7599 82.7624 70.3759C82.7624 71.4639 82.8264 72.3679 82.9544 73.0879C83.0824 73.7919 83.3384 74.3679 83.7224 74.8159C84.1224 75.2479 84.7064 75.4639 85.4744 75.4639C86.2424 75.4639 86.8184 75.2479 87.2024 74.8159C87.6024 74.3679 87.8664 73.7919 87.9944 73.0879C88.1224 72.3679 88.1864 71.4639 88.1864 70.3759ZM93.9546 65.6719V61.8559H100.603V79.3759H96.3306V65.6719H93.9546Z" fill="#F8E643"/>
<path d="M44.6423 117.376L40.6583 110.536H38.0183V117.376H35.8343V100.648H41.2343C42.4983 100.648 43.5623 100.864 44.4263 101.296C45.3063 101.728 45.9623 102.312 46.3943 103.048C46.8263 103.784 47.0423 104.624 47.0423 105.568C47.0423 106.72 46.7063 107.736 46.0343 108.616C45.3783 109.496 44.3863 110.08 43.0583 110.368L47.2583 117.376H44.6423ZM38.0183 108.784H41.2343C42.4183 108.784 43.3063 108.496 43.8983 107.92C44.4903 107.328 44.7863 106.544 44.7863 105.568C44.7863 104.576 44.4903 103.808 43.8983 103.264C43.3223 102.72 42.4343 102.448 41.2343 102.448H38.0183V108.784ZM62.4359 110.296C62.4359 110.712 62.4119 111.152 62.3639 111.616H51.8519C51.9319 112.912 52.3719 113.928 53.1719 114.664C53.9879 115.384 54.9719 115.744 56.1239 115.744C57.0679 115.744 57.8519 115.528 58.4759 115.096C59.1159 114.648 59.5639 114.056 59.8199 113.32H62.1719C61.8199 114.584 61.1159 115.616 60.0599 116.416C59.0039 117.2 57.6919 117.592 56.1239 117.592C54.8759 117.592 53.7559 117.312 52.7639 116.752C51.7879 116.192 51.0199 115.4 50.4599 114.376C49.8999 113.336 49.6199 112.136 49.6199 110.776C49.6199 109.416 49.8919 108.224 50.4359 107.2C50.9799 106.176 51.7399 105.392 52.7159 104.848C53.7079 104.288 54.8439 104.008 56.1239 104.008C57.3719 104.008 58.4759 104.28 59.4359 104.824C60.3959 105.368 61.1319 106.12 61.6439 107.08C62.1719 108.024 62.4359 109.096 62.4359 110.296ZM60.1799 109.84C60.1799 109.008 59.9959 108.296 59.6279 107.704C59.2599 107.096 58.7559 106.64 58.1159 106.336C57.4919 106.016 56.7959 105.856 56.0279 105.856C54.9239 105.856 53.9799 106.208 53.1959 106.912C52.4279 107.616 51.9879 108.592 51.8759 109.84H60.1799ZM69.9747 117.592C68.9667 117.592 68.0627 117.424 67.2627 117.088C66.4627 116.736 65.8307 116.256 65.3667 115.648C64.9027 115.024 64.6467 114.312 64.5987 113.512H66.8547C66.9187 114.168 67.2227 114.704 67.7667 115.12C68.3267 115.536 69.0547 115.744 69.9507 115.744C70.7827 115.744 71.4387 115.56 71.9187 115.192C72.3987 114.824 72.6387 114.36 72.6387 113.8C72.6387 113.224 72.3827 112.8 71.8707 112.528C71.3587 112.24 70.5667 111.96 69.4947 111.688C68.5187 111.432 67.7187 111.176 67.0947 110.92C66.4867 110.648 65.9587 110.256 65.5107 109.744C65.0787 109.216 64.8627 108.528 64.8627 107.68C64.8627 107.008 65.0627 106.392 65.4627 105.832C65.8627 105.272 66.4307 104.832 67.1667 104.512C67.9027 104.176 68.7427 104.008 69.6867 104.008C71.1427 104.008 72.3187 104.376 73.2147 105.112C74.1107 105.848 74.5907 106.856 74.6547 108.136H72.4707C72.4227 107.448 72.1427 106.896 71.6307 106.48C71.1347 106.064 70.4627 105.856 69.6147 105.856C68.8307 105.856 68.2067 106.024 67.7427 106.36C67.2787 106.696 67.0467 107.136 67.0467 107.68C67.0467 108.112 67.1827 108.472 67.4547 108.76C67.7427 109.032 68.0947 109.256 68.5107 109.432C68.9427 109.592 69.5347 109.776 70.2867 109.984C71.2307 110.24 71.9987 110.496 72.5907 110.752C73.1827 110.992 73.6867 111.36 74.1027 111.856C74.5347 112.352 74.7587 113 74.7747 113.8C74.7747 114.52 74.5747 115.168 74.1747 115.744C73.7747 116.32 73.2067 116.776 72.4707 117.112C71.7507 117.432 70.9187 117.592 69.9747 117.592ZM89.8578 110.296C89.8578 110.712 89.8338 111.152 89.7858 111.616H79.2738C79.3538 112.912 79.7938 113.928 80.5938 114.664C81.4098 115.384 82.3938 115.744 83.5458 115.744C84.4898 115.744 85.2738 115.528 85.8978 115.096C86.5378 114.648 86.9858 114.056 87.2418 113.32H89.5938C89.2418 114.584 88.5378 115.616 87.4818 116.416C86.4258 117.2 85.1138 117.592 83.5458 117.592C82.2978 117.592 81.1778 117.312 80.1858 116.752C79.2098 116.192 78.4418 115.4 77.8818 114.376C77.3218 113.336 77.0418 112.136 77.0418 110.776C77.0418 109.416 77.3138 108.224 77.8578 107.2C78.4018 106.176 79.1618 105.392 80.1378 104.848C81.1298 104.288 82.2658 104.008 83.5458 104.008C84.7938 104.008 85.8978 104.28 86.8578 104.824C87.8178 105.368 88.5538 106.12 89.0658 107.08C89.5938 108.024 89.8578 109.096 89.8578 110.296ZM87.6018 109.84C87.6018 109.008 87.4178 108.296 87.0498 107.704C86.6818 107.096 86.1778 106.64 85.5378 106.336C84.9138 106.016 84.2178 105.856 83.4498 105.856C82.3458 105.856 81.4018 106.208 80.6178 106.912C79.8498 107.616 79.4098 108.592 79.2978 109.84H87.6018ZM91.9246 110.752C91.9246 109.408 92.1966 108.232 92.7406 107.224C93.2846 106.2 94.0286 105.408 94.9726 104.848C95.9326 104.288 96.9966 104.008 98.1646 104.008C99.3166 104.008 100.317 104.256 101.165 104.752C102.013 105.248 102.645 105.872 103.061 106.624V104.224H105.269V117.376H103.061V114.928C102.629 115.696 101.981 116.336 101.117 116.848C100.269 117.344 99.2766 117.592 98.1406 117.592C96.9726 117.592 95.9166 117.304 94.9726 116.728C94.0286 116.152 93.2846 115.344 92.7406 114.304C92.1966 113.264 91.9246 112.08 91.9246 110.752ZM103.061 110.776C103.061 109.784 102.861 108.92 102.461 108.184C102.061 107.448 101.517 106.888 100.829 106.504C100.157 106.104 99.4126 105.904 98.5966 105.904C97.7806 105.904 97.0366 106.096 96.3646 106.48C95.6926 106.864 95.1566 107.424 94.7566 108.16C94.3566 108.896 94.1566 109.76 94.1566 110.752C94.1566 111.76 94.3566 112.64 94.7566 113.392C95.1566 114.128 95.6926 114.696 96.3646 115.096C97.0366 115.48 97.7806 115.672 98.5966 115.672C99.4126 115.672 100.157 115.48 100.829 115.096C101.517 114.696 102.061 114.128 102.461 113.392C102.861 112.64 103.061 111.768 103.061 110.776ZM111.143 106.36C111.527 105.608 112.071 105.024 112.775 104.608C113.495 104.192 114.367 103.984 115.391 103.984V106.24H114.815C112.367 106.24 111.143 107.568 111.143 110.224V117.376H108.959V104.224H111.143V106.36ZM117.096 110.776C117.096 109.416 117.368 108.232 117.912 107.224C118.456 106.2 119.208 105.408 120.168 104.848C121.144 104.288 122.256 104.008 123.504 104.008C125.12 104.008 126.448 104.4 127.488 105.184C128.544 105.968 129.24 107.056 129.576 108.448H127.224C127 107.648 126.56 107.016 125.904 106.552C125.264 106.088 124.464 105.856 123.504 105.856C122.256 105.856 121.248 106.288 120.48 107.152C119.712 108 119.328 109.208 119.328 110.776C119.328 112.36 119.712 113.584 120.48 114.448C121.248 115.312 122.256 115.744 123.504 115.744C124.464 115.744 125.264 115.52 125.904 115.072C126.544 114.624 126.984 113.984 127.224 113.152H129.576C129.224 114.496 128.52 115.576 127.464 116.392C126.408 117.192 125.088 117.592 123.504 117.592C122.256 117.592 121.144 117.312 120.168 116.752C119.208 116.192 118.456 115.4 117.912 114.376C117.368 113.352 117.096 112.152 117.096 110.776ZM139.019 103.984C140.011 103.984 140.907 104.2 141.707 104.632C142.507 105.048 143.131 105.68 143.579 106.528C144.043 107.376 144.275 108.408 144.275 109.624V117.376H142.115V109.936C142.115 108.624 141.787 107.624 141.131 106.936C140.475 106.232 139.579 105.88 138.443 105.88C137.291 105.88 136.371 106.24 135.683 106.96C135.011 107.68 134.675 108.728 134.675 110.104V117.376H132.491V99.6159H134.675V106.096C135.107 105.424 135.699 104.904 136.451 104.536C137.219 104.168 138.075 103.984 139.019 103.984Z" fill="#FDFDFD"/>
</svg>
