<svg width="120" height="120" viewBox="0 0 120 120" fill="none" xmlns="http://www.w3.org/2000/svg">
<path fill-rule="evenodd" clip-rule="evenodd" d="M48.8504 7.47327C40.6408 7.47327 33.9857 13.9172 33.9857 21.8661V31.8304H59.7131V34.5982H22.5513C14.3417 34.5982 7.68652 41.0421 7.68652 48.9911L7.68653 70.5803C7.68653 78.5293 14.3417 84.9732 22.5513 84.9732H31.1271V72.7946C31.1271 64.8457 37.7822 58.4018 45.9918 58.4018H73.4344C80.3809 58.4018 86.0122 52.9492 86.0122 46.2232V21.8661C86.0122 13.9172 79.3571 7.47327 71.1475 7.47327H48.8504ZM45.4201 25.1875C48.2618 25.1875 50.5656 22.9569 50.5656 20.2054C50.5656 17.4538 48.2618 15.2233 45.4201 15.2233C42.5783 15.2233 40.2746 17.4538 40.2746 20.2054C40.2746 22.9569 42.5783 25.1875 45.4201 25.1875Z" fill="url(#paint0_linear_1155_93340)"/>
<path fill-rule="evenodd" clip-rule="evenodd" d="M71.1482 112.098C79.3577 112.098 86.0129 105.654 86.0129 97.7053V87.7411L60.2855 87.7411L60.2855 84.9732L97.4473 84.9732C105.657 84.9732 112.312 78.5293 112.312 70.5804V48.9911C112.312 41.0422 105.657 34.5983 97.4473 34.5983L88.8715 34.5983V46.7769C88.8715 54.7258 82.2163 61.1697 74.0068 61.1697L46.5642 61.1697C39.6176 61.1697 33.9863 66.6222 33.9863 73.3482L33.9863 97.7053C33.9863 105.654 40.6415 112.098 48.8511 112.098H71.1482ZM74.5785 94.3839C71.7367 94.3839 69.433 96.6145 69.433 99.3661C69.433 102.118 71.7367 104.348 74.5785 104.348C77.4202 104.348 79.724 102.118 79.724 99.3661C79.724 96.6145 77.4202 94.3839 74.5785 94.3839Z" fill="url(#paint1_linear_1155_93340)"/>
<defs>
<linearGradient id="paint0_linear_1155_93340" x1="46.8494" y1="7.47327" x2="46.8494" y2="84.9732" gradientUnits="userSpaceOnUse">
<stop stop-color="#327EBD"/>
<stop offset="1" stop-color="#1565A7"/>
</linearGradient>
<linearGradient id="paint1_linear_1155_93340" x1="73.1492" y1="34.5983" x2="73.1492" y2="112.098" gradientUnits="userSpaceOnUse">
<stop stop-color="#FFDA4B"/>
<stop offset="1" stop-color="#F9C600"/>
</linearGradient>
</defs>
</svg>
