<svg width="120" height="120" viewBox="0 0 120 120" fill="none" xmlns="http://www.w3.org/2000/svg">
<circle cx="59.8574" cy="59.7857" r="52.3125" fill="#8892BF"/>
<path d="M54.0244 37.366H60.302L58.5279 46.798H64.1687C67.2621 46.8642 69.5666 47.5555 71.0833 48.8721C72.6299 50.1886 73.0848 52.6913 72.448 56.3782L69.4001 72.8225H63.0315L65.9429 57.1189C66.2458 55.4725 66.1549 54.3041 65.6699 53.6128C65.185 52.9214 64.1387 52.5758 62.5311 52.5758L57.4816 52.5264L53.7514 72.8225H47.4738L54.0244 37.366Z" fill="white"/>
<path fill-rule="evenodd" clip-rule="evenodd" d="M25.259 46.7982H37.4504C41.0287 46.8308 43.6217 47.9508 45.2293 50.1562C46.8369 52.3616 47.3673 55.3739 46.8215 59.1932C46.6095 60.9383 46.1391 62.6499 45.4113 64.3289C44.7134 66.0079 43.7436 67.522 42.4999 68.8721C40.9832 70.5837 39.361 71.6701 37.6324 72.1313C35.9038 72.5925 34.1142 72.8226 32.2645 72.8226H26.8057L25.0771 82.2053H18.7539L25.259 46.7982ZM27.852 67.2424L30.5723 52.4772H31.4912C31.8251 52.4772 32.1736 52.4604 32.5375 52.4278C34.9639 52.3952 36.9801 52.6421 38.5877 53.1685C40.2254 53.695 40.7712 55.687 40.2254 59.1438C39.5584 63.2593 38.2538 65.6622 36.3132 66.3536C34.3725 67.0123 31.9461 67.3244 29.0347 67.2918H28.3979C28.2159 67.2918 28.0339 67.2751 27.852 67.2424Z" fill="white"/>
<path fill-rule="evenodd" clip-rule="evenodd" d="M91.3805 46.7982H79.1891L72.684 82.2053H79.0072L80.7358 72.8226H86.1946C88.0443 72.8226 89.8339 72.5925 91.5625 72.1313C93.2911 71.6701 94.9133 70.5837 96.43 68.8721C97.6737 67.522 98.6435 66.0079 99.3414 64.3289C100.069 62.6499 100.54 60.9383 100.752 59.1932C101.297 55.3739 100.767 52.3616 99.1594 50.1562C97.5518 47.9508 94.9588 46.8308 91.3805 46.7982ZM84.5024 52.4772L81.7821 67.2424C81.9641 67.2751 82.146 67.2918 82.328 67.2918H82.9648C85.8762 67.3244 88.3027 67.0123 90.2433 66.3536C92.1839 65.6622 93.4885 63.2593 94.1555 59.1438C94.7013 55.687 94.1555 53.695 92.5178 53.1685C90.9102 52.6421 88.894 52.3952 86.4676 52.4278C86.1037 52.4604 85.7552 52.4772 85.4213 52.4772H84.5024Z" fill="white"/>
</svg>
