<svg width="121" height="120" viewBox="0 0 121 120" fill="none" xmlns="http://www.w3.org/2000/svg">
<g clip-path="url(#clip0_1155_93339)">
<path d="M60.6126 31.5393C85.2298 12.4282 72.5956 0 72.5956 0C74.4758 19.7569 52.2548 24.4218 46.2985 37.9981C42.234 47.2623 49.0816 55.374 60.6044 65.5975C59.5857 63.3332 58.0146 61.133 56.4241 58.9055C50.9992 51.3083 45.3478 43.3939 60.6126 31.5393Z" fill="#E76F00"/>
<path d="M64.5426 69.7886C64.5426 69.7886 71.9488 63.8132 66.0836 57.1728C46.2019 34.6453 87.8285 24.4218 87.8285 24.4218C62.4137 36.6654 66.2078 43.9328 72.5957 52.7614C79.4352 62.2285 64.5426 69.7886 64.5426 69.7886Z" fill="#E76F00"/>
<path d="M86.3491 87.6068C109.162 75.9495 98.6142 64.7469 91.252 66.2562C89.4475 66.6255 88.6429 66.9456 88.6429 66.9456C88.6429 66.9456 89.3128 65.9136 90.5923 65.4669C105.157 60.4316 116.358 80.3181 85.8906 88.1943C85.8906 88.1947 86.2435 87.8843 86.3491 87.6068Z" fill="#5382A1"/>
<path d="M38.8793 72.8523C24.6057 70.9779 46.7053 65.8162 46.7053 65.8162C46.7053 65.8162 38.1232 65.2471 27.5681 70.2644C15.0873 76.2011 58.4405 78.9012 80.8822 73.0972C83.2153 71.5306 86.4402 70.1725 86.4402 70.1725C86.4402 70.1725 77.2568 71.7855 68.111 72.5442C56.9201 73.4662 44.906 73.6458 38.8793 72.8523Z" fill="#5382A1"/>
<path d="M44.3097 83.9832C36.3503 83.1736 41.562 79.38 41.562 79.38C20.9658 86.1022 53.0213 93.7252 81.801 85.4496C78.7419 84.389 76.7965 82.4495 76.7965 82.4495C62.7311 85.1128 54.6026 85.0274 44.3097 83.9832Z" fill="#5382A1"/>
<path d="M47.7778 96.0275C39.8243 95.1284 44.4709 92.4711 44.4709 92.4711C25.7746 97.6083 55.843 108.221 79.6465 98.1894C75.7477 96.6985 72.9561 94.9772 72.9561 94.9772C62.3378 96.9535 57.4132 97.1085 47.7778 96.0275Z" fill="#5382A1"/>
<path d="M97.5649 102.154C97.5649 102.154 101.004 104.94 93.7779 107.096C80.0383 111.189 36.592 112.425 24.5229 107.259C20.1843 105.403 28.3203 102.827 30.8796 102.287C33.5487 101.717 35.074 101.823 35.074 101.823C30.2491 98.4811 3.88765 108.386 21.6837 111.223C70.2161 118.963 110.154 107.738 97.5649 102.154Z" fill="#5382A1"/>
<path d="M105.267 108.242C104.471 118.431 70.8447 120.574 48.947 119.195C34.6617 118.294 31.7987 116.043 31.7568 116.01C45.4289 118.227 68.4801 118.63 87.1702 115.172C103.737 112.104 105.267 108.242 105.267 108.242Z" fill="#5382A1"/>
</g>
<defs>
<clipPath id="clip0_1155_93339">
<rect width="119.571" height="119.571" fill="white" transform="translate(0.642578)"/>
</clipPath>
</defs>
</svg>
