<svg width="280" height="120" viewBox="0 0 280 120" fill="none" xmlns="http://www.w3.org/2000/svg">
<rect width="280" height="120" fill="white"/>
<mask id="path-2-outside-1_1630_89830" maskUnits="userSpaceOnUse" x="38" y="33" width="204" height="33" fill="black">
<rect fill="white" x="38" y="33" width="204" height="33"/>
<path d="M47.5537 58V36.1915H44.7614C43.4418 36.1915 42.405 36.5097 41.6509 37.1459C40.9205 37.7821 40.5552 38.8543 40.5552 40.3624H39.6362V37.4993C39.6362 37.0281 39.7187 36.5803 39.8836 36.1562C40.0486 35.7085 40.3431 35.355 40.7673 35.0958C41.215 34.813 41.8395 34.6717 42.6406 34.6717H59.1825V36.1915H51.5478V58H47.5537ZM66.2517 58.3535C64.5551 58.3535 63.0942 57.9764 61.8688 57.2224C60.6435 56.4448 59.701 55.3962 59.0412 54.0766C58.4049 52.757 58.0868 51.296 58.0868 49.6937C58.0868 48.0678 58.4049 46.6068 59.0412 45.3108C59.701 43.9912 60.6435 42.9544 61.8688 42.2004C63.0942 41.4227 64.5551 41.0339 66.2517 41.0339C67.9719 41.0339 69.4447 41.4227 70.67 42.2004C71.8953 42.9544 72.8261 43.9912 73.4623 45.3108C74.1221 46.6068 74.452 48.0678 74.452 49.6937C74.452 51.296 74.1221 52.757 73.4623 54.0766C72.8261 55.3962 71.8953 56.4448 70.67 57.2224C69.4447 57.9764 67.9719 58.3535 66.2517 58.3535ZM66.2517 56.8336C67.1236 56.8336 67.8541 56.5273 68.4432 55.9146C69.0323 55.2784 69.48 54.4183 69.7863 53.3343C70.1162 52.2504 70.2812 51.0368 70.2812 49.6937C70.2812 48.327 70.1162 47.1134 69.7863 46.0531C69.48 44.9691 69.0323 44.1208 68.4432 43.5082C67.8541 42.8719 67.1236 42.5538 66.2517 42.5538C65.427 42.5538 64.7083 42.8719 64.0956 43.5082C63.5065 44.1208 63.047 44.9691 62.7171 46.0531C62.4108 47.1134 62.2576 48.327 62.2576 49.6937C62.2576 51.0368 62.4108 52.2504 62.7171 53.3343C63.047 54.4183 63.5065 55.2784 64.0956 55.9146C64.7083 56.5273 65.427 56.8336 66.2517 56.8336ZM84.3124 58.3535C82.7572 58.3535 81.4612 57.9764 80.4244 57.2224C79.3875 56.4448 78.6099 55.3962 78.0915 54.0766C77.5731 52.757 77.3139 51.296 77.3139 49.6937C77.3139 48.0678 77.5731 46.6068 78.0915 45.3108C78.6335 43.9912 79.4347 42.9544 80.4951 42.2004C81.579 41.4227 82.9339 41.0339 84.5598 41.0339C85.4317 41.0339 86.1975 41.1518 86.8573 41.3874C87.5171 41.5995 88.0827 41.8351 88.5539 42.0943V39.1253C88.5539 38.0649 88.4008 37.2166 88.0944 36.5803C87.8117 35.9206 87.1401 35.5907 86.0797 35.5907H85.5849V34.6717H89.4022C90.227 34.6717 90.8632 34.8013 91.3109 35.0605C91.7822 35.3197 92.1121 35.7674 92.3006 36.4036C92.4891 37.0398 92.5834 37.9471 92.5834 39.1253V58H90.0738L88.8367 56.4094H88.66C88.3301 56.8807 87.8117 57.3284 87.1048 57.7526C86.4214 58.1532 85.4906 58.3535 84.3124 58.3535ZM85.1607 56.8336C85.797 56.8336 86.3271 56.7158 86.7513 56.4801C87.199 56.2445 87.5642 55.9499 87.847 55.5965C88.1298 55.243 88.3654 54.9131 88.5539 54.6068V43.6142C88.1298 43.355 87.6467 43.1193 87.1048 42.9073C86.5628 42.6716 85.9972 42.5538 85.4081 42.5538C84.4656 42.5538 83.6998 42.8719 83.1107 43.5082C82.5451 44.1208 82.1328 44.9691 81.8735 46.0531C81.6379 47.1134 81.5201 48.327 81.5201 49.6937C81.5201 51.0368 81.6379 52.2504 81.8735 53.3343C82.1092 54.4183 82.498 55.2784 83.04 55.9146C83.5819 56.5273 84.2889 56.8336 85.1607 56.8336ZM101.706 58.3535C100.904 58.3535 100.162 58.2474 99.4789 58.0353C98.8191 57.8468 98.23 57.5523 97.7116 57.1517C97.1932 56.7511 96.7808 56.2445 96.4745 55.6318C96.1917 55.0192 96.0503 54.3122 96.0503 53.5111C96.0503 52.3093 96.3802 51.3314 97.04 50.5773C97.6998 49.8233 98.713 49.2695 100.08 48.9161C101.47 48.5391 103.237 48.3506 105.382 48.3506H106.124C106.124 46.8425 105.983 45.676 105.7 44.8513C105.417 44.003 105.005 43.4139 104.463 43.084C103.944 42.7305 103.332 42.5538 102.625 42.5538C101.753 42.5538 100.987 42.7659 100.327 43.19C99.6674 43.5906 99.2079 44.4154 98.9487 45.6643H97.146C97.146 45.0516 97.1814 44.4507 97.2521 43.8616C97.3463 43.2725 97.6055 42.7423 98.0297 42.271C98.4538 41.7998 99.1608 41.4817 100.15 41.3167C101.164 41.1282 102.224 41.0339 103.332 41.0339C104.345 41.0339 105.264 41.1635 106.089 41.4227C106.937 41.6819 107.656 42.0943 108.245 42.6599C108.857 43.2254 109.329 43.9912 109.659 44.9573C109.988 45.8999 110.153 47.0663 110.153 48.4566V58H107.644L106.407 56.4094H106.23C105.9 56.8807 105.358 57.3284 104.604 57.7526C103.85 58.1532 102.884 58.3535 101.706 58.3535ZM102.978 56.6569C103.803 56.6569 104.463 56.4212 104.957 55.9499C105.476 55.4551 105.865 54.9485 106.124 54.4301V49.8704H105.382C103.661 49.8704 102.377 50.1885 101.529 50.8248C100.681 51.4374 100.256 52.3329 100.256 53.5111C100.256 54.5714 100.516 55.3608 101.034 55.8792C101.553 56.3976 102.201 56.6569 102.978 56.6569ZM115.261 65.0692V63.9028C116.439 63.9028 117.428 63.6671 118.23 63.1959C119.031 62.7246 119.702 61.782 120.244 60.3682L120.951 58.4242L114.872 44.5685C114.518 43.6967 114.035 43.0369 113.423 42.5892C112.833 42.1179 112.138 41.8351 111.337 41.7409V41.0339H114.412C115.473 41.0339 116.38 41.2931 117.134 41.8115C117.912 42.3064 118.489 42.9897 118.866 43.8616L122.931 53.1223L127.278 41.3874H129.116L122.082 60.2975C121.611 61.5699 121.104 62.5478 120.562 63.2312C120.02 63.9381 119.42 64.4212 118.76 64.6804C118.1 64.9396 117.358 65.0692 116.533 65.0692H115.261ZM148.194 58.7069C146.238 58.7069 144.659 58.4595 143.458 57.9647C142.256 57.4462 141.372 56.7747 140.807 55.9499C140.265 55.1016 139.994 54.1709 139.994 53.1576C139.994 52.1208 140.241 51.2136 140.736 50.436C141.231 49.6348 141.891 48.9161 142.715 48.2799C143.54 47.6436 144.424 47.0428 145.366 46.4772C145.083 46.218 144.73 45.8646 144.306 45.4168C143.882 44.9691 143.458 44.4389 143.033 43.8263C142.609 43.19 142.256 42.5067 141.973 41.7762C141.69 41.0457 141.549 40.2799 141.549 39.4787C141.549 37.7585 142.15 36.4154 143.351 35.4493C144.577 34.4596 146.238 33.9647 148.335 33.9647C150.362 33.9647 151.905 34.436 152.966 35.3786C154.05 36.2976 154.592 37.4758 154.592 38.9132C154.592 39.9264 154.344 40.8572 153.849 41.7055C153.354 42.5302 152.695 43.2961 151.87 44.003C151.069 44.6864 150.197 45.3461 149.254 45.9824L156.005 53.3343C156.453 52.8395 156.865 52.3329 157.242 51.8145C157.619 51.296 157.949 50.8366 158.232 50.436C158.397 50.1768 158.55 49.9411 158.692 49.729C158.833 49.4934 158.963 49.2578 159.08 49.0221L160.141 49.729C160.047 49.9647 159.929 50.2121 159.787 50.4713C159.67 50.7305 159.528 50.9897 159.363 51.2489C159.104 51.6966 158.774 52.2033 158.374 52.7688C157.997 53.3108 157.549 53.8645 157.03 54.4301L160.318 58H155.899L154.521 56.5862C154.309 56.7511 153.908 57.0103 153.319 57.3638C152.73 57.6937 151.999 58 151.128 58.2828C150.256 58.5655 149.278 58.7069 148.194 58.7069ZM148.653 57.3638C149.69 57.3638 150.621 57.187 151.446 56.8336C152.294 56.4566 153.013 56.0206 153.602 55.5258L146.639 47.9971C145.932 48.6098 145.331 49.3167 144.836 50.1179C144.341 50.8955 144.094 51.7909 144.094 52.8041C144.094 54.2415 144.471 55.3608 145.225 56.162C145.979 56.9632 147.122 57.3638 148.653 57.3638ZM148.017 44.6039C148.818 43.897 149.49 43.1193 150.032 42.271C150.574 41.4227 150.845 40.4213 150.845 39.2666C150.845 38.277 150.715 37.4993 150.456 36.9338C150.197 36.3447 149.867 35.9323 149.466 35.6967C149.089 35.4375 148.712 35.3079 148.335 35.3079C147.84 35.3079 147.381 35.4375 146.957 35.6967C146.556 35.9559 146.238 36.3918 146.002 37.0045C145.767 37.5936 145.649 38.4183 145.649 39.4787C145.649 40.1385 145.743 40.7512 145.932 41.3167C146.12 41.8822 146.344 42.3889 146.603 42.8366C146.863 43.2843 147.122 43.6613 147.381 43.9677C147.64 44.2504 147.852 44.4625 148.017 44.6039ZM178.306 58V36.1915H175.514C174.194 36.1915 173.157 36.5097 172.403 37.1459C171.673 37.7821 171.308 38.8543 171.308 40.3624H170.389V37.4993C170.389 37.0281 170.471 36.5803 170.636 36.1562C170.801 35.7085 171.096 35.355 171.52 35.0958C171.967 34.813 172.592 34.6717 173.393 34.6717H189.935V36.1915H182.3V58H178.306ZM197.004 58.3535C195.308 58.3535 193.847 57.9764 192.621 57.2224C191.396 56.4448 190.453 55.3962 189.794 54.0766C189.157 52.757 188.839 51.296 188.839 49.6937C188.839 48.0678 189.157 46.6068 189.794 45.3108C190.453 43.9912 191.396 42.9544 192.621 42.2004C193.847 41.4227 195.308 41.0339 197.004 41.0339C198.724 41.0339 200.197 41.4227 201.422 42.2004C202.648 42.9544 203.579 43.9912 204.215 45.3108C204.875 46.6068 205.204 48.0678 205.204 49.6937C205.204 51.296 204.875 52.757 204.215 54.0766C203.579 55.3962 202.648 56.4448 201.422 57.2224C200.197 57.9764 198.724 58.3535 197.004 58.3535ZM197.004 56.8336C197.876 56.8336 198.607 56.5273 199.196 55.9146C199.785 55.2784 200.232 54.4183 200.539 53.3343C200.869 52.2504 201.034 51.0368 201.034 49.6937C201.034 48.327 200.869 47.1134 200.539 46.0531C200.232 44.9691 199.785 44.1208 199.196 43.5082C198.607 42.8719 197.876 42.5538 197.004 42.5538C196.179 42.5538 195.461 42.8719 194.848 43.5082C194.259 44.1208 193.799 44.9691 193.47 46.0531C193.163 47.1134 193.01 48.327 193.01 49.6937C193.01 51.0368 193.163 52.2504 193.47 53.3343C193.799 54.4183 194.259 55.2784 194.848 55.9146C195.461 56.5273 196.179 56.8336 197.004 56.8336ZM215.454 58.3535C214.181 58.3535 213.062 58.1532 212.096 57.7526C211.153 57.3284 210.423 56.6451 209.904 55.7025C209.386 54.76 209.127 53.4993 209.127 51.9205V45.841C209.127 44.7806 208.974 43.9323 208.667 43.2961C208.384 42.6363 207.713 42.3064 206.653 42.3064H206.299V41.3874H209.975C210.8 41.3874 211.436 41.517 211.884 41.7762C212.355 42.0354 212.685 42.4831 212.873 43.1193C213.062 43.7556 213.156 44.6628 213.156 45.841V51.9205C213.156 53.1223 213.298 54.0766 213.58 54.7835C213.887 55.4904 214.287 55.9971 214.782 56.3034C215.301 56.6097 215.878 56.7629 216.514 56.7629C217.032 56.7629 217.504 56.6569 217.928 56.4448C218.352 56.2091 218.729 55.9264 219.059 55.5965C219.389 55.2666 219.648 54.9485 219.837 54.6421V41.3874H223.866V58H221.356L220.119 56.4801H219.943C219.495 56.9514 218.894 57.3873 218.14 57.7879C217.386 58.1649 216.49 58.3535 215.454 58.3535ZM228.982 58V45.841C228.982 44.7806 228.84 43.9323 228.558 43.2961C228.275 42.6363 227.603 42.3064 226.543 42.3064H226.189V41.3874H229.406C230.231 41.3874 230.867 41.5052 231.315 41.7409C231.786 41.9529 232.139 42.3064 232.375 42.8012C232.799 42.4242 233.388 42.0354 234.142 41.6348C234.896 41.2342 235.792 41.0339 236.829 41.0339C237.276 41.0339 237.7 41.0928 238.101 41.2107C238.525 41.3049 238.879 41.4581 239.161 41.6702C239.515 41.9058 239.786 42.2004 239.974 42.5538C240.163 42.8837 240.304 43.1193 240.399 43.2607L238.737 44.4978C238.502 44.1679 238.16 43.8852 237.712 43.6495C237.265 43.3903 236.746 43.2607 236.157 43.2607C235.427 43.2607 234.779 43.3903 234.213 43.6495C233.671 43.9087 233.235 44.2386 232.905 44.6392C232.929 44.922 232.952 45.193 232.976 45.4522C232.999 45.6878 233.011 45.8881 233.011 46.0531V58H228.982Z"/>
</mask>
<path d="M47.5537 58V36.1915H44.7614C43.4418 36.1915 42.405 36.5097 41.6509 37.1459C40.9205 37.7821 40.5552 38.8543 40.5552 40.3624H39.6362V37.4993C39.6362 37.0281 39.7187 36.5803 39.8836 36.1562C40.0486 35.7085 40.3431 35.355 40.7673 35.0958C41.215 34.813 41.8395 34.6717 42.6406 34.6717H59.1825V36.1915H51.5478V58H47.5537ZM66.2517 58.3535C64.5551 58.3535 63.0942 57.9764 61.8688 57.2224C60.6435 56.4448 59.701 55.3962 59.0412 54.0766C58.4049 52.757 58.0868 51.296 58.0868 49.6937C58.0868 48.0678 58.4049 46.6068 59.0412 45.3108C59.701 43.9912 60.6435 42.9544 61.8688 42.2004C63.0942 41.4227 64.5551 41.0339 66.2517 41.0339C67.9719 41.0339 69.4447 41.4227 70.67 42.2004C71.8953 42.9544 72.8261 43.9912 73.4623 45.3108C74.1221 46.6068 74.452 48.0678 74.452 49.6937C74.452 51.296 74.1221 52.757 73.4623 54.0766C72.8261 55.3962 71.8953 56.4448 70.67 57.2224C69.4447 57.9764 67.9719 58.3535 66.2517 58.3535ZM66.2517 56.8336C67.1236 56.8336 67.8541 56.5273 68.4432 55.9146C69.0323 55.2784 69.48 54.4183 69.7863 53.3343C70.1162 52.2504 70.2812 51.0368 70.2812 49.6937C70.2812 48.327 70.1162 47.1134 69.7863 46.0531C69.48 44.9691 69.0323 44.1208 68.4432 43.5082C67.8541 42.8719 67.1236 42.5538 66.2517 42.5538C65.427 42.5538 64.7083 42.8719 64.0956 43.5082C63.5065 44.1208 63.047 44.9691 62.7171 46.0531C62.4108 47.1134 62.2576 48.327 62.2576 49.6937C62.2576 51.0368 62.4108 52.2504 62.7171 53.3343C63.047 54.4183 63.5065 55.2784 64.0956 55.9146C64.7083 56.5273 65.427 56.8336 66.2517 56.8336ZM84.3124 58.3535C82.7572 58.3535 81.4612 57.9764 80.4244 57.2224C79.3875 56.4448 78.6099 55.3962 78.0915 54.0766C77.5731 52.757 77.3139 51.296 77.3139 49.6937C77.3139 48.0678 77.5731 46.6068 78.0915 45.3108C78.6335 43.9912 79.4347 42.9544 80.4951 42.2004C81.579 41.4227 82.9339 41.0339 84.5598 41.0339C85.4317 41.0339 86.1975 41.1518 86.8573 41.3874C87.5171 41.5995 88.0827 41.8351 88.5539 42.0943V39.1253C88.5539 38.0649 88.4008 37.2166 88.0944 36.5803C87.8117 35.9206 87.1401 35.5907 86.0797 35.5907H85.5849V34.6717H89.4022C90.227 34.6717 90.8632 34.8013 91.3109 35.0605C91.7822 35.3197 92.1121 35.7674 92.3006 36.4036C92.4891 37.0398 92.5834 37.9471 92.5834 39.1253V58H90.0738L88.8367 56.4094H88.66C88.3301 56.8807 87.8117 57.3284 87.1048 57.7526C86.4214 58.1532 85.4906 58.3535 84.3124 58.3535ZM85.1607 56.8336C85.797 56.8336 86.3271 56.7158 86.7513 56.4801C87.199 56.2445 87.5642 55.9499 87.847 55.5965C88.1298 55.243 88.3654 54.9131 88.5539 54.6068V43.6142C88.1298 43.355 87.6467 43.1193 87.1048 42.9073C86.5628 42.6716 85.9972 42.5538 85.4081 42.5538C84.4656 42.5538 83.6998 42.8719 83.1107 43.5082C82.5451 44.1208 82.1328 44.9691 81.8735 46.0531C81.6379 47.1134 81.5201 48.327 81.5201 49.6937C81.5201 51.0368 81.6379 52.2504 81.8735 53.3343C82.1092 54.4183 82.498 55.2784 83.04 55.9146C83.5819 56.5273 84.2889 56.8336 85.1607 56.8336ZM101.706 58.3535C100.904 58.3535 100.162 58.2474 99.4789 58.0353C98.8191 57.8468 98.23 57.5523 97.7116 57.1517C97.1932 56.7511 96.7808 56.2445 96.4745 55.6318C96.1917 55.0192 96.0503 54.3122 96.0503 53.5111C96.0503 52.3093 96.3802 51.3314 97.04 50.5773C97.6998 49.8233 98.713 49.2695 100.08 48.9161C101.47 48.5391 103.237 48.3506 105.382 48.3506H106.124C106.124 46.8425 105.983 45.676 105.7 44.8513C105.417 44.003 105.005 43.4139 104.463 43.084C103.944 42.7305 103.332 42.5538 102.625 42.5538C101.753 42.5538 100.987 42.7659 100.327 43.19C99.6674 43.5906 99.2079 44.4154 98.9487 45.6643H97.146C97.146 45.0516 97.1814 44.4507 97.2521 43.8616C97.3463 43.2725 97.6055 42.7423 98.0297 42.271C98.4538 41.7998 99.1608 41.4817 100.15 41.3167C101.164 41.1282 102.224 41.0339 103.332 41.0339C104.345 41.0339 105.264 41.1635 106.089 41.4227C106.937 41.6819 107.656 42.0943 108.245 42.6599C108.857 43.2254 109.329 43.9912 109.659 44.9573C109.988 45.8999 110.153 47.0663 110.153 48.4566V58H107.644L106.407 56.4094H106.23C105.9 56.8807 105.358 57.3284 104.604 57.7526C103.85 58.1532 102.884 58.3535 101.706 58.3535ZM102.978 56.6569C103.803 56.6569 104.463 56.4212 104.957 55.9499C105.476 55.4551 105.865 54.9485 106.124 54.4301V49.8704H105.382C103.661 49.8704 102.377 50.1885 101.529 50.8248C100.681 51.4374 100.256 52.3329 100.256 53.5111C100.256 54.5714 100.516 55.3608 101.034 55.8792C101.553 56.3976 102.201 56.6569 102.978 56.6569ZM115.261 65.0692V63.9028C116.439 63.9028 117.428 63.6671 118.23 63.1959C119.031 62.7246 119.702 61.782 120.244 60.3682L120.951 58.4242L114.872 44.5685C114.518 43.6967 114.035 43.0369 113.423 42.5892C112.833 42.1179 112.138 41.8351 111.337 41.7409V41.0339H114.412C115.473 41.0339 116.38 41.2931 117.134 41.8115C117.912 42.3064 118.489 42.9897 118.866 43.8616L122.931 53.1223L127.278 41.3874H129.116L122.082 60.2975C121.611 61.5699 121.104 62.5478 120.562 63.2312C120.02 63.9381 119.42 64.4212 118.76 64.6804C118.1 64.9396 117.358 65.0692 116.533 65.0692H115.261ZM148.194 58.7069C146.238 58.7069 144.659 58.4595 143.458 57.9647C142.256 57.4462 141.372 56.7747 140.807 55.9499C140.265 55.1016 139.994 54.1709 139.994 53.1576C139.994 52.1208 140.241 51.2136 140.736 50.436C141.231 49.6348 141.891 48.9161 142.715 48.2799C143.54 47.6436 144.424 47.0428 145.366 46.4772C145.083 46.218 144.73 45.8646 144.306 45.4168C143.882 44.9691 143.458 44.4389 143.033 43.8263C142.609 43.19 142.256 42.5067 141.973 41.7762C141.69 41.0457 141.549 40.2799 141.549 39.4787C141.549 37.7585 142.15 36.4154 143.351 35.4493C144.577 34.4596 146.238 33.9647 148.335 33.9647C150.362 33.9647 151.905 34.436 152.966 35.3786C154.05 36.2976 154.592 37.4758 154.592 38.9132C154.592 39.9264 154.344 40.8572 153.849 41.7055C153.354 42.5302 152.695 43.2961 151.87 44.003C151.069 44.6864 150.197 45.3461 149.254 45.9824L156.005 53.3343C156.453 52.8395 156.865 52.3329 157.242 51.8145C157.619 51.296 157.949 50.8366 158.232 50.436C158.397 50.1768 158.55 49.9411 158.692 49.729C158.833 49.4934 158.963 49.2578 159.08 49.0221L160.141 49.729C160.047 49.9647 159.929 50.2121 159.787 50.4713C159.67 50.7305 159.528 50.9897 159.363 51.2489C159.104 51.6966 158.774 52.2033 158.374 52.7688C157.997 53.3108 157.549 53.8645 157.03 54.4301L160.318 58H155.899L154.521 56.5862C154.309 56.7511 153.908 57.0103 153.319 57.3638C152.73 57.6937 151.999 58 151.128 58.2828C150.256 58.5655 149.278 58.7069 148.194 58.7069ZM148.653 57.3638C149.69 57.3638 150.621 57.187 151.446 56.8336C152.294 56.4566 153.013 56.0206 153.602 55.5258L146.639 47.9971C145.932 48.6098 145.331 49.3167 144.836 50.1179C144.341 50.8955 144.094 51.7909 144.094 52.8041C144.094 54.2415 144.471 55.3608 145.225 56.162C145.979 56.9632 147.122 57.3638 148.653 57.3638ZM148.017 44.6039C148.818 43.897 149.49 43.1193 150.032 42.271C150.574 41.4227 150.845 40.4213 150.845 39.2666C150.845 38.277 150.715 37.4993 150.456 36.9338C150.197 36.3447 149.867 35.9323 149.466 35.6967C149.089 35.4375 148.712 35.3079 148.335 35.3079C147.84 35.3079 147.381 35.4375 146.957 35.6967C146.556 35.9559 146.238 36.3918 146.002 37.0045C145.767 37.5936 145.649 38.4183 145.649 39.4787C145.649 40.1385 145.743 40.7512 145.932 41.3167C146.12 41.8822 146.344 42.3889 146.603 42.8366C146.863 43.2843 147.122 43.6613 147.381 43.9677C147.64 44.2504 147.852 44.4625 148.017 44.6039ZM178.306 58V36.1915H175.514C174.194 36.1915 173.157 36.5097 172.403 37.1459C171.673 37.7821 171.308 38.8543 171.308 40.3624H170.389V37.4993C170.389 37.0281 170.471 36.5803 170.636 36.1562C170.801 35.7085 171.096 35.355 171.52 35.0958C171.967 34.813 172.592 34.6717 173.393 34.6717H189.935V36.1915H182.3V58H178.306ZM197.004 58.3535C195.308 58.3535 193.847 57.9764 192.621 57.2224C191.396 56.4448 190.453 55.3962 189.794 54.0766C189.157 52.757 188.839 51.296 188.839 49.6937C188.839 48.0678 189.157 46.6068 189.794 45.3108C190.453 43.9912 191.396 42.9544 192.621 42.2004C193.847 41.4227 195.308 41.0339 197.004 41.0339C198.724 41.0339 200.197 41.4227 201.422 42.2004C202.648 42.9544 203.579 43.9912 204.215 45.3108C204.875 46.6068 205.204 48.0678 205.204 49.6937C205.204 51.296 204.875 52.757 204.215 54.0766C203.579 55.3962 202.648 56.4448 201.422 57.2224C200.197 57.9764 198.724 58.3535 197.004 58.3535ZM197.004 56.8336C197.876 56.8336 198.607 56.5273 199.196 55.9146C199.785 55.2784 200.232 54.4183 200.539 53.3343C200.869 52.2504 201.034 51.0368 201.034 49.6937C201.034 48.327 200.869 47.1134 200.539 46.0531C200.232 44.9691 199.785 44.1208 199.196 43.5082C198.607 42.8719 197.876 42.5538 197.004 42.5538C196.179 42.5538 195.461 42.8719 194.848 43.5082C194.259 44.1208 193.799 44.9691 193.47 46.0531C193.163 47.1134 193.01 48.327 193.01 49.6937C193.01 51.0368 193.163 52.2504 193.47 53.3343C193.799 54.4183 194.259 55.2784 194.848 55.9146C195.461 56.5273 196.179 56.8336 197.004 56.8336ZM215.454 58.3535C214.181 58.3535 213.062 58.1532 212.096 57.7526C211.153 57.3284 210.423 56.6451 209.904 55.7025C209.386 54.76 209.127 53.4993 209.127 51.9205V45.841C209.127 44.7806 208.974 43.9323 208.667 43.2961C208.384 42.6363 207.713 42.3064 206.653 42.3064H206.299V41.3874H209.975C210.8 41.3874 211.436 41.517 211.884 41.7762C212.355 42.0354 212.685 42.4831 212.873 43.1193C213.062 43.7556 213.156 44.6628 213.156 45.841V51.9205C213.156 53.1223 213.298 54.0766 213.58 54.7835C213.887 55.4904 214.287 55.9971 214.782 56.3034C215.301 56.6097 215.878 56.7629 216.514 56.7629C217.032 56.7629 217.504 56.6569 217.928 56.4448C218.352 56.2091 218.729 55.9264 219.059 55.5965C219.389 55.2666 219.648 54.9485 219.837 54.6421V41.3874H223.866V58H221.356L220.119 56.4801H219.943C219.495 56.9514 218.894 57.3873 218.14 57.7879C217.386 58.1649 216.49 58.3535 215.454 58.3535ZM228.982 58V45.841C228.982 44.7806 228.84 43.9323 228.558 43.2961C228.275 42.6363 227.603 42.3064 226.543 42.3064H226.189V41.3874H229.406C230.231 41.3874 230.867 41.5052 231.315 41.7409C231.786 41.9529 232.139 42.3064 232.375 42.8012C232.799 42.4242 233.388 42.0354 234.142 41.6348C234.896 41.2342 235.792 41.0339 236.829 41.0339C237.276 41.0339 237.7 41.0928 238.101 41.2107C238.525 41.3049 238.879 41.4581 239.161 41.6702C239.515 41.9058 239.786 42.2004 239.974 42.5538C240.163 42.8837 240.304 43.1193 240.399 43.2607L238.737 44.4978C238.502 44.1679 238.16 43.8852 237.712 43.6495C237.265 43.3903 236.746 43.2607 236.157 43.2607C235.427 43.2607 234.779 43.3903 234.213 43.6495C233.671 43.9087 233.235 44.2386 232.905 44.6392C232.929 44.922 232.952 45.193 232.976 45.4522C232.999 45.6878 233.011 45.8881 233.011 46.0531V58H228.982Z" fill="url(#paint0_linear_1630_89830)"/>
<path d="M47.5537 58H46.6701V58.8836H47.5537V58ZM47.5537 36.1915H48.4374V35.3079H47.5537V36.1915ZM41.6509 37.1459L41.081 36.4704L41.0706 36.4795L41.6509 37.1459ZM40.5552 40.3624V41.246H41.4389V40.3624H40.5552ZM39.6362 40.3624H38.7526V41.246H39.6362V40.3624ZM39.8836 36.1562L40.7072 36.4765L40.7101 36.4691L40.7128 36.4617L39.8836 36.1562ZM40.7673 35.0958L41.2281 35.8499L41.2392 35.8429L40.7673 35.0958ZM59.1825 34.6717H60.0662V33.788H59.1825V34.6717ZM59.1825 36.1915V37.0752H60.0662V36.1915H59.1825ZM51.5478 36.1915V35.3079H50.6642V36.1915H51.5478ZM51.5478 58V58.8836H52.4315V58H51.5478ZM48.4374 58V36.1915H46.6701V58H48.4374ZM47.5537 35.3079H44.7614V37.0752H47.5537V35.3079ZM44.7614 35.3079C43.3041 35.3079 42.0415 35.6602 41.0811 36.4705L42.2208 37.8212C42.7685 37.3591 43.5795 37.0752 44.7614 37.0752V35.3079ZM41.0706 36.4795C40.0616 37.3583 39.6716 38.7403 39.6716 40.3624H41.4389C41.4389 38.9682 41.7793 38.2059 42.2313 37.8122L41.0706 36.4795ZM40.5552 39.4787H39.6362V41.246H40.5552V39.4787ZM40.5199 40.3624V37.4993H38.7526V40.3624H40.5199ZM40.5199 37.4993C40.5199 37.1337 40.5834 36.7949 40.7072 36.4765L39.0601 35.8359C38.854 36.3658 38.7526 36.9225 38.7526 37.4993H40.5199ZM40.7128 36.4617C40.8059 36.2089 40.9661 36.0099 41.2281 35.8498L40.3065 34.3418C39.7202 34.7001 39.2913 35.208 39.0545 35.8507L40.7128 36.4617ZM41.2392 35.8429C41.4907 35.684 41.9268 35.5553 42.6406 35.5553V33.788C41.7521 33.788 40.9393 33.9421 40.2954 34.3487L41.2392 35.8429ZM42.6406 35.5553H59.1825V33.788H42.6406V35.5553ZM58.2989 34.6717V36.1915H60.0662V34.6717H58.2989ZM59.1825 35.3079H51.5478V37.0752H59.1825V35.3079ZM50.6642 36.1915V58H52.4315V36.1915H50.6642ZM51.5478 57.1164H47.5537V58.8836H51.5478V57.1164ZM61.8688 57.2224L61.3953 57.9686L61.4057 57.975L61.8688 57.2224ZM59.0412 54.0766L58.2451 54.4604L58.2508 54.4718L59.0412 54.0766ZM59.0412 45.3108L58.2508 44.9156L58.2479 44.9214L59.0412 45.3108ZM61.8688 42.2004L62.332 42.953L62.3423 42.9464L61.8688 42.2004ZM70.67 42.2004L70.1965 42.9465L70.2069 42.9529L70.67 42.2004ZM73.4623 45.3108L72.6664 45.6946L72.6705 45.7032L72.6748 45.7117L73.4623 45.3108ZM73.4623 54.0766L72.6719 53.6814L72.6664 53.6928L73.4623 54.0766ZM70.67 57.2224L71.1331 57.975L71.1435 57.9685L70.67 57.2224ZM68.4432 55.9146L69.0802 56.5271L69.0859 56.5211L69.0916 56.5149L68.4432 55.9146ZM69.7863 53.3343L68.941 53.077L68.9384 53.0855L68.936 53.094L69.7863 53.3343ZM69.7863 46.0531L68.936 46.2934L68.9391 46.3045L68.9426 46.3156L69.7863 46.0531ZM68.4432 43.5082L67.7948 44.1085L67.8005 44.1146L67.8062 44.1206L68.4432 43.5082ZM64.0956 43.5082L63.4591 42.8952L63.4587 42.8957L64.0956 43.5082ZM62.7171 46.0531L61.8717 45.7958L61.8682 45.8078L62.7171 46.0531ZM62.7171 53.3343L61.8668 53.5746L61.8692 53.5832L61.8718 53.5916L62.7171 53.3343ZM64.0956 55.9146L63.4472 56.5149L63.4588 56.5274L63.4708 56.5394L64.0956 55.9146ZM66.2517 57.4698C64.689 57.4698 63.3947 57.1238 62.332 56.4698L61.4057 57.975C62.7936 58.829 64.4213 59.2371 66.2517 59.2371V57.4698ZM62.3423 56.4763C61.2549 55.7862 60.4208 54.8599 59.8315 53.6814L58.2508 54.4718C58.9811 55.9324 60.0321 57.1034 61.3954 57.9685L62.3423 56.4763ZM59.8371 53.6928C59.2639 52.5038 58.9705 51.1758 58.9705 49.6937H57.2032C57.2032 51.4163 57.546 53.0102 58.2452 54.4604L59.8371 53.6928ZM58.9705 49.6937C58.9705 48.1856 59.2648 46.8605 59.8344 45.7002L58.2479 44.9214C57.5451 46.3531 57.2032 47.9499 57.2032 49.6937H58.9705ZM59.8315 45.706C60.4196 44.5297 61.2506 43.6184 62.332 42.9529L61.4057 41.4478C60.0364 42.2904 58.9823 43.4527 58.2508 44.9156L59.8315 45.706ZM62.3423 42.9464C63.4035 42.273 64.694 41.9176 66.2517 41.9176V40.1503C64.4163 40.1503 62.7848 40.5725 61.3954 41.4543L62.3423 42.9464ZM66.2517 41.9176C67.8357 41.9176 69.1372 42.2742 70.1965 42.9464L71.1435 41.4543C69.7521 40.5713 68.1081 40.1503 66.2517 40.1503V41.9176ZM70.2069 42.9529C71.2855 43.6167 72.1021 44.5243 72.6664 45.6946L74.2583 44.927C73.5501 43.4582 72.5051 42.2921 71.1331 41.4478L70.2069 42.9529ZM72.6748 45.7117C73.2643 46.8695 73.5684 48.1905 73.5684 49.6937H75.3357C75.3357 47.9451 74.9799 46.3441 74.2498 44.9099L72.6748 45.7117ZM73.5684 49.6937C73.5684 51.1709 73.2652 52.4949 72.672 53.6814L74.2527 54.4718C74.979 53.0192 75.3357 51.4212 75.3357 49.6937H73.5684ZM72.6664 53.6928C72.101 54.8654 71.2813 55.7879 70.1965 56.4763L71.1435 57.9685C72.5094 57.1017 73.5512 55.927 74.2583 54.4604L72.6664 53.6928ZM70.2069 56.4698C69.1459 57.1227 67.8406 57.4698 66.2517 57.4698V59.2371C68.1032 59.2371 69.7434 58.8302 71.1331 57.975L70.2069 56.4698ZM66.2517 57.7172C67.357 57.7172 68.3197 57.318 69.0802 56.5271L67.8062 55.3021C67.3885 55.7365 66.8902 55.9499 66.2517 55.9499V57.7172ZM69.0916 56.5149C69.7995 55.7504 70.3034 54.7541 70.6367 53.5746L68.936 53.094C68.6566 54.0825 68.2651 54.8064 67.7948 55.3142L69.0916 56.5149ZM70.6317 53.5916C70.9912 52.4105 71.1648 51.1083 71.1648 49.6937H69.3975C69.3975 50.9653 69.2413 52.0903 68.941 53.077L70.6317 53.5916ZM71.1648 49.6937C71.1648 48.2577 70.9917 46.9529 70.6301 45.7906L68.9426 46.3156C69.2408 47.274 69.3975 48.3963 69.3975 49.6937H71.1648ZM70.6367 45.8127C70.3032 44.6329 69.7973 43.6415 69.0802 42.8957L67.8062 44.1206C68.2673 44.6002 68.6568 45.3054 68.936 46.2934L70.6367 45.8127ZM69.0916 42.9078C68.3342 42.0898 67.3682 41.6702 66.2517 41.6702V43.4375C66.879 43.4375 67.374 43.654 67.7948 44.1085L69.0916 42.9078ZM66.2517 41.6702C65.1685 41.6702 64.2252 42.0997 63.4591 42.8952L64.7321 44.1211C65.1914 43.6442 65.6855 43.4375 66.2517 43.4375V41.6702ZM63.4587 42.8957C62.7464 43.6364 62.2293 44.6211 61.8718 45.7958L63.5625 46.3103C63.8648 45.3171 64.2666 44.6052 64.7326 44.1206L63.4587 42.8957ZM61.8682 45.8078C61.5341 46.9642 61.374 48.2629 61.374 49.6937H63.1413C63.1413 48.3911 63.2875 47.2627 63.5661 46.2983L61.8682 45.8078ZM61.374 49.6937C61.374 51.103 61.5346 52.3992 61.8668 53.5746L63.5675 53.094C63.287 52.1016 63.1413 50.9707 63.1413 49.6937H61.374ZM61.8718 53.5916C62.2291 54.7657 62.744 55.7554 63.4472 56.5149L64.744 55.3142C64.2691 54.8013 63.865 54.0709 63.5625 53.077L61.8718 53.5916ZM63.4708 56.5394C64.2399 57.3085 65.1798 57.7172 66.2517 57.7172V55.9499C65.6742 55.9499 65.1767 55.746 64.7205 55.2898L63.4708 56.5394ZM80.4244 57.2224L79.8941 57.9294L79.9046 57.937L80.4244 57.2224ZM78.0915 54.0766L78.914 53.7535V53.7535L78.0915 54.0766ZM78.0915 45.3108L77.2741 44.9751L77.2711 44.9826L78.0915 45.3108ZM80.4951 42.2004L81.0072 42.9205L81.0101 42.9184L80.4951 42.2004ZM86.8573 41.3874L86.5601 42.2196L86.5735 42.2243L86.5869 42.2287L86.8573 41.3874ZM88.5539 42.0943L88.1281 42.8686L89.4376 43.5888V42.0943H88.5539ZM88.0944 36.5803L87.2822 36.9284L87.2899 36.9462L87.2983 36.9637L88.0944 36.5803ZM85.5849 35.5907H84.7012V36.4743H85.5849V35.5907ZM85.5849 34.6717V33.788H84.7012V34.6717H85.5849ZM91.3109 35.0605L90.8682 35.8252L90.8766 35.8301L90.8851 35.8347L91.3109 35.0605ZM92.3006 36.4036L93.1479 36.1526L92.3006 36.4036ZM92.5834 58V58.8836H93.467V58H92.5834ZM90.0738 58L89.3763 58.5425L89.6416 58.8836H90.0738V58ZM88.8367 56.4094L89.5342 55.8669L89.2689 55.5258H88.8367V56.4094ZM88.66 56.4094V55.5258H88.1999L87.9361 55.9027L88.66 56.4094ZM87.1048 57.7526L87.5517 58.5149L87.5594 58.5103L87.1048 57.7526ZM86.7513 56.4801L86.3397 55.6982L86.3309 55.7028L86.3222 55.7077L86.7513 56.4801ZM88.5539 54.6068L89.3065 55.0699L89.4376 54.8569V54.6068H88.5539ZM88.5539 43.6142H89.4376V43.1186L89.0147 42.8602L88.5539 43.6142ZM87.1048 42.9073L86.7524 43.7176L86.7675 43.7242L86.7827 43.7302L87.1048 42.9073ZM83.1107 43.5082L82.4623 42.9078L82.4613 42.9088L83.1107 43.5082ZM81.8735 46.0531L81.0141 45.8475L81.0125 45.8544L81.0109 45.8614L81.8735 46.0531ZM81.8735 53.3343L81.0101 53.522V53.522L81.8735 53.3343ZM83.04 55.9146L82.3673 56.4876L82.3726 56.4939L82.3781 56.5001L83.04 55.9146ZM84.3124 57.4698C82.9033 57.4698 81.8 57.1302 80.9441 56.5078L79.9046 57.937C81.1223 58.8226 82.6111 59.2371 84.3124 59.2371V57.4698ZM80.9546 56.5155C80.0611 55.8454 79.3783 54.9353 78.914 53.7535L77.2691 54.3997C77.8416 55.857 78.714 57.0442 79.8942 57.9293L80.9546 56.5155ZM78.914 53.7535C78.4409 52.5494 78.1976 51.1998 78.1976 49.6937H76.4303C76.4303 51.3923 76.7053 52.9647 77.2691 54.3997L78.914 53.7535ZM78.1976 49.6937C78.1976 48.1619 78.4416 46.8149 78.912 45.639L77.2711 44.9826C76.7046 46.3987 76.4303 47.9736 76.4303 49.6937H78.1976ZM78.9089 45.6465C79.3938 44.4659 80.0958 43.5686 81.0072 42.9205L79.983 41.4802C78.7736 42.3402 77.8732 43.5165 77.2741 44.9751L78.9089 45.6465ZM81.0101 42.9184C81.9136 42.2702 83.0776 41.9176 84.5598 41.9176V40.1503C82.7903 40.1503 81.2444 40.5753 79.98 41.4824L81.0101 42.9184ZM84.5598 41.9176C85.3542 41.9176 86.0158 42.0252 86.5601 42.2196L87.1545 40.5552C86.3793 40.2783 85.5092 40.1503 84.5598 40.1503V41.9176ZM86.5869 42.2287C87.2074 42.4281 87.7181 42.6431 88.1281 42.8686L88.9798 41.32C88.4472 41.0271 87.8268 40.7708 87.1277 40.5461L86.5869 42.2287ZM89.4376 42.0943V39.1253H87.6703V42.0943H89.4376ZM89.4376 39.1253C89.4376 37.9929 89.2761 36.9976 88.8906 36.197L87.2983 36.9637C87.5255 37.4355 87.6703 38.1368 87.6703 39.1253H89.4376ZM88.9066 36.2323C88.4213 35.0998 87.2987 34.707 86.0797 34.707V36.4743C86.9815 36.4743 87.202 36.7413 87.2822 36.9284L88.9066 36.2323ZM86.0797 34.707H85.5849V36.4743H86.0797V34.707ZM86.4685 35.5907V34.6717H84.7012V35.5907H86.4685ZM85.5849 35.5553H89.4022V33.788H85.5849V35.5553ZM89.4022 35.5553C90.155 35.5553 90.6124 35.6771 90.8682 35.8252L91.7537 34.2957C91.114 33.9254 90.299 33.788 89.4022 33.788V35.5553ZM90.8851 35.8347C91.107 35.9568 91.3146 36.1863 91.4534 36.6547L93.1479 36.1526C92.9096 35.3485 92.4574 34.6825 91.7368 34.2862L90.8851 35.8347ZM91.4534 36.6547C91.6059 37.1696 91.6997 37.9771 91.6997 39.1253H93.467C93.467 37.917 93.3723 36.9101 93.1479 36.1526L91.4534 36.6547ZM91.6997 39.1253V58H93.467V39.1253H91.6997ZM92.5834 57.1164H90.0738V58.8836H92.5834V57.1164ZM90.7713 57.4575L89.5342 55.8669L88.1392 56.9519L89.3763 58.5425L90.7713 57.4575ZM88.8367 55.5258H88.66V57.2931H88.8367V55.5258ZM87.9361 55.9027C87.7011 56.2383 87.2933 56.609 86.6501 56.9949L87.5594 58.5103C88.3301 58.0479 88.959 57.5231 89.3839 56.9162L87.9361 55.9027ZM86.6579 56.9903C86.1605 57.2818 85.4047 57.4698 84.3124 57.4698V59.2371C85.5765 59.2371 86.6823 59.0245 87.5516 58.5149L86.6579 56.9903ZM85.1607 57.7172C85.9018 57.7172 86.5904 57.5804 87.1804 57.2526L86.3222 55.7077C86.0639 55.8512 85.6921 55.9499 85.1607 55.9499V57.7172ZM87.1628 57.2621C87.7055 56.9765 88.1698 56.6075 88.537 56.1485L87.157 55.0445C86.9587 55.2923 86.6925 55.5125 86.3397 55.6982L87.1628 57.2621ZM88.537 56.1485C88.837 55.7736 89.0949 55.4138 89.3065 55.0699L87.8014 54.1437C87.636 54.4124 87.4226 54.7125 87.157 55.0445L88.537 56.1485ZM89.4376 54.6068V43.6142H87.6703V54.6068H89.4376ZM89.0147 42.8602C88.5397 42.5699 88.009 42.3122 87.4268 42.0844L86.7827 43.7302C87.2845 43.9265 87.7199 44.1401 88.0932 44.3682L89.0147 42.8602ZM87.4571 42.0969C86.8043 41.8131 86.1189 41.6702 85.4081 41.6702V43.4375C85.8756 43.4375 86.3213 43.5302 86.7524 43.7176L87.4571 42.0969ZM85.4081 41.6702C84.2434 41.6702 83.2342 42.0741 82.4623 42.9078L83.759 44.1085C84.1653 43.6697 84.6878 43.4375 85.4081 43.4375V41.6702ZM82.4613 42.9088C81.7644 43.6638 81.2971 44.6642 81.0141 45.8475L82.733 46.2586C82.9684 45.274 83.3258 44.5778 83.76 44.1075L82.4613 42.9088ZM81.0109 45.8614C80.7583 46.9984 80.6364 48.2782 80.6364 49.6937H82.4037C82.4037 48.3757 82.5175 47.2285 82.7362 46.2448L81.0109 45.8614ZM80.6364 49.6937C80.6364 51.0872 80.7586 52.3651 81.0101 53.522L82.737 53.1466C82.5173 52.1356 82.4037 50.9865 82.4037 49.6937H80.6364ZM81.0101 53.522C81.2669 54.7034 81.7052 55.7103 82.3673 56.4876L83.7126 55.3416C83.2908 54.8464 82.9515 54.1332 82.737 53.1466L81.0101 53.522ZM82.3781 56.5001C83.0999 57.316 84.0546 57.7172 85.1607 57.7172V55.9499C84.5231 55.9499 84.064 55.7385 83.7018 55.3291L82.3781 56.5001ZM99.4789 58.0353L99.7408 57.1914L99.7312 57.1884L99.7216 57.1857L99.4789 58.0353ZM97.7116 57.1517L98.2519 56.4525L97.7116 57.1517ZM96.4745 55.6318L95.6721 56.0021L95.6779 56.0147L95.6841 56.027L96.4745 55.6318ZM97.04 50.5773L97.705 51.1592L97.04 50.5773ZM100.08 48.9161L100.301 49.7716L100.311 49.7689L100.08 48.9161ZM106.124 48.3506V49.2342H107.008V48.3506H106.124ZM105.7 44.8513L104.861 45.1307L104.864 45.1379L105.7 44.8513ZM104.463 43.084L103.965 43.8141L103.984 43.827L104.003 43.8388L104.463 43.084ZM100.327 43.19L100.786 43.9454L100.795 43.9395L100.805 43.9333L100.327 43.19ZM98.9487 45.6643V46.5479H99.6678L99.8139 45.8438L98.9487 45.6643ZM97.146 45.6643H96.2624V46.5479H97.146V45.6643ZM97.2521 43.8616L96.3795 43.722L96.3768 43.7391L96.3747 43.7563L97.2521 43.8616ZM98.0297 42.271L97.3729 41.6799L98.0297 42.271ZM100.15 41.3167L100.296 42.1883L100.304 42.187L100.312 42.1854L100.15 41.3167ZM106.089 41.4227L105.824 42.2658L105.83 42.2678L106.089 41.4227ZM108.245 42.6599L107.633 43.2973L107.639 43.3033L107.645 43.3092L108.245 42.6599ZM109.659 44.9573L108.822 45.2429L108.824 45.2493L109.659 44.9573ZM110.153 58V58.8836H111.037V58H110.153ZM107.644 58L106.946 58.5425L107.212 58.8836H107.644V58ZM106.407 56.4094L107.104 55.8669L106.839 55.5258H106.407V56.4094ZM106.23 56.4094V55.5258H105.77L105.506 55.9027L106.23 56.4094ZM104.604 57.7526L105.019 58.5329L105.028 58.528L105.037 58.5227L104.604 57.7526ZM104.957 55.9499L105.567 56.5898L105.568 56.5891L104.957 55.9499ZM106.124 54.4301L106.914 54.8252L107.008 54.6387V54.4301H106.124ZM106.124 49.8704H107.008V48.9868H106.124V49.8704ZM101.529 50.8248L102.046 51.5411L102.053 51.5365L102.059 51.5317L101.529 50.8248ZM101.706 57.4698C100.983 57.4698 100.33 57.3742 99.7408 57.1914L99.217 58.8793C99.9946 59.1206 100.826 59.2371 101.706 59.2371V57.4698ZM99.7216 57.1857C99.1645 57.0265 98.6774 56.7813 98.2519 56.4525L97.1713 57.8509C97.7826 58.3233 98.4737 58.6672 99.2361 58.885L99.7216 57.1857ZM98.2519 56.4525C97.8434 56.1369 97.5145 55.736 97.2648 55.2366L95.6841 56.027C96.0471 56.753 96.5429 57.3654 97.1713 57.8509L98.2519 56.4525ZM97.2768 55.2615C97.0567 54.7847 96.934 54.208 96.934 53.5111H95.1667C95.1667 54.4164 95.3267 55.2536 95.6721 56.0021L97.2768 55.2615ZM96.934 53.5111C96.934 52.4785 97.2131 51.7214 97.705 51.1592L96.375 49.9955C95.5473 50.9414 95.1667 52.1401 95.1667 53.5111H96.934ZM97.705 51.1592C98.2089 50.5834 99.0386 50.0981 100.301 49.7716L99.8585 48.0606C98.3875 48.441 97.1907 49.0632 96.375 49.9955L97.705 51.1592ZM100.311 49.7689C101.599 49.4197 103.281 49.2342 105.382 49.2342V47.4669C103.193 47.4669 101.341 47.6584 99.8485 48.0632L100.311 49.7689ZM105.382 49.2342H106.124V47.4669H105.382V49.2342ZM107.008 48.3506C107.008 46.8052 106.865 45.5253 106.536 44.5647L104.864 45.1379C105.1 45.8268 105.24 46.8797 105.24 48.3506H107.008ZM106.538 44.5719C106.216 43.6055 105.704 42.8048 104.922 42.3292L104.003 43.8388C104.306 44.023 104.618 44.4005 104.861 45.1307L106.538 44.5719ZM104.96 42.3539C104.277 41.888 103.486 41.6702 102.625 41.6702V43.4375C103.177 43.4375 103.611 43.5731 103.965 43.8141L104.96 42.3539ZM102.625 41.6702C101.603 41.6702 100.667 41.9209 99.8493 42.4467L100.805 43.9333C101.307 43.6109 101.903 43.4375 102.625 43.4375V41.6702ZM99.8686 42.4347C98.8968 43.0247 98.3613 44.146 98.0835 45.4847L99.8139 45.8438C100.054 44.6847 100.438 44.1565 100.786 43.9454L99.8686 42.4347ZM98.9487 44.7806H97.146V46.5479H98.9487V44.7806ZM98.0297 45.6643C98.0297 45.0856 98.0631 44.5199 98.1294 43.9669L96.3747 43.7563C96.2997 44.3815 96.2624 45.0175 96.2624 45.6643H98.0297ZM98.1246 44.0012C98.1903 43.591 98.3688 43.2152 98.6865 42.8622L97.3729 41.6799C96.8423 42.2694 96.5024 42.954 96.3795 43.722L98.1246 44.0012ZM98.6865 42.8622C98.9185 42.6043 99.3957 42.3383 100.296 42.1883L100.005 40.4451C98.9258 40.625 97.9891 40.9952 97.3729 41.6799L98.6865 42.8622ZM100.312 42.1854C101.268 42.0076 102.274 41.9176 103.332 41.9176V40.1503C102.174 40.1503 101.059 40.2488 99.9888 40.448L100.312 42.1854ZM103.332 41.9176C104.27 41.9176 105.098 42.0377 105.824 42.2657L106.354 40.5797C105.43 40.2894 104.42 40.1503 103.332 40.1503V41.9176ZM105.83 42.2678C106.558 42.4901 107.152 42.8359 107.633 43.2973L108.857 42.0224C108.159 41.3528 107.316 40.8738 106.347 40.5777L105.83 42.2678ZM107.645 43.3092C108.128 43.755 108.529 44.3849 108.822 45.2429L110.495 44.6718C110.128 43.5975 109.586 42.6958 108.844 42.0105L107.645 43.3092ZM108.824 45.2493C109.111 46.0691 109.27 47.1297 109.27 48.4566H111.037C111.037 47.0029 110.865 45.7306 110.493 44.6654L108.824 45.2493ZM109.27 48.4566V58H111.037V48.4566H109.27ZM110.153 57.1164H107.644V58.8836H110.153V57.1164ZM108.341 57.4575L107.104 55.8669L105.709 56.9519L106.946 58.5425L108.341 57.4575ZM106.407 55.5258H106.23V57.2931H106.407V55.5258ZM105.506 55.9027C105.281 56.2247 104.863 56.5933 104.171 56.9824L105.037 58.5227C105.854 58.0635 106.52 57.5367 106.954 56.9162L105.506 55.9027ZM104.189 56.9722C103.602 57.2842 102.791 57.4698 101.706 57.4698V59.2371C102.976 59.2371 104.098 59.0222 105.019 58.5329L104.189 56.9722ZM102.978 57.5405C103.98 57.5405 104.875 57.2488 105.567 56.5898L104.348 55.3101C104.05 55.5936 103.626 55.7732 102.978 55.7732V57.5405ZM105.568 56.5891C106.143 56.04 106.6 55.4534 106.914 54.8252L105.334 54.0349C105.129 54.4435 104.809 54.8702 104.347 55.3107L105.568 56.5891ZM107.008 54.4301V49.8704H105.24V54.4301H107.008ZM106.124 48.9868H105.382V50.7541H106.124V48.9868ZM105.382 48.9868C103.58 48.9868 102.069 49.3151 100.999 50.1178L102.059 51.5317C102.685 51.062 103.743 50.7541 105.382 50.7541V48.9868ZM101.012 50.1084C99.9017 50.91 99.3728 52.0904 99.3728 53.5111H101.14C101.14 52.5754 101.46 51.9649 102.046 51.5411L101.012 50.1084ZM99.3728 53.5111C99.3728 54.7009 99.6634 55.7582 100.409 56.5041L101.659 55.2544C101.368 54.9635 101.14 54.4419 101.14 53.5111H99.3728ZM100.409 56.5041C101.104 57.199 101.982 57.5405 102.978 57.5405V55.7732C102.419 55.7732 102.001 55.5963 101.659 55.2544L100.409 56.5041ZM115.261 65.0692H114.377V65.9528H115.261V65.0692ZM115.261 63.9028V63.0191H114.377V63.9028H115.261ZM118.23 63.1959L117.782 62.4342L118.23 63.1959ZM120.244 60.3682L121.069 60.6845L121.072 60.6773L121.075 60.6702L120.244 60.3682ZM120.951 58.4242L121.782 58.7261L121.903 58.3934L121.76 58.0691L120.951 58.4242ZM114.872 44.5685L114.053 44.9005L114.058 44.9121L114.063 44.9236L114.872 44.5685ZM113.423 42.5892L112.871 43.2792L112.886 43.2912L112.901 43.3026L113.423 42.5892ZM111.337 41.7409H110.454V42.5266L111.234 42.6185L111.337 41.7409ZM111.337 41.0339V40.1503H110.454V41.0339H111.337ZM117.134 41.8115L116.633 42.5397L116.646 42.5486L116.66 42.557L117.134 41.8115ZM118.866 43.8616L118.055 44.2124L118.057 44.2168L118.866 43.8616ZM122.931 53.1223L122.122 53.4774L123 55.4787L123.759 53.4292L122.931 53.1223ZM127.278 41.3874V40.5037H126.663L126.45 41.0804L127.278 41.3874ZM129.116 41.3874L129.944 41.6955L130.388 40.5037H129.116V41.3874ZM122.082 60.2975L121.254 59.9894L121.254 59.9906L122.082 60.2975ZM120.562 63.2312L119.87 62.6821L119.866 62.6878L119.861 62.6936L120.562 63.2312ZM118.76 64.6804L119.083 65.5028L118.76 64.6804ZM116.144 65.0692V63.9028H114.377V65.0692H116.144ZM115.261 64.7864C116.555 64.7864 117.709 64.5274 118.678 63.9575L117.782 62.4342C117.148 62.8069 116.323 63.0191 115.261 63.0191V64.7864ZM118.678 63.9575C119.73 63.3383 120.498 62.1764 121.069 60.6845L119.419 60.0519C118.907 61.3877 118.331 62.1109 117.782 62.4342L118.678 63.9575ZM121.075 60.6702L121.782 58.7261L120.121 58.1222L119.414 60.0662L121.075 60.6702ZM121.76 58.0691L115.681 44.2135L114.063 44.9236L120.142 58.7792L121.76 58.0691ZM115.691 44.2365C115.29 43.2487 114.718 42.4413 113.944 41.8757L112.901 43.3026C113.353 43.6325 113.746 44.1446 114.053 44.9005L115.691 44.2365ZM113.975 41.8991C113.247 41.3174 112.394 40.9754 111.44 40.8633L111.234 42.6185C111.883 42.6948 112.42 42.9184 112.871 43.2792L113.975 41.8991ZM112.221 41.7409V41.0339H110.454V41.7409H112.221ZM111.337 41.9176H114.412V40.1503H111.337V41.9176ZM114.412 41.9176C115.323 41.9176 116.049 42.138 116.633 42.5397L117.635 41.0834C116.711 40.4483 115.622 40.1503 114.412 40.1503V41.9176ZM116.66 42.557C117.283 42.9539 117.746 43.4975 118.055 44.2123L119.677 43.5109C119.232 42.482 118.54 41.6589 117.608 41.066L116.66 42.557ZM118.057 44.2168L122.122 53.4774L123.74 52.7671L119.675 43.5065L118.057 44.2168ZM123.759 53.4292L128.107 41.6944L126.45 41.0804L122.102 52.8153L123.759 53.4292ZM127.278 42.271H129.116V40.5037H127.278V42.271ZM128.288 41.0793L121.254 59.9894L122.911 60.6056L129.944 41.6955L128.288 41.0793ZM121.254 59.9906C120.799 61.2185 120.331 62.1006 119.87 62.6821L121.255 63.7803C121.878 62.9951 122.423 61.9213 122.911 60.6044L121.254 59.9906ZM119.861 62.6936C119.392 63.3053 118.913 63.6708 118.437 63.8579L119.083 65.5028C119.926 65.1715 120.649 64.5709 121.264 63.7688L119.861 62.6936ZM118.437 63.8579C117.895 64.0707 117.265 64.1855 116.533 64.1855V65.9528C117.451 65.9528 118.305 65.8085 119.083 65.5028L118.437 63.8579ZM116.533 64.1855H115.261V65.9528H116.533V64.1855ZM143.458 57.9647L143.108 58.776L143.114 58.7789L143.121 58.7817L143.458 57.9647ZM140.807 55.9499L140.062 56.4257L140.07 56.4378L140.078 56.4497L140.807 55.9499ZM140.736 50.436L141.481 50.9104L141.488 50.9003L140.736 50.436ZM142.715 48.2799L143.255 48.9795L142.715 48.2799ZM145.366 46.4772L145.821 47.2349L146.836 46.6258L145.963 45.8258L145.366 46.4772ZM144.306 45.4168L143.664 46.0246V46.0246L144.306 45.4168ZM143.033 43.8263L142.298 44.3164L142.302 44.3229L142.307 44.3293L143.033 43.8263ZM141.973 41.7762L142.797 41.4572L141.973 41.7762ZM143.352 35.4493L143.905 36.138L143.907 36.1367L143.352 35.4493ZM152.966 35.3786L152.379 36.039L152.386 36.0459L152.394 36.0526L152.966 35.3786ZM153.849 41.7055L154.607 42.1602L154.613 42.1508L153.849 41.7055ZM151.87 44.003L152.443 44.6753L152.445 44.6739L151.87 44.003ZM149.254 45.9824L148.76 45.25L147.909 45.8241L148.603 46.58L149.254 45.9824ZM156.005 53.3343L155.354 53.932L156.01 54.6461L156.661 53.9272L156.005 53.3343ZM157.242 51.8145L157.957 52.3342V52.3342L157.242 51.8145ZM158.232 50.436L158.954 50.9455L158.966 50.9282L158.978 50.9104L158.232 50.436ZM158.692 49.729L159.427 50.2192L159.439 50.2017L159.449 50.1837L158.692 49.729ZM159.08 49.0221L159.571 48.2869L158.738 47.7316L158.29 48.6269L159.08 49.0221ZM160.141 49.729L160.961 50.0572L161.228 49.3915L160.631 48.9938L160.141 49.729ZM159.787 50.4713L159.012 50.0482L158.996 50.0764L158.983 50.1057L159.787 50.4713ZM159.363 51.2489L158.618 50.7745L158.608 50.7901L158.598 50.8062L159.363 51.2489ZM158.374 52.7688L157.652 52.258L157.648 52.2642L158.374 52.7688ZM157.03 54.4301L156.379 53.833L155.83 54.4314L156.38 55.0286L157.03 54.4301ZM160.318 58V58.8836H162.332L160.968 57.4014L160.318 58ZM155.899 58L155.267 58.6169L155.527 58.8836H155.899V58ZM154.521 56.5862L155.154 55.9693L154.602 55.4036L153.978 55.8887L154.521 56.5862ZM153.319 57.3638L153.751 58.1348L153.762 58.1283L153.774 58.1215L153.319 57.3638ZM151.128 58.2828L150.855 57.4422L151.128 58.2828ZM151.446 56.8336L151.794 57.6459L151.805 57.6411L151.446 56.8336ZM153.602 55.5258L154.17 56.2024L154.88 55.6062L154.251 54.9258L153.602 55.5258ZM146.639 47.9971L147.287 47.3971L146.706 46.769L146.06 47.3293L146.639 47.9971ZM144.836 50.1178L145.582 50.5923L145.588 50.5822L144.836 50.1178ZM145.225 56.162L145.868 55.5564L145.225 56.162ZM148.017 44.6039L147.442 45.2748L148.026 45.7749L148.602 45.2665L148.017 44.6039ZM150.456 36.9338L149.647 37.2897L149.653 37.302L150.456 36.9338ZM149.466 35.6967L148.966 36.4249L148.991 36.4425L149.018 36.4583L149.466 35.6967ZM146.957 35.6967L146.496 34.9427L146.486 34.9486L146.477 34.9548L146.957 35.6967ZM146.002 37.0045L146.823 37.3327L146.827 37.3217L146.002 37.0045ZM145.932 41.3167L146.77 41.0373L145.932 41.3167ZM146.603 42.8366L145.839 43.2793L146.603 42.8366ZM147.381 43.9677L146.706 44.5384L146.718 44.5518L146.73 44.5648L147.381 43.9677ZM148.194 57.8233C146.301 57.8233 144.849 57.5821 143.794 57.1476L143.121 58.7817C144.469 59.3369 146.175 59.5906 148.194 59.5906V57.8233ZM143.808 57.1533C142.713 56.6809 141.982 56.101 141.535 55.4502L140.078 56.4497C140.763 57.4484 141.799 58.2116 143.108 58.776L143.808 57.1533ZM141.551 55.4742C141.101 54.7689 140.877 54.0034 140.877 53.1576H139.11C139.11 54.3383 139.429 55.4343 140.062 56.4257L141.551 55.4742ZM140.877 53.1576C140.877 52.2672 141.088 51.529 141.481 50.9104L139.99 49.9616C139.394 50.8981 139.11 51.9743 139.11 53.1576H140.877ZM141.488 50.9003C141.921 50.1988 142.506 49.5576 143.255 48.9795L142.176 47.5802C141.275 48.2746 140.541 49.0707 139.984 49.9716L141.488 50.9003ZM143.255 48.9795C144.051 48.3654 144.906 47.7838 145.821 47.2349L144.912 45.7195C143.941 46.3017 143.029 46.9219 142.176 47.5802L143.255 48.9795ZM145.963 45.8258C145.702 45.5864 145.365 45.2496 144.947 44.8091L143.664 46.0246C144.095 46.4795 144.465 46.8496 144.769 47.1286L145.963 45.8258ZM144.947 44.8091C144.56 44.4 144.164 43.9063 143.76 43.3233L142.307 44.3293C142.752 44.9716 143.204 45.5382 143.664 46.0246L144.947 44.8091ZM143.769 43.3361C143.381 42.7548 143.057 42.129 142.797 41.4572L141.149 42.0952C141.454 42.8843 141.837 43.6253 142.298 44.3164L143.769 43.3361ZM142.797 41.4572C142.555 40.8308 142.433 40.1733 142.433 39.4787H140.665C140.665 40.3864 140.826 41.2606 141.149 42.0952L142.797 41.4572ZM142.433 39.4787C142.433 37.9911 142.938 36.9155 143.905 36.138L142.798 34.7606C141.362 35.9153 140.665 37.526 140.665 39.4787H142.433ZM143.907 36.1367C144.93 35.3106 146.373 34.8484 148.335 34.8484V33.0811C146.103 33.0811 144.224 33.6086 142.796 34.7618L143.907 36.1367ZM148.335 34.8484C150.237 34.8484 151.537 35.2914 152.379 36.039L153.553 34.7181C152.273 33.5807 150.486 33.0811 148.335 33.0811V34.8484ZM152.394 36.0526C153.277 36.8015 153.708 37.732 153.708 38.9132H155.475C155.475 37.2196 154.822 35.7937 153.537 34.7046L152.394 36.0526ZM153.708 38.9132C153.708 39.7752 153.499 40.5515 153.086 41.2603L154.613 42.1508C155.189 41.1629 155.475 40.0777 155.475 38.9132H153.708ZM153.092 41.2509C152.651 41.9844 152.057 42.6791 151.295 43.3321L152.445 44.6739C153.333 43.9131 154.057 43.0761 154.607 42.1601L153.092 41.2509ZM151.296 43.3307C150.522 43.9909 149.677 44.6308 148.76 45.25L149.749 46.7148C150.717 46.0615 151.615 45.3818 152.443 44.6753L151.296 43.3307ZM148.603 46.58L155.354 53.932L156.656 52.7367L149.905 45.3847L148.603 46.58ZM156.661 53.9272C157.129 53.41 157.561 52.879 157.957 52.3342L156.528 51.2947C156.17 51.7867 155.778 52.269 155.35 52.7415L156.661 53.9272ZM157.957 52.3342C158.336 51.8134 158.668 51.3504 158.954 50.9455L157.51 49.9264C157.23 50.3227 156.903 50.7787 156.528 51.2947L157.957 52.3342ZM158.978 50.9104C159.14 50.6554 159.29 50.4251 159.427 50.2192L157.956 49.2389C157.811 49.4571 157.654 49.6981 157.487 49.9616L158.978 50.9104ZM159.449 50.1837C159.602 49.9295 159.742 49.674 159.871 49.4173L158.29 48.6269C158.183 48.8415 158.064 49.0573 157.934 49.2744L159.449 50.1837ZM158.59 49.7574L159.651 50.4643L160.631 48.9938L159.571 48.2869L158.59 49.7574ZM159.32 49.4009C159.241 49.5993 159.139 49.8149 159.012 50.0482L160.563 50.8944C160.719 50.6093 160.852 50.3301 160.961 50.0572L159.32 49.4009ZM158.983 50.1057C158.883 50.3245 158.762 50.5474 158.618 50.7745L160.109 51.7233C160.294 51.432 160.456 51.1366 160.592 50.837L158.983 50.1057ZM158.598 50.8062C158.356 51.2243 158.042 51.7076 157.652 52.258L159.095 53.2796C159.506 52.6989 159.852 52.169 160.128 51.6917L158.598 50.8062ZM157.648 52.2642C157.297 52.769 156.875 53.292 156.379 53.833L157.682 55.0272C158.223 54.437 158.696 53.8525 159.099 53.2734L157.648 52.2642ZM156.38 55.0286L159.668 58.5986L160.968 57.4014L157.68 53.8315L156.38 55.0286ZM160.318 57.1164H155.899V58.8836H160.318V57.1164ZM156.532 57.3831L155.154 55.9693L153.888 57.203L155.267 58.6169L156.532 57.3831ZM153.978 55.8887C153.814 56.0168 153.456 56.2513 152.864 56.606L153.774 58.1215C154.361 57.7693 154.804 57.4854 155.063 57.2837L153.978 55.8887ZM152.887 56.5928C152.363 56.8863 151.69 57.1715 150.855 57.4422L151.4 59.1233C152.309 58.8285 153.097 58.501 153.751 58.1348L152.887 56.5928ZM150.855 57.4422C150.086 57.6918 149.202 57.8233 148.194 57.8233V59.5906C149.354 59.5906 150.426 59.4393 151.4 59.1233L150.855 57.4422ZM148.653 58.2474C149.791 58.2474 150.843 58.0531 151.794 57.6458L151.098 56.0214C150.399 56.3209 149.589 56.4801 148.653 56.4801V58.2474ZM151.805 57.6411C152.713 57.2371 153.506 56.7601 154.17 56.2024L153.033 54.8492C152.519 55.2812 151.875 55.676 151.087 56.0261L151.805 57.6411ZM154.251 54.9258L147.287 47.3971L145.99 48.5971L152.953 56.1258L154.251 54.9258ZM146.06 47.3293C145.285 48.001 144.626 48.7767 144.084 49.6535L145.588 50.5822C146.036 49.8567 146.579 49.2185 147.217 48.6649L146.06 47.3293ZM144.091 49.6434C143.497 50.5768 143.21 51.6401 143.21 52.8041H144.977C144.977 51.9416 145.186 51.2142 145.582 50.5923L144.091 49.6434ZM143.21 52.8041C143.21 54.3955 143.63 55.7572 144.581 56.7676L145.868 55.5564C145.311 54.9645 144.977 54.0876 144.977 52.8041H143.21ZM144.581 56.7676C145.559 57.8069 146.976 58.2474 148.653 58.2474V56.4801C147.267 56.4801 146.398 56.1195 145.868 55.5564L144.581 56.7676ZM148.602 45.2665C149.461 44.5084 150.188 43.6687 150.777 42.7468L149.287 41.7953C148.792 42.57 148.176 43.2855 147.433 43.9413L148.602 45.2665ZM150.777 42.7468C151.422 41.7364 151.728 40.5645 151.728 39.2666H149.961C149.961 40.2781 149.726 41.1091 149.287 41.7953L150.777 42.7468ZM151.728 39.2666C151.728 38.2167 151.594 37.295 151.259 36.5656L149.653 37.302C149.837 37.7037 149.961 38.3372 149.961 39.2666H151.728ZM151.265 36.5779C150.959 35.8828 150.526 35.2948 149.914 34.935L149.018 36.4583C149.208 36.5699 149.435 36.8066 149.647 37.2897L151.265 36.5779ZM149.967 34.9685C149.475 34.63 148.926 34.4242 148.335 34.4242V36.1915C148.498 36.1915 148.704 36.245 148.966 36.4249L149.967 34.9685ZM148.335 34.4242C147.677 34.4242 147.058 34.5991 146.496 34.9427L147.418 36.4507C147.704 36.2759 148.004 36.1915 148.335 36.1915V34.4242ZM146.477 34.9548C145.87 35.3474 145.456 35.9643 145.178 36.6873L146.827 37.3217C147.02 36.8193 147.242 36.5644 147.437 36.4386L146.477 34.9548ZM145.182 36.6763C144.886 37.4169 144.765 38.3712 144.765 39.4787H146.533C146.533 38.4655 146.648 37.7703 146.823 37.3327L145.182 36.6763ZM144.765 39.4787C144.765 40.2234 144.872 40.9314 145.093 41.5961L146.77 41.0373C146.615 40.5709 146.533 40.0536 146.533 39.4787H144.765ZM145.093 41.5961C145.298 42.2101 145.545 42.7727 145.839 43.2793L147.368 42.3938C147.143 42.0051 146.942 41.5544 146.77 41.0373L145.093 41.5961ZM145.839 43.2793C146.117 43.7601 146.405 44.1827 146.706 44.5384L148.056 43.3969C147.838 43.14 147.608 42.8085 147.368 42.3938L145.839 43.2793ZM146.73 44.5648C146.998 44.8571 147.237 45.0993 147.442 45.2748L148.592 43.933C148.467 43.8257 148.283 43.6437 148.032 43.3705L146.73 44.5648ZM178.306 58H177.423V58.8836H178.306V58ZM178.306 36.1915H179.19V35.3079H178.306V36.1915ZM172.403 37.1459L171.833 36.4704L171.823 36.4795L172.403 37.1459ZM171.308 40.3624V41.246H172.191V40.3624H171.308ZM170.389 40.3624H169.505V41.246H170.389V40.3624ZM170.636 36.1562L171.46 36.4765L171.463 36.4691L171.465 36.4617L170.636 36.1562ZM171.52 35.0958L171.981 35.8499L171.992 35.8429L171.52 35.0958ZM189.935 34.6717H190.819V33.788H189.935V34.6717ZM189.935 36.1915V37.0752H190.819V36.1915H189.935ZM182.3 36.1915V35.3079H181.417V36.1915H182.3ZM182.3 58V58.8836H183.184V58H182.3ZM179.19 58V36.1915H177.423V58H179.19ZM178.306 35.3079H175.514V37.0752H178.306V35.3079ZM175.514 35.3079C174.057 35.3079 172.794 35.6602 171.834 36.4705L172.973 37.8212C173.521 37.3591 174.332 37.0752 175.514 37.0752V35.3079ZM171.823 36.4795C170.814 37.3583 170.424 38.7403 170.424 40.3624H172.191C172.191 38.9682 172.532 38.2059 172.984 37.8122L171.823 36.4795ZM171.308 39.4787H170.389V41.246H171.308V39.4787ZM171.272 40.3624V37.4993H169.505V40.3624H171.272ZM171.272 37.4993C171.272 37.1337 171.336 36.7949 171.46 36.4765L169.813 35.8359C169.606 36.3658 169.505 36.9225 169.505 37.4993H171.272ZM171.465 36.4617C171.558 36.2089 171.719 36.0099 171.981 35.8498L171.059 34.3418C170.473 34.7001 170.044 35.208 169.807 35.8507L171.465 36.4617ZM171.992 35.8429C172.243 35.684 172.679 35.5553 173.393 35.5553V33.788C172.505 33.788 171.692 33.9421 171.048 34.3487L171.992 35.8429ZM173.393 35.5553H189.935V33.788H173.393V35.5553ZM189.051 34.6717V36.1915H190.819V34.6717H189.051ZM189.935 35.3079H182.3V37.0752H189.935V35.3079ZM181.417 36.1915V58H183.184V36.1915H181.417ZM182.3 57.1164H178.306V58.8836H182.3V57.1164ZM192.621 57.2224L192.148 57.9686L192.158 57.975L192.621 57.2224ZM189.794 54.0766L188.998 54.4604L189.003 54.4718L189.794 54.0766ZM189.794 45.3108L189.003 44.9156L189 44.9214L189.794 45.3108ZM192.621 42.2004L193.084 42.953L193.095 42.9464L192.621 42.2004ZM201.422 42.2004L200.949 42.9465L200.959 42.9529L201.422 42.2004ZM204.215 45.3108L203.419 45.6946L203.423 45.7032L203.427 45.7117L204.215 45.3108ZM204.215 54.0766L203.424 53.6814L203.419 53.6928L204.215 54.0766ZM201.422 57.2224L201.886 57.975L201.896 57.9685L201.422 57.2224ZM199.196 55.9146L199.833 56.5271L199.838 56.5211L199.844 56.5149L199.196 55.9146ZM200.539 53.3343L199.693 53.077L199.691 53.0855L199.688 53.094L200.539 53.3343ZM200.539 46.0531L199.688 46.2934L199.692 46.3045L199.695 46.3156L200.539 46.0531ZM199.196 43.5082L198.547 44.1085L198.553 44.1146L198.559 44.1206L199.196 43.5082ZM194.848 43.5082L194.212 42.8952L194.211 42.8957L194.848 43.5082ZM193.47 46.0531L192.624 45.7958L192.621 45.8078L193.47 46.0531ZM193.47 53.3343L192.619 53.5746L192.622 53.5832L192.624 53.5916L193.47 53.3343ZM194.848 55.9146L194.2 56.5149L194.211 56.5274L194.223 56.5394L194.848 55.9146ZM197.004 57.4698C195.441 57.4698 194.147 57.1238 193.084 56.4698L192.158 57.975C193.546 58.829 195.174 59.2371 197.004 59.2371V57.4698ZM193.095 56.4763C192.007 55.7862 191.173 54.8599 190.584 53.6814L189.003 54.4718C189.734 55.9324 190.785 57.1034 192.148 57.9685L193.095 56.4763ZM190.59 53.6928C190.016 52.5038 189.723 51.1758 189.723 49.6937H187.956C187.956 51.4163 188.298 53.0102 188.998 54.4604L190.59 53.6928ZM189.723 49.6937C189.723 48.1856 190.017 46.8605 190.587 45.7002L189 44.9214C188.298 46.3531 187.956 47.9499 187.956 49.6937H189.723ZM190.584 45.706C191.172 44.5297 192.003 43.6184 193.084 42.9529L192.158 41.4478C190.789 42.2904 189.735 43.4527 189.003 44.9156L190.584 45.706ZM193.095 42.9464C194.156 42.273 195.446 41.9176 197.004 41.9176V40.1503C195.169 40.1503 193.537 40.5725 192.148 41.4543L193.095 42.9464ZM197.004 41.9176C198.588 41.9176 199.89 42.2742 200.949 42.9464L201.896 41.4543C200.505 40.5713 198.861 40.1503 197.004 40.1503V41.9176ZM200.959 42.9529C202.038 43.6167 202.855 44.5243 203.419 45.6946L205.011 44.927C204.303 43.4582 203.258 42.2921 201.886 41.4478L200.959 42.9529ZM203.427 45.7117C204.017 46.8695 204.321 48.1905 204.321 49.6937H206.088C206.088 47.9451 205.732 46.3441 205.002 44.9099L203.427 45.7117ZM204.321 49.6937C204.321 51.1709 204.018 52.4949 203.424 53.6814L205.005 54.4718C205.731 53.0192 206.088 51.4212 206.088 49.6937H204.321ZM203.419 53.6928C202.853 54.8654 202.034 55.7879 200.949 56.4763L201.896 57.9685C203.262 57.1017 204.304 55.927 205.011 54.4604L203.419 53.6928ZM200.959 56.4698C199.898 57.1227 198.593 57.4698 197.004 57.4698V59.2371C198.856 59.2371 200.496 58.8302 201.886 57.975L200.959 56.4698ZM197.004 57.7172C198.109 57.7172 199.072 57.318 199.833 56.5271L198.559 55.3021C198.141 55.7365 197.643 55.9499 197.004 55.9499V57.7172ZM199.844 56.5149C200.552 55.7504 201.056 54.7541 201.389 53.5746L199.688 53.094C199.409 54.0825 199.018 54.8064 198.547 55.3142L199.844 56.5149ZM201.384 53.5916C201.744 52.4105 201.917 51.1083 201.917 49.6937H200.15C200.15 50.9653 199.994 52.0903 199.693 53.077L201.384 53.5916ZM201.917 49.6937C201.917 48.2577 201.744 46.9529 201.383 45.7906L199.695 46.3156C199.993 47.274 200.15 48.3963 200.15 49.6937H201.917ZM201.389 45.8127C201.056 44.6329 200.55 43.6415 199.833 42.8957L198.559 44.1206C199.02 44.6002 199.409 45.3054 199.688 46.2934L201.389 45.8127ZM199.844 42.9078C199.087 42.0898 198.121 41.6702 197.004 41.6702V43.4375C197.631 43.4375 198.126 43.654 198.547 44.1085L199.844 42.9078ZM197.004 41.6702C195.921 41.6702 194.978 42.0997 194.212 42.8952L195.485 44.1211C195.944 43.6442 196.438 43.4375 197.004 43.4375V41.6702ZM194.211 42.8957C193.499 43.6364 192.982 44.6211 192.624 45.7958L194.315 46.3103C194.617 45.3171 195.019 44.6052 195.485 44.1206L194.211 42.8957ZM192.621 45.8078C192.287 46.9642 192.126 48.2629 192.126 49.6937H193.894C193.894 48.3911 194.04 47.2627 194.319 46.2983L192.621 45.8078ZM192.126 49.6937C192.126 51.103 192.287 52.3992 192.619 53.5746L194.32 53.094C194.039 52.1016 193.894 50.9707 193.894 49.6937H192.126ZM192.624 53.5916C192.982 54.7657 193.496 55.7554 194.2 56.5149L195.496 55.3142C195.022 54.8013 194.617 54.0709 194.315 53.077L192.624 53.5916ZM194.223 56.5394C194.992 57.3085 195.932 57.7172 197.004 57.7172V55.9499C196.427 55.9499 195.929 55.746 195.473 55.2898L194.223 56.5394ZM212.096 57.7526L211.733 58.5584L211.745 58.5638L211.757 58.5688L212.096 57.7526ZM209.904 55.7025L210.679 55.2767L209.904 55.7025ZM208.667 43.2961L207.855 43.6442L207.863 43.662L207.871 43.6794L208.667 43.2961ZM206.299 42.3064H205.415V43.19H206.299V42.3064ZM206.299 41.3874V40.5037H205.415V41.3874H206.299ZM211.884 41.7762L211.441 42.5409L211.449 42.5458L211.458 42.5505L211.884 41.7762ZM212.873 43.1193L212.026 43.3704L212.873 43.1193ZM213.58 54.7835L212.76 55.1117L212.765 55.1233L212.77 55.1349L213.58 54.7835ZM214.782 56.3034L214.317 57.0547L214.325 57.0595L214.333 57.0642L214.782 56.3034ZM217.928 56.4448L218.323 57.2351L218.34 57.2266L218.357 57.2172L217.928 56.4448ZM219.059 55.5965L218.434 54.9716L219.059 55.5965ZM219.837 54.6421L220.589 55.1053L220.72 54.8922V54.6421H219.837ZM219.837 41.3874V40.5037H218.953V41.3874H219.837ZM223.866 41.3874H224.75V40.5037H223.866V41.3874ZM223.866 58V58.8836H224.75V58H223.866ZM221.356 58L220.671 58.5578L220.936 58.8836H221.356V58ZM220.119 56.4801L220.805 55.9223L220.539 55.5965H220.119V56.4801ZM219.943 56.4801V55.5965H219.563L219.302 55.8715L219.943 56.4801ZM218.14 57.7879L218.535 58.5783L218.545 58.5734L218.555 58.5683L218.14 57.7879ZM215.454 57.4698C214.273 57.4698 213.273 57.2839 212.434 56.9363L211.757 58.5688C212.851 59.0224 214.09 59.2371 215.454 59.2371V57.4698ZM212.458 56.9468C211.698 56.6046 211.109 56.0586 210.679 55.2767L209.13 56.1284C209.737 57.2315 210.608 58.0522 211.733 58.5584L212.458 56.9468ZM210.679 55.2767C210.258 54.5115 210.01 53.4151 210.01 51.9205H208.243C208.243 53.5834 208.514 55.0084 209.13 56.1284L210.679 55.2767ZM210.01 51.9205V45.841H208.243V51.9205H210.01ZM210.01 45.841C210.01 44.7087 209.849 43.7133 209.463 42.9127L207.871 43.6794C208.098 44.1513 208.243 44.8526 208.243 45.841H210.01ZM209.479 42.948C208.994 41.8155 207.872 41.4227 206.653 41.4227V43.19C207.554 43.19 207.775 43.4571 207.855 43.6442L209.479 42.948ZM206.653 41.4227H206.299V43.19H206.653V41.4227ZM207.183 42.3064V41.3874H205.415V42.3064H207.183ZM206.299 42.271H209.975V40.5037H206.299V42.271ZM209.975 42.271C210.728 42.271 211.185 42.3929 211.441 42.5409L212.326 41.0115C211.687 40.6411 210.872 40.5037 209.975 40.5037V42.271ZM211.458 42.5505C211.68 42.6725 211.887 42.902 212.026 43.3704L213.721 42.8683C213.482 42.0642 213.03 41.3983 212.31 41.0019L211.458 42.5505ZM212.026 43.3704C212.179 43.8854 212.273 44.6928 212.273 45.841H214.04C214.04 44.6327 213.945 43.6258 213.721 42.8683L212.026 43.3704ZM212.273 45.841V51.9205H214.04V45.841H212.273ZM212.273 51.9205C212.273 53.1771 212.418 54.2577 212.76 55.1117L214.401 54.4553C214.177 53.8955 214.04 53.0674 214.04 51.9205H212.273ZM212.77 55.1349C213.125 55.9544 213.626 56.6271 214.317 57.0547L215.247 55.5521C214.948 55.367 214.649 55.0265 214.391 54.4322L212.77 55.1349ZM214.333 57.0642C214.995 57.4555 215.729 57.6465 216.514 57.6465V55.8792C216.027 55.8792 215.606 55.7639 215.232 55.5426L214.333 57.0642ZM216.514 57.6465C217.157 57.6465 217.765 57.5141 218.323 57.2351L217.533 55.6544C217.242 55.7996 216.908 55.8792 216.514 55.8792V57.6465ZM218.357 57.2172C218.85 56.9433 219.294 56.6115 219.684 56.2213L218.434 54.9716C218.165 55.2412 217.854 55.475 217.499 55.6723L218.357 57.2172ZM219.684 56.2213C220.049 55.8562 220.356 55.4846 220.589 55.1053L219.084 54.179C218.94 54.4123 218.729 54.6769 218.434 54.9716L219.684 56.2213ZM220.72 54.6421V41.3874H218.953V54.6421H220.72ZM219.837 42.271H223.866V40.5037H219.837V42.271ZM222.982 41.3874V58H224.75V41.3874H222.982ZM223.866 57.1164H221.356V58.8836H223.866V57.1164ZM222.042 57.4422L220.805 55.9223L219.434 57.0379L220.671 58.5578L222.042 57.4422ZM220.119 55.5965H219.943V57.3638H220.119V55.5965ZM219.302 55.8715C218.937 56.2559 218.42 56.6385 217.725 57.0076L218.555 58.5683C219.368 58.1362 220.053 57.6469 220.583 57.0887L219.302 55.8715ZM217.745 56.9976C217.138 57.3007 216.384 57.4698 215.454 57.4698V59.2371C216.597 59.2371 217.633 59.0291 218.535 58.5783L217.745 56.9976ZM228.982 58H228.098V58.8836H228.982V58ZM228.558 43.2961L227.745 43.6442L227.75 43.655L228.558 43.2961ZM226.189 42.3064H225.306V43.19H226.189V42.3064ZM226.189 41.3874V40.5037H225.306V41.3874H226.189ZM231.315 41.7409L230.903 42.5228L230.927 42.5355L230.952 42.5467L231.315 41.7409ZM232.375 42.8012L231.577 43.1811L232.083 44.2432L232.962 43.4617L232.375 42.8012ZM234.142 41.6348L233.728 40.8545L234.142 41.6348ZM238.101 41.2107L237.852 42.0584L237.88 42.0668L237.909 42.0733L238.101 41.2107ZM239.161 41.6702L238.631 42.3771L238.651 42.3918L238.671 42.4054L239.161 41.6702ZM239.974 42.5538L239.195 42.9697L239.201 42.981L239.207 42.9922L239.974 42.5538ZM240.399 43.2607L240.926 43.9695L241.599 43.4685L241.134 42.7706L240.399 43.2607ZM238.737 44.4978L238.018 45.0115L238.542 45.7449L239.265 45.2066L238.737 44.4978ZM237.712 43.6495L237.27 44.4143L237.285 44.4232L237.301 44.4315L237.712 43.6495ZM234.213 43.6495L233.845 42.8462L233.838 42.8493L233.832 42.8524L234.213 43.6495ZM232.905 44.6392L232.223 44.0775L231.995 44.3547L232.025 44.7126L232.905 44.6392ZM232.976 45.4522L232.096 45.5322L232.097 45.5401L232.976 45.4522ZM233.011 58V58.8836H233.895V58H233.011ZM229.865 58V45.841H228.098V58H229.865ZM229.865 45.841C229.865 44.7154 229.717 43.7298 229.365 42.9372L227.75 43.655C227.963 44.1348 228.098 44.8458 228.098 45.841H229.865ZM229.37 42.948C228.884 41.8155 227.762 41.4227 226.543 41.4227V43.19C227.445 43.19 227.665 43.4571 227.745 43.6442L229.37 42.948ZM226.543 41.4227H226.189V43.19H226.543V41.4227ZM227.073 42.3064V41.3874H225.306V42.3064H227.073ZM226.189 42.271H229.406V40.5037H226.189V42.271ZM229.406 42.271C230.168 42.271 230.638 42.3834 230.903 42.5228L231.726 40.9589C231.096 40.6271 230.294 40.5037 229.406 40.5037V42.271ZM230.952 42.5467C231.22 42.6674 231.426 42.863 231.577 43.1811L233.173 42.4213C232.853 41.7498 232.352 41.2385 231.677 40.935L230.952 42.5467ZM232.962 43.4617C233.314 43.1484 233.837 42.7976 234.557 42.4152L233.728 40.8545C232.939 41.2732 232.284 41.7 231.788 42.1408L232.962 43.4617ZM234.557 42.4152C235.159 42.0955 235.906 41.9176 236.829 41.9176V40.1503C235.678 40.1503 234.634 40.373 233.728 40.8545L234.557 42.4152ZM236.829 41.9176C237.198 41.9176 237.538 41.9661 237.852 42.0584L238.35 40.3629C237.863 40.2196 237.355 40.1503 236.829 40.1503V41.9176ZM237.909 42.0733C238.238 42.1464 238.469 42.2556 238.631 42.3771L239.692 40.9632C239.288 40.6606 238.812 40.4635 238.293 40.3481L237.909 42.0733ZM238.671 42.4054C238.911 42.5652 239.079 42.7527 239.195 42.9697L240.754 42.138C240.493 41.648 240.119 41.2465 239.652 40.9349L238.671 42.4054ZM239.207 42.9922C239.397 43.3237 239.551 43.5822 239.663 43.7509L241.134 42.7706C241.058 42.6565 240.929 42.4437 240.742 42.1154L239.207 42.9922ZM239.871 42.552L238.21 43.7891L239.265 45.2066L240.926 43.9695L239.871 42.552ZM239.456 43.9842C239.123 43.5177 238.664 43.1519 238.124 42.8676L237.301 44.4315C237.656 44.6185 237.88 44.8181 238.018 45.0115L239.456 43.9842ZM238.155 42.8848C237.555 42.5374 236.88 42.3771 236.157 42.3771V44.1444C236.613 44.1444 236.974 44.2433 237.27 44.4143L238.155 42.8848ZM236.157 42.3771C235.321 42.3771 234.544 42.5257 233.845 42.8462L234.581 44.4528C235.013 44.255 235.532 44.1444 236.157 44.1444V42.3771ZM233.832 42.8524C233.192 43.1584 232.647 43.5629 232.223 44.0775L233.587 45.201C233.823 44.9144 234.15 44.659 234.594 44.4467L233.832 42.8524ZM232.025 44.7126C232.048 44.9974 232.072 45.2706 232.096 45.5322L233.856 45.3722C233.833 45.1154 233.809 44.8466 233.786 44.5658L232.025 44.7126ZM232.097 45.5401C232.118 45.7579 232.128 45.9271 232.128 46.0531H233.895C233.895 45.8492 233.88 45.6177 233.855 45.3643L232.097 45.5401ZM232.128 46.0531V58H233.895V46.0531H232.128ZM233.011 57.1164H228.982V58.8836H233.011V57.1164Z" fill="#EEF20C" mask="url(#path-2-outside-1_1630_89830)"/>
<path d="M93.9794 87.2474C93.6377 87.2474 93.3726 87.1473 93.1841 86.947C92.9956 86.7467 92.9013 86.4875 92.9013 86.1694C92.9013 85.8513 92.9956 85.5921 93.1841 85.3918C93.3726 85.1915 93.6377 85.0913 93.9794 85.0913C94.3211 85.0913 94.5861 85.1915 94.7747 85.3918C94.9632 85.5921 95.0574 85.8513 95.0574 86.1694C95.0574 86.4875 94.9632 86.7467 94.7747 86.947C94.5861 87.1473 94.3211 87.2474 93.9794 87.2474ZM97.9316 87.2474C97.59 87.2474 97.3249 87.1473 97.1363 86.947C96.9478 86.7467 96.8536 86.4875 96.8536 86.1694C96.8536 85.8513 96.9478 85.5921 97.1363 85.3918C97.3249 85.1915 97.59 85.0913 97.9316 85.0913C98.2733 85.0913 98.5384 85.1915 98.7269 85.3918C98.9154 85.5921 99.0097 85.8513 99.0097 86.1694C99.0097 86.4875 98.9154 86.7467 98.7269 86.947C98.5384 87.1473 98.2733 87.2474 97.9316 87.2474ZM101.884 87.2474C101.542 87.2474 101.277 87.1473 101.089 86.947C100.9 86.7467 100.806 86.4875 100.806 86.1694C100.806 85.8513 100.9 85.5921 101.089 85.3918C101.277 85.1915 101.542 85.0913 101.884 85.0913C102.226 85.0913 102.491 85.1915 102.679 85.3918C102.868 85.5921 102.962 85.8513 102.962 86.1694C102.962 86.4875 102.868 86.7467 102.679 86.947C102.491 87.1473 102.226 87.2474 101.884 87.2474ZM105.346 87V77.6333C105.346 77.1031 105.269 76.679 105.116 76.3609C104.975 76.031 104.639 75.866 104.109 75.866H103.932V75.3358H108.792C109.11 75.3358 109.475 75.3594 109.888 75.4065C110.3 75.4419 110.718 75.5243 111.143 75.6539C111.579 75.7835 111.979 75.978 112.344 76.2372C112.71 76.4964 113.004 76.8439 113.228 77.2799C113.452 77.704 113.564 78.2401 113.564 78.8881C113.564 79.5008 113.452 80.0133 113.228 80.4257C113.004 80.8262 112.715 81.1502 112.362 81.3977C112.02 81.6451 111.655 81.8336 111.266 81.9632C110.878 82.0928 110.506 82.1812 110.153 82.2283C109.811 82.2636 109.534 82.2813 109.322 82.2813H107.643V87H105.346ZM107.643 81.5744H108.704C109.01 81.5744 109.305 81.5332 109.587 81.4507C109.87 81.3682 110.123 81.2209 110.347 81.0089C110.571 80.7968 110.748 80.514 110.878 80.1606C111.019 79.7953 111.09 79.3417 111.09 78.7997C111.09 78.2578 111.019 77.81 110.878 77.4566C110.748 77.0913 110.571 76.8086 110.347 76.6083C110.135 76.3962 109.894 76.2489 109.623 76.1665C109.352 76.084 109.075 76.0428 108.792 76.0428C108.662 76.0428 108.503 76.0486 108.315 76.0604C108.138 76.0722 107.914 76.1076 107.643 76.1665V81.5744ZM117.246 87.1767C116.751 87.1767 116.315 87.1178 115.938 87C115.573 86.8822 115.26 86.7231 115.001 86.5228C114.754 86.3108 114.565 86.0574 114.436 85.7629C114.306 85.4683 114.241 85.1443 114.241 84.7909C114.241 84.2253 114.371 83.7482 114.63 83.3594C114.901 82.9588 115.384 82.6583 116.079 82.458C116.774 82.246 117.752 82.1399 119.013 82.1399H119.278C119.278 81.433 119.213 80.8734 119.084 80.461C118.954 80.0486 118.76 79.7541 118.5 79.5773C118.253 79.4006 117.953 79.3123 117.599 79.3123C117.199 79.3123 116.839 79.4124 116.521 79.6127C116.203 79.813 115.973 80.243 115.832 80.9028H114.86C114.86 80.5965 114.878 80.2843 114.913 79.9662C114.96 79.648 115.09 79.3712 115.302 79.1355C115.514 78.8999 115.861 78.7408 116.344 78.6584C116.839 78.5641 117.375 78.517 117.953 78.517C118.53 78.517 119.042 78.5936 119.49 78.7467C119.938 78.8999 120.315 79.1296 120.621 79.436C120.939 79.7423 121.175 80.1311 121.328 80.6024C121.493 81.0619 121.576 81.6038 121.576 82.2283V87H120.073L119.455 86.2047H119.366C119.213 86.4521 118.954 86.676 118.589 86.8763C118.224 87.0766 117.776 87.1767 117.246 87.1767ZM117.776 86.2931C118.165 86.2931 118.489 86.1635 118.748 85.9043C119.007 85.6451 119.184 85.3918 119.278 85.1443V82.9352H119.013C118.165 82.9352 117.552 83.0884 117.175 83.3947C116.81 83.701 116.627 84.1664 116.627 84.7909C116.627 85.2857 116.727 85.6627 116.928 85.9219C117.14 86.1694 117.422 86.2931 117.776 86.2931ZM127.374 87.1767C126.431 87.1767 125.642 86.9823 125.006 86.5935C124.381 86.1929 123.91 85.6627 123.592 85.003C123.286 84.3432 123.132 83.6245 123.132 82.8468C123.132 82.0575 123.286 81.3388 123.592 80.6907C123.91 80.031 124.381 79.5067 125.006 79.1179C125.642 78.7173 126.431 78.517 127.374 78.517C128.046 78.517 128.611 78.5641 129.071 78.6584C129.542 78.7526 129.889 78.9117 130.113 79.1355C130.337 79.3594 130.467 79.6598 130.502 80.0368C130.537 80.4139 130.555 80.9382 130.555 81.6097H130.025C129.978 80.8557 129.742 80.2843 129.318 79.8955C128.906 79.5067 128.346 79.3123 127.639 79.3123C127.215 79.3123 126.844 79.4419 126.526 79.7011C126.208 79.9485 125.96 80.3373 125.783 80.8675C125.607 81.3859 125.518 82.0457 125.518 82.8468C125.518 83.6245 125.601 84.2784 125.766 84.8086C125.931 85.327 126.172 85.7217 126.49 85.9926C126.82 86.2518 127.233 86.3814 127.727 86.3814C128.34 86.3814 128.835 86.2401 129.212 85.9573C129.601 85.6745 129.948 85.327 130.255 84.9146L130.803 85.3211C130.638 85.5803 130.414 85.8571 130.131 86.1517C129.86 86.4345 129.501 86.676 129.053 86.8763C128.617 87.0766 128.057 87.1767 127.374 87.1767ZM138.951 87.1767C138.457 87.1767 137.991 87.0766 137.555 86.8763C137.119 86.6642 136.707 86.2931 136.318 85.7629L134.622 83.5361V87H132.324V77.6333C132.324 77.1031 132.247 76.679 132.094 76.3609C131.953 76.031 131.617 75.866 131.087 75.866H130.91V75.3358H133.031C133.443 75.3358 133.761 75.4065 133.985 75.5479C134.221 75.6893 134.386 75.9249 134.48 76.2548C134.574 76.5847 134.622 77.0442 134.622 77.6333V82.6701L136.76 80.0545C137.125 79.6186 137.485 79.2828 137.838 79.0472C138.192 78.8115 138.68 78.6937 139.305 78.6937H139.658V79.1532C139.305 79.1532 138.987 79.2239 138.704 79.3653C138.421 79.5067 138.15 79.7305 137.891 80.0368L136.177 82.1223L138.527 85.2327C138.834 85.6451 139.122 85.9573 139.393 86.1694C139.664 86.3814 139.923 86.5169 140.171 86.5758V87C140.077 87.0471 139.906 87.0884 139.658 87.1237C139.411 87.1591 139.175 87.1767 138.951 87.1767ZM143.703 87.1767C143.209 87.1767 142.773 87.1178 142.396 87C142.03 86.8822 141.718 86.7231 141.459 86.5228C141.212 86.3108 141.023 86.0574 140.893 85.7629C140.764 85.4683 140.699 85.1443 140.699 84.7909C140.699 84.2253 140.829 83.7482 141.088 83.3594C141.359 82.9588 141.842 82.6583 142.537 82.458C143.232 82.246 144.21 82.1399 145.471 82.1399H145.736C145.736 81.433 145.671 80.8734 145.541 80.461C145.412 80.0486 145.217 79.7541 144.958 79.5773C144.711 79.4006 144.41 79.3123 144.057 79.3123C143.656 79.3123 143.297 79.4124 142.979 79.6127C142.661 79.813 142.431 80.243 142.29 80.9028H141.318C141.318 80.5965 141.335 80.2843 141.371 79.9662C141.418 79.648 141.547 79.3712 141.759 79.1355C141.971 78.8999 142.319 78.7408 142.802 78.6584C143.297 78.5641 143.833 78.517 144.41 78.517C144.988 78.517 145.5 78.5936 145.948 78.7467C146.396 78.8999 146.773 79.1296 147.079 79.436C147.397 79.7423 147.633 80.1311 147.786 80.6024C147.951 81.0619 148.033 81.6038 148.033 82.2283V87H146.531L145.913 86.2047H145.824C145.671 86.4521 145.412 86.676 145.047 86.8763C144.681 87.0766 144.234 87.1767 143.703 87.1767ZM144.234 86.2931C144.622 86.2931 144.946 86.1635 145.206 85.9043C145.465 85.6451 145.642 85.3918 145.736 85.1443V82.9352H145.471C144.622 82.9352 144.01 83.0884 143.633 83.3947C143.267 83.701 143.085 84.1664 143.085 84.7909C143.085 85.2857 143.185 85.6627 143.385 85.9219C143.597 86.1694 143.88 86.2931 144.234 86.2931ZM153.531 90.5346C152.707 90.5346 151.964 90.4462 151.304 90.2695C150.656 90.1046 150.144 89.8218 149.767 89.4212C149.39 89.0206 149.201 88.4786 149.201 87.7953C149.201 87.3711 149.319 87.0059 149.555 86.6996C149.802 86.3932 150.109 86.1399 150.474 85.9396C150.839 85.7393 151.21 85.5921 151.587 85.4978C151.363 85.4271 151.175 85.3152 151.022 85.162C150.869 85.0088 150.792 84.7968 150.792 84.5258C150.792 84.3255 150.851 84.1546 150.969 84.0133C151.086 83.8601 151.263 83.7364 151.499 83.6421C151.004 83.4654 150.586 83.165 150.244 82.7408C149.902 82.3049 149.732 81.8159 149.732 81.274C149.732 80.5906 149.902 80.0486 150.244 79.648C150.586 79.2475 151.039 78.9588 151.605 78.7821C152.182 78.6053 152.824 78.517 153.531 78.517H157.243V78.9941L155.652 79.2062C156.147 79.3947 156.547 79.6834 156.854 80.0722C157.172 80.461 157.331 80.8616 157.331 81.274C157.331 81.9455 157.172 82.4816 156.854 82.8822C156.547 83.2828 156.106 83.5714 155.528 83.7482C154.963 83.9131 154.297 83.9956 153.531 83.9956C153.001 83.9956 152.571 84.025 152.241 84.084C151.923 84.1429 151.764 84.2901 151.764 84.5258C151.764 84.7261 151.923 84.8557 152.241 84.9146C152.571 84.9617 153.001 84.9912 153.531 85.003C154.332 85.0147 155.057 85.1267 155.705 85.3387C156.365 85.539 156.889 85.8454 157.278 86.2577C157.667 86.6583 157.861 87.1708 157.861 87.7953C157.861 88.4786 157.673 89.0206 157.296 89.4212C156.919 89.8218 156.4 90.1046 155.74 90.2695C155.092 90.4462 154.356 90.5346 153.531 90.5346ZM153.531 89.7393C154.12 89.7393 154.592 89.5803 154.945 89.2621C155.299 88.9558 155.475 88.4669 155.475 87.7953C155.475 87.2651 155.31 86.8292 154.98 86.4875C154.651 86.1458 154.215 85.9219 153.673 85.8159L152.842 85.7275C152.453 85.8925 152.147 86.1399 151.923 86.4698C151.699 86.7879 151.587 87.2297 151.587 87.7953C151.587 88.4669 151.764 88.9558 152.117 89.2621C152.471 89.5803 152.942 89.7393 153.531 89.7393ZM153.531 83.2887C153.944 83.2887 154.279 83.1355 154.539 82.8292C154.81 82.5228 154.945 82.0044 154.945 81.274C154.945 80.6024 154.81 80.0958 154.539 79.7541C154.279 79.4006 153.944 79.2239 153.531 79.2239C153.119 79.2239 152.777 79.3888 152.506 79.7187C152.247 80.0368 152.117 80.5553 152.117 81.274C152.117 82.0044 152.247 82.5228 152.506 82.8292C152.777 83.1355 153.119 83.2887 153.531 83.2887ZM162.923 87.1767C162.099 87.1767 161.38 86.9882 160.767 86.6112C160.155 86.2342 159.683 85.7217 159.353 85.0736C159.023 84.4139 158.859 83.6716 158.859 82.8468C158.859 81.9043 159.029 81.1149 159.371 80.4787C159.713 79.8307 160.178 79.3417 160.767 79.0118C161.356 78.6819 162.016 78.517 162.747 78.517C163.477 78.517 164.137 78.6642 164.726 78.9588C165.315 79.2533 165.78 79.6657 166.122 80.1959C166.464 80.7261 166.635 81.3446 166.635 82.0516L166.564 83.165H161.244C161.244 84.3314 161.421 85.162 161.775 85.6569C162.14 86.1399 162.611 86.3814 163.188 86.3814C163.801 86.3814 164.296 86.2401 164.673 85.9573C165.062 85.6745 165.409 85.327 165.716 84.9146L166.264 85.3211C166.099 85.5803 165.875 85.8571 165.592 86.1517C165.321 86.4345 164.968 86.676 164.532 86.8763C164.107 87.0766 163.571 87.1767 162.923 87.1767ZM161.244 82.3697H164.249C164.249 81.2033 164.107 80.4021 163.825 79.9662C163.554 79.5302 163.194 79.3123 162.747 79.3123C162.487 79.3123 162.24 79.4065 162.004 79.595C161.78 79.7835 161.598 80.1016 161.456 80.5494C161.315 80.9853 161.244 81.5921 161.244 82.3697ZM171.244 87.1767C170.513 87.1767 169.912 87.1119 169.441 86.9823C168.981 86.8527 168.634 86.676 168.398 86.4521C168.186 86.2518 168.062 85.9632 168.027 85.5862C167.992 85.2091 167.974 84.7968 167.974 84.3491H168.593C168.687 84.9146 168.917 85.3976 169.282 85.7982C169.647 86.187 170.183 86.3814 170.89 86.3814C171.55 86.3814 172.009 86.2695 172.269 86.0457C172.528 85.81 172.657 85.5214 172.657 85.1797C172.657 84.838 172.504 84.567 172.198 84.3667C171.892 84.1546 171.515 83.9485 171.067 83.7482L170.148 83.3594C169.441 83.053 168.887 82.7055 168.487 82.3167C168.086 81.9279 167.886 81.4448 167.886 80.8675C167.886 80.1016 168.204 79.5184 168.84 79.1179C169.476 78.7173 170.277 78.517 171.244 78.517C171.974 78.517 172.569 78.5818 173.029 78.7114C173.5 78.841 173.853 79.0177 174.089 79.2416C174.301 79.4419 174.425 79.7305 174.46 80.1075C174.495 80.4846 174.513 80.8969 174.513 81.3446H173.895C173.8 80.7791 173.571 80.3019 173.205 79.9131C172.84 79.5125 172.304 79.3123 171.597 79.3123C171.067 79.3123 170.684 79.4301 170.448 79.6657C170.213 79.8896 170.095 80.1723 170.095 80.514C170.095 80.8321 170.207 81.0913 170.431 81.2916C170.654 81.4801 170.961 81.6569 171.35 81.8218L172.41 82.2636C173.223 82.6053 173.836 82.9647 174.248 83.3417C174.66 83.7069 174.867 84.2018 174.867 84.8262C174.867 85.5921 174.525 86.1753 173.842 86.5758C173.158 86.9764 172.292 87.1767 171.244 87.1767ZM177.443 87.2474C177.101 87.2474 176.836 87.1473 176.648 86.947C176.459 86.7467 176.365 86.4875 176.365 86.1694C176.365 85.8513 176.459 85.5921 176.648 85.3918C176.836 85.1915 177.101 85.0913 177.443 85.0913C177.784 85.0913 178.05 85.1915 178.238 85.3918C178.427 85.5921 178.521 85.8513 178.521 86.1694C178.521 86.4875 178.427 86.7467 178.238 86.947C178.05 87.1473 177.784 87.2474 177.443 87.2474ZM181.395 87.2474C181.053 87.2474 180.788 87.1473 180.6 86.947C180.411 86.7467 180.317 86.4875 180.317 86.1694C180.317 85.8513 180.411 85.5921 180.6 85.3918C180.788 85.1915 181.053 85.0913 181.395 85.0913C181.737 85.0913 182.002 85.1915 182.19 85.3918C182.379 85.5921 182.473 85.8513 182.473 86.1694C182.473 86.4875 182.379 86.7467 182.19 86.947C182.002 87.1473 181.737 87.2474 181.395 87.2474ZM185.347 87.2474C185.006 87.2474 184.741 87.1473 184.552 86.947C184.364 86.7467 184.269 86.4875 184.269 86.1694C184.269 85.8513 184.364 85.5921 184.552 85.3918C184.741 85.1915 185.006 85.0913 185.347 85.0913C185.689 85.0913 185.954 85.1915 186.143 85.3918C186.331 85.5921 186.425 85.8513 186.425 86.1694C186.425 86.4875 186.331 86.7467 186.143 86.947C185.954 87.1473 185.689 87.2474 185.347 87.2474Z" fill="url(#paint1_linear_1630_89830)"/>
<defs>
<linearGradient id="paint0_linear_1630_89830" x1="151.961" y1="65.6207" x2="150.608" y2="32.4591" gradientUnits="userSpaceOnUse">
<stop stop-color="#03D600"/>
<stop offset="1" stop-color="#015F00"/>
</linearGradient>
<linearGradient id="paint1_linear_1630_89830" x1="142.4" y1="88.8947" x2="141.273" y2="74.947" gradientUnits="userSpaceOnUse">
<stop stop-color="#E40301"/>
<stop offset="1" stop-color="#7E0201"/>
</linearGradient>
</defs>
</svg>
