<svg width="280" height="120" viewBox="0 0 280 120" fill="none" xmlns="http://www.w3.org/2000/svg">
<rect width="280" height="120" fill="white"/>
<path d="M80.8693 33.9091H87.3182L95.9545 54.9886H96.2955L104.932 33.9091H111.381V63H106.324V43.0142H106.054L98.0142 62.9148H94.2358L86.196 42.9716H85.9261V63H80.8693V33.9091ZM120.855 63H115.23L125.472 33.9091H131.977L142.233 63H136.608L128.838 39.875H128.611L120.855 63ZM121.04 51.5938H136.381V55.8267H121.04V51.5938ZM146.065 63V33.9091H151.335V46.2244H164.815V33.9091H170.099V63H164.815V50.642H151.335V63H146.065ZM179.566 63H173.941L184.183 33.9091H190.688L200.944 63H195.319L187.549 39.875H187.322L179.566 63ZM179.751 51.5938H195.092V55.8267H179.751V51.5938Z" fill="#9D005B"/>
<path d="M54.7955 78.6634V76.4545H66.4006V78.6634H61.9048V91H59.2912V78.6634H54.7955ZM71.7006 91.2131C70.6353 91.2131 69.712 90.9787 68.9308 90.5099C68.1495 90.0412 67.5434 89.3854 67.1126 88.5426C66.6864 87.6998 66.4734 86.715 66.4734 85.5881C66.4734 84.4612 66.6864 83.474 67.1126 82.6264C67.5434 81.7789 68.1495 81.1207 68.9308 80.652C69.712 80.1832 70.6353 79.9489 71.7006 79.9489C72.766 79.9489 73.6893 80.1832 74.4705 80.652C75.2518 81.1207 75.8555 81.7789 76.2816 82.6264C76.7125 83.474 76.9279 84.4612 76.9279 85.5881C76.9279 86.715 76.7125 87.6998 76.2816 88.5426C75.8555 89.3854 75.2518 90.0412 74.4705 90.5099C73.6893 90.9787 72.766 91.2131 71.7006 91.2131ZM71.7148 89.1534C72.2925 89.1534 72.7754 88.9948 73.1637 88.6776C73.552 88.3556 73.8408 87.9247 74.0302 87.3849C74.2243 86.8452 74.3214 86.2438 74.3214 85.581C74.3214 84.9134 74.2243 84.3097 74.0302 83.7699C73.8408 83.2254 73.552 82.7921 73.1637 82.4702C72.7754 82.1482 72.2925 81.9872 71.7148 81.9872C71.123 81.9872 70.6306 82.1482 70.2376 82.4702C69.8493 82.7921 69.5581 83.2254 69.364 83.7699C69.1746 84.3097 69.0799 84.9134 69.0799 85.581C69.0799 86.2438 69.1746 86.8452 69.364 87.3849C69.5581 87.9247 69.8493 88.3556 70.2376 88.6776C70.6306 88.9948 71.123 89.1534 71.7148 89.1534ZM86.0632 86.4119V80.0909H88.6342V91H86.1413V89.0611H86.0277C85.7815 89.6719 85.3767 90.1714 84.8132 90.5597C84.2545 90.9479 83.5656 91.142 82.7464 91.142C82.0315 91.142 81.3994 90.9834 80.8501 90.6662C80.3056 90.3442 79.8795 89.8778 79.5717 89.267C79.264 88.6515 79.1101 87.9081 79.1101 87.0369V80.0909H81.6811V86.6392C81.6811 87.3305 81.8705 87.8797 82.2493 88.2869C82.6281 88.6941 83.1252 88.8977 83.7408 88.8977C84.1196 88.8977 84.4865 88.8054 84.8416 88.6207C85.1967 88.4361 85.4879 88.1615 85.7152 87.7969C85.9472 87.4276 86.0632 86.9659 86.0632 86.4119ZM91.2781 91V80.0909H93.771V81.9091H93.8846C94.0835 81.2794 94.4244 80.794 94.9073 80.4531C95.395 80.1075 95.9513 79.9347 96.5763 79.9347C96.7184 79.9347 96.877 79.9418 97.0522 79.956C97.2321 79.9654 97.3813 79.982 97.4996 80.0057V82.3707C97.3907 82.3329 97.2179 82.2997 96.9812 82.2713C96.7492 82.2382 96.5243 82.2216 96.3065 82.2216C95.8377 82.2216 95.4163 82.3234 95.0423 82.527C94.6729 82.7259 94.3817 83.0028 94.1687 83.358C93.9556 83.7131 93.8491 84.1226 93.8491 84.5866V91H91.2781ZM107.83 82.9744L105.486 83.2301C105.42 82.9934 105.304 82.7708 105.138 82.5625C104.977 82.3542 104.759 82.1861 104.485 82.0582C104.21 81.9304 103.874 81.8665 103.476 81.8665C102.941 81.8665 102.491 81.9825 102.127 82.2145C101.767 82.4465 101.589 82.7472 101.594 83.1165C101.589 83.4337 101.705 83.6918 101.942 83.8906C102.184 84.0895 102.581 84.2528 103.135 84.3807L104.996 84.7784C106.028 85.0009 106.795 85.3537 107.297 85.8366C107.804 86.3196 108.06 86.9517 108.064 87.733C108.06 88.4195 107.858 89.0256 107.461 89.5511C107.068 90.072 106.521 90.4792 105.82 90.7727C105.119 91.0663 104.314 91.2131 103.405 91.2131C102.07 91.2131 100.995 90.9337 100.181 90.375C99.3664 89.8116 98.881 89.0279 98.7248 88.0241L101.232 87.7827C101.346 88.2751 101.587 88.6468 101.956 88.8977C102.326 89.1487 102.806 89.2741 103.398 89.2741C104.009 89.2741 104.499 89.1487 104.868 88.8977C105.242 88.6468 105.429 88.3366 105.429 87.9673C105.429 87.6548 105.309 87.3968 105.067 87.1932C104.83 86.9896 104.461 86.8333 103.959 86.7244L102.098 86.3338C101.052 86.116 100.278 85.7491 99.7759 85.233C99.274 84.7121 99.0254 84.054 99.0302 83.2585C99.0254 82.5862 99.2077 82.0038 99.5771 81.5114C99.9511 81.0142 100.47 80.6307 101.132 80.3608C101.8 80.0862 102.569 79.9489 103.441 79.9489C104.719 79.9489 105.725 80.2211 106.459 80.7656C107.198 81.3101 107.655 82.0464 107.83 82.9744ZM118.284 91.2202C117.593 91.2202 116.971 91.0971 116.417 90.8509C115.867 90.5999 115.432 90.2306 115.11 89.7429C114.792 89.2552 114.634 88.6539 114.634 87.9389C114.634 87.3234 114.748 86.8144 114.975 86.4119C115.202 86.0095 115.512 85.6875 115.905 85.446C116.298 85.2045 116.741 85.0223 117.233 84.8991C117.73 84.7713 118.244 84.679 118.775 84.6222C119.414 84.5559 119.932 84.4967 120.33 84.4446C120.728 84.3878 121.016 84.3026 121.196 84.1889C121.381 84.0705 121.473 83.8883 121.473 83.642V83.5994C121.473 83.0644 121.315 82.6501 120.998 82.3565C120.68 82.063 120.223 81.9162 119.627 81.9162C118.997 81.9162 118.498 82.0535 118.128 82.3281C117.764 82.6027 117.517 82.9271 117.39 83.3011L114.989 82.9602C115.178 82.2973 115.491 81.7434 115.926 81.2983C116.362 80.8485 116.895 80.5123 117.525 80.2898C118.154 80.0625 118.85 79.9489 119.613 79.9489C120.138 79.9489 120.661 80.0104 121.182 80.1335C121.703 80.2566 122.179 80.4602 122.61 80.7443C123.041 81.0237 123.386 81.4048 123.647 81.8878C123.912 82.3707 124.044 82.9744 124.044 83.6989V91H121.573V89.5014H121.488C121.331 89.8045 121.111 90.0885 120.827 90.3537C120.548 90.6141 120.195 90.8248 119.769 90.9858C119.347 91.142 118.853 91.2202 118.284 91.2202ZM118.952 89.331C119.468 89.331 119.916 89.2292 120.294 89.0256C120.673 88.8172 120.964 88.5426 121.168 88.2017C121.376 87.8608 121.48 87.4891 121.48 87.0866V85.8011C121.4 85.8674 121.263 85.929 121.069 85.9858C120.879 86.0426 120.666 86.0923 120.429 86.1349C120.193 86.1776 119.958 86.2154 119.726 86.2486C119.494 86.2817 119.293 86.3101 119.123 86.3338C118.739 86.3859 118.396 86.4711 118.093 86.5895C117.79 86.7079 117.551 86.8736 117.375 87.0866C117.2 87.295 117.113 87.5649 117.113 87.8963C117.113 88.3698 117.285 88.7273 117.631 88.9688C117.977 89.2102 118.417 89.331 118.952 89.331ZM129.201 84.608V91H126.63V80.0909H129.087V81.9446H129.215C129.466 81.3338 129.866 80.8485 130.415 80.4886C130.969 80.1288 131.653 79.9489 132.468 79.9489C133.221 79.9489 133.876 80.1098 134.435 80.4318C134.998 80.7538 135.434 81.2202 135.742 81.831C136.054 82.4418 136.208 83.1828 136.203 84.054V91H133.632V84.4517C133.632 83.7225 133.443 83.152 133.064 82.7401C132.69 82.3281 132.172 82.1222 131.509 82.1222C131.059 82.1222 130.659 82.2216 130.309 82.4205C129.963 82.6146 129.691 82.8963 129.492 83.2656C129.298 83.6349 129.201 84.0824 129.201 84.608ZM142.865 91.1918C142.008 91.1918 141.241 90.9716 140.564 90.5312C139.887 90.0909 139.352 89.4517 138.959 88.6136C138.566 87.7756 138.37 86.7576 138.37 85.5597C138.37 84.3475 138.569 83.3248 138.966 82.4915C139.369 81.6534 139.911 81.0213 140.593 80.5952C141.275 80.1643 142.034 79.9489 142.873 79.9489C143.512 79.9489 144.037 80.0578 144.449 80.2756C144.861 80.4886 145.188 80.7467 145.429 81.0497C145.671 81.348 145.858 81.6297 145.99 81.8949H146.097V76.4545H148.675V91H146.147V89.2812H145.99C145.858 89.5464 145.666 89.8281 145.415 90.1264C145.164 90.42 144.833 90.6709 144.421 90.8793C144.009 91.0876 143.49 91.1918 142.865 91.1918ZM143.583 89.0824C144.127 89.0824 144.591 88.9356 144.975 88.642C145.358 88.3437 145.65 87.9295 145.848 87.3991C146.047 86.8688 146.147 86.2509 146.147 85.5455C146.147 84.84 146.047 84.2268 145.848 83.706C145.654 83.1851 145.365 82.7803 144.982 82.4915C144.603 82.2027 144.137 82.0582 143.583 82.0582C143.01 82.0582 142.532 82.2074 142.148 82.5057C141.765 82.804 141.476 83.2159 141.282 83.7415C141.087 84.267 140.99 84.8684 140.99 85.5455C140.99 86.2273 141.087 86.8357 141.282 87.3707C141.48 87.901 141.772 88.3201 142.155 88.6278C142.543 88.9309 143.019 89.0824 143.583 89.0824ZM155.85 78.6634V76.4545H167.455V78.6634H162.96V91H160.346V78.6634H155.85ZM168.446 91V80.0909H170.939V81.9091H171.053C171.251 81.2794 171.592 80.794 172.075 80.4531C172.563 80.1075 173.119 79.9347 173.744 79.9347C173.886 79.9347 174.045 79.9418 174.22 79.956C174.4 79.9654 174.549 79.982 174.668 80.0057V82.3707C174.559 82.3329 174.386 82.2997 174.149 82.2713C173.917 82.2382 173.692 82.2216 173.474 82.2216C173.006 82.2216 172.584 82.3234 172.21 82.527C171.841 82.7259 171.55 83.0028 171.337 83.358C171.124 83.7131 171.017 84.1226 171.017 84.5866V91H168.446ZM179.32 91.2202C178.628 91.2202 178.006 91.0971 177.452 90.8509C176.902 90.5999 176.467 90.2306 176.145 89.7429C175.828 89.2552 175.669 88.6539 175.669 87.9389C175.669 87.3234 175.783 86.8144 176.01 86.4119C176.237 86.0095 176.547 85.6875 176.94 85.446C177.333 85.2045 177.776 85.0223 178.268 84.8991C178.766 84.7713 179.279 84.679 179.81 84.6222C180.449 84.5559 180.967 84.4967 181.365 84.4446C181.763 84.3878 182.052 84.3026 182.232 84.1889C182.416 84.0705 182.509 83.8883 182.509 83.642V83.5994C182.509 83.0644 182.35 82.6501 182.033 82.3565C181.715 82.063 181.259 81.9162 180.662 81.9162C180.032 81.9162 179.533 82.0535 179.163 82.3281C178.799 82.6027 178.553 82.9271 178.425 83.3011L176.024 82.9602C176.214 82.2973 176.526 81.7434 176.962 81.2983C177.397 80.8485 177.93 80.5123 178.56 80.2898C179.189 80.0625 179.885 79.9489 180.648 79.9489C181.173 79.9489 181.696 80.0104 182.217 80.1335C182.738 80.2566 183.214 80.4602 183.645 80.7443C184.076 81.0237 184.421 81.4048 184.682 81.8878C184.947 82.3707 185.08 82.9744 185.08 83.6989V91H182.608V89.5014H182.523C182.366 89.8045 182.146 90.0885 181.862 90.3537C181.583 90.6141 181.23 90.8248 180.804 90.9858C180.383 91.142 179.888 91.2202 179.32 91.2202ZM179.987 89.331C180.503 89.331 180.951 89.2292 181.33 89.0256C181.708 88.8172 182 88.5426 182.203 88.2017C182.411 87.8608 182.516 87.4891 182.516 87.0866V85.8011C182.435 85.8674 182.298 85.929 182.104 85.9858C181.914 86.0426 181.701 86.0923 181.464 86.1349C181.228 86.1776 180.993 86.2154 180.761 86.2486C180.529 86.2817 180.328 86.3101 180.158 86.3338C179.774 86.3859 179.431 86.4711 179.128 86.5895C178.825 86.7079 178.586 86.8736 178.411 87.0866C178.235 87.295 178.148 87.5649 178.148 87.8963C178.148 88.3698 178.321 88.7273 178.666 88.9688C179.012 89.2102 179.452 89.331 179.987 89.331ZM197.018 80.0909L193.134 91H190.293L186.408 80.0909H189.149L191.656 88.1946H191.77L194.284 80.0909H197.018ZM203.256 91.2131C202.162 91.2131 201.218 90.9858 200.422 90.5312C199.632 90.072 199.023 89.4233 198.597 88.5852C198.171 87.7424 197.958 86.7505 197.958 85.6094C197.958 84.4872 198.171 83.5024 198.597 82.6548C199.028 81.8026 199.629 81.1397 200.401 80.6662C201.173 80.188 202.079 79.9489 203.121 79.9489C203.793 79.9489 204.428 80.0578 205.025 80.2756C205.626 80.4886 206.156 80.8201 206.615 81.2699C207.079 81.7197 207.444 82.2926 207.709 82.9886C207.974 83.6799 208.107 84.5038 208.107 85.4602V86.2486H199.165V84.5156H205.642C205.638 84.0232 205.531 83.5852 205.323 83.2017C205.114 82.8134 204.823 82.508 204.449 82.2855C204.08 82.063 203.649 81.9517 203.157 81.9517C202.631 81.9517 202.169 82.0795 201.772 82.3352C201.374 82.5862 201.064 82.9176 200.841 83.3295C200.623 83.7367 200.512 84.1842 200.507 84.6719V86.1847C200.507 86.8191 200.623 87.3636 200.855 87.8182C201.087 88.268 201.412 88.6136 201.828 88.8551C202.245 89.0919 202.733 89.2102 203.292 89.2102C203.666 89.2102 204.004 89.1581 204.307 89.054C204.61 88.9451 204.873 88.7865 205.096 88.5781C205.318 88.3698 205.486 88.1117 205.6 87.804L208 88.0739C207.849 88.7083 207.56 89.2623 207.134 89.7358C206.712 90.2045 206.173 90.5691 205.515 90.8295C204.856 91.0852 204.104 91.2131 203.256 91.2131ZM212.853 76.4545V91H210.282V76.4545H212.853ZM224.119 82.9744L221.775 83.2301C221.709 82.9934 221.593 82.7708 221.427 82.5625C221.266 82.3542 221.048 82.1861 220.774 82.0582C220.499 81.9304 220.163 81.8665 219.765 81.8665C219.23 81.8665 218.78 81.9825 218.416 82.2145C218.056 82.4465 217.878 82.7472 217.883 83.1165C217.878 83.4337 217.994 83.6918 218.231 83.8906C218.473 84.0895 218.87 84.2528 219.424 84.3807L221.285 84.7784C222.317 85.0009 223.084 85.3537 223.586 85.8366C224.093 86.3196 224.349 86.9517 224.353 87.733C224.349 88.4195 224.147 89.0256 223.75 89.5511C223.357 90.072 222.81 90.4792 222.109 90.7727C221.408 91.0663 220.603 91.2131 219.694 91.2131C218.359 91.2131 217.284 90.9337 216.47 90.375C215.655 89.8116 215.17 89.0279 215.014 88.0241L217.521 87.7827C217.635 88.2751 217.876 88.6468 218.245 88.8977C218.615 89.1487 219.095 89.2741 219.687 89.2741C220.298 89.2741 220.788 89.1487 221.157 88.8977C221.531 88.6468 221.718 88.3366 221.718 87.9673C221.718 87.6548 221.598 87.3968 221.356 87.1932C221.119 86.9896 220.75 86.8333 220.248 86.7244L218.387 86.3338C217.341 86.116 216.567 85.7491 216.065 85.233C215.563 84.7121 215.315 84.054 215.319 83.2585C215.315 82.5862 215.497 82.0038 215.866 81.5114C216.24 81.0142 216.759 80.6307 217.422 80.3608C218.089 80.0862 218.859 79.9489 219.73 79.9489C221.008 79.9489 222.014 80.2211 222.748 80.7656C223.487 81.3101 223.944 82.0464 224.119 82.9744Z" fill="#9D005B"/>
</svg>
