<svg width="186" height="40" viewBox="0 0 186 40" fill="none" xmlns="http://www.w3.org/2000/svg">
<path d="M0.76 31.0769V3.0769H13.88C17.24 3.0769 19.8 3.74357 21.56 5.0769C23.32 6.38357 24.2 8.14357 24.2 10.3569C24.2 11.8502 23.8533 13.1302 23.16 14.1969C22.4667 15.2369 21.5333 16.0502 20.36 16.6369C19.2133 17.1969 17.96 17.4769 16.6 17.4769L17.32 16.0369C18.8933 16.0369 20.3067 16.3302 21.56 16.9169C22.8133 17.4769 23.8 18.3036 24.52 19.3969C25.2667 20.4902 25.64 21.8502 25.64 23.4769C25.64 25.8769 24.72 27.7436 22.88 29.0769C21.04 30.4102 18.3067 31.0769 14.68 31.0769H0.76ZM5.96 26.9969H14.36C16.3067 26.9969 17.8 26.6769 18.84 26.0369C19.88 25.3969 20.4 24.3702 20.4 22.9569C20.4 21.5702 19.88 20.5569 18.84 19.9169C17.8 19.2502 16.3067 18.9169 14.36 18.9169H5.56V14.8769H13.32C15.1333 14.8769 16.52 14.5569 17.48 13.9169C18.4667 13.2769 18.96 12.3169 18.96 11.0369C18.96 9.73024 18.4667 8.7569 17.48 8.1169C16.52 7.4769 15.1333 7.1569 13.32 7.1569H5.96V26.9969ZM30.7097 31.0769V9.7169H35.4697V15.5969L34.9097 13.8769C35.5497 12.4369 36.5497 11.3436 37.9097 10.5969C39.2964 9.85024 41.0164 9.4769 43.0697 9.4769V14.2369C42.8564 14.1836 42.6564 14.1569 42.4697 14.1569C42.283 14.1302 42.0964 14.1169 41.9097 14.1169C40.0164 14.1169 38.5097 14.6769 37.3897 15.7969C36.2697 16.8902 35.7097 18.5302 35.7097 20.7169V31.0769H30.7097ZM58.9478 31.0769V26.7569L58.6678 25.8369V18.2769C58.6678 16.8102 58.2278 15.6769 57.3478 14.8769C56.4678 14.0502 55.1345 13.6369 53.3478 13.6369C52.1478 13.6369 50.9611 13.8236 49.7878 14.1969C48.6411 14.5702 47.6678 15.0902 46.8678 15.7569L44.9078 12.1169C46.0545 11.2369 47.4145 10.5836 48.9878 10.1569C50.5878 9.70357 52.2411 9.4769 53.9478 9.4769C57.0411 9.4769 59.4278 10.2236 61.1078 11.7169C62.8145 13.1836 63.6678 15.4636 63.6678 18.5569V31.0769H58.9478ZM52.2278 31.3569C50.6278 31.3569 49.2278 31.0902 48.0278 30.5569C46.8278 29.9969 45.8945 29.2369 45.2278 28.2769C44.5878 27.2902 44.2678 26.1836 44.2678 24.9569C44.2678 23.7569 44.5478 22.6769 45.1078 21.7169C45.6945 20.7569 46.6411 19.9969 47.9478 19.4369C49.2545 18.8769 50.9878 18.5969 53.1478 18.5969H59.3478V21.9169H53.5078C51.8011 21.9169 50.6545 22.1969 50.0678 22.7569C49.4811 23.2902 49.1878 23.9569 49.1878 24.7569C49.1878 25.6636 49.5478 26.3836 50.2678 26.9169C50.9878 27.4502 51.9878 27.7169 53.2678 27.7169C54.4945 27.7169 55.5878 27.4369 56.5478 26.8769C57.5345 26.3169 58.2411 25.4902 58.6678 24.3969L59.5078 27.3969C59.0278 28.6502 58.1611 29.6236 56.9078 30.3169C55.6811 31.0102 54.1211 31.3569 52.2278 31.3569ZM82.2047 9.4769C83.9114 9.4769 85.4314 9.81024 86.7647 10.4769C88.1247 11.1436 89.1914 12.1702 89.9647 13.5569C90.738 14.9169 91.1247 16.6769 91.1247 18.8369V31.0769H86.1247V19.4769C86.1247 17.5836 85.6714 16.1702 84.7647 15.2369C83.8847 14.3036 82.6447 13.8369 81.0447 13.8369C79.8714 13.8369 78.8314 14.0769 77.9247 14.5569C77.018 15.0369 76.3114 15.7569 75.8047 16.7169C75.3247 17.6502 75.0847 18.8369 75.0847 20.2769V31.0769H70.0847V9.7169H74.8447V15.4769L74.0047 13.7169C74.7514 12.3569 75.8314 11.3169 77.2447 10.5969C78.6847 9.85024 80.338 9.4769 82.2047 9.4769ZM106.547 31.3569C104.493 31.3569 102.64 30.9036 100.987 29.9969C99.3599 29.0636 98.0799 27.7836 97.1466 26.1569C96.2132 24.5302 95.7466 22.6102 95.7466 20.3969C95.7466 18.1836 96.2132 16.2636 97.1466 14.6369C98.0799 13.0102 99.3599 11.7436 100.987 10.8369C102.64 9.93024 104.493 9.4769 106.547 9.4769C108.333 9.4769 109.933 9.8769 111.347 10.6769C112.76 11.4502 113.88 12.6369 114.707 14.2369C115.533 15.8369 115.947 17.8902 115.947 20.3969C115.947 22.8769 115.547 24.9302 114.747 26.5569C113.947 28.1569 112.84 29.3569 111.427 30.1569C110.013 30.9569 108.387 31.3569 106.547 31.3569ZM107.147 27.0769C108.347 27.0769 109.413 26.8102 110.347 26.2769C111.307 25.7436 112.067 24.9702 112.627 23.9569C113.213 22.9436 113.507 21.7569 113.507 20.3969C113.507 19.0102 113.213 17.8236 112.627 16.8369C112.067 15.8236 111.307 15.0502 110.347 14.5169C109.413 13.9836 108.347 13.7169 107.147 13.7169C105.947 13.7169 104.867 13.9836 103.907 14.5169C102.973 15.0502 102.213 15.8236 101.627 16.8369C101.067 17.8236 100.787 19.0102 100.787 20.3969C100.787 21.7569 101.067 22.9436 101.627 23.9569C102.213 24.9702 102.973 25.7436 103.907 26.2769C104.867 26.8102 105.947 27.0769 107.147 27.0769ZM113.627 31.0769V26.0369L113.827 20.3569L113.427 14.6769V1.3969H118.387V31.0769H113.627ZM124.968 31.0769V9.7169H129.968V31.0769H124.968ZM127.488 6.1969C126.554 6.1969 125.781 5.90357 125.168 5.3169C124.581 4.73024 124.288 4.02357 124.288 3.1969C124.288 2.34357 124.581 1.6369 125.168 1.0769C125.781 0.490236 126.554 0.196904 127.488 0.196904C128.421 0.196904 129.181 0.476903 129.768 1.0369C130.381 1.57024 130.688 2.25024 130.688 3.0769C130.688 3.9569 130.394 4.70357 129.808 5.3169C129.221 5.90357 128.448 6.1969 127.488 6.1969ZM148.65 9.4769C150.357 9.4769 151.877 9.81024 153.21 10.4769C154.57 11.1436 155.637 12.1702 156.41 13.5569C157.183 14.9169 157.57 16.6769 157.57 18.8369V31.0769H152.57V19.4769C152.57 17.5836 152.117 16.1702 151.21 15.2369C150.33 14.3036 149.09 13.8369 147.49 13.8369C146.317 13.8369 145.277 14.0769 144.37 14.5569C143.463 15.0369 142.757 15.7569 142.25 16.7169C141.77 17.6502 141.53 18.8369 141.53 20.2769V31.0769H136.53V9.7169H141.29V15.4769L140.45 13.7169C141.197 12.3569 142.277 11.3169 143.69 10.5969C145.13 9.85024 146.783 9.4769 148.65 9.4769ZM173.632 39.1169C171.659 39.1169 169.725 38.8502 167.832 38.3169C165.965 37.8102 164.432 37.0636 163.232 36.0769L165.472 32.3169C166.405 33.0902 167.579 33.7036 168.992 34.1569C170.432 34.6369 171.885 34.8769 173.352 34.8769C175.699 34.8769 177.419 34.3302 178.512 33.2369C179.605 32.1702 180.152 30.5569 180.152 28.3969V24.5969L180.552 19.7569L180.392 14.9169V9.7169H185.152V27.8369C185.152 31.7036 184.165 34.5436 182.192 36.3569C180.219 38.1969 177.365 39.1169 173.632 39.1169ZM172.992 30.1169C170.965 30.1169 169.125 29.6902 167.472 28.8369C165.845 27.9569 164.552 26.7436 163.592 25.1969C162.659 23.6502 162.192 21.8369 162.192 19.7569C162.192 17.7036 162.659 15.9036 163.592 14.3569C164.552 12.8102 165.845 11.6102 167.472 10.7569C169.125 9.90357 170.965 9.4769 172.992 9.4769C174.805 9.4769 176.432 9.8369 177.872 10.5569C179.312 11.2769 180.459 12.3969 181.312 13.9169C182.192 15.4369 182.632 17.3836 182.632 19.7569C182.632 22.1302 182.192 24.0902 181.312 25.6369C180.459 27.1569 179.312 28.2902 177.872 29.0369C176.432 29.7569 174.805 30.1169 172.992 30.1169ZM173.752 25.8769C175.005 25.8769 176.125 25.6236 177.112 25.1169C178.099 24.5836 178.859 23.8636 179.392 22.9569C179.952 22.0236 180.232 20.9569 180.232 19.7569C180.232 18.5569 179.952 17.5036 179.392 16.5969C178.859 15.6636 178.099 14.9569 177.112 14.4769C176.125 13.9702 175.005 13.7169 173.752 13.7169C172.499 13.7169 171.365 13.9702 170.352 14.4769C169.365 14.9569 168.592 15.6636 168.032 16.5969C167.499 17.5036 167.232 18.5569 167.232 19.7569C167.232 20.9569 167.499 22.0236 168.032 22.9569C168.592 23.8636 169.365 24.5836 170.352 25.1169C171.365 25.6236 172.499 25.8769 173.752 25.8769Z" fill="#222222"/>
</svg>
