<svg width="28" height="610" viewBox="0 0 28 610" fill="none" xmlns="http://www.w3.org/2000/svg">
<path d="M15.024 23.88V35H13.2V23.88H15.024ZM15.024 47.88V59H13.2V47.88H15.024ZM15.024 71.88V83H13.2V71.88H15.024ZM15.024 95.88V107H13.2V95.88H15.024ZM15.024 119.88V131H13.2V119.88H15.024ZM15.024 143.88V155H13.2V143.88H15.024ZM15.024 167.88V179H13.2V167.88H15.024ZM15.024 191.88V203H13.2V191.88H15.024ZM15.024 215.88V227H13.2V215.88H15.024ZM15.024 239.88V251H13.2V239.88H15.024ZM15.024 263.88V275H13.2V263.88H15.024ZM15.024 287.88V299H13.2V287.88H15.024ZM15.024 311.88V323H13.2V311.88H15.024ZM15.024 335.88V347H13.2V335.88H15.024ZM15.024 359.88V371H13.2V359.88H15.024ZM15.024 383.88V395H13.2V383.88H15.024ZM15.024 431.88V443H13.2V431.88H15.024ZM15.024 455.88V467H13.2V455.88H15.024ZM15.024 479.88V491H13.2V479.88H15.024ZM15.024 503.88V515H13.2V503.88H15.024ZM15.024 527.88V539H13.2V527.88H15.024ZM15.024 551.88V563H13.2V551.88H15.024ZM15.024 575.88V587H13.2V575.88H15.024Z" fill="#D9D9D9"/>
<circle cx="14" cy="14" r="13.5" fill="white" stroke="#111111"/>
<circle cx="14" cy="14" r="8" fill="#F8E643"/>
<circle cx="14" cy="208" r="13.5" fill="white" stroke="#111111"/>
<circle cx="14" cy="208" r="8" fill="#F8E643"/>
<circle cx="14" cy="402" r="13.5" fill="white" stroke="#111111"/>
<circle cx="14" cy="402" r="8" fill="#F8E643"/>
<circle cx="14" cy="596" r="13.5" fill="white" stroke="#111111"/>
<circle cx="14" cy="596" r="8" fill="#F8E643"/>
</svg>
