<svg width="120" height="80" viewBox="0 0 120 80" fill="none" xmlns="http://www.w3.org/2000/svg">
<path d="M99.623 12.9443H109.235C109.404 12.9443 109.541 13.0687 109.541 13.222V19.6136C109.541 19.8848 109.299 20.1045 109 20.1045H105.291C105.248 20.1045 105.207 20.1206 105.178 20.1487L102.095 23.1067C101.996 23.2019 101.826 23.1344 101.826 22.9998V20.2555C101.826 20.172 101.756 20.1043 101.669 20.1043H99.623C99.3451 20.1043 99.1199 19.8881 99.1199 19.6215V13.427C99.1199 13.1605 99.3451 12.9443 99.623 12.9443Z" fill="#555555"/>
<path d="M104.537 18.9392C104.51 18.9392 104.483 18.9351 104.456 18.9267L104.248 18.8611C104.107 18.817 103.992 18.7209 103.93 18.5978L102.957 16.6315L100.789 15.5998C100.727 15.57 100.683 15.5171 100.668 15.4542C100.654 15.3915 100.671 15.327 100.716 15.2772C100.87 15.1041 101.076 14.9779 101.31 14.9129C101.599 14.8327 101.908 14.8512 102.182 14.9649L103.786 15.6313L105.571 15.1035C105.831 15.0268 106.114 15.0862 106.31 15.2593L106.469 15.399C106.501 15.4274 106.517 15.4665 106.512 15.5069C106.508 15.5471 106.485 15.5832 106.448 15.6057L105.347 16.2845L106.326 16.7315L107.219 16.4495C107.307 16.4222 107.403 16.4347 107.477 16.4836L107.626 16.5809C107.683 16.618 107.718 16.6755 107.722 16.7388C107.726 16.8021 107.699 16.8629 107.648 16.9058L107.105 17.3408L107.49 17.6826C107.525 17.7138 107.536 17.7607 107.517 17.8019C107.499 17.8432 107.455 17.87 107.406 17.87H106.585C106.494 17.87 106.405 17.8565 106.319 17.8296L104.548 17.2789L104.777 18.6864C104.79 18.7634 104.758 18.8388 104.691 18.8886C104.647 18.9217 104.592 18.9392 104.537 18.9392ZM101.671 15.0197C101.567 15.0197 101.462 15.0337 101.361 15.062C101.159 15.118 100.982 15.2263 100.85 15.3753C100.833 15.3934 100.835 15.4128 100.837 15.4226C100.839 15.4324 100.846 15.4505 100.869 15.4613L103.064 16.5055C103.081 16.5136 103.094 16.5267 103.102 16.5428L104.087 18.5339C104.129 18.6178 104.208 18.6832 104.304 18.7136L104.512 18.7793C104.546 18.7899 104.572 18.7751 104.581 18.768C104.59 18.7611 104.611 18.7416 104.606 18.7091L104.356 17.1745C104.352 17.1477 104.363 17.1206 104.386 17.1031C104.409 17.0858 104.441 17.0808 104.469 17.0894L106.374 17.6817C106.442 17.7028 106.513 17.7136 106.584 17.7136H107.278L106.917 17.3937C106.9 17.3785 106.891 17.3576 106.892 17.336C106.892 17.3141 106.903 17.2937 106.921 17.2795L107.532 16.79C107.548 16.7761 107.55 16.7577 107.549 16.7484C107.549 16.7388 107.545 16.7209 107.525 16.708L107.376 16.6107C107.347 16.5919 107.31 16.5867 107.275 16.5976L106.348 16.8904C106.326 16.8975 106.302 16.8958 106.281 16.8865L105.138 16.3649C105.11 16.3524 105.093 16.3278 105.09 16.3001C105.088 16.2726 105.103 16.246 105.128 16.2305L106.326 15.4923L106.189 15.3717C106.039 15.2393 105.823 15.1936 105.624 15.2526L103.807 15.7898C103.786 15.7958 103.764 15.7948 103.745 15.7865L102.11 15.1074C101.971 15.0489 101.822 15.0197 101.671 15.0197Z" fill="white"/>
<path d="M101.483 15.4502C101.466 15.4502 101.448 15.4469 101.432 15.4402L100.918 15.2302C100.903 15.2244 100.897 15.209 100.903 15.1959C100.91 15.1825 100.927 15.1767 100.941 15.1827L101.455 15.3927C101.475 15.4012 101.499 15.4 101.517 15.3894L101.685 15.2906L101.151 15.0421C101.137 15.0355 101.132 15.0198 101.139 15.0071C101.146 14.9944 101.164 14.9896 101.178 14.9959L101.755 15.265C101.764 15.2694 101.77 15.2775 101.77 15.2869C101.771 15.296 101.766 15.305 101.757 15.31L101.548 15.4337C101.528 15.4446 101.506 15.4502 101.483 15.4502Z" fill="white"/>
<path d="M108.388 15.5766H112.029C112.59 15.5766 113.045 15.1644 113.045 14.6558V11.3559C113.045 10.8473 112.59 10.4351 112.029 10.4351H108.388C107.826 10.4351 107.372 10.8473 107.372 11.3559V14.6558C107.372 15.1642 107.826 15.5766 108.388 15.5766Z" fill="#F8E643"/>
<path d="M108.876 13.0057C108.876 12.3402 109.474 11.7988 110.208 11.7988C110.942 11.7988 111.54 12.3402 111.54 13.0057C111.54 13.6712 110.942 14.2126 110.208 14.2126C109.474 14.2126 108.876 13.671 108.876 13.0057ZM109.102 13.0057C109.102 13.5585 109.598 14.008 110.208 14.008C110.818 14.008 111.314 13.5583 111.314 13.0057C111.314 12.4529 110.818 12.0032 110.208 12.0032C109.598 12.0032 109.102 12.4529 109.102 13.0057Z" fill="white"/>
<path d="M108.977 14.2258C108.947 14.2258 108.918 14.2155 108.896 14.1953C108.851 14.1547 108.851 14.0887 108.896 14.0481L111.358 11.8166C111.403 11.776 111.475 11.776 111.52 11.8166C111.565 11.8572 111.565 11.9232 111.52 11.9639L109.058 14.1953C109.036 14.2155 109.006 14.2258 108.977 14.2258Z" fill="white"/>
<path d="M111.439 14.2258C111.41 14.2258 111.38 14.2155 111.358 14.1953L108.896 11.9639C108.851 11.9232 108.851 11.8572 108.896 11.8166C108.94 11.776 109.013 11.776 109.058 11.8166L111.52 14.0481C111.565 14.0887 111.565 14.1547 111.52 14.1953C111.498 14.2155 111.469 14.2258 111.439 14.2258Z" fill="white"/>
<g opacity="0.51">
<path d="M118.286 30.82C118.286 31.2489 118.67 31.5965 119.143 31.5965C119.616 31.5965 120 31.2489 120 30.82C120 30.3911 119.616 30.0435 119.143 30.0435C118.67 30.0435 118.286 30.3911 118.286 30.82Z" fill="#F8E643"/>
<path d="M95.2587 7.52303C95.2587 7.73758 95.4506 7.9113 95.6871 7.9113C95.9239 7.9113 96.1155 7.73758 96.1155 7.52303C96.1155 7.30848 95.9239 7.13477 95.6871 7.13477C95.4504 7.13477 95.2587 7.30869 95.2587 7.52303Z" fill="#F8E643"/>
<path d="M110.811 25.5152C110.811 25.7296 111.003 25.9035 111.24 25.9035C111.476 25.9035 111.668 25.7296 111.668 25.5152C111.668 25.3009 111.476 25.127 111.24 25.127C111.003 25.127 110.811 25.3009 110.811 25.5152Z" fill="#111111"/>
<path d="M106.505 4.31962C106.505 4.42689 106.601 4.51375 106.719 4.51375C106.837 4.51375 106.933 4.42689 106.933 4.31962C106.933 4.21235 106.837 4.12549 106.719 4.12549C106.601 4.12549 106.505 4.21235 106.505 4.31962Z" fill="#111111"/>
<path d="M114.399 39.2508C114.399 39.358 114.495 39.4449 114.613 39.4449C114.732 39.4449 114.828 39.358 114.828 39.2508C114.828 39.1435 114.732 39.0566 114.613 39.0566C114.495 39.0566 114.399 39.1435 114.399 39.2508Z" fill="#111111"/>
<path d="M118.68 20.3189C118.68 20.5333 118.872 20.7072 119.109 20.7072C119.345 20.7072 119.537 20.5333 119.537 20.3189C119.537 20.1044 119.345 19.9307 119.109 19.9307C118.872 19.9307 118.68 20.1046 118.68 20.3189Z" fill="#555555"/>
<path d="M117.162 11.4542C117.162 11.6685 117.354 11.8424 117.59 11.8424C117.827 11.8424 118.019 11.6685 118.019 11.4542C118.019 11.2396 117.827 11.0659 117.59 11.0659C117.354 11.0659 117.162 11.2398 117.162 11.4542Z" fill="#555555"/>
<path d="M107.598 31.0481C107.598 31.1554 107.694 31.2423 107.812 31.2423C107.931 31.2423 108.027 31.1554 108.027 31.0481C108.027 30.9409 107.931 30.854 107.812 30.854C107.694 30.854 107.598 30.9409 107.598 31.0481Z" fill="#555555"/>
<path d="M89.5821 1.06773C89.9074 1.06773 90.1712 0.828709 90.1712 0.533864C90.1712 0.239019 89.9074 0 89.5821 0C89.2568 0 88.993 0.239019 88.993 0.533864C88.993 0.828709 89.2568 1.06773 89.5821 1.06773Z" fill="#F8E643"/>
</g>
<path d="M20.5855 12.6348H8.94503C8.74002 12.6348 8.57385 12.7854 8.57385 12.9712V20.7117C8.57385 21.0402 8.86758 21.3064 9.22979 21.3064H13.7212C13.7731 21.3064 13.8227 21.3257 13.8584 21.3599L17.5913 24.9422C17.7115 25.0576 17.917 24.9757 17.917 24.8128V21.4894C17.917 21.3884 18.0025 21.3064 18.1077 21.3064H20.5853C20.9218 21.3064 21.1948 21.0445 21.1948 20.7215V13.2197C21.1948 12.8966 20.922 12.6348 20.5855 12.6348Z" fill="#555555"/>
<path d="M14.635 19.8778C14.5718 19.8778 14.51 19.8581 14.4592 19.8201C14.3842 19.7637 14.3479 19.6779 14.362 19.5906L14.644 17.859L12.4714 18.535C12.3693 18.5668 12.2627 18.5829 12.1544 18.5829H11.1606C11.1085 18.5829 11.0618 18.5545 11.042 18.5106C11.0223 18.4666 11.0338 18.4171 11.0712 18.3841L11.5516 17.958L10.8814 17.4208C10.8216 17.3712 10.7908 17.3023 10.7957 17.2306C10.8005 17.1589 10.8398 17.0938 10.9044 17.0519L11.085 16.934C11.1703 16.8784 11.2808 16.8634 11.3803 16.8952L12.4688 17.2389L13.6897 16.6817L12.3298 15.8436C12.2898 15.819 12.2645 15.7798 12.2601 15.7361C12.2558 15.6923 12.2732 15.6496 12.3079 15.619L12.4996 15.4497C12.7322 15.2443 13.0685 15.1737 13.376 15.2649L15.5449 15.906L17.4934 15.0964C17.8211 14.96 18.1916 14.9379 18.5368 15.0339C18.8177 15.112 19.0636 15.2628 19.2482 15.4699C19.2985 15.5265 19.318 15.5998 19.3015 15.6709C19.2854 15.7419 19.2353 15.8019 19.1643 15.8356L16.5332 17.0875L15.3518 19.474C15.2804 19.6189 15.1443 19.732 14.9786 19.7841L14.726 19.8637C14.6964 19.8735 14.6656 19.8778 14.635 19.8778ZM14.7499 17.6655C14.7697 17.6655 14.7892 17.6718 14.8048 17.6834C14.8281 17.7009 14.8393 17.728 14.8352 17.7549L14.5327 19.6133C14.5274 19.6468 14.5405 19.6783 14.5693 19.6997C14.598 19.7214 14.6348 19.7272 14.6699 19.7162L14.9225 19.6366C15.0434 19.5983 15.1429 19.5158 15.1951 19.41L16.3886 16.9988C16.3964 16.9827 16.41 16.9696 16.4272 16.9615L19.0848 15.6971C19.1096 15.6852 19.1275 15.664 19.1333 15.6388C19.1388 15.6136 19.1319 15.5878 19.1142 15.5678C18.9515 15.3851 18.7345 15.252 18.4865 15.183C18.1822 15.0983 17.8552 15.1176 17.5656 15.2382L15.5865 16.0606C15.5667 16.0687 15.5447 16.07 15.5237 16.0639L13.3229 15.4132C13.0756 15.3403 12.8067 15.3968 12.6201 15.5613L12.4284 15.7307L13.908 16.627C13.9331 16.6426 13.9476 16.669 13.9455 16.6967C13.9434 16.7244 13.9255 16.749 13.8984 16.7615L12.5139 17.3933C12.493 17.4029 12.4688 17.4043 12.4468 17.3972L11.3238 17.0427C11.2776 17.0281 11.2254 17.0348 11.1855 17.0608L11.0048 17.1787C10.9827 17.1931 10.9694 17.2154 10.9678 17.24C10.966 17.2646 10.9765 17.2881 10.9968 17.305L11.735 17.8967C11.7529 17.9111 11.7635 17.9315 11.7642 17.9532C11.7649 17.9748 11.7554 17.9959 11.7384 18.0111L11.2698 18.4271H12.1547C12.2438 18.4271 12.3316 18.4137 12.4155 18.3877L14.7221 17.6701C14.7311 17.667 14.7405 17.6655 14.7499 17.6655Z" fill="white"/>
<path d="M18.3328 15.6635C18.307 15.6635 18.2811 15.6572 18.2583 15.6449L18.0043 15.4943C17.9958 15.4893 17.9908 15.4806 17.9912 15.4712C17.9919 15.4619 17.9977 15.4535 18.0066 15.4494L18.7056 15.1234C18.7196 15.1171 18.737 15.1217 18.7444 15.1346C18.7515 15.1475 18.746 15.1632 18.732 15.1696L18.0767 15.475L18.2886 15.6006C18.3121 15.6133 18.3427 15.615 18.3691 15.6041L18.9912 15.3498C19.0057 15.3435 19.0227 15.3496 19.0294 15.3629C19.0358 15.376 19.0294 15.3914 19.0149 15.3973L18.3925 15.6516C18.3737 15.6597 18.3532 15.6635 18.3328 15.6635Z" fill="white"/>
<path d="M9.971 15.8222H5.56168C4.88207 15.8222 4.33093 15.323 4.33093 14.707V10.7106C4.33093 10.0947 4.88184 9.59521 5.56168 9.59521H9.971C10.6506 9.59521 11.2017 10.0945 11.2017 10.7104V14.7068C11.2017 15.323 10.6508 15.8222 9.971 15.8222Z" fill="#F8E643"/>
<path d="M7.76647 14.1701C6.87726 14.1701 6.15375 13.5144 6.15375 12.7087C6.15375 11.9028 6.87726 11.2471 7.76647 11.2471C8.65569 11.2471 9.3792 11.9026 9.3792 12.7087C9.3792 13.5146 8.65546 14.1701 7.76647 14.1701ZM7.76647 11.4947C7.0278 11.4947 6.42679 12.0394 6.42679 12.7089C6.42679 13.3784 7.02757 13.9228 7.76647 13.9228C8.50515 13.9228 9.10616 13.3784 9.10616 12.7089C9.10593 12.0392 8.50515 11.4947 7.76647 11.4947Z" fill="white"/>
<path d="M9.25739 14.164C9.22797 14.164 9.19855 14.1538 9.17603 14.1336L6.1942 11.4311C6.14938 11.3905 6.14938 11.3245 6.1942 11.2839C6.23901 11.2433 6.31187 11.2433 6.35669 11.2839L9.33852 13.9863C9.38334 14.0269 9.38334 14.093 9.33852 14.1336C9.316 14.1538 9.28658 14.164 9.25739 14.164Z" fill="white"/>
<path d="M6.27556 14.164C6.24614 14.164 6.21672 14.1538 6.1942 14.1336C6.14938 14.093 6.14938 14.0269 6.1942 13.9863L9.17603 11.2839C9.22085 11.2433 9.2937 11.2433 9.33852 11.2839C9.38334 11.3245 9.38334 11.3905 9.33852 11.4311L6.35669 14.1336C6.33439 14.1538 6.30498 14.164 6.27556 14.164Z" fill="white"/>
<g opacity="0.51">
<path d="M7.75311 31.4504C7.75311 31.8792 7.36952 32.2269 6.8963 32.2269C6.42308 32.2269 6.03949 31.8792 6.03949 31.4504C6.03949 31.0215 6.42308 30.6738 6.8963 30.6738C7.36952 30.6738 7.75311 31.0215 7.75311 31.4504Z" fill="#F8E643"/>
<path d="M31.0486 8.88192C31.0486 9.09625 30.8569 9.27018 30.6202 9.27018C30.3837 9.27018 30.1918 9.09625 30.1918 8.88192C30.1918 8.66737 30.3837 8.49365 30.6202 8.49365C30.8569 8.49365 31.0486 8.66737 31.0486 8.88192Z" fill="#F8E643"/>
<path d="M12.7336 25.9659C12.7336 26.1802 12.5417 26.3542 12.3052 26.3542C12.0684 26.3542 11.8768 26.1802 11.8768 25.9659C11.8768 25.7516 12.0687 25.5776 12.3052 25.5776C12.5417 25.5776 12.7336 25.7516 12.7336 25.9659Z" fill="#111111"/>
<path d="M18.2226 10.5076C18.2226 10.6149 18.1268 10.7017 18.0084 10.7017C17.89 10.7017 17.7942 10.6149 17.7942 10.5076C17.7942 10.4003 17.89 10.3135 18.0084 10.3135C18.1268 10.3133 18.2226 10.4003 18.2226 10.5076Z" fill="#111111"/>
<path d="M9.14545 39.7015C9.14545 39.8087 9.04961 39.8956 8.93125 39.8956C8.81288 39.8956 8.71704 39.8087 8.71704 39.7015C8.71704 39.5942 8.81288 39.5073 8.93125 39.5073C9.04961 39.5073 9.14545 39.5942 9.14545 39.7015Z" fill="#111111"/>
<path d="M2.02295 23.3453C2.02295 23.5596 1.83104 23.7336 1.59454 23.7336C1.35805 23.7336 1.16614 23.5596 1.16614 23.3453C1.16614 23.1308 1.35805 22.957 1.59454 22.957C1.83104 22.957 2.02295 23.1308 2.02295 23.3453Z" fill="#555555"/>
<path d="M12.8406 3.93123C12.8406 4.14557 12.6487 4.3195 12.4122 4.3195C12.1755 4.3195 11.9838 4.14557 11.9838 3.93123C11.9838 3.71669 12.1757 3.54297 12.4122 3.54297C12.6487 3.54297 12.8406 3.71669 12.8406 3.93123Z" fill="#555555"/>
<path d="M15.9466 31.4993C15.9466 31.6066 15.8508 31.6934 15.7324 31.6934C15.614 31.6934 15.5182 31.6066 15.5182 31.4993C15.5182 31.392 15.614 31.3052 15.7324 31.3052C15.8508 31.3052 15.9466 31.392 15.9466 31.4993Z" fill="#555555"/>
<path d="M27.514 2.57212C27.8394 2.57212 28.1031 2.3331 28.1031 2.03826C28.1031 1.74341 27.8394 1.50439 27.514 1.50439C27.1887 1.50439 26.925 1.74341 26.925 2.03826C26.925 2.3331 27.1887 2.57212 27.514 2.57212Z" fill="#F8E643"/>
</g>
<path d="M78.446 80H41.0332C38.2963 80 36.0778 77.9893 36.0778 75.5089V6.33532C36.0778 3.85492 38.2963 1.84424 41.0332 1.84424H78.446C81.1829 1.84424 83.4014 3.85492 83.4014 6.33532V75.5089C83.4014 77.9891 81.1826 80 78.446 80Z" fill="#353148"/>
<path d="M77.6182 78.8715H41.861C39.3706 78.8715 37.3515 77.0417 37.3515 74.7846V6.72224C37.3515 4.46514 39.3706 2.63525 41.861 2.63525H77.6182C80.1087 2.63525 82.1277 4.46514 82.1277 6.72224V74.7843C82.1277 77.0417 80.1087 78.8715 77.6182 78.8715Z" fill="#423E49"/>
<path opacity="0.89" d="M59.7964 6.33512C59.7964 6.33512 59.7957 6.33512 59.7952 6.33512C59.59 6.33512 59.3969 6.26263 59.2517 6.1312C59.1062 5.99914 59.0264 5.82396 59.0264 5.63816C59.0262 5.45257 59.1062 5.2776 59.2517 5.14554C59.3969 5.01389 59.5897 4.94141 59.7945 4.94141C59.795 4.94141 59.7952 4.94141 59.7957 4.94141C60.0007 4.94141 60.1935 5.01389 60.3392 5.14533C60.4847 5.27739 60.5645 5.45257 60.5642 5.63857C60.5642 5.82458 60.484 5.99955 60.339 6.1312C60.2558 6.20681 60.1577 6.26263 60.0473 6.297C59.9669 6.3222 59.8826 6.33512 59.7964 6.33512ZM59.7948 5.14949C59.6509 5.14949 59.5157 5.20032 59.4142 5.2926C59.3123 5.38508 59.256 5.50776 59.2563 5.63795C59.256 5.76834 59.3121 5.89124 59.4142 5.98393C59.516 6.076 59.6513 6.12682 59.7954 6.12682C59.7954 6.12682 59.7959 6.12682 59.7964 6.12682C59.8568 6.12682 59.9161 6.11766 59.9724 6.09995H59.9726C60.0494 6.07579 60.1181 6.03684 60.1767 5.98372C60.2786 5.89145 60.3349 5.76876 60.3349 5.63837C60.3351 5.50797 60.279 5.38529 60.177 5.2926C60.0752 5.20053 59.9395 5.1497 59.7957 5.1497C59.7952 5.14949 59.7948 5.14949 59.7948 5.14949Z" fill="white"/>
<path opacity="0.89" d="M63.4059 8.33484H63.4054L55.8977 8.33442L55.866 8.31109C55.6789 8.17361 55.5704 7.99531 55.5601 7.8093C55.5511 7.64975 55.6146 7.50019 55.7389 7.38792C55.8536 7.28377 56.0064 7.22607 56.1689 7.22607C56.1696 7.22607 56.1705 7.22607 56.1712 7.22607L63.4196 7.22628C63.4199 7.22628 63.4201 7.22628 63.4201 7.22628C63.5835 7.22628 63.7368 7.28398 63.852 7.38855C63.9673 7.49249 64.031 7.63142 64.0312 7.77993C64.0308 8.01635 63.8651 8.22694 63.6191 8.30422H63.6189C63.555 8.32421 63.4881 8.33442 63.4201 8.33463L63.4059 8.33484ZM55.9812 8.12612L63.4284 8.12654C63.4681 8.12571 63.507 8.11925 63.5442 8.10779C63.698 8.05947 63.8014 7.92783 63.8016 7.78035C63.8014 7.68808 63.7616 7.60122 63.6899 7.53644C63.6178 7.47103 63.5224 7.435 63.4203 7.435C63.4201 7.435 63.4201 7.435 63.4199 7.435L56.171 7.43479C56.1705 7.43479 56.1701 7.43479 56.1696 7.43479C56.0683 7.43479 55.9731 7.47061 55.9016 7.5356C55.8237 7.6058 55.7842 7.69912 55.7899 7.7991C55.7964 7.91533 55.8639 8.03051 55.9812 8.12612Z" fill="white"/>
<path d="M59.769 75.039C57.3705 75.039 55.4188 73.2704 55.4188 71.0962C55.4188 68.922 57.3703 67.1533 59.769 67.1533C62.168 67.1533 64.1195 68.922 64.1195 71.0962C64.1195 73.2704 62.1678 75.039 59.769 75.039ZM59.769 67.3618C57.4969 67.3618 55.6486 69.0372 55.6486 71.0964C55.6486 73.1556 57.4969 74.8309 59.769 74.8309C62.0411 74.8309 63.8897 73.1556 63.8897 71.0964C63.8897 69.0372 62.0411 67.3618 59.769 67.3618Z" fill="white"/>
<path d="M59.769 73.9957C61.568 73.9957 63.0264 72.6739 63.0264 71.0435C63.0264 69.413 61.568 68.0913 59.769 68.0913C57.97 68.0913 56.5116 69.413 56.5116 71.0435C56.5116 72.6739 57.97 73.9957 59.769 73.9957Z" fill="#353148"/>
<path d="M79.2592 11.042H40.22V65.6196H79.2592V11.042Z" fill="white"/>
<path d="M79.2592 10.835H40.22V13.2799H79.2592V10.835Z" fill="#555555"/>
<path d="M64.2918 44.6857H54.6732C54.3415 44.6857 54.0715 44.4412 54.0715 44.1406V37.6049C54.0715 37.3043 54.3415 37.0596 54.6732 37.0596H64.2918C64.6235 37.0596 64.8933 37.3041 64.8933 37.6049V44.1406C64.8933 44.4412 64.6235 44.6857 64.2918 44.6857ZM54.6732 37.2679C54.4679 37.2679 54.3013 37.4191 54.3013 37.6049V44.1406C54.3013 44.3264 54.4682 44.4774 54.6732 44.4774H64.2918C64.4969 44.4774 64.6635 44.3262 64.6635 44.1406V37.6049C64.6635 37.4191 64.4966 37.2679 64.2918 37.2679H54.6732Z" fill="#F8E643"/>
<path d="M60.4199 39.9339H58.5452C58.4817 39.9339 58.4302 39.8872 58.4302 39.8297C58.4302 39.7722 58.4817 39.7256 58.5452 39.7256H60.4199C60.4833 39.7256 60.5348 39.7722 60.5348 39.8297C60.5348 39.8874 60.4833 39.9339 60.4199 39.9339Z" fill="#F8E643"/>
<path d="M61.8322 41.615H57.1324C57.0689 41.615 57.0175 41.5684 57.0175 41.5109C57.0175 41.4534 57.0689 41.4067 57.1324 41.4067H61.8322C61.8956 41.4067 61.9471 41.4534 61.9471 41.5109C61.9471 41.5684 61.8959 41.615 61.8322 41.615Z" fill="#F8E643"/>
<path d="M52.5034 44.6857H42.885C42.5533 44.6857 42.2835 44.4412 42.2835 44.1406V37.6049C42.2835 37.3043 42.5533 37.0596 42.885 37.0596H52.5034C52.8351 37.0596 53.1051 37.3041 53.1051 37.6049V44.1406C53.1051 44.4412 52.8351 44.6857 52.5034 44.6857ZM42.8847 37.2679C42.6797 37.2679 42.5131 37.4191 42.5131 37.6049V44.1406C42.5131 44.3264 42.68 44.4774 42.8847 44.4774H52.5032C52.7084 44.4774 52.8751 44.3262 52.8751 44.1406V37.6049C52.8751 37.4191 52.7082 37.2679 52.5032 37.2679H42.8847Z" fill="#F8E643"/>
<path d="M48.6314 39.9339H46.7566C46.6932 39.9339 46.6417 39.8872 46.6417 39.8297C46.6417 39.7722 46.6932 39.7256 46.7566 39.7256H48.6314C48.6948 39.7256 48.7463 39.7722 48.7463 39.8297C48.7463 39.8874 48.6948 39.9339 48.6314 39.9339Z" fill="#F8E643"/>
<path d="M50.0442 41.615H45.3443C45.2809 41.615 45.2294 41.5684 45.2294 41.5109C45.2294 41.4534 45.2809 41.4067 45.3443 41.4067H50.0442C50.1076 41.4067 50.1591 41.4534 50.1591 41.5109C50.1591 41.5684 50.1076 41.615 50.0442 41.615Z" fill="#F8E643"/>
<path d="M76.0891 44.6857H66.4704C66.1388 44.6857 65.869 44.4412 65.869 44.1406V37.6049C65.869 37.3043 66.1388 37.0596 66.4704 37.0596H76.0891C76.4207 37.0596 76.6908 37.3041 76.6908 37.6049V44.1406C76.6908 44.4412 76.4207 44.6857 76.0891 44.6857ZM66.4704 37.2679C66.2654 37.2679 66.0988 37.4191 66.0988 37.6049V44.1406C66.0988 44.3264 66.2656 44.4774 66.4704 44.4774H76.0891C76.2943 44.4774 76.461 44.3262 76.461 44.1406V37.6049C76.461 37.4191 76.2941 37.2679 76.0891 37.2679H66.4704Z" fill="#F8E643"/>
<path d="M72.2171 39.9339H70.3424C70.279 39.9339 70.2275 39.8872 70.2275 39.8297C70.2275 39.7722 70.279 39.7256 70.3424 39.7256H72.2171C72.2806 39.7256 72.332 39.7722 72.332 39.8297C72.332 39.8874 72.2806 39.9339 72.2171 39.9339Z" fill="#F8E643"/>
<path d="M73.6297 41.615H68.9299C68.8664 41.615 68.8149 41.5684 68.8149 41.5109C68.8149 41.4534 68.8664 41.4067 68.9299 41.4067H73.6297C73.6931 41.4067 73.7446 41.4534 73.7446 41.5109C73.7446 41.5684 73.6933 41.615 73.6297 41.615Z" fill="#F8E643"/>
<path d="M76.0891 44.6857H66.4704C66.1388 44.6857 65.869 44.4412 65.869 44.1406V37.6049C65.869 37.3043 66.1388 37.0596 66.4704 37.0596H76.0891C76.4207 37.0596 76.6908 37.3041 76.6908 37.6049V44.1406C76.6908 44.4412 76.4207 44.6857 76.0891 44.6857ZM66.4704 37.2679C66.2654 37.2679 66.0988 37.4191 66.0988 37.6049V44.1406C66.0988 44.3264 66.2656 44.4774 66.4704 44.4774H76.0891C76.2943 44.4774 76.461 44.3262 76.461 44.1406V37.6049C76.461 37.4191 76.2941 37.2679 76.0891 37.2679H66.4704Z" fill="#F8E643"/>
<path d="M72.2171 39.9339H70.3424C70.279 39.9339 70.2275 39.8872 70.2275 39.8297C70.2275 39.7722 70.279 39.7256 70.3424 39.7256H72.2171C72.2806 39.7256 72.332 39.7722 72.332 39.8297C72.332 39.8874 72.2806 39.9339 72.2171 39.9339Z" fill="#F8E643"/>
<path d="M73.6297 41.615H68.9299C68.8664 41.615 68.8149 41.5684 68.8149 41.5109C68.8149 41.4534 68.8664 41.4067 68.9299 41.4067H73.6297C73.6931 41.4067 73.7446 41.4534 73.7446 41.5109C73.7446 41.5684 73.6933 41.615 73.6297 41.615Z" fill="#F8E643"/>
<path d="M75.9907 54.6399H42.983C42.5972 54.6399 42.2832 54.3554 42.2832 54.0056V46.6003C42.2832 46.2504 42.5972 45.9658 42.983 45.9658H75.9907C76.3769 45.9658 76.6908 46.2504 76.6908 46.6003V54.0056C76.6908 54.3554 76.3769 54.6399 75.9907 54.6399ZM42.983 46.1741C42.7238 46.1741 42.513 46.3653 42.513 46.6003V54.0056C42.513 54.2406 42.7238 54.4316 42.983 54.4316H75.9907C76.25 54.4316 76.461 54.2406 76.461 54.0056V46.6003C76.461 46.3653 76.25 46.1741 75.9907 46.1741H42.983Z" fill="#111111"/>
<path d="M75.9907 63.9444H42.983C42.5972 63.9444 42.2832 63.6599 42.2832 63.3101V55.9048C42.2832 55.555 42.5972 55.2705 42.983 55.2705H75.9907C76.3769 55.2705 76.6908 55.555 76.6908 55.9048V63.3101C76.6908 63.6596 76.3769 63.9444 75.9907 63.9444ZM42.983 55.4788C42.7238 55.4788 42.513 55.6698 42.513 55.9048V63.3101C42.513 63.5451 42.7238 63.7361 42.983 63.7361H75.9907C76.25 63.7361 76.461 63.5451 76.461 63.3101V55.9048C76.461 55.6698 76.25 55.4788 75.9907 55.4788H42.983Z" fill="#111111"/>
<path opacity="0.6" d="M48.1235 52.1833H44.1655V48.5962H48.1235V52.1833ZM44.3954 51.975H47.8936V48.8045H44.3954V51.975Z" fill="#111111"/>
<path opacity="0.6" d="M48.1235 61.4006H44.1655V57.8135H48.1235V61.4006ZM44.3954 61.1923H47.8936V58.0218H44.3954V61.1923Z" fill="#111111"/>
<path d="M60.0317 35.8367H44.2186C43.4234 35.8367 42.7728 35.247 42.7728 34.5263V21.9471C42.7728 21.2264 43.4234 20.6367 44.2186 20.6367H60.0317C60.8269 20.6367 61.4776 21.2264 61.4776 21.9471V34.5263C61.4776 35.247 60.8269 35.8367 60.0317 35.8367Z" fill="#F8E643"/>
<path d="M51.3599 33.1183C51.2538 33.1183 51.1499 33.085 51.0648 33.0213C50.9387 32.9265 50.8777 32.7824 50.9014 32.6355L51.4303 29.3898L47.3701 30.6527C47.1867 30.7098 46.9954 30.7388 46.8015 30.7388H44.9752C44.8971 30.7388 44.8272 30.6963 44.798 30.6307C44.7686 30.5648 44.7856 30.4907 44.8417 30.4411L45.7576 29.6281L44.491 28.6131C44.3917 28.5306 44.3402 28.4154 44.348 28.2954C44.3558 28.1755 44.422 28.0665 44.5296 27.9963L44.8615 27.7797C45.0072 27.6847 45.1949 27.6599 45.3648 27.7135L47.3825 28.3506L49.7084 27.2894L47.148 25.7115C47.0855 25.6728 47.0458 25.6113 47.0389 25.5428C47.0324 25.4743 47.0598 25.4076 47.114 25.3595L47.4661 25.0485C47.8814 24.6819 48.4815 24.5555 49.0329 24.7182L53.0345 25.9013L56.6307 24.407C57.2232 24.1608 57.8938 24.1208 58.5169 24.2941C59.0244 24.4353 59.4693 24.7078 59.8033 25.0825C59.8876 25.1773 59.9205 25.2997 59.8933 25.4187C59.866 25.5378 59.7823 25.6384 59.6635 25.6951L54.815 28.0018L52.638 32.3997C52.5112 32.6561 52.2703 32.8563 51.9773 32.9488L51.5135 33.095C51.4631 33.1106 51.4114 33.1183 51.3599 33.1183ZM51.5714 29.1316C51.5978 29.1316 51.624 29.1397 51.6447 29.1555C51.6757 29.1788 51.6909 29.2149 51.6851 29.2509L51.129 32.6659C51.1168 32.7401 51.1476 32.813 51.2112 32.8609C51.2749 32.9086 51.3592 32.9228 51.4381 32.898L51.9021 32.7517C52.1356 32.678 52.3278 32.5187 52.4286 32.3141L54.6217 27.8832C54.6323 27.862 54.6502 27.8445 54.6732 27.8337L59.5569 25.5101C59.6146 25.4828 59.6552 25.4339 59.6683 25.376C59.6817 25.3183 59.6656 25.2587 59.6249 25.2129C59.3197 24.8706 58.9133 24.6217 58.45 24.4928C57.8803 24.3345 57.2682 24.3711 56.7267 24.5959L53.0899 26.1073C53.0639 26.1181 53.0343 26.1196 53.0064 26.1117L48.9621 24.916C48.4928 24.7771 47.9807 24.885 47.6268 25.1975L47.2747 25.5084L47.2131 25.6251L47.2777 25.5389L49.9996 27.2163C50.0333 27.2371 50.0524 27.2725 50.0497 27.3092C50.0469 27.346 50.023 27.3787 49.9867 27.3954L47.4427 28.5562C47.4146 28.5689 47.382 28.5706 47.3533 28.5614L45.2896 27.9099C45.1906 27.8784 45.0812 27.8932 44.9964 27.9486L44.6645 28.1653C44.6132 28.1986 44.582 28.2505 44.5781 28.3075C44.5744 28.3646 44.599 28.4194 44.6454 28.4581L46.0028 29.5461C46.0269 29.5652 46.0407 29.5925 46.0416 29.6215C46.0423 29.6504 46.0299 29.6783 46.0072 29.6985L45.0701 30.5303H46.8021C46.9704 30.5303 47.1368 30.5051 47.2961 30.4555L51.5346 29.137C51.5463 29.1334 51.5587 29.1316 51.5714 29.1316Z" fill="white"/>
<path d="M60.6762 17.6941H43.4855C43.2352 17.6941 43.0313 17.5095 43.0313 17.2825V16.0044C43.0313 15.7775 43.2352 15.5928 43.4855 15.5928H60.6762C60.9265 15.5928 61.1303 15.7773 61.1303 16.0044V17.2825C61.1303 17.5093 60.9265 17.6941 60.6762 17.6941ZM43.4855 15.8011C43.3618 15.8011 43.2611 15.8923 43.2611 16.0044V17.2825C43.2611 17.3945 43.3618 17.4858 43.4855 17.4858H60.6762C60.7998 17.4858 60.9005 17.3945 60.9005 17.2825V16.0044C60.9005 15.8923 60.7998 15.8011 60.6762 15.8011H43.4855Z" fill="#4D67C2"/>
<path d="M77.0811 18.9419H43.1821V19.1502H77.0811V18.9419Z" fill="#4D67C2"/>
<path d="M76.3534 27.6681H63.3487C63.08 27.6681 62.8619 27.4706 62.8619 27.2269V21.3069C62.8619 21.0634 63.0798 20.8657 63.3487 20.8657H76.3534C76.6221 20.8657 76.8402 21.0632 76.8402 21.3069V27.2269C76.8402 27.4706 76.6223 27.6681 76.3534 27.6681Z" fill="#555555"/>
<path d="M71.6755 23.4144H68.4604C68.3969 23.4144 68.3455 23.3677 68.3455 23.3102C68.3455 23.2527 68.3969 23.2061 68.4604 23.2061H71.6755C71.7389 23.2061 71.7904 23.2527 71.7904 23.3102C71.7904 23.3679 71.7389 23.4144 71.6755 23.4144Z" fill="white"/>
<path d="M74.0979 24.9559H66.0381C65.9747 24.9559 65.9232 24.9092 65.9232 24.8517C65.9232 24.7942 65.9747 24.7476 66.0381 24.7476H74.0979C74.1613 24.7476 74.2128 24.7942 74.2128 24.8517C74.2128 24.9092 74.1613 24.9559 74.0979 24.9559Z" fill="white"/>
<path d="M76.3534 35.5094H63.3487C63.08 35.5094 62.8619 35.3119 62.8619 35.0682V29.1482C62.8619 28.9047 63.0798 28.707 63.3487 28.707H76.3534C76.6221 28.707 76.8402 28.9045 76.8402 29.1482V35.0682C76.8402 35.3119 76.6223 35.5094 76.3534 35.5094Z" fill="#111111"/>
<path d="M71.6755 31.2557H68.4604C68.3969 31.2557 68.3455 31.209 68.3455 31.1515C68.3455 31.094 68.3969 31.0474 68.4604 31.0474H71.6755C71.7389 31.0474 71.7904 31.094 71.7904 31.1515C71.7904 31.209 71.7389 31.2557 71.6755 31.2557Z" fill="white"/>
<path d="M74.0979 32.7972H66.0381C65.9747 32.7972 65.9232 32.7505 65.9232 32.693C65.9232 32.6355 65.9747 32.5889 66.0381 32.5889H74.0979C74.1613 32.5889 74.2128 32.6355 74.2128 32.693C74.2128 32.7507 74.1613 32.7972 74.0979 32.7972Z" fill="white"/>
<path d="M52.0678 51.5137V49.4137H53.0518C53.3038 49.4137 53.4958 49.4637 53.6278 49.5637C53.7598 49.6617 53.8258 49.7937 53.8258 49.9597C53.8258 50.0717 53.7998 50.1677 53.7478 50.2477C53.6958 50.3257 53.6258 50.3867 53.5378 50.4307C53.4518 50.4727 53.3578 50.4937 53.2558 50.4937L53.3098 50.3857C53.4278 50.3857 53.5338 50.4077 53.6278 50.4517C53.7218 50.4937 53.7958 50.5557 53.8498 50.6377C53.9058 50.7197 53.9338 50.8217 53.9338 50.9437C53.9338 51.1237 53.8648 51.2637 53.7268 51.3637C53.5888 51.4637 53.3838 51.5137 53.1118 51.5137H52.0678ZM52.4578 51.2077H53.0878C53.2338 51.2077 53.3458 51.1837 53.4238 51.1357C53.5018 51.0877 53.5408 51.0107 53.5408 50.9047C53.5408 50.8007 53.5018 50.7247 53.4238 50.6767C53.3458 50.6267 53.2338 50.6017 53.0878 50.6017H52.4278V50.2987H53.0098C53.1458 50.2987 53.2498 50.2747 53.3218 50.2267C53.3958 50.1787 53.4328 50.1067 53.4328 50.0107C53.4328 49.9127 53.3958 49.8397 53.3218 49.7917C53.2498 49.7437 53.1458 49.7197 53.0098 49.7197H52.4578V51.2077ZM55.334 51.5437C55.17 51.5437 55.019 51.5167 54.881 51.4627C54.743 51.4087 54.623 51.3337 54.521 51.2377C54.419 51.1397 54.34 51.0257 54.284 50.8957C54.228 50.7637 54.2 50.6197 54.2 50.4637C54.2 50.3077 54.228 50.1647 54.284 50.0347C54.34 49.9027 54.419 49.7887 54.521 49.6927C54.623 49.5947 54.743 49.5187 54.881 49.4647C55.019 49.4107 55.169 49.3837 55.331 49.3837C55.495 49.3837 55.645 49.4107 55.781 49.4647C55.919 49.5187 56.039 49.5947 56.141 49.6927C56.243 49.7887 56.322 49.9027 56.378 50.0347C56.434 50.1647 56.462 50.3077 56.462 50.4637C56.462 50.6197 56.434 50.7637 56.378 50.8957C56.322 51.0277 56.243 51.1417 56.141 51.2377C56.039 51.3337 55.919 51.4087 55.781 51.4627C55.645 51.5167 55.496 51.5437 55.334 51.5437ZM55.331 51.2017C55.437 51.2017 55.535 51.1837 55.625 51.1477C55.715 51.1117 55.793 51.0607 55.859 50.9947C55.925 50.9267 55.976 50.8487 56.012 50.7607C56.05 50.6707 56.069 50.5717 56.069 50.4637C56.069 50.3557 56.05 50.2577 56.012 50.1697C55.976 50.0797 55.925 50.0017 55.859 49.9357C55.793 49.8677 55.715 49.8157 55.625 49.7797C55.535 49.7437 55.437 49.7257 55.331 49.7257C55.225 49.7257 55.127 49.7437 55.037 49.7797C54.949 49.8157 54.871 49.8677 54.803 49.9357C54.737 50.0017 54.685 50.0797 54.647 50.1697C54.611 50.2577 54.593 50.3557 54.593 50.4637C54.593 50.5697 54.611 50.6677 54.647 50.7577C54.685 50.8477 54.737 50.9267 54.803 50.9947C54.869 51.0607 54.947 51.1117 55.037 51.1477C55.127 51.1837 55.225 51.2017 55.331 51.2017ZM57.8594 51.5437C57.6954 51.5437 57.5444 51.5167 57.4064 51.4627C57.2684 51.4087 57.1484 51.3337 57.0464 51.2377C56.9444 51.1397 56.8654 51.0257 56.8094 50.8957C56.7534 50.7637 56.7254 50.6197 56.7254 50.4637C56.7254 50.3077 56.7534 50.1647 56.8094 50.0347C56.8654 49.9027 56.9444 49.7887 57.0464 49.6927C57.1484 49.5947 57.2684 49.5187 57.4064 49.4647C57.5444 49.4107 57.6944 49.3837 57.8564 49.3837C58.0204 49.3837 58.1704 49.4107 58.3064 49.4647C58.4444 49.5187 58.5644 49.5947 58.6664 49.6927C58.7684 49.7887 58.8474 49.9027 58.9034 50.0347C58.9594 50.1647 58.9874 50.3077 58.9874 50.4637C58.9874 50.6197 58.9594 50.7637 58.9034 50.8957C58.8474 51.0277 58.7684 51.1417 58.6664 51.2377C58.5644 51.3337 58.4444 51.4087 58.3064 51.4627C58.1704 51.5167 58.0214 51.5437 57.8594 51.5437ZM57.8564 51.2017C57.9624 51.2017 58.0604 51.1837 58.1504 51.1477C58.2404 51.1117 58.3184 51.0607 58.3844 50.9947C58.4504 50.9267 58.5014 50.8487 58.5374 50.7607C58.5754 50.6707 58.5944 50.5717 58.5944 50.4637C58.5944 50.3557 58.5754 50.2577 58.5374 50.1697C58.5014 50.0797 58.4504 50.0017 58.3844 49.9357C58.3184 49.8677 58.2404 49.8157 58.1504 49.7797C58.0604 49.7437 57.9624 49.7257 57.8564 49.7257C57.7504 49.7257 57.6524 49.7437 57.5624 49.7797C57.4744 49.8157 57.3964 49.8677 57.3284 49.9357C57.2624 50.0017 57.2104 50.0797 57.1724 50.1697C57.1364 50.2577 57.1184 50.3557 57.1184 50.4637C57.1184 50.5697 57.1364 50.6677 57.1724 50.7577C57.2104 50.8477 57.2624 50.9267 57.3284 50.9947C57.3944 51.0607 57.4724 51.1117 57.5624 51.1477C57.6524 51.1837 57.7504 51.2017 57.8564 51.2017ZM59.7488 51.0187L59.7278 50.5567L60.8288 49.4137H61.2668L60.3518 50.3857L60.1358 50.6227L59.7488 51.0187ZM59.4008 51.5137V49.4137H59.7908V51.5137H59.4008ZM60.8648 51.5137L60.0608 50.5567L60.3188 50.2717L61.3208 51.5137H60.8648ZM61.9463 50.2867H62.9903V50.6077H61.9463V50.2867ZM61.9763 51.1867H63.1613V51.5137H61.5863V49.4137H63.1193V49.7407H61.9763V51.1867ZM63.5961 51.5137V49.4137H64.5141C64.7421 49.4137 64.9421 49.4577 65.1141 49.5457C65.2861 49.6337 65.4201 49.7557 65.5161 49.9117C65.6121 50.0677 65.6601 50.2517 65.6601 50.4637C65.6601 50.6737 65.6121 50.8577 65.5161 51.0157C65.4201 51.1717 65.2861 51.2937 65.1141 51.3817C64.9421 51.4697 64.7421 51.5137 64.5141 51.5137H63.5961ZM63.9861 51.1837H64.4961C64.6541 51.1837 64.7901 51.1537 64.9041 51.0937C65.0201 51.0337 65.1091 50.9497 65.1711 50.8417C65.2351 50.7337 65.2671 50.6077 65.2671 50.4637C65.2671 50.3177 65.2351 50.1917 65.1711 50.0857C65.1091 49.9777 65.0201 49.8937 64.9041 49.8337C64.7901 49.7737 64.6541 49.7437 64.4961 49.7437H63.9861V51.1837Z" fill="#F8E643"/>
<path d="M74.6662 53.2859H50.0418C49.7017 53.2859 49.4247 53.0351 49.4247 52.7266V47.8298C49.4247 47.5215 49.7015 47.2705 50.0418 47.2705H74.6664C75.0066 47.2705 75.2835 47.5213 75.2835 47.8298V52.7266C75.2833 53.0351 75.0066 53.2859 74.6662 53.2859ZM50.0418 47.479C49.8283 47.479 49.6546 47.6365 49.6546 47.83V52.7268C49.6546 52.9203 49.8283 53.0778 50.0418 53.0778H74.6664C74.88 53.0778 75.0537 52.9203 75.0537 52.7268V47.83C75.0537 47.6365 74.88 47.479 74.6664 47.479H50.0418Z" fill="#F8E643"/>
<path d="M52.9685 60.9063C52.8085 60.9063 52.6605 60.8803 52.5245 60.8283C52.3905 60.7743 52.2735 60.6993 52.1735 60.6033C52.0755 60.5053 51.9985 60.3913 51.9425 60.2613C51.8865 60.1313 51.8585 59.9883 51.8585 59.8323C51.8585 59.6763 51.8865 59.5333 51.9425 59.4033C51.9985 59.2733 52.0765 59.1603 52.1765 59.0643C52.2765 58.9663 52.3935 58.8913 52.5275 58.8393C52.6635 58.7853 52.8115 58.7583 52.9715 58.7583C53.1335 58.7583 53.2825 58.7863 53.4185 58.8423C53.5565 58.8963 53.6735 58.9773 53.7695 59.0853L53.5745 59.2743C53.4945 59.1903 53.4045 59.1283 53.3045 59.0883C53.2045 59.0463 53.0975 59.0253 52.9835 59.0253C52.8655 59.0253 52.7555 59.0453 52.6535 59.0853C52.5535 59.1253 52.4665 59.1813 52.3925 59.2533C52.3185 59.3253 52.2605 59.4113 52.2185 59.5113C52.1785 59.6093 52.1585 59.7163 52.1585 59.8323C52.1585 59.9483 52.1785 60.0563 52.2185 60.1563C52.2605 60.2543 52.3185 60.3393 52.3925 60.4113C52.4665 60.4833 52.5535 60.5393 52.6535 60.5793C52.7555 60.6193 52.8655 60.6393 52.9835 60.6393C53.0975 60.6393 53.2045 60.6193 53.3045 60.5793C53.4045 60.5373 53.4945 60.4733 53.5745 60.3873L53.7695 60.5763C53.6735 60.6843 53.5565 60.7663 53.4185 60.8223C53.2825 60.8783 53.1325 60.9063 52.9685 60.9063ZM53.8297 60.8823L54.7807 58.7823H55.0777L56.0317 60.8823H55.7167L54.8677 58.9503H54.9877L54.1387 60.8823H53.8297ZM54.2347 60.3573L54.3157 60.1173H55.4977L55.5847 60.3573H54.2347ZM56.345 60.8823V58.7823H56.591L57.98 60.5073H57.851V58.7823H58.151V60.8823H57.905L56.516 59.1573H56.645V60.8823H56.345ZM59.7185 60.9063C59.5585 60.9063 59.4105 60.8803 59.2745 60.8283C59.1405 60.7743 59.0235 60.6993 58.9235 60.6033C58.8255 60.5053 58.7485 60.3913 58.6925 60.2613C58.6365 60.1313 58.6085 59.9883 58.6085 59.8323C58.6085 59.6763 58.6365 59.5333 58.6925 59.4033C58.7485 59.2733 58.8265 59.1603 58.9265 59.0643C59.0265 58.9663 59.1435 58.8913 59.2775 58.8393C59.4135 58.7853 59.5615 58.7583 59.7215 58.7583C59.8835 58.7583 60.0325 58.7863 60.1685 58.8423C60.3065 58.8963 60.4235 58.9773 60.5195 59.0853L60.3245 59.2743C60.2445 59.1903 60.1545 59.1283 60.0545 59.0883C59.9545 59.0463 59.8475 59.0253 59.7335 59.0253C59.6155 59.0253 59.5055 59.0453 59.4035 59.0853C59.3035 59.1253 59.2165 59.1813 59.1425 59.2533C59.0685 59.3253 59.0105 59.4113 58.9685 59.5113C58.9285 59.6093 58.9085 59.7163 58.9085 59.8323C58.9085 59.9483 58.9285 60.0563 58.9685 60.1563C59.0105 60.2543 59.0685 60.3393 59.1425 60.4113C59.2165 60.4833 59.3035 60.5393 59.4035 60.5793C59.5055 60.6193 59.6155 60.6393 59.7335 60.6393C59.8475 60.6393 59.9545 60.6193 60.0545 60.5793C60.1545 60.5373 60.2445 60.4733 60.3245 60.3873L60.5195 60.5763C60.4235 60.6843 60.3065 60.7663 60.1685 60.8223C60.0325 60.8783 59.8825 60.9063 59.7185 60.9063ZM61.2205 59.6883H62.3005V59.9433H61.2205V59.6883ZM61.2475 60.6213H62.4715V60.8823H60.9475V58.7823H62.4295V59.0433H61.2475V60.6213ZM62.9573 60.8823V58.7823H63.2573V60.6213H64.3943V60.8823H62.9573ZM65.0115 59.6883H66.0915V59.9433H65.0115V59.6883ZM65.0385 60.6213H66.2625V60.8823H64.7385V58.7823H66.2205V59.0433H65.0385V60.6213ZM66.7483 60.8823V58.7823H67.6333C67.8573 58.7823 68.0543 58.8263 68.2243 58.9143C68.3963 59.0023 68.5293 59.1253 68.6233 59.2833C68.7193 59.4413 68.7673 59.6243 68.7673 59.8323C68.7673 60.0403 68.7193 60.2233 68.6233 60.3813C68.5293 60.5393 68.3963 60.6623 68.2243 60.7503C68.0543 60.8383 67.8573 60.8823 67.6333 60.8823H66.7483ZM67.0483 60.6213H67.6153C67.7893 60.6213 67.9393 60.5883 68.0653 60.5223C68.1933 60.4563 68.2923 60.3643 68.3623 60.2463C68.4323 60.1263 68.4673 59.9883 68.4673 59.8323C68.4673 59.6743 68.4323 59.5363 68.3623 59.4183C68.2923 59.3003 68.1933 59.2083 68.0653 59.1423C67.9393 59.0763 67.7893 59.0433 67.6153 59.0433H67.0483V60.6213Z" fill="#F8E643"/>
<path d="M74.6662 62.7017H50.0418C49.7017 62.7017 49.4247 62.4509 49.4247 62.1426V57.2458C49.4247 56.9375 49.7015 56.6865 50.0418 56.6865H74.6664C75.0066 56.6865 75.2835 56.9373 75.2835 57.2458V62.1426C75.2833 62.4509 75.0066 62.7017 74.6662 62.7017ZM50.0418 56.895C49.8283 56.895 49.6546 57.0525 49.6546 57.246V62.1428C49.6546 62.3364 49.8283 62.4936 50.0418 62.4936H74.6664C74.88 62.4936 75.0537 62.3364 75.0537 62.1428V57.246C75.0537 57.0525 74.88 56.895 74.6664 56.895H50.0418Z" fill="#F8E643"/>
<path d="M11.2459 53.1193L13.8786 43.7567L13.2856 43.5718L10.6529 52.9341L11.2459 53.1193Z" fill="#323233"/>
<path d="M16.9022 54.6837L19.5352 45.3214L18.9422 45.1362L16.3093 54.4987L16.9022 54.6837Z" fill="#323233"/>
<path d="M19.8174 45.7982L12.4931 44.1929C12.113 44.1095 11.8795 43.7627 11.9714 43.4184L11.9923 43.3401C12.0843 42.9956 12.4667 42.7839 12.8469 42.8673L20.1714 44.4726C20.5515 44.5559 20.785 44.9025 20.6931 45.247L20.6722 45.3254C20.5802 45.6697 20.1976 45.8815 19.8174 45.7982Z" fill="#141C34"/>
<path d="M11.1422 77.7886L0.956273 75.2011C0.260113 75.0243 -0.146228 74.3694 0.0488987 73.7385L6.59679 52.5664C6.79192 51.9354 7.51451 51.5672 8.21067 51.744L18.3966 54.3315C19.0927 54.5083 19.4991 55.1632 19.3039 55.7941L12.7561 76.9662C12.5612 77.5974 11.8386 77.9654 11.1422 77.7886Z" fill="#111111"/>
<path opacity="0.49" d="M13.5763 74.0011L3.61844 71.542C2.8377 71.3435 2.3808 70.6071 2.59959 69.9002L7.84895 52.9271C7.9549 52.5845 8.20151 52.2999 8.54349 52.1256C8.88548 51.9513 9.28172 51.9079 9.65979 52.0044L9.59796 52.205C9.27918 52.1239 8.94478 52.1602 8.65611 52.3072C8.36744 52.4543 8.15945 52.6943 8.07004 52.9832L2.82069 69.9562C2.73129 70.2453 2.77128 70.5484 2.93354 70.8098C3.0958 71.0714 3.36056 71.2601 3.67934 71.3412L13.6366 73.8001L13.5763 74.0011Z" fill="white"/>
<path opacity="0.49" d="M9.97441 77.6902L1.18451 75.376L1.36562 74.8101C1.52167 74.3247 2.08453 74.0448 2.61958 74.1852L9.46649 75.9878C9.72597 76.0561 9.94063 76.2119 10.0707 76.4264C10.2008 76.6412 10.2311 76.8891 10.1558 77.1242L9.97441 77.6902ZM1.46904 75.2339L9.81767 77.4319L9.93488 77.0661C9.99326 76.8845 9.96982 76.6928 9.86938 76.527C9.76872 76.361 9.60301 76.2406 9.40236 76.1879L2.55545 74.3853C2.14061 74.2762 1.70692 74.4932 1.58648 74.8682L1.46904 75.2339Z" fill="white"/>
<path d="M11.6414 77.6995C11.8386 78.7393 11.0682 79.7271 9.92086 79.9058C8.77354 80.0845 7.68368 79.3863 7.48649 78.3465C7.28929 77.3067 8.05969 76.3189 9.20701 76.1402C10.3543 75.9615 11.4444 76.6597 11.6414 77.6995Z" fill="#434343"/>
<path opacity="0.27" d="M10.7207 77.8427C10.8305 78.4217 10.4014 78.9716 9.76273 79.071C9.12403 79.1703 8.51704 78.7817 8.40718 78.2028C8.29755 77.6237 8.72642 77.0738 9.36512 76.9745C10.0038 76.8751 10.611 77.2638 10.7207 77.8427Z" fill="#A2D5F2"/>
<path opacity="0.49" d="M11.2598 70.9962C11.2184 70.9962 11.1771 70.991 11.1364 70.9803L10.7645 70.8824C10.6519 70.8527 10.5586 70.785 10.5021 70.6919C10.4455 70.5985 10.4322 70.4908 10.4651 70.3888L14.8123 56.8258C14.8452 56.7237 14.9199 56.6391 15.0226 56.5879C15.1251 56.5369 15.2442 56.525 15.357 56.5544L15.7287 56.6523C15.8413 56.682 15.9346 56.7497 15.9911 56.8428C16.0477 56.9362 16.061 57.0439 16.0281 57.1459L11.6809 70.7089C11.648 70.811 11.5735 70.8956 11.4708 70.9468C11.4051 70.9795 11.3329 70.9962 11.2598 70.9962ZM15.2341 56.7468C15.1994 56.7468 15.1647 56.7547 15.1334 56.7704C15.0842 56.7947 15.0486 56.8351 15.0332 56.8839L10.6859 70.4469C10.6703 70.4956 10.6765 70.5469 10.7034 70.5912C10.7303 70.6358 10.7749 70.6681 10.8287 70.6823L11.2005 70.7802C11.2536 70.7939 11.3108 70.7887 11.3598 70.7643C11.409 70.74 11.4444 70.6998 11.4598 70.651L15.807 57.0878C15.8227 57.0391 15.8165 56.9878 15.7896 56.9435C15.7627 56.8989 15.7181 56.8666 15.6643 56.8524L15.2927 56.7545C15.2736 56.7495 15.2538 56.7468 15.2341 56.7468Z" fill="white"/>
<path opacity="0.49" d="M7.56348 70.0233C7.5228 70.0233 7.48189 70.0183 7.44098 70.0075L7.06934 69.9096C6.95672 69.8798 6.86341 69.8121 6.80687 69.719C6.75033 69.6259 6.73701 69.5182 6.76987 69.4161L11.1171 55.8529C11.1849 55.6423 11.4283 55.5209 11.6616 55.5815L12.0335 55.6796C12.1461 55.7094 12.2392 55.7769 12.2959 55.87C12.3525 55.9631 12.3658 56.0708 12.3329 56.1731L7.98568 69.7361C7.92983 69.91 7.75401 70.0233 7.56348 70.0233ZM11.5393 55.7742C11.4486 55.7742 11.3644 55.8281 11.338 55.911L6.99074 69.4743C6.97511 69.5228 6.98132 69.5742 7.00821 69.6184C7.0351 69.663 7.07968 69.6953 7.13346 69.7094L7.5051 69.8073C7.55842 69.8213 7.61542 69.8159 7.66437 69.7915C7.71356 69.7671 7.74918 69.7269 7.76458 69.678L12.1118 56.115C12.1275 56.0662 12.1213 56.015 12.0944 55.9706C12.0675 55.926 12.0229 55.894 11.9693 55.8798L11.5973 55.7817C11.5782 55.7767 11.5586 55.7742 11.5393 55.7742Z" fill="white"/>
<path d="M37.0876 25.3037C36.8975 25.0242 36.6596 24.7649 36.5817 24.4257C36.4618 23.9044 36.7532 23.392 36.9056 22.8819C37.1524 22.0555 37.0191 21.1003 36.5583 20.3935C36.1402 19.7528 35.5043 19.3448 34.9299 18.8715C34.8109 18.7724 34.8929 18.1814 34.8812 18.0354C34.8387 17.5036 34.7732 16.9652 34.6137 16.4497C34.3577 15.6221 33.8417 14.9866 32.9718 14.6004C32.1248 14.2244 31.1598 14.0957 30.2214 14.0776C29.4602 14.0628 28.6921 14.1144 27.9596 14.2986C27.2271 14.4827 26.5296 14.8041 25.99 15.2801C25.1239 16.0439 24.8642 17.0623 24.8454 18.1094C24.8431 18.2414 24.9359 18.8242 24.8523 18.8936C24.2805 19.3691 23.1403 19.7809 22.7259 20.4235C22.2688 21.1324 22.1405 22.088 22.3917 22.9133C22.5468 23.4228 22.8408 23.9338 22.7238 24.4557C22.6477 24.7951 22.4112 25.0556 22.2226 25.3358C22.0339 25.6162 21.8833 25.9865 22.0084 26.3075C22.3179 27.1038 24.064 26.8814 24.6726 26.9014C25.9904 26.9449 27.309 26.9676 28.6275 26.9697C28.9716 26.9703 29.3156 26.9655 29.6594 26.9632C30.0035 26.964 30.3476 26.9672 30.6914 26.9651C32.0099 26.9572 33.3282 26.9286 34.6461 26.8795C35.2545 26.8568 37.0016 27.0715 37.3071 26.274C37.43 25.9528 37.2777 25.5833 37.0876 25.3037Z" fill="#54132A"/>
<path d="M33.707 17.8494L33.2937 17.8465C33.1126 17.8453 32.9442 17.7649 32.8451 17.6326L32.5155 17.1925C32.3691 17.1914 32.3965 17.8344 32.2538 17.8224C31.4385 17.7534 30.6957 17.5068 30.0869 17.1377C30.1101 18.356 29.5307 19.3498 28.6925 19.4342L27.7477 19.5294C27.6488 19.5394 27.5599 19.4748 27.5491 19.3854L27.4707 18.7462C27.4641 18.692 27.4606 18.6387 27.4565 18.5851L27.1761 18.5854L26.6383 18.5764C26.0014 18.566 25.4707 19.0294 25.4592 19.6066C25.4475 20.1838 25.9591 20.6646 26.596 20.6752L26.8215 20.6789V25.0292C26.8215 25.9443 27.6475 26.6931 28.6571 26.6931H29.4059C30.4156 26.6931 31.2418 25.9445 31.2418 25.0292V23.8011C31.952 23.6451 32.5606 23.2524 32.9575 22.7167C33.3825 22.2735 33.6452 21.6983 33.658 21.0653L33.7182 18.0736C33.7194 17.9978 33.7125 17.9238 33.707 17.8494Z" fill="#FFA698"/>
<path opacity="0.41" d="M27.3928 20.9615C27.3638 22.3936 28.6215 23.5757 30.2016 23.6019L30.744 23.6109C31.6238 23.6254 32.4174 23.2778 32.9536 22.7202C32.5396 23.2759 31.898 23.6796 31.1508 23.8206C31.1489 23.8258 31.148 23.831 31.1462 23.836C30.878 24.5863 29.9894 24.9973 29.1616 24.7542C28.4241 24.5376 27.9853 23.8748 28.0876 23.2024C27.4829 22.7127 27.1067 21.9976 27.1227 21.205L27.1333 20.6841L27.3983 20.6885L27.3928 20.9615Z" fill="#FF755F"/>
<path d="M26.2595 19.9121C26.2754 19.9121 26.2915 19.909 26.3062 19.9023L26.7923 19.6859C26.8203 19.6734 26.8408 19.6507 26.8484 19.6234C26.8562 19.5961 26.8502 19.5672 26.8325 19.5442L26.4165 19.0056C26.3827 18.9618 26.3168 18.9512 26.2685 18.9818C26.2202 19.0123 26.2088 19.0725 26.2423 19.116L26.5873 19.5626L26.2129 19.7294C26.16 19.753 26.1384 19.8104 26.1642 19.8584C26.1826 19.8923 26.2202 19.9121 26.2595 19.9121Z" fill="#FF755F"/>
<path d="M26.7027 20.2953C26.6905 20.3911 26.5949 20.46 26.4892 20.449C26.3834 20.4379 26.3076 20.3513 26.3195 20.2555C26.3317 20.1597 26.4273 20.0907 26.5331 20.1017C26.6388 20.1128 26.7148 20.1994 26.7027 20.2953Z" fill="white"/>
<mask id="mask0_1102_68050" style="mask-type:luminance" maskUnits="userSpaceOnUse" x="32" y="19" width="2" height="2">
<path d="M33.582 20.0098C33.5562 19.8355 33.453 19.5766 33.0699 19.5228C33.0067 19.5139 32.9481 19.5145 32.8929 19.5211C32.6371 19.5518 32.4636 19.7286 32.3602 19.8802C32.2837 19.9923 32.3542 20.1415 32.4972 20.1667C32.8877 20.2354 33.2775 20.2091 33.4678 20.1885C33.5397 20.1808 33.593 20.1233 33.5877 20.0579C33.5863 20.0427 33.5845 20.0267 33.582 20.0098Z" fill="white"/>
</mask>
<g mask="url(#mask0_1102_68050)">
<path d="M33.582 20.0098C33.5562 19.8355 33.453 19.5766 33.0699 19.5228C33.0067 19.5139 32.9481 19.5145 32.8929 19.5211C32.6371 19.5518 32.4636 19.7286 32.3602 19.8802C32.2837 19.9923 32.3542 20.1415 32.4972 20.1667C32.8877 20.2354 33.2775 20.2091 33.4678 20.1885C33.5397 20.1808 33.593 20.1233 33.5877 20.0579C33.5863 20.0427 33.5845 20.0267 33.582 20.0098Z" fill="white"/>
</g>
<mask id="mask1_1102_68050" style="mask-type:luminance" maskUnits="userSpaceOnUse" x="32" y="19" width="2" height="2">
<path d="M33.582 20.0098C33.5562 19.8355 33.453 19.5766 33.0699 19.5228C33.0067 19.5139 32.9481 19.5145 32.8929 19.5211C32.6371 19.5518 32.4636 19.7286 32.3602 19.8802C32.2837 19.9923 32.3542 20.1415 32.4972 20.1667C32.8877 20.2354 33.2775 20.2091 33.4678 20.1885C33.5397 20.1808 33.593 20.1233 33.5877 20.0579C33.5863 20.0427 33.5845 20.0267 33.582 20.0098Z" fill="white"/>
</mask>
<g mask="url(#mask1_1102_68050)">
<path d="M33.5324 20.0662C33.5324 20.2533 33.3483 20.4049 33.1212 20.4049C32.8941 20.4049 32.71 20.2533 32.71 20.0662C32.71 19.8792 32.8941 19.7275 33.1212 19.7275C33.3483 19.7275 33.5324 19.879 33.5324 20.0662Z" fill="#54132A"/>
</g>
<path d="M32.2018 19.0947L32.1919 19.8198C32.1903 19.9448 32.3172 20.051 32.4801 20.061C32.5967 20.0681 32.6858 20.146 32.6792 20.2351C32.6585 20.5153 32.3448 20.7242 31.9787 20.7021L31.6907 20.6847" fill="#FFA698"/>
<path d="M32.0326 20.7996C32.2126 20.7996 32.3845 20.7507 32.5215 20.6592C32.6796 20.5538 32.7734 20.4055 32.7853 20.2412C32.7959 20.0993 32.6624 19.9752 32.4875 19.9645C32.382 19.9581 32.2972 19.8935 32.2981 19.8206L32.308 19.0955C32.3087 19.0422 32.2618 18.9987 32.2032 18.998C32.2025 18.998 32.2022 18.998 32.2018 18.998C32.1436 18.998 32.0963 19.0405 32.0956 19.093L32.0857 19.8181C32.0834 19.9945 32.2537 20.1433 32.4732 20.1566C32.5291 20.1601 32.576 20.1935 32.5734 20.2282C32.5656 20.3349 32.5026 20.433 32.3958 20.5038C32.2836 20.5786 32.1365 20.614 31.9862 20.6055L31.6985 20.588C31.6353 20.5851 31.5891 20.6246 31.5854 20.6775C31.5815 20.7307 31.6258 20.7765 31.6842 20.78L31.972 20.7975C31.992 20.799 32.0122 20.7996 32.0326 20.7996Z" fill="#FF755F"/>
<path d="M31.1531 21.6144C31.1531 21.6144 31.0375 20.8485 30.0345 21.0116L31.1531 21.6144Z" fill="#FFA698"/>
<path d="M31.1531 21.6922C31.1106 21.6922 31.0738 21.6638 31.0678 21.6249C31.0674 21.6222 31.0223 21.3531 30.7755 21.1914C30.5962 21.0739 30.3519 21.0392 30.0499 21.0881C30.0016 21.0962 29.9582 21.0673 29.9497 21.025C29.9414 20.9825 29.9725 20.9419 30.0193 20.9342C30.3705 20.8773 30.6594 20.9215 30.8784 21.0658C31.1848 21.2677 31.2365 21.5895 31.2384 21.6032C31.2448 21.6459 31.2122 21.6851 31.165 21.6909C31.1609 21.692 31.157 21.6922 31.1531 21.6922Z" fill="#FF755F"/>
<mask id="mask2_1102_68050" style="mask-type:luminance" maskUnits="userSpaceOnUse" x="30" y="19" width="2" height="2">
<path d="M31.6185 19.8518C31.587 19.6387 31.4609 19.3223 30.9927 19.2567C30.9155 19.2459 30.844 19.2465 30.7764 19.2546C30.4636 19.2919 30.2517 19.5083 30.1253 19.6933C30.0318 19.8303 30.1182 20.0126 30.2926 20.0432C30.7698 20.1272 31.2464 20.0951 31.4788 20.0699C31.5666 20.0603 31.6318 19.9901 31.6254 19.9101C31.624 19.892 31.6215 19.8722 31.6185 19.8518Z" fill="white"/>
</mask>
<g mask="url(#mask2_1102_68050)">
<path d="M31.6185 19.8518C31.587 19.6387 31.4609 19.3223 30.9927 19.2567C30.9155 19.2459 30.844 19.2465 30.7764 19.2546C30.4636 19.2919 30.2517 19.5083 30.1253 19.6933C30.0318 19.8303 30.1182 20.0126 30.2926 20.0432C30.7698 20.1272 31.2464 20.0951 31.4788 20.0699C31.5666 20.0603 31.6318 19.9901 31.6254 19.9101C31.624 19.892 31.6215 19.8722 31.6185 19.8518Z" fill="white"/>
</g>
<mask id="mask3_1102_68050" style="mask-type:luminance" maskUnits="userSpaceOnUse" x="30" y="19" width="2" height="2">
<path d="M31.6185 19.8518C31.587 19.6387 31.4609 19.3223 30.9927 19.2567C30.9155 19.2459 30.844 19.2465 30.7764 19.2546C30.4636 19.2919 30.2517 19.5083 30.1253 19.6933C30.0318 19.8303 30.1182 20.0126 30.2926 20.0432C30.7698 20.1272 31.2464 20.0951 31.4788 20.0699C31.5666 20.0603 31.6318 19.9901 31.6254 19.9101C31.624 19.892 31.6215 19.8722 31.6185 19.8518Z" fill="white"/>
</mask>
<g mask="url(#mask3_1102_68050)">
<path d="M31.5578 19.9204C31.5578 20.1492 31.3328 20.3345 31.0552 20.3345C30.7776 20.3345 30.5526 20.1492 30.5526 19.9204C30.5526 19.6917 30.7776 19.5063 31.0552 19.5063C31.3328 19.5063 31.5578 19.6917 31.5578 19.9204Z" fill="#54132A"/>
</g>
<path d="M31.5516 18.8524C31.4682 18.8143 31.357 18.8181 31.2492 18.816C31.1405 18.816 31.0315 18.8137 30.9368 18.8085C30.8419 18.8035 30.7332 18.7941 30.6252 18.7824C30.5179 18.7728 30.4071 18.7572 30.3207 18.7862C30.2372 18.813 30.1982 18.9005 30.2873 19.0157C30.371 19.1276 30.6001 19.2567 30.9141 19.2742C31.2278 19.2903 31.4684 19.1865 31.5624 19.0843C31.6622 18.9795 31.6321 18.888 31.5516 18.8524Z" fill="#54132A"/>
<path d="M32.4576 19.0363C32.5302 19.0003 32.6291 19.0003 32.7245 18.9953C32.8208 18.9921 32.9173 18.9869 33.0012 18.9796C33.0851 18.9723 33.1811 18.9611 33.2765 18.9476C33.3714 18.9361 33.4689 18.919 33.5466 18.9421C33.6215 18.9636 33.6592 19.04 33.584 19.1448C33.5139 19.2465 33.3151 19.3675 33.0375 19.3921C32.7599 19.4154 32.5431 19.3302 32.4562 19.2423C32.3641 19.1519 32.3878 19.0702 32.4576 19.0363Z" fill="#54132A"/>
<g opacity="0.61">
<path d="M30.8003 22.6036C30.8003 22.6036 31.0717 22.376 31.3935 22.6036H30.8003Z" fill="#FFA698"/>
<path d="M31.3935 22.6817C31.3749 22.6817 31.3562 22.6763 31.3406 22.6652C31.0867 22.4857 30.881 22.6425 30.8584 22.6613C30.8237 22.69 30.7688 22.6877 30.7371 22.6563C30.7049 22.6246 30.707 22.5757 30.7417 22.5465C30.8543 22.4521 31.1469 22.3299 31.4463 22.5423C31.484 22.5688 31.4905 22.6179 31.4613 22.6519C31.4445 22.6715 31.419 22.6817 31.3935 22.6817Z" fill="#FF755F"/>
</g>
<path d="M15.7593 41.4127C16.7023 38.9169 17.6453 36.4208 18.5883 33.9248C19.4212 31.7202 20.0013 29.3271 21.5349 27.4068C22.3033 26.4447 23.3626 25.6557 24.6448 25.3484C26.1371 24.9912 27.7248 25.2482 29.2456 25.207C30.2021 25.1812 31.1771 25.2247 32.138 25.2247C33.5953 25.2247 35.0102 25.7788 36.0093 26.7401C36.6241 27.3316 39.4462 34.3864 37.1267 35.6974C36.6172 35.9855 34.4604 33.421 34.4604 33.421L33.2226 39.0275H23.9631L23.1125 35.5137L19.3474 42.9901L15.7593 41.4127Z" fill="#111111"/>
<path d="M16.8852 41.0269L15.0123 41.3314C14.6797 41.3855 14.3989 41.587 14.2647 41.868L13.4543 43.5635C13.2932 43.9005 13.4738 44.2911 13.8519 44.4235L14.2431 44.5604L14.3908 43.3531L14.1799 45.0761C14.1562 45.2688 14.3446 45.4263 14.5506 45.3859C14.7344 45.3498 14.8852 45.2286 14.9486 45.0655L15.6149 43.3539L15.1394 45.3794C15.1054 45.5244 15.2764 45.6362 15.4138 45.559C15.9371 45.264 16.3345 44.8122 16.5391 44.2794L16.7167 43.8164C16.7167 43.8164 17.7475 44.3496 18.9983 43.9636C19.3973 43.8405 19.6673 43.511 19.6942 43.13C19.7494 42.3547 19.4444 41.0877 16.8852 41.0269Z" fill="#FFA698"/>
<path d="M14.1258 44.5224C14.101 44.5066 14.0867 44.4787 14.0916 44.4491L14.2998 43.2008C14.3067 43.1599 14.3483 43.1318 14.3929 43.1381C14.4375 43.1445 14.4678 43.1827 14.4609 43.2237L14.2527 44.472C14.2458 44.5128 14.2042 44.5409 14.1596 44.5347C14.1472 44.533 14.1357 44.5287 14.1258 44.5224Z" fill="#FF8E77"/>
<path d="M15.3161 43.486C15.2876 43.4679 15.2738 43.4346 15.2844 43.4025C15.2975 43.3629 15.3427 43.3404 15.386 43.3523C15.386 43.3523 15.5448 43.3965 15.7211 43.4491C15.7645 43.4621 15.7875 43.5043 15.7735 43.5435C15.7597 43.5831 15.7137 43.6045 15.6709 43.5918C15.496 43.54 15.3386 43.496 15.3386 43.496C15.3306 43.4937 15.323 43.4904 15.3161 43.486Z" fill="#FF8E77"/>
<path d="M14.207 43.1807C14.1785 43.1626 14.1647 43.1293 14.1752 43.0972C14.1883 43.0576 14.2336 43.0351 14.2768 43.0472C14.2768 43.0472 14.4356 43.0914 14.6119 43.1439C14.6544 43.1564 14.6783 43.1988 14.6643 43.2382C14.6505 43.2778 14.6046 43.2993 14.5618 43.2865C14.3871 43.2347 14.2299 43.1909 14.2295 43.1909C14.2212 43.1882 14.2136 43.1849 14.207 43.1807Z" fill="#FF8E77"/>
<path d="M16.5962 43.9386C16.5661 43.9195 16.5528 43.8834 16.5661 43.8505C16.6112 43.7403 16.6208 43.5843 16.6208 43.5829C16.6231 43.5414 16.6615 43.5095 16.7066 43.5118C16.7516 43.5141 16.7861 43.5495 16.7836 43.5908C16.7831 43.5981 16.7725 43.7712 16.7187 43.9034C16.7029 43.9422 16.6558 43.962 16.6137 43.9474C16.6075 43.9449 16.6015 43.9422 16.5962 43.9386Z" fill="#FF8E77"/>
<path d="M26.5487 24.8012C26.5487 26.3015 27.7335 27.518 29.1948 27.518C30.656 27.518 31.8408 26.3017 31.8408 24.8012C31.8408 24.7993 31.8408 24.7976 31.8408 24.7957C31.8392 24.5037 31.5841 24.2692 31.2763 24.264C30.2906 24.2473 28.1378 24.2498 27.1355 24.2523C26.8174 24.2529 26.5503 24.4937 26.5487 24.7955C26.5487 24.7972 26.5487 24.7993 26.5487 24.8012Z" fill="#F8E643"/>
<path d="M36.6008 25.9724L34.4597 25.7287C34.1727 25.696 33.969 25.4588 34.0049 25.1984L34.6367 20.6144C34.6725 20.3538 34.9348 20.1693 35.2223 20.202L37.3634 20.4457C37.6505 20.4784 37.8541 20.7157 37.8182 20.976L37.1862 25.56C37.1506 25.8204 36.8883 26.0051 36.6008 25.9724Z" fill="#353148"/>
<path d="M34.2681 23.5764C34.2317 23.7516 34.3097 23.9255 34.4411 23.963L34.6549 24.024C34.5491 24.0065 34.4416 24.0899 34.4064 24.23C34.3896 24.2971 34.3949 24.3638 34.4126 24.4229C34.4069 24.4533 34.4156 24.4789 34.443 24.4979C34.4453 24.4994 34.4489 24.5021 34.4515 24.5037C34.4765 24.5402 34.5064 24.5708 34.5452 24.585L34.5992 24.6046C34.9465 24.8385 35.7137 25.4171 36.3908 25.6633L38.7038 24.9441C38.6866 24.4579 38.5829 23.3691 38.2988 22.9463C38.1444 22.7163 37.9978 22.4881 37.8222 22.4324L37.6344 22.2514C37.6054 22.4606 37.4997 22.6422 37.3489 22.7824C37.3255 22.7686 37.3032 22.7528 37.2761 22.7463L34.7797 22.145C34.6188 22.1062 34.4602 22.2258 34.4271 22.411C34.4027 22.5478 34.4542 22.683 34.5475 22.7601L34.4892 22.7457C34.3568 22.7128 34.2219 22.8301 34.189 23.0061C34.1561 23.1821 34.2375 23.3531 34.3699 23.386L34.3706 23.3862C34.3223 23.4314 34.2846 23.497 34.2681 23.5764ZM34.7617 24.0544L34.7725 24.0576L34.7718 24.0582L34.7617 24.0544Z" fill="#FFA698"/>
<path d="M35.5213 23.0148C35.5526 23.0161 35.5809 22.9969 35.588 22.9684C35.5958 22.9363 35.5737 22.9046 35.5383 22.8976L34.5034 22.6876C34.4666 22.6801 34.4331 22.7005 34.425 22.7326C34.4172 22.7647 34.4393 22.7963 34.4747 22.8034L35.5096 23.0134C35.5138 23.0142 35.5174 23.0146 35.5213 23.0148Z" fill="#FB8E77"/>
<path d="M35.4409 23.6561C35.471 23.6572 35.499 23.6393 35.5068 23.612C35.516 23.5803 35.4951 23.5478 35.4602 23.5395L34.5671 23.327C34.5303 23.3191 34.4961 23.3376 34.4871 23.3693C34.4779 23.401 34.4988 23.4335 34.5337 23.4418L35.4269 23.6545C35.4317 23.6553 35.4361 23.6559 35.4409 23.6561Z" fill="#FB8E77"/>
<path d="M35.4241 24.2886C35.4533 24.2896 35.4807 24.273 35.4896 24.2463C35.5 24.2151 35.4804 24.1818 35.4457 24.1724L34.6832 23.9645C34.6475 23.9549 34.6119 23.9728 34.6013 24.0043C34.591 24.0355 34.6105 24.0689 34.6452 24.0782L35.4078 24.2861C35.4136 24.2878 35.4189 24.2884 35.4241 24.2886Z" fill="#FB8E77"/>
<path d="M38.9389 24.7322C39.1749 24.6195 39.4289 24.7726 39.4535 25.0426L40.1113 32.2748C40.291 34.5769 38.3848 36.5716 36.4781 35.4691C35.4314 34.8638 34.8996 33.5698 35.0639 32.2388L35.8523 25.8537L35.9343 25.8241L38.8495 24.7747L38.9389 24.7322Z" fill="#111111"/>
<path d="M29.1527 28.1856V27.2216C29.1527 25.8266 27.9049 24.6958 26.3658 24.6958C26.3658 24.6958 25.1957 28.1471 29.1527 28.1856Z" fill="white"/>
<path d="M29.138 28.1856V27.2216C29.138 25.8266 30.3858 24.6958 31.9249 24.6958C31.9249 24.6958 33.095 28.1471 29.138 28.1856Z" fill="white"/>
<path d="M35.1798 34.3442C35.1432 34.3442 35.1071 34.3281 35.0848 34.2985L34.1126 33.0036C34.077 32.9561 34.0904 32.8913 34.143 32.8588C34.1954 32.8267 34.2669 32.8386 34.3025 32.8863L35.2747 34.1813C35.3103 34.2288 35.297 34.2935 35.2443 34.326C35.2246 34.3383 35.2021 34.3442 35.1798 34.3442Z" fill="#FDFDFD"/>
<path d="M35.4634 29.94C35.4595 29.94 35.4558 29.9398 35.4519 29.9395C35.3887 29.9339 35.3425 29.8829 35.3487 29.8256L35.7755 25.9067C35.7819 25.8496 35.841 25.8084 35.9012 25.8134C35.9644 25.819 36.0106 25.8701 36.0044 25.9273L35.5776 29.8462C35.5716 29.8998 35.5218 29.94 35.4634 29.94Z" fill="#FDFDFD"/>
<path d="M36.5344 26.5375C36.3659 26.5375 36.2287 26.4131 36.2287 26.2604C36.2287 26.1078 36.3659 25.9834 36.5344 25.9834C36.7028 25.9834 36.8401 26.1078 36.8401 26.2604C36.8401 26.4131 36.7031 26.5375 36.5344 26.5375ZM36.5344 26.1915C36.4925 26.1915 36.4585 26.2223 36.4585 26.2602C36.4585 26.2981 36.4925 26.329 36.5344 26.329C36.5762 26.329 36.6102 26.2981 36.6102 26.2602C36.6102 26.2223 36.5762 26.1915 36.5344 26.1915Z" fill="#FDFDFD"/>
<path d="M23.2901 35.5469C23.2885 35.5469 23.2871 35.5469 23.2855 35.5467C23.2221 35.5444 23.1727 35.4959 23.1752 35.4384L23.3558 31.3252C23.3584 31.2677 23.4133 31.2227 23.4754 31.2252C23.5388 31.2275 23.5882 31.276 23.5857 31.3335L23.405 35.4469C23.4025 35.503 23.3517 35.5469 23.2901 35.5469Z" fill="#FDFDFD"/>
<path d="M32.7946 77.121L32.7953 77.1383C32.8153 77.6318 32.8916 78.1219 33.0224 78.6012L33.2782 79.5369L34.9309 79.2246L40.707 78.1338L40.702 78.1121C40.5774 77.5703 40.1272 77.1381 39.5374 76.9944L34.9206 76.1333L32.7946 77.121Z" fill="#111111"/>
<path d="M27.2134 77.4213L27.2166 77.4384C27.3081 77.9252 27.3439 78.419 27.3235 78.9125L27.2837 79.8759H19.6954V79.8538C19.6954 79.3003 20.039 78.794 20.5839 78.5442L24.9098 76.8477L27.2134 77.4213Z" fill="#111111"/>
<path d="M36.1039 76.1802L36.0001 75.4978L35.2657 56.1138C33.6767 56.1608 31.3517 56.2298 29.0729 56.2971L32.7951 77.1386L36.217 77.7035C36.9263 77.8205 37.8196 77.2996 38.2021 76.7457L36.1039 76.1802Z" fill="#FFA698"/>
<path d="M23.5809 74.7079L23.7487 77.1452L21.8349 78.0534C22.3339 78.525 23.3258 78.8697 23.9939 78.6239L27.2169 77.4383L27.4336 74.7079L28.8946 56.3022C26.1458 56.3833 23.497 56.4614 22.327 56.4947L23.5809 74.7079Z" fill="#FFA698"/>
<path d="M35.801 56.0977C36.6015 56.074 37.2154 55.4909 37.1513 54.8156C36.8663 51.8112 36.1596 44.3687 36.1368 44.2023C35.9582 42.8911 35.4331 41.6282 34.5947 40.5196L33.975 39.7006L33.3835 38.9185H24.124L23.5322 39.7006L23.3679 39.9181L22.9128 40.5198C21.7632 42.0396 21.2028 43.8495 21.3164 45.676L20.5708 55.3787C20.5255 55.9692 21.0323 56.4789 21.6995 56.512C21.7062 56.5124 21.9337 56.506 22.3267 56.4947C23.4968 56.4612 26.1458 56.3833 28.8944 56.3023C28.9539 56.3006 29.0134 56.2987 29.073 56.297C31.3517 56.2298 33.6767 56.1608 35.2658 56.1138C35.4549 56.1079 35.6342 56.1027 35.801 56.0977Z" fill="#F8E643"/>
<path d="M33.8734 39.7513H24.0532C23.9898 39.7513 23.9383 39.7046 23.9383 39.6471C23.9383 39.5896 23.9898 39.543 24.0532 39.543H33.8734C33.9369 39.543 33.9884 39.5896 33.9884 39.6471C33.9884 39.7046 33.9369 39.7513 33.8734 39.7513Z" fill="#F95A4E"/>
<path d="M34.7974 41.1346H30.3993C30.3359 41.1346 30.2844 41.0879 30.2844 41.0304C30.2844 40.9729 30.3359 40.9263 30.3993 40.9263H34.7974C34.8608 40.9263 34.9123 40.9729 34.9123 41.0304C34.9123 41.0881 34.8608 41.1346 34.7974 41.1346Z" fill="#F95A4E"/>
<path d="M28.2504 54.6576C28.1884 54.6576 28.1376 54.613 28.1355 54.5568C28.1334 54.4995 28.1833 54.4512 28.2467 54.4493L37.0426 54.1943C37.1003 54.1937 37.1591 54.2379 37.1612 54.2952C37.1633 54.3524 37.1134 54.4008 37.05 54.4026L28.2541 54.6576C28.2529 54.6576 28.2516 54.6576 28.2504 54.6576Z" fill="#F95A4E"/>
<path d="M96.3437 75.9085L96.3318 79.6214L105.12 79.6445C105.122 78.937 104.595 78.3179 103.839 78.1415L101.616 77.6226C101.442 77.582 101.284 77.4995 101.158 77.3837L100.307 75.8906L96.3437 75.9085Z" fill="#353148"/>
<path d="M100.345 77.7502C100.312 77.7502 100.281 77.7331 100.267 77.704C100.247 77.6644 100.267 77.6183 100.31 77.6009L101.085 77.2863C101.129 77.2684 101.18 77.2859 101.199 77.3257C101.219 77.3651 101.199 77.4113 101.156 77.4288L100.38 77.7433C100.369 77.7479 100.357 77.7502 100.345 77.7502Z" fill="#EAEAEA"/>
<path d="M100.072 77.1647C100.039 77.1647 100.008 77.1476 99.9937 77.1184C99.9741 77.0791 99.9937 77.0328 100.037 77.0153L100.812 76.7008C100.855 76.6831 100.907 76.7004 100.926 76.74C100.945 76.7795 100.926 76.8256 100.883 76.8431L100.108 77.1576C100.096 77.1626 100.084 77.1647 100.072 77.1647Z" fill="#EAEAEA"/>
<path d="M105.122 79.4718L96.3331 79.4487L96.3316 79.9051L105.12 79.9282L105.122 79.4718Z" fill="#141C34"/>
<path d="M91.4736 75.9085L91.4856 79.6214L82.6973 79.6445C82.695 78.937 83.2227 78.3179 83.9788 78.1415L86.2013 77.6226C86.375 77.582 86.5334 77.4995 86.6593 77.3837L87.5106 75.8906L91.4736 75.9085Z" fill="#353148"/>
<path d="M87.472 77.75C87.4601 77.75 87.4481 77.7477 87.4369 77.7431L86.6619 77.4286C86.6184 77.4111 86.5991 77.3648 86.6184 77.3255C86.6378 77.2859 86.6892 77.2686 86.7322 77.2861L87.5072 77.6006C87.5504 77.6181 87.5699 77.6644 87.5504 77.7037C87.5364 77.7329 87.5051 77.75 87.472 77.75Z" fill="#EAEAEA"/>
<path d="M87.745 77.1644C87.7331 77.1644 87.7211 77.1621 87.7099 77.1575L86.9349 76.843C86.8915 76.8255 86.8722 76.7792 86.8915 76.7399C86.9108 76.7003 86.962 76.6832 87.0052 76.7007L87.7802 77.0152C87.8234 77.0327 87.843 77.079 87.8234 77.1183C87.8094 77.1473 87.7779 77.1644 87.745 77.1644Z" fill="#EAEAEA"/>
<path d="M82.6973 79.9274L91.4858 79.9043L91.4844 79.4479L82.6959 79.471L82.6973 79.9274Z" fill="#141C34"/>
<path d="M101.004 43.623C101.004 43.623 86.9744 43.6539 86.9776 43.8767L86.6274 75.8336C86.6306 76.0602 86.851 76.2429 87.1222 76.2433L92.2357 76.2508C92.5021 76.2512 92.7211 76.0754 92.7317 75.8528L94.0594 47.4063L95.5609 75.8667C95.5724 76.0842 95.7903 76.256 96.0555 76.2564L100.638 76.2633C100.909 76.2637 101.13 76.0848 101.134 75.8621L101.223 43.8574C101.226 43.6993 101.177 43.6922 101.004 43.623Z" fill="#111111"/>
<path d="M87.4934 76.2074C87.4927 76.2074 87.492 76.2074 87.4913 76.2074C87.4279 76.2063 87.3773 76.1588 87.3784 76.1013L87.9408 48.1452C87.942 48.0878 88.0027 48.048 88.0578 48.043C88.1213 48.044 88.1718 48.0915 88.1707 48.149L87.6083 76.1051C87.6071 76.1619 87.5559 76.2074 87.4934 76.2074Z" fill="#FDFDFD"/>
<path d="M89.3143 76.3047H89.3134C89.25 76.3043 89.1989 76.2572 89.1994 76.1997L89.3065 63.6775C89.307 63.6205 89.3584 63.5742 89.4214 63.5742H89.4223C89.4858 63.5746 89.5368 63.6217 89.5363 63.6792L89.4292 76.2014C89.4288 76.2584 89.3773 76.3047 89.3143 76.3047Z" fill="#FDFDFD"/>
<path d="M84.9889 23.3L87.6896 22.874C87.93 22.8361 88.0911 22.6286 88.0493 22.4106L87.0383 17.1455C86.9965 16.9276 86.7675 16.7816 86.5269 16.8195L83.8264 17.2454C83.5858 17.2833 83.4249 17.4908 83.4667 17.7089L84.4777 22.974C84.5196 23.1921 84.7485 23.3381 84.9889 23.3Z" fill="#29292C"/>
<path d="M88.0399 21.4687L88.0388 21.3883C88.0353 21.1254 87.7974 20.9148 87.5074 20.918L86.8866 20.9246L87.3509 20.9196C87.6163 20.9167 87.8292 20.7195 87.8259 20.4789C87.822 20.181 87.5593 19.9383 87.2307 19.9319C86.8565 19.9246 86.3566 19.9454 85.8901 20.0635C84.9882 20.2918 84.7804 20.1102 84.7804 20.1102C84.7804 20.1102 84.5934 20.0946 84.3201 19.1862C84.0468 18.2778 82.6952 18.4509 83.0645 19.0302C83.4339 19.6094 83.1569 20.1839 83.1569 20.1839L82.988 20.553L82.9328 20.6736C82.7938 20.9777 82.7581 21.31 82.8257 21.6289C82.6821 22.4694 82.5292 23.8697 82.5292 23.8697L85.9611 24.1207L85.948 23.6896L86.4247 23.6846C86.7772 23.6808 87.0597 23.4188 87.0555 23.0992C87.0544 23.0061 86.97 22.9316 86.8673 22.9326L86.6915 22.9345L87.1509 22.9297C87.4745 22.9262 87.734 22.6856 87.7301 22.3923L87.7292 22.3313C87.7264 22.115 87.5306 21.9417 87.292 21.9442L86.6586 21.9509L87.5306 21.9415C87.8151 21.9382 88.0431 21.7266 88.0399 21.4687Z" fill="#FFA698"/>
<path d="M87.5336 20.997H86.7607C86.7131 20.997 86.6745 20.962 86.6745 20.9189C86.6745 20.8758 86.7131 20.8408 86.7607 20.8408H87.5336C87.5812 20.8408 87.6198 20.8758 87.6198 20.9189C87.6198 20.962 87.5812 20.997 87.5336 20.997Z" fill="#FF755F"/>
<path d="M87.463 22.0298C87.4619 22.0298 87.4607 22.0298 87.4596 22.0296L86.6871 22.0021C86.6395 22.0005 86.6025 21.9642 86.6044 21.9211C86.606 21.878 86.6467 21.8413 86.694 21.8461L87.4665 21.8736C87.514 21.8753 87.551 21.9115 87.5492 21.9546C87.5474 21.9969 87.509 22.0298 87.463 22.0298Z" fill="#FF755F"/>
<path d="M86.9714 23.0075C86.9703 23.0075 86.9692 23.0075 86.968 23.0075L86.1955 22.98C86.148 22.9784 86.111 22.9421 86.1128 22.899C86.1146 22.8559 86.1565 22.8201 86.2024 22.824L86.9749 22.8515C87.0225 22.8532 87.0595 22.8894 87.0576 22.9326C87.0558 22.9746 87.0174 23.0075 86.9714 23.0075Z" fill="#FF755F"/>
<path d="M99.1127 45.0024C99.1127 45.0024 98.3009 45.5234 98.1819 46.2035C98.0628 46.8836 98.6209 47.9665 98.6209 47.9665L99.1127 45.0024Z" fill="#FFA698"/>
<path opacity="0.57" d="M99.004 45.9258L98.5732 47.8688C98.5732 47.8688 98.6176 46.062 99.004 45.9258Z" fill="#FF755F"/>
<path d="M97.1915 49.0029H96.6471C96.6087 49.0029 96.5735 48.923 96.5388 48.8398L96.5393 55.674H97.192L97.1915 49.0029Z" fill="#323233"/>
<path d="M103.719 49.0028L103.719 55.6739H104.372L104.371 48.9395C104.357 48.9528 104.344 49.0024 104.329 49.0024L103.719 49.0028Z" fill="#323233"/>
<path d="M107.278 78.9392L94.2743 79.0501C93.5512 79.0563 92.9596 78.5299 92.9527 77.8749L92.7339 56.8852C92.7271 56.2299 93.3078 55.6938 94.0309 55.6875L107.035 55.5767C107.758 55.5705 108.349 56.0968 108.356 56.7519L108.575 77.7415C108.582 78.3968 108.001 78.9332 107.278 78.9392Z" fill="#F8E643"/>
<path opacity="0.49" d="M95.5905 75.0388C94.8116 75.0388 94.1743 74.4691 94.167 73.763L93.9909 56.8718L94.2207 56.8697L94.3968 73.7609C94.403 74.3529 94.9376 74.8305 95.5905 74.8305C95.5944 74.8305 95.5983 74.8305 95.6023 74.8305L105.862 74.743C106.181 74.7403 106.48 74.6256 106.703 74.4196C106.927 74.2138 107.048 73.9415 107.045 73.6532L106.869 56.7618L107.099 56.7598L107.275 73.6511C107.279 73.9953 107.134 74.32 106.867 74.5656C106.601 74.8112 106.245 74.948 105.864 74.9513L95.6046 75.0388C95.5997 75.0388 95.5951 75.0388 95.5905 75.0388Z" fill="white"/>
<path opacity="0.49" d="M106.828 79.1604H94.4809V78.6244C94.4809 78.1187 94.9348 77.7075 95.4926 77.7075H105.816C106.374 77.7075 106.827 78.1189 106.827 78.6244L106.828 79.1604ZM94.7107 78.9521H106.598V78.6244C106.598 78.2337 106.247 77.9158 105.816 77.9158H95.4928C95.0617 77.9158 94.711 78.2337 94.711 78.6244V78.9521H94.7107Z" fill="white"/>
<path d="M106.321 78.2454C106.618 78.862 106.306 79.58 105.625 79.8489C104.943 80.1178 104.149 79.8362 103.852 79.2196C103.554 78.6031 103.866 77.8851 104.547 77.6162C105.229 77.3471 106.023 77.6287 106.321 78.2454Z" fill="#141C34"/>
<path opacity="0.27" d="M105.773 78.4614C105.939 78.8047 105.766 79.2044 105.386 79.3542C105.006 79.5039 104.564 79.3471 104.399 79.0038C104.233 78.6605 104.406 78.2608 104.786 78.111C105.166 77.9611 105.608 78.1181 105.773 78.4614Z" fill="#A2D5F2"/>
<path d="M97.7326 78.2454C98.03 78.862 97.7186 79.58 97.0366 79.8489C96.3547 80.1178 95.5609 79.8362 95.2635 79.2196C94.9661 78.6031 95.2777 77.8851 95.9594 77.6162C96.6413 77.3471 97.4352 77.6287 97.7326 78.2454Z" fill="#141C34"/>
<path opacity="0.27" d="M97.1856 78.4614C97.3513 78.8047 97.1778 79.2044 96.7981 79.3542C96.4184 79.5039 95.9764 79.3471 95.8107 79.0038C95.645 78.6605 95.8185 78.2608 96.1982 78.111C96.5779 77.9611 97.0199 78.1181 97.1856 78.4614Z" fill="#A2D5F2"/>
<path opacity="0.49" d="M96.616 72.8362H96.269C96.0267 72.8362 95.8298 72.6577 95.8298 72.4382V58.9166C95.8298 58.6971 96.0267 58.5186 96.269 58.5186H96.616C96.8585 58.5186 97.0555 58.6971 97.0555 58.9166V72.4382C97.0555 72.6577 96.8585 72.8362 96.616 72.8362ZM96.269 58.7269C96.1536 58.7269 96.0596 58.812 96.0596 58.9166V72.4382C96.0596 72.5427 96.1536 72.6279 96.269 72.6279H96.616C96.7316 72.6279 96.8256 72.5427 96.8256 72.4382V58.9166C96.8256 58.812 96.7316 58.7269 96.616 58.7269H96.269Z" fill="white"/>
<path opacity="0.49" d="M104.509 72.8362H104.162C103.92 72.8362 103.723 72.6577 103.723 72.4382V58.9166C103.723 58.6971 103.92 58.5186 104.162 58.5186H104.509C104.752 58.5186 104.949 58.6971 104.949 58.9166V72.4382C104.949 72.6577 104.752 72.8362 104.509 72.8362ZM104.162 58.7269C104.047 58.7269 103.953 58.812 103.953 58.9166V72.4382C103.953 72.5427 104.047 72.6279 104.162 72.6279H104.509C104.625 72.6279 104.719 72.5427 104.719 72.4382V58.9166C104.719 58.812 104.625 58.7269 104.509 58.7269H104.162Z" fill="white"/>
<path opacity="0.49" d="M100.811 72.8362H100.464C100.221 72.8362 100.024 72.6577 100.024 72.4382V58.9166C100.024 58.6971 100.221 58.5186 100.464 58.5186H100.811C101.053 58.5186 101.25 58.6971 101.25 58.9166V72.4382C101.25 72.6577 101.053 72.8362 100.811 72.8362ZM100.464 58.7269C100.348 58.7269 100.254 58.812 100.254 58.9166V72.4382C100.254 72.5427 100.348 72.6279 100.464 72.6279H100.811C100.926 72.6279 101.02 72.5427 101.02 72.4382V58.9166C101.02 58.812 100.926 58.7269 100.811 58.7269H100.464Z" fill="white"/>
<path d="M97.1918 49.1318H97.2789C97.4763 49.1318 97.6365 48.987 97.6365 48.8083C97.6365 48.6285 97.7992 48.4815 97.998 48.4815L102.979 48.4813C103.176 48.4813 103.337 48.626 103.337 48.8048C103.337 48.9845 103.499 49.1316 103.698 49.1316H103.719H104.329C104.344 49.1316 104.357 49.1255 104.372 49.1239C104.548 49.1041 104.687 48.9733 104.687 48.8081V48.0082C104.687 48.0062 104.688 48.0041 104.688 48.002C104.76 47.6175 104.424 47.2729 104.023 47.2729L96.95 47.2734C96.5489 47.2734 96.2129 47.6181 96.2846 48.0024C96.2851 48.0045 96.2853 48.0066 96.286 48.0087V48.805C96.286 48.9502 96.3938 49.0695 96.539 49.112C96.5737 49.1222 96.6091 49.132 96.6473 49.132L97.1918 49.1318Z" fill="#141C34"/>
<path d="M100.232 49.0404L100.147 49.0436C99.8691 49.0536 99.6349 48.8578 99.6238 48.6061L99.6002 48.0675L99.6179 48.4703C99.628 48.7007 99.4301 48.8948 99.1761 48.9042C98.8613 48.9157 98.5921 48.6999 98.5691 48.4151C98.5429 48.091 98.5402 47.6565 98.6418 47.2462C98.838 46.4528 99.1265 44.6573 99.1265 44.6573L99.5751 43.3579L103.621 44.0607L102.491 47.5307C102.505 47.8367 102.242 48.0946 101.904 48.1069C101.806 48.1104 101.723 48.041 101.719 47.9519L101.712 47.7992L101.73 48.1977C101.742 48.4787 101.501 48.7153 101.191 48.7265L101.127 48.7288C100.898 48.7372 100.706 48.5759 100.696 48.3689L100.672 47.8192L100.705 48.5757C100.716 48.8224 100.504 49.0304 100.232 49.0404Z" fill="#FFA698"/>
<path opacity="0.57" d="M99.7084 47.8806C99.7038 47.8275 99.6537 47.7871 99.5946 47.7891C99.5344 47.7916 99.4875 47.8379 99.4903 47.8925L99.525 48.6107C99.5213 48.6629 99.5786 48.7079 99.639 48.7054C99.6992 48.7029 99.7461 48.6567 99.7433 48.6021L99.7086 47.8839C99.7086 47.8829 99.7084 47.8816 99.7084 47.8806Z" fill="#FF755F"/>
<path opacity="0.57" d="M100.834 48.5582C100.834 48.5576 100.834 48.5572 100.833 48.5568L100.739 47.6528C100.734 47.5982 100.68 47.5584 100.62 47.5634C100.56 47.5684 100.523 47.6182 100.522 47.6713L100.616 48.5753C100.622 48.6299 100.675 48.6697 100.735 48.6647C100.794 48.6597 100.838 48.6122 100.834 48.5582Z" fill="#FF755F"/>
<path opacity="0.57" d="M101.773 47.3799C101.768 47.3268 101.718 47.2864 101.659 47.2887C101.599 47.2912 101.552 47.3374 101.555 47.3922L101.588 48.0673C101.586 48.121 101.642 48.1639 101.702 48.1618C101.762 48.1593 101.809 48.1131 101.806 48.0583L101.773 47.3832C101.773 47.382 101.773 47.3809 101.773 47.3799Z" fill="#FF755F"/>
<path d="M95.1451 12.7996C94.7705 12.5096 94.2602 12.2997 93.5733 12.2166C93.5473 12.1718 93.52 12.1278 93.4903 12.0858C93.1591 11.6158 92.602 11.3148 91.9946 11.2267C90.0991 10.9514 89.5356 12.087 88.2297 12.8225C85.7443 14.2225 88.1842 16.798 88.3228 16.1998C88.3644 16.0203 88.5568 15.6941 88.7156 15.5535C88.7751 15.5006 88.8394 15.4535 88.9059 15.4091C89.1663 15.5418 89.4689 15.6124 89.7896 15.5945C90.215 15.5708 90.5896 15.3983 90.8604 15.1377C92.4005 15.2137 93.2759 14.959 93.7656 14.6874C93.9157 14.8346 94.0323 15.0107 94.0939 15.2056C94.215 15.5887 94.1577 16.0078 94.166 16.4012C94.1699 16.5827 92.9925 17.8066 93.1033 18.5163C93.2237 19.2872 94.0107 19.8235 94.8613 19.7144C95.7119 19.6053 96.3037 18.892 96.1833 18.1211C96.1343 17.807 95.9732 17.5331 95.7436 17.3246L96.4361 15.0044C96.7866 14.0452 96.1591 13.0564 95.1451 12.7996Z" fill="#54132A"/>
<path d="M95.1164 17.1061L94.9521 17.1038C94.9521 17.1038 94.4619 17.1213 94.3575 17.5683C94.3419 17.6347 94.1739 17.0094 94.1721 16.9457C94.167 16.7643 94.17 16.5826 94.1661 16.4012C94.1578 16.0077 94.2148 15.5886 94.0939 15.2056C93.9606 14.7838 93.5782 14.4436 93.127 14.3143C93.0987 14.3062 93.064 14.2993 93.025 14.2935C92.8452 14.6967 92.4237 14.9925 91.913 15.021C91.6177 15.0375 91.3403 14.9613 91.113 14.8213C90.8584 15.2545 90.3702 15.5624 89.7896 15.5947C89.1928 15.628 88.6531 15.3618 88.3454 14.94C88.2792 15.1496 88.239 15.3691 88.2351 15.5974L88.2321 15.7624C88.2321 15.7626 88.2321 15.7628 88.2321 15.7628L88.1849 18.4483L88.1624 19.7285V19.7287L88.1594 19.8987C88.1394 21.0433 88.9101 22.0304 90.0133 22.4385L89.9769 23.8278C89.9482 24.9266 90.9075 25.8383 92.1197 25.8643L92.7011 25.8768C93.9135 25.9029 94.9195 25.0334 94.9482 23.9347L95.0702 19.278L95.0785 19.2782C95.663 19.2865 96.1442 18.8641 96.1534 18.3344L96.158 18.0803C96.167 17.5508 95.7009 17.1144 95.1164 17.1061Z" fill="#FFA698"/>
<path opacity="0.46" d="M94.3926 19.8182C94.368 21.2167 93.0973 22.3325 91.554 22.3102L90.9118 22.3011C89.3687 22.2788 88.1378 21.1271 88.1621 19.7286L88.1591 19.8986C88.1382 21.0952 88.9808 22.1209 90.1651 22.4912C90.1545 23.0055 90.6744 23.4852 91.3936 23.5948C92.1692 23.7131 92.8822 23.3561 92.9858 22.7976C93.0061 22.6889 93.001 22.5806 92.975 22.4756C94.0837 22.0961 94.8812 21.135 94.9012 19.9956L94.9139 19.2754L94.4023 19.2681L94.3926 19.8182Z" fill="#FF755F"/>
<path d="M95.3372 18.6241C95.3207 18.6241 95.3037 18.6208 95.2878 18.6141L94.7852 18.3975L95.1467 17.7301C95.1747 17.6784 95.2439 17.6574 95.3007 17.6824C95.3577 17.7078 95.3811 17.7701 95.3533 17.8217L95.094 18.2998L95.3864 18.4258C95.4436 18.4506 95.4682 18.5127 95.4406 18.5647C95.4213 18.6022 95.38 18.6241 95.3372 18.6241Z" fill="#FF755F"/>
<path d="M90.5462 21.2619C90.5179 21.2619 90.4897 21.2525 90.4676 21.2338C90.457 21.2248 90.2164 21.028 89.936 21.1619C89.8806 21.1886 89.8105 21.1694 89.7806 21.1184C89.751 21.0675 89.7726 21.0046 89.8287 20.9776C90.2571 20.773 90.6103 21.0692 90.6253 21.0821C90.6712 21.1215 90.6733 21.1875 90.6299 21.2294C90.6071 21.2511 90.5768 21.2619 90.5462 21.2619Z" fill="#FF755F"/>
<mask id="mask4_1102_68050" style="mask-type:luminance" maskUnits="userSpaceOnUse" x="88" y="17" width="3" height="2">
<path d="M88.4639 17.7839C88.4954 17.5694 88.6227 17.2509 89.0941 17.1844C89.1718 17.1736 89.244 17.1742 89.312 17.1823C89.6269 17.2198 89.8404 17.4377 89.9677 17.6241C90.0619 17.762 89.9751 17.9455 89.7992 17.9766C89.3187 18.0611 88.8388 18.0289 88.6046 18.0035C88.5161 17.9939 88.4504 17.9233 88.4568 17.8426C88.4584 17.8243 88.4609 17.8045 88.4639 17.7839Z" fill="white"/>
</mask>
<g mask="url(#mask4_1102_68050)">
<path d="M88.4639 17.7839C88.4954 17.5694 88.6227 17.2509 89.0941 17.1844C89.1718 17.1736 89.244 17.1742 89.312 17.1823C89.6269 17.2198 89.8404 17.4377 89.9677 17.6241C90.0619 17.762 89.9751 17.9455 89.7992 17.9766C89.3187 18.0611 88.8388 18.0289 88.6046 18.0035C88.5161 17.9939 88.4504 17.9233 88.4568 17.8426C88.4584 17.8243 88.4609 17.8045 88.4639 17.7839Z" fill="white"/>
</g>
<mask id="mask5_1102_68050" style="mask-type:luminance" maskUnits="userSpaceOnUse" x="88" y="17" width="3" height="2">
<path d="M88.4639 17.7839C88.4954 17.5694 88.6227 17.2509 89.0941 17.1844C89.1718 17.1736 89.244 17.1742 89.312 17.1823C89.6269 17.2198 89.8404 17.4377 89.9677 17.6241C90.0619 17.762 89.9751 17.9455 89.7992 17.9766C89.3187 18.0611 88.8388 18.0289 88.6046 18.0035C88.5161 17.9939 88.4504 17.9233 88.4568 17.8426C88.4584 17.8243 88.4609 17.8045 88.4639 17.7839Z" fill="white"/>
</mask>
<g mask="url(#mask5_1102_68050)">
<path d="M89.0311 18.2701C89.3106 18.2701 89.5372 18.0834 89.5372 17.853C89.5372 17.6227 89.3106 17.436 89.0311 17.436C88.7516 17.436 88.525 17.6227 88.525 17.853C88.525 18.0834 88.7516 18.2701 89.0311 18.2701Z" fill="#54132A"/>
</g>
<path d="M90.9484 19.7C90.9445 19.7 90.9406 19.6998 90.9364 19.6994C90.8893 19.6934 90.8564 19.6542 90.8631 19.6115C90.8656 19.5951 90.9279 19.2062 91.2982 18.9623C91.5636 18.7875 91.9141 18.734 92.3402 18.8033C92.3871 18.811 92.4181 18.8517 92.4099 18.8941C92.4016 18.9364 92.3582 18.9648 92.3099 18.9573C91.9327 18.896 91.6268 18.94 91.4014 19.0877C91.0906 19.2912 91.0346 19.6296 91.0339 19.633C91.0277 19.6717 90.9909 19.7 90.9484 19.7Z" fill="#FF755F"/>
<mask id="mask6_1102_68050" style="mask-type:luminance" maskUnits="userSpaceOnUse" x="90" y="16" width="3" height="2">
<path d="M90.8804 17.5888C90.919 17.3265 91.0743 16.9372 91.6505 16.8562C91.7454 16.8429 91.8337 16.8437 91.9169 16.8537C92.3017 16.8995 92.5627 17.1659 92.7183 17.3936C92.8335 17.5621 92.7273 17.7865 92.5124 17.8244C91.9249 17.9277 91.3387 17.8881 91.0525 17.8573C90.9443 17.8456 90.864 17.7592 90.8719 17.6608C90.8737 17.6384 90.8767 17.614 90.8804 17.5888Z" fill="white"/>
</mask>
<g mask="url(#mask6_1102_68050)">
<path d="M90.8804 17.5888C90.919 17.3265 91.0743 16.9372 91.6505 16.8562C91.7454 16.8429 91.8337 16.8437 91.9169 16.8537C92.3017 16.8995 92.5627 17.1659 92.7183 17.3936C92.8335 17.5621 92.7273 17.7865 92.5124 17.8244C91.9249 17.9277 91.3387 17.8881 91.0525 17.8573C90.9443 17.8456 90.864 17.7592 90.8719 17.6608C90.8737 17.6384 90.8767 17.614 90.8804 17.5888Z" fill="white"/>
</g>
<mask id="mask7_1102_68050" style="mask-type:luminance" maskUnits="userSpaceOnUse" x="90" y="16" width="3" height="2">
<path d="M90.8804 17.5888C90.919 17.3265 91.0743 16.9372 91.6505 16.8562C91.7454 16.8429 91.8337 16.8437 91.9169 16.8537C92.3017 16.8995 92.5627 17.1659 92.7183 17.3936C92.8335 17.5621 92.7273 17.7865 92.5124 17.8244C91.9249 17.9277 91.3387 17.8881 91.0525 17.8573C90.9443 17.8456 90.864 17.7592 90.8719 17.6608C90.8737 17.6384 90.8767 17.614 90.8804 17.5888Z" fill="white"/>
</mask>
<g mask="url(#mask7_1102_68050)">
<path d="M90.9551 17.6731C90.9551 17.9545 91.232 18.1826 91.5736 18.1826C91.9151 18.1826 92.192 17.9545 92.192 17.6731C92.192 17.3917 91.9151 17.1636 91.5736 17.1636C91.232 17.1636 90.9551 17.3917 90.9551 17.6731Z" fill="#54132A"/>
</g>
<path d="M90.8647 16.455C90.982 16.4014 91.1387 16.4066 91.2904 16.4037C91.4432 16.4037 91.5968 16.4004 91.7301 16.3931C91.8636 16.386 92.0167 16.3729 92.1684 16.3564C92.3196 16.3431 92.4752 16.321 92.597 16.3618C92.7144 16.3995 92.7694 16.5229 92.6436 16.6849C92.526 16.8424 92.2035 17.024 91.7615 17.0488C91.32 17.0715 90.9815 16.9255 90.8491 16.7814C90.7091 16.6337 90.7517 16.5052 90.8647 16.455Z" fill="#54132A"/>
<path d="M90.0456 16.5723C89.9442 16.5217 89.8059 16.5219 89.6721 16.515C89.5374 16.5106 89.4023 16.5034 89.2851 16.4931C89.1676 16.4829 89.0332 16.4671 88.8999 16.4484C88.7673 16.4323 88.6308 16.4086 88.522 16.4409C88.4172 16.4709 88.3646 16.5779 88.4696 16.7241C88.5678 16.8662 88.8456 17.0356 89.2343 17.0699C89.6225 17.1026 89.9259 16.9835 90.0474 16.8604C90.1764 16.7341 90.1435 16.6198 90.0456 16.5723Z" fill="#54132A"/>
<path d="M90.6061 18.8778L90.1373 18.8457C89.7987 18.8226 89.5475 18.5241 89.5765 18.1792L89.5802 18.135C89.5935 17.9767 89.7302 17.8569 89.8856 17.8675C90.1527 17.8859 90.3876 17.6801 90.4103 17.408L90.4611 16.7573" fill="#FFA698"/>
<path d="M90.6061 18.9559C90.6041 18.9559 90.6018 18.9559 90.5997 18.9557L90.1308 18.9236C89.7454 18.8972 89.4581 18.5606 89.4905 18.1734L89.4944 18.129C89.5029 18.0271 89.5547 17.9317 89.6362 17.8682C89.7091 17.8113 89.8015 17.7838 89.892 17.7897C89.9939 17.7961 90.0984 17.7616 90.1798 17.6905C90.2635 17.617 90.3149 17.5147 90.3244 17.4022L90.3752 16.7517C90.3786 16.7088 90.4204 16.6778 90.4671 16.6792C90.5147 16.6824 90.5503 16.7197 90.5471 16.7626L90.4963 17.4135C90.4836 17.5645 90.414 17.7028 90.2993 17.8028C90.1823 17.9053 90.0343 17.9563 89.8789 17.9455C89.8328 17.9422 89.7866 17.9569 89.7486 17.9865C89.7013 18.0234 89.6712 18.0796 89.6664 18.1409L89.6624 18.1852C89.6374 18.4864 89.8532 18.7478 90.1439 18.7676L90.6128 18.7997C90.6601 18.803 90.6958 18.8405 90.6923 18.8834C90.6886 18.9247 90.6507 18.9559 90.6061 18.9559Z" fill="#FF755F"/>
<path d="M105.723 35.1137L100.838 25.9874L100.831 25.9962C100.186 24.9241 99.0012 24.1476 97.5772 23.9926L95.3272 23.8616L91.6489 24.7216L90.0387 23.5539L87.1886 24.4717L87.2026 24.0061C87.2084 23.813 87.061 23.6439 86.8526 23.6043L82.5956 22.7949C82.4844 22.7736 82.3773 22.8424 82.364 22.9446C82.2702 23.6547 82.1488 24.7239 82.0608 25.3598C81.9096 26.4511 81.7584 27.5422 81.6071 28.6334C81.4233 29.9605 80.9491 32.2142 81.546 33.5161C82.4155 35.4131 84.1153 36.4104 85.4587 35.8488C85.9836 35.6295 86.398 34.6555 86.6683 33.6344L86.66 44.3708L98.9783 44.3629L98.9128 44.6152C98.8197 44.9745 99.0304 45.3415 99.4085 45.4786L102.297 46.525C102.739 46.6854 103.237 46.4605 103.361 46.0437L105.962 37.3644C106.188 36.6128 106.102 35.8126 105.723 35.1137Z" fill="#F8E643"/>
<path d="M94.5221 24.6313H89.6221V44.3972H94.5221V24.6313Z" fill="white"/>
<path d="M98.9537 44.4408C98.9449 44.4408 98.936 44.4399 98.927 44.4378C98.8652 44.4245 98.827 44.3683 98.842 44.3122L100.609 37.6184L96.7873 29.9889C96.7611 29.9367 96.7866 29.8748 96.8443 29.851C96.9024 29.8275 96.9702 29.8504 96.9964 29.9027L100.851 37.5974L99.0651 44.3606C99.053 44.4087 99.0058 44.4408 98.9537 44.4408Z" fill="#F95A4E"/>
<path d="M86.3249 25.1646C86.2652 25.1646 86.2061 25.1523 86.1512 25.1279C86.0563 25.0858 85.9848 25.0127 85.9505 24.9219C85.9163 24.8313 85.923 24.7338 85.9694 24.6478C86.0156 24.5617 86.0965 24.4972 86.1965 24.4659C86.2967 24.4349 86.404 24.4407 86.4989 24.4828C86.5941 24.5249 86.6653 24.598 86.6996 24.6888C86.7338 24.7794 86.7271 24.8767 86.6807 24.9627C86.6345 25.049 86.5538 25.1135 86.4539 25.1448C86.4118 25.1581 86.3681 25.1646 86.3249 25.1646ZM86.3254 24.6546C86.3072 24.6546 86.2891 24.6574 86.2714 24.663C86.2291 24.6761 86.1955 24.7032 86.176 24.7392C86.1565 24.7755 86.1535 24.8165 86.1682 24.8544C86.1827 24.8925 86.2123 24.9231 86.2523 24.9408C86.2921 24.9586 86.3371 24.9613 86.3794 24.9479C86.4215 24.9348 86.455 24.9079 86.4746 24.8717C86.4941 24.8354 86.4971 24.7944 86.4824 24.7565C86.4679 24.7184 86.4382 24.6878 86.3983 24.6701C86.3753 24.6599 86.3502 24.6546 86.3254 24.6546Z" fill="#F95A4E"/>
<path d="M86.6766 26.3517C86.671 26.3517 86.6653 26.3515 86.6598 26.3506L83.6559 25.9519C83.5931 25.9436 83.5495 25.8907 83.5587 25.8338C83.5681 25.7768 83.6274 25.7368 83.689 25.7459L86.6929 26.1446C86.7556 26.1529 86.7993 26.2059 86.7901 26.2627C86.7816 26.3144 86.7326 26.3517 86.6766 26.3517Z" fill="#F95A4E"/>
<path d="M87.3923 30.2714C87.3297 30.2714 87.2787 30.2262 87.2773 30.1695L87.1323 24.0064C87.1296 23.8879 87.0854 23.8073 86.8738 23.7704L86.2815 23.6915C86.2187 23.6832 86.1751 23.6303 86.1843 23.5734C86.1937 23.5165 86.2548 23.4772 86.3146 23.4855L86.9121 23.5651C87.2068 23.6163 87.3566 23.7631 87.3622 24.0021L87.5072 30.1651C87.5086 30.2226 87.4582 30.2703 87.3948 30.2716C87.3939 30.2714 87.3929 30.2714 87.3923 30.2714Z" fill="#F95A4E"/>
<path d="M102.786 45.7024C102.568 45.7024 102.39 45.5414 102.39 45.3433C102.39 45.1454 102.568 44.9844 102.786 44.9844C103.004 44.9844 103.182 45.1452 103.182 45.3433C103.182 45.5414 103.004 45.7024 102.786 45.7024ZM102.786 45.1929C102.695 45.1929 102.62 45.2604 102.62 45.3435C102.62 45.4266 102.694 45.4943 102.786 45.4943C102.878 45.4943 102.953 45.4268 102.953 45.3435C102.952 45.2604 102.878 45.1929 102.786 45.1929Z" fill="#F95A4E"/>
<path d="M103.8 44.2925C103.789 44.2925 103.777 44.2908 103.765 44.2877L100.873 43.4503C100.813 43.4328 100.78 43.3743 100.799 43.3193C100.819 43.2645 100.883 43.2349 100.944 43.2518L103.836 44.0892C103.896 44.1067 103.929 44.1652 103.91 44.2202C103.894 44.2641 103.849 44.2925 103.8 44.2925Z" fill="#F95A4E"/>
<path d="M90.6326 26.0564L91.6694 24.7385L91.6491 24.7212L91.7222 24.6712L91.7248 24.6681L89.9298 22.7089C89.7769 22.542 89.5161 22.6447 89.4848 22.8843L89.3065 24.2444L90.2267 26.0175C90.2986 26.156 90.4552 26.1906 90.5714 26.112C90.5931 26.0972 90.6142 26.0797 90.6326 26.0564Z" fill="#F8F8EE"/>
<path d="M91.6491 24.7216L91.6693 24.7389L93.2064 26.0393L93.374 26.1812C93.5374 26.3195 93.8201 26.3132 93.9679 26.1681L95.8217 24.3465L95.0272 22.6828C94.9807 22.5856 94.8229 22.5537 94.7236 22.6216L91.7224 24.6719L91.6491 24.7216Z" fill="#F8F8EE"/>
<path d="M93.2064 26.0392L91.6693 24.7388L90.6326 26.0567C90.6144 26.0798 90.5933 26.0975 90.5712 26.1123L90.873 26.9007C90.9311 27.0609 91.0129 27.1929 91.1085 27.3033L90.121 34.4491C90.1021 34.5854 90.1285 34.7237 90.197 34.8461L91.2421 36.715C91.3699 36.9437 91.627 37.0891 91.91 37.0924L92.2214 37.0962C92.5399 37.1001 92.8275 36.9235 92.9414 36.654L93.6896 34.8861C93.7355 34.7776 93.7505 34.6601 93.7328 34.545L92.6365 27.3666C92.7725 27.2333 92.8849 27.0588 92.9543 26.839L93.2064 26.0392Z" fill="#111111"/>
<path d="M92.5241 27.4702C92.5232 27.4702 92.522 27.4702 92.5211 27.4702L91.1754 27.4383C91.112 27.4369 91.0619 27.3889 91.0635 27.3315C91.0651 27.2742 91.1265 27.2286 91.1814 27.23L92.5269 27.2619C92.5903 27.2633 92.6404 27.3113 92.6388 27.3687C92.6374 27.4254 92.5862 27.4702 92.5241 27.4702Z" fill="#FDFDFD"/>
</svg>
