<svg width="1432" height="746" viewBox="0 0 1432 746" fill="none" xmlns="http://www.w3.org/2000/svg">
<g opacity="0.1">
<mask id="path-1-outside-1_1476_89728" maskUnits="userSpaceOnUse" x="15.9263" y="52.3596" width="363.015" height="229.136" fill="black">
<rect fill="white" x="15.9263" y="52.3596" width="363.015" height="229.136"/>
<path d="M72.2552 152.044L76.7083 164.279L37.8989 178.404L47.7149 205.373L77.973 194.36L82.4261 206.595L52.168 217.608L66.7244 257.601L51.7269 263.06L18.4484 171.628L72.2552 152.044ZM201.929 187.235L163.646 201.169L163.868 222.244L148.213 227.942L147.644 124.456L165.009 118.135L231.094 197.776L215.307 203.522L201.929 187.235ZM193.267 176.532L162.934 139.45L163.403 187.402L193.267 176.532ZM356.321 170.969L333.951 159.445C330.419 162.022 326.285 164.172 321.549 165.896C313.042 168.992 304.474 169.876 295.846 168.546C287.273 167.098 279.589 163.587 272.794 158.016C266.054 152.324 261.056 145.006 257.8 136.06C254.544 127.114 253.685 118.339 255.221 109.734C256.845 101.098 260.491 93.5136 266.159 86.9812C271.882 80.3292 278.997 75.4549 287.505 72.3585C296.1 69.2302 304.683 68.3904 313.256 69.8391C321.884 71.1682 329.552 74.6347 336.26 80.2384C342.968 85.8422 347.95 93.117 351.206 102.063C354.27 110.482 355.206 118.783 354.012 126.965C352.874 135.027 349.854 142.284 344.952 148.737L375.397 164.026L356.321 170.969ZM273.193 130.457C275.65 137.211 279.137 142.696 283.651 146.913C288.222 151.01 293.386 153.6 299.143 154.683C304.869 155.678 310.757 155.074 316.809 152.871C322.861 150.669 327.76 147.346 331.506 142.904C335.221 138.373 337.468 133.086 338.247 127.041C339.083 120.877 338.272 114.418 335.814 107.665C333.356 100.912 329.841 95.4866 325.271 91.3893C320.789 87.2601 315.684 84.698 309.959 83.7029C304.233 82.7078 298.345 83.3116 292.293 85.5142C286.241 87.7168 281.342 91.0395 277.596 95.4821C273.849 99.9247 271.542 105.184 270.675 111.261C269.895 117.305 270.735 123.704 273.193 130.457Z"/>
</mask>
<path d="M72.2552 152.044L73.1948 151.702L72.8528 150.762L71.9131 151.104L72.2552 152.044ZM76.7083 164.279L77.0503 165.218L77.99 164.876L77.6479 163.937L76.7083 164.279ZM37.8989 178.404L37.5569 177.464L36.6172 177.806L36.9593 178.746L37.8989 178.404ZM47.7149 205.373L46.7752 205.715L47.1173 206.655L48.0569 206.313L47.7149 205.373ZM77.973 194.36L78.9127 194.018L78.5707 193.078L77.631 193.42L77.973 194.36ZM82.4261 206.595L82.7682 207.535L83.7078 207.193L83.3658 206.253L82.4261 206.595ZM52.168 217.608L51.826 216.668L50.8863 217.01L51.2283 217.95L52.168 217.608ZM66.7244 257.601L67.0664 258.541L68.0061 258.199L67.6641 257.259L66.7244 257.601ZM51.7269 263.06L50.7872 263.402L51.1292 264.342L52.0689 264L51.7269 263.06ZM18.4484 171.628L18.1063 170.688L17.1666 171.03L17.5087 171.97L18.4484 171.628ZM71.3155 152.386L75.7686 164.621L77.6479 163.937L73.1948 151.702L71.3155 152.386ZM76.3662 163.339L37.5569 177.464L38.241 179.344L77.0503 165.218L76.3662 163.339ZM36.9593 178.746L46.7752 205.715L48.6546 205.031L38.8386 178.062L36.9593 178.746ZM48.0569 206.313L78.3151 195.3L77.631 193.42L47.3729 204.434L48.0569 206.313ZM77.0333 194.702L81.4864 206.937L83.3658 206.253L78.9127 194.018L77.0333 194.702ZM82.0841 205.655L51.826 216.668L52.51 218.548L82.7682 207.535L82.0841 205.655ZM51.2283 217.95L65.7847 257.943L67.6641 257.259L53.1077 217.266L51.2283 217.95ZM66.3824 256.662L51.3849 262.12L52.0689 264L67.0664 258.541L66.3824 256.662ZM52.6666 262.718L19.388 171.286L17.5087 171.97L50.7872 263.402L52.6666 262.718ZM18.7904 172.568L72.5972 152.983L71.9131 151.104L18.1063 170.688L18.7904 172.568ZM201.929 187.235L202.702 186.6L202.253 186.053L201.587 186.295L201.929 187.235ZM163.646 201.169L163.304 200.229L162.639 200.471L162.646 201.179L163.646 201.169ZM163.868 222.244L164.21 223.184L164.875 222.942L164.868 222.233L163.868 222.244ZM148.213 227.942L147.213 227.948L147.22 229.367L148.555 228.882L148.213 227.942ZM147.644 124.456L147.302 123.516L146.64 123.757L146.644 124.461L147.644 124.456ZM165.009 118.135L165.779 117.496L165.329 116.954L164.667 117.195L165.009 118.135ZM231.094 197.776L231.436 198.716L232.77 198.23L231.863 197.137L231.094 197.776ZM215.307 203.522L214.534 204.157L214.983 204.704L215.649 204.461L215.307 203.522ZM193.267 176.532L193.609 177.472L194.933 176.99L194.041 175.899L193.267 176.532ZM162.934 139.45L163.709 138.817L161.907 136.614L161.935 139.46L162.934 139.45ZM163.403 187.402L162.403 187.411L162.417 188.825L163.745 188.341L163.403 187.402ZM201.587 186.295L163.304 200.229L163.988 202.108L202.272 188.175L201.587 186.295ZM162.646 201.179L162.868 222.254L164.868 222.233L164.646 201.158L162.646 201.179ZM163.526 221.304L147.871 227.002L148.555 228.882L164.21 223.184L163.526 221.304ZM149.213 227.937L148.644 124.45L146.644 124.461L147.213 227.948L149.213 227.937ZM147.986 125.395L165.351 119.075L164.667 117.195L147.302 123.516L147.986 125.395ZM164.24 118.774L230.324 198.414L231.863 197.137L165.779 117.496L164.24 118.774ZM230.752 196.836L214.965 202.582L215.649 204.461L231.436 198.716L230.752 196.836ZM216.079 202.887L202.702 186.6L201.157 187.87L214.534 204.157L216.079 202.887ZM194.041 175.899L163.709 138.817L162.16 140.083L192.493 177.165L194.041 175.899ZM161.935 139.46L162.403 187.411L164.403 187.392L163.934 139.44L161.935 139.46ZM163.745 188.341L193.609 177.472L192.925 175.593L163.061 186.462L163.745 188.341ZM356.321 170.969L355.864 171.858L356.252 172.058L356.664 171.908L356.321 170.969ZM333.951 159.445L334.409 158.556L333.86 158.273L333.362 158.637L333.951 159.445ZM295.846 168.546L295.679 169.533L295.686 169.534L295.694 169.535L295.846 168.546ZM272.794 158.016L272.149 158.78L272.154 158.784L272.16 158.789L272.794 158.016ZM255.221 109.734L254.238 109.549L254.237 109.558L255.221 109.734ZM266.159 86.9812L266.914 87.6365L266.917 87.6334L266.159 86.9812ZM313.256 69.8391L313.089 70.8251L313.097 70.8264L313.104 70.8275L313.256 69.8391ZM336.26 80.2384L335.619 81.0059L336.26 80.2384ZM354.012 126.965L353.022 126.82L353.022 126.825L354.012 126.965ZM344.952 148.737L344.156 148.132L343.428 149.09L344.503 149.63L344.952 148.737ZM375.397 164.026L375.739 164.965L377.918 164.172L375.846 163.132L375.397 164.026ZM283.651 146.913L282.969 147.643L282.976 147.65L282.984 147.657L283.651 146.913ZM299.143 154.683L298.958 155.666L298.972 155.668L299.143 154.683ZM331.506 142.904L332.271 143.548L332.279 143.538L331.506 142.904ZM338.247 127.041L337.256 126.907L337.256 126.913L338.247 127.041ZM325.271 91.3893L324.594 92.1249L324.604 92.1339L325.271 91.3893ZM309.959 83.7029L309.788 84.6881L309.788 84.6881L309.959 83.7029ZM277.596 95.4821L278.36 96.1268L278.36 96.1267L277.596 95.4821ZM270.675 111.261L269.685 111.119L269.683 111.133L270.675 111.261ZM356.779 170.08L334.409 158.556L333.493 160.334L355.864 171.858L356.779 170.08ZM333.362 158.637C329.916 161.151 325.868 163.259 321.207 164.956L321.891 166.835C326.702 165.084 330.922 162.892 334.54 160.253L333.362 158.637ZM321.207 164.956C312.852 167.997 304.454 168.861 295.998 167.558L295.694 169.535C304.494 170.891 313.232 169.987 321.891 166.835L321.207 164.956ZM296.013 167.56C287.614 166.141 280.09 162.705 273.428 157.242L272.16 158.789C279.089 164.47 286.933 168.054 295.679 169.533L296.013 167.56ZM273.439 157.252C266.843 151.682 261.941 144.513 258.74 135.718L256.861 136.402C260.171 145.498 265.265 152.967 272.149 158.78L273.439 157.252ZM258.74 135.718C255.539 126.922 254.703 118.326 256.205 109.91L254.237 109.558C252.666 118.352 253.55 127.305 256.861 136.402L258.74 135.718ZM256.204 109.919C257.796 101.454 261.364 94.0327 266.914 87.6365L265.403 86.3258C259.618 92.9944 255.895 100.742 254.238 109.549L256.204 109.919ZM266.917 87.6334C272.525 81.1155 279.495 76.338 287.847 73.2982L287.163 71.4188C278.5 74.5719 271.239 79.5428 265.401 86.329L266.917 87.6334ZM287.847 73.2982C296.288 70.2259 304.697 69.4068 313.089 70.8251L313.423 68.8531C304.67 67.374 295.912 68.2345 287.163 71.4188L287.847 73.2982ZM313.104 70.8275C321.552 72.1288 329.051 75.5187 335.619 81.0059L336.901 79.471C330.054 73.7506 322.217 70.2077 313.408 68.8508L313.104 70.8275ZM335.619 81.0059C342.18 86.4866 347.065 93.6094 350.266 102.405L352.145 101.721C348.835 92.6245 343.756 85.1977 336.901 79.471L335.619 81.0059ZM350.266 102.405C353.279 110.682 354.19 118.816 353.022 126.82L355.002 127.109C356.221 118.75 355.262 110.283 352.145 101.721L350.266 102.405ZM353.022 126.825C351.908 134.719 348.954 141.816 344.156 148.132L345.748 149.342C350.754 142.752 353.841 135.335 355.002 127.105L353.022 126.825ZM344.503 149.63L374.948 164.919L375.846 163.132L345.401 147.843L344.503 149.63ZM375.055 163.086L355.979 170.029L356.664 171.908L375.739 164.965L375.055 163.086ZM272.253 130.799C274.756 137.676 278.322 143.303 282.969 147.643L284.334 146.182C279.952 142.089 276.545 136.745 274.132 130.115L272.253 130.799ZM282.984 147.657C287.683 151.87 293.012 154.547 298.958 155.665L299.328 153.7C293.759 152.653 288.76 150.149 284.319 146.168L282.984 147.657ZM298.972 155.668C304.888 156.696 310.953 156.067 317.151 153.811L316.467 151.932C310.561 154.081 304.85 154.659 299.314 153.697L298.972 155.668ZM317.151 153.811C323.349 151.555 328.4 148.138 332.271 143.548L330.742 142.259C327.12 146.554 322.373 149.782 316.467 151.932L317.151 153.811ZM332.279 143.538C336.118 138.856 338.437 133.392 339.239 127.169L337.256 126.913C336.499 132.78 334.324 137.89 330.733 142.269L332.279 143.538ZM339.238 127.176C340.099 120.828 339.258 114.205 336.753 107.323L334.874 108.007C337.285 114.632 338.067 120.927 337.256 126.907L339.238 127.176ZM336.753 107.323C334.249 100.442 330.651 94.8692 325.939 90.6447L324.604 92.1339C329.032 96.1041 332.463 101.382 334.874 108.007L336.753 107.323ZM325.949 90.6538C321.332 86.4011 316.054 83.7473 310.13 82.7177L309.788 84.6881C315.315 85.6487 320.245 88.1191 324.594 92.1248L325.949 90.6538ZM310.13 82.7177C304.214 81.6896 298.149 82.3188 291.951 84.5745L292.635 86.4539C298.541 84.3044 304.252 83.7261 309.788 84.6881L310.13 82.7177ZM291.951 84.5745C285.753 86.8303 280.702 90.2472 276.831 94.8374L278.36 96.1267C281.982 91.8317 286.729 88.6034 292.635 86.4539L291.951 84.5745ZM276.831 94.8374C272.957 99.4316 270.577 104.868 269.685 111.119L271.665 111.402C272.507 105.5 274.742 100.418 278.36 96.1268L276.831 94.8374ZM269.683 111.133C268.88 117.362 269.75 123.923 272.253 130.799L274.132 130.115C271.719 123.485 270.911 117.248 271.667 111.389L269.683 111.133Z" fill="black" mask="url(#path-1-outside-1_1476_89728)"/>
<mask id="path-3-outside-2_1476_89728" maskUnits="userSpaceOnUse" x="535.576" y="-136.777" width="363.015" height="229.136" fill="black">
<rect fill="white" x="535.576" y="-136.777" width="363.015" height="229.136"/>
<path d="M591.905 -37.0933L596.358 -24.8585L557.549 -10.7331L567.365 16.2361L597.623 5.22308L602.076 17.4579L571.818 28.4709L586.374 68.4642L571.377 73.9229L538.098 -17.5092L591.905 -37.0933ZM721.58 -1.90223L683.296 12.0317L683.518 33.1069L667.863 38.805L667.294 -64.6815L684.659 -71.0021L750.744 8.63878L734.957 14.3847L721.58 -1.90223ZM712.917 -12.6048L682.584 -49.6869L683.053 -1.73538L712.917 -12.6048ZM875.972 -18.1684L853.601 -29.6922C850.069 -27.1155 845.935 -24.9653 841.199 -23.2415C832.692 -20.1451 824.124 -19.2615 815.496 -20.5906C806.923 -22.0393 799.239 -25.5496 792.444 -31.1214C785.704 -36.8129 780.706 -44.1316 777.45 -53.0774C774.194 -62.0233 773.335 -70.7984 774.871 -79.4028C776.495 -88.0392 780.141 -95.6235 785.809 -102.156C791.532 -108.808 798.647 -113.682 807.155 -116.779C815.75 -119.907 824.334 -120.747 832.906 -119.298C841.534 -117.969 849.202 -114.502 855.91 -108.899C862.618 -103.295 867.6 -96.0201 870.856 -87.0742C873.92 -78.6546 874.856 -70.3539 873.662 -62.1722C872.524 -54.1102 869.504 -46.853 864.602 -40.4005L895.047 -25.1114L875.972 -18.1684ZM792.843 -58.6797C795.301 -51.9265 798.787 -46.4414 803.301 -42.2245C807.872 -38.1272 813.036 -35.5371 818.793 -34.4544C824.519 -33.4593 830.407 -34.0631 836.459 -36.2657C842.511 -38.4683 847.41 -41.7909 851.156 -46.2335C854.871 -50.7639 857.118 -56.0513 857.897 -62.0958C858.733 -68.26 857.922 -74.7187 855.464 -81.4719C853.006 -88.2252 849.492 -93.6505 844.921 -97.7478C840.439 -101.877 835.334 -104.439 829.609 -105.434C823.883 -106.429 817.995 -105.825 811.943 -103.623C805.891 -101.42 800.992 -98.0976 797.246 -93.655C793.499 -89.2124 791.192 -83.9528 790.325 -77.8764C789.545 -71.8319 790.385 -65.433 792.843 -58.6797Z"/>
</mask>
<path d="M591.905 -37.0933L592.845 -37.4353L592.503 -38.375L591.563 -38.033L591.905 -37.0933ZM596.358 -24.8585L596.7 -23.9188L597.64 -24.2608L597.298 -25.2005L596.358 -24.8585ZM557.549 -10.7331L557.207 -11.6727L556.267 -11.3307L556.609 -10.391L557.549 -10.7331ZM567.365 16.2361L566.425 16.5781L566.767 17.5178L567.707 17.1758L567.365 16.2361ZM597.623 5.22308L598.563 4.88106L598.221 3.94137L597.281 4.28339L597.623 5.22308ZM602.076 17.4579L602.418 18.3976L603.358 18.0555L603.016 17.1159L602.076 17.4579ZM571.818 28.4709L571.476 27.5312L570.536 27.8732L570.878 28.8129L571.818 28.4709ZM586.374 68.4642L586.716 69.4039L587.656 69.0619L587.314 68.1222L586.374 68.4642ZM571.377 73.9229L570.437 74.2649L570.779 75.2046L571.719 74.8626L571.377 73.9229ZM538.098 -17.5092L537.756 -18.4489L536.817 -18.1069L537.159 -17.1672L538.098 -17.5092ZM590.965 -36.7513L595.419 -24.5165L597.298 -25.2005L592.845 -37.4353L590.965 -36.7513ZM596.016 -25.7982L557.207 -11.6727L557.891 -9.79336L596.7 -23.9188L596.016 -25.7982ZM556.609 -10.391L566.425 16.5781L568.305 15.8941L558.489 -11.0751L556.609 -10.391ZM567.707 17.1758L597.965 6.16277L597.281 4.28339L567.023 15.2964L567.707 17.1758ZM596.683 5.5651L601.136 17.7999L603.016 17.1159L598.563 4.88106L596.683 5.5651ZM601.734 16.5182L571.476 27.5312L572.16 29.4106L602.418 18.3976L601.734 16.5182ZM570.878 28.8129L585.435 68.8063L587.314 68.1222L572.758 28.1289L570.878 28.8129ZM586.032 67.5246L571.035 72.9832L571.719 74.8626L586.716 69.4039L586.032 67.5246ZM572.317 73.5809L539.038 -17.8512L537.159 -17.1672L570.437 74.2649L572.317 73.5809ZM538.44 -16.5695L592.247 -36.1536L591.563 -38.033L537.756 -18.4489L538.44 -16.5695ZM721.58 -1.90224L722.352 -2.53694L721.903 -3.0841L721.237 -2.84193L721.58 -1.90224ZM683.296 12.0317L682.954 11.092L682.289 11.3341L682.296 12.0422L683.296 12.0317ZM683.518 33.1069L683.86 34.0466L684.525 33.8044L684.518 33.0964L683.518 33.1069ZM667.863 38.805L666.863 38.8104L666.87 40.2303L668.205 39.7446L667.863 38.805ZM667.294 -64.6815L666.952 -65.6212L666.29 -65.3803L666.294 -64.676L667.294 -64.6815ZM684.659 -71.0021L685.429 -71.6406L684.979 -72.1826L684.317 -71.9417L684.659 -71.0021ZM750.744 8.63878L751.086 9.57847L752.42 9.09286L751.513 8.00021L750.744 8.63878ZM734.957 14.3847L734.184 15.0194L734.633 15.5666L735.299 15.3244L734.957 14.3847ZM712.917 -12.6048L713.259 -11.6651L714.583 -12.1471L713.691 -13.2379L712.917 -12.6048ZM682.584 -49.6869L683.359 -50.3201L681.557 -52.5228L681.585 -49.6772L682.584 -49.6869ZM683.053 -1.73538L682.053 -1.72561L682.067 -0.312277L683.395 -0.795691L683.053 -1.73538ZM721.237 -2.84193L682.954 11.092L683.638 12.9714L721.922 -0.962544L721.237 -2.84193ZM682.296 12.0422L682.518 33.1174L684.518 33.0964L684.296 12.0212L682.296 12.0422ZM683.176 32.1672L667.521 37.8653L668.205 39.7446L683.86 34.0466L683.176 32.1672ZM668.863 38.7995L668.294 -64.687L666.294 -64.676L666.863 38.8104L668.863 38.7995ZM667.636 -63.7418L685.001 -70.0624L684.317 -71.9417L666.952 -65.6212L667.636 -63.7418ZM683.89 -70.3635L749.974 9.27735L751.513 8.00021L685.429 -71.6406L683.89 -70.3635ZM750.402 7.69908L734.615 13.445L735.299 15.3244L751.086 9.57847L750.402 7.69908ZM735.729 13.75L722.352 -2.53694L720.807 -1.26754L734.184 15.0194L735.729 13.75ZM713.691 -13.2379L683.359 -50.3201L681.81 -49.0538L712.143 -11.9716L713.691 -13.2379ZM681.585 -49.6772L682.053 -1.72561L684.053 -1.74516L683.584 -49.6967L681.585 -49.6772ZM683.395 -0.795691L713.259 -11.6651L712.575 -13.5445L682.711 -2.67508L683.395 -0.795691ZM875.972 -18.1684L875.514 -17.2794L875.902 -17.0791L876.314 -17.2287L875.972 -18.1684ZM853.601 -29.6922L854.059 -30.5812L853.51 -30.8638L853.012 -30.5L853.601 -29.6922ZM815.496 -20.5906L815.329 -19.6046L815.336 -19.6034L815.344 -19.6022L815.496 -20.5906ZM792.444 -31.1214L791.799 -30.3574L791.804 -30.3527L791.81 -30.3481L792.444 -31.1214ZM774.871 -79.4028L773.888 -79.5877L773.887 -79.5786L774.871 -79.4028ZM785.809 -102.156L786.564 -101.501L786.567 -101.504L785.809 -102.156ZM832.906 -119.298L832.739 -118.312L832.747 -118.311L832.754 -118.31L832.906 -119.298ZM855.91 -108.899L855.269 -108.131L855.91 -108.899ZM873.662 -62.1722L872.672 -62.3166L872.672 -62.312L873.662 -62.1722ZM864.602 -40.4005L863.806 -41.0055L863.078 -40.0471L864.153 -39.5069L864.602 -40.4005ZM895.047 -25.1114L895.389 -24.1717L897.568 -24.9646L895.496 -26.005L895.047 -25.1114ZM803.301 -42.2245L802.619 -41.4937L802.626 -41.4867L802.634 -41.4799L803.301 -42.2245ZM818.793 -34.4544L818.608 -33.4715L818.622 -33.4691L818.793 -34.4544ZM851.156 -46.2335L851.921 -45.5888L851.929 -45.5995L851.156 -46.2335ZM857.897 -62.0958L856.906 -62.2301L856.906 -62.2238L857.897 -62.0958ZM844.921 -97.7478L844.244 -97.0122L844.254 -97.0032L844.921 -97.7478ZM829.609 -105.434L829.438 -104.449L829.438 -104.449L829.609 -105.434ZM797.246 -93.655L798.01 -93.0103L798.01 -93.0103L797.246 -93.655ZM790.325 -77.8764L789.335 -78.0177L789.333 -78.0043L790.325 -77.8764ZM876.429 -19.0574L854.059 -30.5812L853.143 -28.8032L875.514 -17.2794L876.429 -19.0574ZM853.012 -30.5C849.566 -27.9864 845.518 -25.8777 840.857 -24.1812L841.541 -22.3019C846.352 -24.053 850.572 -26.2447 854.19 -28.8843L853.012 -30.5ZM840.857 -24.1812C832.502 -21.1401 824.104 -20.2764 815.648 -21.5789L815.344 -19.6022C824.144 -18.2466 832.882 -19.1501 841.541 -22.3019L840.857 -24.1812ZM815.663 -21.5766C807.264 -22.996 799.74 -26.4321 793.078 -31.8947L791.81 -30.3481C798.739 -24.6672 806.583 -21.0826 815.329 -19.6046L815.663 -21.5766ZM793.089 -31.8855C786.493 -37.4555 781.591 -44.6241 778.39 -53.4194L776.511 -52.7354C779.821 -43.639 784.915 -36.1703 791.799 -30.3574L793.089 -31.8855ZM778.39 -53.4194C775.189 -62.2149 774.353 -70.8115 775.855 -79.2271L773.887 -79.5786C772.316 -70.7854 773.2 -61.8317 776.511 -52.7354L778.39 -53.4194ZM775.854 -79.218C777.446 -87.6831 781.014 -95.1044 786.564 -101.501L785.053 -102.811C779.268 -96.1427 775.545 -88.3953 773.888 -79.5877L775.854 -79.218ZM786.567 -101.504C792.175 -108.022 799.145 -112.799 807.497 -115.839L806.813 -117.718C798.15 -114.565 790.889 -109.594 785.051 -102.808L786.567 -101.504ZM807.497 -115.839C815.938 -118.911 824.347 -119.73 832.739 -118.312L833.073 -120.284C824.32 -121.763 815.562 -120.903 806.813 -117.718L807.497 -115.839ZM832.754 -118.31C841.202 -117.008 848.701 -113.618 855.269 -108.131L856.551 -109.666C849.704 -115.386 841.867 -118.929 833.058 -120.286L832.754 -118.31ZM855.269 -108.131C861.83 -102.65 866.715 -95.5277 869.916 -86.7322L871.796 -87.4163C868.485 -96.5126 863.406 -103.939 856.551 -109.666L855.269 -108.131ZM869.916 -86.7322C872.929 -78.4547 873.84 -70.321 872.673 -62.3166L874.652 -62.0279C875.871 -70.3868 874.912 -78.8544 871.796 -87.4163L869.916 -86.7322ZM872.672 -62.312C871.558 -54.4182 868.604 -47.3213 863.806 -41.0055L865.398 -39.7956C870.404 -46.3846 873.491 -53.8022 874.652 -62.0325L872.672 -62.312ZM864.153 -39.5069L894.598 -24.2177L895.496 -26.005L865.051 -41.2942L864.153 -39.5069ZM894.705 -26.0511L875.629 -19.1081L876.314 -17.2287L895.389 -24.1717L894.705 -26.0511ZM791.903 -58.3377C794.406 -51.4606 797.972 -45.8344 802.619 -41.4937L803.984 -42.9552C799.602 -47.0483 796.195 -52.3923 793.782 -59.0217L791.903 -58.3377ZM802.634 -41.4799C807.333 -37.2666 812.662 -34.5898 818.608 -33.4716L818.978 -35.4371C813.409 -36.4845 808.41 -38.9877 803.969 -42.969L802.634 -41.4799ZM818.622 -33.4691C824.538 -32.441 830.603 -33.0703 836.801 -35.326L836.117 -37.2054C830.211 -35.0559 824.5 -34.4776 818.964 -35.4396L818.622 -33.4691ZM836.801 -35.326C842.999 -37.5817 848.05 -40.9986 851.921 -45.5889L850.392 -46.8782C846.77 -42.5832 842.023 -39.3549 836.117 -37.2054L836.801 -35.326ZM851.929 -45.5995C855.768 -50.2807 858.087 -55.7454 858.889 -61.9679L856.906 -62.2238C856.149 -56.3572 853.974 -51.247 850.383 -46.8676L851.929 -45.5995ZM858.888 -61.9615C859.749 -68.3096 858.908 -74.9322 856.403 -81.814L854.524 -81.1299C856.935 -74.5052 857.717 -68.2104 856.907 -62.2301L858.888 -61.9615ZM856.403 -81.814C853.899 -88.6953 850.301 -94.2679 845.589 -98.4924L844.254 -97.0032C848.682 -93.033 852.113 -87.7551 854.524 -81.1299L856.403 -81.814ZM845.599 -98.4833C840.982 -102.736 835.704 -105.39 829.78 -106.419L829.438 -104.449C834.965 -103.488 839.895 -101.018 844.244 -97.0123L845.599 -98.4833ZM829.78 -106.419C823.864 -107.448 817.799 -106.818 811.601 -104.563L812.285 -102.683C818.191 -104.833 823.902 -105.411 829.438 -104.449L829.78 -106.419ZM811.601 -104.563C805.403 -102.307 800.352 -98.8899 796.481 -94.2997L798.01 -93.0103C801.632 -97.3053 806.379 -100.534 812.285 -102.683L811.601 -104.563ZM796.481 -94.2997C792.607 -89.7055 790.227 -84.2689 789.335 -78.0177L791.315 -77.7351C792.157 -83.6368 794.392 -88.7192 798.01 -93.0103L796.481 -94.2997ZM789.333 -78.0043C788.53 -71.7751 789.4 -65.2143 791.903 -58.3377L793.782 -59.0217C791.369 -65.6516 790.561 -71.8886 791.317 -77.7485L789.333 -78.0043Z" fill="black" mask="url(#path-3-outside-2_1476_89728)"/>
<mask id="path-5-outside-3_1476_89728" maskUnits="userSpaceOnUse" x="535.576" y="695.908" width="363.015" height="229.136" fill="black">
<rect fill="white" x="535.576" y="695.908" width="363.015" height="229.136"/>
<path d="M591.905 795.592L596.358 807.827L557.549 821.953L567.365 848.922L597.623 837.909L602.076 850.144L571.818 861.157L586.374 901.15L571.377 906.609L538.098 815.176L591.905 795.592ZM721.579 830.783L683.296 844.717L683.518 865.793L667.863 871.491L667.294 768.004L684.659 761.684L750.744 841.324L734.957 847.07L721.579 830.783ZM712.917 820.081L682.584 782.999L683.053 830.95L712.917 820.081ZM875.971 814.517L853.601 802.993C850.069 805.57 845.935 807.72 841.199 809.444C832.692 812.541 824.124 813.424 815.496 812.095C806.923 810.646 799.239 807.136 792.444 801.564C785.704 795.873 780.706 788.554 777.45 779.608C774.194 770.662 773.335 761.887 774.871 753.283C776.495 744.646 780.141 737.062 785.809 730.53C791.532 723.878 798.647 719.004 807.155 715.907C815.75 712.779 824.333 711.939 832.906 713.388C841.534 714.717 849.202 718.183 855.91 723.787C862.618 729.391 867.6 736.666 870.856 745.611C873.92 754.031 874.856 762.332 873.662 770.513C872.524 778.575 869.504 785.833 864.602 792.285L895.047 807.574L875.971 814.517ZM792.842 774.006C795.3 780.759 798.787 786.244 803.301 790.461C807.872 794.559 813.036 797.149 818.793 798.231C824.519 799.226 830.407 798.623 836.459 796.42C842.511 794.217 847.41 790.895 851.156 786.452C854.871 781.922 857.118 776.634 857.897 770.59C858.733 764.426 857.922 757.967 855.464 751.214C853.006 744.46 849.491 739.035 844.921 734.938C840.439 730.809 835.334 728.247 829.609 727.251C823.883 726.256 817.995 726.86 811.943 729.063C805.891 731.265 800.992 734.588 797.246 739.031C793.499 743.473 791.192 748.733 790.325 754.809C789.545 760.854 790.385 767.253 792.842 774.006Z"/>
</mask>
<path d="M591.905 795.592L592.845 795.25L592.503 794.311L591.563 794.653L591.905 795.592ZM596.358 807.827L596.7 808.767L597.64 808.425L597.298 807.485L596.358 807.827ZM557.549 821.953L557.207 821.013L556.267 821.355L556.609 822.295L557.549 821.953ZM567.365 848.922L566.425 849.264L566.767 850.204L567.707 849.861L567.365 848.922ZM597.623 837.909L598.563 837.567L598.221 836.627L597.281 836.969L597.623 837.909ZM602.076 850.144L602.418 851.083L603.358 850.741L603.016 849.802L602.076 850.144ZM571.818 861.157L571.476 860.217L570.536 860.559L570.878 861.499L571.818 861.157ZM586.374 901.15L586.716 902.09L587.656 901.748L587.314 900.808L586.374 901.15ZM571.377 906.609L570.437 906.951L570.779 907.89L571.719 907.548L571.377 906.609ZM538.098 815.176L537.756 814.237L536.817 814.579L537.159 815.518L538.098 815.176ZM590.965 795.934L595.419 808.169L597.298 807.485L592.845 795.25L590.965 795.934ZM596.016 806.887L557.207 821.013L557.891 822.892L596.7 808.767L596.016 806.887ZM556.609 822.295L566.425 849.264L568.305 848.58L558.489 821.611L556.609 822.295ZM567.707 849.861L597.965 838.848L597.281 836.969L567.023 847.982L567.707 849.861ZM596.683 838.251L601.136 850.486L603.016 849.802L598.563 837.567L596.683 838.251ZM601.734 849.204L571.476 860.217L572.16 862.096L602.418 851.083L601.734 849.204ZM570.878 861.499L585.435 901.492L587.314 900.808L572.758 860.815L570.878 861.499ZM586.032 900.21L571.035 905.669L571.719 907.548L586.716 902.09L586.032 900.21ZM572.317 906.267L539.038 814.834L537.159 815.518L570.437 906.951L572.317 906.267ZM538.44 816.116L592.247 796.532L591.563 794.653L537.756 814.237L538.44 816.116ZM721.579 830.783L722.352 830.149L721.903 829.602L721.237 829.844L721.579 830.783ZM683.296 844.717L682.954 843.778L682.289 844.02L682.296 844.728L683.296 844.717ZM683.518 865.793L683.86 866.732L684.525 866.49L684.518 865.782L683.518 865.793ZM667.863 871.491L666.863 871.496L666.87 872.916L668.205 872.43L667.863 871.491ZM667.294 768.004L666.952 767.064L666.29 767.305L666.294 768.01L667.294 768.004ZM684.659 761.684L685.429 761.045L684.979 760.503L684.317 760.744L684.659 761.684ZM750.744 841.324L751.086 842.264L752.42 841.779L751.513 840.686L750.744 841.324ZM734.957 847.07L734.184 847.705L734.633 848.252L735.299 848.01L734.957 847.07ZM712.917 820.081L713.259 821.021L714.583 820.539L713.691 819.448L712.917 820.081ZM682.584 782.999L683.359 782.366L681.557 780.163L681.585 783.009L682.584 782.999ZM683.053 830.95L682.053 830.96L682.067 832.373L683.395 831.89L683.053 830.95ZM721.237 829.844L682.954 843.778L683.638 845.657L721.922 831.723L721.237 829.844ZM682.296 844.728L682.518 865.803L684.518 865.782L684.296 844.707L682.296 844.728ZM683.176 864.853L667.521 870.551L668.205 872.43L683.86 866.732L683.176 864.853ZM668.863 871.485L668.294 767.999L666.294 768.01L666.863 871.496L668.863 871.485ZM667.636 768.944L685.001 762.623L684.317 760.744L666.952 767.064L667.636 768.944ZM683.89 762.322L749.974 841.963L751.513 840.686L685.429 761.045L683.89 762.322ZM750.402 840.385L734.615 846.131L735.299 848.01L751.086 842.264L750.402 840.385ZM735.729 846.436L722.352 830.149L720.807 831.418L734.184 847.705L735.729 846.436ZM713.691 819.448L683.359 782.366L681.81 783.632L712.143 820.714L713.691 819.448ZM681.585 783.009L682.053 830.96L684.053 830.941L683.584 782.989L681.585 783.009ZM683.395 831.89L713.259 821.021L712.575 819.141L682.711 830.011L683.395 831.89ZM875.971 814.517L875.514 815.406L875.902 815.607L876.314 815.457L875.971 814.517ZM853.601 802.993L854.059 802.105L853.51 801.822L853.012 802.186L853.601 802.993ZM815.496 812.095L815.329 813.081L815.336 813.082L815.344 813.083L815.496 812.095ZM792.444 801.564L791.799 802.328L791.804 802.333L791.81 802.338L792.444 801.564ZM774.871 753.283L773.888 753.098L773.887 753.107L774.871 753.283ZM785.809 730.53L786.564 731.185L786.567 731.182L785.809 730.53ZM832.906 713.388L832.739 714.374L832.747 714.375L832.754 714.376L832.906 713.388ZM855.91 723.787L855.269 724.554L855.91 723.787ZM873.662 770.513L872.672 770.369L872.672 770.374L873.662 770.513ZM864.602 792.285L863.806 791.68L863.078 792.639L864.153 793.179L864.602 792.285ZM895.047 807.574L895.389 808.514L897.568 807.721L895.496 806.681L895.047 807.574ZM803.301 790.461L802.619 791.192L802.626 791.199L802.634 791.206L803.301 790.461ZM818.793 798.231L818.608 799.214L818.622 799.217L818.793 798.231ZM851.156 786.452L851.921 787.097L851.929 787.086L851.156 786.452ZM857.897 770.59L856.906 770.456L856.906 770.462L857.897 770.59ZM844.921 734.938L844.244 735.673L844.254 735.682L844.921 734.938ZM829.609 727.251L829.438 728.237L829.438 728.237L829.609 727.251ZM797.246 739.031L798.01 739.675L798.01 739.675L797.246 739.031ZM790.325 754.809L789.335 754.668L789.333 754.681L790.325 754.809ZM876.429 813.628L854.059 802.105L853.143 803.882L875.514 815.406L876.429 813.628ZM853.012 802.186C849.566 804.699 845.518 806.808 840.857 808.504L841.541 810.384C846.352 808.633 850.572 806.441 854.19 803.801L853.012 802.186ZM840.857 808.504C832.502 811.546 824.104 812.409 815.648 811.107L815.344 813.083C824.144 814.439 832.882 813.536 841.541 810.384L840.857 808.504ZM815.663 811.109C807.264 809.69 799.74 806.254 793.078 800.791L791.81 802.338C798.739 808.018 806.583 811.603 815.329 813.081L815.663 811.109ZM793.089 800.8C786.493 795.23 781.591 788.062 778.39 779.266L776.511 779.95C779.821 789.047 784.915 796.515 791.799 802.328L793.089 800.8ZM778.39 779.266C775.189 770.471 774.353 761.874 775.855 753.459L773.887 753.107C772.316 761.9 773.2 770.854 776.511 779.95L778.39 779.266ZM775.854 753.468C777.446 745.003 781.014 737.581 786.564 731.185L785.053 729.874C779.268 736.543 775.545 744.29 773.888 753.098L775.854 753.468ZM786.567 731.182C792.175 724.664 799.145 719.887 807.497 716.847L806.813 714.967C798.15 718.121 790.889 723.091 785.051 729.878L786.567 731.182ZM807.497 716.847C815.938 713.774 824.347 712.955 832.739 714.374L833.073 712.402C824.32 710.923 815.562 711.783 806.813 714.967L807.497 716.847ZM832.754 714.376C841.202 715.677 848.701 719.067 855.269 724.554L856.551 723.02C849.704 717.299 841.867 713.756 833.058 712.399L832.754 714.376ZM855.269 724.554C861.83 730.035 866.715 737.158 869.916 745.953L871.795 745.269C868.485 736.173 863.406 728.746 856.551 723.02L855.269 724.554ZM869.916 745.953C872.929 754.231 873.84 762.365 872.672 770.369L874.652 770.658C875.871 762.299 874.912 753.831 871.795 745.269L869.916 745.953ZM872.672 770.374C871.558 778.267 868.604 785.364 863.806 791.68L865.398 792.89C870.404 786.301 873.491 778.883 874.652 770.653L872.672 770.374ZM864.153 793.179L894.598 808.468L895.496 806.681L865.051 791.391L864.153 793.179ZM894.705 806.635L875.629 813.578L876.314 815.457L895.389 808.514L894.705 806.635ZM791.903 774.348C794.406 781.225 797.972 786.851 802.619 791.192L803.984 789.73C799.602 785.637 796.195 780.293 793.782 773.664L791.903 774.348ZM802.634 791.206C807.333 795.419 812.662 798.096 818.608 799.214L818.978 797.249C813.409 796.201 808.41 793.698 803.969 789.717L802.634 791.206ZM818.622 799.217C824.538 800.245 830.603 799.615 836.801 797.36L836.117 795.48C830.211 797.63 824.5 798.208 818.964 797.246L818.622 799.217ZM836.801 797.36C842.999 795.104 848.05 791.687 851.921 787.097L850.392 785.807C846.77 790.102 842.023 793.331 836.117 795.48L836.801 797.36ZM851.929 787.086C855.768 782.405 858.087 776.94 858.889 770.718L856.906 770.462C856.149 776.328 853.974 781.439 850.383 785.818L851.929 787.086ZM858.888 770.724C859.749 764.376 858.908 757.753 856.403 750.872L854.524 751.556C856.935 758.18 857.717 764.475 856.906 770.456L858.888 770.724ZM856.403 750.872C853.899 743.99 850.301 738.418 845.589 734.193L844.254 735.682C848.682 739.653 852.113 744.931 854.524 751.556L856.403 750.872ZM845.599 734.202C840.982 729.95 835.704 727.296 829.78 726.266L829.438 728.237C834.965 729.197 839.895 731.668 844.244 735.673L845.599 734.202ZM829.78 726.266C823.864 725.238 817.799 725.867 811.601 728.123L812.285 730.003C818.191 727.853 823.902 727.275 829.438 728.237L829.78 726.266ZM811.601 728.123C805.403 730.379 800.352 733.796 796.481 738.386L798.01 739.675C801.632 735.38 806.379 732.152 812.285 730.003L811.601 728.123ZM796.481 738.386C792.607 742.98 790.227 748.417 789.335 754.668L791.315 754.951C792.157 749.049 794.392 743.966 798.01 739.675L796.481 738.386ZM789.333 754.681C788.53 760.911 789.4 767.471 791.903 774.348L793.782 773.664C791.369 767.034 790.561 760.797 791.317 754.937L789.333 754.681Z" fill="black" mask="url(#path-5-outside-3_1476_89728)"/>
<mask id="path-7-outside-4_1476_89728" maskUnits="userSpaceOnUse" x="1055.23" y="506.771" width="363.015" height="229.136" fill="black">
<rect fill="white" x="1055.23" y="506.771" width="363.015" height="229.136"/>
<path d="M1111.56 606.455L1116.01 618.69L1077.2 632.816L1087.01 659.785L1117.27 648.772L1121.73 661.007L1091.47 672.02L1106.02 712.013L1091.03 717.472L1057.75 626.039L1111.56 606.455ZM1241.23 641.646L1202.95 655.58L1203.17 676.656L1187.51 682.354L1186.94 578.867L1204.31 572.547L1270.39 652.187L1254.61 657.933L1241.23 641.646ZM1232.57 630.944L1202.23 593.862L1202.7 641.813L1232.57 630.944ZM1395.62 625.38L1373.25 613.857C1369.72 616.433 1365.59 618.583 1360.85 620.307C1352.34 623.404 1343.77 624.287 1335.15 622.958C1326.57 621.509 1318.89 617.999 1312.09 612.427C1305.35 606.736 1300.36 599.417 1297.1 590.471C1293.84 581.525 1292.98 572.75 1294.52 564.146C1296.15 555.51 1299.79 547.925 1305.46 541.393C1311.18 534.741 1318.3 529.867 1326.8 526.77C1335.4 523.642 1343.98 522.802 1352.56 524.251C1361.18 525.58 1368.85 529.046 1375.56 534.65C1382.27 540.254 1387.25 547.529 1390.51 556.474C1393.57 564.894 1394.51 573.195 1393.31 581.376C1392.17 589.439 1389.15 596.696 1384.25 603.148L1414.7 618.437L1395.62 625.38ZM1312.49 584.869C1314.95 591.622 1318.44 597.107 1322.95 601.324C1327.52 605.422 1332.69 608.012 1338.44 609.094C1344.17 610.089 1350.06 609.486 1356.11 607.283C1362.16 605.08 1367.06 601.758 1370.81 597.315C1374.52 592.785 1376.77 587.497 1377.55 581.453C1378.38 575.289 1377.57 568.83 1375.11 562.077C1372.66 555.324 1369.14 549.898 1364.57 545.801C1360.09 541.672 1354.98 539.11 1349.26 538.115C1343.53 537.119 1337.64 537.723 1331.59 539.926C1325.54 542.128 1320.64 545.451 1316.9 549.894C1313.15 554.336 1310.84 559.596 1309.98 565.672C1309.2 571.717 1310.03 578.116 1312.49 584.869Z"/>
</mask>
<path d="M1111.56 606.455L1112.49 606.113L1112.15 605.174L1111.21 605.516L1111.56 606.455ZM1116.01 618.69L1116.35 619.63L1117.29 619.288L1116.95 618.348L1116.01 618.69ZM1077.2 632.816L1076.86 631.876L1075.92 632.218L1076.26 633.158L1077.2 632.816ZM1087.01 659.785L1086.08 660.127L1086.42 661.067L1087.36 660.725L1087.01 659.785ZM1117.27 648.772L1118.21 648.43L1117.87 647.49L1116.93 647.832L1117.27 648.772ZM1121.73 661.007L1122.07 661.946L1123.01 661.604L1122.67 660.665L1121.73 661.007ZM1091.47 672.02L1091.13 671.08L1090.19 671.422L1090.53 672.362L1091.47 672.02ZM1106.02 712.013L1106.37 712.953L1107.31 712.611L1106.96 711.671L1106.02 712.013ZM1091.03 717.472L1090.09 717.814L1090.43 718.753L1091.37 718.411L1091.03 717.472ZM1057.75 626.039L1057.41 625.1L1056.47 625.442L1056.81 626.382L1057.75 626.039ZM1110.62 606.797L1115.07 619.032L1116.95 618.348L1112.49 606.113L1110.62 606.797ZM1115.67 617.751L1076.86 631.876L1077.54 633.755L1116.35 619.63L1115.67 617.751ZM1076.26 633.158L1086.08 660.127L1087.95 659.443L1078.14 632.474L1076.26 633.158ZM1087.36 660.725L1117.62 649.711L1116.93 647.832L1086.67 658.845L1087.36 660.725ZM1116.33 649.114L1120.79 661.349L1122.67 660.665L1118.21 648.43L1116.33 649.114ZM1121.38 660.067L1091.13 671.08L1091.81 672.959L1122.07 661.946L1121.38 660.067ZM1090.53 672.362L1105.08 712.355L1106.96 711.671L1092.41 671.678L1090.53 672.362ZM1105.68 711.073L1090.68 716.532L1091.37 718.411L1106.37 712.953L1105.68 711.073ZM1091.97 717.13L1058.69 625.697L1056.81 626.382L1090.09 717.814L1091.97 717.13ZM1058.09 626.979L1111.9 607.395L1111.21 605.516L1057.41 625.1L1058.09 626.979ZM1241.23 641.646L1242 641.012L1241.55 640.465L1240.89 640.707L1241.23 641.646ZM1202.95 655.58L1202.6 654.641L1201.94 654.883L1201.95 655.591L1202.95 655.58ZM1203.17 676.656L1203.51 677.595L1204.18 677.353L1204.17 676.645L1203.17 676.656ZM1187.51 682.354L1186.51 682.359L1186.52 683.779L1187.85 683.293L1187.51 682.354ZM1186.94 578.867L1186.6 577.927L1185.94 578.168L1185.94 578.873L1186.94 578.867ZM1204.31 572.547L1205.08 571.908L1204.63 571.366L1203.97 571.607L1204.31 572.547ZM1270.39 652.187L1270.74 653.127L1272.07 652.642L1271.16 651.549L1270.39 652.187ZM1254.61 657.933L1253.83 658.568L1254.28 659.115L1254.95 658.873L1254.61 657.933ZM1232.57 630.944L1232.91 631.884L1234.23 631.402L1233.34 630.311L1232.57 630.944ZM1202.23 593.862L1203.01 593.229L1201.21 591.026L1201.23 593.872L1202.23 593.862ZM1202.7 641.813L1201.7 641.823L1201.72 643.236L1203.05 642.753L1202.7 641.813ZM1240.89 640.707L1202.6 654.641L1203.29 656.52L1241.57 642.586L1240.89 640.707ZM1201.95 655.591L1202.17 676.666L1204.17 676.645L1203.95 655.57L1201.95 655.591ZM1202.83 675.716L1187.17 681.414L1187.85 683.293L1203.51 677.595L1202.83 675.716ZM1188.51 682.348L1187.94 578.862L1185.94 578.873L1186.51 682.359L1188.51 682.348ZM1187.29 579.807L1204.65 573.486L1203.97 571.607L1186.6 577.927L1187.29 579.807ZM1203.54 573.185L1269.62 652.826L1271.16 651.549L1205.08 571.908L1203.54 573.185ZM1270.05 651.248L1254.26 656.994L1254.95 658.873L1270.74 653.127L1270.05 651.248ZM1255.38 657.299L1242 641.012L1240.46 642.281L1253.83 658.568L1255.38 657.299ZM1233.34 630.311L1203.01 593.229L1201.46 594.495L1231.79 631.577L1233.34 630.311ZM1201.23 593.872L1201.7 641.823L1203.7 641.804L1203.23 593.852L1201.23 593.872ZM1203.05 642.753L1232.91 631.884L1232.22 630.004L1202.36 640.874L1203.05 642.753ZM1395.62 625.38L1395.16 626.269L1395.55 626.47L1395.96 626.32L1395.62 625.38ZM1373.25 613.857L1373.71 612.968L1373.16 612.685L1372.66 613.049L1373.25 613.857ZM1335.15 622.958L1334.98 623.944L1334.99 623.945L1334.99 623.946L1335.15 622.958ZM1312.09 612.427L1311.45 613.191L1311.45 613.196L1311.46 613.201L1312.09 612.427ZM1294.52 564.146L1293.54 563.961L1293.54 563.97L1294.52 564.146ZM1305.46 541.393L1306.21 542.048L1306.22 542.045L1305.46 541.393ZM1352.56 524.251L1352.39 525.237L1352.4 525.238L1352.4 525.239L1352.56 524.251ZM1375.56 534.65L1374.92 535.417L1375.56 534.65ZM1393.31 581.376L1392.32 581.232L1392.32 581.237L1393.31 581.376ZM1384.25 603.148L1383.46 602.543L1382.73 603.502L1383.8 604.042L1384.25 603.148ZM1414.7 618.437L1415.04 619.377L1417.22 618.584L1415.15 617.544L1414.7 618.437ZM1322.95 601.324L1322.27 602.055L1322.28 602.062L1322.28 602.069L1322.95 601.324ZM1338.44 609.094L1338.26 610.077L1338.27 610.08L1338.44 609.094ZM1370.81 597.315L1371.57 597.96L1371.58 597.949L1370.81 597.315ZM1377.55 581.453L1376.56 581.319L1376.56 581.325L1377.55 581.453ZM1364.57 545.801L1363.89 546.537L1363.9 546.546L1364.57 545.801ZM1349.26 538.115L1349.09 539.1L1349.09 539.1L1349.26 538.115ZM1316.9 549.894L1317.66 550.538L1317.66 550.538L1316.9 549.894ZM1309.98 565.672L1308.98 565.531L1308.98 565.544L1309.98 565.672ZM1396.08 624.491L1373.71 612.968L1372.79 614.746L1395.16 626.269L1396.08 624.491ZM1372.66 613.049C1369.22 615.562 1365.17 617.671 1360.51 619.367L1361.19 621.247C1366 619.496 1370.22 617.304 1373.84 614.664L1372.66 613.049ZM1360.51 619.367C1352.15 622.409 1343.75 623.272 1335.3 621.97L1334.99 623.946C1343.79 625.302 1352.53 624.399 1361.19 621.247L1360.51 619.367ZM1335.31 621.972C1326.91 620.553 1319.39 617.117 1312.73 611.654L1311.46 613.201C1318.39 618.882 1326.23 622.466 1334.98 623.944L1335.31 621.972ZM1312.74 611.663C1306.14 606.093 1301.24 598.925 1298.04 590.129L1296.16 590.813C1299.47 599.91 1304.57 607.378 1311.45 613.191L1312.74 611.663ZM1298.04 590.129C1294.84 581.334 1294 572.737 1295.51 564.322L1293.54 563.97C1291.97 572.763 1292.85 581.717 1296.16 590.813L1298.04 590.129ZM1295.5 564.331C1297.1 555.866 1300.66 548.444 1306.21 542.048L1304.7 540.737C1298.92 547.406 1295.19 555.153 1293.54 563.961L1295.5 564.331ZM1306.22 542.045C1311.82 535.527 1318.79 530.75 1327.15 527.71L1326.46 525.83C1317.8 528.984 1310.54 533.954 1304.7 540.741L1306.22 542.045ZM1327.15 527.71C1335.59 524.638 1344 523.818 1352.39 525.237L1352.72 523.265C1343.97 521.786 1335.21 522.646 1326.46 525.83L1327.15 527.71ZM1352.4 525.239C1360.85 526.54 1368.35 529.93 1374.92 535.417L1376.2 533.883C1369.35 528.162 1361.52 524.619 1352.71 523.262L1352.4 525.239ZM1374.92 535.417C1381.48 540.898 1386.36 548.021 1389.57 556.816L1391.45 556.132C1388.13 547.036 1383.06 539.609 1376.2 533.883L1374.92 535.417ZM1389.57 556.816C1392.58 565.094 1393.49 573.228 1392.32 581.232L1394.3 581.521C1395.52 573.162 1394.56 564.694 1391.45 556.132L1389.57 556.816ZM1392.32 581.237C1391.21 589.131 1388.25 596.227 1383.46 602.543L1385.05 603.753C1390.05 597.164 1393.14 589.747 1394.3 581.516L1392.32 581.237ZM1383.8 604.042L1414.25 619.331L1415.15 617.544L1384.7 602.255L1383.8 604.042ZM1414.36 617.498L1395.28 624.441L1395.96 626.32L1415.04 619.377L1414.36 617.498ZM1311.55 585.211C1314.06 592.088 1317.62 597.714 1322.27 602.055L1323.63 600.593C1319.25 596.5 1315.85 591.156 1313.43 584.527L1311.55 585.211ZM1322.28 602.069C1326.98 606.282 1332.31 608.959 1338.26 610.077L1338.63 608.112C1333.06 607.064 1328.06 604.561 1323.62 600.58L1322.28 602.069ZM1338.27 610.08C1344.19 611.108 1350.25 610.478 1356.45 608.223L1355.77 606.343C1349.86 608.493 1344.15 609.071 1338.61 608.109L1338.27 610.08ZM1356.45 608.223C1362.65 605.967 1367.7 602.55 1371.57 597.96L1370.04 596.67C1366.42 600.966 1361.67 604.194 1355.77 606.343L1356.45 608.223ZM1371.58 597.949C1375.42 593.268 1377.74 587.803 1378.54 581.581L1376.56 581.325C1375.8 587.191 1373.62 592.302 1370.03 596.681L1371.58 597.949ZM1378.54 581.587C1379.4 575.239 1378.56 568.617 1376.05 561.735L1374.17 562.419C1376.59 569.044 1377.37 575.338 1376.56 581.319L1378.54 581.587ZM1376.05 561.735C1373.55 554.853 1369.95 549.281 1365.24 545.056L1363.9 546.546C1368.33 550.516 1371.76 555.794 1374.17 562.419L1376.05 561.735ZM1365.25 545.065C1360.63 540.813 1355.35 538.159 1349.43 537.129L1349.09 539.1C1354.61 540.06 1359.55 542.531 1363.89 546.536L1365.25 545.065ZM1349.43 537.129C1343.51 536.101 1337.45 536.73 1331.25 538.986L1331.93 540.866C1337.84 538.716 1343.55 538.138 1349.09 539.1L1349.43 537.129ZM1331.25 538.986C1325.05 541.242 1320 544.659 1316.13 549.249L1317.66 550.538C1321.28 546.243 1326.03 543.015 1331.93 540.866L1331.25 538.986ZM1316.13 549.249C1312.26 553.843 1309.88 559.28 1308.99 565.531L1310.96 565.814C1311.81 559.912 1314.04 554.829 1317.66 550.538L1316.13 549.249ZM1308.98 565.544C1308.18 571.774 1309.05 578.334 1311.55 585.211L1313.43 584.527C1311.02 577.897 1310.21 571.66 1310.97 565.8L1308.98 565.544Z" fill="black" mask="url(#path-7-outside-4_1476_89728)"/>
</g>
</svg>
