<svg width="28" height="28" viewBox="0 0 28 28" fill="none" xmlns="http://www.w3.org/2000/svg">
<g clip-path="url(#clip0_478_20639)">
<path d="M22.758 9.28607C21.0784 15.8838 15.8844 21.0777 9.28676 22.7573C6.7891 23.3932 4.66732 21.244 4.66732 18.6666V17.5C4.66732 16.8556 5.19095 16.3394 5.83214 16.2759C6.91544 16.1685 7.95516 15.9129 8.93075 15.5297L10.7033 17.3022C13.5861 15.9226 15.9233 13.5855 17.3029 10.7026L15.5304 8.93008C15.9136 7.95448 16.1692 6.91475 16.2766 5.83145C16.3401 5.19026 16.8563 4.66663 17.5006 4.66663H18.6673C21.2446 4.66663 23.3938 6.78841 22.758 9.28607Z" stroke="#292929" stroke-width="2" stroke-linecap="round" stroke-linejoin="round"/>
</g>
<defs>
<clipPath id="clip0_478_20639">
<rect width="28" height="28" fill="white"/>
</clipPath>
</defs>
</svg>
