<svg width="200" height="61" viewBox="0 0 200 61" fill="none" xmlns="http://www.w3.org/2000/svg">
<path d="M1.73134 48.25V17.5264H13.8528C16.173 17.5264 18.1532 17.9415 19.7934 18.7716C21.4436 19.5917 22.6988 20.7568 23.5589 22.267C24.429 23.7672 24.864 25.5324 24.864 27.5626C24.864 29.6028 24.424 31.358 23.5439 32.8282C22.6638 34.2884 21.3886 35.4085 19.7184 36.1886C18.0582 36.9687 16.048 37.3587 13.6877 37.3587H5.57179V32.1381H12.6376C13.8778 32.1381 14.9079 31.9681 15.728 31.6281C16.5481 31.288 17.1581 30.778 17.5582 30.0979C17.9682 29.4178 18.1733 28.5727 18.1733 27.5626C18.1733 26.5425 17.9682 25.6824 17.5582 24.9823C17.1581 24.2822 16.5431 23.7522 15.713 23.3921C14.8929 23.0221 13.8578 22.8371 12.6076 22.8371H8.2271V48.25H1.73134ZM18.3233 34.2684L25.9592 48.25H18.7883L11.3175 34.2684H18.3233ZM57.6878 32.8882C57.6878 36.2386 57.0528 39.0889 55.7826 41.4392C54.5225 43.7895 52.8023 45.5847 50.622 46.8248C48.4518 48.055 46.0115 48.67 43.3012 48.67C40.5708 48.67 38.1206 48.05 35.9503 46.8098C33.7801 45.5697 32.0649 43.7745 30.8047 41.4242C29.5446 39.0739 28.9145 36.2286 28.9145 32.8882C28.9145 29.5378 29.5446 26.6875 30.8047 24.3372C32.0649 21.987 33.7801 20.1967 35.9503 18.9666C38.1206 17.7265 40.5708 17.1064 43.3012 17.1064C46.0115 17.1064 48.4518 17.7265 50.622 18.9666C52.8023 20.1967 54.5225 21.987 55.7826 24.3372C57.0528 26.6875 57.6878 29.5378 57.6878 32.8882ZM51.1021 32.8882C51.1021 30.718 50.777 28.8878 50.127 27.3976C49.4869 25.9074 48.5818 24.7773 47.4116 24.0072C46.2415 23.2371 44.8713 22.8521 43.3012 22.8521C41.731 22.8521 40.3608 23.2371 39.1907 24.0072C38.0206 24.7773 37.1104 25.9074 36.4604 27.3976C35.8203 28.8878 35.5003 30.718 35.5003 32.8882C35.5003 35.0585 35.8203 36.8887 36.4604 38.3789C37.1104 39.869 38.0206 40.9992 39.1907 41.7692C40.3608 42.5393 41.731 42.9244 43.3012 42.9244C44.8713 42.9244 46.2415 42.5393 47.4116 41.7692C48.5818 40.9992 49.4869 39.869 50.127 38.3789C50.777 36.8887 51.1021 35.0585 51.1021 32.8882ZM79.1666 26.3625C79.0466 25.1523 78.5315 24.2122 77.6214 23.5421C76.7113 22.8721 75.4761 22.537 73.916 22.537C72.8558 22.537 71.9607 22.687 71.2306 22.9871C70.5006 23.2771 69.9405 23.6822 69.5505 24.2022C69.1704 24.7223 68.9804 25.3123 68.9804 25.9724C68.9604 26.5225 69.0754 27.0025 69.3254 27.4126C69.5855 27.8226 69.9405 28.1777 70.3906 28.4777C70.8406 28.7677 71.3607 29.0228 71.9507 29.2428C72.5408 29.4528 73.1709 29.6328 73.841 29.7829L76.6013 30.4429C77.9414 30.743 79.1716 31.143 80.2917 31.6431C81.4118 32.1431 82.3819 32.7582 83.202 33.4883C84.0221 34.2184 84.6572 35.0785 85.1073 36.0686C85.5673 37.0587 85.8023 38.1938 85.8123 39.474C85.8023 41.3542 85.3223 42.9844 84.3722 44.3645C83.4321 45.7347 82.0719 46.7998 80.2917 47.5599C78.5215 48.31 76.3862 48.6851 73.886 48.6851C71.4057 48.6851 69.2454 48.305 67.4052 47.5449C65.575 46.7848 64.1448 45.6597 63.1147 44.1695C62.0946 42.6694 61.5595 40.8141 61.5095 38.6039H67.7952C67.8653 39.634 68.1603 40.4941 68.6804 41.1842C69.2104 41.8643 69.9155 42.3793 70.7956 42.7294C71.6857 43.0694 72.6908 43.2394 73.8109 43.2394C74.9111 43.2394 75.8662 43.0794 76.6763 42.7594C77.4964 42.4393 78.1314 41.9943 78.5815 41.4242C79.0316 40.8541 79.2566 40.1991 79.2566 39.459C79.2566 38.7689 79.0516 38.1888 78.6415 37.7188C78.2415 37.2487 77.6514 36.8487 76.8713 36.5186C76.1012 36.1886 75.1561 35.8886 74.036 35.6185L70.6906 34.7784C68.1003 34.1484 66.055 33.1633 64.5549 31.8231C63.0547 30.4829 62.3096 28.6777 62.3196 26.4075C62.3096 24.5473 62.8047 22.9221 63.8048 21.5319C64.8149 20.1417 66.2001 19.0566 67.9603 18.2765C69.7205 17.4964 71.7207 17.1064 73.961 17.1064C76.2412 17.1064 78.2315 17.4964 79.9317 18.2765C81.6419 19.0566 82.972 20.1417 83.9221 21.5319C84.8722 22.9221 85.3623 24.5323 85.3923 26.3625H79.1666ZM89.0115 22.8821V17.5264H114.244V22.8821H104.838V48.25H98.4175V22.8821H89.0115Z" fill="#111111"/>
<path d="M199.939 30.4999L138.156 56.5469V4.45283L199.939 30.4999Z" fill="#111111"/>
<path d="M168.255 30.5001L133.403 45.0864V15.9137L168.255 30.5001Z" fill="#F8E643"/>
</svg>
