<svg width="203" height="75" viewBox="0 0 203 75" fill="none" xmlns="http://www.w3.org/2000/svg">
<path d="M2.59242 48.5V17.4661H14.8363C17.18 17.4661 19.1802 17.8853 20.837 18.7238C22.5038 19.5522 23.7716 20.7291 24.6404 22.2545C25.5193 23.7699 25.9588 25.5529 25.9588 27.6036C25.9588 29.6645 25.5143 31.4374 24.6253 32.9224C23.7363 34.3974 22.4483 35.5288 20.7612 36.3168C19.0842 37.1047 17.0537 37.4987 14.6696 37.4987H6.47166V32.2254H13.6089C14.8615 32.2254 15.902 32.0537 16.7304 31.7102C17.5588 31.3667 18.175 30.8515 18.5791 30.1645C18.9933 29.4776 19.2004 28.624 19.2004 27.6036C19.2004 26.5732 18.9933 25.7044 18.5791 24.9973C18.175 24.2901 17.5538 23.7547 16.7153 23.391C15.8869 23.0173 14.8413 22.8304 13.5785 22.8304H9.15379V48.5H2.59242ZM19.3519 34.3772L27.065 48.5H19.8217L12.2754 34.3772H19.3519ZM59.1141 32.9831C59.1141 36.3673 58.4726 39.2464 57.1897 41.6204C55.9168 43.9944 54.1792 45.8078 51.9769 47.0604C49.7848 48.303 47.3198 48.9243 44.5821 48.9243C41.8242 48.9243 39.3492 48.298 37.157 47.0453C34.9649 45.7926 33.2323 43.9793 31.9595 41.6053C30.6866 39.2312 30.0501 36.3572 30.0501 32.9831C30.0501 29.5988 30.6866 26.7197 31.9595 24.3457C33.2323 21.9717 34.9649 20.1634 37.157 18.9208C39.3492 17.6681 41.8242 17.0418 44.5821 17.0418C47.3198 17.0418 49.7848 17.6681 51.9769 18.9208C54.1792 20.1634 55.9168 21.9717 57.1897 24.3457C58.4726 26.7197 59.1141 29.5988 59.1141 32.9831ZM52.4618 32.9831C52.4618 30.7909 52.1335 28.9422 51.4769 27.437C50.8303 25.9317 49.9161 24.7902 48.7341 24.0123C47.5522 23.2344 46.1682 22.8455 44.5821 22.8455C42.9961 22.8455 41.6121 23.2344 40.4301 24.0123C39.2482 24.7902 38.3289 25.9317 37.6722 27.437C37.0257 28.9422 36.7024 30.7909 36.7024 32.9831C36.7024 35.1752 37.0257 37.0239 37.6722 38.5291C38.3289 40.0344 39.2482 41.1759 40.4301 41.9538C41.6121 42.7317 42.9961 43.1206 44.5821 43.1206C46.1682 43.1206 47.5522 42.7317 48.7341 41.9538C49.9161 41.1759 50.8303 40.0344 51.4769 38.5291C52.1335 37.0239 52.4618 35.1752 52.4618 32.9831ZM80.8098 26.3914C80.6886 25.169 80.1683 24.2194 79.249 23.5426C78.3297 22.8657 77.0821 22.5273 75.5062 22.5273C74.4353 22.5273 73.5312 22.6788 72.7937 22.9819C72.0563 23.2749 71.4906 23.684 71.0966 24.2093C70.7127 24.7346 70.5207 25.3307 70.5207 25.9974C70.5005 26.553 70.6167 27.0379 70.8693 27.4521C71.1319 27.8663 71.4906 28.2249 71.9452 28.528C72.3997 28.821 72.9251 29.0786 73.5211 29.3008C74.1171 29.513 74.7536 29.6948 75.4304 29.8463L78.2186 30.5131C79.5723 30.8161 80.8149 31.2202 81.9463 31.7253C83.0778 32.2304 84.0577 32.8517 84.886 33.5892C85.7144 34.3266 86.3559 35.1954 86.8105 36.1955C87.2752 37.1957 87.5126 38.3423 87.5227 39.6353C87.5126 41.5345 87.0277 43.1812 86.068 44.5753C85.1184 45.9593 83.7445 47.0352 81.9463 47.8029C80.1582 48.5606 78.0014 48.9394 75.4759 48.9394C72.9705 48.9394 70.7885 48.5556 68.9296 47.7878C67.081 47.02 65.6363 45.8835 64.5958 44.3783C63.5654 42.863 63.0249 40.989 62.9744 38.7564H69.3236C69.3944 39.797 69.6924 40.6658 70.2177 41.3628C70.7531 42.0498 71.4653 42.57 72.3543 42.9236C73.2534 43.2671 74.2687 43.4388 75.4001 43.4388C76.5113 43.4388 77.4761 43.2772 78.2944 42.9539C79.1227 42.6306 79.7642 42.1811 80.2188 41.6053C80.6734 41.0294 80.9007 40.3677 80.9007 39.6202C80.9007 38.9231 80.6936 38.3372 80.2794 37.8624C79.8754 37.3876 79.2793 36.9835 78.4914 36.6501C77.7135 36.3168 76.7588 36.0137 75.6274 35.7409L72.2482 34.8924C69.6318 34.2559 67.5659 33.2609 66.0505 31.9072C64.5352 30.5535 63.7826 28.73 63.7927 26.4368C63.7826 24.5578 64.2826 22.9162 65.2929 21.512C66.3132 20.1078 67.7123 19.0117 69.4903 18.2238C71.2683 17.4358 73.2887 17.0418 75.5516 17.0418C77.8549 17.0418 79.8653 17.4358 81.5826 18.2238C83.3101 19.0117 84.6537 20.1078 85.6134 21.512C86.5731 22.9162 87.0681 24.5427 87.0984 26.3914H80.8098ZM90.7541 22.8758V17.4661H116.242V22.8758H106.741V48.5H100.255V22.8758H90.7541ZM0.667869 57.1136V55.8636H9.39514V57.1136H5.73605V67.5H4.32696V57.1136H0.667869ZM11.5699 67.5V55.8636H18.5926V57.1136H12.9789V61.0455H18.2289V62.2955H12.9789V66.25H18.6835V67.5H11.5699ZM30.496 59.5H29.0869C29.0036 59.0947 28.8577 58.7386 28.6494 58.4318C28.4449 58.125 28.1949 57.8674 27.8994 57.6591C27.6077 57.447 27.2839 57.2879 26.9278 57.1818C26.5718 57.0758 26.2005 57.0227 25.8142 57.0227C25.1096 57.0227 24.4714 57.2008 23.8994 57.5568C23.3312 57.9129 22.8786 58.4375 22.5414 59.1307C22.2081 59.8239 22.0414 60.6742 22.0414 61.6818C22.0414 62.6894 22.2081 63.5398 22.5414 64.233C22.8786 64.9261 23.3312 65.4508 23.8994 65.8068C24.4714 66.1629 25.1096 66.3409 25.8142 66.3409C26.2005 66.3409 26.5718 66.2879 26.9278 66.1818C27.2839 66.0758 27.6077 65.9186 27.8994 65.7102C28.1949 65.4981 28.4449 65.2386 28.6494 64.9318C28.8577 64.6212 29.0036 64.2652 29.0869 63.8636H30.496C30.3899 64.4583 30.1968 64.9905 29.9164 65.4602C29.6361 65.9299 29.2877 66.3295 28.871 66.6591C28.4543 66.9848 27.9865 67.233 27.4676 67.4034C26.9524 67.5739 26.4013 67.6591 25.8142 67.6591C24.8218 67.6591 23.9392 67.4167 23.1664 66.9318C22.3937 66.447 21.7858 65.7576 21.3426 64.8636C20.8994 63.9697 20.6778 62.9091 20.6778 61.6818C20.6778 60.4545 20.8994 59.3939 21.3426 58.5C21.7858 57.6061 22.3937 56.9167 23.1664 56.4318C23.9392 55.947 24.8218 55.7045 25.8142 55.7045C26.4013 55.7045 26.9524 55.7898 27.4676 55.9602C27.9865 56.1307 28.4543 56.3807 28.871 56.7102C29.2877 57.036 29.6361 57.4337 29.9164 57.9034C30.1968 58.3693 30.3899 58.9015 30.496 59.5ZM32.773 67.5V55.8636H34.1821V61.0455H40.3866V55.8636H41.7957V67.5H40.3866V62.2955H34.1821V67.5H32.773ZM53.844 55.8636V67.5H52.4804L46.1395 58.3636H46.0258V67.5H44.6167V55.8636H45.9804L52.344 65.0227H52.4576V55.8636H53.844ZM66.4818 61.6818C66.4818 62.9091 66.2602 63.9697 65.817 64.8636C65.3738 65.7576 64.7659 66.447 63.9932 66.9318C63.2204 67.4167 62.3379 67.6591 61.3454 67.6591C60.353 67.6591 59.4704 67.4167 58.6977 66.9318C57.925 66.447 57.317 65.7576 56.8738 64.8636C56.4307 63.9697 56.2091 62.9091 56.2091 61.6818C56.2091 60.4545 56.4307 59.3939 56.8738 58.5C57.317 57.6061 57.925 56.9167 58.6977 56.4318C59.4704 55.947 60.353 55.7045 61.3454 55.7045C62.3379 55.7045 63.2204 55.947 63.9932 56.4318C64.7659 56.9167 65.3738 57.6061 65.817 58.5C66.2602 59.3939 66.4818 60.4545 66.4818 61.6818ZM65.1182 61.6818C65.1182 60.6742 64.9496 59.8239 64.6125 59.1307C64.2791 58.4375 63.8265 57.9129 63.2545 57.5568C62.6863 57.2008 62.05 57.0227 61.3454 57.0227C60.6409 57.0227 60.0026 57.2008 59.4307 57.5568C58.8625 57.9129 58.4098 58.4375 58.0727 59.1307C57.7394 59.8239 57.5727 60.6742 57.5727 61.6818C57.5727 62.6894 57.7394 63.5398 58.0727 64.233C58.4098 64.9261 58.8625 65.4508 59.4307 65.8068C60.0026 66.1629 60.6409 66.3409 61.3454 66.3409C62.05 66.3409 62.6863 66.1629 63.2545 65.8068C63.8265 65.4508 64.2791 64.9261 64.6125 64.233C64.9496 63.5398 65.1182 62.6894 65.1182 61.6818ZM68.8511 67.5V55.8636H70.2602V66.25H75.6693V67.5H68.8511ZM87.2162 61.6818C87.2162 62.9091 86.9946 63.9697 86.5514 64.8636C86.1082 65.7576 85.5003 66.447 84.7275 66.9318C83.9548 67.4167 83.0722 67.6591 82.0798 67.6591C81.0874 67.6591 80.2048 67.4167 79.4321 66.9318C78.6593 66.447 78.0514 65.7576 77.6082 64.8636C77.165 63.9697 76.9434 62.9091 76.9434 61.6818C76.9434 60.4545 77.165 59.3939 77.6082 58.5C78.0514 57.6061 78.6593 56.9167 79.4321 56.4318C80.2048 55.947 81.0874 55.7045 82.0798 55.7045C83.0722 55.7045 83.9548 55.947 84.7275 56.4318C85.5003 56.9167 86.1082 57.6061 86.5514 58.5C86.9946 59.3939 87.2162 60.4545 87.2162 61.6818ZM85.8525 61.6818C85.8525 60.6742 85.684 59.8239 85.3468 59.1307C85.0135 58.4375 84.5609 57.9129 83.9889 57.5568C83.4207 57.2008 82.7843 57.0227 82.0798 57.0227C81.3753 57.0227 80.737 57.2008 80.165 57.5568C79.5968 57.9129 79.1442 58.4375 78.8071 59.1307C78.4737 59.8239 78.3071 60.6742 78.3071 61.6818C78.3071 62.6894 78.4737 63.5398 78.8071 64.233C79.1442 64.9261 79.5968 65.4508 80.165 65.8068C80.737 66.1629 81.3753 66.3409 82.0798 66.3409C82.7843 66.3409 83.4207 66.1629 83.9889 65.8068C84.5609 65.4508 85.0135 64.9261 85.3468 64.233C85.684 63.5398 85.8525 62.6894 85.8525 61.6818ZM97.54 59.5C97.415 59.1174 97.2503 58.7746 97.0457 58.4716C96.845 58.1648 96.6044 57.9034 96.3241 57.6875C96.0476 57.4716 95.7332 57.3068 95.3809 57.1932C95.0287 57.0795 94.6423 57.0227 94.2218 57.0227C93.5325 57.0227 92.9056 57.2008 92.3412 57.5568C91.7768 57.9129 91.3279 58.4375 90.9946 59.1307C90.6612 59.8239 90.4946 60.6742 90.4946 61.6818C90.4946 62.6894 90.6631 63.5398 91.0003 64.233C91.3374 64.9261 91.7938 65.4508 92.3696 65.8068C92.9453 66.1629 93.5931 66.3409 94.3128 66.3409C94.9794 66.3409 95.5665 66.1989 96.0741 65.9148C96.5855 65.6269 96.9832 65.2216 97.2673 64.6989C97.5552 64.1723 97.6991 63.553 97.6991 62.8409L98.1309 62.9318H94.6309V61.6818H99.0628V62.9318C99.0628 63.8902 98.8582 64.7235 98.4491 65.4318C98.0438 66.1402 97.4832 66.6894 96.7673 67.0795C96.0552 67.4659 95.237 67.6591 94.3128 67.6591C93.2825 67.6591 92.3771 67.4167 91.5968 66.9318C90.8203 66.447 90.2143 65.7576 89.7787 64.8636C89.3468 63.9697 89.1309 62.9091 89.1309 61.6818C89.1309 60.7614 89.254 59.9337 89.5003 59.1989C89.7503 58.4602 90.1025 57.8314 90.5571 57.3125C91.0116 56.7936 91.5495 56.3958 92.1707 56.1193C92.7919 55.8428 93.4756 55.7045 94.2218 55.7045C94.8355 55.7045 95.4075 55.7973 95.9378 55.983C96.4718 56.1648 96.9472 56.4242 97.3639 56.7614C97.7843 57.0947 98.1347 57.4943 98.415 57.9602C98.6953 58.4223 98.8885 58.9356 98.9946 59.5H97.54ZM100.117 55.8636H101.73L104.958 61.2955H105.094L108.321 55.8636H109.935L105.73 62.7045V67.5H104.321V62.7045L100.117 55.8636Z" fill="#FDFDFD"/>
<path d="M202.105 37.5L139.698 69.9241V5.07585L202.105 37.5Z" fill="#FDFDFD"/>
<path d="M170.1 37.4997L134.896 55.6572V19.3422L170.1 37.4997Z" fill="#F8E643"/>
</svg>
