<svg width="1243" height="44" viewBox="0 0 1243 44" fill="none" xmlns="http://www.w3.org/2000/svg">
<circle cx="3" cy="3" r="3" fill="#111111"/>
<circle cx="18" cy="3" r="3" fill="#111111"/>
<circle cx="33" cy="3" r="3" fill="#111111"/>
<circle cx="48" cy="3" r="3" fill="#111111"/>
<circle cx="63" cy="3" r="3" fill="#111111"/>
<circle cx="78" cy="3" r="3" fill="#111111"/>
<circle cx="93" cy="3" r="3" fill="#111111"/>
<circle cx="108" cy="3" r="3" fill="#111111"/>
<circle cx="3" cy="22" r="3" fill="#111111"/>
<circle cx="18" cy="22" r="3" fill="#111111"/>
<circle cx="33" cy="22" r="3" fill="#111111"/>
<circle cx="48" cy="22" r="3" fill="#111111"/>
<circle cx="63" cy="22" r="3" fill="#111111"/>
<circle cx="78" cy="22" r="3" fill="#111111"/>
<circle cx="93" cy="22" r="3" fill="#111111"/>
<circle cx="108" cy="22" r="3" fill="#111111"/>
<circle cx="3" cy="41" r="3" fill="#111111"/>
<circle cx="18" cy="41" r="3" fill="#111111"/>
<circle cx="33" cy="41" r="3" fill="#111111"/>
<circle cx="48" cy="41" r="3" fill="#111111"/>
<circle cx="63" cy="41" r="3" fill="#111111"/>
<circle cx="78" cy="41" r="3" fill="#111111"/>
<circle cx="93" cy="41" r="3" fill="#111111"/>
<circle cx="108" cy="41" r="3" fill="#111111"/>
<circle cx="1135" cy="3" r="3" fill="#111111"/>
<circle cx="1150" cy="3" r="3" fill="#111111"/>
<circle cx="1165" cy="3" r="3" fill="#111111"/>
<circle cx="1180" cy="3" r="3" fill="#111111"/>
<circle cx="1195" cy="3" r="3" fill="#111111"/>
<circle cx="1210" cy="3" r="3" fill="#111111"/>
<circle cx="1225" cy="3" r="3" fill="#111111"/>
<circle cx="1240" cy="3" r="3" fill="#111111"/>
<circle cx="1135" cy="22" r="3" fill="#111111"/>
<circle cx="1150" cy="22" r="3" fill="#111111"/>
<circle cx="1165" cy="22" r="3" fill="#111111"/>
<circle cx="1180" cy="22" r="3" fill="#111111"/>
<circle cx="1195" cy="22" r="3" fill="#111111"/>
<circle cx="1210" cy="22" r="3" fill="#111111"/>
<circle cx="1225" cy="22" r="3" fill="#111111"/>
<circle cx="1240" cy="22" r="3" fill="#111111"/>
<circle cx="1135" cy="41" r="3" fill="#111111"/>
<circle cx="1150" cy="41" r="3" fill="#111111"/>
<circle cx="1165" cy="41" r="3" fill="#111111"/>
<circle cx="1180" cy="41" r="3" fill="#111111"/>
<circle cx="1195" cy="41" r="3" fill="#111111"/>
<circle cx="1210" cy="41" r="3" fill="#111111"/>
<circle cx="1225" cy="41" r="3" fill="#111111"/>
<circle cx="1240" cy="41" r="3" fill="#111111"/>
</svg>
