<svg width="120" height="80" viewBox="0 0 120 80" fill="none" xmlns="http://www.w3.org/2000/svg">
<path d="M56.1653 65.3771H1.61045C0.720466 65.3759 0 64.7852 0 64.057V1.30847C0.00762847 0.58488 0.726117 0.00115589 1.61045 0H56.1653C57.0561 0 57.7786 0.590891 57.7786 1.32003V64.057C57.7786 64.7862 57.0561 65.3771 56.1653 65.3771ZM1.61045 0.0462357C0.759456 0.0476228 0.0706339 0.612158 0.0706339 1.30847V64.057C0.0706339 64.7533 0.759456 65.3179 1.61045 65.3193H56.1653C57.0166 65.3181 57.7062 64.7536 57.7079 64.057V1.30847C57.7062 0.611927 57.0166 0.0473916 56.1653 0.0462357H1.61045Z" fill="#E6E6E6"/>
<path d="M117.281 65.3771H62.7229C61.8326 65.3759 61.111 64.7855 61.1096 64.057V1.30847C61.1189 0.584417 61.838 0.00115589 62.7229 0H117.281C118.164 0.00254295 118.881 0.585804 118.888 1.30847V64.057C118.888 64.7843 118.169 65.3745 117.281 65.3771ZM62.7229 0.0462357C61.8716 0.0476228 61.1817 0.611927 61.1802 1.30847V64.057C61.1817 64.7536 61.8716 65.3179 62.7229 65.3193H117.281C118.132 65.3181 118.822 64.7536 118.823 64.057V1.30847C118.822 0.611927 118.132 0.0473916 117.281 0.0462357H62.7229Z" fill="#E6E6E6"/>
<path d="M15.6511 77.0933H4.00781V77.1511H15.6511V77.0933Z" fill="white"/>
<path d="M39.3841 76.6309H27.7069V76.6887H39.3841V76.6309Z" fill="white"/>
<path d="M54.5789 76.6309H51.7535V76.6887H54.5789V76.6309Z" fill="white"/>
<path d="M26.3395 78.605H13.2722V78.6628H26.3395V78.605Z" fill="white"/>
<path d="M71.5367 77.063H65.434V77.1208H71.5367V77.063Z" fill="white"/>
<path d="M81.9425 77.063H74.0513V77.1208H81.9425V77.063Z" fill="white"/>
<path d="M120 78.041H102.359V78.0988H120V78.041Z" fill="white"/>
<path d="M105.339 12.8291H91.8877V20.5204H105.339V12.8291Z" fill="#E6E6E6"/>
<path d="M97.9537 12.8291H91.8877V20.5204H97.9537V12.8291Z" fill="#F0F0F0"/>
<path opacity="0.4" d="M94.9159 13.8716C96.0223 13.8716 96.9191 14.6053 96.9191 15.5106C96.9191 16.4159 96.0223 17.1497 94.9159 17.1497C93.8095 17.1497 92.9127 16.4159 92.9127 15.5106C92.9127 14.6053 93.8095 13.8716 94.9159 13.8716Z" fill="white"/>
<path d="M95.8935 18.7081C95.8935 19.1499 95.4559 19.508 94.9159 19.508C94.376 19.508 93.9384 19.1499 93.9384 18.7081C93.9384 18.2663 94.376 17.9082 94.9159 17.9082C95.4559 17.9082 95.8935 18.2665 95.8935 18.7081Z" fill="white"/>
<path d="M94.9015 16.0883C95.2163 16.0883 95.4714 15.8796 95.4714 15.622C95.4714 15.3645 95.2163 15.1558 94.9015 15.1558C94.5868 15.1558 94.3317 15.3645 94.3317 15.622C94.3317 15.8796 94.5868 16.0883 94.9015 16.0883Z" fill="#FAFAFA"/>
<path d="M76.6212 10.0752H70.8043V20.5235H76.6212V10.0752Z" fill="#F0F0F0"/>
<path d="M84.1807 10.0752H76.4626V20.5235H84.1807V10.0752Z" fill="#E6E6E6"/>
<path d="M73.6915 13.3931C74.1365 13.3931 74.4973 13.6883 74.4973 14.0524C74.4973 14.4165 74.1365 14.7115 73.6915 14.7115C73.2465 14.7115 72.8857 14.4163 72.8857 14.0524C72.886 13.6883 73.2468 13.3931 73.6915 13.3931Z" fill="white"/>
<path d="M73.6916 12.3638C73.9139 12.3638 74.0945 12.5113 74.0945 12.6934C74.0945 12.8756 73.9142 13.0231 73.6916 13.0231C73.4692 13.0231 73.2887 12.8756 73.2887 12.6934C73.2887 12.5113 73.4692 12.3638 73.6916 12.3638Z" fill="white"/>
<path d="M73.6916 11.3647C73.9139 11.3647 74.0945 11.5122 74.0945 11.6944C74.0945 11.8766 73.9142 12.0241 73.6916 12.0241C73.4692 12.0241 73.2887 11.8766 73.2887 11.6944C73.2887 11.5122 73.4692 11.3647 73.6916 11.3647Z" fill="white"/>
<path d="M84.0454 15.9355H70.9346V16.1004H84.0454V15.9355Z" fill="white"/>
<path d="M84.0454 16.8628H70.9346V17.0276H84.0454V16.8628Z" fill="white"/>
<path d="M84.0454 17.7896H70.9346V17.9544H84.0454V17.7896Z" fill="white"/>
<path d="M84.0454 18.7168H70.9346V18.8816H84.0454V18.7168Z" fill="white"/>
<path d="M84.0454 19.6436H70.9346V19.8084H84.0454V19.6436Z" fill="white"/>
<path d="M73.83 16.2173H73.2762V16.6704H73.83V16.2173Z" fill="white"/>
<path d="M73.83 17.1924H73.2762V17.6455H73.83V17.1924Z" fill="white"/>
<path d="M73.83 18.0713H73.2762V18.5244H73.83V18.0713Z" fill="white"/>
<path d="M73.83 19.0186H73.2762V19.4717H73.83V19.0186Z" fill="white"/>
<path d="M73.83 19.9395H73.2762V20.3926H73.83V19.9395Z" fill="white"/>
<path d="M59.6896 30.8126H59.4071V21.9575C59.4071 20.9637 60.3951 20.1553 61.6098 20.1553H70.9346V20.3865H61.6098C60.5511 20.3865 59.6896 21.0913 59.6896 21.9575V30.8126Z" fill="white"/>
<path d="M59.1246 30.8262H58.842V21.893C58.842 20.6872 60.0408 19.7061 61.5145 19.7061H70.9346V19.9372H61.5145C60.1968 19.9372 59.1246 20.8146 59.1246 21.893V30.8262Z" fill="white"/>
<path d="M28.1875 8.6167H19.3413V16.3219H28.1875V8.6167Z" fill="#E6E6E6"/>
<path d="M30.4534 8.6167H28.1875V16.3219H30.4534V8.6167Z" fill="#F5F5F5"/>
<path d="M23.6668 7.42822H17.0216V16.3216H23.6668V7.42822Z" fill="#E6E6E6"/>
<path d="M25.5853 7.42822H23.6641V16.3216H25.5853V7.42822Z" fill="#F5F5F5"/>
<path d="M21.7089 8.6167H16.1062V16.3219H21.7089V8.6167Z" fill="#EBEBEB"/>
<path d="M22.9889 8.6167H21.709V16.3219H22.9889V8.6167Z" fill="#F5F5F5"/>
<path d="M17.1234 9.92041H9.77466V16.3217H17.1234V9.92041Z" fill="#E6E6E6"/>
<path d="M19.0051 9.92041H17.1234V16.3217H19.0051V9.92041Z" fill="#F5F5F5"/>
<path d="M13.3685 8.93311H7.84778V16.3215H13.3685V8.93311Z" fill="#E6E6E6"/>
<path d="M14.9619 8.93311H13.3656V16.3215H14.9619V8.93311Z" fill="#F5F5F5"/>
<path d="M11.7411 9.92041H6.37854V16.3217H11.7411V9.92041Z" fill="#E6E6E6"/>
<path d="M12.8062 9.92041H11.7439V16.3217H12.8062V9.92041Z" fill="#F0F0F0"/>
<path d="M0.111111 18.5474L57.7484 18.5474V16.3174L0.111111 16.3174V18.5474Z" fill="#E6E6E6"/>
<path d="M10.4541 18.6001H13.6425L11.3201 21.4695H10.4541V18.6001Z" fill="white"/>
<path d="M10.4539 18.6001H9.99475V21.4695H10.4539V18.6001Z" fill="white"/>
<path d="M46.2537 18.6001H49.4424L47.1196 21.4695H46.2537V18.6001Z" fill="white"/>
<path d="M46.2537 18.6001H45.7943V21.4695H46.2537V18.6001Z" fill="white"/>
<path d="M118.843 20.5234H61.2054V22.7534H118.843V20.5234Z" fill="#E6E6E6"/>
<path d="M108.5 25.6755H107.634L105.311 22.8062H108.5V25.6755Z" fill="white"/>
<path d="M108.959 22.8062H108.5V25.6755H108.959V22.8062Z" fill="white"/>
<path d="M72.7001 25.6755H71.8342L69.5117 22.8062H72.7001V25.6755Z" fill="white"/>
<path d="M73.1596 22.8062H72.7002V25.6755H73.1596V22.8062Z" fill="white"/>
<path d="M44.5969 11.8268C44.5969 11.487 44.5359 11.1582 44.4203 10.8494L45.4685 10.0951L44.8085 9.15972L43.4857 9.52567C42.9384 9.0476 42.223 8.7006 41.4167 8.54733L41.142 7.42773H39.8223L39.5485 8.54733C38.7422 8.7006 38.026 9.0476 37.4787 9.52567L36.1559 9.15972L35.4958 10.0951L36.5438 10.8494C36.4293 11.1582 36.3672 11.487 36.3672 11.8268C36.3672 12.1676 36.4293 12.4954 36.5438 12.8052L35.4958 13.5588L36.1559 14.4941L37.4787 14.1282C38.026 14.6063 38.7422 14.9533 39.5485 15.1072L39.8223 16.2268H41.142L41.4167 15.1072C42.223 14.9533 42.9384 14.6063 43.4857 14.1282L44.8085 14.4941L45.4685 13.5588L44.4203 12.8052C44.5359 12.4954 44.5969 12.1676 44.5969 11.8268ZM40.4823 13.6443C39.3013 13.6443 38.3444 12.8606 38.3444 11.8943C38.3444 10.928 39.3013 10.1443 40.4823 10.1443C41.6633 10.1443 42.6211 10.928 42.6211 11.8943C42.6211 12.8606 41.6633 13.6443 40.4823 13.6443Z" fill="#F0F0F0"/>
<path d="M51.7345 12.3927C51.5919 12.2017 51.4192 12.0343 51.2246 11.8936L51.4961 11.175L50.7327 10.8354L50.1436 11.4129C49.6353 11.2985 49.088 11.3047 48.5707 11.4455L47.946 10.8942L47.2049 11.2654L47.5217 11.971C47.1332 12.284 46.8769 12.6802 46.7704 13.1026L45.8739 13.2691L45.8962 13.9799L46.8017 14.1087C46.8673 14.3144 46.9704 14.5165 47.1134 14.7072C47.2566 14.8984 47.4293 15.0653 47.6236 15.2068L47.3518 15.9248L48.1153 16.2644L48.7043 15.6867C49.2126 15.8011 49.7605 15.7947 50.2781 15.6543L50.9022 16.2059L51.6433 15.8347L51.3271 15.1287C51.7153 14.8154 51.971 14.4194 52.0775 13.9968L52.974 13.8304L52.9514 13.1195L52.0462 12.9912C51.9812 12.7852 51.8778 12.5838 51.7345 12.3927ZM50.1877 14.5706C49.5245 14.9028 48.658 14.732 48.252 14.1891C47.846 13.6466 48.0539 12.9373 48.7171 12.6051C49.3802 12.2729 50.2473 12.4435 50.6533 12.9861C51.0596 13.5289 50.8508 14.2384 50.1877 14.5706Z" fill="#F0F0F0"/>
<path d="M117.131 49.562H1.96448V50.7477H117.131V49.562Z" fill="#F8E643"/>
<path d="M8.82446 50.4126V78.6949H9.72293L10.8531 50.4126H8.82446Z" fill="#F8E643"/>
<path d="M19.4308 51.3374V77.5391H20.3292L21.4594 51.3374H19.4308Z" fill="#F8E643"/>
<path opacity="0.5" d="M19.4308 51.3374V77.5391H20.3292L21.4594 51.3374H19.4308Z" fill="black"/>
<path d="M110.68 50.4126V78.6949H109.785L108.652 50.4126H110.68Z" fill="#F8E643"/>
<path d="M100.077 51.3374V77.5391H99.1782L98.0481 51.3374H100.077Z" fill="#F8E643"/>
<path opacity="0.5" d="M100.077 51.3374V77.5391H99.1782L98.0481 51.3374H100.077Z" fill="black"/>
<path d="M112.729 52.017H6.7054L4.36035 50.748H115.074L112.729 52.017Z" fill="#F8E643"/>
<path opacity="0.5" d="M112.729 52.017H6.7054L4.36035 50.748H115.074L112.729 52.017Z" fill="black"/>
<path d="M9.5343 45.9266V46.8413C9.5343 46.9955 9.60776 47.1403 9.74055 47.2496L10.6373 47.9831C10.7193 48.0504 10.8193 48.0964 10.9275 48.1237C11.2934 48.7671 12.0881 49.2141 13.0126 49.2141H13.3483C14.6191 49.2141 15.6492 48.3713 15.6492 47.3317V45.1743H10.7116V45.3493H10.2398C9.85074 45.3491 9.5343 45.6082 9.5343 45.9266ZM10.0994 45.9266C10.0994 45.8632 10.1624 45.8114 10.2398 45.8114H10.7116V47.3314C10.7116 47.3522 10.7145 47.3724 10.7153 47.3929L10.1403 46.9225C10.1143 46.901 10.0994 46.8714 10.0994 46.8411V45.9266Z" fill="#F8E643"/>
<path opacity="0.5" d="M9.5343 45.9266V46.8413C9.5343 46.9955 9.60776 47.1403 9.74055 47.2496L10.6373 47.9831C10.7193 48.0504 10.8193 48.0964 10.9275 48.1237C11.2934 48.7671 12.0881 49.2141 13.0126 49.2141H13.3483C14.6191 49.2141 15.6492 48.3713 15.6492 47.3317V45.1743H10.7116V45.3493H10.2398C9.85074 45.3491 9.5343 45.6082 9.5343 45.9266ZM10.0994 45.9266C10.0994 45.8632 10.1624 45.8114 10.2398 45.8114H10.7116V47.3314C10.7116 47.3522 10.7145 47.3724 10.7153 47.3929L10.1403 46.9225C10.1143 46.901 10.0994 46.8714 10.0994 46.8411V45.9266Z" fill="white"/>
<path d="M16.8212 49.5228H9.71851C9.25656 49.5228 8.8822 49.1807 8.8822 49.1807H17.6575C17.6575 49.1807 17.2831 49.5228 16.8212 49.5228Z" fill="#F8E643"/>
<path opacity="0.5" d="M16.8212 49.5228H9.71851C9.25656 49.5228 8.8822 49.1807 8.8822 49.1807H17.6575C17.6575 49.1807 17.2831 49.5228 16.8212 49.5228Z" fill="white"/>
<path d="M112.381 46.7047C112.344 45.7872 111.491 45.5622 110.376 45.4587V45.1235C110.374 45.043 110.293 44.979 110.194 44.9806C110.193 44.9806 110.192 44.9806 110.191 44.9806H106.344C106.243 44.9774 106.159 45.0412 106.155 45.1232V49.4953H110.376V49.0172C111.493 48.9148 112.347 47.6239 112.381 46.7047ZM110.376 48.4519V46.0241C111.195 46.1228 111.761 46.2146 111.641 46.885C111.544 47.4207 111.03 48.3729 110.376 48.4519Z" fill="#F8E643"/>
<g opacity="0.5">
<path d="M112.381 46.7047C112.344 45.7872 111.491 45.5622 110.376 45.4587V45.1235C110.374 45.043 110.293 44.979 110.194 44.9806C110.193 44.9806 110.192 44.9806 110.191 44.9806H106.344C106.243 44.9774 106.159 45.0412 106.155 45.1232V49.4953H110.376V49.0172C111.493 48.9148 112.347 47.6239 112.381 46.7047ZM110.376 48.4519V46.0241C111.195 46.1228 111.761 46.2146 111.641 46.885C111.544 47.4207 111.03 48.3729 110.376 48.4519Z" fill="white"/>
</g>
<path d="M61.1097 43.9243H57.7786V49.4615H61.1097V43.9243Z" fill="#F8E643"/>
<path opacity="0.5" d="M61.1097 43.9243H57.7786V49.4615H61.1097V43.9243Z" fill="white"/>
<path d="M62.6136 49.5609H56.3026L57.8419 48.4521H61.0744L62.6136 49.5609Z" fill="#F8E643"/>
<path opacity="0.5" d="M62.6136 49.5609H56.3026L57.8419 48.4521H61.0744L62.6136 49.5609Z" fill="white"/>
<path d="M76.4892 47.7676H60.7124L63.5632 49.5671H79.3372L76.4892 47.7676Z" fill="#F8E643"/>
<path opacity="0.4" d="M76.4892 47.7676H60.7124L63.5632 49.5671H79.3372L76.4892 47.7676Z" fill="white"/>
<path d="M61.0769 49.5671L60.7124 47.7676L63.5632 49.5671H61.0769Z" fill="#F8E643"/>
<path opacity="0.5" d="M61.0769 49.5671L60.7124 47.7676L63.5632 49.5671H61.0769Z" fill="black"/>
<path d="M45.0054 30.8193H73.7209C74.0218 30.8193 74.2657 31.0188 74.2657 31.265V45.6732C74.2657 45.9194 74.0218 46.1189 73.7209 46.1189H45.0054C44.7045 46.1189 44.4607 45.9194 44.4607 45.6732V31.265C44.4607 31.0188 44.7045 30.8193 45.0054 30.8193Z" fill="#F8E643"/>
<path opacity="0.5" d="M73.153 31.7754H45.5433V45.1083H73.153V31.7754Z" fill="black"/>
<path opacity="0.4" d="M72.2757 34.5176H58.3436V42.3656H72.2757V34.5176Z" fill="black"/>
<path d="M72.2757 34.5176H58.3436V35.2365H72.2757V34.5176Z" fill="#F8E643"/>
<path d="M60.8963 38.8576L63.1741 39.8905C63.2883 39.943 63.3646 39.9899 63.4022 40.0308C63.4397 40.072 63.4587 40.1245 63.4587 40.188C63.4587 40.2685 63.4231 40.3383 63.3524 40.3972C63.2815 40.4562 63.199 40.4856 63.1055 40.4856C63.0436 40.4856 62.9512 40.4576 62.8278 40.4014L59.8894 39.0643C59.6913 38.9741 59.6913 38.7411 59.8894 38.6509L62.8278 37.3138C62.9512 37.2595 63.0425 37.2324 63.1021 37.2324C63.1982 37.2324 63.2815 37.2616 63.3527 37.3196C63.4236 37.3776 63.4589 37.4467 63.4589 37.5272C63.4589 37.5907 63.44 37.6432 63.4024 37.6844C63.3646 37.7255 63.2886 37.7722 63.1744 37.8247L60.8963 38.8576Z" fill="white"/>
<path d="M66.7569 36.9323L64.5032 40.9067C64.4458 41.0059 64.3944 41.0704 64.3486 41.1004C64.289 41.1397 64.2172 41.1594 64.1325 41.1594C64.0364 41.1594 63.9536 41.1314 63.8838 41.075C63.814 41.0188 63.7793 40.9552 63.7793 40.8843C63.7793 40.8339 63.8067 40.7599 63.8615 40.6626L66.1221 36.6912C66.1792 36.592 66.2295 36.5275 66.273 36.4974C66.3348 36.4581 66.4069 36.4385 66.4891 36.4385C66.5852 36.4385 66.6674 36.4662 66.736 36.5212C66.8047 36.5765 66.8392 36.6396 66.8392 36.7108C66.8394 36.7612 66.812 36.8352 66.7569 36.9323Z" fill="white"/>
<path d="M69.5911 38.8576L67.3133 37.8247C67.1989 37.7725 67.1229 37.7255 67.0853 37.6844C67.0475 37.6432 67.0288 37.5907 67.0288 37.5272C67.0288 37.4467 67.0641 37.3774 67.135 37.3196C67.206 37.2616 67.2893 37.2324 67.3854 37.2324C67.445 37.2324 67.5365 37.2595 67.6597 37.3138L70.5981 38.6509C70.7961 38.7411 70.7961 38.9741 70.5981 39.0643L67.6597 40.4014C67.5362 40.4576 67.4447 40.4856 67.3854 40.4856C67.2882 40.4856 67.2037 40.4557 67.1325 40.3966C67.0653 40.3406 67.0288 40.2666 67.0288 40.188C67.0288 40.1245 67.0477 40.0722 67.0853 40.0311C67.1232 39.9899 67.1989 39.943 67.3133 39.8907L69.5911 38.8576Z" fill="white"/>
<path d="M47.6183 33.0059H46.6752V33.7775H47.6183V33.0059Z" fill="white"/>
<path d="M47.6183 35.0039H46.6752V35.7756H47.6183V35.0039Z" fill="white"/>
<path d="M47.6183 37.0015H46.6752V37.7731H47.6183V37.0015Z" fill="white"/>
<path d="M47.6183 38.9995H46.6752V39.7712H47.6183V38.9995Z" fill="white"/>
<path d="M47.6183 40.9971H46.6752V41.7687H47.6183V40.9971Z" fill="white"/>
<path d="M47.6183 42.9951H46.6752V43.7668H47.6183V42.9951Z" fill="white"/>
<path d="M52.2745 33.1797H48.5145V33.4109H52.2745V33.1797Z" fill="white"/>
<path d="M50.7301 35.1826H49.3909V35.4138H50.7301V35.1826Z" fill="white"/>
<path d="M56.5591 37.4297H55.2198V37.6609H56.5591V37.4297Z" fill="white"/>
<path d="M50.7301 39.2134H49.3909V39.4446H50.7301V39.2134Z" fill="white"/>
<path d="M52.6615 39.2134H51.3223V39.4446H52.6615V39.2134Z" fill="white"/>
<path d="M54.7443 37.4297H51.3223V37.6609H54.7443V37.4297Z" fill="white"/>
<path d="M55.5691 39.2134H53.3159V39.4446H55.5691V39.2134Z" fill="white"/>
<path d="M54.6472 43.4966H53.308V43.7278H54.6472V43.4966Z" fill="white"/>
<path d="M56.5784 43.4966H55.2391V43.7278H56.5784V43.4966Z" fill="white"/>
<path d="M57.9811 43.4966H57.2329V43.7278H57.9811V43.4966Z" fill="white"/>
<path d="M55.5688 35.1826H51.4014V35.4138H55.5688V35.1826Z" fill="white"/>
<path d="M52.6615 41.2998H51.3223V41.531H52.6615V41.2998Z" fill="white"/>
<path d="M53.8833 41.2998H53.1091V41.531H53.8833V41.2998Z" fill="white"/>
<path d="M56.6623 41.2998H54.4755V41.531H56.6623V41.2998Z" fill="white"/>
<path d="M57.0246 24.4523C56.9556 27.2495 53.4025 29.5946 49.0887 29.688C47.7653 29.7243 46.4566 29.5259 45.2233 29.1022C44.7899 29.9809 43.8737 30.7345 41.248 31.0721C43.9878 29.3408 42.4892 27.8765 41.8645 26.5877C41.5467 26.049 41.3842 25.4279 41.3936 24.7893C41.4625 21.9905 45.0157 19.647 49.3294 19.5536C53.646 19.4526 57.0935 21.655 57.0246 24.4523Z" fill="#F8E643"/>
<path d="M49.3009 21.5234H45.5409V21.7546H49.3009V21.5234Z" fill="white"/>
<path d="M47.7562 23.5264H46.417V23.7575H47.7562V23.5264Z" fill="white"/>
<path d="M53.5852 25.7734H52.246V26.0046H53.5852V25.7734Z" fill="white"/>
<path d="M47.7562 27.5571H46.417V27.7883H47.7562V27.5571Z" fill="white"/>
<path d="M49.6877 27.5571H48.3485V27.7883H49.6877V27.5571Z" fill="white"/>
<path d="M51.7706 25.7734H48.3485V26.0046H51.7706V25.7734Z" fill="white"/>
<path d="M52.5953 27.5571H50.342V27.7883H52.5953V27.5571Z" fill="white"/>
<path d="M52.595 23.5264H48.4276V23.7575H52.595V23.5264Z" fill="white"/>
<path d="M73.3353 77.4491L71.2756 76.9451L71.7559 72.814L73.8156 73.3179L73.3353 77.4491Z" fill="#7F3E3B"/>
<path opacity="0.2" d="M73.9854 72.3845L71.9258 71.8828L71.6573 74.1969L73.7396 74.5136L73.9854 72.3845Z" fill="black"/>
<path d="M85.5267 51.9336C85.5267 51.9336 71.3632 52.9115 71.7107 57.9442C71.9958 62.0645 72.742 60.9444 71.2756 73.1941L74.8387 73.355C74.8387 73.355 78.4633 63.3353 77.9746 59.3544C81.9668 59.3544 91.1068 59.6411 92.4347 56.6935C93.0942 55.1969 93.4149 53.6145 93.3812 52.0238L85.5267 51.9336Z" fill="#F8E643"/>
<path d="M75.4055 73.9192L70.7493 73.2673L70.8255 71.582L75.6456 72.4582L75.4055 73.9192Z" fill="#111111"/>
<path d="M71.0637 76.2516L73.4427 76.6365C73.5263 76.6464 73.5865 76.7192 73.5783 76.8004L73.3805 78.6408C73.3444 78.8391 73.1514 78.9735 72.9454 78.9439C72.1204 78.7964 71.7305 78.6873 70.6851 78.518C70.0409 78.4142 68.5689 78.1604 67.6733 78.0786C66.7777 77.9967 66.885 77.1393 67.2721 77.0956C69.0125 76.9072 70.0014 76.6779 70.6767 76.3202C70.7942 76.2562 70.9304 76.2324 71.0637 76.2516Z" fill="#111111"/>
<path d="M69.9964 76.5851C70.1837 76.6059 70.373 76.6105 70.5614 76.5989C70.5806 76.5987 70.5979 76.5885 70.6038 76.5735C70.6134 76.5599 70.6134 76.5432 70.6038 76.5296C70.5445 76.481 70.0105 76.0672 69.7364 76.1135C69.672 76.1225 69.6189 76.1599 69.598 76.2106C69.5528 76.2845 69.5593 76.3726 69.6149 76.4417C69.7164 76.5261 69.8523 76.5772 69.9964 76.5851ZM70.4512 76.5226C70.0585 76.5226 69.7816 76.4857 69.6997 76.3909C69.6669 76.3453 69.6669 76.2885 69.6997 76.2429C69.7087 76.2177 69.7336 76.1983 69.7647 76.1921C69.9088 76.1666 70.2309 76.3608 70.4512 76.5226Z" fill="#F8E643"/>
<path d="M70.5642 76.5988C70.5642 76.5988 70.5783 76.5988 70.5868 76.5988C70.6032 76.5938 70.6156 76.5827 70.6207 76.5688C70.6207 76.548 70.7761 76.0556 70.5953 75.8591C70.5506 75.8057 70.4766 75.7735 70.3975 75.7735C70.3105 75.7634 70.226 75.8036 70.1941 75.8706C70.1065 76.0533 70.3495 76.4578 70.5388 76.5896C70.5456 76.5954 70.5546 76.5986 70.5642 76.5988ZM70.4173 75.8568C70.4574 75.8621 70.493 75.8803 70.5162 75.9076C70.5989 76.09 70.608 76.2895 70.5416 76.4763C70.3704 76.318 70.2794 76.112 70.2873 75.9007C70.2873 75.8776 70.3184 75.8521 70.3919 75.8545L70.4173 75.8568Z" fill="#F8E643"/>
<path d="M64.1529 78.0911L62.1921 77.3699L63.5483 73.4121L65.5091 74.1334L64.1529 78.0911Z" fill="#7F3E3B"/>
<path opacity="0.2" d="M65.8403 73.1148L63.8795 72.3936L63.1816 74.4349L65.1424 75.1561L65.8403 73.1148Z" fill="black"/>
<path d="M81.3113 51.9336C81.2181 51.9336 65.4328 53.2629 65.4131 57.6437C65.3792 64.8888 62.8505 73.1941 62.8505 73.1941L65.9702 74.4586C65.9702 74.4586 71.4028 65.4552 71.3209 59.8075C75.6635 58.788 86.8971 60.501 88.225 57.5558C89.3128 55.147 88.7251 51.9336 88.7251 51.9336H81.3113Z" fill="#F8E643"/>
<path d="M66.4689 74.8253L62.2874 73.2857L62.6236 71.8848L67.034 73.1308L66.4689 74.8253Z" fill="#111111"/>
<path d="M62.3871 76.0398L64.7717 76.445C64.8542 76.4575 64.9129 76.5371 64.9045 76.6251L64.718 78.6484C64.6861 78.868 64.4928 79.0185 64.286 78.9848H64.2857C63.4607 78.8287 63.0708 78.7085 62.0254 78.5314C61.3812 78.4235 59.6267 78.0751 58.7424 77.886C57.858 77.6969 58.0558 76.7752 58.4598 76.7692C60.2087 76.7481 61.3417 76.5139 62.0141 76.1147C62.1271 76.047 62.2582 76.0206 62.3871 76.0398Z" fill="#111111"/>
<path d="M61.4078 76.4769C61.574 76.4032 61.7297 76.3151 61.8732 76.2143C61.889 76.2036 61.8958 76.1863 61.8899 76.1701C61.8839 76.1553 61.8675 76.1447 61.8486 76.1433C61.7658 76.1327 61.0363 76.055 60.8473 76.2275C60.8049 76.2675 60.7905 76.3225 60.8092 76.3731C60.8255 76.4547 60.8942 76.5229 60.9891 76.5518C61.1349 76.5708 61.2847 76.5439 61.4078 76.4769ZM61.7268 76.2071C61.4197 76.4041 61.1626 76.5 61.0276 76.466C60.9671 76.4445 60.9258 76.3981 60.9196 76.3444C60.9089 76.3202 60.9157 76.2929 60.9371 76.2739C61.0383 76.1909 61.4338 76.184 61.7268 76.2071Z" fill="#F8E643"/>
<path d="M61.8731 76.2141L61.8938 76.2019C61.9042 76.1912 61.9065 76.1767 61.8988 76.1644C61.8839 76.1475 61.6516 75.6741 61.364 75.6022C61.2894 75.5823 61.2078 75.5927 61.1442 75.6302C61.0668 75.6651 61.0284 75.7386 61.0512 75.8084C61.1117 75.9982 61.5996 76.2053 61.8497 76.2192C61.8579 76.219 61.8658 76.2174 61.8731 76.2141ZM61.2162 75.6875C61.2518 75.6711 61.2942 75.6676 61.3335 75.6778C61.5327 75.7853 61.6853 75.9418 61.7692 76.1247C61.5154 76.081 61.292 75.9591 61.145 75.7844C61.1284 75.7656 61.1352 75.73 61.1965 75.6967L61.2162 75.6875Z" fill="#F8E643"/>
<path d="M86.6738 37.9561C87.0892 38.6866 87.431 39.3894 87.7729 40.1199C88.1148 40.8504 88.4171 41.5809 88.6968 42.3299C88.9765 43.079 89.2195 43.8465 89.4144 44.6417C89.6272 45.4679 89.7331 46.3101 89.7309 47.1546C89.7275 47.6505 89.6371 48.1431 89.4625 48.618C89.3525 48.9088 89.1938 49.1857 88.9906 49.441C88.8725 49.5857 88.7372 49.7205 88.5866 49.8432L88.4651 49.9403C88.3973 49.9865 88.3238 50.0374 88.2532 50.0767C88.134 50.1435 88.0074 50.2008 87.8746 50.2478C87.6788 50.3187 87.4743 50.3721 87.2643 50.4073C87.0993 50.436 86.9323 50.4561 86.7642 50.4674C86.4772 50.4822 86.1896 50.4822 85.9025 50.4674C85.3928 50.4475 84.8851 50.4013 84.3825 50.3287C82.507 50.0499 80.6699 49.6192 78.8984 49.0433L79.3081 47.7695C81.1022 47.9452 82.9331 48.1325 84.6593 48.1972C85.0888 48.1972 85.507 48.2134 85.8969 48.1972C86.0706 48.1896 86.2432 48.1718 86.4139 48.1441C86.5552 48.1232 86.6766 48.0816 86.6343 48.084C86.6063 48.0918 86.5795 48.1027 86.5552 48.1163C86.5269 48.1302 86.5003 48.1464 86.476 48.1649C86.476 48.1649 86.4902 48.1464 86.5015 48.1256C86.5382 48.0594 86.5665 47.9906 86.5862 47.9198C86.6492 47.6657 86.675 47.4066 86.6625 47.1477C86.621 46.4856 86.5009 45.8281 86.3037 45.185C86.1116 44.4914 85.8629 43.8164 85.5917 43.1298C85.3205 42.4432 85.0266 41.7566 84.7046 41.0723C84.3825 40.388 84.0434 39.7014 83.71 39.0565L86.6738 37.9561Z" fill="#7F3E3B"/>
<path d="M80.088 48.1162L78.2148 47.2539L77.2739 48.9138C77.2739 48.9138 79.4636 49.6605 79.9241 49.1935L80.088 48.1162Z" fill="#7F3E3B"/>
<path d="M76.6975 47.5686L75.8414 48.6783L77.2739 48.9025L78.2147 47.2427L76.6975 47.5686Z" fill="#7F3E3B"/>
<path d="M82.3058 39.2745C81.947 40.012 81.5712 40.7171 81.1757 41.4314C80.7801 42.1457 80.3846 42.8485 79.9664 43.5513C79.1247 44.9823 78.1813 46.3717 77.1411 47.7125C76.8585 48.0546 76.576 48.3945 76.2595 48.7343C76.1013 48.9054 75.9262 49.0741 75.7397 49.2475C75.638 49.3354 75.556 49.4163 75.4374 49.5064L75.2678 49.6405L75.1718 49.7145C74.9028 49.9029 74.5864 50.0402 74.2451 50.1167C74.0651 50.1586 73.882 50.1903 73.6969 50.2115C73.3952 50.2413 73.0909 50.2515 72.7872 50.2416C72.2625 50.2279 71.7395 50.1854 71.2219 50.1144C69.3063 49.8377 67.43 49.4024 65.6221 48.8152L66.0346 47.5391C67.8626 47.7194 69.7301 47.9113 71.4875 47.9714C71.902 47.9846 72.3168 47.9797 72.7307 47.9575C72.8974 47.9469 73.0627 47.9252 73.2251 47.8928C73.2782 47.8826 73.3294 47.8672 73.3777 47.8466C73.3946 47.8466 73.3777 47.8304 73.3014 47.8697C73.2737 47.8824 73.248 47.8979 73.2251 47.9159C73.2251 47.9159 73.2449 47.8951 73.2534 47.8882L73.3325 47.8165C73.3833 47.7749 73.4455 47.7056 73.5048 47.6501C73.6207 47.5299 73.7393 47.4004 73.858 47.2594C74.0925 46.9843 74.3213 46.6791 74.5474 46.3693C74.9994 45.7498 75.4204 45.0909 75.8329 44.4251C76.2454 43.7594 76.641 43.0797 77.0309 42.3954C77.8078 41.0315 78.5679 39.6328 79.2912 38.2573L82.3058 39.2745Z" fill="#7F3E3B"/>
<path d="M66.837 47.8719L64.961 46.998L64.0201 48.6579C64.0201 48.6579 66.2098 49.4069 66.6732 48.9399L66.837 47.8719Z" fill="#7F3E3B"/>
<path d="M63.4465 47.3263L62.5876 48.4337L64.0201 48.6579L64.9609 46.998L63.4465 47.3263Z" fill="#7F3E3B"/>
<path d="M87.1569 31.0723L85.959 32.2073L84.1307 33.7548C84.1682 33.8309 84.2188 33.9301 84.2705 34.035C84.4112 34.3203 84.4946 34.6232 84.5144 34.9302C84.5542 35.5504 84.4816 36.075 83.2862 36.4955C83.2862 36.4955 82.0317 37.8363 85.0153 37.4641C87.9989 37.0919 88.4481 35.825 88.4481 35.825C87.1258 35.0555 87.0524 32.4963 87.1569 31.0723Z" fill="#7F3E3B"/>
<path d="M81.074 29.7917C81.074 29.9443 80.9808 30.0738 80.8565 30.0784C80.7321 30.083 80.6333 29.9628 80.6304 29.8102C80.6276 29.6577 80.7265 29.5282 80.848 29.5236C80.9695 29.5189 81.0712 29.6392 81.074 29.7917Z" fill="#111111"/>
<path d="M81.6984 29.223C81.6614 29.2228 81.6275 29.207 81.608 29.1814C81.4599 28.9823 81.2074 28.8508 80.9243 28.8254C80.8641 28.8228 80.8169 28.7821 80.8169 28.7329C80.8183 28.6832 80.8689 28.6439 80.9299 28.645C81.287 28.6709 81.6077 28.8339 81.7945 29.0843C81.8258 29.1266 81.8109 29.1816 81.7606 29.2091C81.7416 29.2181 81.7202 29.223 81.6984 29.223Z" fill="#111111"/>
<path d="M81.0062 29.8774C80.8547 30.2938 80.636 30.6919 80.3563 31.0611C80.5911 31.1695 80.8731 31.1864 81.1248 31.1073L81.0062 29.8774Z" fill="#630F0F"/>
<path d="M87.3265 29.0218C87.2163 30.9083 87.2672 32.0272 86.1229 33.0258C85.0083 34.031 83.1088 34.1064 81.8806 33.1944C81.4302 32.8599 81.1144 32.4215 80.9751 31.937C80.4552 30.2656 80.7265 27.4614 82.9528 26.6199C84.4545 26.0112 86.2749 26.5138 87.0188 27.7427C87.259 28.139 87.3649 28.5805 87.3265 29.0218Z" fill="#7F3E3B"/>
<path d="M88.3726 29.6509C88.0393 30.4507 87.5335 31.1951 86.8752 31.847L83.8747 32.3094C83.8747 32.3094 81.5042 31.498 82.1371 30.1618C81.7359 29.8843 81.8856 29.0267 82.1682 28.5551C82.6202 28.851 83.3633 28.8764 83.7701 28.5204C84.0979 29.0128 85.0811 29.0822 85.5077 28.6383C85.9965 29.0822 87.0391 28.9458 87.3329 28.3979C87.6946 28.5921 88.2144 28.5643 88.5422 28.3331C88.5563 28.3216 88.5704 28.3123 88.5845 28.3008C88.6326 28.6383 88.5845 29.0799 88.3726 29.6509Z" fill="#111111"/>
<path opacity="0.1" d="M88.3726 29.6509C88.0393 30.4507 87.5335 31.1951 86.8752 31.847L83.8747 32.3094C83.8747 32.3094 81.5042 31.498 82.1371 30.1618C81.7359 29.8843 81.8856 29.0267 82.1682 28.5551C82.6202 28.851 83.3633 28.8764 83.7701 28.5204C84.0979 29.0128 85.0811 29.0822 85.5077 28.6383C85.9965 29.0822 87.0391 28.9458 87.3329 28.3979C87.6946 28.5921 88.2144 28.5643 88.5422 28.3331C88.5563 28.3216 88.5704 28.3123 88.5845 28.3008C88.6326 28.6383 88.5845 29.0799 88.3726 29.6509Z" fill="white"/>
<path d="M88.805 27.3643C88.9745 27.6741 88.8813 28.0648 88.5846 28.3006C88.5705 28.3122 88.5563 28.3214 88.5422 28.333C88.2145 28.5642 87.6946 28.5919 87.333 28.3977C87.0391 28.9456 85.9966 29.082 85.5078 28.6381C85.0811 29.082 84.0979 29.0126 83.7702 28.5202C83.3633 28.8762 82.6203 28.8508 82.1682 28.5549C82.0495 28.4786 81.9507 28.3815 81.8857 28.2682C81.8687 28.2428 81.8574 28.2174 81.8461 28.192C81.8207 28.2151 81.7953 28.2359 81.767 28.2544C81.4929 28.4393 81.0607 28.4671 80.7612 28.3029C80.5154 28.1688 80.3798 27.9192 80.3995 27.6811C80.4024 27.6302 80.4137 27.5817 80.4306 27.5331C80.408 27.5678 80.3798 27.6001 80.3459 27.6279C80.1 27.8429 79.5802 27.8521 79.34 27.6071C79.0405 27.3042 79.2101 26.8003 79.6197 26.5991C79.7836 26.5205 79.9644 26.4836 80.1509 26.4836C80.4391 26.4836 80.7329 26.5691 80.9618 26.7124C80.716 26.4234 80.8036 25.9819 81.1483 25.7715C81.4929 25.5635 82.0354 25.6213 82.301 25.8964C82.2643 25.5681 82.3971 25.3716 82.6033 25.2699C82.9932 25.0849 83.643 25.2444 83.9595 25.5542C83.9595 25.5542 84.3946 24.6942 85.1461 24.7913C85.31 24.8098 86.0813 25.0896 86.0615 25.3161C86.0615 25.3323 86.0559 25.3462 86.0474 25.36C86.0587 25.3415 86.07 25.3254 86.0842 25.3092C86.2311 25.1196 86.5277 25.0248 86.8074 25.0294C87.1098 25.0318 87.3979 25.1265 87.6777 25.219C88.2625 25.4155 88.8841 25.6351 89.2231 26.0721C89.5593 26.5113 89.4124 27.2256 88.805 27.3643Z" fill="#111111"/>
<path d="M83.4613 30.3371C83.3794 30.803 83.1181 31.2355 82.7154 31.5716C82.2041 31.9716 81.769 31.5716 81.7633 30.9636C81.7633 30.4134 82.0148 29.5419 82.6109 29.3801C83.2071 29.218 83.5715 29.7384 83.4613 30.3371Z" fill="#7F3E3B"/>
<path d="M92.4969 36.4818C92.285 36.0195 91.2962 35.5571 90.6887 35.5571H90.2875C89.5868 35.5571 88.7138 35.6034 87.8662 35.6843C86.2512 35.8304 84.6475 36.0512 83.0631 36.3454C82.3341 36.5026 81.6306 36.7015 81.0712 36.8725C80.3592 37.1037 79.941 37.2586 79.941 37.2586C79.941 37.2586 80.7214 41.5088 81.1249 45.7303C81.3495 48.0796 81.2565 50.4126 81.3283 52.017H93.3813C93.7966 50.089 93.731 48.4076 93.765 44.9261C93.7847 42.836 93.37 38.3844 92.4969 36.4818Z" fill="#111111"/>
<path opacity="0.2" d="M80.8644 43.3709C80.9548 44.2563 81.048 45.1857 81.1469 46.115C82.5596 44.4274 83.3422 39.8105 83.3422 39.8105L80.8644 43.3709Z" fill="black"/>
<path d="M79.2598 37.5694C77.5335 38.3646 75.8414 42.4343 75.8414 42.4343L79.7938 44.8746C81.3026 43.7072 83.5092 40.8105 83.7493 39.6523C84.1364 37.8746 82.0259 36.3025 79.2598 37.5694Z" fill="#111111"/>
<path d="M75.8487 78.9939C75.8487 79.5492 75.2983 79.9995 74.6197 79.9995C73.941 79.9995 73.3906 79.5492 73.3906 78.9939C73.3906 78.4386 73.941 77.9883 74.6197 77.9883C75.2983 77.9885 75.8487 78.4386 75.8487 78.9939Z" fill="#111111"/>
<path d="M94.1824 78.9939C94.1824 79.5492 94.7328 79.9995 95.4114 79.9995C96.0901 79.9995 96.6404 79.5492 96.6404 78.9939C96.6404 78.4386 96.0901 77.9883 95.4114 77.9883C94.7328 77.9885 94.1824 78.4386 94.1824 78.9939Z" fill="#111111"/>
<path d="M83.8193 78.6726C83.8193 79.2279 84.3694 79.6782 85.0484 79.6782C85.727 79.6782 86.2774 79.2279 86.2774 78.6726C86.2774 78.1173 85.727 77.667 85.0484 77.667C84.3697 77.667 83.8193 78.1171 83.8193 78.6726Z" fill="#111111"/>
<path d="M84.6667 77.4315V75.4873H81.1463C80.4552 75.4878 79.7658 75.5402 79.0866 75.6445L72.5315 76.6869C72.2083 76.7384 71.9975 76.9946 72.0602 77.2591C72.1162 77.4939 72.3719 77.6608 72.6643 77.6532L84.6667 77.4315Z" fill="#111111"/>
<path d="M84.6667 77.4315V75.4873H88.19C88.8811 75.4875 89.5704 75.54 90.2496 75.6445L97.6168 76.6083C97.94 76.6598 98.1508 76.916 98.0878 77.1805C98.0318 77.4153 97.7761 77.5822 97.484 77.5746L84.6667 77.4315Z" fill="#111111"/>
<path d="M86.845 66.5869H82.4855V75.4896H86.845V66.5869Z" fill="#111111"/>
<path d="M86.2206 62.4443H83.1127V66.5847H86.2206V62.4443Z" fill="#111111"/>
<path opacity="0.5" d="M83.1127 63.6603L86.2206 64.3007V62.4443H83.1127V63.6603Z" fill="black"/>
<path d="M74.6198 53.0771H73.0404V58.5907H74.6198V53.0771Z" fill="#111111"/>
<path d="M82.5381 62.4442V38.4752C82.5381 37.5676 83.0167 36.7044 83.8513 36.1066L85.9393 34.6111C86.6408 34.1087 87.5412 33.8315 88.4736 33.8315H96.0162L99.7019 37.0403V62.4444H82.5381V62.4442Z" fill="#F8E643"/>
<path d="M71.3084 57.8066H88.5149V62.4441H68.5057C67.382 62.4448 66.4706 61.7001 66.4697 60.781C66.4694 60.4821 66.5675 60.1885 66.754 59.9312C67.7061 58.6139 69.4381 57.8062 71.3084 57.8066Z" fill="#F8E643"/>
<path opacity="0.7" d="M99.7023 37.0413V62.4454H68.5047C67.3831 62.4454 66.4705 61.701 66.4705 60.7809C66.4705 60.4827 66.5665 60.1891 66.753 59.9325C67.7051 58.6171 69.4314 57.808 71.299 57.808H79.9652C81.3861 57.808 82.5383 56.8654 82.5383 55.7026V38.4746C82.5383 37.5684 83.0158 36.7037 83.8521 36.1073L85.94 34.6116C86.6407 34.1076 87.542 33.8325 88.4743 33.8325H96.0152L99.7023 37.0413Z" fill="white"/>
<path d="M85.0485 62.4442V38.4752C85.0485 37.5676 85.5271 36.7044 86.3617 36.1066L88.4496 34.6111C89.1512 34.1087 90.0516 33.8315 90.984 33.8315H96.8627C97.9245 33.8315 98.9391 34.1906 99.6663 34.8238L101.169 36.1315C101.839 36.7153 102.213 37.4862 102.213 38.2875V60.0445C102.213 61.3699 100.899 62.4444 99.2795 62.4444H85.0485V62.4442Z" fill="#F8E643"/>
<path opacity="0.5" d="M85.0485 62.4442V38.4752C85.0485 37.5676 85.5271 36.7044 86.3617 36.1066L88.4496 34.6111C89.1512 34.1087 90.0516 33.8315 90.984 33.8315H96.8627C97.9245 33.8315 98.9391 34.1906 99.6663 34.8238L101.169 36.1315C101.839 36.7153 102.213 37.4862 102.213 38.2875V60.0445C102.213 61.3699 100.899 62.4444 99.2795 62.4444H85.0485V62.4442Z" fill="white"/>
<path d="M79.194 54.7598C75.7179 53.7669 71.9336 53.7669 68.4576 54.7598C67.736 54.9824 66.9249 54.7295 66.5674 54.1703C66.2454 53.6132 66.6776 52.8919 67.5535 52.6399C71.6127 51.4794 76.0332 51.4794 80.0924 52.6399C80.9683 52.8896 81.4006 53.6132 81.0785 54.1703C80.7205 54.7265 79.9139 54.9787 79.194 54.7598Z" fill="#F8E643"/>
<path opacity="0.7" d="M79.194 54.7598C75.7179 53.7669 71.9336 53.7669 68.4576 54.7598C67.736 54.9824 66.9249 54.7295 66.5674 54.1703C66.2454 53.6132 66.6776 52.8919 67.5535 52.6399C71.6127 51.4794 76.0332 51.4794 80.0924 52.6399C80.9683 52.8896 81.4006 53.6132 81.0785 54.1703C80.7205 54.7265 79.9139 54.9787 79.194 54.7598Z" fill="white"/>
<path d="M35.2847 31.825C35.2253 31.9613 35.2677 32.0977 35.3779 32.1278C35.4881 32.1578 35.6237 32.0746 35.6802 31.9382C35.7367 31.8018 35.6972 31.6631 35.5898 31.6331C35.4825 31.603 35.344 31.6862 35.2847 31.825Z" fill="#111111"/>
<path d="M35.2535 31.9658C35.2756 32.442 35.3773 32.9134 35.5559 33.3668C35.268 33.4343 34.9583 33.3954 34.7083 33.2604L35.2535 31.9658Z" fill="#A02724"/>
<path d="M35.0135 30.8956C35.0346 30.9014 35.0572 30.9014 35.0784 30.8956C35.3299 30.8269 35.6062 30.8614 35.8215 30.9881C35.8681 31.0158 35.9337 31.0073 35.9676 30.9691C35.9975 30.9351 35.9933 30.8884 35.9571 30.8586C35.6882 30.6945 35.3387 30.6471 35.0191 30.7315C34.9646 30.7467 34.9355 30.7955 34.9541 30.8401C34.9646 30.8651 34.9886 30.8847 35.0191 30.8933L35.0135 30.8956Z" fill="#111111"/>
<path d="M29.0887 32.3291C29.4051 33.6445 29.7187 36.0557 28.5942 36.9342C28.5942 36.9342 29.035 38.2681 32.0242 38.2681C35.3101 38.2681 33.5951 36.9342 33.5951 36.9342C31.801 36.5828 32.0898 35.4939 32.4034 34.4721L29.0887 32.3291Z" fill="#B55B52"/>
<path d="M29.8205 29.9433C29.2328 31.6632 28.7807 32.6457 29.4532 33.8039C30.4618 35.5493 33.9865 35.7756 34.9485 33.7778C35.6803 31.9383 36.4035 29.9941 34.6744 28.7527C33.4448 27.859 31.5626 27.95 30.4703 28.9561C30.1629 29.2393 29.9403 29.5773 29.8205 29.9433Z" fill="#B55B52"/>
<path d="M27.5421 30.5148C27.3893 29.8811 27.35 29.188 27.7365 28.6246C28.123 28.0615 29.0599 27.7163 29.7397 28.0449C30.3265 27.0323 31.7454 26.3882 33.1061 26.5168C34.4668 26.6453 35.6687 27.5372 35.9577 28.6327C36.2468 29.7283 35.6017 30.9464 34.4272 31.5229C34.584 31.0502 34.7408 30.5776 34.8976 30.1049C34.7629 30.758 34.3258 31.3664 33.6938 31.7805C33.7845 31.3079 33.8754 30.8354 33.9661 30.3629C33.8833 31.0303 33.3915 31.6554 32.6831 31.9931C32.793 31.6621 32.9029 31.331 33.0126 31.0002C32.9643 31.1456 32.5246 32.1864 32.3752 32.3288C32.0977 32.5933 31.9121 34.3315 30.9382 34.3863C27.6096 34.9316 27.8995 31.9948 27.5421 30.5148Z" fill="#111111"/>
<path d="M32.0375 31.3387C31.981 31.7798 32.1019 32.2236 32.3822 32.6032C32.758 33.098 33.3089 32.9084 33.5123 32.4021C33.6932 31.9398 33.7129 31.1422 33.1902 30.8209C32.6676 30.4995 32.1166 30.807 32.0375 31.3387Z" fill="#B55B52"/>
<path d="M24.074 48.0018C23.714 47.9043 22.0335 47.1971 21.7659 47.3233C22.5418 45.7032 23.0258 45.4547 23.3787 44.4234C23.5759 43.8473 23.4403 43.3986 23.0029 42.9192C22.5065 42.3747 22.3324 42.0989 21.5063 42.1662C20.3705 43.7202 18.9403 45.6376 18.3806 47.3892C18.1922 47.9792 18.0557 48.4265 18.4846 48.9252C18.8626 49.3646 19.5616 49.5417 20.2157 49.5896C21.7905 49.7052 24.1265 49.4682 24.0969 48.7032C24.0779 48.221 24.074 48.0018 24.074 48.0018Z" fill="#B55B52"/>
<path d="M23.8067 47.9437L25.1417 47.5889L25.023 49.5613C25.023 49.5613 23.9542 49.5925 23.3849 49.0076L23.8067 47.9437Z" fill="#B55B52"/>
<path d="M26.8087 47.5586L26.6177 49.1852L25.0231 49.5617L25.1417 47.5893L26.8087 47.5586Z" fill="#B55B52"/>
<path d="M42.0998 49.3438C42.0998 49.3438 40.2396 48.151 37.7973 44.2082C37.4351 43.6569 37.0887 43.1011 36.7576 42.541C36.4251 41.9753 36.1058 41.4221 35.8015 40.8279L38.6879 39.8101C39.2829 40.8698 40.2085 41.9628 40.8637 43.0146C41.5189 44.0665 43.0664 46.5577 43.2599 46.79C43.3562 46.9098 43.4605 47.0089 43.5605 47.1194L43.7097 47.2817L41.8475 49.0431L42.0998 49.3438Z" fill="#B55B52"/>
<path d="M44.5425 41.6792L43.9642 41.1151L43.6969 40.2707L45.4404 38.9453C45.4404 38.9453 45.8625 39.3702 46.1572 39.828C46.2021 39.898 46.2216 39.9771 46.2177 40.0561L46.1468 41.5412L44.5425 41.6792Z" fill="#B55B52"/>
<path d="M43.7223 39.3562L45.0271 38.3857L45.4396 38.9524L43.6969 40.2708L43.7223 39.3562Z" fill="#B55B52"/>
<path d="M44.5683 41.2664C44.6138 41.1075 44.6542 41.4189 44.7821 41.2936C45.1678 40.9161 45.7275 40.875 46.0606 41.2846C46.3937 41.6945 46.1089 45.8199 45.5764 47.1122C45.2226 47.9705 45.0342 48.6557 44.1298 49.178C43.7557 49.3939 43.3166 49.5569 42.8589 49.5511C42.4012 49.5453 41.9294 49.3405 41.7562 48.9935C41.4875 48.4544 42.4848 46.5129 42.8417 45.8864C43.9588 43.9233 44.0329 43.1297 44.5683 41.2664Z" fill="#B55B52"/>
<path d="M40.8289 41.0891C41.5988 41.0831 42.3688 41.0768 43.1387 41.0708C43.4675 41.0683 43.8091 41.0632 44.1049 40.9455C44.4926 40.7913 44.7375 40.4675 44.8941 40.139C45.2207 39.4537 45.2481 38.702 45.3778 37.9742C45.5074 37.2462 45.775 36.4868 46.448 35.999C45.2215 36.1322 43.0531 35.8175 42.1114 36.6398C41.6118 37.0758 40.7346 41.0898 40.8289 41.0891Z" fill="#F8E643"/>
<path opacity="0.5" d="M40.8289 41.0891C41.5988 41.0831 42.3688 41.0768 43.1387 41.0708C43.4675 41.0683 43.8091 41.0632 44.1049 40.9455C44.4926 40.7913 44.7375 40.4675 44.8941 40.139C45.2207 39.4537 45.2481 38.702 45.3778 37.9742C45.5074 37.2462 45.775 36.4868 46.448 35.999C45.2215 36.1322 43.0531 35.8175 42.1114 36.6398C41.6118 37.0758 40.7346 41.0898 40.8289 41.0891Z" fill="white"/>
<path d="M44.7791 38.2833C44.6463 38.312 44.559 38.6999 44.5878 38.8095L44.7172 38.9988L44.9811 39.9358L45.8623 39.5367L45.0678 38.3832C45.0105 38.2999 44.8918 38.259 44.7791 38.2833Z" fill="#B55B52"/>
<path d="M24.8687 37.2639C22.8062 37.65 19.7562 42.9079 19.7562 42.9079L23.8954 45.2196C24.9249 44.0117 26.3266 42.1857 27.1157 40.8622C28.3394 38.7677 26.9764 36.8688 24.8687 37.2639Z" fill="#F8E643"/>
<path d="M27.8823 37.3915C27.6449 36.9684 27.3878 36.4853 27.9218 36.335C28.5123 36.1686 31.7445 35.9975 32.8577 36.3096C33.4691 36.4457 33.8296 36.9615 33.6635 37.4618C33.6615 37.4678 33.6596 37.4736 33.6573 37.4796L27.8823 37.3915Z" fill="#111111"/>
<path opacity="0.2" d="M26.1441 40.3003L23.2018 44.8321L23.8954 45.2195C23.8954 45.2195 25.2284 43.7009 26.1438 42.3878L26.1441 40.3003Z" fill="black"/>
<path d="M37.4094 39.5775C37.8552 41.4229 36.8138 45.8114 36.8245 52.9798H25.0626C24.9849 51.531 26.2729 48.1005 24.6729 41.2669C24.621 41.0454 24.5975 37.3031 24.8687 37.2641C26.0076 37.1004 27.157 36.9892 28.3114 36.9314C29.977 36.8516 31.6468 36.8516 33.3123 36.9314C33.9918 36.9873 35.0646 37.333 35.7404 37.532C36.796 37.8427 37.1918 38.677 37.4094 39.5775Z" fill="#F8E643"/>
<path opacity="0.2" d="M34.2966 41.415C34.6035 42.9343 35.8209 44.9412 37.0341 46.1184C37.0822 45.2561 37.1875 44.3556 37.1847 43.6644L34.2966 41.415Z" fill="black"/>
<path d="M33.4601 39.1324C33.1776 40.8362 37.2744 45.187 37.2744 45.187L41.3966 42.8752C41.3966 42.8752 40.2523 40.4779 38.3282 38.9059C36.1358 37.1027 33.7822 37.2784 33.4601 39.1324Z" fill="#F8E643"/>
<path d="M46.9337 76.842H49.1318L49.6319 72.6738H47.4338L46.9337 76.842Z" fill="#B55B52"/>
<path opacity="0.2" d="M49.5983 72.9277L49.344 75.0754H47.1431L47.4002 72.9277H49.5983Z" fill="black"/>
<path d="M38.2627 76.842H40.4608L41.5655 72.6738H39.3674L38.2627 76.842Z" fill="#B55B52"/>
<g opacity="0.2">
<path d="M39.3196 72.896H41.5177L40.9473 75.0436H38.7489L39.3196 72.896Z" fill="black"/>
</g>
<path d="M49.2561 76.0337H46.8573C46.7663 76.0342 46.6878 76.1012 46.668 76.1953L46.2329 78.2539C46.1922 78.4356 46.2985 78.6178 46.4703 78.6608C46.4962 78.6673 46.5228 78.6703 46.5494 78.6698C47.4139 78.6548 48.6656 78.6009 49.7533 78.6009C51.0276 78.6009 52.1266 78.6728 53.6184 78.6728C54.5225 78.6728 54.774 77.7063 54.3954 77.6196C52.6747 77.2217 51.2705 77.1796 49.7844 76.2073C49.6267 76.0989 49.4439 76.039 49.2561 76.0337Z" fill="#111111"/>
<path d="M51.0022 76.703C51.2847 76.703 51.5673 76.6706 51.6492 76.5666C51.6969 76.5104 51.6969 76.4358 51.6492 76.3794C51.6116 76.3306 51.5531 76.2952 51.4853 76.2799C51.118 76.199 50.3552 76.5574 50.3185 76.5735C50.2987 76.5816 50.2882 76.5997 50.293 76.6175C50.2967 76.6343 50.3122 76.648 50.3326 76.6521C50.5535 76.685 50.7776 76.7021 51.0022 76.703ZM51.3525 76.3539C51.3853 76.3502 51.4187 76.3502 51.4514 76.3539C51.4947 76.3606 51.5319 76.3826 51.5531 76.414C51.5899 76.4672 51.5786 76.4926 51.5531 76.5065C51.4514 76.6244 50.8948 76.6267 50.4852 76.5782C50.7536 76.4579 51.0482 76.3819 51.3525 76.3539Z" fill="#F8E643"/>
<path d="M50.3381 76.6523H50.3607C50.6263 76.5552 51.1518 76.1668 51.1094 75.9588C51.1094 75.9102 51.0586 75.8524 50.9173 75.8386C50.8148 75.8314 50.7131 75.858 50.6348 75.9125C50.3523 76.0998 50.2957 76.5853 50.2929 76.6061C50.2909 76.6211 50.2983 76.6359 50.3127 76.6454C50.3203 76.6491 50.3291 76.6514 50.3381 76.6523ZM50.8749 75.9241H50.906C50.9993 75.9241 51.0049 75.9634 51.0077 75.9726C51.0332 76.0952 50.6743 76.4003 50.4031 76.5321C50.4257 76.3286 50.5243 76.1356 50.6856 75.9796C50.7382 75.9426 50.8057 75.9229 50.8749 75.9241Z" fill="#F8E643"/>
<path d="M40.6162 76.0338H38.1468C38.0564 76.0345 37.979 76.1018 37.9603 76.1954L37.5252 78.2541C37.4876 78.4399 37.5995 78.6228 37.7753 78.6623C37.799 78.6676 37.8233 78.6702 37.8473 78.6699C38.709 78.6549 39.13 78.6011 40.215 78.6011C40.8846 78.6011 41.7406 78.673 42.6645 78.673C43.5884 78.673 43.7071 77.7064 43.3285 77.6197C41.6333 77.2279 41.5174 76.6862 40.975 76.1686C40.875 76.0787 40.7472 76.0308 40.6162 76.0338Z" fill="#111111"/>
<path d="M41.9074 76.9324C42.0959 76.9525 42.286 76.9102 42.4358 76.8145C42.4892 76.7547 42.4892 76.6733 42.4358 76.6134C42.4018 76.5621 42.342 76.5256 42.2719 76.514C41.9498 76.4516 41.3423 76.7914 41.3169 76.8053C41.3005 76.8157 41.292 76.8323 41.2943 76.8492C41.2983 76.8654 41.3141 76.8783 41.3339 76.8816C41.5223 76.9151 41.7144 76.9322 41.9074 76.9324ZM42.1899 76.5903C42.2106 76.588 42.2315 76.588 42.2521 76.5903C42.2931 76.5951 42.3287 76.6157 42.3482 76.6458C42.3962 76.7174 42.3679 76.7452 42.3482 76.7567C42.2549 76.8561 41.8057 76.8585 41.4751 76.8145C41.6879 76.6969 41.9303 76.6201 42.1843 76.5903H42.1899Z" fill="#F8E643"/>
<path d="M41.3479 76.8837H41.3705C41.5993 76.782 42.0401 76.389 41.9921 76.1901C41.9771 76.1245 41.907 76.0769 41.8254 76.0769C41.7457 76.069 41.6654 76.0891 41.605 76.1323C41.3507 76.3034 41.297 76.8259 41.2942 76.8444C41.2939 76.8601 41.3035 76.8749 41.3196 76.8837C41.3287 76.886 41.3386 76.886 41.3479 76.8837ZM41.7915 76.1555H41.8141C41.8819 76.1555 41.8875 76.1878 41.8903 76.1994C41.9186 76.3173 41.6361 76.6155 41.41 76.7565C41.4253 76.5512 41.5157 76.3547 41.67 76.1925C41.7036 76.1686 41.7468 76.1555 41.7915 76.1555Z" fill="#F8E643"/>
<path d="M33.2985 52.9824C33.2985 52.9824 43.7097 56.4993 45.8626 59.2034C44.5825 66.0784 42.2857 73.9109 42.2857 73.9109H38.3703C38.3703 73.9109 38.263 69.5555 39.3841 63.7944C39.9492 55.3911 21.4662 64.0859 25.0573 52.9824H33.2985Z" fill="#111111"/>
<path opacity="0.3" d="M40.4964 58.7781C39.7669 58.8012 39.0436 58.8921 38.3223 58.9829C37.5617 59.0787 36.8012 59.1744 36.0403 59.2701C37.2168 60.0783 38.4596 60.8217 39.7579 61.4938C40.5456 61.9016 41.4028 62.2948 42.3346 62.2983C43.3786 62.3022 46.2155 61.2011 45.7451 60.063C45.2682 58.9092 41.6834 58.7404 40.4964 58.7781Z" fill="black"/>
<path d="M36.8246 52.9824C36.8246 52.9824 46.448 53.9978 51.7532 56.4697C53.3865 57.2308 53.158 59.6748 53.1156 61.284C52.9989 65.602 51.984 69.8718 50.115 73.9109H46.8489C46.8489 73.9109 47.0156 69.5486 46.9054 62.5093C46.8715 60.3986 41.6644 59.7028 36.5759 59.4577C32.1805 59.2316 28.3219 56.9855 26.6194 53.6621L26.2719 52.9824H36.8246Z" fill="#111111"/>
<path d="M50.9147 73.1943C50.9316 73.1943 50.7028 74.4589 50.7028 74.4589H46.1822L46.0579 73.3307L50.9147 73.1943Z" fill="#F8E643"/>
<path d="M42.6645 73.1943C42.6815 73.1943 42.2492 74.4589 42.2492 74.4589H37.7286L37.8106 73.3307L42.6645 73.1943Z" fill="#F8E643"/>
<path d="M30.5164 59.3613L27.2774 78.8975L26.6923 78.832L29.1924 59.2134L30.5164 59.3613Z" fill="#F8E643"/>
<path opacity="0.4" d="M30.4005 60.0609L27.2774 78.8975L26.6923 78.8321L29.0848 60.0586L30.4005 60.0609Z" fill="black"/>
<path d="M41.9102 60.061H23.5454C23.5454 59.1137 24.484 58.3457 25.6418 58.3457H39.8138C40.9717 58.3457 41.9102 59.1137 41.9102 60.061Z" fill="#F8E643"/>
<path opacity="0.7" d="M41.9102 60.061H23.5454C23.5454 59.1137 24.484 58.3457 25.6418 58.3457H39.8138C40.9717 58.3457 41.9102 59.1137 41.9102 60.061Z" fill="white"/>
<path d="M24.3958 60.0586L21.627 79.0522H22.2203L25.7322 60.0586H24.3958Z" fill="#F8E643"/>
<path d="M41.0598 60.0586L43.8286 79.0522H43.2353L39.7262 60.0586H41.0598Z" fill="#F8E643"/>
<path opacity="0.4" d="M41.0598 60.0586L43.8286 79.0522H43.2353L39.7262 60.0586H41.0598Z" fill="black"/>
<path d="M37.3557 60.0586L37.4094 79.0522H36.8189L36.0193 60.0586H37.3557Z" fill="#F8E643"/>
</svg>
