<svg width="380" height="380" viewBox="0 0 380 380" fill="none" xmlns="http://www.w3.org/2000/svg">
<path d="M216.779 236.897C217.819 236.267 218.927 235.791 220.07 235.466L220.748 232.208L226.253 232.112L227.045 235.343C228.199 235.627 229.323 236.065 230.385 236.657L233.167 234.834L237.127 238.658L235.403 241.502C236.032 242.543 236.508 243.651 236.833 244.795L240.09 245.472L240.187 250.976L236.955 251.769C236.671 252.922 236.233 254.046 235.641 255.108L237.465 257.891L233.641 261.851L230.797 260.127C229.756 260.756 228.648 261.233 227.506 261.557L226.828 264.815L221.324 264.912L220.532 261.679C219.378 261.395 218.255 260.957 217.192 260.365L214.411 262.189L210.45 258.365L212.175 255.521C211.546 254.48 211.069 253.373 210.745 252.23L207.487 251.552L207.391 246.048L210.623 245.255C210.907 244.102 211.345 242.978 211.937 241.916L210.114 239.133L213.937 235.173L216.779 236.897ZM219.713 244.229C217.448 246.576 217.513 250.314 219.86 252.58C222.206 254.846 225.945 254.779 228.21 252.433C230.476 250.087 230.409 246.348 228.063 244.083C225.717 241.817 221.979 241.883 219.713 244.229Z" fill="#E0E0E0"/>
<path d="M208.612 61.585C209.653 60.9565 210.761 60.4792 211.904 60.1547L212.582 56.8966L218.086 56.8L218.878 60.0316C220.031 60.3158 221.155 60.7536 222.218 61.3456L225 59.5224L228.96 63.3467L227.235 66.1906C227.865 67.2318 228.341 68.3399 228.666 69.4829L231.923 70.1609L232.02 75.6648L228.788 76.4574C228.504 77.6104 228.066 78.7344 227.474 79.7969L229.297 82.5792L225.474 86.5396L222.63 84.8152C221.589 85.4445 220.481 85.921 219.338 86.2455L218.66 89.5036L213.156 89.6001L212.364 86.3678C211.21 86.0836 210.087 85.6459 209.024 85.0538L206.243 86.877L202.282 83.0535L204.007 80.2096C203.378 79.1691 202.901 78.0611 202.577 76.918L199.319 76.2401L199.223 70.7362L202.455 69.9435C202.739 68.7906 203.177 67.6665 203.769 66.6041L201.946 63.8224L205.769 59.8621L208.612 61.585ZM211.546 68.9175C209.28 71.2644 209.346 75.0028 211.693 77.2684C214.039 79.5339 217.778 79.4678 220.043 77.1217C222.308 74.7756 222.243 71.0364 219.896 68.7708C217.55 66.5052 213.812 66.5714 211.546 68.9175Z" fill="#E0E0E0"/>
<path d="M74.4914 55.7043C75.5318 55.075 76.6399 54.5985 77.7829 54.274L78.4608 51.0158L83.9655 50.9193L84.7574 54.1508C85.9111 54.4351 87.0352 54.8728 88.0969 55.4649L90.8785 53.6416L94.8388 57.466L93.1144 60.3099C93.7437 61.3511 94.2202 62.4591 94.5447 63.6022L97.8021 64.2801L97.8986 69.784L94.6671 70.5767C94.3828 71.7304 93.9451 72.8537 93.353 73.9162L95.1763 76.6985L91.3527 80.6589L88.5088 78.9344C87.4676 79.5637 86.3595 80.0402 85.2172 80.3647L84.5393 83.6229L79.0354 83.7194L78.2427 80.4871C77.089 80.2029 75.9658 79.7651 74.9033 79.1731L72.1217 80.9971L68.1613 77.1728L69.8858 74.3288C69.2565 73.2884 68.78 72.1803 68.4554 71.0373L65.1981 70.3594L65.1016 64.8554L68.3338 64.0628C68.6181 62.9098 69.0558 61.7858 69.6479 60.7233L67.8246 57.9417L71.6482 53.9814L74.4914 55.7043ZM77.4257 63.0368C75.1602 65.3836 75.2255 69.1221 77.5724 71.3876C79.9185 73.6532 83.6577 73.5871 85.9225 71.241C88.1873 68.8948 88.122 65.1556 85.7758 62.8901C83.4297 60.6245 79.6913 60.6906 77.4257 63.0368Z" fill="#F8E543"/>
<path d="M170.45 104.386C171.17 103.95 171.936 103.621 172.727 103.396L173.196 101.142L177.004 101.075L177.552 103.311C178.35 103.508 179.128 103.811 179.863 104.22L181.788 102.959L184.527 105.604L183.334 107.572C183.77 108.292 184.1 109.059 184.324 109.85L186.577 110.318L186.644 114.127L184.408 114.675C184.211 115.473 183.909 116.25 183.499 116.985L184.761 118.91L182.115 121.651L180.148 120.458C179.427 120.893 178.661 121.223 177.87 121.447L177.401 123.701L173.593 123.768L173.045 121.532C172.247 121.335 171.469 121.033 170.734 120.623L168.809 121.885L166.069 119.239L167.262 117.272C166.826 116.551 166.496 115.785 166.272 114.994L164.018 114.525L163.951 110.717L166.187 110.169C166.384 109.371 166.687 108.593 167.096 107.858L165.834 105.933L168.48 103.193L170.45 104.386ZM172.48 109.46C170.912 111.083 170.958 113.67 172.582 115.237C174.205 116.804 176.792 116.759 178.359 115.135C179.926 113.512 179.882 110.925 178.257 109.358C176.634 107.791 174.047 107.836 172.48 109.46Z" fill="#E0E0E0"/>
<path d="M68.2304 170.929C70.2262 169.723 72.3511 168.808 74.543 168.186L75.8433 161.937L86.4005 161.752L87.9197 167.951C90.1321 168.496 92.2882 169.336 94.3258 170.471L99.6617 166.974L107.258 174.308L103.951 179.762C105.158 181.759 106.072 183.884 106.694 186.076L112.942 187.376L113.127 197.934L106.929 199.453C106.384 201.664 105.544 203.821 104.409 205.858L107.905 211.194L100.572 218.79L95.1177 215.483C93.1212 216.689 90.9962 217.603 88.8044 218.226L87.504 224.474L76.9476 224.66L75.4284 218.46C73.216 217.916 71.0607 217.076 69.0231 215.94L63.6871 219.438L56.0909 212.104L59.3977 206.649C58.1916 204.653 57.2765 202.528 56.6541 200.336L50.4061 199.036L50.2207 188.478L56.4193 186.958C56.9642 184.747 57.8047 182.591 58.9394 180.554L55.4427 175.218L62.7759 167.622L68.2304 170.929ZM73.8582 184.992C69.5133 189.493 69.6387 196.664 74.1394 201.009C78.6401 205.354 85.8107 205.227 90.1557 200.727C94.5006 196.226 94.3752 189.055 89.8745 184.71C85.3737 180.366 78.2031 180.492 73.8582 184.992Z" fill="#F8E543"/>
<path d="M215.216 313.045C217.035 311.945 218.972 311.111 220.97 310.544L222.156 304.849L231.778 304.68L233.163 310.33C235.179 310.827 237.144 311.592 239.002 312.627L243.865 309.439L250.789 316.124L247.774 321.095C248.874 322.915 249.708 324.852 250.275 326.85L255.97 328.035L256.139 337.657L250.489 339.042C249.992 341.058 249.227 343.023 248.192 344.88L251.38 349.744L244.696 356.667L239.724 353.652C237.904 354.752 235.967 355.585 233.969 356.153L232.783 361.848L223.161 362.017L221.776 356.367C219.759 355.87 217.795 355.105 215.937 354.07L211.074 357.258L204.15 350.574L207.165 345.602C206.065 343.782 205.231 341.846 204.664 339.848L198.97 338.662L198.801 329.04L204.451 327.654C204.948 325.638 205.713 323.673 206.747 321.817L203.56 316.953L210.244 310.03L215.216 313.045ZM220.345 325.864C216.385 329.966 216.5 336.501 220.602 340.462C224.704 344.422 231.24 344.307 235.2 340.205C239.161 336.103 239.046 329.567 234.943 325.607C230.842 321.647 224.306 321.762 220.345 325.864Z" fill="#F8E543"/>
<path d="M273.978 278.846C275.086 278.176 276.265 277.668 277.481 277.323L278.203 273.854L284.063 273.751L284.906 277.192C286.134 277.494 287.331 277.96 288.462 278.59L291.423 276.649L295.64 280.721L293.804 283.748C294.474 284.856 294.982 286.036 295.327 287.253L298.795 287.974L298.898 293.834L295.457 294.677C295.155 295.905 294.689 297.102 294.059 298.232L296 301.194L291.929 305.411L288.902 303.575C287.794 304.245 286.614 304.752 285.397 305.098L284.675 308.566L278.816 308.669L277.972 305.228C276.744 304.926 275.548 304.46 274.417 303.83L271.455 305.771L267.239 301.7L269.074 298.673C268.404 297.565 267.897 296.386 267.551 295.169L264.083 294.447L263.98 288.587L267.421 287.744C267.723 286.516 268.19 285.319 268.819 284.188L266.878 281.227L270.949 277.01L273.978 278.846ZM277.101 286.652C274.69 289.15 274.76 293.13 277.258 295.541C279.756 297.953 283.736 297.883 286.147 295.385C288.559 292.887 288.489 288.907 285.991 286.495C283.493 284.084 279.513 284.153 277.101 286.652Z" fill="#F8E543"/>
<path d="M287.98 105.89C289.642 104.886 291.411 104.124 293.236 103.605L294.319 98.4025L303.109 98.2482L304.373 103.409C306.216 103.863 308.011 104.562 309.707 105.508L314.15 102.595L320.475 108.703L317.721 113.244C318.726 114.907 319.488 116.676 320.005 118.501L325.207 119.584L325.362 128.374L320.2 129.639C319.747 131.481 319.048 133.276 318.102 134.972L321.014 139.415L314.908 145.74L310.366 142.986C308.704 143.99 306.934 144.751 305.109 145.269L304.026 150.472L295.236 150.627L293.971 145.466C292.128 145.012 290.334 144.313 288.638 143.367L284.195 146.279L277.87 140.173L280.623 135.631C279.619 133.969 278.857 132.2 278.339 130.374L273.137 129.292L272.982 120.502L278.144 119.236C278.597 117.395 279.297 115.6 280.242 113.903L277.33 109.461L283.436 103.136L287.98 105.89ZM292.666 117.6C289.048 121.348 289.153 127.318 292.9 130.936C296.648 134.553 302.619 134.449 306.236 130.701C309.854 126.953 309.749 120.983 306.002 117.365C302.254 113.748 296.283 113.853 292.666 117.6Z" fill="#F8E543"/>
<path d="M42.8846 306.565C40.239 304.904 37.2081 303.86 34.1005 303.542C32.6649 303.394 31.097 303.436 29.9456 304.306C29.7009 304.49 29.463 304.763 29.5177 305.064C29.558 305.286 29.7449 305.446 29.9243 305.583C33.4978 308.31 38.9037 308.654 42.8846 306.565Z" fill="#222222"/>
<path d="M42.658 306.316C40.6691 304.765 38.6695 303.202 36.9846 301.325C35.2997 299.448 33.9309 297.219 33.4278 294.746C33.2751 293.997 33.2279 293.14 33.709 292.545C38.231 296.078 41.784 300.645 42.658 306.316Z" fill="#222222"/>
<path d="M42.837 306.532C42.4965 304.058 42.3742 301.515 42.9419 299.083C43.5104 296.651 44.8328 294.324 46.9098 292.936C47.6911 294.763 47.3552 296.867 46.805 298.776C45.9538 301.726 44.6192 304.536 42.8704 307.059" fill="#222222"/>
<path d="M47.2712 314.475C44.5801 314.802 42.2362 316.221 40.2268 318.04C38.2173 319.86 36.7885 322.312 36.1973 324.958C38.8367 324.794 41.0765 322.933 42.7006 320.846C44.3247 318.759 45.4503 316.469 47.2347 314.516" fill="#222222"/>
<path d="M48.2327 315.746C46.0652 310.406 46.8503 303.972 50.2391 299.311C51.772 304.765 51.2089 310.925 48.2327 315.746Z" fill="#222222"/>
<path d="M54.0903 322.721C51.6477 322.569 49.1647 323.151 47.0436 324.372C44.9224 325.592 43.1721 327.448 42.077 329.636C41.928 329.933 41.7965 330.312 41.9957 330.579C42.1689 330.811 42.5041 330.832 42.7921 330.813C45.1595 330.659 47.2579 329.235 48.9892 327.613C50.7205 325.991 52.2291 324.117 54.142 322.715" fill="#222222"/>
<path d="M53.9044 322.341C52.6443 318.31 52.566 313.916 53.6809 309.843C54.121 308.234 54.8605 306.541 56.3478 305.786C56.4747 305.721 56.6229 305.664 56.7559 305.714C56.8821 305.762 56.9558 305.892 57.0135 306.013C57.5425 307.119 57.6968 308.374 57.6421 309.599C57.5873 310.823 57.3335 312.029 57.0804 313.229C56.6123 315.447 56.363 317.831 55.1462 319.745C54.8574 320.199 54.6028 320.69 54.3725 321.176C54.1423 321.662 54.1407 321.833 53.9295 322.22" fill="#222222"/>
<path d="M69.409 324.651C68.2607 320.281 69.4797 314.984 72.2332 311.402C72.4361 311.138 72.7051 310.855 73.0357 310.886C73.5426 310.933 73.6741 311.608 73.6513 312.117C73.4522 316.583 71.9626 320.983 69.409 324.651Z" fill="#222222"/>
<path d="M70.8086 325.607C76.118 326.988 82.2078 325.646 86.6234 322.39C84.0068 321.064 80.9219 320.686 78.062 321.339C75.2022 321.994 72.5885 323.275 70.8086 325.607Z" fill="#222222"/>
<path d="M71.9863 322.697C74.9594 317.85 80.6602 314.686 86.3397 314.397C85.6853 316.708 83.7868 318.503 81.6452 319.588C79.5035 320.673 77.1125 321.145 74.755 321.602C73.8384 321.781 72.5806 321.977 71.9863 322.697Z" fill="#222222"/>
<path d="M69.7049 308.579C70.5097 305.821 71.3199 303.038 71.5403 300.173C71.7615 297.307 71.3526 294.317 69.866 291.857C67.089 297.232 66.8078 303.511 69.6213 308.866" fill="#222222"/>
<path d="M79.0566 303.853C82.3049 297.95 88.9313 293.234 95.636 292.573C93.0498 299.014 85.9954 303.991 79.0566 303.853Z" fill="#222222"/>
<path d="M77.0137 305.009C81.8572 305.747 85.9847 308.841 90.5113 310.716C91.4795 311.117 92.5238 311.437 93.5627 311.301C94.6016 311.165 95.6268 310.468 95.8594 309.445C96.0532 308.597 95.6664 307.697 95.0576 307.075C94.4488 306.453 93.6448 306.065 92.8414 305.731C87.9113 303.678 82.624 303.627 77.4302 304.872" fill="#222222"/>
<path d="M74.2109 308.407C75.3076 308.721 75.6823 309.289 76.5502 310.028C79.4967 312.538 83.03 314.353 86.7859 315.286C87.1765 315.383 87.6895 315.422 87.8833 315.069C88.0528 314.76 87.8385 314.387 87.6189 314.112C86.0449 312.143 83.8006 310.796 81.4385 309.917C79.0765 309.037 77.0298 307.977 74.2109 308.204" fill="#222222"/>
<path d="M71.0469 287.888C74.986 291.564 80.534 293.452 85.8973 292.94C86.1412 292.917 86.4072 292.878 86.5737 292.698C86.9476 292.291 86.4992 291.664 86.0637 291.324C81.6975 287.92 76.4087 286.509 71.0469 287.888Z" fill="#222222"/>
<path d="M74.7988 286.515C80.0056 282.612 87.145 281.434 93.3299 283.458C90.996 285.758 87.7583 286.995 84.4995 287.335C81.2398 287.674 77.9771 287.312 74.7988 286.515Z" fill="#222222"/>
<path d="M73.3055 277.086C72.8769 272.728 73.1551 269.288 72.8526 264.909C72.8283 264.56 72.753 264.139 72.4262 264.013C71.971 263.837 71.591 264.397 71.4413 264.862C70.1439 268.899 70.853 273.528 73.2995 276.99" fill="#222222"/>
<path d="M72.9922 277.568C75.9463 275.741 78.1617 273.355 80.2114 270.552C81.6372 268.601 82.8395 266.264 82.515 263.869C80.5124 263.829 78.6101 264.934 77.3075 266.454C76.0048 267.976 75.2312 269.878 74.6528 271.796C74.0752 273.713 73.6701 275.683 72.9922 277.568Z" fill="#222222"/>
<path d="M80.0869 275.597C86.5697 273.2 92.6177 269.634 97.8526 265.122C95.7307 264.267 93.301 264.778 91.1791 265.635C86.3318 267.592 82.3714 270.895 79.9941 275.55" fill="#222222"/>
<path d="M74.9863 279.952C78.2657 280.311 81.5976 280.544 84.8511 280C88.0492 279.466 91.0717 278.198 94.0608 276.94C94.3086 276.835 94.5784 276.71 94.6863 276.465C94.8041 276.198 94.6787 275.872 94.4621 275.676C94.2455 275.48 93.9574 275.387 93.677 275.309C90.428 274.4 86.9214 274.825 83.7248 275.903C80.5275 276.981 77.9062 278.262 74.9863 279.952Z" fill="#222222"/>
<path d="M56.2608 288.037C54.0233 283.52 54.1685 278.25 56.1012 273.595C57.4616 275.668 57.628 278.308 57.3795 280.775C57.131 283.242 56.3793 285.782 56.3307 288.261" fill="#222222"/>
<path d="M47.3217 283.529C41.7357 283.422 36.1467 285.803 32.3535 289.905C35.142 290.343 38.0132 289.624 40.5494 288.386C43.0855 287.148 45.3396 285.41 47.5733 283.685" fill="#222222"/>
<path d="M41.3117 281.518C38.5788 281.297 35.9492 280.958 33.3211 281.764C30.693 282.569 28.3021 284.397 27.2305 286.928C29.7863 287.216 32.3787 286.576 34.7218 285.514C37.0649 284.451 39.1959 282.981 41.3117 281.518Z" fill="#222222"/>
<path d="M50.211 281.61C47.7524 279.999 45.2277 278.359 42.3655 277.692C39.5026 277.025 36.1852 277.518 34.1895 279.675C36.5067 281.035 39.3179 281.196 42.0053 281.194C44.6919 281.192 47.9857 281.161 50.5188 282.058" fill="#222222"/>
<path d="M50.2256 281.74C46.0221 277.613 44.4291 270.199 46.1201 264.556C49.4238 269.576 50.9035 275.769 50.2256 281.74Z" fill="#222222"/>
<path d="M61.7832 270.046C62.5759 268.203 63.1337 266.269 63.8443 264.393C64.5557 262.518 65.4396 260.672 66.7832 259.182C68.1269 257.692 69.9851 256.584 71.9892 256.484C70.7352 262.163 66.9626 267.238 61.8858 270.076" fill="#222222"/>
<path d="M59.6909 272.483C58.3792 270.677 56.8637 268.226 55.0846 266.879C53.3054 265.531 50.9889 264.716 48.8184 265.233C51.0262 269.18 55.1986 271.962 59.6909 272.483Z" fill="#222222"/>
<path d="M60.1096 270.197C59.25 268.012 58.3836 265.804 58.0363 263.481C57.6882 261.159 57.9003 258.679 59.0874 256.653C61.3947 261.015 62.138 265.697 60.2274 270.246" fill="#222222"/>
<path d="M61.8047 256.654C63.1111 252.33 67.0707 249.146 71.3442 247.686C71.883 247.502 72.4538 247.348 73.017 247.435C73.5801 247.521 74.1319 247.907 74.2497 248.464C74.4055 249.199 73.7982 249.858 73.2267 250.347C69.8987 253.193 65.9862 255.353 61.8047 256.654Z" fill="#222222"/>
<path d="M61.8516 253.117C62.018 250.33 62.1913 247.502 63.0988 244.861C64.0054 242.22 65.7527 239.741 68.2949 238.585C68.7273 241.401 67.4847 244.202 65.9868 246.625C64.4888 249.047 62.683 251.334 61.7832 254.037" fill="#222222"/>
<path d="M61.783 255.036C60.7031 251.885 60.5914 247.883 58.7043 245.138C57.3857 243.219 55.2729 241.912 54.1367 239.88C53.382 241.778 53.613 243.964 54.4027 245.849C55.1923 247.733 56.4972 249.354 57.8934 250.846C59.2895 252.337 60.485 253.459 61.783 255.036Z" fill="#222222"/>
<path d="M61.8037 347.829C61.7193 347.829 61.6471 326.809 61.641 300.886C61.6349 274.954 61.6988 253.939 61.7824 253.939C61.866 253.939 61.9389 274.954 61.945 300.886C61.9511 326.809 61.8873 347.829 61.8037 347.829Z" fill="#222222"/>
<path d="M80.1719 284.865C80.1779 284.885 79.896 284.989 79.3815 285.161C78.8137 285.353 78.0834 285.599 77.2063 285.895C75.3725 286.52 72.8531 287.424 70.1186 288.545C67.4115 289.707 64.8579 290.65 63.404 291.91C62.6774 292.532 62.261 293.204 62.055 293.695C61.8468 294.188 61.8087 294.491 61.7814 294.486C61.7707 294.484 61.7746 294.409 61.7905 294.265C61.8148 294.124 61.8513 293.912 61.9448 293.653C62.1219 293.134 62.5277 292.415 63.2619 291.75C63.993 291.083 65.0099 290.485 66.1749 289.94C67.34 289.396 68.632 288.829 70.0038 288.265C72.7467 287.141 75.2851 286.265 77.1395 285.692C78.0659 285.403 78.8229 285.189 79.3465 285.049C79.8732 284.911 80.1665 284.845 80.1719 284.865Z" fill="#222222"/>
<path d="M86.1936 270.076C86.2005 270.084 86.1245 270.165 85.9725 270.312C85.7931 270.48 85.5704 270.69 85.2976 270.946C84.6714 271.515 83.8186 272.29 82.7797 273.234C80.6054 275.169 77.6566 277.795 74.3984 280.696C71.1266 283.608 68.2994 286.391 66.3402 288.486C65.359 289.533 64.5861 290.399 64.0594 291.004C63.8132 291.285 63.6118 291.515 63.4506 291.699C63.3093 291.857 63.2318 291.937 63.2234 291.93C63.215 291.923 63.2774 291.831 63.4035 291.661C63.5312 291.492 63.7159 291.24 63.969 290.928C64.469 290.299 65.2192 289.408 66.1821 288.34C68.1064 286.202 70.9176 283.387 74.1955 280.47C77.4787 277.564 80.4655 274.954 82.6368 273.073C83.7024 272.158 84.5764 271.409 85.2186 270.857C85.5066 270.619 85.7414 270.423 85.9307 270.267C86.0964 270.134 86.1868 270.068 86.1936 270.076Z" fill="#222222"/>
<path d="M70.8687 283.656C70.7828 283.618 71.466 282.04 72.147 280.045C72.8348 278.05 73.1578 276.366 73.2452 276.379C73.3242 276.388 73.1312 278.121 72.435 280.142C72.0923 281.151 71.7145 282.038 71.4174 282.668C71.1195 283.298 70.9059 283.673 70.8687 283.656Z" fill="#222222"/>
<path d="M61.8225 296.379C61.8058 296.391 61.6272 296.182 61.3187 295.794C60.9767 295.355 60.5435 294.8 60.0274 294.138C58.9429 292.735 57.4427 290.8 55.7615 288.681C54.0797 286.563 52.5346 284.663 51.4151 283.288C50.8877 282.634 50.4446 282.087 50.095 281.655C49.7864 281.266 49.6238 281.044 49.6397 281.031C49.6557 281.017 49.8487 281.212 50.1847 281.578C50.5213 281.943 50.9979 282.479 51.5793 283.15C52.7421 284.491 54.3153 286.372 55.9987 288.493C57.6813 290.614 59.1565 292.573 60.1977 294.009C60.719 294.727 61.1332 295.313 61.4121 295.724C61.6933 296.134 61.8393 296.367 61.8225 296.379Z" fill="#222222"/>
<path d="M57.7952 291.208C57.7458 291.262 56.6711 289.987 56.108 288.05C55.6922 286.685 55.674 285.436 55.7257 284.866L55.8594 284.876C55.7994 285.119 55.7553 285.248 55.7318 285.244C55.7074 285.24 55.7067 285.104 55.7264 284.855L55.861 284.866C55.9104 285.432 55.9962 286.637 56.3998 287.963C56.9424 289.84 57.8765 291.157 57.7952 291.208Z" fill="#222222"/>
<path d="M52.5943 284.668C52.5556 284.71 52.2098 284.274 51.4163 283.984C50.6297 283.679 49.4449 283.612 48.1453 283.724C46.8449 283.82 45.6829 284.051 44.8515 284.255C44.02 284.461 43.5116 284.623 43.4964 284.58C43.4827 284.545 43.9661 284.311 44.7937 284.048C45.6198 283.788 46.7978 283.518 48.1225 283.421C49.4365 283.307 50.6829 283.408 51.4969 283.785C52.3215 284.149 52.6217 284.66 52.5943 284.668Z" fill="#222222"/>
<path d="M51.3634 283.083C51.3399 283.13 50.6772 282.807 49.5584 282.425C48.442 282.041 46.8513 281.638 45.0554 281.498C43.2588 281.364 41.6248 281.521 40.4635 281.731C39.3 281.939 38.5954 282.158 38.5802 282.107C38.5742 282.088 38.7436 282.016 39.059 281.904C39.3722 281.787 39.838 281.654 40.4217 281.521C41.5876 281.253 43.2497 281.059 45.079 281.195C46.9076 281.337 48.521 281.781 49.6322 282.223C50.1892 282.442 50.6293 282.645 50.9211 282.808C51.216 282.968 51.3733 283.064 51.3634 283.083Z" fill="#222222"/>
<path d="M61.7827 276.379C61.7014 276.4 61.1124 274.352 60.4664 271.807C59.8204 269.261 59.3636 267.181 59.4449 267.16C59.5262 267.139 60.1152 269.186 60.7612 271.732C61.4065 274.278 61.864 276.359 61.7827 276.379Z" fill="#222222"/>
<path d="M61.8672 276.379C61.7767 276.409 61.3975 275.041 60.408 273.642C59.445 272.214 58.2161 271.496 58.261 271.426C58.2769 271.394 58.6159 271.518 59.0894 271.853C59.5644 272.183 60.1503 272.743 60.6565 273.467C61.684 274.923 61.9409 276.374 61.8672 276.379Z" fill="#222222"/>
<path d="M61.8041 336.624C61.7714 336.629 61.7091 336.118 61.4727 335.226C61.2386 334.334 60.7978 333.068 60.0682 331.587C58.6159 328.619 55.9733 324.857 52.6157 321.088C50.952 319.187 49.3378 317.394 47.9675 315.677C46.5949 313.962 45.4671 312.328 44.6433 310.883C43.8171 309.439 43.2791 308.199 42.9652 307.325C42.8109 306.887 42.6977 306.545 42.6353 306.307C42.5692 306.072 42.5388 305.947 42.5487 305.944C42.5761 305.936 42.7288 306.425 43.0754 307.282C43.4212 308.138 43.9851 309.354 44.8279 310.773C45.6693 312.194 46.807 313.803 48.1841 315.5C49.5597 317.199 51.1762 318.983 52.8429 320.886C56.2097 324.665 58.8461 328.476 60.2605 331.492C60.9719 332.998 61.3861 334.288 61.5867 335.197C61.684 335.652 61.7493 336.007 61.7729 336.251C61.8041 336.495 61.8147 336.622 61.8041 336.624Z" fill="#222222"/>
<path d="M78.4031 317.875C78.413 317.897 78.0953 318.058 77.5329 318.364C76.975 318.677 76.1831 319.16 75.2764 319.856C74.369 320.55 73.3552 321.462 72.3132 322.558C71.2735 323.657 70.2019 324.933 69.1083 326.301C66.9218 329.043 64.8773 331.471 63.653 333.409C63.0313 334.369 62.5791 335.18 62.2835 335.749C61.9848 336.316 61.8267 336.634 61.8047 336.624C61.7948 336.62 61.8229 336.535 61.8852 336.377C61.9498 336.221 62.038 335.986 62.1778 335.696C62.4423 335.109 62.8687 334.277 63.4721 333.293C64.6607 331.309 66.69 328.849 68.8719 326.11C69.9678 324.74 71.0524 323.461 72.1118 322.365C73.1735 321.269 74.2147 320.363 75.148 319.683C76.082 319.002 76.8998 318.542 77.4782 318.259C77.7662 318.115 78.0018 318.026 78.1568 317.959C78.3149 317.895 78.3993 317.866 78.4031 317.875Z" fill="#222222"/>
<path d="M78.7273 323.958C78.7311 324.002 78.0251 324.088 76.8889 324.224C75.7565 324.371 74.1795 324.56 72.528 325.083C70.8826 325.619 69.5146 326.436 68.6239 327.132C67.724 327.828 67.2992 328.403 67.2574 328.369C67.2429 328.359 67.3311 328.202 67.5295 327.946C67.7263 327.688 68.0478 327.344 68.4878 326.966C69.3649 326.21 70.7458 325.345 72.4353 324.794C74.127 324.258 75.7253 324.103 76.8676 324.01C78.0137 323.928 78.7235 323.918 78.7273 323.958Z" fill="#222222"/>
<path d="M67.7928 327.702C67.697 327.647 68.5254 326.382 69.1684 324.68C69.7718 322.962 69.9124 321.455 70.0211 321.472C70.0606 321.477 70.0591 321.854 69.9907 322.459C69.9185 323.061 69.7733 323.9 69.4541 324.783C69.1326 325.664 68.7116 326.401 68.3878 326.915C68.0595 327.427 67.8262 327.723 67.7928 327.702Z" fill="#222222"/>
<path d="M83.7802 301.547C83.784 301.557 83.6821 301.61 83.486 301.703C83.258 301.807 82.9723 301.937 82.6219 302.096C82.2434 302.259 81.7836 302.464 81.2661 302.738C80.7463 303.006 80.1405 303.282 79.509 303.661C79.1882 303.843 78.8538 304.033 78.5058 304.231C78.1584 304.431 77.8142 304.669 77.4478 304.898C76.7084 305.346 75.9674 305.898 75.177 306.462C73.6296 307.637 72.0032 309.027 70.4368 310.632C68.8857 312.253 67.5519 313.926 66.4309 315.513C65.8943 316.323 65.3677 317.082 64.9443 317.837C64.7277 318.21 64.502 318.562 64.3143 318.916C64.1288 319.271 63.9495 319.612 63.7785 319.939C63.4213 320.582 63.1659 321.197 62.9159 321.726C62.6605 322.253 62.4705 322.719 62.3216 323.103C62.1741 323.458 62.0548 323.748 61.9583 323.98C61.8724 324.179 61.8223 324.282 61.8124 324.279C61.8025 324.275 61.8329 324.166 61.9005 323.959C61.9826 323.722 62.0852 323.424 62.2106 323.06C62.3436 322.669 62.5184 322.194 62.7593 321.659C62.9957 321.121 63.2389 320.497 63.5855 319.843C63.7519 319.512 63.9259 319.165 64.1068 318.806C64.2907 318.446 64.5126 318.089 64.7262 317.71C65.1427 316.944 65.6648 316.174 66.1998 315.354C67.3163 313.747 68.6539 312.054 70.218 310.421C71.7965 308.803 73.4426 307.409 75.0105 306.238C75.8116 305.676 76.5632 305.128 77.3133 304.685C77.685 304.459 78.0346 304.226 78.3872 304.03C78.7406 303.837 79.0803 303.65 79.4064 303.473C80.0478 303.104 80.6642 302.84 81.1931 302.586C81.7198 302.326 82.1887 302.135 82.5756 301.989C82.935 301.851 83.2292 301.738 83.464 301.648C83.6669 301.572 83.7764 301.537 83.7802 301.547Z" fill="#222222"/>
<path d="M70.6416 310.349C70.615 310.344 70.761 309.834 71.3636 309.274C71.9519 308.713 73.025 308.194 74.2744 308.157C75.5201 308.124 76.6 308.472 77.3372 308.755C78.079 309.046 78.5099 309.283 78.4955 309.318C78.478 309.36 78.0167 309.194 77.2666 308.958C76.5202 308.729 75.4646 308.428 74.2843 308.46C73.1086 308.496 72.0932 308.949 71.5042 309.436C70.9031 309.92 70.6903 310.378 70.6416 310.349Z" fill="#222222"/>
<path d="M68.6784 312.374C68.5948 312.328 69.3358 311.242 69.5046 309.686C69.6984 308.132 69.2279 306.905 69.3191 306.879C69.3525 306.865 69.5175 307.151 69.6603 307.662C69.804 308.17 69.899 308.912 69.8055 309.721C69.7097 310.529 69.4468 311.228 69.1899 311.69C68.9345 312.156 68.7073 312.396 68.6784 312.374Z" fill="#222222"/>
<path d="M47.2871 339.636C47.7401 347.669 50.1607 355.838 53.8839 364.098H70.0749C73.6257 355.92 75.8791 347.763 76.2796 339.636H47.2871Z" fill="#FFED58"/>
<path d="M73.6561 352.634C73.6561 352.718 68.3254 352.786 61.7507 352.786C55.1736 352.786 49.8438 352.718 49.8438 352.634C49.8438 352.55 55.1736 352.482 61.7507 352.482C68.3247 352.483 73.6561 352.55 73.6561 352.634Z" fill="#181818"/>
<path d="M73.2942 355.544C73.2942 355.628 68.2964 355.696 62.1328 355.696C55.9669 355.696 50.9707 355.628 50.9707 355.544C50.9707 355.46 55.9669 355.392 62.1328 355.392C68.2964 355.393 73.2942 355.46 73.2942 355.544Z" fill="#181818"/>
<path d="M54.1442 344.91C54.2278 344.91 54.2962 346.58 54.2962 348.639C54.2962 350.7 54.2278 352.369 54.1442 352.369C54.0606 352.369 53.9922 350.699 53.9922 348.639C53.9922 346.58 54.0598 344.91 54.1442 344.91Z" fill="#181818"/>
<path d="M62.818 344.91C62.9016 344.91 62.97 346.639 62.97 348.772C62.97 350.906 62.9016 352.635 62.818 352.635C62.7344 352.635 62.666 350.906 62.666 348.772C62.666 346.639 62.7344 344.91 62.818 344.91Z" fill="#181818"/>
<path d="M70.9645 344.844C71.0481 344.844 71.1165 346.608 71.1165 348.784C71.1165 350.959 71.0489 352.723 70.9645 352.723C70.8809 352.723 70.8125 350.959 70.8125 348.784C70.8125 346.608 70.8809 344.844 70.9645 344.844Z" fill="#181818"/>
<path d="M75.7644 344.91C75.7644 344.994 69.5119 345.062 61.8009 345.062C54.0869 345.062 47.8359 344.994 47.8359 344.91C47.8359 344.826 54.0869 344.758 61.8009 344.758C69.5119 344.758 75.7644 344.826 75.7644 344.91Z" fill="#181818"/>
<path d="M361.509 365.102C361.509 365.211 284.716 365.299 190.007 365.299C95.2658 365.299 18.4883 365.21 18.4883 365.102C18.4883 364.993 95.2658 364.904 190.007 364.904C284.716 364.904 361.509 364.992 361.509 365.102Z" fill="#222222"/>
<path d="M342.075 266.267C336.94 268.927 333.003 273.506 330.172 278.548C327.341 283.59 325.516 289.124 323.709 294.616L322.127 322.945C328.101 312.781 332.897 300.832 334.193 289.114C332.867 288.996 331.542 288.877 330.217 288.76C332.883 288.353 335.121 286.421 336.544 284.131C337.968 281.841 338.701 279.2 339.416 276.6C337.799 276.84 336.182 277.081 334.565 277.321C338.364 274.786 341.117 270.732 342.075 266.267Z" fill="#222222"/>
<g opacity="0.3">
<path d="M342.077 266.267C336.942 268.927 333.004 273.506 330.174 278.548C327.342 283.59 325.518 289.124 323.71 294.616L322.129 322.945C328.103 312.781 332.899 300.832 334.195 289.114C332.869 288.996 331.544 288.877 330.219 288.76C332.885 288.353 335.123 286.421 336.546 284.131C337.97 281.841 338.703 279.2 339.418 276.6C337.801 276.84 336.184 277.081 334.567 277.321C338.366 274.786 341.119 270.732 342.077 266.267Z" fill="black"/>
</g>
<path d="M321.243 329.583C321.243 329.583 308.275 314.062 308.425 299.244H313.663C313.663 299.244 307.973 295.502 308.424 293.406C308.874 291.311 309.024 283.378 309.024 283.378L313.813 284.576C313.813 284.576 310.221 282.78 309.772 279.936C309.323 277.092 310.82 263.921 310.82 263.921C310.82 263.921 316.658 270.058 318.454 276.344C320.249 282.63 324.964 289.964 323.58 309.122C322.194 328.28 321.243 329.583 321.243 329.583Z" fill="#222222"/>
<path d="M327.818 331.048C327.818 331.048 341.867 321.689 344.989 309.743L340.777 308.597C340.777 308.597 346.17 306.834 346.267 305.05C346.363 303.267 347.978 296.857 347.978 296.857L343.866 296.772C343.866 296.772 347.147 296.113 348.129 293.925C349.113 291.737 350.791 280.821 350.791 280.821C350.791 280.821 344.756 284.477 341.936 289.138C339.116 293.799 333.722 298.664 330.643 314.369C327.565 330.075 327.818 331.048 327.818 331.048Z" fill="#222222"/>
<path d="M314.362 277.455C314.366 277.454 314.382 277.509 314.409 277.616C314.437 277.735 314.474 277.893 314.521 278.094C314.618 278.529 314.756 279.146 314.932 279.936C315.112 280.736 315.321 281.716 315.547 282.858C315.777 283.999 316.046 285.298 316.309 286.74C316.864 289.618 317.45 293.058 318.054 296.886C318.638 300.717 319.222 304.938 319.741 309.38C320.249 313.825 320.644 318.068 320.948 321.932C321.234 325.798 321.449 329.281 321.566 332.21C321.639 333.673 321.673 334.999 321.709 336.162C321.749 337.326 321.769 338.328 321.777 339.148C321.785 339.956 321.792 340.589 321.797 341.035C321.797 341.241 321.796 341.403 321.796 341.526C321.794 341.637 321.791 341.693 321.787 341.693C321.784 341.693 321.778 341.637 321.772 341.526C321.766 341.403 321.759 341.242 321.749 341.036C321.734 340.59 321.711 339.958 321.684 339.15C321.662 338.331 321.629 337.33 321.576 336.167C321.528 335.004 321.482 333.68 321.398 332.218C321.261 329.292 321.029 325.811 320.731 321.95C320.414 318.09 320.014 313.85 319.505 309.408C318.987 304.969 318.41 300.751 317.838 296.921C317.246 293.093 316.679 289.652 316.145 286.772C315.893 285.328 315.636 284.029 315.418 282.886C315.204 281.742 315.008 280.759 314.843 279.957C314.685 279.164 314.562 278.543 314.476 278.106C314.438 277.903 314.408 277.744 314.386 277.623C314.366 277.512 314.358 277.455 314.362 277.455Z" fill="#222222"/>
<path d="M319.444 339.088C319.444 339.088 307.577 325.623 303.892 317.484L306.674 316.295C304.658 316.628 302.592 315.762 301.029 314.445C299.465 313.129 298.317 311.399 297.191 309.693L300.856 309.074C297.524 308.139 294.588 305.864 292.85 302.871C297.174 303.583 301.086 305.958 304.31 308.926C306.92 311.33 309.131 314.122 311.254 316.972C312.29 318.363 313.196 319.845 313.951 321.406C315.944 325.529 319.451 334.143 319.444 339.088Z" fill="#222222"/>
<path d="M345.176 288.659C345.179 288.66 345.16 288.707 345.121 288.795C345.074 288.895 345.014 289.024 344.938 289.187C344.766 289.542 344.524 290.042 344.216 290.68C343.579 291.973 342.677 293.853 341.587 296.186C340.492 298.518 339.233 301.316 337.88 304.441C336.539 307.57 335.11 311.031 333.688 314.695C332.275 318.364 331.003 321.886 329.89 325.105C328.788 328.328 327.838 331.244 327.079 333.706C326.316 336.166 325.719 338.163 325.32 339.548C325.119 340.228 324.962 340.76 324.85 341.14C324.797 341.311 324.755 341.447 324.722 341.551C324.692 341.644 324.675 341.691 324.671 341.69C324.667 341.689 324.676 341.64 324.699 341.545C324.725 341.438 324.76 341.301 324.805 341.127C324.906 340.745 325.049 340.208 325.232 339.523C325.603 338.131 326.176 336.125 326.919 333.657C327.658 331.187 328.592 328.263 329.683 325.034C330.786 321.808 332.052 318.28 333.467 314.609C334.89 310.942 336.326 307.481 337.68 304.353C339.045 301.23 340.321 298.437 341.435 296.113C342.546 293.788 343.47 291.917 344.133 290.638C344.458 290.008 344.714 289.514 344.896 289.163C344.98 289.005 345.048 288.88 345.1 288.782C345.146 288.7 345.172 288.656 345.176 288.659Z" fill="#222222"/>
<path d="M320.452 344.858C320.443 344.859 320.424 344.774 320.396 344.611C320.365 344.421 320.327 344.185 320.28 343.896C320.234 343.585 320.177 343.205 320.095 342.767C320.015 342.328 319.938 341.826 319.819 341.277C319.606 340.175 319.301 338.873 318.912 337.442C318.511 336.013 318.019 334.458 317.419 332.855C316.809 331.254 316.15 329.762 315.507 328.425C314.853 327.093 314.221 325.915 313.652 324.947C313.379 324.456 313.105 324.029 312.875 323.647C312.647 323.263 312.439 322.94 312.267 322.677C312.112 322.429 311.984 322.227 311.882 322.064C311.796 321.923 311.754 321.846 311.76 321.842C311.767 321.837 311.822 321.905 311.921 322.038C312.033 322.194 312.173 322.388 312.344 322.626C312.528 322.882 312.747 323.198 312.987 323.576C313.229 323.952 313.514 324.375 313.797 324.862C314.386 325.822 315.035 326.997 315.703 328.329C316.36 329.667 317.028 331.164 317.641 332.772C318.243 334.383 318.732 335.948 319.123 337.385C319.502 338.826 319.791 340.137 319.984 341.247C320.093 341.799 320.158 342.305 320.226 342.747C320.296 343.189 320.341 343.572 320.372 343.885C320.401 344.177 320.424 344.415 320.443 344.606C320.457 344.77 320.46 344.858 320.452 344.858Z" fill="#222222"/>
<path d="M336.11 341.691H310.137V346.989H336.11V341.691Z" fill="#FFED58"/>
<path d="M312.613 346.989L315.423 364.81H331.118L333.737 346.989H312.613Z" fill="#FFED58"/>
<path d="M334.518 346.989C334.518 347.055 329.604 347.108 323.545 347.108C317.483 347.108 312.57 347.055 312.57 346.989C312.57 346.924 317.483 346.871 323.545 346.871C329.604 346.871 334.518 346.923 334.518 346.989Z" fill="#222222"/>
<path d="M304.244 194.581L308.79 194.556C310.395 196.592 312.565 198.226 315.178 199.184C322.693 201.94 331.02 198.083 333.775 190.567C336.532 183.052 332.674 174.726 325.159 171.969C317.644 169.213 309.317 173.07 306.561 180.586C305.41 183.724 305.416 187.002 306.356 189.959L306.352 189.952L304.244 194.581Z" fill="white"/>
<path d="M304.244 194.581C304.244 194.581 304.297 194.476 304.391 194.276C304.487 194.07 304.625 193.776 304.805 193.389C305.168 192.609 305.7 191.462 306.393 189.97L306.314 189.976L306.318 189.982C306.331 190.004 306.359 190.01 306.381 189.997C306.398 189.985 306.406 189.963 306.399 189.944C305.839 188.139 305.447 185.649 306.011 182.815C306.151 182.11 306.346 181.387 306.613 180.662C306.914 179.952 307.201 179.204 307.628 178.499C308.436 177.069 309.542 175.688 310.95 174.519C312.355 173.351 314.059 172.4 315.961 171.821C317.86 171.239 319.959 171.035 322.066 171.313C326.281 171.83 330.492 174.492 332.742 178.598C333.879 180.685 334.534 183.003 334.548 185.292C334.589 187.578 334.082 189.809 333.159 191.769C332.243 193.737 330.873 195.4 329.315 196.683C327.752 197.968 325.984 198.868 324.207 199.391C322.427 199.916 320.64 200.065 318.987 199.932C318.78 199.912 318.575 199.892 318.371 199.872C318.167 199.856 317.965 199.833 317.769 199.786C317.375 199.707 316.986 199.629 316.606 199.552C315.865 199.317 315.135 199.127 314.475 198.831C311.806 197.694 309.975 195.979 308.824 194.529C308.816 194.519 308.803 194.513 308.79 194.513C307.323 194.532 306.194 194.548 305.423 194.558C305.042 194.564 304.751 194.57 304.547 194.573C304.35 194.576 304.244 194.581 304.244 194.581C304.244 194.581 304.337 194.585 304.529 194.586C304.731 194.587 305.017 194.589 305.393 194.591C306.17 194.593 307.31 194.596 308.79 194.599L308.756 194.583C309.899 196.051 311.734 197.793 314.422 198.954C315.086 199.257 315.821 199.452 316.569 199.692C316.954 199.771 317.346 199.852 317.744 199.934C317.942 199.982 318.145 200.006 318.351 200.023C318.556 200.045 318.764 200.065 318.973 200.087C320.644 200.226 322.451 200.083 324.254 199.556C326.054 199.032 327.846 198.126 329.432 196.827C331.012 195.53 332.404 193.847 333.335 191.853C334.273 189.868 334.789 187.607 334.749 185.288C334.735 182.967 334.072 180.615 332.919 178.499C332.792 178.231 332.626 177.988 332.464 177.742L331.983 177.006L331.436 176.321C331.257 176.092 331.076 175.864 330.866 175.663C330.664 175.455 330.463 175.247 330.262 175.041C330.067 174.828 329.83 174.662 329.616 174.47C329.394 174.288 329.185 174.092 328.954 173.924C328.719 173.762 328.484 173.601 328.251 173.44C326.365 172.179 324.228 171.388 322.091 171.12C319.954 170.84 317.828 171.052 315.906 171.644C313.98 172.234 312.257 173.202 310.839 174.388C309.417 175.574 308.303 176.976 307.492 178.424C307.062 179.138 306.775 179.894 306.475 180.613C306.208 181.346 306.014 182.077 305.877 182.789C305.322 185.653 305.733 188.162 306.314 189.972L306.395 189.934L306.39 189.928C306.377 189.906 306.349 189.9 306.328 189.913C306.32 189.918 306.314 189.925 306.311 189.933C305.634 191.448 305.114 192.612 304.761 193.405C304.591 193.79 304.461 194.083 304.37 194.288C304.283 194.485 304.244 194.581 304.244 194.581Z" fill="#222222"/>
<path d="M312.791 186.208L314.816 183.969L319.11 187.416L325.489 180.091L327.575 182.122L319.012 191.542L312.791 186.208Z" fill="#FFED58"/>
<path d="M87.9839 100.893L171.377 94.1662L165.723 24.0737L82.3303 30.8001L87.9839 100.893Z" fill="#FFED58"/>
<g opacity="0.3">
<path d="M87.9774 100.92L113.746 98.8411L108.093 28.7487L82.3239 30.8271L87.9774 100.92Z" fill="black"/>
</g>
<path d="M113.749 98.8463C113.641 98.8554 112.302 83.6486 110.761 64.8857C109.219 46.116 108.058 30.8985 108.167 30.8894C108.276 30.8803 109.614 46.0841 111.156 64.853C112.697 83.6159 113.858 98.8372 113.749 98.8463Z" fill="#222222"/>
<g opacity="0.3">
<path d="M153.21 63.4508C154.352 64.72 155 66.3092 155.154 68.2236C155.379 71.0181 154.429 73.2639 152.305 74.9641C150.18 76.6642 146.992 77.6856 142.74 78.0284L125.522 79.4177L122.949 47.5303L139.257 46.2148C143.326 45.8865 146.483 46.3888 148.731 47.7196C150.978 49.0511 152.205 50.9929 152.411 53.5442C152.534 55.0627 152.271 56.4512 151.624 57.7113C150.977 58.9714 149.998 60.005 148.687 60.8136C150.561 61.3038 152.068 62.1831 153.21 63.4508ZM132.403 53.3246L132.899 59.4737L139.094 58.9737C142.131 58.7289 143.567 57.5737 143.399 55.5081C143.235 53.4735 141.634 52.5798 138.598 52.8245L132.403 53.3246ZM145.963 67.9553C145.789 65.8 144.122 64.8492 140.964 65.1038L133.402 65.7141L133.924 72.1825L141.486 71.5722C144.644 71.3176 146.137 70.1122 145.963 67.9553Z" fill="black"/>
</g>
<path d="M155.998 63.2266C157.14 64.4958 157.788 66.0849 157.943 67.9994C158.168 70.7939 157.218 73.0397 155.094 74.7398C152.969 76.4399 149.782 77.4614 145.53 77.8041L128.312 79.1934L125.738 47.3061L142.046 45.9905C146.115 45.6622 149.273 46.1646 151.521 47.4953C153.768 48.8276 154.994 50.7686 155.2 53.3207C155.322 54.8392 155.06 56.2277 154.412 57.4878C153.765 58.7479 152.787 59.7815 151.476 60.5901C153.35 61.0796 154.856 61.9589 155.998 63.2266ZM135.191 53.1003L135.687 59.2495L141.882 58.7494C144.918 58.5039 146.354 57.3495 146.188 55.2838C146.023 53.2493 144.422 52.3548 141.386 52.6002L135.191 53.1003ZM148.752 67.7311C148.578 65.5757 146.911 64.625 143.753 64.8796L136.191 65.4898L136.713 71.9582L144.275 71.3479C147.432 71.0933 148.926 69.888 148.752 67.7311Z" fill="white"/>
<path d="M130.077 365.175L129.934 183.908H124.543C124.891 185.149 124.543 365.175 124.543 365.175H130.077Z" fill="#E0E0E0"/>
<path d="M130.077 365.175C130.077 365.175 129.649 365.187 128.74 365.194C127.818 365.2 126.432 365.209 124.544 365.221H124.497V365.174C124.497 355.581 124.494 332.34 124.491 300.471C124.496 284.527 124.501 266.426 124.507 246.802C124.504 236.99 124.5 226.796 124.497 216.3C124.49 211.053 124.481 205.73 124.473 200.34C124.464 197.646 124.456 194.935 124.446 192.21C124.437 190.847 124.427 189.481 124.418 188.11L124.401 186.055L124.354 184.038C124.354 184.011 124.354 183.984 124.353 183.959L124.348 183.708H124.543C126.392 183.708 128.23 183.708 129.934 183.708H130.132V183.905C130.14 234.276 130.147 279.614 130.152 312.37C130.14 328.722 130.129 341.93 130.122 351.059C130.113 355.608 130.107 359.139 130.102 361.541C130.096 362.73 130.092 363.638 130.089 364.257C130.086 364.87 130.077 365.175 130.077 365.175C130.077 365.175 130.067 364.851 130.062 364.232C130.058 363.607 130.053 362.69 130.046 361.489C130.038 359.076 130.026 355.53 130.01 350.961C129.988 341.82 129.957 328.596 129.919 312.225C129.873 279.507 129.808 234.22 129.737 183.908L129.934 184.105C128.23 184.105 126.392 184.105 124.543 184.105L124.734 183.854C124.734 183.88 124.735 183.908 124.736 183.937L124.795 186.046L124.812 188.107C124.822 189.478 124.831 190.845 124.841 192.208C124.849 194.934 124.858 197.645 124.867 200.34C124.874 205.73 124.88 211.053 124.886 216.3C124.884 226.796 124.882 236.99 124.88 246.802C124.85 266.427 124.823 284.527 124.799 300.472C124.696 332.341 124.62 355.582 124.589 365.175L124.543 365.129C126.42 365.141 127.797 365.15 128.713 365.155C129.627 365.165 130.077 365.175 130.077 365.175Z" fill="#222222"/>
<path d="M134.405 145.687L63.3711 365.102H69.7308L140.767 147.478L134.405 145.687Z" fill="#E0E0E0"/>
<path d="M134.408 145.687C134.408 145.687 134.909 145.817 135.959 146.104C137.018 146.396 138.614 146.836 140.782 147.435L140.827 147.447L140.812 147.492C133.441 170.125 104.509 258.962 69.9218 365.162L69.877 365.299H69.7333C69.5084 365.299 69.2629 365.299 69.0182 365.299C67.0847 365.299 65.1566 365.299 63.3736 365.299H63.1016L63.1852 365.04C82.9315 304.148 100.724 249.282 113.582 209.631C120.017 189.835 125.218 173.838 128.812 162.784C130.609 157.271 132.005 152.993 132.953 150.086C133.427 148.644 133.788 147.542 134.034 146.795C134.278 146.057 134.408 145.687 134.408 145.687C134.408 145.687 134.291 146.08 134.053 146.831C133.812 147.586 133.457 148.698 132.992 150.155C132.053 153.076 130.672 157.375 128.892 162.913C125.322 173.987 120.156 190.011 113.762 209.841C100.954 249.469 83.2317 304.304 63.5621 365.162L63.3736 364.903C65.1566 364.903 67.0847 364.903 69.0182 364.903C69.2629 364.903 69.5084 364.903 69.7333 364.903L69.5456 365.04C104.275 258.886 133.326 170.087 140.727 147.464L140.758 147.521C138.607 146.903 137.024 146.45 135.973 146.148C134.924 145.844 134.408 145.687 134.408 145.687Z" fill="#222222"/>
<path d="M146.049 278.561H92.7012V284.365H146.049V278.561Z" fill="#E0E0E0"/>
<path d="M146.049 284.365C146.049 284.365 146.038 284.228 146.032 283.974C146.028 283.704 146.021 283.333 146.012 282.856C146.001 281.861 145.985 280.423 145.965 278.561L146.049 278.645C136.735 278.712 116.337 278.759 92.7045 278.759H92.703C92.7912 278.67 92.5047 278.956 92.8999 278.561V278.564V278.57V278.581V278.605V278.651V278.745V278.931V279.304V280.045C92.8999 280.538 92.8999 281.029 92.8999 281.514C92.8999 282.486 92.8991 283.44 92.8991 284.366L92.7023 284.169C107.661 284.202 120.964 284.232 130.553 284.253C135.34 284.278 139.199 284.298 141.884 284.312C143.206 284.323 144.238 284.332 144.962 284.339C145.301 284.345 145.567 284.349 145.767 284.353C145.949 284.356 146.044 284.361 146.049 284.365C146.054 284.37 145.967 284.374 145.793 284.379C145.599 284.382 145.341 284.386 145.013 284.392C144.299 284.399 143.283 284.408 141.98 284.42C139.305 284.434 135.463 284.453 130.695 284.478C121.07 284.5 107.716 284.529 92.7015 284.563L92.5047 284.563V284.366C92.5047 283.44 92.5039 282.486 92.5039 281.514C92.5039 281.029 92.5039 280.538 92.5039 280.045V279.304V278.931V278.745V278.651V278.605V278.581V278.57V278.564V278.561C92.8999 278.166 92.6141 278.452 92.703 278.363H92.7045C116.338 278.363 136.736 278.41 146.049 278.477L146.134 278.477L146.133 278.561C146.113 280.444 146.096 281.899 146.085 282.904C146.077 283.374 146.07 283.738 146.066 284.004C146.06 284.249 146.054 284.37 146.049 284.365Z" fill="#222222"/>
<g opacity="0.3">
<path d="M146.051 278.561H134.441V284.365H146.051V278.561Z" fill="black"/>
</g>
<path d="M132.961 315.286H79.6133V321.09H132.961V315.286Z" fill="#E0E0E0"/>
<path d="M132.961 321.09C132.961 321.09 132.95 320.953 132.944 320.699C132.94 320.429 132.933 320.058 132.925 319.581C132.913 318.586 132.897 317.148 132.877 315.286L132.961 315.37C123.647 315.437 103.249 315.483 79.6167 315.483H79.6151C79.7033 315.395 79.4168 315.681 79.812 315.286V315.289V315.295V315.306V315.33V315.376V315.47V315.656V316.028V316.769C79.812 317.263 79.812 317.753 79.812 318.238C79.812 319.21 79.8112 320.164 79.8112 321.09L79.6144 320.893C94.5727 320.927 107.876 320.956 117.465 320.978C122.252 321.002 126.111 321.022 128.796 321.036C130.118 321.047 131.15 321.057 131.874 321.063C132.213 321.069 132.479 321.073 132.68 321.077C132.861 321.081 132.956 321.085 132.961 321.09C132.966 321.095 132.879 321.099 132.705 321.104C132.511 321.107 132.254 321.111 131.925 321.117C131.212 321.123 130.195 321.133 128.892 321.145C126.218 321.158 122.375 321.178 117.607 321.203C107.982 321.225 94.6282 321.254 79.6136 321.288L79.4168 321.288V321.091C79.4168 320.165 79.416 319.211 79.416 318.239C79.416 317.754 79.416 317.263 79.416 316.77V316.028V315.657V315.471V315.377V315.331V315.307V315.296V315.29V315.287C79.812 314.891 79.527 315.177 79.6151 315.089H79.6167C103.25 315.089 123.648 315.135 132.961 315.202L133.046 315.203L133.045 315.287C133.025 317.171 133.009 318.625 132.998 319.631C132.989 320.1 132.982 320.465 132.978 320.731C132.972 320.974 132.966 321.095 132.961 321.09Z" fill="#222222"/>
<path d="M124.646 346.782H71.2988V352.586H124.646V346.782Z" fill="#E0E0E0"/>
<path d="M124.646 352.586C124.646 352.586 124.635 352.449 124.629 352.195C124.625 351.925 124.618 351.554 124.609 351.076C124.598 350.082 124.582 348.644 124.561 346.782L124.646 346.866C115.332 346.933 94.9336 346.979 71.3014 346.979H71.2999C71.3881 346.891 71.1016 347.177 71.4968 346.782V346.785V346.791V346.802V346.826V346.872V346.966V347.152V347.524V348.265C71.4968 348.758 71.4968 349.249 71.4968 349.734C71.4968 350.706 71.496 351.66 71.496 352.586L71.2992 352.389C86.2575 352.422 99.5605 352.452 109.149 352.473C113.937 352.498 117.796 352.518 120.481 352.532C121.803 352.543 122.835 352.552 123.559 352.559C123.898 352.565 124.164 352.569 124.364 352.573C124.546 352.577 124.641 352.581 124.646 352.586C124.65 352.59 124.564 352.595 124.39 352.6C124.196 352.603 123.938 352.607 123.61 352.613C122.896 352.619 121.879 352.629 120.577 352.641C117.902 352.654 114.06 352.674 109.292 352.699C99.6669 352.72 86.3137 352.75 71.2992 352.783L71.1023 352.784V352.587C71.1023 351.661 71.1016 350.706 71.1016 349.735C71.1016 349.249 71.1016 348.759 71.1016 348.266V347.525V347.153V346.966V346.873V346.827V346.803V346.792V346.786V346.783C71.4975 346.387 71.2125 346.673 71.3007 346.585H71.3022C94.9352 346.585 115.334 346.631 124.647 346.698L124.732 346.699L124.731 346.783C124.71 348.666 124.694 350.12 124.683 351.126C124.675 351.596 124.668 351.96 124.663 352.226C124.656 352.47 124.651 352.591 124.646 352.586Z" fill="#222222"/>
<path d="M104.59 246.343H168.293V252.146H104.59" fill="#E0E0E0"/>
<path d="M104.59 252.146C104.59 252.139 104.7 252.133 104.916 252.126C105.148 252.122 105.466 252.115 105.873 252.107C106.734 252.099 107.97 252.087 109.556 252.071C112.776 252.056 117.409 252.035 123.141 252.009C134.649 251.994 150.567 251.972 168.293 251.948L168.095 252.146C168.095 251.228 168.095 250.24 168.095 249.247C168.095 248.252 168.095 247.262 168.095 246.343L168.293 246.54C150.563 246.517 134.645 246.494 123.138 246.479C117.406 246.453 112.774 246.432 109.555 246.418C107.97 246.402 106.733 246.39 105.873 246.381C105.466 246.373 105.149 246.367 104.917 246.362C104.702 246.355 104.591 246.349 104.591 246.343C104.591 246.336 104.702 246.33 104.917 246.323C105.149 246.318 105.467 246.312 105.873 246.304C106.733 246.295 107.97 246.283 109.555 246.267C112.774 246.253 117.406 246.232 123.138 246.206C134.645 246.19 150.563 246.168 168.293 246.145H168.491V246.343C168.491 247.263 168.491 248.253 168.491 249.248C168.491 250.241 168.491 251.229 168.491 252.147V252.345H168.293C150.567 252.321 134.649 252.299 123.141 252.284C117.409 252.258 112.777 252.237 109.556 252.222C107.97 252.206 106.733 252.194 105.873 252.185C105.466 252.177 105.149 252.171 104.916 252.166C104.7 252.16 104.59 252.153 104.59 252.146Z" fill="#222222"/>
<g opacity="0.3">
<path d="M168.488 246.343H142.076V251.936H168.488V246.343Z" fill="black"/>
</g>
<g opacity="0.3">
<path d="M132.963 315.286H120.389V321.09H132.963V315.286Z" fill="black"/>
</g>
<g opacity="0.3">
<path d="M124.542 346.782H108.346V352.586H124.542V346.782Z" fill="black"/>
</g>
<path d="M140.769 147.478C140.769 147.478 145.168 139.354 153.648 137.014C159.76 135.328 168.432 135.597 170.353 136.017C174.32 136.886 176.429 141.078 173.829 148.964L108.76 365.102H115.369L181.051 147.441C181.811 144.939 185.049 130.718 169.01 130.548C160.082 130.454 152.874 131.171 146.956 133.775C140.497 136.617 136.07 141.211 134.002 146.852" fill="#E0E0E0"/>
<path d="M134.003 146.852C134.003 146.852 134.158 146.373 134.55 145.471C134.943 144.573 135.59 143.248 136.721 141.694C137.282 140.915 137.973 140.091 138.792 139.234C139.626 138.394 140.598 137.532 141.729 136.699C143.986 135.031 146.894 133.499 150.384 132.433C153.877 131.371 157.918 130.794 162.342 130.566C164.556 130.453 166.867 130.414 169.273 130.454C171.67 130.512 174.228 130.848 176.562 132.05C177.721 132.647 178.793 133.481 179.647 134.533C180.494 135.591 181.105 136.854 181.474 138.197C182.202 140.899 182.051 143.849 181.38 146.709C179.732 152.348 177.918 158.262 176.052 164.497C161.029 214.333 140.278 283.169 117.358 359.197C116.742 361.238 116.128 363.275 115.56 365.156L115.518 365.297H115.371C113.03 365.297 110.855 365.297 108.762 365.297H108.496L108.573 365.042C130.658 291.766 150.482 225.993 164.785 178.534C166.576 172.603 168.281 166.958 169.892 161.62C170.698 158.952 171.481 156.359 172.24 153.847C172.619 152.591 172.993 151.355 173.36 150.139C173.708 148.917 174.133 147.742 174.39 146.546C174.938 144.184 175.119 141.73 174.347 139.6C173.958 138.547 173.284 137.624 172.403 137.003C171.526 136.369 170.474 136.07 169.44 135.974C165.266 135.61 161.407 135.812 157.995 136.24C156.289 136.471 154.685 136.769 153.229 137.219C151.757 137.628 150.482 138.288 149.318 138.911C147.036 140.262 145.358 141.782 144.113 143.092C142.872 144.412 142.058 145.534 141.53 146.296C141.007 147.062 140.77 147.476 140.77 147.476C140.77 147.476 140.984 147.048 141.498 146.274C142.015 145.503 142.821 144.371 144.056 143.039C145.296 141.717 146.972 140.18 149.26 138.812C150.428 138.18 151.709 137.51 153.191 137.092C154.655 136.634 156.264 136.329 157.975 136.091C161.4 135.651 165.258 135.436 169.461 135.791C170.51 135.886 171.603 136.19 172.513 136.845C173.429 137.487 174.131 138.446 174.534 139.528C175.333 141.719 175.147 144.208 174.601 146.593C174.344 147.802 173.918 148.984 173.573 150.205C173.209 151.422 172.837 152.66 172.46 153.917C171.706 156.431 170.928 159.024 170.126 161.694C168.523 167.034 166.828 172.682 165.046 178.615C150.772 226.083 130.99 291.867 108.951 365.156L108.761 364.902C110.854 364.902 113.029 364.902 115.37 364.902L115.181 365.042C115.749 363.161 116.364 361.124 116.979 359.083C139.942 283.068 160.732 214.243 175.783 164.416C177.657 158.189 179.486 152.258 181.135 146.649C181.803 143.825 181.955 140.908 181.245 138.258C180.885 136.942 180.291 135.708 179.469 134.676C178.638 133.649 177.595 132.833 176.461 132.245C174.176 131.061 171.647 130.721 169.269 130.658C166.871 130.613 164.561 130.645 162.352 130.753C157.937 130.968 153.91 131.533 150.429 132.579C146.953 133.628 144.052 135.142 141.799 136.792C140.67 137.616 139.699 138.469 138.863 139.302C138.043 140.151 137.349 140.967 136.786 141.739C135.649 143.279 134.99 144.594 134.588 145.486C134.37 145.926 134.252 146.279 134.151 146.506C134.056 146.738 134.003 146.852 134.003 146.852Z" fill="#222222"/>
<path d="M168.294 364.299L168.151 183.908H162.76C163.108 185.143 162.76 364.299 162.76 364.299H168.294Z" fill="#E0E0E0"/>
<path d="M113.48 255.165L112.967 270.169C112.967 270.169 128.045 275.729 128.22 278.511L99.0927 278.561L99 265.052L113.48 255.165Z" fill="#222222"/>
<path d="M103.957 268.922C103.394 269.077 103.006 269.712 103.137 270.281C103.268 270.85 103.911 271.251 104.477 271.106C105.043 270.96 105.533 270.213 105.338 269.662C105.143 269.111 104.364 268.682 103.849 268.959" fill="#E0E0E0"/>
<path d="M99.1035 278.561L99.1795 276.2L127.078 277.035C127.078 277.035 128.376 277.597 128.231 278.511L99.1035 278.561Z" fill="#222222"/>
<path d="M113.449 270.02C113.444 270.162 112.734 270.228 112.034 270.686C111.323 271.126 110.964 271.743 110.833 271.687C110.701 271.66 110.913 270.809 111.768 270.269C112.62 269.721 113.48 269.89 113.449 270.02Z" fill="white"/>
<path d="M116.506 271.278C116.539 271.415 115.923 271.659 115.441 272.261C114.942 272.849 114.821 273.499 114.679 273.493C114.545 273.516 114.445 272.683 115.059 271.946C115.666 271.203 116.503 271.142 116.506 271.278Z" fill="white"/>
<path d="M118.234 274.932C118.105 274.962 117.906 274.252 118.27 273.473C118.629 272.691 119.298 272.382 119.359 272.501C119.44 272.618 119.009 273.036 118.72 273.681C118.415 274.318 118.376 274.917 118.234 274.932Z" fill="white"/>
<path d="M113.188 266.588C113.129 266.718 112.476 266.522 111.672 266.578C110.867 266.618 110.241 266.889 110.168 266.767C110.085 266.664 110.695 266.137 111.643 266.084C112.589 266.024 113.257 266.476 113.188 266.588Z" fill="white"/>
<path d="M125.029 225.71L124.11 240.079C124.11 240.079 138.406 245.839 138.494 248.511L110.57 247.728L111.085 225.281L125.029 225.71Z" fill="#222222"/>
<path d="M115.507 238.626C114.962 238.758 114.573 239.356 114.683 239.905C114.793 240.455 115.396 240.858 115.944 240.734C116.49 240.611 116.981 239.909 116.81 239.375C116.639 238.841 115.904 238.407 115.402 238.658" fill="#E0E0E0"/>
<path d="M110.574 247.728L110.715 245.468L137.436 247.064C137.436 247.064 138.664 247.639 138.499 248.511L110.574 247.728Z" fill="#222222"/>
<path d="M124.566 239.948C124.557 240.085 123.873 240.128 123.191 240.547C122.496 240.949 122.134 241.53 122.01 241.472C121.886 241.443 122.112 240.633 122.948 240.139C123.779 239.639 124.599 239.825 124.566 239.948Z" fill="white"/>
<path d="M127.459 241.242C127.487 241.375 126.89 241.59 126.411 242.154C125.915 242.704 125.78 243.324 125.644 243.314C125.516 243.332 125.444 242.531 126.053 241.841C126.657 241.147 127.46 241.112 127.459 241.242Z" fill="white"/>
<path d="M129.019 244.794C128.894 244.819 128.723 244.133 129.095 243.396C129.46 242.656 130.112 242.38 130.166 242.495C130.24 242.609 129.815 242.998 129.52 243.608C129.21 244.21 129.155 244.785 129.019 244.794Z" fill="white"/>
<path d="M124.415 236.651C124.354 236.773 123.734 236.568 122.962 236.599C122.189 236.614 121.582 236.856 121.514 236.737C121.438 236.636 122.038 236.148 122.948 236.124C123.857 236.094 124.485 236.546 124.415 236.651Z" fill="white"/>
<path d="M127.134 166.416C127.518 167.006 126.367 217.942 126.175 223.055C125.983 228.169 115.537 268.037 115.537 268.037L98.0198 266.856C98.0198 266.856 103.355 226.989 103.739 225.415C104.123 223.842 104.314 219.908 104.314 219.318C104.314 218.729 99.0055 179.154 99.0055 179.154C99.0055 179.154 92.9384 169.684 92.3631 166.931C91.7878 164.177 92.6808 148.264 92.6808 148.264L125.216 152.649L127.134 166.416Z" fill="#222222"/>
<path d="M141.726 190.359C141.726 188.381 141.275 186.435 140.406 184.669C138.461 180.712 132.783 170 131.016 167.49C128.524 163.95 123.614 153.826 123.614 153.826L107.506 165.429L119.217 194.339L111.506 234.249L128.682 237.661L141.169 194.117C141.538 192.901 141.726 191.634 141.726 190.359Z" fill="#222222"/>
<path d="M129.022 169.84C129.015 169.84 129.006 169.927 128.996 170.097C128.986 170.287 128.974 170.536 128.957 170.851C128.93 171.538 128.893 172.511 128.845 173.752C128.76 176.295 128.639 179.935 128.49 184.423C128.34 188.935 128.163 194.297 127.966 200.249C127.857 203.227 127.743 206.352 127.624 209.592C127.477 212.825 127.387 216.199 127.082 219.597C126.461 222.952 125.639 226.226 124.909 229.38C124.15 232.533 123.418 235.574 122.72 238.472C121.305 244.257 120.031 249.468 118.958 253.854C117.892 258.215 117.027 261.753 116.423 264.225C116.134 265.433 115.909 266.38 115.749 267.048C115.68 267.356 115.624 267.599 115.583 267.784C115.547 267.951 115.532 268.037 115.538 268.038C115.545 268.04 115.573 267.957 115.621 267.794C115.671 267.61 115.738 267.37 115.823 267.066C116 266.402 116.249 265.461 116.568 264.26C117.2 261.796 118.105 258.268 119.221 253.919C120.316 249.539 121.618 244.334 123.062 238.556C123.767 235.658 124.506 232.618 125.273 229.467C126.009 226.303 126.83 223.058 127.461 219.648C127.771 216.196 127.854 212.851 127.998 209.607C128.109 206.367 128.216 203.24 128.318 200.261C128.484 194.308 128.634 188.944 128.76 184.431C128.858 179.942 128.938 176.301 128.994 173.757C129.011 172.515 129.025 171.541 129.034 170.854C129.034 170.538 129.035 170.289 129.035 170.099C129.032 169.928 129.028 169.84 129.022 169.84Z" fill="#222222"/>
<path d="M117.993 113.593C119.638 115.42 133.524 130.993 133.524 130.993L153.73 131.679L154.486 139.013C154.486 139.013 135.165 143.812 130.177 143.689C125.188 143.565 121.956 139.022 121.956 139.022L112.32 125.851L117.993 113.593Z" fill="#FFBE9D"/>
<path d="M122.434 69.3995C121.984 68.6311 121.519 68.0771 120.699 67.745C113.364 64.7726 104.989 65.2096 97.4669 67.6523C95.5129 68.2869 93.4267 69.2065 92.5352 71.0738L92.5261 71.1977C92.1522 72.4144 92.7944 73.9489 93.7376 74.7955C94.6807 75.6421 95.9188 76.067 97.1416 76.3816C102.96 77.8788 109.102 77.3324 115.014 76.2783C116.401 76.0305 117.794 75.7531 119.096 75.2089C120.398 74.6655 121.614 73.8341 122.415 72.6637C123.095 71.6704 123.043 70.4384 122.434 69.3995Z" fill="#222222"/>
<g opacity="0.3">
<path d="M122.434 69.3995C121.984 68.6311 121.519 68.0771 120.699 67.745C113.364 64.7726 104.989 65.2096 97.4669 67.6523C95.5129 68.2869 93.4267 69.2065 92.5352 71.0738L92.5261 71.1977C92.1522 72.4144 92.7944 73.9489 93.7376 74.7955C94.6807 75.6421 95.9188 76.067 97.1416 76.3816C102.96 77.8788 109.102 77.3324 115.014 76.2783C116.401 76.0305 117.794 75.7531 119.096 75.2089C120.398 74.6655 121.614 73.8341 122.415 72.6637C123.095 71.6704 123.043 70.4384 122.434 69.3995Z" fill="black"/>
</g>
<path d="M97.7217 81.81C96.8621 79.283 96.0124 76.7362 95.6005 74.0983C95.1886 71.4603 95.2312 68.7046 96.1272 66.1897C96.2632 65.8082 97.4306 63.2478 97.8334 63.282C98.1214 63.3063 97.4131 65.6904 97.5621 65.9382C98.9833 68.3048 99.3998 71.1677 99.2158 73.922C99.0319 76.677 98.4931 79.1591 97.7217 81.81Z" fill="#222222"/>
<path d="M119.442 70.5612C119.19 64.3292 114.192 59.3383 107.96 59.089L107.34 59.064C100.646 59.1871 97.0111 64.941 97.3189 71.629L97.7247 93.2366L113.483 98.682L112.89 94.7437C112.89 94.7437 112.894 93.0268 112.903 93.0261C112.903 93.0261 119.363 92.2843 119.699 85.8692C119.863 82.7691 119.678 76.3593 119.442 70.5612Z" fill="#FFBE9D"/>
<path d="M112.902 93.0254C112.902 93.0254 108.846 93.1006 104.643 90.2202C104.643 90.2202 106.46 95.0645 112.889 94.743L112.902 93.0254Z" fill="#FFEF65"/>
<path d="M117.337 76.2688C117.335 76.7537 116.922 77.1512 116.416 77.1588C115.911 77.1656 115.502 76.7796 115.504 76.2947C115.506 75.8098 115.918 75.4116 116.424 75.4047C116.93 75.3971 117.339 75.7839 117.337 76.2688Z" fill="#222222"/>
<path d="M117.965 73.1704C117.847 73.2852 117.173 72.7433 116.186 72.7068C115.201 72.6559 114.457 73.1347 114.355 73.0093C114.304 72.9538 114.428 72.7425 114.753 72.5259C115.072 72.3101 115.61 72.1087 116.225 72.136C116.839 72.1642 117.347 72.4104 117.635 72.6544C117.93 72.8991 118.024 73.1195 117.965 73.1704Z" fill="#222222"/>
<path d="M108.614 76.1946C108.612 76.6795 108.199 77.077 107.693 77.0838C107.188 77.0907 106.779 76.7046 106.781 76.2197C106.784 75.7348 107.196 75.3366 107.702 75.3298C108.208 75.3222 108.617 75.7098 108.614 76.1946Z" fill="#222222"/>
<path d="M108.295 73.1831C108.177 73.2979 107.502 72.7568 106.516 72.7195C105.531 72.6686 104.787 73.1474 104.685 73.022C104.634 72.9665 104.758 72.7552 105.084 72.5386C105.403 72.322 105.941 72.1214 106.555 72.148C107.169 72.1761 107.678 72.4231 107.965 72.6663C108.259 72.9118 108.353 73.1322 108.295 73.1831Z" fill="#222222"/>
<path d="M111.533 80.9054C111.531 80.8492 112.148 80.7678 113.147 80.6804C113.4 80.6645 113.64 80.6242 113.689 80.4539C113.756 80.2746 113.661 79.9987 113.551 79.7008C113.338 79.0822 113.116 78.4331 112.883 77.7529C111.957 74.9804 111.298 72.7057 111.411 72.6693C111.523 72.6328 112.364 74.8505 113.289 77.623C113.511 78.3062 113.724 78.9575 113.926 79.5807C114.009 79.871 114.161 80.2024 114.017 80.5748C113.942 80.7602 113.751 80.8894 113.588 80.9267C113.425 80.9692 113.283 80.9662 113.158 80.9692C112.155 80.9814 111.535 80.9616 111.533 80.9054Z" fill="#222222"/>
<path d="M108.593 81.471C108.754 81.468 108.713 82.5388 109.599 83.3353C110.483 84.134 111.63 84.0596 111.632 84.21C111.644 84.2777 111.37 84.4076 110.887 84.4016C110.414 84.3985 109.73 84.2192 109.188 83.732C108.648 83.2433 108.432 82.6125 108.413 82.1717C108.39 81.7226 108.52 81.4619 108.593 81.471Z" fill="#222222"/>
<path d="M108.388 69.1785C108.28 69.443 107.301 69.2765 106.138 69.3692C104.973 69.4392 104.027 69.7401 103.882 69.4939C103.818 69.3761 103.991 69.1298 104.378 68.8859C104.763 68.6419 105.369 68.4192 106.067 68.3691C106.765 68.3212 107.396 68.4565 107.811 68.645C108.23 68.8342 108.435 69.0531 108.388 69.1785Z" fill="#222222"/>
<path d="M117.69 69.875C117.508 70.0924 116.837 69.8325 116.02 69.7891C115.206 69.7169 114.506 69.8796 114.355 69.6387C114.29 69.5224 114.408 69.302 114.719 69.1021C115.025 68.9022 115.53 68.7495 116.091 68.789C116.652 68.8293 117.13 69.0519 117.405 69.2929C117.686 69.5345 117.772 69.7694 117.69 69.875Z" fill="#222222"/>
<path d="M97.6555 76.4034C97.5483 76.3517 93.2969 74.9221 93.2619 79.3164C93.227 83.7108 97.9716 82.9211 97.9808 82.795C97.9891 82.6696 97.6555 76.4034 97.6555 76.4034Z" fill="#FFBE9D"/>
<path d="M96.3254 81.0379C96.3064 81.0234 96.2486 81.0903 96.1187 81.1488C95.9925 81.2058 95.7751 81.2438 95.5464 81.1557C95.0835 80.9816 94.6982 80.2414 94.6838 79.4495C94.6754 79.0497 94.7628 78.669 94.9072 78.3551C95.044 78.0351 95.2538 77.8117 95.4879 77.7722C95.7204 77.7205 95.8853 77.8618 95.9378 77.9857C95.9955 78.1088 95.9667 78.1962 95.9902 78.2038C96.0024 78.2152 96.0852 78.1309 96.051 77.9492C96.0335 77.8618 95.9826 77.7577 95.88 77.6726C95.7751 77.586 95.6209 77.5411 95.4575 77.5571C95.1185 77.5776 94.8107 77.8869 94.6526 78.232C94.4755 78.5785 94.3684 79.0056 94.3775 79.4548C94.3988 80.3402 94.8449 81.1724 95.4787 81.3616C95.7873 81.4445 96.0457 81.3533 96.1802 81.2507C96.317 81.1443 96.3406 81.0462 96.3254 81.0379Z" fill="#FFEF65"/>
<path d="M116.596 63.2843C117.306 62.8913 115.171 60.5901 113.422 59.7981C110.779 58.6019 106.745 57.867 104.311 58.5593C101.38 59.3931 98.9448 60.8538 97.4749 63.5237C96.0051 66.1935 95.4541 69.3035 95.5422 72.3495C95.5688 73.279 95.6661 74.248 96.1632 75.0339C96.7772 76.0051 97.956 76.6162 97.9051 77.9561C97.8868 78.4463 98.0267 78.9403 98.3626 79.2975C99.1674 80.1525 100.15 79.3476 100.602 78.542C101.566 76.8199 101.672 74.7656 101.755 72.7934C101.815 71.3919 101.87 69.9601 101.474 68.6149C101.258 67.8823 100.912 67.1907 100.738 66.4474C100.563 65.7041 100.585 64.8605 101.047 64.2533C101.122 64.1545 101.246 64.0298 101.403 63.8923C102.647 62.8009 104.389 62.4726 105.949 63.0228C108.424 63.8961 112.651 65.2002 113.754 64.3597C115.341 63.1505 115.72 62.3624 115.72 62.3624L116.596 63.2843Z" fill="#222222"/>
<path d="M119.403 69.9396C119.403 69.9396 116.247 68.1734 112.37 68.2638C101.501 68.5162 95.4088 72.4659 95.4088 72.4659L95.25 69.3028C95.25 69.3028 111.12 65.9869 111.231 65.9808C111.341 65.9755 116.129 66.7499 116.242 66.7887C116.355 66.8274 119.197 67.2629 119.197 67.2629C119.391 68.2061 119.485 69.109 119.403 69.9396Z" fill="#222222"/>
<g opacity="0.6">
<path d="M119.403 69.9396C119.403 69.9396 116.247 68.1734 112.37 68.2638C101.501 68.5162 95.4088 72.4659 95.4088 72.4659L95.25 69.3028C95.25 69.3028 111.12 65.9869 111.231 65.9808C111.341 65.9755 116.129 66.7499 116.242 66.7887C116.355 66.8274 119.197 67.2629 119.197 67.2629C119.391 68.2061 119.485 69.109 119.403 69.9396Z" fill="black"/>
</g>
<path d="M122.865 70.3895C122.865 70.3895 120.014 65.6608 107.435 67.4438C94.2367 69.3149 92.548 72.8573 92.548 72.8573C92.548 72.8573 91.6109 69.85 93.7511 68.3003C93.7511 68.3003 93.5314 62.7348 97.2144 58.2356C98.5315 56.6267 100.954 55.2139 101.453 54.7814L101.513 53.8953C101.513 53.8953 102.416 52.8145 106.885 52.6245C111.502 52.4277 112.462 53.8489 112.462 53.8489L112.584 54.637C112.584 54.637 119.776 57.769 120.565 66.9346C120.565 66.9346 123.111 68.5503 122.865 70.3895Z" fill="#222222"/>
<g opacity="0.3">
<path d="M101.513 53.8945C102.272 54.7549 103.584 56.2376 103.846 57.5083C104.107 58.779 104.173 60.0969 104.237 61.4048C103.364 57.1306 102.727 56.531 101.453 54.7807L101.513 53.8945Z" fill="black"/>
</g>
<path d="M93.754 68.2997C93.7502 68.2906 93.8353 68.2457 94.0025 68.169C94.2024 68.0816 94.4456 67.9744 94.739 67.846C95.0589 67.7039 95.4541 67.542 95.9246 67.3839C96.3943 67.2243 96.9209 67.0138 97.5236 66.8489C99.9115 66.1223 103.297 65.3448 107.102 65.0423C110.904 64.7034 114.387 64.9306 116.836 65.4657C117.442 65.6222 117.993 65.7628 118.464 65.9217C118.927 66.1086 119.333 66.2469 119.647 66.4027C119.927 66.5623 120.158 66.6938 120.349 66.8025C120.507 66.8967 120.587 66.9499 120.581 66.9583C120.576 66.9666 120.486 66.9309 120.318 66.8542C120.123 66.7599 119.886 66.6459 119.599 66.5076C119.282 66.3701 118.874 66.2485 118.413 66.079C117.943 65.9369 117.395 65.8122 116.793 65.6701C114.359 65.1936 110.906 65.0013 107.127 65.338C103.344 65.6389 99.9739 66.3784 97.5837 67.0503C96.9802 67.2015 96.452 67.3968 95.9793 67.5412C95.5058 67.6833 95.1061 67.8293 94.7815 67.9539C94.4806 68.0618 94.2313 68.1507 94.0261 68.2244C93.8513 68.283 93.7578 68.3096 93.754 68.2997Z" fill="#222222"/>
<path d="M101.512 53.8945C101.543 53.8679 101.872 54.1818 102.382 54.7138C102.88 55.2405 103.612 56.0362 103.961 57.1503C104.32 58.2409 104.384 59.2852 104.365 60.0247C104.345 60.7672 104.256 61.2186 104.219 61.2148C104.175 61.2118 104.189 60.7558 104.155 60.027C104.12 59.3004 104.024 58.2911 103.679 57.2438C103.351 56.192 102.686 55.4198 102.225 54.8529C101.757 54.2874 101.48 53.9219 101.512 53.8945Z" fill="#222222"/>
<g opacity="0.3">
<path d="M101.503 56.8957C101.501 56.7019 101.494 56.4906 101.375 56.3447C101.257 56.1995 101.054 56.1608 100.88 56.2018C100.704 56.2428 100.549 56.35 100.401 56.4587C97.2643 58.7562 95.1857 62.6322 94.8855 66.6928C94.8711 66.8912 95.074 67.0204 95.2351 66.9216C96.6859 66.0309 98.2515 65.4434 99.8909 65.052C100.428 64.9236 101.208 64.9471 101.426 64.3786C101.556 64.0404 101.555 63.6635 101.552 63.2979C101.535 61.1638 101.52 59.0298 101.503 56.8957Z" fill="white"/>
</g>
<path d="M112.514 59.4485C112.43 59.4409 112.472 58.2835 112.503 56.86C112.538 55.4357 112.548 54.2775 112.633 54.2737C112.712 54.2691 112.835 55.4297 112.8 56.8668C112.769 58.3025 112.594 59.4561 112.514 59.4485Z" fill="#222222"/>
<path d="M120.946 156.428C120.941 156.483 120.156 156.445 118.889 156.394C117.623 156.343 115.874 156.289 113.943 156.305C112.011 156.323 110.263 156.406 108.997 156.48C107.732 156.553 106.948 156.605 106.941 156.549C106.935 156.501 107.71 156.355 108.975 156.213C110.24 156.07 111.996 155.944 113.94 155.925C115.883 155.909 117.641 156.005 118.908 156.126C120.175 156.247 120.951 156.379 120.946 156.428Z" fill="#222222"/>
<path d="M97.13 93.6781C97.13 93.6781 90.7438 101.84 91.9005 119.382C92.9105 134.707 92.7578 137.467 92.7578 137.467L91.7363 168.513L132.038 169.332L127.285 113.703L120.786 101.347L116.669 99.9869L115.495 98.7063C113.669 96.7136 112.983 96.2583 110.372 95.3137L97.6263 92.6529L97.13 93.6781Z" fill="#E0E0E0"/>
<path d="M128.415 119.754L131.687 164.93L91.9507 162.75L92.485 131.8C92.485 131.8 91.2812 114.187 91.9507 107.661C92.7996 99.378 97.6918 92.4636 97.6918 92.4636L110.396 95.3136C105.198 95.3006 100.871 99.2998 100.474 104.483L100.4 105.45C100.256 107.333 100.254 109.23 100.46 111.108C101.816 123.456 108.443 125.552 112.322 125.85C116.079 126.139 119.581 123.929 120.936 120.413L124.479 111.224L128.415 119.754Z" fill="#FFED58"/>
<path d="M130.825 153.058L92.1353 152.01L92.0273 158.238L131.372 160.002L130.825 153.058Z" fill="white"/>
<path d="M130.177 143.688L92.2978 142.199L92.1914 148.731L130.58 149.661L130.177 143.688Z" fill="white"/>
<g opacity="0.3">
<path d="M128.717 123.93L107.23 113.592L128.415 119.338L128.717 123.93Z" fill="black"/>
</g>
<path d="M111.643 98.9876C113.313 98.8964 115.597 99.3927 117.143 100.03L140.373 109.61L152.304 93.0064L159.593 94.9908C159.593 94.9908 150.931 119.91 145.709 123.651C142.019 126.295 131.34 121.64 124.146 119.118C120.181 117.729 114.015 116.528 109.945 114.643L105.854 101.774C106.928 100.106 109.052 99.1297 111.643 98.9876Z" fill="#FFBE9D"/>
<path d="M151.045 84.4465C152.043 84.8068 152.537 85.8442 152.599 87.0716C152.66 88.299 153.8 88.5437 153.8 88.5437C153.8 88.5437 156.017 85.3555 156.761 83.6759C157.505 81.9963 158.651 78.3589 159.626 77.6818C160.6 77.0038 161.542 77.2934 161.027 78.5352C160.513 79.7771 159.117 83.9715 159.475 84.2664C159.833 84.562 164.441 78.6872 165.069 78.8803C165.697 79.0733 166.797 79.7026 165.444 80.9239C164.09 82.1452 161.761 85.3388 161.761 85.3388C161.761 85.3388 166.654 81.1109 167.146 82.0024C167.638 82.8938 167.144 83.2966 166.355 84.0574C165.566 84.8182 162.813 88.3567 162.813 88.3567C162.813 88.3567 167.148 85.1731 167.711 86.0068C168.273 86.8405 168.318 87.0389 167.414 87.659C166.51 88.2792 159.228 95.6292 158.946 95.8594C158.664 96.0897 155.979 98.2808 155.979 98.2808L151.836 94.1479L151.416 92.368C151.416 92.368 150.098 88.0375 150.241 86.6285C150.383 85.221 150.046 84.0863 151.045 84.4465Z" fill="#FFBE9D"/>
<path d="M129.385 123.08L133.676 105.521C133.676 105.521 118.928 98.92 116.148 97.8461C112.288 96.355 106.322 97.8339 105.043 101.015C101.063 110.914 109.284 115.173 109.284 115.173L129.385 123.08Z" fill="#E0E0E0"/>
<path d="M109.282 115.172C109.276 115.185 109.118 115.121 108.833 114.97C108.551 114.814 108.137 114.575 107.643 114.211C106.677 113.484 105.245 112.309 104.262 110.305C103.188 108.348 103.047 105.486 104.06 102.741C104.362 102.075 104.632 101.384 105.012 100.707C105.417 100.033 105.989 99.4519 106.646 98.9913C107.956 98.052 109.55 97.4774 111.219 97.2183C112.891 96.9743 114.59 97.0738 116.107 97.6279C117.557 98.242 118.935 98.8659 120.257 99.4451C122.884 100.612 125.255 101.667 127.263 102.559C129.217 103.443 130.814 104.165 131.971 104.689C132.492 104.934 132.914 105.132 133.242 105.286C133.531 105.427 133.68 105.507 133.675 105.519C133.669 105.531 133.509 105.476 133.21 105.359C132.875 105.223 132.443 105.047 131.909 104.83C130.741 104.336 129.128 103.652 127.154 102.817C125.138 101.948 122.758 100.922 120.122 99.7848C118.799 99.2133 117.412 98.6136 115.974 97.9927C114.533 97.4713 112.895 97.3748 111.278 97.6104C109.666 97.8597 108.121 98.4168 106.874 99.3067C106.246 99.7422 105.711 100.286 105.337 100.903C104.977 101.537 104.701 102.228 104.403 102.87C103.405 105.533 103.508 108.269 104.515 110.184C105.434 112.142 106.81 113.334 107.737 114.089C108.212 114.467 108.608 114.724 108.874 114.901C109.143 115.073 109.288 115.16 109.282 115.172Z" fill="#222222"/>
<path d="M121.525 65.47C121.215 64.7374 120.476 64.2517 119.701 64.0731C118.794 63.8649 117.806 64.0359 117.022 64.5367C116.239 65.0376 115.669 65.8629 115.477 66.7727C115.008 66.5226 114.4 66.5568 113.962 66.8585C113.523 67.1595 113.314 67.6664 113.378 68.1946L112.443 68.2531C112.649 69.0739 113.827 69.5261 114.631 69.7914C115.434 70.0559 116.368 69.8811 117.021 69.3437C117.4 70.4883 118.867 71.1244 119.962 70.6183C121.056 70.1129 121.523 68.583 120.898 67.5524C121.598 67.1747 121.835 66.2027 121.525 65.47Z" fill="#222222"/>
<path d="M142.542 115.234C142.439 115.27 141.917 114.04 141.376 112.487C140.835 110.934 140.481 109.646 140.584 109.61C140.688 109.574 141.21 110.804 141.75 112.358C142.291 113.91 142.645 115.198 142.542 115.234Z" fill="#FFEF65"/>
<path d="M170.962 130.54C170.962 130.54 166.684 127.779 164.279 127.881C161.874 127.983 153.732 131.679 153.732 131.679L154.488 139.013L162.931 140.275C164.508 140.415 166.019 139.607 166.779 138.218L167.665 135.775C165.71 135.68 164.341 135.657 162.761 135.756C162.761 135.756 163.837 131.598 165.528 130.993C167.219 130.389 170.962 130.54 170.962 130.54Z" fill="#FFBE9D"/>
<path d="M163.394 133.799C163.511 133.816 163.444 134.444 163.167 135.12C162.893 135.794 162.672 136.314 162.571 136.299C162.453 136.282 162.521 135.654 162.798 134.978C163.072 134.304 163.293 133.783 163.394 133.799Z" fill="#FFEF65"/>
<path d="M234.149 166.65C233.949 166.487 232.972 159.457 234.623 157.177C236.274 154.897 243.389 153.384 243.389 153.384C243.389 153.384 245.611 150.832 247.138 149.807C247.653 149.462 248.338 149.525 248.773 149.968C248.773 149.968 249.368 148.974 250.135 149.564C250.445 149.804 249.198 153.941 248.152 155.132C247.106 156.322 242.969 159.241 242.969 159.241L241.367 160.868L242.146 166.852L234.149 166.65Z" fill="#FFBE9D"/>
<path d="M242.96 156.026C242.955 156.148 241.22 155.692 239.312 156.495C237.397 157.285 236.501 158.838 236.411 158.756C236.369 158.734 236.525 158.321 236.965 157.768C237.399 157.219 238.153 156.549 239.16 156.129C240.165 155.71 241.172 155.646 241.868 155.724C242.571 155.801 242.973 155.98 242.96 156.026Z" fill="#FFEF65"/>
<path d="M265.273 211.326C264.637 210.112 247.014 192.493 247.014 192.493L241.929 164.586L232.582 166.027C232.582 166.027 234.956 195.485 235.884 198.717C236.811 201.949 259.009 221.652 259.194 221.823C259.38 221.995 265.273 211.326 265.273 211.326Z" fill="#E0E0E0"/>
<g opacity="0.3">
<path d="M253.441 216.719L257.567 213.973L253.601 202.063L263.584 212.277L263.023 215.541L255.708 218.737L253.441 216.719Z" fill="black"/>
</g>
<path d="M265.752 83.8492H181.826V154.389H265.752V83.8492Z" fill="#222222"/>
<g opacity="0.3">
<path d="M207.76 83.8492H181.826V154.389H207.76V83.8492Z" fill="black"/>
</g>
<g opacity="0.3">
<path d="M239.021 128.388H234.069V136.915H224.992V104.824H239.662C242.566 104.824 245.088 105.305 247.227 106.268C249.366 107.231 251.016 108.606 252.179 110.394C253.339 112.181 253.921 114.283 253.921 116.697C253.921 119.021 253.377 121.045 252.293 122.772C251.208 124.499 249.656 125.851 247.639 126.829L254.562 136.915H244.843L239.021 128.388ZM243.33 113.214C242.383 112.389 240.977 111.976 239.112 111.976H234.069V121.374H239.112C240.977 121.374 242.383 120.969 243.33 120.159C244.277 119.35 244.751 118.196 244.751 116.698C244.751 115.201 244.277 114.039 243.33 113.214Z" fill="black"/>
</g>
<path d="M235.373 128.388H230.42V136.915H221.344V104.824H236.014C238.917 104.824 241.44 105.305 243.578 106.268C245.717 107.231 247.368 108.606 248.53 110.394C249.691 112.181 250.272 114.283 250.272 116.697C250.272 119.021 249.729 121.045 248.644 122.772C247.559 124.499 246.008 125.851 243.991 126.829L250.914 136.915H241.194L235.373 128.388ZM239.682 113.214C238.734 112.389 237.328 111.976 235.464 111.976H230.42V121.374H235.464C237.328 121.374 238.734 120.969 239.682 120.159C240.629 119.35 241.103 118.196 241.103 116.698C241.103 115.201 240.629 114.039 239.682 113.214Z" fill="white"/>
<path d="M207.762 144.46C207.653 144.46 207.564 131.051 207.564 114.513C207.564 97.9693 207.653 84.5629 207.762 84.5629C207.871 84.5629 207.96 97.9693 207.96 114.513C207.96 131.051 207.871 144.46 207.762 144.46Z" fill="#222222"/>
<path d="M250.448 226.69C250.448 226.69 238.63 253.844 237.736 259.924V262.4L242.894 265.258L250.852 241.667L250.448 226.69Z" fill="#FFED58"/>
<path d="M231.214 345.877L236.033 356.436L236.086 357.497C236.086 357.497 223.259 362.971 223.158 365.568L248.126 365.057L248.041 358.232L243.684 345.585L231.214 345.877Z" fill="#222222"/>
<path d="M243.777 356.162C244.262 356.296 244.607 356.879 244.504 357.413C244.401 357.946 243.858 358.332 243.37 358.207C242.882 358.082 242.45 357.395 242.607 356.878C242.764 356.36 243.425 355.945 243.871 356.194" fill="#E0E0E0"/>
<path d="M248.121 365.056L248.014 362.857L224.115 364.17C224.115 364.17 223.012 364.719 223.153 365.568L248.121 365.056Z" fill="#222222"/>
<path d="M235.669 357.367C235.675 357.5 236.286 357.548 236.893 357.962C237.51 358.358 237.829 358.927 237.94 358.872C238.052 358.844 237.857 358.055 237.114 357.568C236.374 357.073 235.64 357.247 235.669 357.367Z" fill="white"/>
<path d="M233.075 358.599C233.049 358.728 233.581 358.943 234.005 359.495C234.444 360.034 234.559 360.638 234.68 360.63C234.795 360.649 234.866 359.87 234.327 359.194C233.793 358.513 233.075 358.472 233.075 358.599Z" fill="white"/>
<path d="M231.642 362.039C231.753 362.065 231.912 361.399 231.586 360.679C231.265 359.957 230.685 359.682 230.635 359.794C230.568 359.905 230.945 360.286 231.204 360.882C231.476 361.47 231.52 362.028 231.642 362.039Z" fill="white"/>
<path d="M279.929 345.877L284.747 356.436L284.801 357.497C284.801 357.497 271.974 362.971 271.873 365.568L296.841 365.057L296.755 358.232L292.398 345.585L279.929 345.877Z" fill="#222222"/>
<path d="M292.494 356.162C292.979 356.296 293.323 356.879 293.221 357.413C293.118 357.946 292.575 358.333 292.087 358.207C291.599 358.083 291.167 357.395 291.324 356.878C291.481 356.36 292.142 355.945 292.588 356.194" fill="#E0E0E0"/>
<path d="M296.84 365.056L296.733 362.857L272.834 364.17C272.834 364.17 271.731 364.719 271.872 365.568L296.84 365.056Z" fill="#222222"/>
<path d="M284.399 357.367C284.405 357.5 285.016 357.548 285.624 357.962C286.241 358.359 286.56 358.927 286.672 358.872C286.783 358.844 286.588 358.055 285.845 357.568C285.105 357.073 284.37 357.247 284.399 357.367Z" fill="white"/>
<path d="M281.802 358.599C281.776 358.728 282.308 358.942 282.732 359.495C283.17 360.034 283.285 360.638 283.407 360.63C283.522 360.649 283.593 359.87 283.053 359.194C282.52 358.513 281.802 358.472 281.802 358.599Z" fill="white"/>
<path d="M280.361 362.039C280.471 362.065 280.63 361.399 280.304 360.68C279.984 359.957 279.404 359.683 279.354 359.793C279.287 359.904 279.664 360.286 279.923 360.882C280.195 361.47 280.239 362.029 280.361 362.039Z" fill="white"/>
<path d="M268.885 258.499C271.281 263.807 278.373 272.794 271.716 284.116L278.209 308.872C278.209 308.872 284.606 325.178 287.297 330.641C289.988 336.105 295.228 353.035 295.228 353.035L280.655 356.174C280.655 356.174 264.039 323.277 260.81 317.625C257.58 311.974 245.111 292.199 242.68 277.108C240.147 261.387 243.504 254.977 243.504 254.977L268.885 247.859V258.499H268.885Z" fill="#222222"/>
<path d="M249.844 289.628L233.882 308.981L247.281 351.18L231.092 354.619C231.092 354.054 216.377 312.872 214.503 305.788C213.448 301.8 222.692 287.237 227.033 281.848C230.426 277.636 237.432 269.258 237.97 268.693C238.508 268.128 241.844 262.936 241.844 262.936L249.844 289.628Z" fill="#222222"/>
<path d="M241.27 265.258C241.249 265.259 241.252 265.654 241.274 266.369C241.292 267.083 241.355 268.115 241.463 269.388C241.679 271.933 242.151 275.438 243.028 279.225C243.91 283.011 245.017 286.342 245.919 288.701C246.369 289.881 246.756 290.826 247.043 291.468C247.327 292.113 247.493 292.464 247.512 292.455C247.531 292.446 247.4 292.076 247.149 291.417C246.894 290.76 246.539 289.803 246.114 288.616C245.265 286.242 244.194 282.914 243.316 279.146C242.444 275.377 241.941 271.895 241.672 269.364C241.537 268.098 241.443 267.072 241.39 266.36C241.332 265.65 241.29 265.257 241.27 265.258Z" fill="#222222"/>
<path d="M227.467 307.51C227.461 307.608 228.958 307.721 230.726 308.252C232.499 308.771 233.84 309.501 233.881 309.413C233.921 309.345 232.616 308.471 230.805 307.94C228.997 307.398 227.464 307.43 227.467 307.51Z" fill="#222222"/>
<g opacity="0.3">
<path d="M245.488 294.91C245.488 294.91 242.536 283.36 242.929 278.352C242.929 278.352 244.966 288.581 247.512 292.455L245.488 294.91Z" fill="black"/>
</g>
<path d="M280.503 356.203C280.488 356.209 280.706 356.176 281.078 356.108C281.517 356.024 282.045 355.924 282.662 355.807C284.071 355.522 285.879 355.157 287.879 354.753C289.915 354.329 291.756 353.932 293.086 353.629C293.751 353.477 294.287 353.35 294.657 353.254C295.028 353.158 295.23 353.096 295.227 353.074C295.223 353.052 295.013 353.073 294.636 353.13C294.26 353.188 293.717 353.281 293.047 353.404C291.707 353.649 289.86 354.011 287.823 354.435C285.787 354.858 283.948 355.265 282.621 355.583C281.299 355.901 280.466 356.131 280.503 356.203Z" fill="#222222"/>
<path d="M232.558 354.309C232.543 354.315 232.761 354.282 233.132 354.214C233.572 354.13 234.1 354.03 234.717 353.913C236.127 353.628 237.935 353.263 239.934 352.859C241.97 352.435 243.811 352.038 245.141 351.735C245.806 351.584 246.343 351.456 246.713 351.36C247.083 351.264 247.286 351.202 247.282 351.18C247.278 351.158 247.069 351.179 246.692 351.237C246.315 351.294 245.772 351.387 245.102 351.511C243.763 351.756 241.916 352.118 239.879 352.542C237.843 352.965 236.004 353.372 234.676 353.689C233.354 354.006 232.521 354.237 232.558 354.309Z" fill="#222222"/>
<path d="M294.458 204.141C293.837 202.355 292.114 200.815 290.234 201.017L283.121 203.447C281.933 205.862 282.571 209.039 284.6 210.808C286.629 212.576 289.864 212.774 292.094 211.266C294.323 209.758 295.344 206.682 294.458 204.141Z" fill="#222222"/>
<path d="M296.983 194.783C296.902 193.906 296.709 193.203 296.081 192.516C290.463 186.368 282.327 182.62 274.099 181.003C271.961 180.583 269.571 180.341 267.887 181.497L267.822 181.598C266.921 182.453 266.84 184.08 267.354 185.267C267.868 186.454 268.851 187.426 269.869 188.297C274.712 192.439 280.781 194.996 286.858 197.005C288.284 197.476 289.731 197.925 291.209 198.101C292.687 198.277 294.214 198.167 295.499 197.561C296.589 197.047 297.094 195.97 296.983 194.783Z" fill="#FFED58"/>
<g opacity="0.3">
<path d="M296.983 194.783C296.902 193.906 296.709 193.203 296.081 192.516C290.463 186.368 282.327 182.62 274.099 181.003C271.961 180.583 269.571 180.341 267.887 181.497L267.822 181.598C266.921 182.453 266.84 184.08 267.354 185.267C267.868 186.454 268.851 187.426 269.869 188.297C274.712 192.439 280.781 194.996 286.858 197.005C288.284 197.476 289.731 197.925 291.209 198.101C292.687 198.277 294.214 198.167 295.499 197.561C296.589 197.047 297.094 195.97 296.983 194.783Z" fill="black"/>
</g>
<path d="M295.414 188.176C294.337 183.605 291.668 179.97 287.482 177.839C285.121 176.637 283.894 176.65 281.954 176.275C280.014 175.9 278.018 176.064 276.286 177.015C274.229 178.146 272.266 179.578 271.011 181.562C269.723 183.6 268.427 185.653 267.534 187.892C266.641 190.131 266.164 192.593 266.579 194.969L271.609 198.609C274.594 200.196 277.623 201.8 280.919 202.552C284.214 203.305 287.865 203.118 290.716 201.3C294.676 198.775 296.49 192.747 295.414 188.176Z" fill="#222222"/>
<path d="M290.541 185.75L284.637 179.257L282.614 178.544C278.299 176.455 273.007 179.753 271.275 183.228C269.349 187.088 267.152 191.877 266.371 195.034C264.802 201.383 269.471 204.257 269.471 204.257C269.471 204.257 269.343 204.407 268.364 206.318L270.717 213.834L280.124 210.654L291.516 188.662C291.997 187.586 291.573 186.321 290.541 185.75Z" fill="#FFBE9D"/>
<path d="M275.644 197.901C275.752 197.579 275.715 197.229 275.59 196.94C275.341 196.363 274.731 196.021 274.117 196.113C273.503 196.206 272.921 196.727 272.713 197.374C272.797 197.855 273.075 198.287 273.493 198.538C273.559 198.577 273.626 198.612 273.695 198.644C274.03 198.798 274.421 198.85 274.794 198.729C275.165 198.608 275.511 198.298 275.644 197.901Z" fill="#FFEF65"/>
<path d="M271.242 188.213C271.057 188.611 271.242 189.094 271.652 189.294C272.062 189.494 272.544 189.335 272.729 188.938C272.914 188.542 272.73 188.057 272.319 187.858C271.909 187.658 271.426 187.816 271.242 188.213Z" fill="#222222"/>
<path d="M271.64 185.807C271.692 185.947 272.451 185.763 273.271 186.112C274.096 186.448 274.52 187.126 274.652 187.063C274.714 187.037 274.693 186.816 274.512 186.515C274.334 186.215 273.971 185.844 273.459 185.63C272.946 185.416 272.436 185.423 272.108 185.511C271.774 185.599 271.612 185.743 271.64 185.807Z" fill="#222222"/>
<path d="M273.716 194.59C273.739 194.546 273.266 194.242 272.484 193.786C272.283 193.676 272.102 193.551 272.127 193.393C272.142 193.22 272.325 193.031 272.53 192.83C272.942 192.406 273.373 191.962 273.825 191.496C275.646 189.586 277.06 187.98 276.982 187.908C276.905 187.835 275.365 189.324 273.544 191.233C273.1 191.706 272.676 192.157 272.272 192.589C272.092 192.794 271.841 193.006 271.815 193.366C271.805 193.547 271.912 193.725 272.03 193.818C272.147 193.916 272.264 193.968 272.365 194.018C273.179 194.414 273.693 194.636 273.716 194.59Z" fill="#222222"/>
<path d="M269.466 204.247C269.466 204.247 273.36 206.196 278.333 205.487C278.333 205.487 274.468 208.715 268.748 205.642L269.466 204.247Z" fill="#FFEF65"/>
<path d="M275.892 196.179C275.762 196.115 275.383 197.005 274.353 197.316C273.324 197.629 272.416 197.127 272.356 197.249C272.32 197.3 272.495 197.511 272.891 197.691C273.278 197.871 273.906 197.987 274.536 197.798C275.165 197.606 275.584 197.173 275.769 196.82C275.961 196.463 275.955 196.2 275.892 196.179Z" fill="#222222"/>
<path d="M273.283 183.139C273.336 183.399 274.021 183.53 274.73 183.901C275.451 184.25 275.966 184.723 276.204 184.611C276.313 184.553 276.316 184.324 276.146 184.014C275.981 183.707 275.625 183.339 275.134 183.091C274.642 182.844 274.136 182.778 273.793 182.829C273.444 182.878 273.264 183.017 273.283 183.139Z" fill="#222222"/>
<path d="M279.648 192.253C279.477 192.656 278.995 192.844 278.571 192.672C278.147 192.502 277.942 192.038 278.113 191.634C278.284 191.231 278.767 191.043 279.19 191.214C279.614 191.386 279.819 191.851 279.648 192.253Z" fill="#222222"/>
<path d="M282.616 190.786C282.477 190.841 282.105 190.154 281.296 189.778C280.494 189.392 279.707 189.53 279.666 189.39C279.643 189.327 279.821 189.194 280.167 189.127C280.508 189.058 281.026 189.079 281.529 189.316C282.03 189.554 282.367 189.937 282.522 190.24C282.68 190.547 282.682 190.764 282.616 190.786Z" fill="#222222"/>
<path d="M283.387 187.989C283.142 188.098 282.608 187.617 281.863 187.257C281.129 186.875 280.422 186.733 280.365 186.474C280.344 186.35 280.53 186.214 280.888 186.17C281.243 186.125 281.765 186.196 282.274 186.451C282.782 186.706 283.15 187.081 283.323 187.39C283.5 187.702 283.498 187.932 283.387 187.989Z" fill="#222222"/>
<path d="M285.763 197.915C285.951 197.473 286.905 196.645 287.371 196.761C288.617 197.072 290.683 198.056 289.449 201.032C287.762 205.1 284.026 202.567 284.067 202.448C284.099 202.354 285.113 199.444 285.763 197.915Z" fill="#FFBE9D"/>
<path d="M285.807 201.427C285.83 201.422 285.857 201.506 285.954 201.611C286.049 201.712 286.235 201.833 286.48 201.841C286.975 201.861 287.62 201.329 287.943 200.604C288.107 200.237 288.176 199.853 288.166 199.507C288.165 199.158 288.059 198.87 287.858 198.742C287.664 198.602 287.457 198.669 287.36 198.762C287.258 198.853 287.25 198.945 287.226 198.943C287.21 198.948 287.167 198.839 287.269 198.685C287.319 198.611 287.407 198.534 287.535 198.496C287.666 198.457 287.826 198.476 287.97 198.555C288.275 198.707 288.437 199.113 288.449 199.493C288.477 199.882 288.408 200.318 288.224 200.729C287.857 201.538 287.12 202.131 286.461 202.057C286.144 202.013 285.941 201.827 285.858 201.68C285.773 201.528 285.789 201.429 285.807 201.427Z" fill="#FFEF65"/>
<path d="M287.528 196.851L286.015 197.401C283.709 191.135 280.314 176.612 280.485 177.462C280.485 177.462 284.05 177.692 287.004 179.815C289.958 181.939 295.281 186.537 293.331 190.292C291.38 194.047 287.528 196.851 287.528 196.851Z" fill="#222222"/>
<path d="M270.551 182.293C270.551 182.293 274.637 182 278.695 183.867C290.068 189.102 294.929 195.576 294.929 195.576C295.243 194.749 295.515 193.673 295.774 192.512C295.774 192.512 280.873 182.714 280.758 182.658C280.644 182.601 275.305 181.085 275.172 181.068C275.038 181.05 271.878 180.128 271.878 180.128L270.551 182.293Z" fill="#222222"/>
<path d="M267.709 181.644C267.709 181.644 270.738 179.099 283.481 185.349C295.869 191.424 296.794 196.224 296.794 196.224C296.794 196.224 297.926 193.909 296.164 191.717C296.164 191.717 298.463 186.86 296.654 181.352C296.006 179.382 294.235 177.134 293.923 176.546L294.199 175.734C294.199 175.734 293.747 174.404 289.571 172.403C285.256 170.336 283.81 171.205 283.81 171.205L283.398 171.856C283.398 171.856 275.386 171.692 271.193 179.515C271.193 179.515 268.166 179.909 267.709 181.644Z" fill="#FFED58"/>
<g opacity="0.3">
<path d="M282.877 174.367C283.345 173.218 283.704 172.117 283.809 171.205L283.397 171.856C282.953 173.649 282.173 175.841 281.295 177.794C281.85 176.659 282.41 175.515 282.877 174.367Z" fill="black"/>
</g>
<g opacity="0.3">
<path d="M294.198 175.733C293.153 176.187 291.349 176.967 290.623 177.989C289.897 179.011 289.34 180.156 288.787 181.291C291.223 177.85 292.054 177.578 293.922 176.545L294.198 175.733Z" fill="black"/>
</g>
<path d="M296.164 191.716C296.157 191.724 296.077 191.662 295.934 191.538C295.767 191.39 295.563 191.208 295.315 190.988C295.052 190.743 294.726 190.45 294.329 190.129C293.933 189.808 293.503 189.417 292.986 189.036C290.965 187.46 288.043 185.426 284.573 183.614C281.117 181.771 277.775 180.527 275.281 179.949C274.655 179.822 274.085 179.715 273.583 179.642C273.078 179.602 272.642 179.545 272.285 179.533C271.956 179.539 271.684 179.543 271.461 179.546C271.272 179.546 271.171 179.541 271.17 179.531C271.168 179.521 271.266 179.506 271.456 179.487C271.68 179.468 271.953 179.445 272.286 179.418C272.647 179.412 273.087 179.453 273.602 179.477C274.111 179.535 274.689 179.629 275.326 179.744C277.856 180.274 281.237 181.499 284.712 183.351C288.202 185.173 291.121 187.246 293.119 188.871C293.629 189.265 294.052 189.669 294.439 190.004C294.827 190.337 295.143 190.644 295.395 190.904C295.627 191.141 295.819 191.336 295.976 191.496C296.106 191.633 296.171 191.709 296.164 191.716Z" fill="#222222"/>
<path d="M294.2 175.733C294.217 175.771 293.822 175.981 293.174 176.287C292.533 176.599 291.62 177 290.901 177.794C290.172 178.583 289.694 179.45 289.386 180.088C289.077 180.729 288.92 181.145 288.877 181.131C288.842 181.12 288.928 180.679 289.193 180.004C289.458 179.333 289.922 178.418 290.684 177.593C291.453 176.746 292.434 176.355 293.091 176.095C293.762 175.837 294.183 175.696 294.2 175.733Z" fill="#222222"/>
<path d="M281.444 177.626C281.366 177.586 282.027 176.193 282.678 174.413C283.336 172.635 283.736 171.146 283.82 171.166C283.895 171.182 283.622 172.717 282.957 174.516C282.299 176.316 281.511 177.663 281.444 177.626Z" fill="#222222"/>
<g opacity="0.3">
<path d="M282.518 173.155C282.6 172.987 282.682 172.8 282.635 172.62C282.587 172.44 282.415 172.314 282.235 172.269C282.054 172.224 281.865 172.246 281.681 172.273C277.788 172.828 274.205 175.232 272.195 178.608C272.097 178.773 272.23 178.978 272.422 178.966C274.149 178.858 275.854 179.065 277.543 179.476C278.097 179.61 278.811 179.987 279.256 179.595C279.521 179.362 279.681 179.035 279.834 178.718C280.728 176.863 281.624 175.009 282.518 173.155Z" fill="white"/>
</g>
<path d="M241.693 257.033L249.67 234.07C249.743 228.741 250.547 221.013 256.456 217.37L269.73 209.99L277.838 211.429L280.109 212.277C280.109 212.277 284.487 216.537 282.023 224.34C279.558 232.143 269.23 249.469 269.23 249.469L270.572 254.257C271.219 256.564 269.832 257.926 267.444 258.138L241.953 260.999C239.551 261.211 239.161 259.383 241.693 257.033Z" fill="#E0E0E0"/>
<g opacity="0.3">
<path d="M271.079 208.958C271.079 208.958 259.608 221.14 258.91 221.986C256.389 225.045 250.359 233.18 248.391 243.135C245.879 255.843 250.149 268.439 250.149 268.439L272.289 265.259C272.289 265.259 271.101 263.456 270.766 261.016C270.11 256.229 270.031 248.994 269.714 248.131C269.233 246.829 279.835 229.451 280.702 223.656C281.568 217.861 277.486 212.123 277.486 212.123" fill="black"/>
</g>
<g opacity="0.3">
<path d="M260.9 221.1C260.912 221.086 267.738 225.893 272.96 224.873L263.135 218.346L260.9 221.1Z" fill="black"/>
</g>
<path d="M273.54 207.491C273.54 207.491 262.069 219.673 261.371 220.519C258.85 223.578 252.82 231.713 250.852 241.667C248.34 254.375 252.61 266.971 252.61 266.971L275.531 263.065C275.531 263.065 272.654 247.965 272.175 246.663C271.694 245.361 282.296 227.983 283.163 222.188C284.029 216.393 279.947 210.655 279.947 210.655" fill="#FFED58"/>
<path d="M273.623 253.375L250.459 256.606C250.669 258.468 250.981 260.283 251.421 262.516L274.665 258.635L273.623 253.375Z" fill="white"/>
<path d="M272.762 244.804L250.062 247.711C249.886 249.959 250.021 251.615 250.164 253.683L272.961 250.052L272.377 247.112C272.287 246.656 272.314 246.183 272.458 245.74L272.762 244.804Z" fill="white"/>
<path d="M248.939 164.145C248.772 163.949 250.207 159.285 252.251 157.35C254.295 155.414 260.467 152.812 260.467 152.812C260.467 152.812 263.122 150.714 264.812 149.988C265.382 149.744 266.043 149.932 266.389 150.447C266.389 150.447 267.158 149.581 267.801 150.302C268.062 150.595 266.072 154.431 264.825 155.409C263.577 156.386 259.912 159.114 259.912 159.114L256.412 163.006L256.559 164.2L248.939 164.145Z" fill="#FFBE9D"/>
<path d="M259.022 156.397C259.033 156.43 259.552 156.299 260.344 155.954C261.135 155.611 262.188 155.029 263.226 154.211C264.262 153.389 265.07 152.499 265.585 151.808C266.103 151.117 266.352 150.643 266.322 150.624C266.244 150.564 265.091 152.373 263.041 153.977C261.009 155.602 258.981 156.308 259.022 156.397Z" fill="#FFEF65"/>
<path d="M278.332 222.473C276.402 224.847 271.579 226.019 266.43 223.327C261.281 220.635 250.517 193.581 249.032 189.381C247.547 185.181 248.105 164.257 248.105 164.257L257.07 163.066L261.285 189.094L271.765 206.338C272.558 206.64 279.174 210.883 279.844 215.317C279.842 215.316 280.942 219.261 278.332 222.473Z" fill="#E0E0E0"/>
<path d="M267.03 217.055C267.046 217.067 267.161 216.947 267.354 216.718C267.549 216.49 267.811 216.143 268.116 215.702C268.727 214.819 269.476 213.528 270.095 212.007C270.711 210.484 271.072 209.035 271.248 207.976C271.337 207.447 271.39 207.016 271.408 206.716C271.43 206.417 271.431 206.251 271.411 206.249C271.364 206.243 271.27 206.898 271.042 207.936C270.815 208.974 270.426 210.393 269.82 211.895C269.21 213.395 268.501 214.683 267.94 215.587C267.38 216.491 266.992 217.026 267.03 217.055Z" fill="#222222"/>
<path d="M229.442 154.2H145.516V224.74H229.442V154.2Z" fill="#222222"/>
<g opacity="0.3">
<path d="M171.449 154.2H145.516V224.74H171.449V154.2Z" fill="black"/>
</g>
<g opacity="0.3">
<path d="M210.512 200.255H196.942L194.421 206.49H185.16L199.327 174.398H208.266L222.478 206.49H213.035L210.512 200.255ZM207.852 193.562L203.727 183.293L199.6 193.562H207.852Z" fill="black"/>
</g>
<path d="M206.859 200.255H193.289L190.767 206.49H181.506L195.672 174.398H204.611L218.824 206.49H209.38L206.859 200.255ZM204.199 193.562L200.073 183.293L195.947 193.562H204.199Z" fill="white"/>
<g opacity="0.3">
<path d="M181.828 154.389L229.441 166.853V154.2L181.828 154.389Z" fill="black"/>
</g>
<path d="M221.332 224.74H137.406V295.281H221.332V224.74Z" fill="#FFED58"/>
<g opacity="0.3">
<path d="M163.34 224.74H137.406V295.281H163.34V224.74Z" fill="black"/>
</g>
<g opacity="0.3">
<path d="M212.827 243.807V275.899H205.353L191.187 258.799V275.899H182.293V243.807H189.766L203.932 260.907V243.807H212.827Z" fill="black"/>
</g>
<path d="M209.041 243.807V275.899H201.567L187.401 258.799V275.899H178.508V243.807H185.98L200.147 260.907V243.807H209.041Z" fill="white"/>
<path d="M163.479 286.865C163.369 286.865 163.281 272.89 163.281 255.656C163.281 238.415 163.37 224.443 163.479 224.443C163.588 224.443 163.676 238.415 163.676 255.656C163.677 272.89 163.588 286.865 163.479 286.865Z" fill="#222222"/>
<g opacity="0.3">
<path d="M171.449 224.74C172.183 224.74 221.333 229.102 221.333 229.102V224.74H171.449Z" fill="black"/>
</g>
<path d="M228.619 295.341H145.461V365.236H228.619V295.341Z" fill="#222222"/>
<g opacity="0.3">
<path d="M171.157 295.341H145.461V365.236H171.157V295.341Z" fill="black"/>
</g>
<g opacity="0.3">
<path d="M188.652 313.883H203.689C207.17 313.883 210.259 314.534 212.954 315.836C215.65 317.139 217.74 318.986 219.224 321.378C220.707 323.771 221.449 326.572 221.449 329.782C221.449 332.993 220.707 335.794 219.224 338.186C217.74 340.579 215.65 342.426 212.954 343.728C210.258 345.031 207.17 345.681 203.689 345.681H188.652V313.883ZM203.326 338.504C206.051 338.504 208.239 337.732 209.89 336.187C211.541 334.643 212.366 332.508 212.366 329.782C212.366 327.057 211.541 324.921 209.89 323.377C208.239 321.833 206.051 321.06 203.326 321.06H197.646V338.504H203.326Z" fill="black"/>
</g>
<path d="M185.055 313.883H200.091C203.572 313.883 206.661 314.534 209.356 315.836C212.052 317.139 214.142 318.986 215.626 321.378C217.109 323.771 217.852 326.572 217.852 329.782C217.852 332.993 217.109 335.794 215.626 338.186C214.142 340.579 212.052 342.426 209.356 343.728C206.661 345.031 203.572 345.681 200.091 345.681H185.055V313.883ZM199.727 338.504C202.453 338.504 204.641 337.732 206.291 336.187C207.942 334.643 208.767 332.508 208.767 329.782C208.767 327.057 207.942 324.921 206.291 323.377C204.641 321.833 202.453 321.06 199.727 321.06H194.048V338.504H199.727Z" fill="white"/>
<g opacity="0.3">
<path d="M145.461 295.341L171.256 299.342L214.42 295.461L145.461 295.341Z" fill="black"/>
</g>
<path d="M171.03 365.236C170.92 365.236 170.832 349.615 170.832 330.351C170.832 311.079 170.921 295.462 171.03 295.462C171.139 295.462 171.227 311.079 171.227 330.351C171.228 349.615 171.139 365.236 171.03 365.236Z" fill="#222222"/>
</svg>
