<svg width="600" height="405" viewBox="0 0 600 405" fill="none" xmlns="http://www.w3.org/2000/svg">
<path d="M23.8267 401.037C23.8267 401.037 -37.5718 324.72 36.7531 254.429C111.077 184.137 49.6795 64.6416 151.471 37.5292C253.263 10.4169 242.76 133.93 352.631 118.867C462.502 103.805 542.482 129.953 546.521 207.756C550.56 285.558 526.323 338.78 578.027 401.037H23.8267Z" fill="#EBEBEB"/>
<path d="M585.715 401.037H0V404.425H585.715V401.037Z" fill="#070707"/>
<path d="M98.5357 326.221C98.5357 326.221 86.0923 322.29 75.031 316.44L74.4601 311.835L70.8497 314.075C62.3142 308.921 55.8925 302.648 59.126 296.352C62.4168 289.965 69.7873 288.788 77.2825 291.965L77.8312 297.552L81.5562 294.239C90.1148 299.768 97.816 310.874 98.5357 326.221Z" fill="#60A2F4"/>
<path d="M61.5088 297.548C61.5088 297.548 93.9794 301.071 102.835 338.779" stroke="#080808" stroke-width="1.14262" stroke-miterlimit="10"/>
<path d="M105.332 310.932C105.332 310.932 93.825 297.22 79.4277 281.852L82.1697 275.076C82.1697 275.076 77.7592 275.579 74.1368 276.059C61.5909 260.942 67.8518 250.338 70.5486 247.367C72.9367 244.739 85.2655 237.746 97.8807 250.121L97.1149 256.794H103.343C104.017 257.777 104.679 258.816 105.331 259.936C120.107 285.074 105.332 310.932 105.332 310.932Z" fill="#60A2F4"/>
<path d="M73.6963 247.366C73.6963 247.366 102.072 269.552 104.357 297.547C106.643 325.542 106.707 345.348 106.707 345.348" stroke="#080808" stroke-width="1.14262" stroke-miterlimit="10"/>
<path d="M139.807 302.271L135.591 301.551L136.734 304.876C121.148 317.777 119.286 316.451 113.012 324.518C113.012 324.518 105.916 298.66 121.947 284.136L126.643 285.736L126.026 281.017C145.944 268.197 156.273 287.484 139.807 302.271Z" fill="#60A2F4"/>
<path d="M144.263 281.36C144.263 281.36 113.411 293.644 110.841 340.492" stroke="#080808" stroke-width="1.14262" stroke-miterlimit="10"/>
<path d="M134.827 333.728H78.4604C78.4604 333.728 75.9697 355.267 80.929 373.241V398.06C80.929 400.448 82.323 402.653 84.4821 403.67C85.5907 404.196 86.63 404.458 87.5899 404.458C88.5267 404.458 89.384 404.207 90.1268 403.715C92.2637 402.298 93.509 398.905 93.8518 393.58C97.3255 395.819 101.542 397.134 106.638 397.145C112.557 397.156 117.299 395.465 121.093 392.62C121.344 398.493 122.612 402.207 124.863 403.715C125.617 404.207 126.474 404.458 127.4 404.458C128.371 404.458 129.411 404.196 130.52 403.67C132.667 402.653 134.062 400.448 134.062 398.06V367.06H134.027C136.964 350.685 134.827 333.728 134.827 333.728ZM89.4986 402.767C88.3216 403.544 86.7908 403.509 84.9736 402.641C83.2136 401.807 82.0718 400.001 82.0718 398.059V376.908C84.3223 383.387 87.7165 389.134 92.7552 392.814C92.4466 399.316 90.8927 401.842 89.4986 402.767ZM132.92 398.06C132.92 400.002 131.789 401.808 130.029 402.642C128.201 403.51 126.681 403.544 125.493 402.768C124.019 401.785 122.385 399.043 122.213 391.718C127.652 387.079 130.955 379.949 132.92 372.247V398.06Z" fill="#070707"/>
<path d="M137.876 328.971H75.4111V338.493H137.876V328.971Z" fill="#2A2832"/>
<path d="M567.742 339.624C567.742 339.624 563.689 334.817 554.776 328.69V325.883L552.808 327.255C545.487 321.453 545.833 315.651 552.986 314.834C555.029 314.604 556.997 314.897 558.788 315.819L558.62 318.553L561.542 317.882C565.029 321.475 567.438 328.376 567.742 339.624Z" fill="#60A2F4"/>
<path d="M595.397 309.776C594.569 310.949 593.292 312.269 591.752 313.672L587.49 312.394L588.161 316.678C580.463 322.731 570.21 328.911 570.21 328.911C569.749 318.48 571.812 306.007 580.788 300.539L583.93 302.047L582.956 299.408C583.606 299.125 584.297 298.874 585.009 298.654C597.575 294.852 600.33 302.842 595.397 309.776Z" fill="#60A2F4"/>
<path d="M567.521 305.231C567.521 305.231 560.505 301.743 554.776 297.082V293.668L552.378 294.987C548.733 291.499 546.335 287.603 548.094 284.116C550.084 280.178 554.556 279.874 558.755 282.388L558.933 285.687L561.405 284.399C565.783 288.484 569.082 295.804 567.521 305.231Z" fill="#60A2F4"/>
<path d="M593.717 290.631L589.466 289.353V292.264C582.626 294.725 574.228 297.134 574.228 297.134C575.746 289.185 579.433 282.053 586.994 279.759L588.68 281.372L589.822 279.152C590.346 279.079 590.88 279.037 591.435 279.005C602.001 278.482 600.598 287.72 593.717 290.631Z" fill="#60A2F4"/>
<path d="M571.062 288.065C571.062 288.065 563.857 280.054 555.374 271.601L556.557 267.276L552.022 268.312C551.938 268.228 551.844 268.145 551.76 268.061C541.811 258.458 546.712 245.366 561.542 251.126C562.946 251.67 564.192 252.341 565.302 253.137L564.768 256.803L568.434 256.018C575.503 264.49 573.639 279.33 571.062 288.065Z" fill="#60A2F4"/>
<path d="M599.121 264.867C598.377 266.469 597.099 268.02 595.507 269.465L591.559 269.895L591.967 272.252C585.412 276.787 577.126 279.855 577.126 279.855C577.126 279.855 577.294 267.759 585.4 260.029C585.516 259.914 585.631 259.809 585.746 259.715L589.024 260.815L588.741 257.526C595.843 253.546 602.43 257.745 599.121 264.867Z" fill="#60A2F4"/>
<path d="M588.683 341.325H548.1L554.645 383.054V398.535C554.645 398.59 554.656 399.878 555.651 400.801C556.29 401.394 557.166 401.694 558.26 401.694C558.416 401.694 558.577 401.687 558.742 401.675C562.072 401.428 561.955 394.887 561.861 389.631C561.852 389.089 561.843 388.563 561.838 388.061H577.219C577.215 388.563 577.206 389.089 577.196 389.631C577.103 394.887 576.987 401.428 580.315 401.675C580.481 401.687 580.641 401.694 580.798 401.694C581.892 401.694 582.768 401.394 583.406 400.801C584.401 399.877 584.413 398.589 584.413 398.535V383.68L588.683 341.325ZM560.815 389.65C560.892 393.955 561.008 400.458 558.666 400.63C557.659 400.706 556.882 400.508 556.374 400.041C555.712 399.435 555.694 398.541 555.694 398.534V388.061H560.791C560.796 388.57 560.804 389.102 560.815 389.65ZM582.693 400.035C582.186 400.506 581.41 400.703 580.393 400.63C578.051 400.458 578.166 393.954 578.244 389.65C578.253 389.102 578.262 388.57 578.268 388.062H583.366V398.535C583.365 398.544 583.346 399.428 582.693 400.035Z" fill="#070707"/>
<path d="M590.775 338.053H545.741V344.599H590.775V338.053Z" fill="#252728"/>
<path d="M597.843 260.028C597.843 260.028 569.828 271.549 568.388 312.393C566.947 353.239 568.388 359.522 568.388 359.522" stroke="#252728" stroke-width="1.04728" stroke-miterlimit="10"/>
<path d="M549.491 317.456C549.491 317.456 565.579 321.471 567.747 339.624" stroke="#252728" stroke-width="1.04728" stroke-miterlimit="10"/>
<path d="M595.399 300.175C595.399 300.175 568.024 314.139 567.748 343.115" stroke="#252728" stroke-width="1.04728" stroke-miterlimit="10"/>
<path d="M549.491 284.902C549.491 284.902 568.01 290.754 568.386 312.394" stroke="#252728" stroke-width="1.04728" stroke-miterlimit="10"/>
<path d="M551.759 253.221C551.759 253.221 573.985 268.652 571.06 294.365" stroke="#252728" stroke-width="1.04728" stroke-miterlimit="10"/>
<path d="M597.845 283.069C597.845 283.069 569.83 285.862 568.39 315.884" stroke="#252728" stroke-width="1.04728" stroke-miterlimit="10"/>
<path d="M364.806 198.781H355.516V402.793H364.806V198.781Z" fill="#37539A"/>
<path d="M485.567 84.532H234.748V288.545H485.567V84.532Z" fill="#CEDBEA"/>
<path d="M487.314 87.3083H233.519C231.543 87.3083 229.941 85.7063 229.941 83.7302C229.941 81.7541 231.543 80.1521 233.519 80.1521H487.314C489.291 80.1521 490.892 81.7541 490.892 83.7302C490.892 85.7063 489.291 87.3083 487.314 87.3083Z" fill="#344B7E"/>
<path d="M460.908 221.03H440.994C438.495 221.03 436.47 219.004 436.47 216.506V196.965C436.47 194.467 438.496 192.441 440.994 192.441H460.908C463.407 192.441 465.433 194.467 465.433 196.965V216.506C465.433 219.004 463.407 221.03 460.908 221.03Z" fill="#93B1CE"/>
<path d="M451.559 202.864L450.663 202.707C450.559 202.317 450.404 201.942 450.201 201.592L450.723 200.847C450.916 200.574 450.883 200.202 450.647 199.966L450.111 199.43C449.872 199.198 449.5 199.171 449.229 199.367L448.486 199.889C448.136 199.687 447.761 199.532 447.371 199.427L447.216 198.512C447.16 198.186 446.882 197.947 446.552 197.942H445.779C445.444 197.941 445.157 198.182 445.101 198.512L444.944 199.404C444.554 199.509 444.179 199.664 443.829 199.866L443.088 199.367C442.814 199.175 442.443 199.207 442.206 199.444L441.671 199.98C441.434 200.215 441.402 200.588 441.594 200.861L442.116 201.606C441.913 201.956 441.758 202.331 441.654 202.721L440.761 202.878C440.432 202.935 440.19 203.221 440.191 203.557V204.315C440.19 204.651 440.432 204.937 440.761 204.994L441.654 205.151C441.758 205.541 441.913 205.916 442.116 206.267L441.594 207.011C441.402 207.285 441.434 207.656 441.671 207.892L442.206 208.428C442.442 208.665 442.814 208.697 443.088 208.505L443.832 207.983C444.182 208.185 444.558 208.341 444.947 208.445L445.104 209.337C445.162 209.667 445.448 209.908 445.784 209.907H446.553C446.888 209.908 447.175 209.667 447.232 209.337L447.389 208.445C447.779 208.341 448.154 208.185 448.504 207.983L449.231 208.494C449.505 208.686 449.876 208.654 450.113 208.417L450.649 207.881C450.885 207.646 450.917 207.273 450.725 207L450.203 206.25C450.406 205.9 450.561 205.526 450.665 205.135L451.56 204.978C451.89 204.92 452.131 204.634 452.13 204.299V203.54C452.129 203.206 451.887 202.921 451.559 202.864ZM446.158 205.966C445.027 205.966 444.11 205.05 444.11 203.919C444.11 202.788 445.027 201.872 446.158 201.872C447.288 201.872 448.205 202.788 448.205 203.919C448.205 203.923 448.205 203.926 448.205 203.93C448.199 205.057 447.284 205.966 446.158 205.966Z" fill="white"/>
<path d="M461.253 198.868L460.534 198.743C460.45 198.429 460.325 198.128 460.162 197.847L460.581 197.25C460.735 197.031 460.709 196.731 460.519 196.542L460.088 196.111C459.896 195.925 459.598 195.904 459.381 196.061L458.783 196.479C458.502 196.317 458.201 196.193 457.888 196.109L457.764 195.374C457.719 195.114 457.495 194.922 457.231 194.916H456.61C456.341 194.915 456.111 195.109 456.065 195.374L455.939 196.091C455.626 196.175 455.325 196.3 455.044 196.463L454.449 196.062C454.229 195.907 453.931 195.933 453.742 196.123L453.311 196.554C453.122 196.743 453.095 197.042 453.249 197.262L453.668 197.859C453.506 198.14 453.381 198.441 453.297 198.755L452.58 198.88C452.315 198.926 452.122 199.157 452.122 199.425V200.034C452.121 200.303 452.315 200.533 452.58 200.579L453.297 200.705C453.381 201.018 453.506 201.319 453.668 201.6L453.249 202.198C453.095 202.418 453.121 202.716 453.311 202.906L453.742 203.336C453.931 203.525 454.229 203.552 454.449 203.398L455.047 202.978C455.328 203.141 455.629 203.265 455.942 203.35L456.068 204.066C456.113 204.331 456.344 204.524 456.613 204.524H457.231C457.5 204.525 457.73 204.331 457.776 204.066L457.902 203.35C458.215 203.266 458.516 203.141 458.797 202.978L459.381 203.389C459.601 203.543 459.899 203.517 460.088 203.327L460.519 202.896C460.708 202.707 460.735 202.408 460.581 202.189L460.162 201.586C460.325 201.305 460.449 201.004 460.534 200.691L461.253 200.565C461.518 200.52 461.711 200.289 461.711 200.02V199.411C461.71 199.143 461.517 198.914 461.253 198.868ZM456.917 201.359C456.009 201.359 455.273 200.623 455.273 199.715C455.273 198.807 456.01 198.072 456.917 198.072C457.824 198.072 458.56 198.808 458.56 199.715C458.56 199.718 458.56 199.722 458.56 199.725C458.555 200.628 457.82 201.359 456.917 201.359Z" fill="white"/>
<path d="M457.502 212.899L456.783 212.773C456.699 212.46 456.574 212.159 456.412 211.878L456.83 211.28C456.985 211.061 456.959 210.762 456.769 210.573L456.338 210.142C456.146 209.955 455.847 209.934 455.63 210.091L455.033 210.51C454.752 210.348 454.451 210.223 454.137 210.139L454.014 209.405C453.968 209.144 453.745 208.952 453.481 208.947H452.86C452.591 208.946 452.361 209.14 452.315 209.405L452.189 210.122C451.876 210.206 451.575 210.331 451.294 210.493L450.699 210.092C450.479 209.938 450.181 209.964 449.991 210.154L449.561 210.585C449.371 210.774 449.344 211.072 449.499 211.292L449.917 211.89C449.756 212.171 449.631 212.472 449.547 212.785L448.83 212.911C448.565 212.956 448.372 213.187 448.372 213.456V214.065C448.371 214.334 448.565 214.564 448.83 214.61L449.547 214.736C449.631 215.049 449.756 215.35 449.917 215.631L449.499 216.228C449.344 216.448 449.37 216.747 449.561 216.936L449.991 217.367C450.181 217.556 450.479 217.583 450.699 217.429L451.297 217.009C451.577 217.171 451.879 217.296 452.192 217.381L452.317 218.097C452.363 218.362 452.594 218.555 452.862 218.555H453.481C453.749 218.556 453.979 218.362 454.026 218.097L454.151 217.381C454.464 217.296 454.766 217.172 455.046 217.009L455.63 217.419C455.85 217.574 456.149 217.548 456.338 217.357L456.769 216.927C456.958 216.738 456.985 216.439 456.83 216.219L456.412 215.617C456.574 215.336 456.698 215.035 456.783 214.722L457.502 214.596C457.767 214.551 457.96 214.32 457.96 214.051V213.442C457.959 213.174 457.766 212.945 457.502 212.899ZM453.166 215.39C452.258 215.39 451.523 214.653 451.523 213.746C451.523 212.838 452.259 212.103 453.166 212.103C454.074 212.103 454.81 212.839 454.81 213.746C454.81 213.749 454.81 213.753 454.81 213.755C454.805 214.66 454.071 215.39 453.166 215.39Z" fill="white"/>
<path d="M460.908 181.612H440.994C438.495 181.612 436.47 179.587 436.47 177.088V157.547C436.47 155.048 438.496 153.023 440.994 153.023H460.908C463.407 153.023 465.433 155.049 465.433 157.547V177.088C465.433 179.587 463.407 181.612 460.908 181.612Z" fill="#93B1CE"/>
<path d="M454.465 175.814C454.455 176.156 454.169 176.443 453.818 176.443C453.809 176.443 453.809 176.443 453.8 176.443H453.716C453.569 176.84 453.181 177.117 452.737 177.126C452.672 177.856 452.053 178.41 451.305 178.392L450.788 178.383C450.039 178.364 449.439 177.773 449.411 177.043C448.977 177.006 448.626 176.711 448.497 176.313H448.377C448.025 176.304 447.739 176.008 447.748 175.657C447.758 175.306 448.044 175.029 448.395 175.029C448.404 175.029 448.404 175.029 448.413 175.029H448.46L448.478 174.364H448.423C448.072 174.355 447.785 174.059 447.795 173.699C447.804 173.357 448.09 173.071 448.432 173.071C448.441 173.071 448.441 173.071 448.45 173.071H448.506L448.534 172.082L453.883 172.202L453.855 173.2H453.873C454.234 173.209 454.511 173.505 454.502 173.856C454.502 174.207 454.215 174.484 453.864 174.484C453.855 174.484 453.855 174.484 453.846 174.484H453.827L453.809 175.149H453.827C454.188 175.158 454.465 175.454 454.465 175.814Z" fill="#F2F8FC"/>
<path d="M459.024 163.455C459.114 159.571 455.781 156.343 451.578 156.245C447.376 156.147 443.897 159.217 443.806 163.101C443.752 165.428 444.928 167.52 446.783 168.844H446.782C446.782 168.844 447.654 169.35 447.721 170.67L447.699 171.616C447.689 172.061 448.07 172.429 448.55 172.44L453.858 172.563C454.339 172.574 454.737 172.223 454.747 171.78L454.769 170.826C454.901 169.516 455.776 169.057 455.776 169.057H455.775C457.695 167.822 458.97 165.785 459.024 163.455Z" fill="#C2DDEF"/>
<path d="M450.397 172.484L450.582 164.555C450.596 163.969 450.131 163.482 449.544 163.469C448.958 163.455 448.471 163.92 448.458 164.506L448.444 165.1C448.43 165.686 448.895 166.173 449.482 166.186L451.316 166.233" stroke="white" stroke-width="0.218399" stroke-miterlimit="10"/>
<path d="M451.958 172.521L452.142 164.592C452.155 164.006 452.641 163.541 453.228 163.555C453.815 163.569 454.279 164.055 454.266 164.641L454.252 165.234C454.238 165.821 453.752 166.286 453.165 166.272L451.191 166.231" stroke="white" stroke-width="0.218399" stroke-miterlimit="10"/>
<path d="M460.908 142.194H440.994C438.495 142.194 436.47 140.168 436.47 137.67V118.13C436.47 115.632 438.496 113.606 440.994 113.606H460.908C463.407 113.606 465.433 115.632 465.433 118.13V137.67C465.433 140.168 463.407 142.194 460.908 142.194Z" fill="#93B1CE"/>
<path d="M461.587 130.408C462.982 124.529 459.348 118.632 453.469 117.237C447.59 115.842 441.693 119.477 440.298 125.356C438.902 131.235 442.537 137.132 448.416 138.527C454.295 139.922 460.192 136.287 461.587 130.408Z" fill="white"/>
<path d="M450.951 135.958C455.402 135.958 459.009 132.35 459.009 127.9C459.009 123.449 455.402 119.842 450.951 119.842C446.501 119.842 442.894 123.449 442.894 127.9C442.894 132.35 446.501 135.958 450.951 135.958Z" fill="#93B1CE"/>
<path d="M450.952 133.8C454.211 133.8 456.853 131.159 456.853 127.9C456.853 124.641 454.211 121.999 450.952 121.999C447.693 121.999 445.051 124.641 445.051 127.9C445.051 131.159 447.693 133.8 450.952 133.8Z" fill="white"/>
<path d="M450.947 131.757C453.078 131.757 454.805 130.03 454.805 127.9C454.805 125.769 453.078 124.042 450.947 124.042C448.817 124.042 447.09 125.769 447.09 127.9C447.09 130.03 448.817 131.757 450.947 131.757Z" fill="#93B1CE"/>
<path d="M450.951 130.024C452.125 130.024 453.076 129.073 453.076 127.9C453.076 126.726 452.125 125.775 450.951 125.775C449.778 125.775 448.826 126.726 448.826 127.9C448.826 129.073 449.778 130.024 450.951 130.024Z" fill="white"/>
<path d="M298.688 224.966H282.059V254.453H298.688V224.966Z" fill="#93B1CE"/>
<path d="M336.884 196.899H320.254V254.453H336.884V196.899Z" fill="#93B1CE"/>
<path d="M375.083 169.457H358.454V254.452H375.083V169.457Z" fill="#93B1CE"/>
<path d="M413.279 145.437H396.65V254.452H413.279V145.437Z" fill="#93B1CE"/>
<path d="M290.375 213.957L387.07 132.857L395.076 139.366V113.719L369.825 116.798L378.294 124.805L290.375 213.957Z" fill="#344B7E"/>
<path d="M257.862 116.49V254.452H436.956" stroke="#93B1CE" stroke-width="0.923853" stroke-miterlimit="10"/>
<path d="M182.084 256.795H62.5759L24.1885 87.3086H143.697L182.084 256.795Z" fill="#344B7E"/>
<path d="M191.171 388.618H28.2051V400.931H191.171V388.618Z" fill="#344B7E"/>
<path d="M63.6965 188.711H52.832V394.774H63.6965V188.711Z" fill="#344B7E"/>
<path d="M171.618 198.713H160.753V394.774H171.618V198.713Z" fill="#344B7E"/>
<path d="M190.686 256.795H58.2612V266.452H190.686V256.795Z" fill="#344B7E"/>
<path d="M86.5098 207.18H37.2573V215.872H86.5098V207.18Z" fill="#344B7E"/>
<path d="M48.0049 75.4785H58.2652L65.3881 93.5861H55.2479L48.0049 75.4785Z" fill="#344B7E"/>
<path d="M108.121 75.4785H118.381L125.504 93.5861H115.364L108.121 75.4785Z" fill="#344B7E"/>
<path d="M186.095 256.795H66.5872L28.1997 87.3083H147.708L186.095 256.795Z" fill="white"/>
<path d="M186.103 256.796H66.5948L63.4722 242.994C68.9783 224.507 90.8364 215.324 125.499 211.952C152.808 209.301 161.547 182.49 163.801 158.35L186.103 256.796Z" fill="#FAFBFC"/>
<path d="M122.72 223.496C145.154 215.196 155.554 187.426 145.951 161.469C136.348 135.512 110.377 121.198 87.944 129.498C65.5109 137.798 55.1102 165.569 64.7134 191.525C74.3167 217.482 100.287 231.796 122.72 223.496Z" fill="#CEC46C"/>
<path d="M125.03 220.262C147.463 211.963 157.863 184.192 148.26 158.235C138.657 132.278 112.686 117.965 90.2531 126.265C67.82 134.564 57.4192 162.335 67.0225 188.292C76.6258 214.248 102.596 228.562 125.03 220.262Z" fill="#EEDD47"/>
<path d="M120.448 207.882C136.971 201.769 144.632 181.314 137.559 162.195C130.486 143.076 111.356 132.533 94.8327 138.646C78.3091 144.76 70.6482 165.215 77.7216 184.334C84.795 203.452 103.924 213.995 120.448 207.882Z" fill="white"/>
<path d="M116.082 196.091C126.977 192.06 132.027 178.575 127.364 165.97C122.701 153.365 110.089 146.414 99.1947 150.445C88.3006 154.475 83.2497 167.961 87.9131 180.566C92.5766 193.171 105.188 200.122 116.082 196.091Z" fill="#EEDD47"/>
<path d="M113.114 188.064C120.178 185.45 123.453 176.706 120.429 168.533C117.405 160.36 109.227 155.853 102.164 158.466C95.0999 161.08 91.8248 169.824 94.8486 177.997C97.8724 186.17 106.05 190.677 113.114 188.064Z" fill="white"/>
<path d="M112.882 171.317C114.124 174.675 112.779 178.266 109.878 179.339C106.977 180.413 103.618 178.561 102.376 175.205C101.135 171.849 102.48 168.257 105.381 167.183C108.282 166.11 111.641 167.96 112.882 171.317Z" fill="#EEDD47"/>
<path d="M107.146 173.337L162.929 142.547" stroke="#344B7E" stroke-width="1.84771" stroke-miterlimit="10" stroke-linecap="round"/>
<path d="M154.62 141.127V147.136L159.701 150.211" stroke="#344B7E" stroke-width="1.84771" stroke-miterlimit="10" stroke-linecap="round"/>
<path d="M160.393 138.004V144.014L165.474 147.088" stroke="#344B7E" stroke-width="1.84771" stroke-miterlimit="10" stroke-linecap="round"/>
<path d="M109.578 166.436C109.387 167.008 105.329 174.248 105.329 174.248L113.967 174.692L109.578 166.436Z" fill="#344B7E"/>
<path d="M226.869 190.28L223.845 186.816L224.788 168.453L228.093 169.582L229.41 183.174L226.869 190.28Z" fill="#B9A70F"/>
<path d="M192.078 166.153L224.576 186.517C228.245 188.816 233.099 187.346 234.875 183.399C236.544 179.692 234.784 175.343 231.008 173.838L195.357 159.636L193.789 156.534C192.848 154.672 191.507 153.043 189.861 151.762L185.798 148.6C184.897 149.873 185.113 151.624 186.297 152.64L186.636 152.931L182.867 151.31C181.265 150.622 179.563 150.198 177.826 150.055C175.407 149.856 173.157 151.31 172.345 153.598C171.322 156.483 172.923 159.637 175.856 160.514L178.446 161.287L182.96 163.912C185.722 165.516 188.887 166.294 192.078 166.153Z" fill="#F0BF9C"/>
<path d="M186.64 152.929C186.026 156.388 187.353 159.905 190.098 162.097L191.171 162.955L190.108 162.576C186.168 161.173 184.495 156.519 186.64 152.929Z" fill="#EBA588"/>
<path d="M224.856 187.673L229.404 190.757L227.905 172.251L224.452 170.915L224.856 187.673Z" fill="#BC825B"/>
<path d="M224.786 169.056V168.453C224.786 168.453 250.827 177.51 253.78 176.727L270.478 172.298L281.003 171.303L297.909 175.293C302.398 176.352 306.048 179.606 307.614 183.945L316.907 209.695L301.408 213.392L304.252 251.074H251.641L253.49 214.672L251.073 201.59L226.868 190.281L226.92 186.98C227.017 180.738 228.857 173.787 224.786 169.056Z" fill="#F8E543"/>
<path d="M251.07 201.589L248.511 186.979L248.033 190.209C247.507 193.756 247.892 197.378 249.151 200.736L251.07 201.589Z" fill="#CBB710"/>
<path d="M301.407 213.391L298.208 214.067L293.516 191.884L298.102 180.153C294.806 182.709 292.877 186.647 292.877 190.819V191.871C291.312 195.033 290.867 198.632 291.617 202.08L295.037 217.813C295.298 219.011 295.898 220.109 296.764 220.975C297.835 222.046 298.491 223.461 298.616 224.971L300.547 251.073H304.253L301.407 213.391Z" fill="#CBB710"/>
<path d="M303.272 388.059C302.373 387.16 301.153 386.655 299.882 386.655H294.375C295.45 384.533 295.738 382.065 295.127 379.71L294.817 378.515H308.008L309.839 389.463H306.661C305.391 389.462 304.172 388.958 303.272 388.059Z" fill="#F0BF9C"/>
<path d="M283.63 395.385L286.77 394.155C288.258 393.571 289.583 392.635 290.631 391.426L293.031 388.658C293.566 388.041 294.015 387.367 294.376 386.655H299.883C301.154 386.655 302.374 387.16 303.273 388.059C304.172 388.958 305.391 389.463 306.662 389.463H309.84L311.47 399.204H278.956C280.064 397.501 281.681 396.149 283.63 395.385Z" fill="#070707"/>
<path d="M311.472 399.203L312.072 402.793H277.519C277.758 401.492 278.257 400.278 278.957 399.203H311.472Z" fill="white"/>
<path d="M267.12 388.059C266.221 387.16 265.002 386.655 263.731 386.655H258.932C260.064 384.902 260.627 382.829 260.504 380.723L260.373 378.514H273.523L273.253 384.451L274.107 389.463H270.511C269.239 389.462 268.019 388.958 267.12 388.059Z" fill="#F0BF9C"/>
<path d="M247.937 395.385L251.078 394.155C252.566 393.571 253.892 392.635 254.938 391.426L258.105 387.772C258.411 387.419 258.679 387.042 258.93 386.654H263.729C265 386.654 266.22 387.159 267.118 388.058C268.017 388.957 269.237 389.462 270.508 389.462H274.105L275.766 399.203H243.264C244.371 397.501 245.988 396.149 247.937 395.385Z" fill="#070707"/>
<path d="M275.767 399.203L276.38 402.793H241.827C242.066 401.492 242.566 400.278 243.265 399.203H275.767Z" fill="white"/>
<path d="M304.254 251.073L304.522 252.248C306.479 260.818 307.39 269.593 307.233 278.382L306.6 313.923L310.964 383.269H293.38L279.37 318.473L276.384 383.269H258.212L252.922 314.207L250.289 278.036C249.712 270.099 250.008 262.121 251.173 254.247L251.642 251.073H304.254Z" fill="#333333"/>
<path d="M279.373 318.473L276.016 268.42L261.954 265.15L273.827 270.98L272.832 304.182L276.813 317.903L274.112 330.275L276.813 335.962L274.539 341.935L276.387 383.269L279.373 318.473Z" fill="#222222"/>
<path d="M271.656 251.073L270.847 258.783C270.724 259.961 270.813 261.151 271.11 262.298L272.484 267.6L269.874 266.229C268.555 265.538 267.563 264.355 267.11 262.937L266.496 261.013C266.312 260.438 266.264 259.827 266.356 259.23L267.603 251.074L271.656 251.073Z" fill="#222222"/>
<path d="M278.622 167.583C279.884 166.267 280.751 164.614 281.357 162.894C281.47 162.575 281.567 162.251 281.664 161.926L282.564 161.775L284.057 174.643L281.708 176.117C277.813 178.559 272.859 178.539 268.984 176.065L268.357 169.943C269.352 170.309 270.402 170.524 271.462 170.546C274.12 170.602 276.782 169.5 278.622 167.583Z" fill="#F0BF9C"/>
<path d="M281.664 161.926C281.567 162.251 281.47 162.575 281.357 162.894C280.75 164.614 279.883 166.267 278.621 167.583C276.781 169.501 274.119 170.603 271.462 170.547C270.402 170.525 269.351 170.31 268.357 169.943L267.775 164.264L281.664 161.926Z" fill="#422C4F"/>
<path d="M272.399 167.036C280.409 167.036 286.902 160.542 286.902 152.533V143.131C286.902 135.121 280.408 128.627 272.399 128.627C264.389 128.627 257.895 135.121 257.895 143.131V152.533C257.895 160.542 264.389 167.036 272.399 167.036Z" fill="#F0BF9C"/>
<path d="M267.233 123.928C270.533 121.657 274.701 120.684 278.665 121.256C282.629 121.827 286.352 123.94 288.875 127.051C291.763 130.611 293.009 135.279 293.197 139.859C293.386 144.44 293.087 149.18 292.301 153.697H286.962C284.51 152.919 282.845 150.642 282.845 148.07V142.078C271.975 142.078 270.12 139.052 266.206 134.321C260.004 134.321 257.89 140.446 257.89 145.921V152.533C257.89 152.533 253.211 139.118 253.125 135.627C253.04 132.136 254.26 128.556 256.751 126.109C259.244 123.663 263.89 122.923 267.233 123.928Z" fill="#070707"/>
<path d="M284.765 153.697C284.765 156.661 287.168 159.064 290.133 159.064C293.097 159.064 295.5 156.661 295.5 153.697C295.5 150.732 293.097 148.329 290.133 148.329C287.168 148.329 284.765 150.732 284.765 153.697Z" fill="#F0BF9C"/>
<path d="M286.964 153.697C286.964 155.447 288.383 156.867 290.135 156.867C291.885 156.867 293.305 155.448 293.305 153.697C293.305 151.945 291.885 150.526 290.135 150.526C288.384 150.526 286.964 151.945 286.964 153.697Z" fill="#EBA588"/>
<path d="M313.799 210.443L299.892 213.863L303.274 232.46L299.127 267.053L294.044 273.473C293.202 274.536 292.937 275.973 293.342 277.286L296.301 286.884L297.08 287.029C300.526 287.67 303.538 284.549 302.944 280.952C307.105 275.41 306.991 269.429 306.991 269.429L316.799 236.285C317.657 233.386 317.794 230.306 317.196 227.336L313.799 210.443Z" fill="#F0BF9C"/>
<path d="M313.767 210.443L300.03 213.683L300.975 218.663L314.062 211.85L313.767 210.443Z" fill="#BC825B"/>
<path d="M272.799 143.123C274.555 143.123 276.109 143.963 277.097 145.26H268.501C269.489 143.963 271.044 143.123 272.799 143.123Z" fill="#7C4756"/>
<path d="M271.593 148.598C271.593 149.264 272.133 149.803 272.799 149.803C273.464 149.803 274.005 149.264 274.005 148.598C274.005 147.932 273.465 147.392 272.799 147.392C272.133 147.392 271.593 147.932 271.593 148.598Z" fill="#422C4F"/>
<path d="M260.481 143.123C259.025 143.123 257.733 143.963 256.914 145.26H264.049C263.23 143.963 261.939 143.123 260.481 143.123Z" fill="#7C4756"/>
<path d="M261.483 148.598C261.483 149.264 261.035 149.803 260.483 149.803C259.93 149.803 259.482 149.264 259.482 148.598C259.482 147.932 259.93 147.392 260.483 147.392C261.035 147.392 261.483 147.932 261.483 148.598Z" fill="#422C4F"/>
<path d="M265.395 154.683H269.869C269.48 155.439 268.599 156.002 267.752 156.06C266.904 156.116 265.88 155.38 265.395 154.683Z" fill="#EBA588"/>
<path d="M263.196 157.888C266.682 158.583 270.267 158.781 273.809 158.477C272.825 160.443 270.654 161.899 268.457 161.83C266.259 161.763 264.055 159.911 263.196 157.888Z" fill="white"/>
<path d="M416.179 283.194H422.917L399.234 400.916H392.496L416.179 283.194Z" fill="#37539A"/>
<path d="M413.485 379.809L409.615 395.268H396.541L399.811 379.809H413.485Z" fill="#F99D87"/>
<path d="M386.556 395.08L389.575 393.898C391.005 393.337 392.279 392.438 393.285 391.277L395.591 388.616C396.104 388.023 396.537 387.375 396.884 386.691H402.177C403.399 386.691 404.571 387.176 405.434 388.041C406.298 388.904 407.471 389.39 408.692 389.39H411.746L413.312 398.751H382.066C383.13 397.113 384.683 395.814 386.556 395.08Z" fill="#070707"/>
<path d="M413.31 398.749L413.888 402.199H380.683C380.913 400.95 381.392 399.783 382.065 398.749H413.31Z" fill="white"/>
<path d="M421.521 379.809L424.197 398.835H437.574L437.037 379.809H421.521Z" fill="#F99D87"/>
<path d="M412.181 395.08L415.199 393.898C416.631 393.337 417.904 392.438 418.91 391.277L421.216 388.616C421.729 388.023 422.162 387.375 422.508 386.691H427.801C429.023 386.691 430.195 387.176 431.058 388.041C431.922 388.904 433.095 389.39 434.316 389.39H437.37L438.936 398.751H407.69C408.755 397.113 410.309 395.814 412.181 395.08Z" fill="#070707"/>
<path d="M438.934 398.749L439.512 402.199H406.307C406.537 400.95 407.016 399.783 407.689 398.749H438.934Z" fill="white"/>
<path d="M411.501 315.582C411.501 315.582 392.736 384.101 395.732 384.779C398.728 385.457 414.583 382.682 414.583 382.682L426.078 335.91L411.501 315.582Z" fill="#CEC46C"/>
<path d="M437.172 382.683L434.794 334.324C434.794 334.324 485.529 346.217 512.878 337.1C540.227 327.984 527.939 296.67 527.939 296.67L434.794 302.616C434.794 302.616 405.067 299.442 410.22 334.324C415.373 369.206 418.544 382.683 418.544 382.683H437.172Z" fill="#F8E543"/>
<path d="M520.814 344.573C527.316 341.523 536.898 333.998 541.029 315.598C547.569 286.465 544.002 267.439 526.462 267.736C508.923 268.034 520.22 299.446 509.617 316.49C499.014 333.534 474.241 316.886 472.854 331.552C471.795 342.743 479.733 345.622 483.556 346.36V349.388H487.14L465.819 400.916H472.632L482.8 376.341H521.918L532.086 400.916H538.899L517.579 349.388H520.815L520.814 344.573ZM519.539 370.594H485.177L493.951 349.387H510.764L519.539 370.594Z" fill="#344B7E"/>
<path d="M459.869 283.194H453.131L476.814 400.916H483.552L459.869 283.194Z" fill="#37539A"/>
<path d="M529.236 308.615C529.456 312.073 527.196 316.052 525.25 318.424C518.2 315.408 512.355 310.316 504.779 308.299C495.958 305.951 486.685 305.951 477.662 305.029C471.423 304.36 477.909 294.013 479.369 291.144C481.9 286.169 483.86 279.056 483.372 273.467C492.462 278.483 505.054 283.358 510.67 292.319C512.695 295.552 514.933 300.05 518.455 301.938C521.626 303.638 525.725 302.185 528.144 305.488C528.833 306.428 529.165 307.494 529.236 308.615Z" fill="#AEA765"/>
<path d="M432.646 238.42C432.646 238.42 424.485 229.268 427.791 227.683C431.096 226.097 434.628 225.719 435.222 225.984C435.817 226.248 432.051 216.772 434.231 216.596C436.411 216.421 439.708 227.584 439.942 234.091C440.176 240.599 432.646 238.42 432.646 238.42Z" fill="#E9B98A"/>
<path d="M429.14 236.428L441.251 233.809L449.763 259.014C449.763 259.014 477.565 222.655 489.023 222L482.171 251.485C482.171 251.485 457.292 277.018 453.692 277.672C450.091 278.327 440.598 279.636 436.997 276.035C433.395 272.436 429.14 236.428 429.14 236.428Z" fill="#333333"/>
<path d="M509.541 187.892C513.787 198.099 518.007 208.318 522.198 218.548C523.092 220.73 525.336 224.126 525.434 226.457C525.511 228.285 523.911 228.892 522.129 229.592C518.399 231.057 514.303 231.105 510.397 231.763C505.818 232.536 501.203 233.57 496.589 234.091C490.94 234.73 486.265 230.159 484.659 225.009C483.235 220.438 483.692 215.52 484.163 210.754C484.638 205.958 485.087 201.159 485.443 196.352C485.655 193.471 485.877 190.579 485.908 187.69C485.939 184.845 483.105 182.435 485.557 179.723C487.015 178.11 489.272 177.542 491.39 177.054C494.32 176.378 497.414 175.707 500.289 176.587C505.109 178.062 507.605 183.238 509.541 187.892Z" fill="#1F2326"/>
<path d="M473.28 257.84C473.005 246.956 480.099 237.315 482.348 226.662C481.572 239.388 481.497 252.156 482.127 264.891C482.319 268.778 480.04 273.386 476.59 269.32C474.21 266.515 473.368 261.374 473.28 257.84Z" fill="#333333"/>
<path d="M527.993 293.684C528.257 298.313 528.394 302.95 528.367 307.588C528.327 314.587 522.486 315.86 516.79 312.559C510.89 309.141 504.729 305.794 497.818 305.134C487.862 304.181 487.209 301.729 487.289 290.95C487.369 280.412 482.612 270.846 479.728 260.938C478.38 256.308 476.837 250.729 477.159 245.863C477.511 240.571 480.601 234.983 482.582 230.023C486.738 219.628 501.166 220.17 510.259 221.412C515.359 222.109 521.068 222.417 524.25 226.676C528.566 232.456 529.057 240.653 527.472 247.439C525.481 255.973 521.805 264.548 523.352 273.173C524.356 278.768 527.214 282.897 527.653 288.628C527.783 290.313 527.896 291.998 527.993 293.684Z" fill="#FAFBFC"/>
<path d="M498.181 222.905C498.051 223.737 490.999 225.69 490.228 228.106C489.458 230.522 484.242 246.353 484.242 246.353L487.111 278.968L482.622 306.787L471.516 303.799L478.984 270.913L476.357 243.711L484.402 224.124C484.402 224.124 488.916 220.946 496.425 220.758C503.932 220.571 498.181 222.905 498.181 222.905Z" fill="#333333"/>
<path d="M508.062 219.811C508.062 219.811 498.194 237.758 498.573 249.066C499.111 265.046 495.438 282.669 500.154 298.646C501.968 304.792 506.484 308.893 511.161 312.951C513.244 314.759 516.707 316.954 517.949 319.481C519.382 322.394 517.743 325.623 520.482 328.46C522.31 330.354 524.963 331.273 527.585 331.498C530.207 331.722 532.837 331.319 535.438 330.916C531.309 331.555 530.639 302.707 530.311 299.807C528.673 285.344 526.97 270.824 524.951 256.462C524.533 253.486 524.467 224.16 522.743 223.703L508.062 219.811Z" fill="#333333"/>
<path d="M521.364 240.475C519.061 249.889 516.73 259.337 513.299 268.416C511.558 273.022 509.543 277.531 507.111 281.815C505.253 285.085 504.133 288.774 502.32 291.875C502.224 292.038 498.02 281.252 497.826 279.721C497.108 274.067 499.608 272.335 503.037 268.007C509.89 259.355 516.028 250.137 521.364 240.475Z" fill="#333333"/>
<path d="M500.16 298.642C500.089 298.876 504.117 305.344 504.426 305.853C506.375 309.057 508.78 311.983 511.549 314.511C511.851 314.785 519.596 301.452 520.191 300.19C522.806 294.643 524.562 288.9 526.103 282.983C527.964 275.836 526.666 269.32 525.728 262.092C525.728 262.092 500.555 298.076 500.16 298.642Z" fill="#333333"/>
<path d="M511.062 219.266C510.295 222.589 507.217 224.637 504.152 225.626C502.218 226.262 495.618 227.695 494.125 226.121C493.096 225.05 493.774 223.303 494.317 221.913C494.81 220.649 495.106 219.372 495.236 218.094C495.658 214.107 494.43 210.204 492.189 206.811C492.203 206.794 492.203 206.794 492.188 206.796C491.856 206.267 491.497 205.785 491.123 205.29C491.108 205.291 491.106 205.276 491.106 205.276L491.775 204.826C492.005 204.701 492.239 204.605 492.487 204.509C494.075 203.873 495.839 203.885 497.538 203.481C500.553 202.782 503.55 201.526 506.498 200.41C507.037 200.198 507.563 200.001 508.089 199.804C504.244 201.195 511.698 216.528 511.062 219.266Z" fill="#E9B98A"/>
<path d="M507.542 201.368C505.739 210.797 498.761 217.073 496.28 219.053C496.703 215.066 495.474 211.162 493.234 207.769C493.247 207.752 493.247 207.752 493.233 207.754C492.693 206.58 492.277 206.299 492.168 206.248C492.153 206.249 492.151 206.234 492.151 206.234L492.82 205.784C493.051 205.659 493.283 205.563 493.531 205.467C495.119 204.831 496.884 204.843 498.583 204.439C501.597 203.74 504.593 202.484 507.542 201.368Z" fill="#CA876F"/>
<path d="M511.162 179.508C514.428 184.152 513.861 188.651 513.338 193.905C513.009 197.223 510.608 203.618 505.94 202.16C505.827 202.435 505.787 202.706 505.709 202.993C503.826 209.943 493.329 218.085 486.686 212.01C481.544 207.308 480.035 198.304 480.086 191.675C480.091 191.107 480.112 190.571 480.151 190.073C480.399 186.847 480.517 182.874 481.68 179.826C482.46 177.783 484.228 176.47 486.131 175.331C493.817 170.732 505.778 171.851 511.162 179.508Z" fill="#E9B98A"/>
<path d="M516.157 222.49C513.348 222.004 512.046 220.525 510.313 218.288C506.898 213.929 506.252 209.194 505.855 203.945C505.475 198.892 507.766 193.601 506.354 188.66C505.987 187.381 505.54 186.269 505.442 184.96C505.432 184.718 505.435 184.473 505.438 184.214C505.433 184.459 505.414 184.706 505.41 184.95C505.307 187.77 505.218 190.587 505.112 193.393C503.241 192.505 501.393 192.207 499.463 191.512C496.629 190.512 497.369 191.378 496.734 188.515C496.458 187.236 496.51 185.735 496.596 184.258C496.644 183.275 496.723 182.302 496.714 181.435C496.55 182.362 496.384 183.273 496.221 184.2C495.861 186.225 495.49 188.268 495.131 190.293C492.955 189.944 490.793 189.593 488.632 189.241C488.554 186.878 488.478 184.53 488.399 182.167C488.362 181.046 488.324 179.91 488.287 178.789C488.017 179.809 487.762 180.827 487.492 181.847C486.921 184.061 486.333 186.263 485.761 188.476C482.778 188.217 479.795 187.959 476.811 187.7C476.246 184.17 476.861 180.502 478.409 177.301C478.635 176.836 478.876 176.369 479.137 175.929C481.141 172.545 483.156 171.855 485.93 170.504C486.465 170.247 487.011 169.956 487.609 169.627C490.478 168.031 492.74 166.63 495.976 166.038C501.135 165.108 509.715 166.312 510.16 173.014C510.771 172.85 511.401 172.79 512.021 172.853C512.888 172.935 513.746 173.232 514.522 173.681C515.18 174.057 515.766 174.553 516.258 175.125C518.062 177.242 518.403 180.17 518.675 182.957C518.751 183.859 518.824 184.745 518.949 185.576C519.51 189.624 520.381 193.621 521.556 197.52C522.717 201.421 524.168 205.243 525.904 208.941C526.762 210.777 527.516 212.712 528.692 214.366C532.638 219.919 519.78 223.113 516.157 222.49Z" fill="#1F2326"/>
<path d="M491.78 193.226C491.78 193.226 488.645 200.571 486.379 202.015C484.113 203.459 490.156 204.984 492.28 202.169C492.28 202.169 490.135 203.139 490.047 201.291C489.959 199.443 491.78 193.226 491.78 193.226Z" fill="#CA876F"/>
<path d="M484.328 194.868C484.248 196.115 484.68 197.158 485.294 197.198C485.909 197.238 486.471 196.259 486.552 195.011C486.632 193.764 486.2 192.721 485.585 192.681C484.971 192.642 484.408 193.621 484.328 194.868Z" fill="#1F2326"/>
<path d="M494.723 195.065C494.643 196.312 495.075 197.355 495.689 197.395C496.304 197.435 496.866 196.455 496.947 195.208C497.027 193.961 496.595 192.918 495.98 192.878C495.366 192.839 494.803 193.818 494.723 195.065Z" fill="#1F2326"/>
<path d="M486.165 205.345C486.165 205.345 490.193 207.022 494.469 204.846C494.469 204.846 492.833 207.477 489.643 207.46C486.453 207.444 486.165 205.345 486.165 205.345Z" fill="white"/>
<path d="M483.304 268.932C483.304 268.932 479.32 266.269 475.233 263.475C471.147 260.682 467.262 260.706 463.836 260.842C462.015 260.914 458.11 264.057 463.316 263.767C468.522 263.478 458.263 265.472 464.06 269.535C470.271 273.888 475.025 271.144 477.313 274.84C479.6 278.535 483.304 268.932 483.304 268.932Z" fill="#E9B98A"/>
<path d="M515.922 242.559C515.922 242.559 513.405 266.749 509.752 267.458C506.099 268.168 480.74 264.173 480.74 264.173L473.273 275.685C473.273 275.685 526.174 300.68 529.486 285.727C532.798 270.773 537.094 239.212 522.751 223.701C519.936 220.657 515.922 242.559 515.922 242.559Z" fill="#333333"/>
<path d="M296.978 283.194H290.239L313.922 400.916H320.661L296.978 283.194Z" fill="#37539A"/>
<path d="M253.278 283.194H260.016L236.333 400.916H229.595L253.278 283.194Z" fill="#37539A"/>
<path d="M467.313 277.843H234.647V288.545H467.313V277.843Z" fill="#F7F7F7"/>
<path d="M450.276 272.606H392.416V277.029H450.276V272.606Z" fill="#304573"/>
<path d="M339.72 276.756L321.337 235.179C320.625 233.569 321.803 231.76 323.564 231.76H402.69C403.671 231.76 404.556 232.348 404.935 233.252L423.48 277.464L339.72 276.756Z" fill="#304573"/>
<path d="M335.593 276.756L317.21 235.179C316.498 233.569 317.676 231.76 319.436 231.76H398.562C399.543 231.76 400.428 232.348 400.807 233.252L419.352 277.464L335.593 276.756Z" fill="#344B7E"/>
<path d="M373.372 250.957C374.714 255.009 373.006 259.22 369.558 260.362C366.111 261.504 362.227 259.144 360.885 255.092C359.543 251.04 361.251 246.829 364.699 245.688C368.147 244.546 372.03 246.905 373.372 250.957Z" fill="white"/>
<path d="M223.211 126.037H184.332C179.141 126.037 174.934 121.829 174.934 116.64C174.934 111.449 179.141 107.242 184.332 107.242H223.211C228.401 107.242 232.608 111.449 232.608 116.64C232.608 121.829 228.401 126.037 223.211 126.037Z" fill="#F8E543"/>
<path d="M195.868 116.664C195.872 117.991 194.799 119.071 193.472 119.076C192.144 119.081 191.064 118.007 191.06 116.68C191.055 115.352 192.128 114.272 193.456 114.267C194.785 114.263 195.864 115.336 195.868 116.664Z" fill="#333333"/>
<path d="M206.182 116.632C206.186 117.959 205.113 119.039 203.785 119.044C202.458 119.047 201.378 117.975 201.373 116.646C201.369 115.319 202.442 114.239 203.77 114.234C205.098 114.231 206.178 115.304 206.182 116.632Z" fill="#333333"/>
<path d="M216.495 116.6C216.499 117.928 215.426 119.008 214.099 119.011C212.771 119.016 211.691 117.942 211.687 116.615C211.682 115.287 212.755 114.207 214.083 114.203C215.411 114.199 216.491 115.272 216.495 116.6Z" fill="#333333"/>
<path d="M534.812 152.334C546.177 152.334 555.389 143.121 555.389 131.757C555.389 120.392 546.177 111.18 534.812 111.18C523.448 111.18 514.235 120.392 514.235 131.757C514.235 143.121 523.448 152.334 534.812 152.334Z" fill="#F8E543"/>
<path d="M541.807 126.463C540.121 124.812 537.421 124.841 535.772 126.527L534.684 127.637L533.566 126.535C531.887 124.879 529.185 124.902 527.529 126.581C525.875 128.261 525.896 130.963 527.576 132.618L531.728 136.707C531.736 136.715 531.743 136.726 531.751 136.734C532.414 137.384 533.233 137.772 534.085 137.903C535.399 138.105 536.786 137.692 537.787 136.671L541.871 132.5C543.52 130.814 543.491 128.113 541.807 126.463Z" fill="#333333"/>
<path d="M447.85 68.9042H416.971C414.239 68.9042 412.023 66.6897 412.023 63.957V37.4849C412.023 35.3526 413.752 33.625 415.883 33.625H447.85C449.983 33.625 451.71 35.3535 451.71 37.4849V65.0444C451.71 67.1766 449.982 68.9042 447.85 68.9042Z" fill="#333333"/>
<path d="M428.573 58.8739C431.939 58.9312 435.349 58.9774 438.444 58.763C439.425 58.6947 440.272 57.138 439.081 56.6465C439.582 56.3897 440.089 56.1421 440.308 55.5804C440.515 55.0482 440.266 54.3267 439.712 54.19C440.88 54.4791 441.34 52.6259 440.429 52.0281C440.911 51.617 441.312 51.0747 441.414 50.4493C441.515 49.8238 441.259 49.1189 440.703 48.8159C440.338 48.6173 439.904 48.6099 439.489 48.6062C438.089 48.596 436.689 48.5849 435.289 48.5748C435.668 46.3834 435.783 43.9961 434.669 42.0718C434.334 41.4925 433.433 40.7978 432.717 41.2431C432.047 41.6616 432.233 42.7009 432.267 43.3559C432.407 46.0813 430.856 48.8233 428.448 50.1074C428.448 50.1074 428.608 55.912 428.573 58.8739Z" fill="#F8E543"/>
<path d="M427.362 50.1064H422.273V58.8655H427.362V50.1064Z" fill="#F8E543"/>
<path d="M208.538 221.044L203.828 221.05C202.59 221.052 201.585 220.049 201.584 218.811L201.577 214.39C201.575 213.152 202.578 212.148 203.816 212.146L208.526 212.139C209.764 212.138 210.769 213.14 210.77 214.378L210.777 218.799C210.778 220.037 209.775 221.042 208.538 221.044Z" fill="white"/>
<path d="M188.929 72.2348H160.939C159.099 72.2348 157.608 70.7437 157.608 68.9052C157.608 67.0658 159.099 65.5747 160.939 65.5747H188.929C190.768 65.5747 192.258 67.0658 192.258 68.9052C192.258 70.7437 190.768 72.2348 188.929 72.2348Z" fill="white"/>
<path d="M316.1 53.341H288.111C286.272 53.341 284.781 51.8499 284.781 50.0114C284.781 48.172 286.272 46.6809 288.111 46.6809H316.1C317.94 46.6809 319.43 48.172 319.43 50.0114C319.431 51.8499 317.94 53.341 316.1 53.341Z" fill="#60A2F4"/>
<path d="M251.701 70.6928H217.821C214.422 70.6928 211.667 67.9379 211.667 64.5381V38.5769C211.667 35.178 214.422 32.4231 217.821 32.4231H251.701C255.1 32.4231 257.855 35.179 257.855 38.5769V64.5381C257.855 67.937 255.1 70.6928 251.701 70.6928Z" fill="#333333"/>
<path d="M224.701 54.554H219.18V61.8182H224.701V54.554Z" fill="#F8E543"/>
<path d="M233.245 49.614H227.724V61.8181H233.245V49.614Z" fill="#F8E543"/>
<path d="M241.79 45.8374H236.269V61.8182H241.79V45.8374Z" fill="#F8E543"/>
<path d="M250.335 40.1714H244.814V61.8182H250.335V40.1714Z" fill="#F8E543"/>
<path d="M61.5011 100.543C75.3441 100.543 86.5661 89.3215 86.5661 75.4784C86.5661 61.6354 75.3441 50.4133 61.5011 50.4133C47.658 50.4133 36.436 61.6354 36.436 75.4784C36.436 89.3215 47.658 100.543 61.5011 100.543Z" fill="#333333"/>
<path d="M75.8957 89.8738C83.8458 81.9235 83.8458 69.0335 75.8957 61.0833C67.9455 53.133 55.0557 53.133 47.1055 61.0833C39.1553 69.0335 39.1553 81.9235 47.1055 89.8738C55.0557 97.8241 67.9455 97.8241 75.8957 89.8738Z" fill="#F8E543"/>
<path d="M63.1202 86.0382V89.5368H59.9967V86.1315C56.9045 85.9439 53.9371 84.9757 52.2188 83.6334L53.9371 79.8225C55.4984 80.9782 57.7471 81.8217 59.9967 82.0397V76.8236C56.5294 75.9802 52.6557 74.8244 52.6557 70.3585C52.6557 67.0474 55.0614 64.2047 59.9967 63.643V60.1758H63.1202V63.5811C65.4631 63.7687 67.7432 64.3932 69.4606 65.4861L67.8993 69.3284C66.3057 68.4221 64.6815 67.8909 63.1202 67.7043V73.0146C66.5874 73.8267 70.3983 74.9824 70.3983 79.3873C70.3974 82.6337 68.024 85.445 63.1202 86.0382ZM59.9967 72.2321V67.7967C58.3411 68.1717 57.6852 69.0771 57.6852 70.1081C57.6843 71.2011 58.622 71.7951 59.9967 72.2321ZM65.3689 79.7596C65.3689 78.6667 64.4635 78.0727 63.1202 77.6043V81.915C64.6815 81.5713 65.3689 80.7592 65.3689 79.7596Z" fill="#333333"/>
<path d="M365.29 44.0217C353.133 44.0217 343.279 34.1674 343.279 22.0109C343.279 9.85494 353.133 0 365.29 0C377.446 0 387.301 9.85431 387.301 22.0109C387.301 34.1674 377.446 44.0217 365.29 44.0217Z" fill="#F8E643"/>
<path d="M375.727 17.4765C375.676 16.3593 375.498 15.5963 375.239 14.9284C374.97 14.2382 374.611 13.6525 374.027 13.0687C373.444 12.4849 372.859 12.1264 372.168 11.8582C371.501 11.5986 370.737 11.4213 369.62 11.3702C368.501 11.3192 368.143 11.3074 365.292 11.3074C362.441 11.3074 362.084 11.3192 360.964 11.3702C359.847 11.4213 359.084 11.5986 358.416 11.8582C357.726 12.1264 357.14 12.4856 356.557 13.0687C355.973 13.6525 355.614 14.2382 355.346 14.9284C355.087 15.5963 354.909 16.3593 354.858 17.4765C354.807 18.5962 354.795 18.9534 354.795 21.8046C354.795 24.6558 354.807 25.013 354.858 26.1327C354.909 27.2499 355.087 28.013 355.346 28.6808C355.614 29.371 355.973 29.9567 356.557 30.5399C357.141 31.1237 357.726 31.4822 358.416 31.7504C359.084 32.01 359.847 32.1873 360.964 32.2384C362.084 32.2894 362.442 32.3012 365.292 32.3012C368.143 32.3012 368.501 32.2894 369.62 32.2384C370.737 32.1873 371.501 32.01 372.168 31.7504C372.859 31.4822 373.444 31.1231 374.027 30.5399C374.611 29.9561 374.97 29.3704 375.239 28.6808C375.498 28.013 375.676 27.2499 375.727 26.1327C375.778 25.013 375.789 24.6552 375.789 21.8046C375.789 18.9534 375.778 18.5962 375.727 17.4765ZM373.837 26.0462C373.79 27.0701 373.619 27.6258 373.475 27.9955C373.285 28.486 373.058 28.8351 372.69 29.203C372.323 29.5702 371.973 29.798 371.483 29.9878C371.113 30.1316 370.557 30.3027 369.534 30.3494C368.427 30.3998 368.095 30.4104 365.292 30.4104C362.489 30.4104 362.157 30.3998 361.05 30.3494C360.026 30.3027 359.47 30.1316 359.101 29.9878C358.611 29.7974 358.261 29.5702 357.893 29.203C357.526 28.8358 357.299 28.486 357.108 27.9955C356.964 27.6258 356.793 27.0701 356.746 26.0462C356.696 24.9396 356.685 24.6072 356.685 21.804C356.685 19.0007 356.696 18.669 356.746 17.5618C356.793 16.5379 356.964 15.9821 357.108 15.6124C357.298 15.1226 357.526 14.7728 357.893 14.4056C358.261 14.0384 358.61 13.8106 359.101 13.6202C359.47 13.4764 360.026 13.3052 361.05 13.2586C362.157 13.2082 362.489 13.1976 365.292 13.1976L369.534 13.2586C370.557 13.3052 371.113 13.4764 371.483 13.6202C371.973 13.8106 372.323 14.0378 372.69 14.4056C373.057 14.7728 373.285 15.1226 373.475 15.6124C373.619 15.9828 373.79 16.5386 373.837 17.5618C373.887 18.669 373.898 19.0007 373.898 21.804C373.898 24.6072 373.887 24.9396 373.837 26.0462Z" fill="#333333"/>
<path d="M365.291 16.4146C362.314 16.4146 359.9 18.8282 359.9 21.8051C359.9 24.7826 362.314 27.1956 365.291 27.1956C368.268 27.1956 370.681 24.782 370.681 21.8051C370.681 18.8276 368.268 16.4146 365.291 16.4146ZM365.291 25.3042C363.358 25.3042 361.792 23.737 361.792 21.8051C361.792 19.8726 363.358 18.306 365.291 18.306C367.223 18.306 368.79 19.8726 368.79 21.8051C368.79 23.737 367.223 25.3042 365.291 25.3042Z" fill="#333333"/>
<path d="M370.894 14.9409C370.198 14.9409 369.634 15.5048 369.634 16.2006C369.634 16.8965 370.198 17.4604 370.894 17.4604C371.59 17.4604 372.154 16.8958 372.154 16.2006C372.154 15.5048 371.59 14.9409 370.894 14.9409Z" fill="#333333"/>
</svg>
