<svg width="380" height="380" viewBox="0 0 380 380" fill="none" xmlns="http://www.w3.org/2000/svg">
<path d="M103.592 96.0419C89.2121 96.0419 77.5552 84.3851 77.5552 70.0051C77.5552 55.6251 89.2121 43.9683 103.592 43.9683C117.972 43.9683 129.629 55.6251 129.629 70.0051C129.63 84.3851 117.972 96.0419 103.592 96.0419Z" fill="#F8E543"/>
<path d="M97.175 64.201H91.7866V81.6096H97.175V64.201Z" fill="white"/>
<path d="M94.4547 61.9219C96.2149 61.9219 97.6414 60.4824 97.6414 58.7086C97.6414 56.9347 96.2149 55.4968 94.4547 55.4968C92.6946 55.4968 91.2681 56.9355 91.2681 58.7086C91.2681 60.4824 92.6938 61.9219 94.4547 61.9219Z" fill="white"/>
<path d="M105.786 72.4714C105.786 70.0242 106.913 68.5657 109.069 68.5657C111.051 68.5657 112.003 69.9649 112.003 72.4714C112.003 74.9786 112.003 81.6096 112.003 81.6096H117.366C117.366 81.6096 117.366 75.2507 117.366 70.5873C117.366 65.9247 114.723 63.6698 111.033 63.6698C107.34 63.6698 105.786 66.5464 105.786 66.5464V64.2018H100.617V81.6104H105.786C105.786 81.6104 105.786 75.1534 105.786 72.4714Z" fill="white"/>
<path d="M138.487 18.1533L142.053 24.6726L148.572 28.2378L142.053 31.8029L138.487 38.3222L134.922 31.8029L128.403 28.2378L134.922 24.6726L138.487 18.1533Z" fill="#111111"/>
<path d="M287.183 194.767L289.858 199.657L294.747 202.33L289.858 205.005L287.183 209.894L284.509 205.005L279.62 202.33L284.509 199.657L287.183 194.767Z" fill="#EBEBEB"/>
<path d="M294.744 170.626L295.951 172.832L298.157 174.038L295.951 175.245L294.744 177.451L293.538 175.245L291.332 174.038L293.538 172.832L294.744 170.626Z" fill="#E0E0E0"/>
<path d="M113.023 20.6051L114.229 22.8114L116.434 24.0175L114.229 25.2244L113.023 27.4299L111.816 25.2244L109.609 24.0175L111.816 22.8114L113.023 20.6051Z" fill="#E0E0E0"/>
<path d="M52.5431 225.536C55.2631 224.353 57.1722 221.508 57.1449 218.184C57.1061 213.83 53.7659 210.328 49.6824 210.362C45.6012 210.395 42.3226 213.953 42.3606 218.307C42.3902 221.662 44.386 224.49 47.1661 225.606C35.8132 227.467 36.4896 239.823 36.4896 239.823L63.3898 239.599C63.3898 239.599 63.8412 227.092 52.5431 225.536Z" fill="#F8E643"/>
<path d="M310.566 306.993C310.186 305.058 308.276 303.544 306.306 303.615C304.353 303.686 302.574 305.305 302.308 307.239C302.025 305.307 300.233 303.704 298.279 303.651C296.308 303.598 294.413 305.128 294.049 307.066C293.785 308.477 294.269 309.947 295.064 311.143C295.858 312.339 296.944 313.309 298.016 314.264C299.52 315.601 300.909 316.859 302.412 318.197C303.903 316.845 305.172 315.576 306.662 314.225C307.727 313.261 308.804 312.282 309.587 311.079C310.372 309.875 310.843 308.402 310.566 306.993Z" fill="#EBEBEB"/>
<path d="M328.084 146.794L330.967 146.222L335.518 136.209L334.378 130.455C334.378 130.455 338.779 129.297 339.748 136.935C340.718 144.573 340.905 142.543 340.905 142.543C340.905 142.543 350.373 140.703 351.322 141.369C352.012 141.852 354.134 151.198 355.243 156.275C355.802 158.831 354.701 161.529 352.436 162.608C352.114 162.762 351.782 162.88 351.445 162.947C349.086 163.415 336.649 163.887 336.649 163.887L331.67 164.874L328.084 146.794Z" fill="#F8E643"/>
<path d="M319.52 146.851L325.202 166.214L330.139 165.235L326.308 145.918L319.52 146.851Z" fill="#F8E643"/>
<path d="M357.556 356.988C357.556 357.265 282.188 357.488 189.238 357.488C96.2548 357.488 20.9023 357.263 20.9023 356.988C20.9023 356.711 96.2548 356.488 189.238 356.488C282.188 356.488 357.556 356.711 357.556 356.988Z" fill="#263238"/>
<path d="M299.012 139.194C283.675 146.653 265.196 140.267 257.737 124.931C250.278 109.595 256.664 91.1156 272 83.6562C287.336 76.1976 305.815 82.5831 313.275 97.9191C320.733 113.256 314.348 131.735 299.012 139.194Z" fill="#111111"/>
<path d="M277.876 118.327C278.396 118.294 278.702 117.934 278.595 117.393C278.52 117.018 278.319 116.078 278.241 115.683C278.137 115.145 278.007 115.004 277.456 114.761C276.256 114.231 275.201 113.302 274.399 111.652C272.07 106.865 273.567 100.837 279.313 98.043C284.4 95.5692 288.707 97.3179 290.726 101.47C293.382 106.932 293.207 112.717 289.619 114.462C287.637 115.426 285.357 114.508 284.854 112.269C284.258 109.591 284.1 106.465 283.257 104.732C282.504 103.181 281.042 102.292 279.319 103.13C277.292 104.116 276.685 107.003 278.05 109.811C278.919 111.599 280.113 112.514 280.113 112.514C280.113 112.514 282.313 122.307 282.697 124.022C283.463 127.437 285.905 130.895 286.142 131.248C286.282 131.459 286.597 131.37 286.645 131.139C286.713 130.804 287.677 126.65 287.048 123.276C286.871 122.32 285.85 117.421 285.85 117.421C287.118 118.356 289.58 118.525 291.624 117.531C297.715 114.568 299.146 107.008 295.531 99.5767C292.798 93.9572 285.495 91.0388 278.26 94.5568C269.26 98.9344 267.86 107.595 270.477 112.975C272.061 116.236 274.705 118.535 277.876 118.327Z" fill="#F8E543"/>
<path d="M329.853 226.294C318.866 222.096 313.362 209.785 317.561 198.798C321.759 187.81 334.07 182.306 345.057 186.505C356.044 190.704 361.548 203.014 357.35 214.002C353.151 224.989 340.84 230.492 329.853 226.294Z" fill="#111111"/>
<path fill-rule="evenodd" clip-rule="evenodd" d="M348.574 210.015C350.625 204.212 347.653 197.788 341.824 195.561C336.066 193.361 329.649 196.076 327.236 201.638C327.171 201.791 327.107 201.945 327.047 202.1C326.279 204.112 326.124 206.202 326.483 208.179L322.373 213.144L329.028 213.525C330.241 214.954 331.822 216.11 333.698 216.827C339.617 219.089 346.23 216.161 348.475 210.287C348.509 210.198 348.544 210.107 348.574 210.015ZM334.346 215.132C332.515 214.433 331.022 213.241 329.956 211.759L326.073 211.541L328.465 208.65C327.951 206.762 328.005 204.709 328.752 202.753C328.863 202.462 328.99 202.177 329.129 201.902C331.3 197.547 336.507 195.472 341.177 197.256C345.907 199.064 348.405 204.185 347.006 208.928C346.938 209.166 346.86 209.4 346.77 209.636C344.886 214.567 339.312 217.03 334.346 215.132Z" fill="#F8E543"/>
<path fill-rule="evenodd" clip-rule="evenodd" d="M341.853 210.217C341.637 209.986 340.589 208.861 340.381 208.684C340.174 208.501 340.014 208.394 339.739 208.588C339.464 208.782 338.733 209.175 338.517 209.288C338.294 209.404 338.136 209.367 337.92 209.134C337.709 208.904 336.965 208.31 336.303 207.033C335.788 206.049 335.582 204.993 335.531 204.675C335.481 204.356 335.67 204.268 335.85 204.188C336.016 204.113 336.228 203.982 336.421 203.883C336.473 203.851 336.519 203.822 336.564 203.794C336.66 203.722 336.74 203.649 336.848 203.546C337.005 203.406 337.017 203.238 337.002 203.083C336.987 202.928 336.95 201.442 336.929 200.836C336.912 200.232 336.658 200.238 336.502 200.179C336.352 200.121 336.186 200.029 336.01 199.962C335.835 199.895 335.524 199.851 335.183 200.02C334.843 200.188 333.924 200.562 333.434 201.846C333.319 202.147 333.259 202.469 333.23 202.785C333.145 203.805 333.428 204.78 333.478 204.95C333.543 205.17 334.19 208.533 336.458 210.6C338.734 212.66 338.866 212.314 339.366 212.453C339.863 212.597 341.16 212.421 341.609 211.891C342.062 211.369 342.261 210.847 342.238 210.711C342.215 210.58 342.064 210.448 341.853 210.217Z" fill="#F8E543"/>
<path d="M52.9247 127.863C43.956 127.863 36.6851 120.592 36.6851 111.623C36.6851 102.654 43.956 95.3831 52.9247 95.3831C61.8935 95.3831 69.1644 102.654 69.1644 111.623C69.1652 120.592 61.8943 127.863 52.9247 127.863Z" fill="#111111"/>
<path d="M44.2734 117.06C45.8451 118.068 47.7109 118.655 49.7158 118.655C56.308 118.655 60.032 113.087 59.8078 108.093C60.501 107.593 61.1036 106.968 61.5794 106.256C60.9425 106.538 60.2578 106.729 59.5403 106.814C60.273 106.376 60.8361 105.68 61.1014 104.85C60.4151 105.257 59.6551 105.553 58.8472 105.712C58.1989 105.022 57.277 104.591 56.2548 104.591C53.9634 104.591 52.2793 106.73 52.7968 108.951C49.8458 108.802 47.2298 107.389 45.4788 105.241C44.5486 106.837 44.9962 108.925 46.5778 109.982C45.9956 109.964 45.4476 109.803 44.9688 109.537C44.9308 111.183 46.1088 112.721 47.8166 113.064C47.3165 113.2 46.7693 113.23 46.2137 113.124C46.6644 114.535 47.9762 115.56 49.5296 115.59C48.0377 116.76 46.1567 117.282 44.2734 117.06Z" fill="#F8E543"/>
<path d="M82.1077 309.786C67.0802 313.365 51.9965 304.086 48.4162 289.058C44.8366 274.031 54.1162 258.947 69.1429 255.367C84.1704 251.787 99.2541 261.067 102.834 276.094C106.415 291.123 97.1352 306.206 82.1077 309.786Z" fill="#111111"/>
<path d="M72.7143 270.346C76.6982 269.396 77.1732 269.3 78.7631 268.997C80.2337 268.717 81.0811 268.772 81.6565 268.851C82.4172 268.956 82.991 269.16 83.6378 269.558C84.2845 269.956 84.7261 270.376 85.1623 271.008C85.4922 271.485 85.9231 272.217 86.3365 273.656C86.7827 275.212 86.9111 275.68 87.8596 279.664C88.8088 283.647 88.9053 284.123 89.2086 285.713C89.4883 287.183 89.4335 288.031 89.3545 288.605C89.2496 289.366 89.0444 289.94 88.6469 290.587C88.2495 291.234 87.8292 291.675 87.1976 292.111C86.7203 292.441 85.9885 292.872 84.5498 293.286C82.9941 293.732 82.5259 293.859 78.542 294.808C74.5581 295.757 74.0831 295.854 72.4931 296.158C71.0225 296.438 70.1751 296.383 69.6006 296.303C68.8398 296.199 68.266 295.994 67.6193 295.597C66.9733 295.198 66.5317 294.779 66.0947 294.147C65.7656 293.67 65.334 292.938 64.9213 291.5C64.4752 289.943 64.3475 289.475 63.3982 285.492C62.449 281.508 62.3517 281.033 62.0492 279.443C61.7688 277.972 61.8243 277.124 61.9033 276.55C62.0082 275.789 62.2134 275.215 62.6109 274.569C63.0091 273.922 63.4286 273.481 64.0609 273.044C64.5382 272.715 65.2701 272.284 66.7088 271.87C68.2622 271.423 68.7311 271.295 72.7143 270.346ZM72.0744 267.658C68.0228 268.624 67.519 268.762 65.9442 269.213C64.3733 269.664 63.3496 270.175 62.4885 270.77C61.5985 271.385 60.888 272.093 60.2556 273.12C59.6233 274.146 59.3117 275.101 59.165 276.173C59.0222 277.209 59.0282 278.354 59.3338 279.959C59.64 281.568 59.7442 282.08 60.7094 286.132C61.6746 290.183 61.8129 290.687 62.2643 292.261C62.715 293.832 63.2257 294.856 63.8208 295.717C64.4349 296.607 65.1439 297.317 66.1707 297.95C67.1975 298.581 68.1513 298.894 69.2229 299.041C70.2595 299.184 71.4041 299.178 73.0092 298.872C74.6181 298.565 75.1304 298.461 79.1819 297.496C83.2335 296.531 83.7374 296.392 85.3113 295.941C86.8822 295.49 87.9059 294.98 88.7678 294.384C89.6585 293.77 90.3684 293.061 91.0007 292.035C91.6322 291.007 91.9446 290.054 92.092 288.982C92.2341 287.945 92.2288 286.801 91.9225 285.196C91.6155 283.588 91.5114 283.076 90.5462 279.024C89.581 274.973 89.4427 274.469 88.9912 272.894C88.5405 271.324 88.0298 270.299 87.4347 269.438C86.8199 268.548 86.1116 267.837 85.0841 267.205C84.0573 266.574 83.1035 266.261 82.0319 266.114C80.9953 265.972 79.8507 265.977 78.2456 266.283C76.6374 266.589 76.126 266.693 72.0744 267.658Z" fill="#F8E543"/>
<path d="M73.8021 274.916C69.5712 275.924 66.9583 280.172 67.9661 284.403C68.9739 288.634 73.2215 291.246 77.4524 290.239C81.6834 289.231 84.2962 284.984 83.2885 280.753C82.28 276.521 78.0331 273.908 73.8021 274.916ZM76.8117 287.55C74.0651 288.204 71.3086 286.508 70.6542 283.762C69.9999 281.015 71.6962 278.259 74.4428 277.604C77.1895 276.95 79.946 278.646 80.6003 281.393C81.254 284.139 79.5584 286.896 76.8117 287.55Z" fill="#F8E543"/>
<path d="M83.4869 272.29C83.7225 273.278 83.1122 274.271 82.1234 274.507C81.1339 274.742 80.1414 274.131 79.9065 273.143C79.6709 272.154 80.2812 271.162 81.2707 270.926C82.2587 270.69 83.2513 271.301 83.4869 272.29Z" fill="#F8E543"/>
<path d="M293.975 285.169C286.77 285.169 280.931 279.329 280.931 272.125C280.931 264.921 286.77 259.081 293.975 259.081C301.179 259.081 307.018 264.921 307.018 272.125C307.018 279.328 301.179 285.169 293.975 285.169Z" fill="#111111"/>
<path d="M291.988 280.009H295.164V272.057H297.379L297.615 269.395H295.164C295.164 269.395 295.164 268.401 295.164 267.879C295.164 267.251 295.29 267.003 295.897 267.003C296.386 267.003 297.615 267.003 297.615 267.003V264.24C297.615 264.24 295.804 264.24 295.417 264.24C293.054 264.24 291.988 265.28 291.988 267.272C291.988 269.007 291.988 269.395 291.988 269.395H290.337V272.091H291.988V280.009Z" fill="#F8E543"/>
<path d="M249.475 357.235L144.681 357.172C132.078 357.166 121.865 346.944 121.868 334.341L121.919 71.6207C121.922 59.01 132.149 48.7903 144.76 48.7971L249.554 48.8587C262.158 48.8663 272.37 59.0868 272.367 71.6906L272.316 334.412C272.314 347.023 262.087 357.242 249.475 357.235Z" fill="#263238"/>
<path d="M249.442 58.1511L229.124 58.1397C226.399 58.1382 224.189 60.4463 224.19 63.2941L224.188 66.9793C224.188 69.8278 221.978 72.1359 219.254 72.1344L179.651 72.1108C176.926 72.1093 174.718 69.7989 174.718 66.9504L174.719 63.2652C174.719 60.4167 172.511 58.1063 169.786 58.1048L162.64 58.1002L144.857 58.0903C136.025 58.0858 128.863 65.2427 128.861 74.0747L128.811 330.509C128.809 339.337 135.961 346.495 144.788 346.5L249.373 346.561C258.204 346.567 265.367 339.41 265.37 330.578L265.42 74.1423C265.421 65.3141 258.269 58.1565 249.442 58.1511Z" fill="white"/>
<path d="M250.983 78.9844C250.984 79.0528 248.341 79.1311 245.083 79.1577C241.822 79.1843 239.18 79.1509 239.18 79.0817C239.179 79.0133 241.821 78.9358 245.081 78.9084C248.34 78.8818 250.983 78.9153 250.983 78.9844Z" fill="#263238"/>
<path d="M251.007 82.0046C251.008 82.073 248.365 82.1512 245.107 82.1778C241.846 82.2044 239.204 82.171 239.204 82.1018C239.203 82.0334 241.845 81.9559 245.105 81.9286C248.364 81.902 251.006 81.9354 251.007 82.0046Z" fill="#263238"/>
<path d="M251.027 85.0241C251.028 85.0925 248.385 85.1708 245.127 85.1974C241.866 85.224 239.224 85.1906 239.224 85.1214C239.223 85.053 241.865 84.9755 245.125 84.9481C248.384 84.9215 251.026 84.9557 251.027 85.0241Z" fill="#263238"/>
<path d="M139.848 87.9698C139.854 87.9637 139.959 87.9576 140.157 87.9492C140.401 87.9409 140.683 87.9318 141.017 87.9211C141.829 87.9021 142.891 87.8763 144.193 87.8451L144.105 87.9348C144.094 87.2303 144.082 86.4612 144.068 85.632C144.072 85.2041 144.031 84.7998 144.073 84.3058C144.159 83.8126 144.598 83.3771 145.139 83.3269C145.651 83.317 146.102 83.2935 146.656 83.3193C147.229 83.3892 147.715 83.9395 147.698 84.546C147.711 85.6198 147.723 86.7416 147.736 87.9052L147.589 87.76C148.876 87.7471 150.216 87.7334 151.596 87.719L151.444 87.874C151.429 86.2605 151.415 84.5916 151.399 82.8816C151.395 82.4552 151.391 82.0311 151.388 81.6101C151.387 81.2179 151.148 80.9557 150.825 80.6631C150.232 80.0787 149.648 79.5026 149.073 78.9364C148.499 78.3702 147.935 77.8139 147.384 77.269C147.108 76.9969 146.835 76.7271 146.565 76.4603C146.284 76.189 146.063 75.9086 145.737 75.8417C145.421 75.7566 145.072 75.8242 144.817 76.0172C144.575 76.2224 144.316 76.5128 144.072 76.7506C143.578 77.2484 143.099 77.7326 142.634 78.2007C141.729 79.1401 140.788 79.9981 140.103 80.809C139.814 81.2574 139.922 81.8054 139.902 82.3047C139.901 82.801 139.899 83.2722 139.898 83.7168C139.893 84.5824 139.889 85.3409 139.885 85.9907C139.878 86.5721 139.873 87.0517 139.869 87.4454C139.861 87.7813 139.855 87.9622 139.848 87.9698C139.84 87.9774 139.831 87.8117 139.82 87.4879C139.81 87.1011 139.796 86.6284 139.78 86.0561C139.765 85.401 139.748 84.6364 139.728 83.7632C139.72 83.3102 139.711 82.8299 139.702 82.3237C139.698 82.0676 139.694 81.8046 139.69 81.5356C139.687 81.2514 139.761 80.9572 139.911 80.6973C140.652 79.7891 141.536 78.985 142.448 78.0183C142.909 77.5456 143.385 77.0584 143.874 76.5568C144.131 76.3045 144.341 76.0537 144.647 75.7908C144.968 75.5445 145.408 75.4564 145.809 75.562C146.235 75.6562 146.513 76.0058 146.771 76.2498C147.042 76.515 147.316 76.7841 147.593 77.0554C148.148 77.5988 148.713 78.1528 149.288 78.7175C149.864 79.283 150.45 79.8575 151.043 80.4404C151.184 80.5894 151.353 80.7156 151.491 80.9253C151.621 81.1252 151.694 81.3608 151.701 81.601C151.704 82.0243 151.708 82.4499 151.712 82.8785C151.725 84.5885 151.738 86.2575 151.75 87.871L151.751 88.0252L151.598 88.026C150.217 88.0351 148.878 88.0435 147.591 88.0518L147.445 88.0526L147.444 87.9067C147.438 86.7431 147.432 85.6214 147.426 84.5475C147.443 84.0634 147.067 83.6362 146.617 83.5747C146.156 83.5504 145.612 83.5663 145.164 83.5701C144.733 83.6058 144.373 83.9516 144.3 84.3491C144.261 84.7519 144.291 85.2216 144.282 85.6297C144.282 86.4596 144.283 87.2288 144.283 87.9333V88.0237L144.195 88.023C142.87 88.0138 141.791 88.0062 140.966 88.0002C140.639 87.9948 140.363 87.9895 140.124 87.9857C139.936 87.9804 139.842 87.9758 139.848 87.9698Z" fill="#263238"/>
<path d="M208.987 288.348C208.987 288.376 208.597 288.402 207.889 288.425C207.107 288.442 206.101 288.462 204.895 288.488C202.366 288.524 198.873 288.546 195.015 288.546C191.156 288.546 187.663 288.524 185.135 288.488C183.928 288.463 182.922 288.442 182.14 288.425C181.433 288.402 181.042 288.375 181.042 288.348C181.042 288.321 181.433 288.295 182.14 288.272C182.921 288.256 183.928 288.234 185.135 288.209C187.663 288.173 191.156 288.151 195.015 288.151C198.873 288.151 202.366 288.173 204.895 288.209C206.101 288.234 207.108 288.255 207.889 288.272C208.596 288.295 208.987 288.321 208.987 288.348Z" fill="#455A64"/>
<path d="M252.908 295.223C252.908 295.333 236.818 295.421 216.976 295.421C197.127 295.421 181.042 295.332 181.042 295.223C181.042 295.114 197.127 295.026 216.976 295.026C236.819 295.026 252.908 295.114 252.908 295.223Z" fill="#455A64"/>
<path d="M230.45 301.691C230.45 301.8 219.389 301.889 205.747 301.889C192.101 301.889 181.042 301.8 181.042 301.691C181.042 301.582 192.101 301.493 205.747 301.493C219.389 301.493 230.45 301.582 230.45 301.691Z" fill="#455A64"/>
<path d="M254.322 314.28L252.089 312.04L249.963 314.16L249.973 307.75L254.331 307.757L254.322 314.28ZM252.089 311.761L252.159 311.83L254.125 313.802L254.134 307.953L250.17 307.947L250.16 313.684L252.089 311.761Z" fill="#263238"/>
<path d="M194.867 313.446L194.079 313.095C193.698 313.301 193.364 313.403 193.059 313.405C191.852 313.415 190.862 312.44 190.853 311.234C190.843 310.027 191.817 309.038 193.024 309.028C194.231 309.018 195.22 309.992 195.23 311.199C195.235 311.736 195.041 312.252 194.685 312.658L194.867 313.446ZM193.025 309.178C191.901 309.187 190.994 310.109 191.003 311.233C191.012 312.357 191.934 313.264 193.058 313.255C193.347 313.253 193.668 313.151 194.04 312.946L194.073 312.928L194.653 313.187L194.522 312.616L194.548 312.587C194.896 312.206 195.085 311.713 195.08 311.201C195.071 310.076 194.149 309.169 193.025 309.178Z" fill="#263238"/>
<path d="M199.93 313.108L199.027 310.904L197.333 309.361L201.441 309.328L199.93 313.108ZM197.717 309.508L199.159 310.832L199.928 312.709L201.219 309.479L197.717 309.508Z" fill="#263238"/>
<path d="M201.359 309.348L199.119 310.805L199.201 310.931L201.441 309.473L201.359 309.348Z" fill="#263238"/>
<path d="M188.402 309.821C188.284 309.234 187.703 308.777 187.105 308.801C186.512 308.824 185.975 309.318 185.896 309.905C185.808 309.319 185.262 308.835 184.669 308.821C184.071 308.806 183.497 309.273 183.389 309.862C183.31 310.29 183.459 310.736 183.702 311.098C183.944 311.461 184.275 311.753 184.601 312.042C185.058 312.447 185.481 312.827 185.939 313.231C186.39 312.819 186.774 312.433 187.224 312.021C187.547 311.727 187.872 311.429 188.108 311.063C188.345 310.696 188.487 310.248 188.402 309.821Z" fill="#F8E543"/>
<path d="M258.9 319.951C258.9 319.951 258.891 319.705 258.886 319.236C258.883 318.76 258.879 318.066 258.872 317.156C258.865 315.322 258.854 312.626 258.841 309.132C258.824 302.147 258.799 291.985 258.769 279.238L258.899 279.369C229.657 279.385 186.008 279.409 137.363 279.437H137.355L137.553 279.239C137.551 293.388 137.548 307.113 137.547 319.952L137.355 319.76C172.343 319.796 202.702 319.827 224.324 319.849C235.144 319.872 243.776 319.89 249.713 319.903C252.678 319.914 254.967 319.922 256.526 319.928C257.297 319.933 257.886 319.937 258.292 319.94C258.69 319.942 258.9 319.951 258.9 319.951C258.9 319.951 258.707 319.959 258.316 319.963C257.916 319.966 257.335 319.97 256.573 319.975C255.025 319.98 252.748 319.989 249.801 319.999C243.875 320.012 235.258 320.031 224.457 320.053C202.801 320.075 172.396 320.107 137.355 320.142H137.164V319.951C137.162 307.112 137.159 293.387 137.158 279.238V279.041H137.355H137.363C186.009 279.068 229.657 279.092 258.899 279.108H259.03V279.239C258.999 292.019 258.975 302.208 258.958 309.211C258.945 312.692 258.933 315.379 258.926 317.206C258.92 318.106 258.916 318.792 258.913 319.263C258.908 319.722 258.9 319.951 258.9 319.951Z" fill="#263238"/>
<path d="M142.412 286.043L142.258 312.959L175.926 313.151L176.08 286.235L142.412 286.043Z" fill="#EBEBEB"/>
<path d="M176.068 286.232C176.065 286.236 176.008 286.239 175.9 286.241C175.776 286.243 175.62 286.246 175.422 286.249C174.985 286.251 174.372 286.255 173.584 286.259C171.965 286.261 169.631 286.264 166.681 286.267C160.76 286.255 152.369 286.238 142.4 286.217L142.578 286.041C142.538 294.055 142.493 303.237 142.445 312.954C142.486 313.002 142.077 312.58 142.255 312.758H142.264H142.282H142.318L142.391 312.759L142.537 312.76L142.829 312.761L143.411 312.764L144.572 312.771C145.344 312.776 146.112 312.78 146.876 312.785C148.404 312.794 149.918 312.803 151.412 312.812C154.401 312.831 157.318 312.85 160.147 312.868C165.802 312.909 171.103 312.947 175.915 312.982L175.749 313.146C175.831 305.063 175.898 298.358 175.945 293.651C175.976 291.309 176.002 289.466 176.019 288.186C176.03 287.568 176.04 287.086 176.046 286.739C176.056 286.41 176.068 286.232 176.068 286.232C176.068 286.232 176.08 286.387 176.084 286.705C176.086 287.044 176.09 287.516 176.094 288.12C176.097 289.393 176.101 291.224 176.106 293.549C176.1 298.282 176.09 305.023 176.08 313.148V313.312L175.915 313.311C171.103 313.292 165.802 313.27 160.147 313.246C157.318 313.232 154.401 313.218 151.412 313.203C149.917 313.195 148.404 313.187 146.876 313.178C146.112 313.175 145.343 313.17 144.572 313.166L143.411 313.159L142.829 313.156L142.537 313.154L142.391 313.153H142.318H142.282H142.264H142.255C142.428 313.33 142.008 312.912 142.052 312.951C142.115 303.234 142.174 294.052 142.226 286.038L142.226 285.86L142.403 285.862C152.419 285.955 160.849 286.034 166.799 286.089C169.732 286.125 172.052 286.155 173.662 286.175C174.434 286.189 175.036 286.198 175.464 286.206C175.653 286.211 175.803 286.216 175.922 286.219C176.022 286.224 176.072 286.228 176.068 286.232Z" fill="#263238"/>
<path d="M143.568 287.744L143.434 311.271L174.736 311.45L174.87 287.922L143.568 287.744Z" fill="#E0E0E0"/>
<path d="M143.426 311.269L154.442 296.706L161.162 305.895L165.784 301.029L174.728 311.446L143.426 311.269Z" fill="#F5F5F5"/>
<path d="M164.102 294.97C164.094 296.331 162.985 297.428 161.623 297.421C160.262 297.413 159.165 296.303 159.172 294.942C159.18 293.581 160.29 292.484 161.651 292.492C163.012 292.499 164.109 293.608 164.102 294.97Z" fill="#F5F5F5"/>
<path d="M199.176 111.623C199.176 111.636 199.052 111.65 198.816 111.663C198.534 111.673 198.195 111.685 197.786 111.7C196.827 111.716 195.547 111.737 193.994 111.763C190.792 111.799 186.369 111.821 181.485 111.821C176.598 111.821 172.175 111.799 168.973 111.763C167.42 111.737 166.14 111.716 165.181 111.7C164.772 111.686 164.432 111.673 164.151 111.663C163.915 111.65 163.791 111.636 163.791 111.623C163.791 111.609 163.915 111.595 164.151 111.582C164.432 111.573 164.772 111.56 165.181 111.545C166.139 111.529 167.42 111.508 168.973 111.482C172.175 111.446 176.598 111.424 181.485 111.424C186.37 111.424 190.792 111.446 193.994 111.482C195.547 111.508 196.827 111.529 197.786 111.545C198.195 111.56 198.534 111.572 198.816 111.582C199.052 111.596 199.176 111.609 199.176 111.623Z" fill="#263238"/>
<path d="M248.915 260.416L245.597 257.088L242.438 260.239L242.452 250.713L248.929 250.722L248.915 260.416ZM245.598 256.674L245.702 256.777L248.624 259.709L248.638 251.015L242.746 251.006L242.733 259.532L245.598 256.674Z" fill="#263238"/>
<path d="M164.661 259.414L163.109 258.722C162.36 259.128 161.703 259.328 161.102 259.333C158.726 259.352 156.778 257.436 156.759 255.061C156.74 252.686 158.657 250.738 161.032 250.719C163.407 250.7 165.355 252.616 165.374 254.991C165.383 256.049 165.003 257.065 164.302 257.864L164.661 259.414ZM161.035 251.013C158.822 251.03 157.036 252.845 157.054 255.057C157.071 257.27 158.886 259.056 161.099 259.038C161.668 259.033 162.299 258.833 163.032 258.429L163.097 258.392L164.24 258.903L163.98 257.779L164.033 257.722C164.716 256.971 165.089 256.001 165.08 254.993C165.062 252.781 163.248 250.995 161.035 251.013Z" fill="#263238"/>
<path d="M174.638 258.749L172.86 254.41L169.527 251.372L177.612 251.307L174.638 258.749ZM170.282 251.661L173.121 254.267L174.635 257.962L177.175 251.606L170.282 251.661Z" fill="#263238"/>
<path d="M177.433 251.31L173.025 254.178L173.186 254.426L177.594 251.558L177.433 251.31Z" fill="#263238"/>
<path d="M151.939 252.278C151.707 251.123 150.564 250.223 149.387 250.27C148.221 250.317 147.162 251.287 147.008 252.443C146.835 251.29 145.76 250.336 144.594 250.308C143.417 250.281 142.287 251.199 142.074 252.357C141.919 253.201 142.212 254.078 142.689 254.791C143.167 255.504 143.817 256.08 144.459 256.648C145.36 257.444 146.192 258.192 147.093 258.988C147.98 258.178 148.736 257.417 149.623 256.607C150.257 256.029 150.897 255.442 151.363 254.722C151.83 254.001 152.108 253.119 151.939 252.278Z" fill="#F8E543"/>
<path d="M151.203 117.107C154.232 117.107 156.688 114.651 156.688 111.623C156.688 108.594 154.232 106.138 151.203 106.138C148.175 106.138 145.719 108.594 145.719 111.623C145.719 114.651 148.175 117.107 151.203 117.107Z" fill="#EBEBEB"/>
<path d="M246.846 228.954C246.846 229.063 223.849 229.151 195.486 229.151C167.114 229.151 144.122 229.062 144.122 228.954C144.122 228.845 167.114 228.756 195.486 228.756C223.849 228.755 246.846 228.844 246.846 228.954Z" fill="#455A64"/>
<path d="M246.846 220.399C246.846 220.509 223.849 220.597 195.486 220.597C167.114 220.597 144.122 220.508 144.122 220.399C144.122 220.29 167.114 220.202 195.486 220.202C223.849 220.202 246.846 220.29 246.846 220.399Z" fill="#455A64"/>
<path d="M200.036 237.621C200.036 237.731 187.518 237.819 172.08 237.819C156.636 237.819 144.122 237.73 144.122 237.621C144.122 237.513 156.636 237.424 172.08 237.424C187.518 237.424 200.036 237.513 200.036 237.621Z" fill="#455A64"/>
<path d="M193.136 330.82C193.131 332.043 192.15 333.03 190.944 333.024C189.739 333.018 188.766 332.022 188.772 330.8C188.777 329.578 189.758 328.59 190.963 328.596C192.169 328.601 193.142 329.597 193.136 330.82Z" fill="#263238"/>
<path d="M199.9 330.851C199.895 332.073 198.914 333.06 197.708 333.055C196.503 333.05 195.53 332.054 195.536 330.831C195.54 329.609 196.522 328.622 197.728 328.627C198.933 328.632 199.906 329.628 199.9 330.851Z" fill="#263238"/>
<path d="M206.661 330.883C206.656 332.105 205.674 333.093 204.469 333.087C203.263 333.081 202.291 332.086 202.296 330.862C202.301 329.639 203.282 328.653 204.488 328.658C205.693 328.663 206.666 329.659 206.661 330.883Z" fill="#263238"/>
<path d="M259.629 122.477H138.084V196.808H259.629V122.477Z" fill="#E0E0E0"/>
<path d="M149.304 196.821L184.133 150.204L205.725 179.358L220.359 163.765L249.062 196.792L149.304 196.821Z" fill="#F5F5F5"/>
<path d="M214.875 144.486C214.876 148.824 211.36 152.342 207.022 152.343C202.684 152.344 199.167 148.829 199.166 144.49C199.164 140.152 202.68 136.635 207.018 136.634C211.356 136.632 214.873 140.148 214.875 144.486Z" fill="#F5F5F5"/>
<path d="M259.301 265.888C259.299 264.298 259.227 197.15 259.121 97.7458L259.301 97.9252C222.647 97.9305 181.331 97.9373 137.771 97.9434H137.757L137.955 97.7458C137.941 160.627 137.928 218.821 137.917 265.888L137.756 265.727C211.463 265.825 257.975 265.887 259.301 265.888C257.975 265.89 211.463 265.951 137.757 266.049H137.596V265.888C137.585 218.822 137.573 160.627 137.559 97.7458V97.5482H137.756H137.77C181.33 97.5551 222.647 97.5611 259.3 97.5665H259.479V97.7458C259.443 147.497 259.412 189.551 259.39 219.173C259.37 233.962 259.353 245.647 259.343 253.641C259.333 257.626 259.326 260.691 259.321 262.763C259.317 263.791 259.313 264.573 259.311 265.103C259.308 265.627 259.301 265.888 259.301 265.888Z" fill="#263238"/>
<path d="M202.195 286.746L204.884 277.711C205.353 275.752 205.976 273.441 206.814 270.803C207.568 268.433 209.501 265.942 211.265 264.149C214.009 261.358 215.315 261.338 217.159 259.857C217.327 259.749 217.515 259.595 217.673 259.51C218.055 259.303 218.335 259.029 218.57 258.734C220.16 257.014 218.633 254.352 215.405 254.605C212.974 254.796 209.01 255.492 202.564 262.142C202.484 262.243 202.399 262.327 202.32 262.43C198.937 266.828 195.759 254.274 195.186 249.602C194.815 246.57 191.535 244.706 188.567 245.804L172.865 253.148C171.569 252.691 170.029 252.769 168.281 253.303C165.969 254.158 164.685 256.535 165.289 258.842L171.658 284.264L152.953 346.503H193.27L202.195 286.746Z" fill="#FFBE9D"/>
<path d="M233.174 229.584L220.711 254.005L214.48 252.274L183.156 277.754C180.49 279.922 176.583 279.575 174.342 276.97L162.416 263.112C162.416 263.112 186.464 252.753 190.911 244.178C195.359 235.603 190.219 233.658 190.219 233.658L201.537 220.797L233.174 229.584Z" fill="#111111"/>
<path d="M217.009 179.697C217.009 179.697 198.766 175.662 173.095 150.975C147.424 126.289 135.361 93.5053 132.218 93.6656C129.076 93.8252 115.355 87.4549 89.26 144.221C63.1646 200.986 73.4436 214.168 78.6367 214.062C83.8298 213.955 119.089 204.129 141.113 206.632C163.136 209.136 191.444 220.614 191.444 220.614L217.009 179.697Z" fill="#111111"/>
<path d="M255.763 210.638L249.539 222.471L246.751 227.772C242.927 235.043 234.081 238.048 226.62 234.611L187.519 220.988L210.29 169.001L249.356 189.819C256.855 193.815 259.718 203.117 255.763 210.638Z" fill="#111111"/>
<path d="M91.365 145.254C77.4768 176.005 71.6955 203.407 78.4526 206.458C85.209 209.51 101.945 187.055 115.833 156.305C129.721 125.555 135.502 98.1535 128.746 95.1021C121.989 92.0507 105.254 114.504 91.365 145.254Z" fill="#111111"/>
<path d="M91.365 145.254C77.4768 176.005 71.6955 203.407 78.4526 206.458C85.209 209.51 101.945 187.055 115.833 156.305C129.721 125.555 135.502 98.1535 128.746 95.1021C121.989 92.0507 105.254 114.504 91.365 145.254Z" fill="#F8E543"/>
<path d="M255.763 210.638L249.539 222.471L246.751 227.772C242.927 235.043 234.081 238.048 226.62 234.611L187.519 220.988L210.29 169.001L249.356 189.819C256.855 193.815 259.718 203.117 255.763 210.638Z" fill="#F8E543"/>
<path d="M259.118 227.736L248.52 224.408L255.078 211.938L263.026 216.878L259.118 227.736Z" fill="#111111"/>
<g opacity="0.6">
<path d="M255.078 211.938L248.52 224.408L250.697 225.092L256.03 212.529L255.078 211.938Z" fill="#F8E543"/>
</g>
<path d="M247.778 214.814C247.622 215.157 242.333 213.101 235.965 210.222C229.592 207.343 224.556 204.732 224.711 204.389C224.865 204.047 230.153 206.103 236.524 208.982C242.894 211.861 247.931 214.472 247.778 214.814Z" fill="#111111"/>
<path d="M251.033 207.387C250.866 207.726 246.08 205.708 240.342 202.883C234.602 200.056 230.086 197.492 230.253 197.154C230.418 196.817 235.202 198.834 240.943 201.662C246.681 204.486 251.199 207.05 251.033 207.387Z" fill="#111111"/>
<path d="M243.666 222.604C243.61 222.785 242.352 222.495 240.343 221.874C239.34 221.564 238.151 221.172 236.836 220.716C235.529 220.243 234.172 219.557 232.719 218.898C226.921 216.207 222.494 213.572 222.639 213.26C222.81 212.891 227.543 214.997 233.287 217.662C234.728 218.315 236.064 219.034 237.324 219.56C238.59 220.071 239.724 220.549 240.671 220.969C242.567 221.811 243.721 222.424 243.666 222.604Z" fill="#111111"/>
<path d="M119.681 138.416C119.681 138.416 103.825 128.584 95.1497 150.006C86.4751 171.428 103.157 174.951 103.157 174.951C109.984 164.364 115.53 152.232 119.681 138.416Z" fill="#111111"/>
<path d="M136.545 112.885C136.637 112.901 136.412 114.356 135.924 116.978C135.422 119.595 134.713 123.395 133.696 128.061C133.026 130.358 132.293 132.868 131.507 135.558C131.11 136.906 130.698 138.298 130.275 139.733C130.063 140.451 129.847 141.179 129.628 141.916C129.391 142.648 129.082 143.365 128.806 144.105C127.664 147.053 126.466 150.143 125.224 153.348C124.913 154.149 124.598 154.957 124.281 155.771C123.972 156.59 123.536 157.36 123.166 158.166C122.391 159.764 121.605 161.385 120.81 163.026C120.012 164.666 119.223 166.286 118.445 167.883C118.041 168.673 117.704 169.492 117.252 170.242C116.807 170.995 116.367 171.743 115.93 172.483C114.179 175.44 112.488 178.294 110.877 181.015C110.465 181.689 110.093 182.375 109.663 183.014C109.218 183.644 108.779 184.264 108.345 184.876C107.478 186.098 106.635 187.284 105.82 188.432C104.189 190.714 102.668 192.843 101.275 194.793C98.2429 198.467 95.7 201.364 93.9535 203.375C92.1964 205.378 91.1901 206.457 91.1179 206.397C91.0457 206.338 91.9137 205.145 93.5446 203.039C95.2364 200.893 97.6121 197.881 100.53 194.182C101.871 192.218 103.335 190.072 104.905 187.771C105.694 186.621 106.51 185.433 107.351 184.21C107.772 183.599 108.199 182.978 108.632 182.35C109.049 181.712 109.413 181.023 109.814 180.35C111.392 177.634 113.048 174.786 114.765 171.835C115.195 171.097 115.629 170.354 116.067 169.604C116.513 168.858 116.845 168.045 117.244 167.258C118.014 165.671 118.795 164.061 119.585 162.431C120.376 160.803 121.159 159.194 121.931 157.609C122.301 156.809 122.737 156.046 123.046 155.234C123.364 154.427 123.68 153.626 123.994 152.832C125.253 149.66 126.468 146.599 127.625 143.68C127.907 142.949 128.223 142.239 128.467 141.515C128.694 140.786 128.917 140.065 129.138 139.355C129.581 137.937 130.011 136.559 130.427 135.226C131.266 132.568 132.047 130.087 132.764 127.816C133.866 123.246 134.763 119.525 135.402 116.874C136.051 114.292 136.453 112.869 136.545 112.885Z" fill="#F8E543"/>
<g opacity="0.4">
<path d="M166.214 261.411C167.66 264.036 169.136 266.703 171.277 268.802C173.417 270.9 176.357 272.386 179.34 272.086C182.322 271.786 185.149 269.308 185.18 266.311C186.612 267.386 188.806 266.803 189.992 265.462C191.178 264.121 191.563 262.256 191.705 260.47C193.649 261.617 196.353 260.707 197.651 258.861C198.948 257.014 199.028 254.526 198.4 252.357C197.771 250.19 196.516 248.266 195.279 246.378C196.776 246.499 198.361 246.604 199.701 245.926C201.041 245.247 201.944 243.475 201.163 242.192C200.705 241.439 199.825 241.065 198.984 240.802C196.637 240.068 194.991 239.48 192.549 239.763C191.982 239.769 193.526 246.205 178.197 255.008C169.147 260.206 166.214 261.411 166.214 261.411Z" fill="black"/>
</g>
<path d="M200.733 270.71C200.723 270.78 199.702 270.585 198.047 270.629C196.403 270.666 194.104 271.027 191.834 272.117C189.562 273.205 187.841 274.772 186.782 276.031C185.711 277.292 185.225 278.21 185.163 278.174C185.141 278.162 185.24 277.921 185.463 277.509C185.686 277.095 186.048 276.518 186.565 275.853C187.588 274.526 189.326 272.879 191.663 271.759C193.998 270.639 196.37 270.315 198.045 270.35C198.887 270.362 199.564 270.442 200.026 270.527C200.488 270.611 200.737 270.685 200.733 270.71Z" fill="#EB996E"/>
<path d="M167.211 257.328C169.68 259.7 171.369 262.319 173.959 264.707C175.136 265.793 176.964 267.849 178.542 268.123C180.12 268.396 181.13 268.187 181.754 266.712C182.26 265.518 181.352 263.886 180.725 262.902C179.075 260.314 177.497 258.291 176.261 256.278C175.683 255.336 176.432 255.141 176.705 255.577C177.894 256.809 179.667 257.877 180.731 259.219C182.188 261.055 182.453 263.487 186.267 262.718C186.771 262.616 187.275 262.442 187.683 262.13C189.119 261.031 189.179 259.12 188.575 257.59C188.101 256.391 187.27 255.373 186.451 254.377C188.074 256.21 189.847 258.141 192.428 258.349C193.929 258.47 195.436 257.771 196.042 256.393C196.806 254.659 195.711 252.982 194.612 251.626C192.664 249.223 190.491 247.003 188.13 245.004C187.251 244.26 186.131 243.844 184.979 243.836C183.644 243.828 181.972 244.079 181.148 245.24C179.65 247.348 180.111 249.212 180.111 249.212C180.111 249.212 176.763 247.515 174.072 249.291C171.382 251.066 170.716 254.118 170.716 254.118L167.211 257.328Z" fill="#FFBE9D"/>
<path d="M185.03 243.101C183.993 242.058 183.752 240.149 184.556 238.572C185.125 237.456 185.844 236.371 186.572 236.126C189.757 235.051 203.673 237.459 203.547 240.548C203.416 243.719 202.404 245.115 194.851 244.025C193.522 243.833 191.437 243.571 191.437 243.571L189.615 246.307L185.03 243.101Z" fill="#FFBE9D"/>
<path d="M187.52 256.034C187.41 256.102 186.351 253.941 184.188 252.004C182.048 250.041 179.795 249.198 179.851 249.082C179.867 249.038 180.448 249.188 181.325 249.601C182.2 250.01 183.354 250.716 184.454 251.71C185.551 252.708 186.366 253.788 186.86 254.618C187.356 255.45 187.563 256.014 187.52 256.034Z" fill="#EB996E"/>
<path d="M189.861 246.543C189.792 246.608 188.873 245.859 187.62 245.092C186.997 244.708 186.418 244.386 185.987 244.192C185.556 243.99 185.271 243.934 185.273 243.875C185.27 243.824 185.6 243.783 186.083 243.929C186.566 244.066 187.188 244.361 187.828 244.755C189.113 245.54 189.954 246.46 189.861 246.543Z" fill="#EB996E"/>
<path d="M192.199 243.672C192.19 243.756 190.978 243.791 189.518 243.37C188.793 243.148 188.182 242.799 187.803 242.472C187.421 242.147 187.262 241.875 187.299 241.843C187.372 241.775 188.237 242.597 189.635 242.993C191.016 243.392 192.219 243.541 192.199 243.672Z" fill="#EB996E"/>
<path d="M178.673 259.858C178.628 259.89 178.136 259.262 177.404 258.209C176.657 257.18 175.706 255.645 174.156 254.517C172.605 253.386 170.778 253.118 169.555 253.297C168.306 253.472 167.655 253.987 167.616 253.914C167.603 253.896 167.749 253.754 168.06 253.563C168.368 253.366 168.863 253.151 169.509 253.022C170.789 252.759 172.74 252.996 174.386 254.195C176.025 255.393 176.948 256.989 177.637 258.054C178.31 259.147 178.717 259.827 178.673 259.858Z" fill="#EB996E"/>
<path d="M189.318 290.638C189.33 290.746 186.783 291.113 183.63 291.456C180.476 291.798 177.91 291.988 177.899 291.88C177.887 291.771 180.434 291.405 183.588 291.062C186.74 290.719 189.306 290.529 189.318 290.638Z" fill="#EB996E"/>
<path d="M309.036 37.8813L309.893 39.45L311.462 40.3073L309.893 41.1661L309.036 42.7339L308.178 41.1661L306.608 40.3073L308.178 39.45L309.036 37.8813Z" fill="#F8E543"/>
<path d="M326.976 76.7705L327.835 78.3392L329.403 79.1972L327.835 80.0552L326.976 81.6239L326.119 80.0552L324.55 79.1972L326.119 78.3392L326.976 76.7705Z" fill="#F8E543"/>
<path d="M39.4425 180.525L40.3006 182.094L41.8692 182.952L40.3006 183.81L39.4425 185.378L38.5852 183.81L37.0166 182.952L38.5852 182.094L39.4425 180.525Z" fill="#F8E543"/>
<path d="M285.501 47.547L287.482 51.1692L291.104 53.1505L287.482 55.1318L285.501 58.7547L283.52 55.1318L279.897 53.1505L283.52 51.1692L285.501 47.547Z" fill="#F8E543"/>
<path d="M55.5244 155.874L57.5012 159.488L61.1157 161.465L57.5012 163.442L55.5244 167.056L53.5477 163.442L49.9331 161.465L53.5477 159.488L55.5244 155.874Z" fill="#F8E543"/>
<path d="M331.856 242.109L333.833 245.724L337.448 247.701L333.833 249.678L331.856 253.293L329.88 249.678L326.265 247.701L329.88 245.724L331.856 242.109Z" fill="#F8E543"/>
</svg>
