<svg width="120" height="120" viewBox="0 0 120 120" fill="none" xmlns="http://www.w3.org/2000/svg">
<path d="M64.5234 8.58941C61.8711 7.09779 58.4135 7.10449 55.7589 8.58941C42.4639 15.9264 29.1689 23.2656 15.8716 30.5993C13.2841 31.9605 11.5389 34.7391 11.5667 37.6233V81.9541C11.5481 84.8945 13.3832 87.7 16.0374 89.0425C19.8569 91.0745 23.5676 93.3128 27.4561 95.2095C31.9477 97.4166 37.5673 97.9047 42.1139 95.603C45.8044 93.6952 47.4436 89.4524 47.439 85.5533C47.4688 70.9229 47.4436 56.2921 47.4505 41.6618C47.5382 41.0115 47.0501 40.3166 46.3409 40.3322C44.6418 40.3054 42.9405 40.3166 41.2414 40.3278C40.5993 40.267 39.9729 40.8003 40.0213 41.4456C39.9984 55.9817 40.0259 70.5223 40.0076 85.0607C40.0446 87.0717 38.686 89.0045 36.7479 89.6838C32.2717 91.2527 19.4954 82.9572 19.4954 82.9572C19.0265 82.74 18.7288 82.2315 18.7747 81.7264C18.7747 67.1005 18.777 52.4742 18.7747 37.8506C18.7103 37.2611 19.0737 36.7301 19.6151 36.4893C32.8663 29.1956 46.1106 21.8836 59.3618 14.5853C59.8219 14.2781 60.4636 14.2791 60.9228 14.5876C74.174 21.8836 87.4206 29.1889 100.674 36.483C101.217 36.7234 101.565 37.2633 101.51 37.8506C101.508 52.4742 101.514 67.1005 101.505 81.7242C101.545 82.2418 101.277 82.7433 100.794 82.9706C87.6663 90.2248 74.3894 97.245 61.3808 104.71C60.8133 105.036 60.1704 105.404 59.5345 105.046C56.1135 103.154 52.7341 101.188 49.3245 99.2771C48.9539 99.0457 48.4819 98.9466 48.0952 99.2052C46.5663 100.011 45.1287 100.663 43.3733 101.358C40.9076 102.334 41.3017 102.733 43.525 104.029C47.5126 106.285 51.5067 108.533 55.4939 110.792C58.1187 112.43 61.6457 112.547 64.3552 111.033C77.6525 103.705 90.9452 96.3684 104.245 89.0407C106.892 87.6907 108.736 84.8963 108.718 81.9537V37.6233C108.743 34.7976 107.065 32.0685 104.556 30.6872C91.2144 23.3144 77.8668 15.9577 64.5234 8.58941Z" fill="#8CC84B"/>
<path d="M84.5866 41.8733C79.3677 39.0812 73.1591 38.9326 67.3595 39.2973C63.1698 39.7113 58.7632 40.8676 55.7105 43.8709C52.5797 46.8903 51.8983 51.7657 53.3853 55.7073C54.4511 58.4923 57.1335 60.3036 59.9074 61.2616C63.4809 62.523 67.2339 62.9131 70.9881 63.3032C74.4124 63.6591 77.8378 64.0151 81.129 65.0325C82.4734 65.4782 84.039 66.1597 84.4508 67.6223C84.831 69.3546 84.4142 71.3682 83.0076 72.5718C78.54 76.1079 66.1129 75.5661 61.6988 72.7831C59.9143 71.5974 59.1452 69.4984 58.8326 67.4985C58.7979 66.8751 58.2961 66.3035 57.6193 66.3509C55.9248 66.3307 54.2303 66.3352 52.5358 66.3486C51.9444 66.2991 51.3298 66.7198 51.2974 67.323C50.9493 76.484 59.3626 80.4777 67.2562 81.3571C71.7662 81.7868 76.3749 81.7622 80.8159 80.7945C84.1542 80.0343 87.5012 78.6347 89.7993 76.0633C92.6331 72.9385 93.1902 68.2859 91.9193 64.3935C90.9478 61.4893 88.1712 59.6261 85.3328 58.6678C81.473 57.3442 76.8986 56.6329 73.4027 56.2999C68.3212 55.8158 62.2828 56.0136 60.8447 52.6745C60.2712 50.9262 60.7593 48.7553 62.3661 47.6799C66.6172 44.7962 75.269 45.1792 79.6716 47.3333C81.6933 48.3457 82.8646 50.4246 83.3481 52.5236C83.4377 53.1403 83.8526 53.7834 84.5664 53.7566C86.249 53.7901 87.9321 53.7655 89.6147 53.7678C90.1928 53.8084 90.8257 53.482 90.9386 52.8902C90.8673 48.5034 88.6272 44.0129 84.5866 41.8733Z" fill="#8CC84B"/>
</svg>
