<svg width="120" height="120" viewBox="0 0 120 120" fill="none" xmlns="http://www.w3.org/2000/svg">
<rect x="7.6875" y="7.90192" width="104.625" height="104.625" fill="#FFCA28"/>
<path d="M71.2098 94.9188L78.9129 89.8217C79.5165 91.7183 83.3394 96.2227 88.1682 96.2227C92.9971 96.2227 95.239 93.5853 95.239 91.8368C95.239 87.0719 90.3082 85.3919 87.9399 84.585C87.5539 84.4535 87.2359 84.3452 87.0185 84.2504C86.907 84.2019 86.7384 84.1375 86.5219 84.0548C83.888 83.0484 74.1703 79.3357 74.1703 68.5739C74.1703 56.7201 85.6101 55.3569 88.197 55.3569C89.8894 55.3569 98.0271 55.5644 102.08 63.1804L94.6067 68.3961C92.9683 65.077 90.2462 63.9805 88.5706 63.9805C84.4316 63.9805 83.5693 67.0149 83.5693 68.3961C83.5693 72.2717 88.0662 74.0088 91.8633 75.4756C92.8567 75.8593 93.8021 76.2246 94.6067 76.6047C98.7457 78.5607 104.839 81.7611 104.839 91.8368C104.839 96.8834 100.606 105.054 89.9503 105.054C75.6362 105.054 71.8421 96.4598 71.2098 94.9188Z" fill="#3E3E3E"/>
<path d="M33.8438 95.931L41.8725 90.8365C42.5016 92.7321 44.9462 96.2272 48.4932 96.2272C52.0402 96.2272 53.8557 92.584 53.8557 90.8365V56.4779H63.7298V90.8365C63.8896 95.5756 61.2613 105.054 49.6616 105.054C38.9965 105.054 34.5627 98.7152 33.8438 95.931Z" fill="#3E3E3E"/>
</svg>
