<svg width="120" height="120" viewBox="0 0 120 120" fill="none" xmlns="http://www.w3.org/2000/svg">
<circle cx="60.1425" cy="60.2144" r="52.3125" fill="#028CB0"/>
<path d="M24.4773 60.2144C24.4773 74.3474 32.6978 86.5201 44.5859 92.3061L27.5758 45.702C25.5332 50.2675 24.4773 55.2128 24.4773 60.2144ZM60.1417 95.8788C64.2836 95.8788 68.2674 95.1516 71.9982 93.8553L71.7453 93.3811L60.774 63.3445L50.0874 94.4244C53.2491 95.373 56.6322 95.8788 60.1417 95.8788ZM65.0424 43.4888L77.9423 81.8407L81.5151 69.9526C83.0327 65.0202 84.2026 61.4791 84.2026 58.4122C84.2026 53.9858 82.6217 50.9505 81.2938 48.6108C79.4599 45.6388 77.7842 43.141 77.7842 40.2322C77.7842 36.944 80.2504 33.9087 83.7915 33.9087H84.2342C77.6626 27.8758 69.0625 24.5351 60.1417 24.55C54.235 24.5488 48.4206 26.0161 43.2217 28.8198C38.0228 31.6235 33.6023 35.6756 30.3581 40.6116L32.6346 40.6748C36.3654 40.6748 42.1198 40.2006 42.1198 40.2006C44.0801 40.1057 44.3014 42.9197 42.3727 43.141C42.3727 43.141 40.4441 43.3939 38.2624 43.4888L51.2888 82.1253L59.0983 58.7284L53.5337 43.4888C52.2872 43.42 51.0431 43.3146 49.8028 43.1726C47.8741 43.0461 48.0955 40.1057 50.0241 40.2006C50.0241 40.2006 55.905 40.6748 59.4145 40.6748C63.1454 40.6748 68.8997 40.2006 68.8997 40.2006C70.8284 40.1057 71.0813 42.9197 69.1527 43.141C69.1527 43.141 67.224 43.3623 65.0424 43.4888ZM78.0688 91.0414C83.4641 87.9042 87.9417 83.4062 91.0543 77.9966C94.1669 72.5871 95.8054 66.4555 95.8062 60.2144C95.8062 54.0174 94.2253 48.1998 91.4429 43.1094C92.008 48.7097 91.1601 54.3623 88.9768 59.5504L78.0688 91.0414ZM60.1417 101.317C49.2406 101.317 38.786 96.9866 31.0777 89.2784C23.3695 81.5701 19.0391 71.1155 19.0391 60.2144C19.0391 49.3133 23.3695 38.8587 31.0777 31.1504C38.786 23.4422 49.2406 19.1118 60.1417 19.1118C71.0428 19.1118 81.4974 23.4422 89.2057 31.1504C96.9139 38.8587 101.244 49.3133 101.244 60.2144C101.244 71.1155 96.9139 81.5701 89.2057 89.2784C81.4974 96.9866 71.0428 101.317 60.1417 101.317Z" fill="white"/>
</svg>
