<svg width="121" height="120" viewBox="0 0 121 120" fill="none" xmlns="http://www.w3.org/2000/svg">
<path d="M70.5805 59.6956C70.5805 54.3357 66.0991 49.9903 60.5705 49.9903C55.0424 49.9903 50.5606 54.3357 50.5606 59.6956C50.5606 65.056 55.0424 69.4015 60.5705 69.4015C66.0991 69.4015 70.5805 65.056 70.5805 59.6956Z" fill="#53C1DE"/>
<path fill-rule="evenodd" clip-rule="evenodd" d="M93.0804 41.677C95.1944 33.3484 97.8515 17.9039 88.4844 12.6677C79.1614 7.45432 67.029 17.4441 60.6226 23.4404C54.2348 17.5038 41.7618 7.55678 32.4026 12.8096C23.0831 18.0404 25.957 33.2289 28.1178 41.6096C19.4242 44.0038 4.52148 49.1603 4.52148 59.6956C4.52148 70.2011 19.4087 75.8112 28.0508 78.203C25.8821 86.6302 23.152 101.602 32.4835 106.821C41.8773 112.073 54.3118 102.362 60.7774 96.3005C67.2249 102.332 79.2409 112.106 88.5658 106.872C97.9203 101.622 95.4838 86.3843 93.3229 77.9548C101.7 75.5578 116.62 70.07 116.62 59.6956C116.62 49.2614 101.637 44.0631 93.0804 41.677ZM92.0187 73.4876C90.5998 69.1331 88.6849 64.5024 86.3422 59.7187C88.5782 55.0481 90.4187 50.4771 91.7979 46.1504C98.0706 47.9136 111.831 51.9436 111.831 59.6956C111.831 67.5203 98.6265 71.5885 92.0187 73.4876ZM86.1661 102.854C79.2089 106.758 68.8738 97.4119 64.1122 92.97C67.2709 89.6203 70.4277 85.726 73.5085 81.4017C78.9279 80.9356 84.0478 80.1732 88.6908 79.1328C90.2116 85.0952 93.1546 98.9313 86.1661 102.854ZM34.8762 102.798C27.918 98.908 31.0984 85.5482 32.6938 79.3406C37.2853 80.3252 42.3679 81.0337 47.8003 81.4609C50.9014 85.6923 54.1494 89.5818 57.4227 92.9878C53.3785 96.7809 41.867 106.706 34.8762 102.798ZM9.3099 59.6956C9.3099 51.8415 22.988 47.8409 29.4037 46.0821C30.8067 50.5059 32.6467 55.1313 34.8673 59.8087C32.6179 64.5558 30.7516 69.2547 29.3357 73.7306C23.2183 72.0329 9.3099 67.5546 9.3099 59.6956ZM34.8018 16.8279C41.7885 12.9068 52.6292 22.4563 57.267 26.7546C54.0105 30.1452 50.7923 34.0053 47.7179 38.2122C42.4458 38.686 37.3989 39.447 32.7593 40.4663C31.0187 33.7068 27.8226 20.7448 34.8018 16.8279ZM76.9341 43.259C80.511 43.6967 83.9376 44.2787 87.1554 44.9911C86.1894 47.9931 84.9854 51.1322 83.5675 54.3501C81.5119 50.5685 79.3054 46.863 76.9341 43.259ZM60.6241 30.0726C62.8328 32.3925 65.0449 34.9832 67.2208 37.7938C62.807 37.5915 58.3858 37.5906 53.9718 37.7909C56.1497 35.0063 58.3807 32.4194 60.6241 30.0726ZM37.6147 54.3468C36.2202 51.1399 35.027 47.9869 34.0527 44.9421C37.2511 44.248 40.6618 43.6809 44.2154 43.2503C41.8375 46.8464 39.6347 50.5506 37.6147 54.3468ZM44.3176 76.4723C40.6464 76.075 37.1841 75.5367 33.9867 74.8619C34.9764 71.7632 36.1959 68.5424 37.6202 65.2667C39.6681 69.1021 41.9043 72.8422 44.3176 76.4723ZM60.7566 89.6467C58.4869 87.272 56.2232 84.6456 54.012 81.8207C58.4513 81.9898 62.899 81.9902 67.3374 81.7981C65.1546 84.6745 62.9504 87.3047 60.7566 89.6467ZM83.6132 65.0998C85.1114 68.4111 86.3745 71.6146 87.3776 74.6608C84.1271 75.3799 80.6182 75.9591 76.9207 76.3891C79.3097 72.717 81.551 68.9538 83.6132 65.0998ZM70.836 76.9519C64.0461 77.4222 57.2134 77.4173 50.4212 76.9904C46.5616 71.524 43.126 65.7753 40.1602 59.8072C43.1114 53.8515 46.5222 48.1141 50.3637 42.6563C57.1611 42.1581 64.0001 42.1569 70.7973 42.6592C74.6055 48.1167 78.0112 53.8392 81.0309 59.7413C78.0469 65.6942 74.6184 71.4431 70.836 76.9519ZM86.0927 16.6899C93.0812 20.5982 89.9705 34.4786 88.4437 40.5144C83.7933 39.4739 78.7429 38.6995 73.4554 38.2185C70.3751 33.9659 67.1836 30.099 63.9798 26.7522C68.6772 22.3614 79.1717 12.8199 86.0927 16.6899Z" fill="#53C1DE"/>
</svg>
